<svg width="300" height="200" viewBox="0 0 300 200" fill="none" xmlns="http://www.w3.org/2000/svg">
<path d="M207.966 68.603H255.84V78.299L222.409 139H211.198L245.134 77.794H208.067L207.966 68.603Z" fill="white"/>
<path d="M196.692 67.189V139H186.491V85.874H167.301V77.794H186.491L188.915 67.189H196.692Z" fill="white"/>
<path d="M113.277 140.515C108.093 140.515 103.548 139.572 99.6423 137.687C95.8043 135.802 92.8417 133.075 90.7543 129.506C88.667 125.937 87.657 121.729 87.7243 116.881H98.1273C98.262 121.527 99.6423 125.23 102.268 127.991C104.894 130.684 108.564 132.031 113.277 132.031C117.587 132.031 121.189 130.853 124.084 128.496C127.047 126.072 128.528 122.84 128.528 118.8C128.528 114.693 127.081 111.494 124.185 109.205C121.357 106.916 117.688 105.771 113.176 105.771H107.823V97.792H111.863C115.701 97.792 118.9 96.8157 121.458 94.863C124.017 92.9103 125.296 90.1497 125.296 86.581C125.296 83.147 124.152 80.4873 121.862 78.602C119.64 76.6493 116.678 75.673 112.974 75.673C108.598 75.673 105.298 77.087 103.076 79.915C100.854 82.743 99.7097 86.379 99.6423 90.823H89.2393C89.576 83.551 91.7643 77.794 95.8043 73.552C99.8443 69.2427 105.568 67.088 112.974 67.088C119.91 67.088 125.498 68.7377 129.74 72.037C133.982 75.3363 136.103 80.117 136.103 86.379C136.103 89.4763 135.127 92.338 133.174 94.964C131.222 97.59 128.73 99.5763 125.7 100.923V101.125C130.077 102.135 133.41 104.222 135.699 107.387C137.989 110.484 139.133 114.289 139.133 118.8C139.133 123.311 137.989 127.217 135.699 130.516C133.477 133.748 130.38 136.239 126.407 137.99C122.502 139.673 118.125 140.515 113.277 140.515Z" fill="white"/>
<path d="M74.431 67.189V139H64.23V85.874H45.04V77.794H64.23L66.654 67.189H74.431Z" fill="white"/>
</svg>
