<svg width="160" height="100" viewBox="0 0 160 100" fill="none" xmlns="http://www.w3.org/2000/svg">
<path d="M52 44.9797H56.2683V60.6585H58.7154V40.2561H57.2073C56.7236 42.3618 55.4715 43.3293 52 43.3293V44.9797Z" fill="#0D0D0D"/>
<path d="M76.8481 55.1382C76.8481 52.6057 75.1408 50.6707 72.7221 50.3008C74.714 50.0163 76.3644 48.2805 76.3644 45.7764C76.3644 42.7602 74.2018 40 69.8481 40C65.466 40 63.1042 42.9024 62.8766 46.4309H65.1815C65.3237 44.0122 66.9457 41.9919 69.8481 41.9919C72.6368 41.9919 74.0026 43.7276 74.0026 45.8049C74.0026 48.4228 72.153 49.3618 70.0189 49.3618H67.8847V51.3537H70.1042C72.779 51.3537 74.5433 52.6911 74.5433 55.0528C74.5433 57.5 72.7221 59.0081 69.7628 59.0081C66.6611 59.0081 64.8685 57.2439 64.6977 54.7114H62.3075C62.592 58.5528 65.4091 61 69.7628 61C74.3156 61 76.8481 58.2968 76.8481 55.1382Z" fill="#0D0D0D"/>
<path d="M84.1389 44.9797H88.4072V60.6585H90.8544V40.2561H89.3462C88.8625 42.3618 87.6105 43.3293 84.1389 43.3293V44.9797Z" fill="#0D0D0D"/>
<path d="M105.629 42.4187C101.788 47.313 99.1984 53.4594 99.1131 60.6585H101.674C101.759 53.7439 103.467 47.939 108.304 42.0772V40.3415H94.0196V42.4187H105.629Z" fill="#0D0D0D"/>
</svg>
