<svg width="160" height="100" viewBox="0 0 160 100" fill="none" xmlns="http://www.w3.org/2000/svg">
<g clip-path="url(#clip0)">
<path d="M44.5663 43.6788L44.1833 42.4387H41.3383L40.9553 43.6788H38.8945L41.7578 35.9463H43.7821L46.6271 43.6788H44.5663ZM42.7426 37.7882L41.7942 41.0527H43.7638L42.7426 37.7882Z" fill="#F2F2F4"/>
<path d="M52.4071 38.355C52.1336 37.7896 51.4953 37.2608 50.6017 37.2608C49.3615 37.2608 48.5773 38.1726 48.5773 39.7592C48.5773 40.6711 48.8509 42.2942 50.6017 42.2942C51.2947 42.2942 52.2248 41.9477 52.2795 40.8535H50.5469V39.3945H53.9026V43.6802H52.3889V42.969C51.4406 43.8261 50.547 43.8626 50.1093 43.8626C47.702 43.8626 46.626 41.7836 46.626 39.814C46.626 37.972 47.702 35.6924 50.4375 35.6924C52.4801 35.6924 53.5196 37.0602 53.8479 37.4796L52.4071 38.355Z" fill="#F2F2F4"/>
<path d="M55.2529 35.9463H60.9794V37.4417H57.1861V38.846H60.7241V40.305H57.1861V42.1469H61.3076V43.6606H55.2529V35.9463V35.9463Z" fill="#F2F2F4"/>
<path d="M66.9795 43.6788L64.244 39.0648V43.6788H62.3838V35.9463H64.2804L67.0342 40.6515V35.9463H68.8762V43.6788H66.9795Z" fill="#F2F2F4"/>
<path d="M77.0463 41.9112C76.4263 42.9872 75.3321 43.8991 73.709 43.8991C71.6664 43.8991 70.0068 42.4036 70.0068 39.7957C70.0068 37.4979 71.557 35.6924 73.7454 35.6924C75.1679 35.6924 76.4628 36.5313 77.0099 37.6985L75.478 38.4644C75.3138 37.8808 74.6208 37.279 73.8366 37.279C72.5965 37.279 71.9217 38.4462 71.9217 39.741C71.9217 41.4371 72.7789 42.276 73.8366 42.276C74.8397 42.276 75.2409 41.583 75.5144 41.127L77.0463 41.9112Z" fill="#F2F2F4"/>
<path d="M81.7325 40.0132V43.6788H79.8177V40.0679L76.918 35.9463H79.1246L80.7842 38.5724L82.4438 35.9463H84.6505L81.7325 40.0132Z" fill="#F2F2F4"/>
<path d="M92.1462 35.7109C94.9547 35.7109 96.0672 38.027 96.0672 39.869C96.0672 41.948 94.663 43.9176 92.1645 43.9176C89.6112 43.9176 88.3164 41.9116 88.3164 39.796C88.3164 38.0088 89.3377 35.7109 92.1462 35.7109ZM92.1645 42.2581C93.6052 42.2581 94.1158 40.9267 94.1158 39.8325C94.1158 38.4283 93.4958 37.3158 92.128 37.3158C90.669 37.3158 90.2131 38.7018 90.2131 39.7413C90.2313 40.9997 90.7784 42.2581 92.1645 42.2581Z" fill="#F2F2F4"/>
<path d="M103.127 35.9463V37.4417H99.1148V39.0648H102.799V40.5603H99.1148V43.6788H97.1816V35.9463H103.127Z" fill="#F2F2F4"/>
<path d="M42.961 48.0381V54.2569H41.0097V48.0381H38.9854V46.5244H44.9489V48.0381H42.961Z" fill="#F2F2F4"/>
<path d="M49.3261 46.5244C50.4751 46.5244 52.2988 46.8162 52.2988 49.0411C52.2988 50.3542 51.551 50.8831 50.7121 51.1749L52.4994 54.2569H50.3656L48.8155 51.5031H47.6118V54.2569H45.6787V46.5244H49.3261ZM47.6118 50.0624H49.2167C50.3292 50.0624 50.3839 49.2235 50.3839 48.9864C50.3839 47.9834 49.5814 47.9651 49.2349 47.9651H47.6301V50.0624H47.6118Z" fill="#F2F2F4"/>
<path d="M53.4287 54.2569V46.5244H55.3618V54.2569H53.4287Z" fill="#F2F2F4"/>
<path d="M56.8389 54.2569V46.5244H58.772V52.6338H61.7994V54.2569H56.8389Z" fill="#F2F2F4"/>
<path d="M62.583 54.2569V46.5244H64.5161V52.6338H67.5435V54.2569H62.583Z" fill="#F2F2F4"/>
<path d="M68.3115 54.2569V46.5244H70.2447V54.2569H68.3115Z" fill="#F2F2F4"/>
<path d="M75.2048 46.2891C78.0133 46.2891 79.1258 48.6052 79.1258 50.4471C79.1258 52.5261 77.7215 54.4957 75.223 54.4957C72.6698 54.4957 71.375 52.4897 71.375 50.3742C71.375 48.5869 72.4145 46.2891 75.2048 46.2891ZM75.2413 52.8362C76.682 52.8362 77.1926 51.5049 77.1926 50.4106C77.1926 49.0064 76.5726 47.8939 75.2048 47.8939C73.7458 47.8939 73.2899 49.2799 73.2899 50.3195C73.2899 51.5778 73.837 52.8362 75.2413 52.8362Z" fill="#F2F2F4"/>
<path d="M84.8526 54.2569L82.117 49.643V54.2569H80.2568V46.5244H82.1535L84.9073 51.2296V46.5244H86.7675V54.2569H84.8526Z" fill="#F2F2F4"/>
<path d="M93.0942 48.8237C92.5289 48.2401 91.9088 47.8571 91.0699 47.8571C90.2857 47.8571 89.9209 48.313 89.9209 48.6778C89.9209 49.0972 90.2492 49.2978 90.9057 49.389L91.7629 49.5167C93.7872 49.8085 94.6079 50.4103 94.6079 51.7416C94.6079 53.3647 93.313 54.4407 91.0881 54.4407C89.2826 54.4407 88.3526 53.8024 87.5684 52.8723L89.0273 51.9422C89.538 52.5623 90.4316 52.9088 91.2705 52.9088C91.8358 52.9088 92.693 52.6535 92.693 52.0152C92.693 51.4681 92.0364 51.3222 91.3434 51.231L90.4498 51.1033C89.1003 50.9209 87.9878 50.2826 87.9878 48.9149C87.9878 47.4012 89.1185 46.3252 91.1064 46.3252C92.7295 46.3252 93.7507 47.0729 94.5167 47.7842L93.0942 48.8237Z" fill="#F2F2F4"/>
<path d="M125.502 30.8237V69.1763H33.8237V30.8237H125.502ZM127.325 29H32V71H127.325V29Z" fill="#F2F2F4"/>
</g>
<defs>
<clipPath id="clip0">
<rect width="95.3253" height="42" fill="white" transform="translate(32 29)"/>
</clipPath>
</defs>
</svg>
