<svg width="160" height="100" viewBox="0 0 160 100" fill="none" xmlns="http://www.w3.org/2000/svg">
<g clip-path="url(#clip0)">
<path d="M97.0854 54.911C97.0854 54.911 95.8256 58.1566 94.7367 58.1566C93.1993 58.1566 93.1779 54.2705 93.7117 49.4875H97.1495L97.3416 46.4342H94.0961C94.3523 44.7046 94.6299 42.9324 94.9075 41.2456L91.5338 40.8826C91.2349 42.6121 90.9146 44.5125 90.6584 46.4769H85.79C86.1103 44.2776 86.4733 42.0356 86.8363 39.9858L83.4626 39.6014C83.0996 41.6299 82.694 44.0427 82.3737 46.4982H79.4698L79.2776 49.5302H82.032C81.7544 50.8114 80.2171 58.1779 78.1246 58.1779C75.8826 58.1779 77.548 47.8221 77.548 47.8221L74.1957 47.4377C74.1957 47.4377 73.1708 52.5623 68.1317 52.5623C67.8114 52.5623 67.4911 52.5409 67.1708 52.4982C66.9359 46.0498 67.3203 39.9217 69.0071 39.9217C70.3096 39.9217 69.6477 46.3488 69.6477 46.3488H72.8292C72.8292 46.3488 73.9395 38 69.0925 38C64.8007 38 63.7544 44.8541 63.7117 51.2384C62.7082 50.6406 62.1103 50.0641 62.1103 50.0641L61 51.4306C61 51.4306 62.0036 52.5623 63.7331 53.5658C63.8612 58.1779 64.395 62 64.395 62L68.0249 61.6797C67.726 59.694 67.4911 57.3452 67.3416 54.9324C67.9181 55.0391 68.5374 55.1032 69.1779 55.1032C70.9929 55.1032 72.4662 54.5694 73.5979 53.9075C73.5552 57.6868 74.2384 61.7011 77.2705 61.7011C79.4698 61.7011 81.0071 59.1815 81.968 56.79C82.331 59.694 83.3772 61.6584 85.5552 61.6584C87.669 61.6584 89.2491 59.0534 90.2313 56.6406C90.573 59.6299 91.6192 61.6797 93.8612 61.6797C96.7224 61.6797 98.7082 55.6797 98.7082 55.6797L97.0854 54.911ZM86.4093 58.1779C84.8719 58.1779 84.8719 54.2918 85.4057 49.5089H90.3167C90.0391 50.8541 88.5018 58.1779 86.4093 58.1779Z" fill="#0D0D0D"/>
<path d="M76.4807 46.2421C79.2352 46.2421 79.3206 42.7617 76.5661 42.7617C73.833 42.7617 73.5127 46.2421 76.4807 46.2421Z" fill="#0D0D0D"/>
</g>
<defs>
<clipPath id="clip0">
<rect width="37.7082" height="24" fill="white" transform="translate(61 38)"/>
</clipPath>
</defs>
</svg>
