<svg width="300" height="200" viewBox="0 0 300 200" fill="none" xmlns="http://www.w3.org/2000/svg">
<g clip-path="url(#clip0_147_2159)">
<path d="M193.761 112.597C193.761 112.597 190.529 120.922 187.736 120.922C183.793 120.922 183.738 110.954 185.107 98.6856L193.925 98.6856L194.418 90.8537L186.093 90.8537C186.75 86.4174 187.462 81.8716 188.174 77.5449L179.521 76.6138C178.754 81.0501 177.932 85.9245 177.275 90.9632L164.788 90.9632C165.61 85.322 166.541 79.5713 167.472 74.3135L158.818 73.3277C157.887 78.5307 156.847 84.7196 156.025 91.018L148.576 91.018L148.084 98.7951L155.149 98.7951C154.437 102.081 150.493 120.976 145.126 120.976C139.375 120.976 143.647 94.4136 143.647 94.4136L135.049 93.4278C135.049 93.4278 132.42 106.572 119.494 106.572C118.673 106.572 117.851 106.518 117.03 106.408C116.427 89.8678 117.413 74.1492 121.74 74.1492C125.081 74.1492 123.383 90.6346 123.383 90.6346L131.543 90.6346C131.543 90.6346 134.391 69.22 121.959 69.22C110.95 69.22 108.267 86.8008 108.157 103.177C105.583 101.643 104.05 100.164 104.05 100.164L101.202 103.67C101.202 103.67 103.776 106.572 108.212 109.146C108.541 120.976 109.91 130.78 109.91 130.78L119.22 129.959C118.454 124.865 117.851 118.84 117.468 112.652C118.947 112.925 120.535 113.09 122.178 113.09C126.833 113.09 130.612 111.721 133.515 110.023C133.406 119.717 135.158 130.013 142.935 130.013C148.576 130.013 152.52 123.551 154.984 117.416C155.915 124.865 158.599 129.904 164.186 129.904C169.608 129.904 173.66 123.222 176.18 117.033C177.056 124.701 179.74 129.959 185.491 129.959C192.83 129.959 197.923 114.569 197.923 114.569L193.761 112.597ZM166.376 120.976C162.433 120.976 162.433 111.009 163.802 98.7404L176.399 98.7404C175.687 102.191 171.744 120.976 166.376 120.976Z" fill="white"/>
<path d="M140.909 90.3612C147.974 90.3612 148.193 81.4339 141.128 81.4339C134.118 81.4339 133.296 90.3612 140.909 90.3612Z" fill="white"/>
</g>
<defs>
<clipPath id="clip0_147_2159">
<rect width="96.7215" height="61.56" fill="white" transform="translate(101.202 69.22)"/>
</clipPath>
</defs>
</svg>
