<svg width="300" height="200" viewBox="0 0 300 200" fill="none" xmlns="http://www.w3.org/2000/svg">
<path fill-rule="evenodd" clip-rule="evenodd" d="M217.023 84.5924L217.023 93.301C214.897 90.6136 211.539 88.8218 207.511 88.8218C199.341 88.8218 192.739 95.5967 192.739 104.163C192.739 112.506 199.341 119.448 207.511 119.448C211.595 119.448 214.897 117.713 217.023 115.081L217.023 119.448L223.458 119.448L223.458 79.8075L223.428 79.8075C221.569 81.7226 219.409 83.3431 217.023 84.5924ZM83.956 119.448L83.956 102.371L103.372 102.371L103.372 96.3805L83.956 96.3805L83.956 85.9663L105.611 85.9664L105.611 79.8075L77.3533 79.8075L77.3533 119.448L83.956 119.448ZM115.285 119.448L115.285 103.939C115.285 97.5002 120.824 94.3089 126.699 96.1005L126.699 89.2137C120.768 88.262 117.019 90.7255 115.285 94.1968L115.285 89.3258L108.85 89.3258L108.85 119.448L115.285 119.448ZM158.038 104.107C158.038 112.562 151.212 119.448 142.818 119.448C134.369 119.448 127.543 112.506 127.543 104.107C127.543 95.7086 134.369 88.8218 142.818 88.8218C151.268 88.8218 158.038 95.7647 158.038 104.107ZM133.586 104.107C133.586 109.258 137.671 113.569 142.818 113.569C147.966 113.569 151.995 109.202 151.995 104.107C151.995 98.956 147.966 94.7009 142.818 94.7009C137.615 94.7009 133.586 98.956 133.586 104.107ZM167.745 119.448L167.745 103.715C167.745 98.676 170.934 94.8128 175.69 94.8128C179.607 94.8128 182.964 97.6682 182.964 102.539L182.964 119.448L189.399 119.448L189.399 100.804C189.399 93.301 183.468 88.8218 176.977 88.8218C172.669 88.8218 169.591 90.8375 167.745 93.2451L167.745 89.3259L161.31 89.3259L161.31 119.448L167.745 119.448ZM198.726 104.163C198.726 109.314 202.754 113.625 208.07 113.625C213.218 113.625 217.471 109.258 217.471 104.163C217.471 99.0679 213.274 94.6448 208.07 94.6448C202.811 94.6448 198.726 99.012 198.726 104.163Z" fill="#0D0D0D"/>
<path d="M172.411 49.4987C172.411 49.4987 170.005 68.6939 190.087 68.6939C190.087 68.6939 195.092 49.4987 172.411 49.4987Z" fill="#0D0D0D"/>
<path d="M223.437 41.4551C196.12 41.4551 193.593 58.6363 194.094 67.4577C198.709 54.1461 211.291 51.208 211.291 51.208C199.28 58.4691 196.817 71.5771 196.656 72.5023C227.161 71.3249 223.437 41.4551 223.437 41.4551Z" fill="#0D0D0D"/>
</svg>
