<svg width="300" height="200" viewBox="0 0 300 200" fill="none" xmlns="http://www.w3.org/2000/svg">
<path d="M78.8572 91.3693L78.8572 97.7941L94.2141 97.7941C93.744 101.398 92.5426 104.036 90.7144 105.89C88.4683 108.136 84.9686 110.591 78.8572 110.591C69.4028 110.591 62.0117 102.965 62.0117 93.5109C62.0117 84.0565 69.4028 76.4303 78.8572 76.4303C83.9501 76.4303 87.6848 78.4413 90.4271 81.0269L94.9454 76.5087C91.1323 72.8 86.0133 69.9794 78.8572 69.9794C65.9031 69.9794 55.0123 80.5307 55.0123 93.4848C55.0123 106.439 65.9031 116.99 78.8572 116.99C85.8566 116.99 91.1323 114.692 95.2588 110.409C99.4897 106.178 100.822 100.197 100.822 95.3913C100.822 93.9027 100.717 92.5184 100.482 91.3693L78.8572 91.3693Z" fill="#0D0D0D"/>
<path d="M120.018 86.145C111.634 86.145 104.791 92.5175 104.791 101.319C104.791 110.042 111.634 116.493 120.018 116.493C128.401 116.493 135.244 110.068 135.244 101.319C135.244 92.5175 128.401 86.145 120.018 86.145ZM120.018 110.512C115.421 110.512 111.451 106.725 111.451 101.319C111.451 95.8605 115.421 92.1258 120.018 92.1258C124.614 92.1258 128.584 95.8605 128.584 101.319C128.584 106.725 124.614 110.512 120.018 110.512Z" fill="#0D0D0D"/>
<path d="M194.661 89.5402L194.426 89.5402C192.938 87.7642 190.065 86.145 186.435 86.145C178.861 86.145 172.253 92.7526 172.253 101.319C172.253 109.833 178.861 116.493 186.435 116.493C190.065 116.493 192.938 114.874 194.426 113.046L194.661 113.046L194.661 115.161C194.661 120.959 191.553 124.067 186.565 124.067C182.491 124.067 179.957 121.142 178.913 118.661L173.115 121.064C174.786 125.086 179.2 130.022 186.565 130.022C194.374 130.022 200.982 125.425 200.982 114.221L200.982 86.9285L194.661 86.9285L194.661 89.5402ZM187.009 110.512C182.412 110.512 178.913 106.595 178.913 101.319C178.913 95.965 182.412 92.1258 187.009 92.1258C191.553 92.1258 195.106 96.0433 195.106 101.371C195.132 106.673 191.553 110.512 187.009 110.512Z" fill="#0D0D0D"/>
<path d="M153.97 86.145C145.587 86.145 138.744 92.5175 138.744 101.319C138.744 110.042 145.587 116.493 153.97 116.493C162.354 116.493 169.196 110.068 169.196 101.319C169.196 92.5175 162.354 86.145 153.97 86.145ZM153.97 110.512C149.374 110.512 145.404 106.725 145.404 101.319C145.404 95.8605 149.374 92.1258 153.97 92.1258C158.567 92.1258 162.537 95.8605 162.537 101.319C162.537 106.725 158.567 110.512 153.97 110.512Z" fill="#0D0D0D"/>
<path d="M206.203 70.6065L212.758 70.6065L212.758 116.494L206.203 116.494L206.203 70.6065Z" fill="#0D0D0D"/>
<path d="M232.999 110.512C229.604 110.512 227.201 108.971 225.634 105.916L245.927 97.5321L245.248 95.8084C243.994 92.4131 240.129 86.145 232.268 86.145C224.459 86.145 217.956 92.2825 217.956 101.319C217.956 109.833 224.38 116.493 232.999 116.493C239.946 116.493 243.968 112.236 245.64 109.781L240.468 106.334C238.745 108.841 236.394 110.512 232.999 110.512ZM232.529 91.8386C235.219 91.8386 237.517 93.2228 238.275 95.1815L224.563 100.849C224.563 94.4764 229.081 91.8386 232.529 91.8386Z" fill="#0D0D0D"/>
</svg>
