<svg width="160" height="100" viewBox="0 0 160 100" fill="none" xmlns="http://www.w3.org/2000/svg">
<path d="M34.6509 35.752L34.3309 36.776L35.1789 36.888C34.8589 38.072 34.5389 39.256 34.1869 40.456C33.6749 42.248 33.1149 44.04 32.5709 45.848L31.8029 45.96L31.4989 47H38.7789C39.0509 47 39.2269 47 39.8029 47.112L41.5629 43.56L40.5069 43.192C40.1229 43.784 40.0429 43.912 39.7709 44.232C39.0509 45.08 37.9469 45.896 36.8269 45.896C36.4269 45.896 36.1069 45.832 35.9629 45.816C36.8269 42.776 37.6909 39.816 38.5389 36.888L39.3549 36.792L39.6749 35.752H34.6509ZM48.4832 44.6C47.7792 45.192 47.4752 45.416 47.0272 45.608C46.8992 45.656 46.6272 45.784 46.2752 45.784C45.8112 45.784 45.3152 45.544 45.1552 45.112C45.0912 44.92 45.0752 44.664 45.0592 44.44C46.9312 43.928 48.0672 43.576 48.7872 43.096C49.4272 42.664 49.9872 41.928 49.9872 41.144C49.9872 40.216 49.2032 39.176 47.2192 39.176C45.0592 39.176 43.6992 40.552 43.2192 41.112C42.2112 42.296 42.0352 43.384 42.0352 44.024C42.0352 45.384 42.7552 46.184 43.1392 46.488C43.4592 46.76 44.2272 47.224 45.3952 47.224C46.9152 47.224 47.9552 46.408 48.3872 46.088C48.5952 45.928 48.8032 45.752 49.0112 45.592L48.4832 44.6ZM45.1552 43.4C45.3312 42.584 45.5072 41.768 45.9552 41.032C46.3232 40.408 46.7232 40.2 47.0272 40.2C47.2832 40.2 47.6832 40.344 47.6832 40.984C47.6832 41.208 47.6192 41.64 47.2832 42.088C46.8992 42.616 46.3232 42.952 45.7152 43.192C45.5392 43.256 45.3472 43.336 45.1552 43.4ZM52.2432 44.008C53.1552 44.504 53.8272 44.92 53.8272 45.416C53.8272 45.624 53.7312 45.784 53.6992 45.848C53.5872 46.04 53.3632 46.248 52.7712 46.248C52.4992 46.248 52.3872 46.184 52.3232 46.12C52.1152 45.88 52.2912 45.192 51.5392 44.728C51.2192 44.536 50.9312 44.52 50.7872 44.52C50.1472 44.52 49.5072 45.048 49.5072 45.656C49.5072 46.136 49.8592 46.728 50.8512 47.032C51.2192 47.16 51.6352 47.24 52.5152 47.24C52.9152 47.24 54.8032 47.272 55.7792 45.896C56.1952 45.32 56.2592 44.696 56.2592 44.44C56.2592 43.16 55.2992 42.584 54.2752 42.024C53.7312 41.704 53.3952 41.528 53.2192 41.288C53.1872 41.224 53.0752 41.08 53.0752 40.856C53.0752 40.632 53.2352 40.136 53.8912 40.136C54.2592 40.136 54.3392 40.344 54.4032 40.472C54.4352 40.568 54.4992 40.808 54.6432 41.032C54.9952 41.592 55.5872 41.688 55.7952 41.688C56.3872 41.688 56.9312 41.256 56.9312 40.664C56.9312 40.296 56.7552 40.024 56.4992 39.816C56.0992 39.48 55.4432 39.176 54.1952 39.176C52.4192 39.176 51.4592 40.008 51.0912 40.664C50.9792 40.856 50.7552 41.304 50.7552 41.88C50.7552 42.68 51.1552 43.224 51.7792 43.688C51.9392 43.8 52.0832 43.896 52.2432 44.008ZM59.2276 44.008C60.1396 44.504 60.8116 44.92 60.8116 45.416C60.8116 45.624 60.7156 45.784 60.6836 45.848C60.5716 46.04 60.3476 46.248 59.7556 46.248C59.4836 46.248 59.3716 46.184 59.3076 46.12C59.0996 45.88 59.2756 45.192 58.5236 44.728C58.2036 44.536 57.9156 44.52 57.7716 44.52C57.1316 44.52 56.4916 45.048 56.4916 45.656C56.4916 46.136 56.8436 46.728 57.8356 47.032C58.2036 47.16 58.6196 47.24 59.4996 47.24C59.8996 47.24 61.7876 47.272 62.7636 45.896C63.1796 45.32 63.2436 44.696 63.2436 44.44C63.2436 43.16 62.2836 42.584 61.2596 42.024C60.7156 41.704 60.3796 41.528 60.2036 41.288C60.1716 41.224 60.0596 41.08 60.0596 40.856C60.0596 40.632 60.2196 40.136 60.8756 40.136C61.2436 40.136 61.3236 40.344 61.3876 40.472C61.4196 40.568 61.4836 40.808 61.6276 41.032C61.9796 41.592 62.5716 41.688 62.7796 41.688C63.3716 41.688 63.9156 41.256 63.9156 40.664C63.9156 40.296 63.7396 40.024 63.4836 39.816C63.0836 39.48 62.4276 39.176 61.1796 39.176C59.4036 39.176 58.4436 40.008 58.0756 40.664C57.9636 40.856 57.7396 41.304 57.7396 41.88C57.7396 42.68 58.1396 43.224 58.7636 43.688C58.9236 43.8 59.0676 43.896 59.2276 44.008ZM64.0359 43.672C63.9399 45.432 64.9479 46.296 65.5079 46.648C65.8279 46.872 66.4839 47.224 67.5079 47.224C68.1959 47.224 69.7799 47.064 71.0279 45.688C72.1479 44.424 72.2919 43 72.2919 42.424C72.2919 40.984 71.3799 40.2 70.9479 39.896C70.0679 39.256 69.1399 39.208 68.7559 39.208C66.3399 39.208 64.1639 41.272 64.0359 43.672ZM68.6759 44.376C68.5159 44.824 68.2119 45.672 67.8759 45.992C67.7479 46.12 67.6039 46.184 67.4279 46.184C67.0119 46.184 66.8199 45.752 66.8199 45.352C66.8199 44.76 67.1239 43.752 67.2839 43.192C67.4439 42.648 67.8759 41.032 68.3239 40.552C68.5479 40.296 68.8039 40.248 68.9159 40.248C69.1719 40.248 69.4919 40.456 69.4919 41.096C69.4919 41.416 69.4119 41.8 69.3319 42.104C69.2359 42.488 69.1399 42.872 69.0439 43.24C68.9319 43.624 68.8039 44.008 68.6759 44.376ZM80.9638 42.024C81.1078 41.528 81.1558 41.304 81.1558 41.016C81.1558 39.976 80.3398 39.224 79.2998 39.224C78.3398 39.224 77.6358 39.72 76.9798 40.376C76.8038 40.552 76.6278 40.744 76.4518 40.936C76.2438 39.992 76.1318 39.784 75.3958 39.08L72.7078 40.92L73.1078 41.624C73.2998 41.496 73.3798 41.464 73.4918 41.464C73.7638 41.464 73.7798 41.704 73.7798 41.816C73.7798 42.072 73.6678 42.392 73.6678 42.44C73.4118 43.304 73.1718 44.168 72.8838 45.016C72.6598 45.672 72.4038 46.328 72.1318 47H75.2518C75.4918 45.56 75.5718 45.256 76.0198 43.896C76.3558 43.032 76.7398 42.024 77.3158 41.336C77.4918 41.112 77.6998 40.92 77.9558 40.904C78.0518 40.904 78.3558 40.952 78.3718 41.288C78.3718 41.512 78.2438 41.848 78.1798 42.04L77.3158 44.68C77.1878 45.192 77.1398 45.416 77.1398 45.656C77.1398 46.104 77.3318 46.488 77.6998 46.808C78.1318 47.16 78.5638 47.176 78.7718 47.176C79.7158 47.176 80.4038 46.632 81.0598 46.072L80.8198 45.16C80.7878 45.192 80.4998 45.512 80.2278 45.512C80.0198 45.512 80.0198 45.304 80.0198 45.208C80.0198 44.888 80.1478 44.536 80.1638 44.488L80.9638 42.024ZM83.8682 44.008C84.7802 44.504 85.4522 44.92 85.4522 45.416C85.4522 45.624 85.3562 45.784 85.3242 45.848C85.2122 46.04 84.9882 46.248 84.3962 46.248C84.1242 46.248 84.0122 46.184 83.9482 46.12C83.7402 45.88 83.9162 45.192 83.1642 44.728C82.8442 44.536 82.5562 44.52 82.4122 44.52C81.7722 44.52 81.1322 45.048 81.1322 45.656C81.1322 46.136 81.4842 46.728 82.4762 47.032C82.8442 47.16 83.2602 47.24 84.1402 47.24C84.5402 47.24 86.4282 47.272 87.4042 45.896C87.8202 45.32 87.8842 44.696 87.8842 44.44C87.8842 43.16 86.9242 42.584 85.9002 42.024C85.3562 41.704 85.0202 41.528 84.8442 41.288C84.8122 41.224 84.7002 41.08 84.7002 40.856C84.7002 40.632 84.8602 40.136 85.5162 40.136C85.8842 40.136 85.9642 40.344 86.0282 40.472C86.0602 40.568 86.1242 40.808 86.2682 41.032C86.6202 41.592 87.2122 41.688 87.4202 41.688C88.0122 41.688 88.5562 41.256 88.5562 40.664C88.5562 40.296 88.3802 40.024 88.1242 39.816C87.7242 39.48 87.0682 39.176 85.8202 39.176C84.0442 39.176 83.0842 40.008 82.7162 40.664C82.6042 40.856 82.3802 41.304 82.3802 41.88C82.3802 42.68 82.7802 43.224 83.4042 43.688C83.5642 43.8 83.7082 43.896 83.8682 44.008ZM95.7723 36.92C95.4523 38.12 95.1323 39.304 94.8123 40.44C94.3003 42.248 93.7563 44.04 93.1963 45.896L92.4123 45.976L92.1083 46.984H97.1163L97.4523 45.976L96.5563 45.88L97.6923 41.896C97.9803 41.896 98.1243 41.912 98.2523 41.928C98.8443 42.056 99.1483 42.536 99.1643 43.128C99.1643 43.304 99.1323 43.528 99.1003 43.688L100.14 43.704L101.452 39.256H100.38C99.9323 39.912 99.5163 40.536 98.7323 40.744C98.6043 40.776 98.3803 40.808 98.0443 40.824L99.1003 37C99.5323 36.92 99.7883 36.872 99.9803 36.872C100.268 36.872 100.508 36.936 100.78 37.048C101.708 37.48 102.012 38.568 102.252 39.496L103.276 39.416C103.26 39.048 103.26 38.664 103.244 38.28C103.212 37.368 103.148 36.424 103.084 35.496C102.524 35.72 102.396 35.752 101.804 35.784H95.2443L94.9403 36.76L95.7723 36.92ZM104.94 46.984C104.988 46.552 105.052 46.104 105.132 45.672C105.26 45.064 105.708 43.752 105.948 43.176C106.268 42.44 106.572 42.072 106.844 41.832C106.956 41.736 107.052 41.656 107.196 41.656C107.356 41.656 107.516 41.832 107.676 41.944C107.772 42.008 107.948 42.12 108.22 42.12C109.052 42.12 109.644 41.32 109.66 40.536C109.66 39.8 109.148 39.432 108.908 39.32C108.668 39.192 108.476 39.192 108.364 39.192C107.436 39.192 106.78 40.072 106.652 40.232C106.284 40.728 105.772 41.624 105.74 41.672C105.772 41.416 105.804 41.144 105.804 40.888C105.804 40.04 105.484 39.672 104.876 39.048L102.236 40.92L102.652 41.576C102.684 41.56 102.892 41.464 103.036 41.464C103.244 41.464 103.372 41.704 103.388 41.96C103.388 42.168 103.276 42.536 103.276 42.536C103.228 42.744 103.18 42.936 103.132 43.128C103.036 43.48 102.924 43.816 102.812 44.168C102.636 44.68 102.476 45.208 102.284 45.72C102.124 46.152 101.964 46.568 101.788 46.984H104.94ZM109.333 43.672C109.237 45.432 110.245 46.296 110.805 46.648C111.125 46.872 111.781 47.224 112.805 47.224C113.493 47.224 115.077 47.064 116.325 45.688C117.445 44.424 117.589 43 117.589 42.424C117.589 40.984 116.677 40.2 116.245 39.896C115.365 39.256 114.437 39.208 114.053 39.208C111.637 39.208 109.461 41.272 109.333 43.672ZM113.973 44.376C113.813 44.824 113.509 45.672 113.173 45.992C113.045 46.12 112.901 46.184 112.725 46.184C112.309 46.184 112.117 45.752 112.117 45.352C112.117 44.76 112.421 43.752 112.581 43.192C112.741 42.648 113.173 41.032 113.621 40.552C113.845 40.296 114.101 40.248 114.213 40.248C114.469 40.248 114.789 40.456 114.789 41.096C114.789 41.416 114.709 41.8 114.629 42.104C114.533 42.488 114.437 42.872 114.341 43.24C114.229 43.624 114.101 44.008 113.973 44.376ZM130.229 42.2C130.421 41.56 130.485 41.24 130.485 40.92C130.485 39.864 129.781 39.512 129.413 39.384C129.285 39.336 129.061 39.272 128.725 39.272C127.157 39.272 126.181 40.664 125.941 40.968C125.829 40.312 125.733 39.816 125.125 39.48C125.013 39.416 124.693 39.272 124.309 39.272C123.141 39.272 122.277 40.376 122.117 40.584C121.989 40.728 121.877 40.888 121.765 41.032C121.605 40.072 121.477 39.864 120.757 39.128L118.053 40.984L118.453 41.656C118.645 41.544 118.757 41.512 118.821 41.512C118.917 41.512 119.093 41.576 119.093 41.864C119.093 42.136 118.917 42.728 118.693 43.464L118.085 45.336C117.765 46.344 117.717 46.408 117.445 47.016H120.517L120.805 45.688C121.157 44.472 121.541 43.144 122.149 42.056C122.453 41.512 122.645 41.272 122.869 41.096C123.029 40.984 123.125 40.968 123.189 40.968C123.301 40.952 123.509 41.016 123.509 41.32C123.509 41.592 123.413 41.832 123.397 41.912L122.117 45.752V45.784L121.653 47.032H124.709C124.933 45.784 125.045 45.464 125.253 44.792L125.781 43.192C126.261 42.104 126.565 41.512 126.981 41.144C127.157 40.984 127.269 40.952 127.349 40.952C127.413 40.952 127.701 41.016 127.701 41.304C127.701 41.432 127.605 41.72 127.493 42.04L126.613 44.632C126.453 45.16 126.405 45.448 126.405 45.688C126.405 46.28 126.773 46.856 127.333 47.08C127.445 47.128 127.621 47.176 127.925 47.176C128.869 47.176 129.637 46.616 130.325 46.104L130.117 45.224C129.829 45.416 129.669 45.544 129.509 45.544C129.301 45.544 129.269 45.368 129.269 45.272C129.269 45.016 129.381 44.744 129.461 44.504C129.557 44.2 129.653 43.912 129.733 43.608L130.229 42.2ZM36.3963 56.44L35.7243 58.632L35.3243 59.976C35.2443 60.248 35.1643 60.504 35.0843 60.76C34.9723 61.208 34.9403 61.32 34.9403 61.576C34.9403 62.04 35.1483 62.376 35.2443 62.52C35.6123 63.048 36.1403 63.208 36.7803 63.208C37.9803 63.208 38.7643 62.52 39.0843 62.232C39.1963 62.136 39.3083 62.024 39.4203 61.928L39.2603 60.92C39.0203 61.16 38.8123 61.368 38.5083 61.512C38.3643 61.576 38.2683 61.592 38.2043 61.592C37.9803 61.592 37.8363 61.384 37.8363 61.144C37.8363 60.92 37.9163 60.68 37.9643 60.472C38.1403 59.88 38.2843 59.304 38.4443 58.728C38.6683 57.976 38.9083 57.208 39.1483 56.44H40.5083L40.8283 55.416H39.4523L40.3323 52.472L37.2763 53.544L36.7003 55.416H35.8843L35.5643 56.44H36.3963ZM47.9559 58.12C48.0999 57.528 48.1479 57.304 48.1479 56.984C48.1479 56.712 48.0999 56.088 47.5079 55.624C47.0759 55.272 46.5959 55.256 46.4039 55.256C45.4919 55.256 44.8839 55.736 44.2119 56.296C44.4359 55.608 44.6599 54.92 44.8679 54.248C44.9639 53.944 45.0439 53.64 45.1399 53.336C45.2359 53.016 45.3159 52.712 45.4119 52.392C45.5559 51.944 45.7319 51.496 45.8919 51.048L41.9879 51.8L41.6999 52.664C42.0839 52.712 42.3399 52.776 42.3559 53.208C42.3559 53.416 42.2919 53.592 42.2759 53.64L40.1639 60.616C40.0359 61 39.9079 61.384 39.7639 61.768C39.6199 62.184 39.4279 62.584 39.2519 63H42.3559C42.5479 61.912 42.6439 61.56 42.9479 60.488L43.4119 59.064C43.6999 58.344 43.9719 57.656 44.5639 57.144C44.7719 56.952 44.9159 56.904 45.0439 56.904C45.3479 56.904 45.3799 57.176 45.3799 57.288C45.3799 57.448 45.2839 57.72 45.1719 58.088L44.3719 60.472C44.3559 60.552 44.1639 61.176 44.1639 61.608C44.1639 62.488 44.7559 62.888 45.0759 63.016C45.1879 63.064 45.4279 63.16 45.7479 63.16C46.6759 63.16 47.3799 62.616 48.0839 62.056L47.8439 61.096C47.6679 61.288 47.4599 61.496 47.2199 61.496C46.9959 61.496 46.9959 61.256 46.9959 61.16C46.9959 60.968 47.0279 60.808 47.1559 60.488L47.9559 58.12ZM55.1238 60.6C54.4198 61.192 54.1158 61.416 53.6678 61.608C53.5398 61.656 53.2678 61.784 52.9158 61.784C52.4518 61.784 51.9558 61.544 51.7958 61.112C51.7318 60.92 51.7158 60.664 51.6998 60.44C53.5718 59.928 54.7078 59.576 55.4278 59.096C56.0678 58.664 56.6278 57.928 56.6278 57.144C56.6278 56.216 55.8438 55.176 53.8598 55.176C51.6998 55.176 50.3398 56.552 49.8598 57.112C48.8518 58.296 48.6758 59.384 48.6758 60.024C48.6758 61.384 49.3958 62.184 49.7798 62.488C50.0998 62.76 50.8678 63.224 52.0358 63.224C53.5558 63.224 54.5958 62.408 55.0278 62.088C55.2358 61.928 55.4438 61.752 55.6518 61.592L55.1238 60.6ZM51.7958 59.4C51.9718 58.584 52.1478 57.768 52.5958 57.032C52.9638 56.408 53.3638 56.2 53.6678 56.2C53.9238 56.2 54.3238 56.344 54.3238 56.984C54.3238 57.208 54.2598 57.64 53.9238 58.088C53.5398 58.616 52.9638 58.952 52.3558 59.192C52.1798 59.256 51.9878 59.336 51.7958 59.4ZM63.8036 52.92C63.4836 54.12 63.1636 55.304 62.8436 56.44C62.3316 58.248 61.7876 60.04 61.2276 61.896L60.4436 61.976L60.1396 62.984H65.1476L65.4836 61.976L64.5876 61.88L65.7236 57.896C66.0116 57.896 66.1556 57.912 66.2836 57.928C66.8756 58.056 67.1796 58.536 67.1956 59.128C67.1956 59.304 67.1636 59.528 67.1316 59.688L68.1716 59.704L69.4836 55.256H68.4116C67.9636 55.912 67.5476 56.536 66.7636 56.744C66.6356 56.776 66.4116 56.808 66.0756 56.824L67.1316 53C67.5636 52.92 67.8196 52.872 68.0116 52.872C68.2996 52.872 68.5396 52.936 68.8116 53.048C69.7396 53.48 70.0436 54.568 70.2836 55.496L71.3076 55.416C71.2916 55.048 71.2916 54.664 71.2756 54.28C71.2436 53.368 71.1796 52.424 71.1156 51.496C70.5556 51.72 70.4276 51.752 69.8356 51.784H63.2756L62.9716 52.76L63.8036 52.92ZM70.9237 56.904C71.0517 56.904 71.6117 56.872 71.6117 57.4C71.6117 57.592 71.5797 57.72 71.4677 58.072L70.7637 60.152C70.5877 60.648 70.4277 61.144 70.4277 61.656C70.4277 62.696 71.1477 63.048 71.5157 63.16C71.7237 63.208 71.9637 63.224 72.0117 63.224C72.7957 63.224 73.4037 62.824 73.9957 62.328C74.1237 62.232 74.2357 62.12 74.3637 62.008L74.1717 61.08C74.0277 61.24 73.7557 61.512 73.5317 61.528C73.3237 61.528 73.2917 61.224 73.2917 61.16C73.2917 61 73.3557 60.856 73.4037 60.712C73.7237 59.656 74.0757 58.648 74.4117 57.64C74.5717 57.128 74.6997 56.664 74.7157 56.152C74.7157 55.736 74.6357 55.496 74.4917 55.096L71.1317 56.168L70.9237 56.904ZM72.3797 52.488C72.1877 53.512 72.9557 54.456 74.0117 54.456C74.9557 54.456 75.6597 53.736 75.6597 52.792C75.6597 52.44 75.5477 51.608 74.6197 51.256C74.4117 51.176 74.2357 51.128 73.9957 51.128C73.2117 51.128 72.5237 51.672 72.3797 52.488ZM77.6436 62.984C77.6916 62.552 77.7556 62.104 77.8356 61.672C77.9636 61.064 78.4116 59.752 78.6516 59.176C78.9716 58.44 79.2756 58.072 79.5476 57.832C79.6596 57.736 79.7556 57.656 79.8996 57.656C80.0596 57.656 80.2196 57.832 80.3796 57.944C80.4756 58.008 80.6516 58.12 80.9236 58.12C81.7556 58.12 82.3476 57.32 82.3636 56.536C82.3636 55.8 81.8516 55.432 81.6116 55.32C81.3716 55.192 81.1796 55.192 81.0676 55.192C80.1396 55.192 79.4836 56.072 79.3556 56.232C78.9876 56.728 78.4756 57.624 78.4436 57.672C78.4756 57.416 78.5076 57.144 78.5076 56.888C78.5076 56.04 78.1876 55.672 77.5796 55.048L74.9396 56.92L75.3556 57.576C75.3876 57.56 75.5956 57.464 75.7396 57.464C75.9476 57.464 76.0756 57.704 76.0916 57.96C76.0916 58.168 75.9796 58.536 75.9796 58.536C75.9316 58.744 75.8836 58.936 75.8356 59.128C75.7396 59.48 75.6276 59.816 75.5156 60.168C75.3396 60.68 75.1796 61.208 74.9876 61.72C74.8276 62.152 74.6676 62.568 74.4916 62.984H77.6436ZM84.2119 60.008C85.1239 60.504 85.7959 60.92 85.7959 61.416C85.7959 61.624 85.6999 61.784 85.6679 61.848C85.5559 62.04 85.3319 62.248 84.7399 62.248C84.4679 62.248 84.3559 62.184 84.2919 62.12C84.0839 61.88 84.2599 61.192 83.5079 60.728C83.1879 60.536 82.8999 60.52 82.7559 60.52C82.1159 60.52 81.4759 61.048 81.4759 61.656C81.4759 62.136 81.8279 62.728 82.8199 63.032C83.1879 63.16 83.6039 63.24 84.4839 63.24C84.8839 63.24 86.7719 63.272 87.7479 61.896C88.1639 61.32 88.2279 60.696 88.2279 60.44C88.2279 59.16 87.2679 58.584 86.2439 58.024C85.6999 57.704 85.3639 57.528 85.1879 57.288C85.1559 57.224 85.0439 57.08 85.0439 56.856C85.0439 56.632 85.2039 56.136 85.8599 56.136C86.2279 56.136 86.3079 56.344 86.3719 56.472C86.4039 56.568 86.4679 56.808 86.6119 57.032C86.9639 57.592 87.5559 57.688 87.7639 57.688C88.3559 57.688 88.8999 57.256 88.8999 56.664C88.8999 56.296 88.7239 56.024 88.4679 55.816C88.0679 55.48 87.4119 55.176 86.1639 55.176C84.3879 55.176 83.4279 56.008 83.0599 56.664C82.9479 56.856 82.7239 57.304 82.7239 57.88C82.7239 58.68 83.1239 59.224 83.7479 59.688C83.9079 59.8 84.0519 59.896 84.2119 60.008ZM90.3963 56.44L89.7243 58.632L89.3243 59.976C89.2443 60.248 89.1643 60.504 89.0843 60.76C88.9723 61.208 88.9403 61.32 88.9403 61.576C88.9403 62.04 89.1483 62.376 89.2443 62.52C89.6123 63.048 90.1403 63.208 90.7803 63.208C91.9803 63.208 92.7643 62.52 93.0843 62.232C93.1963 62.136 93.3083 62.024 93.4203 61.928L93.2603 60.92C93.0203 61.16 92.8123 61.368 92.5083 61.512C92.3643 61.576 92.2683 61.592 92.2043 61.592C91.9803 61.592 91.8363 61.384 91.8363 61.144C91.8363 60.92 91.9163 60.68 91.9643 60.472C92.1403 59.88 92.2843 59.304 92.4443 58.728C92.6683 57.976 92.9083 57.208 93.1483 56.44H94.5083L94.8283 55.416H93.4523L94.3323 52.472L91.2763 53.544L90.7003 55.416H89.8843L89.5643 56.44H90.3963ZM101.132 52.92C100.812 54.12 100.492 55.304 100.172 56.44C99.6597 58.248 99.1157 60.04 98.5557 61.896L97.7717 61.976L97.4677 62.984H102.476L102.812 61.976L101.916 61.88L103.052 57.896C103.34 57.896 103.484 57.912 103.612 57.928C104.204 58.056 104.508 58.536 104.524 59.128C104.524 59.304 104.492 59.528 104.46 59.688L105.5 59.704L106.812 55.256H105.74C105.292 55.912 104.876 56.536 104.092 56.744C103.964 56.776 103.74 56.808 103.404 56.824L104.46 53C104.892 52.92 105.148 52.872 105.34 52.872C105.628 52.872 105.868 52.936 106.14 53.048C107.068 53.48 107.372 54.568 107.612 55.496L108.636 55.416C108.62 55.048 108.62 54.664 108.604 54.28C108.572 53.368 108.508 52.424 108.444 51.496C107.884 51.72 107.756 51.752 107.164 51.784H100.604L100.3 52.76L101.132 52.92ZM108.252 56.904C108.38 56.904 108.94 56.872 108.94 57.4C108.94 57.592 108.908 57.72 108.796 58.072L108.092 60.152C107.916 60.648 107.756 61.144 107.756 61.656C107.756 62.696 108.476 63.048 108.844 63.16C109.052 63.208 109.292 63.224 109.34 63.224C110.124 63.224 110.732 62.824 111.324 62.328C111.452 62.232 111.564 62.12 111.692 62.008L111.5 61.08C111.356 61.24 111.084 61.512 110.86 61.528C110.652 61.528 110.62 61.224 110.62 61.16C110.62 61 110.684 60.856 110.732 60.712C111.052 59.656 111.404 58.648 111.74 57.64C111.9 57.128 112.028 56.664 112.044 56.152C112.044 55.736 111.964 55.496 111.82 55.096L108.46 56.168L108.252 56.904ZM109.708 52.488C109.516 53.512 110.284 54.456 111.34 54.456C112.284 54.456 112.988 53.736 112.988 52.792C112.988 52.44 112.876 51.608 111.948 51.256C111.74 51.176 111.564 51.128 111.324 51.128C110.54 51.128 109.852 51.672 109.708 52.488ZM113.068 57.032C113.18 56.984 113.244 56.968 113.356 56.968C113.628 56.968 113.676 57.256 113.676 57.336C113.676 57.624 113.244 58.76 112.892 59.704C112.604 60.488 112.508 60.872 112.508 61.304C112.508 62.296 113.068 62.696 113.42 62.872C114.028 63.208 114.668 63.208 114.892 63.208C115.836 63.208 116.396 62.968 116.748 62.776C117.58 62.344 118.716 61.352 119.596 59.352C120.124 58.136 120.284 57.32 120.284 56.696C120.284 55.736 119.884 55.368 119.532 55.176C119.452 55.128 119.196 55.016 118.892 55.016C118.236 55 117.676 55.544 117.676 56.168C117.676 56.568 117.868 56.968 118.108 57.288C118.156 57.336 118.204 57.4 118.268 57.464C118.428 57.624 118.588 57.72 118.668 57.944C118.7 58.04 118.7 58.152 118.7 58.184C118.7 58.456 118.524 58.904 118.428 59.16C118.028 60.184 117.612 60.76 117.292 61.128C116.956 61.56 116.524 61.976 115.868 61.976C115.26 61.976 115.228 61.496 115.228 61.288C115.228 61.032 115.26 60.888 115.42 60.456C115.596 59.992 115.756 59.528 115.932 59.08C116.252 58.2 116.396 57.896 116.508 57.416C116.54 57.272 116.588 57.08 116.588 56.744C116.588 56.104 116.364 55.672 116.076 55.096L112.844 56.296L113.068 57.032ZM126.796 60.6C126.092 61.192 125.788 61.416 125.34 61.608C125.212 61.656 124.94 61.784 124.588 61.784C124.124 61.784 123.628 61.544 123.468 61.112C123.404 60.92 123.388 60.664 123.372 60.44C125.244 59.928 126.38 59.576 127.1 59.096C127.74 58.664 128.3 57.928 128.3 57.144C128.3 56.216 127.516 55.176 125.532 55.176C123.372 55.176 122.012 56.552 121.532 57.112C120.524 58.296 120.348 59.384 120.348 60.024C120.348 61.384 121.068 62.184 121.452 62.488C121.772 62.76 122.54 63.224 123.708 63.224C125.228 63.224 126.268 62.408 126.7 62.088C126.908 61.928 127.116 61.752 127.324 61.592L126.796 60.6ZM123.468 59.4C123.644 58.584 123.82 57.768 124.268 57.032C124.636 56.408 125.036 56.2 125.34 56.2C125.596 56.2 125.996 56.344 125.996 56.984C125.996 57.208 125.932 57.64 125.596 58.088C125.212 58.616 124.636 58.952 124.028 59.192C123.852 59.256 123.66 59.336 123.468 59.4Z" fill="#292929"/>
</svg>
