<svg width="160" height="100" viewBox="0 0 160 100" fill="none" xmlns="http://www.w3.org/2000/svg">
<path d="M133.754 59.6108C133.754 59.8204 133.575 60 133.365 60H114.173C113.964 60 113.784 59.8204 113.784 59.6108V40.3892C113.784 40.1796 113.964 40 114.173 40H133.365C133.575 40 133.754 40.1796 133.754 40.3892V59.6108Z" fill="#F2F2F4"/>
<path d="M46 59.6108C46 59.8204 45.8204 60 45.6108 60H26.3892C26.1796 60 26 59.8204 26 59.6108V40.3892C26 40.1796 26.1796 40 26.3892 40H45.5808C45.7904 40 45.9701 40.1796 45.9701 40.3892L46 59.6108Z" fill="#F2F2F4"/>
<path d="M89.8926 40.5988C89.8926 40.2695 89.6231 40 89.2938 40H70.4914C70.162 40 69.8926 40.2695 69.8926 40.5988V59.4012C69.8926 59.7305 70.162 60 70.4914 60H84.5034L89.8926 54.6108V40.5988Z" fill="#F2F2F4"/>
<path d="M67.9463 59.6108C67.9463 59.8204 67.7666 60 67.5571 60H48.3355C48.1259 60 47.9463 59.8204 47.9463 59.6108V40.3892C47.9463 40.1796 48.1259 40 48.3355 40H67.5271C67.7367 40 67.9163 40.1796 67.9163 40.3892V59.6108H67.9463Z" fill="#F2F2F4"/>
<path d="M111.808 59.6108C111.808 59.8204 111.628 60 111.419 60H92.2271C92.0175 60 91.8379 59.8204 91.8379 59.6108V40.3892C91.8379 40.1796 92.0175 40 92.2271 40H111.419C111.628 40 111.808 40.1796 111.808 40.3892V59.6108Z" fill="#F2F2F4"/>
<path d="M80.1612 46.8262C80.4606 46.8262 80.8798 46.8861 81.0594 46.9459C81.7181 47.0956 82.2271 47.4549 82.5864 48.0238C83.1553 48.9519 83.0355 50.2992 82.0475 50.9579C81.9277 51.0178 81.8379 51.1076 81.7181 51.1974C81.7481 51.2573 82.6463 52.6645 82.9756 53.1435C83.0355 53.2034 82.9756 53.3232 82.8858 53.3232H80.9097C80.8199 53.3232 80.76 53.2932 80.7002 53.2034L79.6523 51.5567H78.8139V53.0837C78.8139 53.2034 78.6942 53.3232 78.5744 53.3232H77.0774C76.9577 53.3232 76.8379 53.2034 76.8379 53.0837V47.0956C76.8379 46.9759 76.9577 46.8561 77.0774 46.8561L80.1612 46.8262ZM78.8139 49.9399C78.8139 49.9399 79.7421 49.9399 80.1612 49.9399C80.281 49.9399 80.4008 49.91 80.5205 49.8501C80.79 49.7304 80.9097 49.4908 80.9097 49.1914C80.9097 48.8621 80.79 48.7124 80.5505 48.5627C80.4008 48.4729 80.2511 48.4429 80.1014 48.4429C79.6822 48.4429 79.2331 48.4429 78.8139 48.4429C78.8139 48.9819 78.8139 49.9399 78.8139 49.9399Z" fill="#0D0D0D"/>
<path d="M39.9224 47.0358V53.0537C39.9224 53.1735 39.8326 53.2633 39.7129 53.2633H38.156C38.0362 53.2633 37.9464 53.1735 37.9464 53.0537C37.9464 52.3352 37.9464 50.1495 37.9464 50.0597C37.3176 50.928 36.659 51.7962 36.0302 52.7244C35.9105 52.5447 34.144 50.0896 34.0542 49.9399C34.0542 50.0597 34.0542 52.3651 34.0542 53.0837C34.0542 53.2034 33.9644 53.2932 33.8446 53.2932H32.2877C32.1679 53.2932 32.0781 53.2034 32.0781 53.0837V47.0358C32.0781 46.916 32.1679 46.8262 32.2877 46.8262H33.665C33.7248 46.8262 33.7847 46.8561 33.8446 46.916L35.9703 49.8501L38.126 46.916C38.156 46.8561 38.2458 46.8262 38.3057 46.8262H39.7129C39.8027 46.8262 39.9224 46.916 39.9224 47.0358" fill="#0D0D0D"/>
<path d="M61.1194 46.8262C61.2391 46.8262 61.3589 46.916 61.3589 47.0657C61.3589 47.7244 61.3589 49.5507 61.3589 50.4489C61.329 51.2274 61.0894 51.9759 60.4906 52.5447C60.0116 53.0238 59.4128 53.2633 58.7541 53.3831C58.3649 53.4429 57.9457 53.4729 57.5565 53.4429C56.7182 53.3831 55.9397 53.1136 55.3409 52.4849C54.9517 52.0657 54.7122 51.5567 54.6224 50.9579C54.5625 50.6585 54.5625 50.3292 54.5625 50.0298C54.5625 49.2813 54.5625 47.6944 54.5625 47.0956C54.5625 46.9759 54.6823 46.8561 54.802 46.8561H56.2691C56.3888 46.8561 56.5086 46.9459 56.5086 47.0956C56.5086 47.6944 56.5086 49.2513 56.5086 49.9998C56.5086 50.3292 56.5385 50.6884 56.6583 50.9878C56.7781 51.2573 56.9278 51.4669 57.1972 51.6166C57.5565 51.7962 57.9158 51.8262 58.305 51.7364C58.814 51.6465 59.1433 51.3471 59.2631 50.8381C59.323 50.6585 59.323 50.4789 59.323 50.2992C59.323 49.4609 59.323 47.7244 59.323 47.0956C59.323 46.9759 59.4128 46.8561 59.5625 46.8561H61.1194V46.8262Z" fill="#0D0D0D"/>
<path d="M102.766 46.8262L105.64 53.0837C105.67 53.1735 105.61 53.2932 105.521 53.2932H103.784C103.664 53.2932 103.574 53.2334 103.515 53.1136L103.245 52.4549H100.461L100.191 53.1136C100.131 53.2334 100.042 53.2932 99.9218 53.2932H98.1852C98.0655 53.2932 98.0056 53.1735 98.0655 53.0837L100.97 46.8262H102.766ZM102.497 50.898L101.808 49.1016L101.119 50.898H102.497Z" fill="#0D0D0D"/>
<path d="M123.246 47.0657V51.6166H125.97C126.09 51.6166 126.21 51.7364 126.21 51.8561V53.0537C126.21 53.1735 126.09 53.2932 125.97 53.2932H121.509C121.389 53.2932 121.27 53.1735 121.27 53.0537V47.0657C121.27 46.9459 121.389 46.8262 121.509 46.8262H122.976C123.156 46.8262 123.246 46.916 123.246 47.0657" fill="#0D0D0D"/>
<path d="M89.8922 54.6104H85.1017C84.7724 54.6104 84.5029 54.8798 84.5029 55.2092V59.9996L89.8922 54.6104Z" fill="#0D0D0D" fill-opacity="0.2"/>
</svg>
