<svg width="300" height="200" viewBox="0 0 300 200" fill="none" xmlns="http://www.w3.org/2000/svg">
<g clip-path="url(#clip0_147_2169)">
<mask id="mask0_147_2169" style="mask-type:luminance" maskUnits="userSpaceOnUse" x="64" y="75" width="173" height="50">
<path d="M236.345 75.343L64.5766 75.343L64.5766 124.657L236.345 124.657L236.345 75.343Z" fill="white"/>
</mask>
<g mask="url(#mask0_147_2169)">
<path fill-rule="evenodd" clip-rule="evenodd" d="M84.1133 124.044L84.1133 89.6199C84.1133 86.7081 81.7417 84.36 78.8535 84.36C75.9417 84.36 73.5936 86.7081 73.5936 89.6199L64.5766 89.6199C64.5766 81.7535 70.9871 75.3665 78.8535 75.3665C86.7198 75.3665 93.1303 81.777 93.1303 89.6433L93.1303 115.051L98.3667 115.051L98.3667 89.6199C98.3667 81.7535 104.777 75.343 112.643 75.343C120.51 75.343 126.92 81.7535 126.92 89.6199L117.903 89.6199C117.903 86.7081 115.532 84.36 112.643 84.36C109.732 84.36 107.384 86.7316 107.384 89.6199L107.384 124.044L84.1133 124.044ZM187.761 106.879C187.761 116.647 195.346 124.608 204.668 124.608C208.382 124.608 211.827 123.338 214.624 121.19L214.624 124.044L223.641 124.044L223.641 89.6199L214.624 89.6199L214.624 92.5603C211.829 90.4171 208.387 89.1502 204.668 89.1502C195.346 89.1502 187.761 97.1105 187.761 106.879ZM214.624 106.855L214.624 106.873C214.615 112.149 210.603 116.459 205.701 116.459C200.794 116.459 196.778 112.162 196.778 106.855C196.778 101.572 200.77 97.2514 205.701 97.2514C210.603 97.2514 214.615 101.562 214.624 106.837L214.624 106.855ZM117.88 89.6199L126.897 89.6199L126.897 124.044L117.88 124.044L117.88 89.6199ZM64.5766 89.6199L73.5935 89.6199L73.5935 124.044L64.5766 124.044L64.5766 89.6199ZM161.767 89.6199L152.75 89.6199L152.75 109.016L152.727 109.016C152.727 112.632 149.768 115.591 146.152 115.591C142.543 115.591 139.59 112.645 139.577 109.039L139.601 109.039L139.601 89.6199L130.584 89.6199L130.584 109.016L130.56 109.016C130.56 117.61 137.558 124.608 146.152 124.608C154.738 124.608 161.731 117.623 161.744 109.039L161.767 109.039L161.767 89.6199ZM227.328 75.9066L236.345 75.9066L236.345 89.6199L227.328 89.6199L227.328 75.9066ZM227.328 124.044L227.328 89.6199L236.345 89.6199L236.345 124.044L227.328 124.044ZM174.471 124.02L174.471 98.6368L187.644 98.6368L187.644 89.6199L165.454 89.6199L165.454 98.6133L165.454 98.6368L165.454 124.02L174.471 124.02Z" fill="#0D0D0D"/>
</g>
</g>
<defs>
<clipPath id="clip0_147_2169">
<rect width="171.768" height="49.3141" fill="white" transform="translate(64.5766 75.343)"/>
</clipPath>
</defs>
</svg>
