<svg width="160" height="100" viewBox="0 0 160 100" fill="none" xmlns="http://www.w3.org/2000/svg">
<path d="M90.7475 53.4459C91.5924 53.8108 92.0971 54.4973 92.0971 55.2794C92.0971 56.3155 91.3075 56.933 89.9844 56.933C88.5804 56.933 87.9281 55.6847 87.761 55.3035L87.5555 54.8311H84.9262L84.9219 54.8287H82.4859C81.8204 55.949 80.4801 56.9813 78.9216 56.9813C76.1092 56.9813 74.7059 54.7637 74.5265 52.5742H86.0204V52.0942C86.0204 51.1865 85.9268 50.332 85.7521 49.5388C86.081 50.5567 86.8312 51.6121 88.4035 52.3591C88.9777 52.6357 89.8447 53.0483 90.7475 53.4459ZM78.7576 46.4886C81.1099 46.4886 82.2622 48.1262 82.5961 49.7945H74.7671C75.1755 48.1228 76.6269 46.4886 78.7576 46.4886ZM101.823 46.5369V43.5409H99.3795V40H96.3795V43.5409H90.3373C87.5469 43.5425 85.5216 45.4363 85.5216 48.0459C85.5221 48.3463 85.5491 48.6462 85.6022 48.9419C84.6514 45.6172 82.1453 43.5409 78.7797 43.5409C74.6628 43.5409 71.5154 46.7761 71.2517 51.1588V50.2271C71.2517 46.54 68.2791 43.5409 64.6259 43.5409C60.9726 43.5409 58 46.54 58 50.2271V59.813H61.0366V50.2271C61.0366 48.2311 62.6462 46.6056 64.6259 46.6056C66.6046 46.6056 68.2151 48.2308 68.2151 50.2271V59.813H71.2517V52.3551C71.5173 56.7535 74.705 60 78.8751 60C81.4209 60 83.6665 58.5077 84.9386 56.7794C85.8875 58.8262 87.742 60 90.0324 60C92.6872 60 95.3743 58.2886 95.3743 55.0163C95.3743 53.0578 94.2472 51.4575 92.2004 50.5086C91.9745 50.4044 91.7495 50.2983 91.5253 50.1904L91.498 50.1766C91.2573 50.0615 91.0158 49.9479 90.7736 49.836C89.4358 49.2301 88.7992 48.7864 88.7992 47.9015C88.7992 47.123 89.4894 46.5369 90.3413 46.5369H96.3795V55.0729C96.3795 57.7908 98.5696 59.9997 101.261 59.9997V56.972C100.224 56.972 99.3795 56.12 99.3795 55.0729V46.537C100.58 46.5379 101.504 46.5369 101.823 46.5369Z" fill="#0D0D0D"/>
</svg>
