<svg width="300" height="200" viewBox="0 0 300 200" fill="none" xmlns="http://www.w3.org/2000/svg">
<path d="M176.495 108.51C178.582 109.411 179.828 111.107 179.828 113.038C179.828 115.597 177.878 117.122 174.611 117.122C171.143 117.122 169.532 114.039 169.12 113.098L168.612 111.931L162.119 111.931L162.108 111.925L156.092 111.925C154.449 114.692 151.139 117.241 147.29 117.241C140.344 117.241 136.879 111.765 136.436 106.357L164.821 106.357L164.821 105.172C164.821 102.93 164.59 100.82 164.158 98.8612C164.971 101.375 166.823 103.981 170.706 105.826C172.124 106.509 174.266 107.528 176.495 108.51ZM146.885 91.3285C152.694 91.3285 155.54 95.3727 156.364 99.4927L137.03 99.4927C138.038 95.3643 141.623 91.3285 146.885 91.3285ZM203.847 91.4478L203.847 84.0489L197.813 84.0489L197.813 75.3042L190.404 75.3042L190.404 84.0489L175.482 84.0489C168.591 84.0527 163.589 88.7297 163.589 95.1743C163.59 95.9163 163.657 96.6568 163.788 97.3872C161.44 89.1765 155.251 84.0489 146.94 84.0489C136.772 84.0488 128.999 92.0383 128.348 102.862L128.348 100.561C128.348 91.4555 121.007 84.0488 111.985 84.0488C102.963 84.0488 95.6219 91.4555 95.6219 100.561L95.6219 124.234L103.121 124.234L103.121 100.561C103.121 95.6318 107.096 91.6173 111.985 91.6173C116.872 91.6173 120.849 95.631 120.849 100.561L120.849 124.234L128.348 124.234L128.348 105.816C129.004 116.679 136.876 124.696 147.175 124.696C153.462 124.696 159.008 121.011 162.149 116.743C164.493 121.797 169.073 124.696 174.729 124.696C181.285 124.696 187.921 120.47 187.921 112.388C187.921 107.552 185.138 103.6 180.083 101.256C179.525 100.999 178.97 100.737 178.416 100.471L178.348 100.436C177.754 100.152 177.158 99.8716 176.56 99.5952C173.256 98.0989 171.684 97.0032 171.684 94.8178C171.684 92.8952 173.388 91.4477 175.492 91.4477L190.404 91.4477L190.404 112.528C190.404 119.24 195.813 124.695 202.46 124.695L202.46 117.218C199.898 117.218 197.813 115.114 197.813 112.528L197.813 91.448C200.777 91.4503 203.06 91.4478 203.847 91.4478Z" fill="#0D0D0D"/>
</svg>
