<svg width="300" height="200" viewBox="0 0 300 200" fill="none" xmlns="http://www.w3.org/2000/svg">
<mask id="mask0_147_2153" style="mask-type:alpha" maskUnits="userSpaceOnUse" x="60" y="76" width="179" height="48">
<path d="M60.5554 76.0601L238.765 76.0601L238.765 123.94L60.5554 123.94L60.5554 76.0601Z" fill="white"/>
</mask>
<g mask="url(#mask0_147_2153)">
<path fill-rule="evenodd" clip-rule="evenodd" d="M179.127 76.0601L171.622 76.0601L171.622 118.03C178.442 118.265 185.234 118.609 191.998 119.06L191.998 111.665C187.719 111.38 183.429 111.138 179.127 110.938L179.127 76.0601ZM238.765 76.0643L230.522 76.0643L225.088 88.659L220.206 76.0643L212.087 76.0643L220.812 98.5693L211.287 120.647C213.922 120.904 216.55 121.179 219.175 121.468L224.714 108.631L230.2 122.782C233.058 123.15 235.909 123.533 238.753 123.939L238.765 123.934L228.989 98.7213L238.765 76.0643ZM145.862 117.663L153.367 117.661L153.367 100.589L163.54 100.589L163.54 93.195L153.367 93.195L153.367 83.5254L166.812 83.5254L166.812 76.0647L145.862 76.0647L145.862 117.663ZM117.839 83.5249L125.693 83.5249L125.693 118.103C128.19 118.008 130.692 117.931 133.197 117.865L133.197 83.5249L141.051 83.5249L141.051 76.0643L117.839 76.0643L117.839 83.5249ZM92.1824 120.252C99.0991 119.623 106.048 119.105 113.028 118.703L113.028 111.308C108.568 111.566 104.121 111.871 99.6868 112.22L99.6868 101.025C102.596 100.996 106.427 100.907 109.821 100.949L109.821 93.5545C107.11 93.548 102.752 93.5924 99.6868 93.6316L99.6868 83.5254L113.028 83.5254L113.028 76.0647L92.1824 76.0647L92.1824 120.252ZM77.4615 103.157L67.6876 76.0643L60.5553 76.0643L60.5553 123.94C63.0521 123.585 65.5534 123.244 68.0598 122.918L68.0598 96.8832L76.7506 121.849C79.4841 121.532 82.2224 121.232 84.9661 120.95L84.9661 76.0643L77.4615 76.0643L77.4615 103.157ZM198.185 119.505C200.69 119.696 203.191 119.902 205.689 120.124L205.689 76.0643L198.185 76.0643L198.185 119.505Z" fill="#0D0D0D"/>
</g>
</svg>
