<svg width="160" height="100" viewBox="0 0 160 100" fill="none" xmlns="http://www.w3.org/2000/svg">
<mask id="mask0" mask-type="alpha" maskUnits="userSpaceOnUse" x="43" y="40" width="75" height="20">
<path d="M43 40H117.44V60H43V40Z" fill="white"/>
</mask>
<g mask="url(#mask0)">
<path fill-rule="evenodd" clip-rule="evenodd" d="M92.5285 40H89.3939V57.5312C92.2428 57.6293 95.0797 57.773 97.905 57.9613V54.8727C96.1179 54.7535 94.3256 54.6524 92.5285 54.5688V40ZM117.44 40.0018H113.997L111.727 45.2627L109.688 40.0018H106.296L109.941 49.4024L105.962 58.6246C107.063 58.7319 108.161 58.8465 109.257 58.9676L111.571 53.6054L113.863 59.5164C115.056 59.6699 116.247 59.83 117.435 59.9996L117.44 59.9976L113.357 49.4658L117.44 40.0018ZM78.6337 57.378L81.7685 57.3774V50.2461H86.0177V47.1575H81.7685V43.1183H87.3846V40.0019H78.6337V57.378ZM66.9279 43.1181H70.2087V57.5617C71.2518 57.5223 72.2971 57.4898 73.3434 57.4624V43.1181H76.6241V40.0018H66.9279V43.1181ZM56.211 58.4594C59.1002 58.1968 62.0027 57.9804 64.9184 57.8125V54.7235C63.0554 54.8312 61.1979 54.9586 59.3457 55.1042V50.4281C60.561 50.416 62.1612 50.3789 63.5789 50.3965V47.3076C62.4463 47.3049 60.626 47.3235 59.3457 47.3398V43.1183H64.9184V40.0019H56.211V58.4594ZM50.0619 51.3188L45.9792 40.0018H43V60C44.0429 59.8516 45.0878 59.7094 46.1347 59.573V48.6981L49.765 59.1265C50.9068 58.9941 52.0506 58.8687 53.1967 58.7508V40.0018H50.0619V51.3188ZM100.489 58.1473C101.536 58.2274 102.58 58.3133 103.624 58.4062V40.0018H100.489V58.1473Z" fill="#F2F2F4"/>
</g>
</svg>
