<svg width="300" height="200" viewBox="0 0 300 200" fill="none" xmlns="http://www.w3.org/2000/svg">
<rect x="92.9825" y="43.9521" width="113.053" height="112.896" rx="56.448" fill="#0D0D0D"/>
<path d="M148.364 75.7983H142.155C141.574 75.7983 141.104 76.2687 141.104 76.8489V77.0527C141.104 77.6329 141.574 78.1033 142.155 78.1033H148.364V79.9379H138.783C138.203 79.9379 137.733 80.4083 137.733 80.9884V81.1923C137.733 81.7724 138.203 82.2428 138.783 82.2428H148.348V84.9398C141.794 85.1123 135.663 86.6803 130.99 89.4243C125.8 92.4505 122.962 96.543 122.962 100.933C122.962 105.339 125.8 109.416 130.975 112.443C135.945 115.359 142.531 116.958 149.524 116.958C156.502 116.958 163.087 115.359 168.074 112.443C173.232 109.416 176.086 105.324 176.086 100.933C176.086 96.5273 173.248 92.4505 168.074 89.4399C163.37 86.6803 157.239 85.0966 150.669 84.9398V82.2585H160.234C160.814 82.2585 161.284 81.7881 161.284 81.2079V81.0041C161.284 80.4239 160.814 79.9535 160.234 79.9535H150.669V78.119H156.878C157.458 78.119 157.929 77.6486 157.929 77.0684V76.8646C157.929 76.2844 157.458 75.814 156.878 75.814H150.669V74.1519C150.669 73.5718 150.198 73.1014 149.618 73.1014H149.414C148.834 73.1014 148.364 73.5718 148.364 74.1519V75.7983ZM173.766 100.933C173.766 108.475 162.884 114.622 149.509 114.622C136.133 114.622 125.252 108.475 125.252 100.933C125.252 93.3913 136.133 87.2447 149.509 87.2447C162.884 87.2447 173.766 93.3913 173.766 100.933Z" fill="white"/>
<path d="M134.032 94.1124C131.79 94.1124 129.642 94.7082 129.642 99.6945V102.564C129.642 107.691 131.554 108.365 134.032 108.365C136.509 108.365 138.422 107.691 138.422 102.564V99.6945C138.422 94.6925 136.258 94.1124 134.032 94.1124ZM135.647 102.58C135.647 105.919 135.13 106.39 134.048 106.39C132.966 106.39 132.448 105.904 132.448 102.58V99.7101C132.448 96.7623 132.966 96.1194 134.048 96.1194C135.13 96.1194 135.647 96.778 135.647 99.7101V102.58Z" fill="white"/>
<path d="M150.668 95.7906V106.688C150.668 107.645 151.139 108.052 152.111 108.052H157.442C158.446 108.052 158.838 107.551 158.838 106.923C158.838 106.312 158.446 105.794 157.442 105.794H153.35V102.11H157.066C158.069 102.11 158.461 101.592 158.461 100.965C158.461 100.353 158.069 99.836 157.066 99.836H153.35V96.7H157.317C158.32 96.7 158.712 96.1826 158.712 95.5554C158.712 94.9439 158.304 94.4265 157.317 94.4265H152.111C151.123 94.4265 150.668 94.8498 150.668 95.7906Z" fill="white"/>
<path d="M164.734 108.365C167.211 108.365 169.124 107.691 169.124 102.564V99.6945C169.124 94.6925 166.96 94.1124 164.734 94.1124C162.492 94.1124 160.343 94.7082 160.343 99.6945V102.564C160.343 107.691 162.256 108.365 164.734 108.365ZM163.134 99.7101C163.134 96.7623 163.652 96.1194 164.734 96.1194C165.816 96.1194 166.333 96.778 166.333 99.7101V102.58C166.333 105.919 165.816 106.39 164.734 106.39C163.652 106.39 163.134 105.904 163.134 102.58V99.7101Z" fill="white"/>
<path d="M146.215 107.283C146.545 108.177 147.156 108.381 147.799 108.161C148.442 107.957 148.818 107.44 148.473 106.531L146.592 101.356C146.795 101.231 147.14 100.995 147.235 100.964C147.407 100.854 147.579 100.713 147.752 100.572C148.379 100.055 148.661 99.2707 148.661 97.9692C148.661 96.0406 147.846 94.4726 145.431 94.4726H141.747C140.774 94.4726 140.304 94.8803 140.304 95.8368V106.985C140.351 107.691 140.931 108.24 141.637 108.24C142.342 108.24 142.922 107.691 142.97 106.985V102.109H144.099H144.318L146.215 107.283ZM144.036 100.227H143.017V96.3699H144.177C145.447 96.3699 145.886 96.9344 145.886 98.2985C145.886 99.7724 145.118 100.211 144.036 100.227Z" fill="white"/>
<path d="M154.102 148.852C154.149 148.381 153.898 147.911 153.475 147.691C153.051 147.472 152.534 147.503 152.158 147.786C151.781 148.068 151.593 148.569 151.703 149.024L151.954 152.537C151.954 153.258 152.518 153.838 153.24 153.854C153.945 153.744 154.431 153.085 154.353 152.364L154.102 148.852Z" fill="white"/>
<path d="M157.442 148.428C157.442 147.958 157.175 147.519 156.736 147.315C156.297 147.111 155.796 147.19 155.435 147.503C155.074 147.817 154.933 148.319 155.059 148.773L155.576 152.254C155.623 152.96 156.235 153.509 156.956 153.477C157.646 153.305 158.085 152.615 157.959 151.909L157.442 148.428Z" fill="white"/>
<path d="M160.798 147.753C160.767 147.283 160.453 146.86 160.014 146.703C159.575 146.53 159.057 146.64 158.728 146.985C158.399 147.33 158.289 147.832 158.462 148.271L159.199 151.705C159.293 152.41 159.936 152.912 160.657 152.834C161.331 152.614 161.723 151.893 161.535 151.187L160.798 147.753Z" fill="white"/>
<path d="M164.075 146.845C164.012 146.374 163.683 145.967 163.228 145.826C162.773 145.685 162.272 145.826 161.958 146.186C161.644 146.547 161.566 147.064 161.77 147.503L162.742 150.89C162.883 151.596 163.573 152.051 164.279 151.909C164.953 151.659 165.298 150.922 165.047 150.232L164.075 146.845Z" fill="white"/>
<path d="M167.273 145.7C167.179 145.229 166.818 144.853 166.348 144.743C165.878 144.633 165.392 144.806 165.109 145.198C164.827 145.574 164.78 146.092 165.015 146.515L166.223 149.823C166.411 150.513 167.132 150.921 167.822 150.733C168.481 150.435 168.763 149.667 168.481 149.008L167.273 145.7Z" fill="white"/>
<path d="M171.837 147.581L170.41 144.367C170.284 143.896 169.908 143.552 169.422 143.473C168.952 143.395 168.466 143.614 168.215 144.022C167.948 144.43 167.964 144.947 168.215 145.355L169.642 148.569C169.892 149.243 170.614 149.588 171.304 149.369C171.931 149.024 172.15 148.24 171.821 147.613L171.837 147.581Z" fill="white"/>
<path d="M173.421 142.83C173.264 142.375 172.856 142.062 172.386 142.031C171.915 141.984 171.461 142.234 171.225 142.642C170.99 143.065 171.022 143.567 171.304 143.959L172.966 147.064C173.264 147.722 174.016 148.02 174.675 147.738C175.255 147.346 175.443 146.546 175.067 145.935L173.421 142.83Z" fill="white"/>
<path d="M178.187 144.022L176.321 141.027C176.117 140.604 175.694 140.322 175.223 140.322C174.753 140.322 174.329 140.588 174.126 141.012C173.922 141.435 173.969 141.937 174.267 142.297L176.133 145.277C176.462 145.904 177.246 146.155 177.889 145.826C178.469 145.402 178.579 144.587 178.187 144.022Z" fill="white"/>
<path d="M179.097 139.051C178.877 138.628 178.422 138.361 177.952 138.393C177.466 138.424 177.058 138.722 176.886 139.177C176.713 139.631 176.823 140.133 177.152 140.478L179.206 143.332C179.583 143.943 180.382 144.132 180.994 143.755C181.543 143.285 181.605 142.469 181.151 141.905L179.097 139.051Z" fill="white"/>
<path d="M181.731 136.903C181.48 136.496 181.025 136.26 180.539 136.323C180.068 136.386 179.661 136.715 179.52 137.17C179.379 137.625 179.52 138.126 179.88 138.44L182.138 141.137C182.562 141.717 183.361 141.858 183.941 141.451C184.459 140.933 184.459 140.118 183.973 139.6L181.731 136.903Z" fill="white"/>
<path d="M184.176 134.582C183.894 134.19 183.424 134.002 182.953 134.096C182.483 134.19 182.122 134.551 182.012 135.006C181.903 135.476 182.075 135.962 182.451 136.244L184.898 138.753C185.352 139.302 186.168 139.38 186.716 138.926C187.202 138.408 187.14 137.577 186.622 137.107L184.176 134.582Z" fill="white"/>
<path d="M189.1 134.425L186.482 132.073C186.184 131.697 185.682 131.54 185.227 131.665C184.757 131.791 184.412 132.183 184.349 132.653C184.271 133.124 184.49 133.594 184.882 133.861L187.501 136.213C188.003 136.73 188.818 136.746 189.335 136.26C189.759 135.679 189.649 134.864 189.1 134.425Z" fill="white"/>
<path d="M191.374 131.588L188.599 129.424C188.27 129.079 187.768 128.954 187.313 129.11C186.858 129.267 186.545 129.675 186.498 130.161C186.451 130.631 186.702 131.102 187.125 131.321L189.9 133.485C190.434 133.955 191.249 133.924 191.735 133.407C192.127 132.795 191.954 131.995 191.374 131.588Z" fill="white"/>
<path d="M193.443 128.577L190.527 126.601C190.182 126.288 189.664 126.194 189.225 126.382C188.786 126.57 188.504 126.993 188.488 127.48C188.473 127.95 188.755 128.389 189.178 128.593L192.095 130.553C192.659 130.992 193.474 130.898 193.929 130.349C194.274 129.737 194.07 128.953 193.443 128.577Z" fill="white"/>
<path d="M195.31 125.441L192.268 123.685C191.892 123.387 191.374 123.325 190.951 123.544C190.528 123.764 190.261 124.203 190.293 124.689C190.324 125.175 190.622 125.582 191.061 125.755L194.103 127.511C194.699 127.919 195.498 127.762 195.906 127.182C196.22 126.523 195.953 125.755 195.31 125.441Z" fill="white"/>
<path d="M196.94 122.195L193.772 120.658C193.38 120.391 192.863 120.36 192.455 120.611C192.048 120.862 191.812 121.317 191.875 121.803C191.938 122.273 192.267 122.681 192.722 122.822L195.889 124.358C196.501 124.719 197.3 124.515 197.661 123.904C197.928 123.23 197.598 122.477 196.94 122.195Z" fill="white"/>
<path d="M198.352 118.824L195.09 117.506C194.683 117.256 194.165 117.271 193.773 117.553C193.381 117.836 193.193 118.306 193.272 118.777C193.366 119.247 193.726 119.623 194.181 119.733L197.442 121.05C198.085 121.364 198.869 121.113 199.183 120.47C199.402 119.796 199.026 119.059 198.352 118.824Z" fill="white"/>
<path d="M199.512 115.374L196.172 114.276C195.749 114.073 195.232 114.12 194.871 114.418C194.495 114.715 194.338 115.202 194.463 115.672C194.589 116.127 194.965 116.487 195.435 116.566L198.775 117.648C199.434 117.914 200.202 117.601 200.484 116.958C200.625 116.268 200.202 115.562 199.512 115.374Z" fill="white"/>
<path d="M200.437 111.862L197.019 110.999C196.58 110.811 196.063 110.905 195.718 111.219C195.373 111.548 195.247 112.05 195.404 112.505C195.561 112.959 195.969 113.273 196.455 113.32L199.873 114.167C200.547 114.386 201.284 114.026 201.519 113.351C201.613 112.646 201.143 111.987 200.437 111.862Z" fill="white"/>
<path d="M201.112 108.271L197.646 107.66C197.192 107.503 196.69 107.628 196.361 107.973C196.031 108.318 195.937 108.836 196.125 109.275C196.314 109.714 196.737 110.012 197.223 110.012L200.688 110.623C201.378 110.796 202.084 110.388 202.272 109.698C202.35 108.993 201.833 108.365 201.112 108.271Z" fill="white"/>
<path d="M201.551 104.68L201.535 104.649L198.038 104.272C197.568 104.147 197.082 104.304 196.768 104.68C196.47 105.056 196.407 105.574 196.627 105.997C196.847 106.421 197.301 106.687 197.787 106.656L201.284 107.032C201.99 107.173 202.679 106.719 202.821 106.013C202.836 105.292 202.272 104.696 201.551 104.68Z" fill="white"/>
<path d="M201.707 101.012L198.194 100.886C197.724 100.792 197.238 100.996 196.971 101.388C196.689 101.78 196.673 102.297 196.924 102.705C197.175 103.113 197.63 103.348 198.116 103.285L201.628 103.411C202.334 103.489 202.977 102.987 203.071 102.266C203.024 101.56 202.428 100.996 201.707 101.012Z" fill="white"/>
<path d="M201.612 97.3736L198.1 97.499C197.63 97.4363 197.159 97.6715 196.908 98.0792C196.658 98.4868 196.689 99.0043 196.956 99.3963C197.238 99.7883 197.708 99.9764 198.179 99.898L201.691 99.7726C202.412 99.8039 203.008 99.2395 203.055 98.5339C202.977 97.8283 202.334 97.3108 201.612 97.3736Z" fill="white"/>
<path d="M201.267 93.767L201.283 93.7356L197.786 94.1119C197.316 94.0962 196.861 94.3471 196.642 94.7705C196.422 95.1939 196.485 95.7113 196.783 96.0876C197.081 96.4639 197.567 96.6207 198.037 96.4953L201.534 96.119C202.24 96.0876 202.804 95.5075 202.804 94.7862C202.663 94.0806 201.973 93.6258 201.267 93.767Z" fill="white"/>
<path d="M200.688 90.1456L197.223 90.7571C196.737 90.7571 196.314 91.0551 196.125 91.4941C195.937 91.9331 196.031 92.4506 196.361 92.7955C196.69 93.1405 197.192 93.2659 197.646 93.1091L201.112 92.4976C201.817 92.4349 202.35 91.8077 202.288 91.0864C202.099 90.4122 201.394 89.9888 200.688 90.1456Z" fill="white"/>
<path d="M199.857 86.6018L196.439 87.4485C195.968 87.4956 195.545 87.8092 195.404 88.2639C195.263 88.7186 195.373 89.2204 195.733 89.5497C196.078 89.8789 196.596 89.973 197.035 89.7692L200.453 88.9225C201.158 88.797 201.629 88.1385 201.519 87.4329C201.284 86.7586 200.547 86.398 199.857 86.6018Z" fill="white"/>
<path d="M198.775 83.1203L195.435 84.2179C194.949 84.2806 194.557 84.6255 194.431 85.096C194.306 85.5664 194.463 86.0681 194.855 86.366C195.231 86.664 195.764 86.711 196.188 86.4758L199.527 85.3939C200.202 85.2214 200.641 84.5472 200.484 83.8572C200.202 83.1987 199.449 82.8851 198.775 83.1516V83.1203Z" fill="white"/>
<path d="M194.181 81.0513C193.71 81.1611 193.35 81.5374 193.271 82.0078C193.177 82.4782 193.381 82.9643 193.773 83.2308C194.165 83.5131 194.683 83.5288 195.09 83.2779L198.352 81.9608C199.026 81.7412 199.402 81.02 199.214 80.3457C198.869 79.7028 198.101 79.4363 197.442 79.7342L194.181 81.0513Z" fill="white"/>
<path d="M192.722 77.9779C192.267 78.119 191.938 78.511 191.875 78.9971C191.812 79.4831 192.048 79.9379 192.455 80.1887C192.863 80.4396 193.38 80.4239 193.772 80.1417L196.94 78.6051C197.598 78.3385 197.928 77.5859 197.677 76.9116C197.3 76.3001 196.501 76.0963 195.889 76.4412L192.722 77.9779Z" fill="white"/>
<path d="M191.06 75.0143C190.621 75.1868 190.307 75.6102 190.292 76.0806C190.276 76.551 190.527 77.0057 190.95 77.2252C191.374 77.4447 191.891 77.3977 192.267 77.0998L195.309 75.3436C195.952 75.03 196.235 74.2617 195.937 73.6188C195.513 73.023 194.714 72.8662 194.102 73.2582L191.06 75.0143Z" fill="white"/>
<path d="M188.536 73.3054C188.552 73.7758 188.834 74.1992 189.257 74.3873C189.681 74.5755 190.183 74.4971 190.543 74.1992L193.46 72.2235C194.087 71.8785 194.306 71.0789 193.977 70.4517C193.522 69.8872 192.707 69.7931 192.143 70.2478L192.111 70.2165L189.195 72.1921C188.771 72.4117 188.52 72.835 188.536 73.3054Z" fill="white"/>
<path d="M186.513 70.6398C186.545 71.1102 186.874 71.5336 187.329 71.6904C187.783 71.8472 188.285 71.7217 188.615 71.3768L191.39 69.2129C191.986 68.8052 192.143 68.0212 191.766 67.4097C191.28 66.8923 190.449 66.8452 189.916 67.3156L187.141 69.4795C186.717 69.7147 186.482 70.1694 186.513 70.6398Z" fill="white"/>
<path d="M184.334 68.1458C184.412 68.6162 184.757 69.0082 185.212 69.1337C185.682 69.2591 186.168 69.1023 186.466 68.726L189.085 66.374C189.649 65.9349 189.759 65.1196 189.32 64.5551C188.802 64.0533 187.987 64.0847 187.485 64.5865L184.867 66.9385C184.459 67.205 184.255 67.6754 184.334 68.1458Z" fill="white"/>
<path d="M181.997 65.7786C182.107 66.2334 182.483 66.6097 182.954 66.7038C183.424 66.7978 183.91 66.594 184.177 66.202L186.623 63.6775C187.156 63.1914 187.203 62.3918 186.748 61.843C186.184 61.4039 185.369 61.4823 184.898 62.0154L182.452 64.5399C182.076 64.8222 181.888 65.3239 181.997 65.7786Z" fill="white"/>
<path d="M179.504 63.6147C179.645 64.0694 180.037 64.4144 180.523 64.4771C181.009 64.5398 181.479 64.3046 181.715 63.8812L183.973 61.1843C184.474 60.6825 184.474 59.8515 183.973 59.3497C183.377 58.942 182.561 59.0675 182.138 59.6476L179.88 62.3446C179.504 62.6582 179.363 63.16 179.504 63.6147Z" fill="white"/>
<path d="M176.901 61.6076C177.074 62.0624 177.497 62.3603 177.967 62.3916C178.454 62.423 178.893 62.1564 179.112 61.7331L181.166 58.895C181.621 58.3462 181.558 57.5308 181.025 57.0604C180.414 56.6841 179.614 56.8723 179.222 57.4681L177.168 60.3062C176.823 60.6512 176.729 61.1529 176.901 61.6076Z" fill="white"/>
<path d="M174.141 59.7732C174.345 60.1966 174.769 60.4631 175.239 60.4631C175.709 60.4631 176.133 60.1809 176.337 59.7575L178.187 56.7626C178.61 56.1825 178.485 55.3828 177.92 54.9437C177.277 54.6145 176.493 54.8653 176.148 55.5082L174.282 58.4874C173.985 58.8481 173.937 59.3498 174.141 59.7732Z" fill="white"/>
<path d="M171.209 58.1732C171.444 58.5965 171.899 58.8317 172.369 58.7847C172.84 58.7376 173.247 58.424 173.404 57.985L175.051 54.8804C175.427 54.2688 175.254 53.4848 174.659 53.0928C174.016 52.8106 173.247 53.1085 172.949 53.7514L171.287 56.856C171.005 57.2324 170.974 57.7498 171.209 58.1732Z" fill="white"/>
<path d="M168.199 56.763C168.465 57.1707 168.936 57.3745 169.406 57.2961C169.876 57.2177 170.268 56.8728 170.394 56.418L171.821 53.2036C172.15 52.5764 171.93 51.7924 171.303 51.4475C170.645 51.2123 169.908 51.5572 169.641 52.2315L168.199 55.4459C167.932 55.8536 167.932 56.371 168.199 56.763Z" fill="white"/>
<path d="M165.126 55.5714C165.408 55.9477 165.894 56.1358 166.365 56.0261C166.835 55.9163 167.196 55.54 167.29 55.0696L168.497 51.7611C168.779 51.1026 168.497 50.3499 167.854 50.0363C167.149 49.8638 166.443 50.2558 166.239 50.9458L165.032 54.2542C164.797 54.6776 164.844 55.195 165.126 55.5714Z" fill="white"/>
<path d="M163.244 54.9589C163.699 54.8178 164.044 54.4258 164.091 53.9397L165.063 50.5528C165.299 49.8786 164.969 49.1259 164.295 48.875C163.589 48.7496 162.9 49.2043 162.758 49.8942L161.786 53.2811C161.582 53.7202 161.661 54.2219 161.974 54.5983C162.288 54.9589 162.79 55.1 163.244 54.9589Z" fill="white"/>
<path d="M159.983 54.0968C160.438 53.9243 160.736 53.5166 160.767 53.0462L161.504 49.5966C161.708 48.9067 161.316 48.2011 160.626 47.9816C159.952 47.8718 159.278 48.3579 159.168 49.0792L158.431 52.5288C158.258 52.9678 158.368 53.4853 158.697 53.8145C159.027 54.1438 159.544 54.2693 159.983 54.0968Z" fill="white"/>
<path d="M156.753 53.5172C157.192 53.3134 157.458 52.8744 157.443 52.3883L157.96 48.9073C158.101 48.2174 157.662 47.5275 156.972 47.3707C156.267 47.3236 155.639 47.8568 155.592 48.5624L155.075 52.0433C154.934 52.498 155.075 52.9998 155.436 53.3291C155.796 53.6427 156.314 53.7211 156.753 53.5172Z" fill="white"/>
<path d="M152.158 52.9838C152.535 53.266 153.052 53.2974 153.475 53.0778C153.899 52.8583 154.134 52.4036 154.103 51.9175L154.354 48.4052C154.448 47.6996 153.977 47.041 153.272 46.9313C152.55 46.947 151.97 47.5428 151.954 48.2484L151.704 51.7607C151.61 52.2311 151.782 52.7015 152.158 52.9838Z" fill="white"/>
<path d="M148.849 52.9367C149.257 53.1876 149.759 53.1876 150.166 52.9367C150.574 52.6858 150.778 52.2154 150.715 51.745V48.217C150.762 47.5114 150.229 46.8842 149.523 46.8215C148.802 46.8685 148.269 47.4957 148.3 48.217V51.745C148.238 52.2154 148.441 52.6858 148.849 52.9367Z" fill="white"/>
<path d="M144.913 51.9334C144.866 52.4038 145.117 52.8742 145.525 53.1094C145.948 53.3446 146.466 53.3132 146.842 53.0153C147.218 52.7331 147.407 52.247 147.297 51.7766L147.046 48.2643C147.046 47.543 146.481 46.9628 145.76 46.9471C145.07 47.0569 144.584 47.7155 144.663 48.4211L144.913 51.9334Z" fill="white"/>
<path d="M141.574 52.372C141.574 52.8424 141.841 53.2815 142.28 53.4853C142.719 53.6891 143.221 53.6107 143.581 53.2971C143.942 52.9835 144.083 52.4818 143.942 52.0271L143.425 48.5618C143.378 47.8562 142.766 47.3074 142.045 47.3387C141.371 47.4955 140.932 48.1855 141.057 48.8754L141.574 52.372Z" fill="white"/>
<path d="M138.218 53.0464C138.249 53.5168 138.563 53.9401 139.002 54.0969C139.441 54.2694 139.958 54.1597 140.288 53.8147C140.617 53.4697 140.727 52.968 140.554 52.5289L139.817 49.0793C139.723 48.3737 139.065 47.872 138.359 47.9504C137.685 48.1542 137.277 48.8912 137.481 49.5968L138.218 53.0464Z" fill="white"/>
<path d="M134.942 53.9396C135.005 54.41 135.334 54.8177 135.789 54.9588C136.243 55.0999 136.745 54.9588 137.059 54.5982C137.372 54.2375 137.451 53.7201 137.247 53.2811L136.275 49.8942C136.134 49.1886 135.444 48.7339 134.738 48.875C134.08 49.1259 133.735 49.8785 133.97 50.5527L134.942 53.9396Z" fill="white"/>
<path d="M131.727 55.0696C131.821 55.54 132.182 55.9163 132.652 56.0261C133.123 56.1358 133.609 55.9633 133.891 55.5713C134.173 55.195 134.22 54.6776 133.985 54.2542L132.778 50.9457C132.574 50.2558 131.868 49.8481 131.178 50.0363C130.535 50.3342 130.253 51.1025 130.535 51.7611L131.727 55.0696Z" fill="white"/>
<path d="M127.196 53.2037L128.623 56.4181C128.748 56.8885 129.124 57.2334 129.61 57.2962C130.081 57.3746 130.551 57.155 130.818 56.763C131.084 56.3554 131.084 55.8379 130.818 55.4459L129.375 52.2315C129.124 51.5573 128.403 51.2123 127.713 51.4318C127.086 51.7768 126.866 52.5608 127.196 53.2037Z" fill="white"/>
<path d="M125.596 57.9857C125.753 58.4404 126.161 58.754 126.631 58.7853C127.102 58.8167 127.556 58.5815 127.792 58.1738C128.027 57.7505 127.995 57.2487 127.713 56.8567L126.067 53.7677C125.769 53.1092 125.016 52.8113 124.358 53.0935C123.746 53.4698 123.574 54.2695 123.95 54.881L125.596 57.9857Z" fill="white"/>
<path d="M122.711 59.7571C122.915 60.1805 123.338 60.447 123.809 60.447C124.279 60.447 124.702 60.1805 124.906 59.7728C125.11 59.3494 125.063 58.8634 124.765 58.487L122.899 55.5078C122.57 54.8806 121.786 54.6298 121.159 54.9434C120.547 55.351 120.422 56.1821 120.845 56.7622L122.711 59.7571Z" fill="white"/>
<path d="M119.92 61.733C120.139 62.1564 120.594 62.4073 121.064 62.3759C121.535 62.3446 121.958 62.0466 122.131 61.6076C122.303 61.1686 122.193 60.6511 121.864 60.3218L119.81 57.4837C119.434 56.8722 118.634 56.6841 118.023 57.0447C117.489 57.5151 117.411 58.3305 117.866 58.8793L119.92 61.733Z" fill="white"/>
<path d="M115.044 61.1846L117.302 63.8816C117.553 64.305 118.008 64.5402 118.494 64.4774C118.98 64.4147 119.372 64.0854 119.513 63.615C119.654 63.1446 119.497 62.6429 119.137 62.345L116.879 59.648C116.471 59.0678 115.656 58.911 115.075 59.3187C114.574 59.8362 114.574 60.6515 115.075 61.1533L115.044 61.1846Z" fill="white"/>
<path d="M114.84 66.2177C115.122 66.6097 115.592 66.7979 116.063 66.7038C116.533 66.6097 116.894 66.2491 117.004 65.7944C117.113 65.3397 116.941 64.8379 116.565 64.5557L114.119 62.0312C113.664 61.4824 112.848 61.404 112.284 61.843C111.814 62.3761 111.876 63.2072 112.394 63.6933L114.84 66.2177Z" fill="white"/>
<path d="M109.916 66.3744L112.535 68.7264C112.833 69.1028 113.334 69.2596 113.789 69.1341C114.259 69.0087 114.604 68.6167 114.667 68.1463C114.745 67.6759 114.526 67.2055 114.134 66.9389L111.5 64.5869C110.998 64.0695 110.183 64.0538 109.665 64.5399C109.242 65.1044 109.352 65.9197 109.916 66.3744Z" fill="white"/>
<path d="M107.643 69.212L110.418 71.3758C110.748 71.7208 111.25 71.8462 111.704 71.6894C112.159 71.5326 112.473 71.1249 112.52 70.6388C112.567 70.1684 112.316 69.698 111.892 69.4785L109.133 67.3304C108.6 66.86 107.784 66.8913 107.298 67.4088C106.906 68.0046 107.063 68.8043 107.643 69.212Z" fill="white"/>
<path d="M105.573 72.2077L108.489 74.1834C108.834 74.5126 109.352 74.6067 109.791 74.4186C110.23 74.2304 110.528 73.807 110.528 73.3209C110.543 72.8349 110.261 72.3958 109.822 72.192L106.89 70.2163C106.325 69.7773 105.526 69.8713 105.071 70.4201C104.726 71.063 104.961 71.847 105.573 72.2077Z" fill="white"/>
<path d="M103.707 75.3435L106.749 77.0997C107.125 77.3976 107.643 77.4604 108.066 77.2408C108.489 77.0213 108.756 76.5666 108.725 76.0962C108.693 75.6258 108.395 75.2024 107.941 75.0299L104.899 73.2738C104.303 72.8818 103.503 73.0229 103.096 73.6031C102.798 74.2459 103.08 75.0143 103.707 75.3435Z" fill="white"/>
<path d="M102.076 78.5888L105.244 80.1254C105.636 80.392 106.153 80.4076 106.561 80.1724C106.968 79.9216 107.204 79.4668 107.141 78.9808C107.078 78.5104 106.749 78.1027 106.294 77.9616L103.127 76.4249C102.515 76.0643 101.716 76.2681 101.355 76.8797C101.088 77.5696 101.418 78.3222 102.076 78.5888Z" fill="white"/>
<path d="M100.681 81.9604L103.942 83.2775C104.35 83.5127 104.867 83.497 105.259 83.2305C105.651 82.9639 105.839 82.4778 105.761 82.0074C105.667 81.537 105.322 81.1607 104.867 81.051L101.59 79.7338C100.947 79.4202 100.163 79.6868 99.8496 80.3297C99.6144 81.0196 99.9907 81.7566 100.681 81.9604Z" fill="white"/>
<path d="M99.5047 85.4102L102.845 86.4921C103.268 86.7117 103.785 86.6646 104.162 86.351C104.538 86.0531 104.695 85.5514 104.569 85.0966C104.444 84.6419 104.052 84.2813 103.581 84.2186L100.226 83.1367C99.5674 82.8701 98.7991 83.1837 98.5168 83.8266C98.3757 84.5322 98.7991 85.2221 99.5047 85.4102Z" fill="white"/>
<path d="M98.579 88.9374L101.997 89.7841C102.436 89.9723 102.954 89.8782 103.299 89.5646C103.644 89.251 103.769 88.7335 103.612 88.2788C103.455 87.8241 103.048 87.5105 102.562 87.4634L99.1434 86.6167C98.4692 86.3972 97.7322 86.7578 97.497 87.4321C97.403 88.1377 97.8734 88.8119 98.579 88.9374Z" fill="white"/>
<path d="M97.9056 92.5126L101.371 93.1555C101.81 93.2653 102.28 93.1241 102.578 92.7792C102.876 92.4342 102.955 91.9481 102.798 91.5248C102.641 91.1014 102.233 90.8035 101.779 90.7722L98.3133 90.145C97.6234 89.9725 96.9178 90.3958 96.7453 91.0857C96.6669 91.807 97.2 92.4499 97.9056 92.5126Z" fill="white"/>
<path d="M97.4822 96.135L100.979 96.5114C101.434 96.6368 101.935 96.4643 102.233 96.1037C102.531 95.743 102.594 95.2256 102.374 94.7866C102.155 94.3632 101.716 94.0966 101.23 94.128L97.7331 93.7674C97.0275 93.6263 96.3376 94.081 96.1965 94.7866C96.1965 95.4922 96.761 96.088 97.4822 96.135Z" fill="white"/>
<path d="M97.3095 99.7729L100.822 99.8984C101.292 99.9925 101.778 99.7886 102.045 99.3966C102.327 99.0046 102.343 98.4872 102.092 98.0795C101.841 97.6718 101.386 97.4366 100.9 97.4993L97.3879 97.3739C96.6823 97.2955 96.0395 97.7973 95.9454 98.5185C95.9924 99.2241 96.6039 99.7886 97.3095 99.7729Z" fill="white"/>
<path d="M97.4037 103.394L100.916 103.269C101.386 103.331 101.857 103.096 102.108 102.689C102.359 102.281 102.327 101.763 102.061 101.371C101.778 100.979 101.308 100.791 100.838 100.87L97.3253 100.995C96.6197 100.964 96.0081 101.513 95.9611 102.234C96.0395 102.955 96.6824 103.473 97.4037 103.394Z" fill="white"/>
<path d="M97.7481 106.986L97.7324 107.049L101.229 106.672C101.699 106.688 102.154 106.437 102.374 106.014C102.593 105.59 102.531 105.073 102.233 104.697C101.935 104.32 101.449 104.163 100.978 104.289L97.4816 104.665C96.776 104.697 96.2115 105.261 96.2115 105.967C96.3526 106.672 97.0425 107.127 97.7481 106.986Z" fill="white"/>
<path d="M98.3284 110.639L101.778 110.028C102.248 110.012 102.672 109.73 102.86 109.291C103.048 108.852 102.954 108.35 102.64 107.989C102.311 107.644 101.825 107.503 101.37 107.66L97.905 108.271C97.1994 108.35 96.682 108.977 96.729 109.683C96.9172 110.388 97.6228 110.812 98.3284 110.639Z" fill="white"/>
<path d="M99.1594 114.167L102.578 113.32C103.064 113.273 103.471 112.96 103.628 112.505C103.785 112.05 103.66 111.548 103.315 111.219C102.97 110.89 102.452 110.796 102.013 111L98.5949 111.846C97.8893 111.972 97.4189 112.63 97.5286 113.336C97.7325 114.01 98.4694 114.387 99.1594 114.167Z" fill="white"/>
<path d="M103.582 116.582C104.052 116.504 104.428 116.159 104.554 115.704C104.679 115.249 104.522 114.747 104.146 114.45C103.77 114.152 103.268 114.089 102.829 114.308L99.4892 115.406C98.8149 115.579 98.3759 116.253 98.5327 116.943C98.6581 117.272 98.909 117.523 99.2226 117.664C99.5519 117.789 99.9125 117.789 100.242 117.664L103.582 116.582Z" fill="white"/>
<path d="M104.852 119.749C105.322 119.639 105.683 119.263 105.777 118.793C105.871 118.322 105.683 117.836 105.275 117.57C104.868 117.303 104.366 117.272 103.958 117.523L100.697 118.84C100.022 119.059 99.6461 119.78 99.85 120.47C100.164 121.098 100.932 121.364 101.575 121.066L104.852 119.749Z" fill="white"/>
<path d="M106.294 122.807C106.765 122.681 107.11 122.289 107.188 121.803C107.251 121.317 107.031 120.847 106.608 120.596C106.185 120.345 105.667 120.361 105.275 120.659L102.108 122.195C101.778 122.321 101.512 122.572 101.371 122.885C101.23 123.199 101.214 123.575 101.355 123.905C101.716 124.516 102.5 124.72 103.127 124.344L106.294 122.807Z" fill="white"/>
<path d="M107.956 125.77C108.395 125.598 108.709 125.175 108.725 124.704C108.74 124.234 108.489 123.779 108.066 123.56C107.643 123.34 107.125 123.387 106.749 123.685L103.691 125.425C103.049 125.739 102.782 126.507 103.08 127.15C103.488 127.746 104.303 127.887 104.883 127.495L104.914 127.527L107.956 125.77Z" fill="white"/>
<path d="M110.528 127.447C110.513 126.961 110.23 126.538 109.791 126.35C109.352 126.162 108.835 126.256 108.49 126.585L105.573 128.561C104.946 128.906 104.727 129.69 105.056 130.317C105.276 130.599 105.589 130.772 105.934 130.819C106.279 130.866 106.624 130.772 106.906 130.552L109.823 128.576C110.262 128.373 110.528 127.933 110.528 127.447Z" fill="white"/>
<path d="M112.534 130.145C112.487 129.675 112.174 129.251 111.719 129.095C111.264 128.938 110.763 129.063 110.433 129.408L107.658 131.588C107.062 131.98 106.905 132.779 107.282 133.375C107.768 133.908 108.583 133.94 109.132 133.469L111.907 131.306C112.331 131.07 112.566 130.616 112.534 130.145Z" fill="white"/>
<path d="M114.714 132.623C114.651 132.137 114.291 131.745 113.805 131.619C113.334 131.494 112.817 131.682 112.535 132.074L109.916 134.426C109.352 134.865 109.242 135.681 109.665 136.245C110.198 136.731 111.014 136.715 111.515 136.198L114.134 133.846C114.557 133.595 114.793 133.109 114.714 132.623Z" fill="white"/>
<path d="M117.02 134.99C116.91 134.52 116.534 134.159 116.063 134.065C115.593 133.971 115.107 134.175 114.84 134.567L112.394 137.091C111.861 137.562 111.814 138.377 112.269 138.926C112.833 139.381 113.649 139.302 114.119 138.753L116.565 136.229C116.941 135.947 117.129 135.445 117.02 134.99Z" fill="white"/>
<path d="M119.496 137.17C119.355 136.715 118.963 136.37 118.477 136.323C118.007 136.26 117.536 136.496 117.285 136.903L115.043 139.6C114.541 140.102 114.541 140.933 115.043 141.435C115.623 141.843 116.439 141.717 116.862 141.137H116.878L119.136 138.44C119.496 138.126 119.637 137.625 119.496 137.17Z" fill="white"/>
<path d="M122.131 139.192C121.959 138.753 121.535 138.439 121.065 138.423C120.595 138.392 120.14 138.643 119.92 139.066L117.866 141.904C117.412 142.453 117.474 143.268 118.007 143.739C118.619 144.115 119.419 143.927 119.811 143.315L121.865 140.477C122.194 140.132 122.304 139.631 122.131 139.192Z" fill="white"/>
<path d="M124.875 141.012C124.671 140.588 124.248 140.322 123.778 140.322C123.307 140.322 122.884 140.604 122.68 141.027L120.814 144.022C120.391 144.602 120.516 145.402 121.081 145.841C121.724 146.17 122.508 145.92 122.837 145.292H122.868L124.734 142.297C125.032 141.937 125.079 141.435 124.875 141.012Z" fill="white"/>
<path d="M127.807 142.626C127.571 142.203 127.117 141.968 126.646 142.015C126.176 142.062 125.768 142.375 125.611 142.814L123.965 145.935C123.589 146.546 123.761 147.33 124.357 147.722C125.016 148.005 125.784 147.707 126.066 147.064V147.048L127.728 143.943C128.01 143.567 128.042 143.05 127.807 142.626Z" fill="white"/>
<path d="M130.802 144.038C130.551 143.646 130.065 143.427 129.595 143.505C129.124 143.583 128.732 143.928 128.607 144.383L127.18 147.597C126.851 148.225 127.07 149.009 127.697 149.354C128.372 149.589 129.108 149.244 129.359 148.57H129.375L130.802 145.355C131.053 144.948 131.053 144.43 130.802 144.038Z" fill="white"/>
<path d="M133.907 145.213C133.624 144.836 133.138 144.648 132.668 144.758C132.197 144.868 131.837 145.244 131.743 145.715L130.535 149.007C130.253 149.666 130.535 150.419 131.178 150.732C131.868 150.92 132.574 150.513 132.793 149.838L134.001 146.53C134.236 146.107 134.189 145.589 133.907 145.213Z" fill="white"/>
<path d="M135.789 145.826C135.334 145.967 134.989 146.359 134.942 146.845L133.985 150.232C133.735 150.906 134.08 151.643 134.738 151.91C135.444 152.051 136.134 151.58 136.275 150.89L137.247 147.503C137.451 147.064 137.372 146.563 137.059 146.186C136.745 145.826 136.243 145.685 135.789 145.826Z" fill="white"/>
<path d="M139.018 146.672C138.579 146.844 138.266 147.252 138.234 147.722L137.497 151.156C137.294 151.846 137.686 152.552 138.376 152.771C139.081 152.865 139.74 152.363 139.834 151.658V151.689L140.571 148.24C140.743 147.8 140.633 147.283 140.304 146.954C139.975 146.609 139.457 146.499 139.018 146.672Z" fill="white"/>
<path d="M143.581 147.487C143.221 147.173 142.703 147.095 142.28 147.299C141.857 147.502 141.574 147.941 141.574 148.412L141.088 151.893C140.947 152.583 141.386 153.273 142.06 153.429C142.782 153.492 143.393 152.943 143.44 152.238L143.958 148.757C144.099 148.302 143.958 147.8 143.581 147.487Z" fill="white"/>
<path d="M146.843 147.784C146.466 147.502 145.949 147.455 145.526 147.69C145.102 147.926 144.867 148.38 144.898 148.851L144.663 152.363C144.569 153.069 145.039 153.727 145.745 153.837C146.482 153.837 147.062 153.257 147.062 152.536L147.297 149.023C147.407 148.553 147.235 148.067 146.843 147.784Z" fill="white"/>
<path d="M150.183 147.879C149.775 147.613 149.257 147.613 148.865 147.879C148.458 148.146 148.254 148.616 148.332 149.087V152.599C148.285 153.305 148.803 153.932 149.524 153.995C150.214 153.932 150.747 153.305 150.716 152.599V149.087C150.794 148.616 150.575 148.13 150.183 147.879Z" fill="white"/>
<path d="M142.405 58.1113C142.483 59.1619 143.722 58.8953 145.008 58.7699C147.548 58.5347 150.088 58.5033 152.628 58.6445C153.883 58.7542 156.705 59.695 156.752 58.08C156.768 57.1078 155.074 56.8883 154.149 56.7942C152.754 56.6688 150.041 56.6845 149.022 56.7158C146.874 56.7629 142.264 56.3709 142.405 58.1113Z" fill="white"/>
<path d="M160.704 57.892C159.512 57.7195 159.026 58.3467 159.167 59.1151C159.512 60.8869 162.413 59.2719 160.704 57.892Z" fill="white"/>
<path d="M139.254 58.5494C139.003 57.4832 136.886 57.5146 137.247 59.3962C138.078 60.431 139.52 59.7254 139.254 58.5494Z" fill="white"/>
<path d="M174.973 64.4766C173.028 63.2066 171.006 62.0462 168.92 61.0114C168.011 60.541 166.302 59.2709 165.33 59.7099C164.875 59.8824 164.593 60.3528 164.671 60.8075C164.828 61.811 166.662 61.9992 167.635 62.4696C170.19 63.7397 172.636 65.2293 174.926 66.9541C175.161 67.1422 175.663 67.9576 176.415 67.8635C176.886 67.7381 177.231 67.3461 177.309 66.8757C177.403 66.0133 176.117 65.2606 174.973 64.4766Z" fill="white"/>
<path d="M124.06 64.1641C123.276 64.6973 121.645 65.7165 121.77 66.6259C122.006 68.0841 123.464 67.1747 124.154 66.6573C126.459 64.9168 128.952 63.4429 131.586 62.2825C132.793 61.7494 135.679 60.8243 133.875 59.319C133.797 59.319 132.95 59.3347 133.013 59.3033C130.3 60.6518 126.835 62.2512 124.06 64.1641Z" fill="white"/>
<path d="M117.866 68.2248C117.192 68.8991 117.459 70.0594 118.211 70.2319C119.842 70.5612 119.92 67.5663 117.866 68.2248Z" fill="white"/>
<path d="M180.272 69.1969C179.974 69.0244 179.598 69.0088 179.284 69.1656C179.033 69.244 178.814 69.4164 178.688 69.6516C178.563 69.8868 178.547 70.1534 178.641 70.4043C178.892 71.4862 180.774 71.3608 180.774 70.0593C180.758 69.6987 180.57 69.3851 180.272 69.1969Z" fill="white"/>
<path d="M186.199 75.2654C185.651 74.4814 184.522 72.7409 184.114 72.6155C183.769 72.5371 183.424 72.5684 183.11 72.7252C182.06 73.2897 182.875 74.3716 183.44 75.0929C185.212 77.2881 186.685 79.7028 187.83 82.2743C188.348 83.419 188.598 85.034 189.539 85.1751C191.201 85.426 190.762 83.8423 190.323 82.8231C189.21 80.1732 187.814 77.6487 186.199 75.2654Z" fill="white"/>
<path d="M115.89 72.3647C115.561 72.2706 115.216 72.3334 114.949 72.5372C113.115 74.4188 111.029 77.9311 109.555 80.8319C108.975 81.9452 107.36 84.8147 109.242 84.9244C110.512 85.0028 110.653 83.1369 111.171 82.0863C112.425 79.4835 113.977 77.0374 115.796 74.7638C116.094 74.3718 116.706 73.6975 116.564 73.039C116.455 72.7254 116.219 72.4745 115.89 72.3647Z" fill="white"/>
<path d="M189.712 88.8131C189.915 90.0048 192.142 89.8793 191.844 88.3427C191.719 87.6998 191.076 87.3862 190.354 87.6998C189.884 87.8409 189.602 88.327 189.712 88.8131Z" fill="white"/>
<path d="M108.16 87.6833C107.925 87.5108 107.627 87.4481 107.344 87.5108C105.808 87.84 106.654 89.7687 107.674 89.6276C108.222 89.4708 108.583 88.969 108.567 88.4045C108.536 88.1223 108.395 87.8557 108.16 87.6833Z" fill="white"/>
<path d="M193.836 105.089C194.04 102.596 194.071 100.087 193.961 97.5936C193.899 96.6058 193.789 94.1597 193.272 93.7207C192.582 93.1248 191.86 93.7991 191.515 94.3165C191.986 97.7034 192.096 101.137 191.845 104.556C191.735 105.684 191.014 107.817 192.55 107.817C193.381 107.801 193.711 106.468 193.836 105.089Z" fill="white"/>
<path d="M105.902 92.9994C105.259 93.5012 105.165 95.9786 105.087 97.233C105.024 98.1581 104.977 99.7575 105.024 101.231C105.087 103.223 104.977 107.55 106.812 107.002C107.909 106.657 107.172 104.509 107.11 103.63C106.953 100.792 107 97.9543 107.235 95.1319C107.298 94.5517 107.784 93.5796 107.266 93.0151L107.282 92.9994C107.015 92.7642 106.137 92.5917 105.902 92.9994Z" fill="white"/>
<path d="M192.237 111.94C192.503 111.376 192.409 110.482 192.017 110.184C190.872 109.996 190.261 110.404 190.371 111.548C190.778 112.16 191.609 112.332 192.237 111.94Z" fill="white"/>
<path d="M106.592 111.987C107.831 112.144 108.317 109.666 106.623 109.996C105.212 110.278 105.855 111.893 106.592 111.987Z" fill="white"/>
<path d="M183.628 128.248C184.82 128.656 185.635 126.806 186.153 126.038C187.548 124.125 188.787 122.102 189.869 119.985C190.449 118.825 192.55 114.968 189.681 115.893C188.928 116.473 188.709 117.821 188.144 118.966C187.141 120.942 185.98 122.855 184.679 124.658C184.256 125.254 182.782 126.775 183.017 127.621C183.174 127.872 183.378 128.092 183.628 128.248Z" fill="white"/>
<path d="M112.268 125.331C112.551 125.77 113.507 128.138 114.824 127.746C116.141 127.354 115.122 126.037 114.73 125.488C113.068 123.199 111.641 120.753 110.481 118.181C109.885 116.817 108.913 113.963 107.408 115.625C107.439 117.083 108.098 118.212 108.615 119.279C109.666 121.395 110.889 123.418 112.268 125.331Z" fill="white"/>
<path d="M181.449 131.995C182.625 131.87 182.578 129.471 180.978 129.989C179.661 130.428 180.257 132.105 181.449 131.995Z" fill="white"/>
<path d="M116.533 131.493C117.458 132.998 119.544 130.976 118.07 130.019C116.878 129.831 116.423 130.38 116.533 131.493Z" fill="white"/>
<path d="M167.948 140.29C170.19 139.239 172.338 138.016 174.376 136.621C175.145 136.103 177.12 135.1 177.042 134.159C177.011 133.845 176.117 132.857 175.552 133.265C173.436 134.77 170.143 137.169 166.991 138.502C165.596 139.082 163.73 139.521 164.451 140.964L164.435 140.98C165.611 141.889 166.928 140.807 167.948 140.29Z" fill="white"/>
<path d="M123.574 137.06C125.659 138.471 127.854 139.726 130.128 140.792C131.084 141.246 133.201 142.438 133.609 141.215C134.017 139.992 132.135 139.522 131.147 139.067C129.83 138.471 128.811 138.048 127.917 137.53C125.44 136.166 123.903 134.598 122.115 133.704L122.162 133.673C121.865 133.61 121.582 133.689 121.347 133.877C121.112 134.065 121.002 134.347 121.018 134.645C120.955 135.617 122.743 136.495 123.574 137.06Z" fill="white"/>
<path d="M159.952 142.03C160.203 143.661 163.119 142.579 161.708 140.933C160.595 140.415 159.826 141.293 159.952 142.03Z" fill="white"/>
<path d="M136.212 142.156C136.369 143.959 139.583 142.626 137.858 141.058C136.729 140.902 136.165 141.45 136.212 142.156Z" fill="white"/>
<path d="M156.565 142.846C156.675 141.685 155.891 141.858 155.201 141.826V141.811H154.965C152.896 141.779 149.368 142.25 146.592 142.062C145.197 141.968 141.951 140.917 142.327 142.877C142.594 144.116 145.009 143.834 146.686 143.943C148.85 144.1 151.014 144.147 153.178 144.053C154.495 143.959 156.455 143.865 156.565 142.846Z" fill="white"/>
<path d="M132.59 69.15C132.323 69.0246 132.025 68.9932 131.743 69.103C131.461 69.2128 131.225 69.4009 131.1 69.6675C130.833 70.2163 131.069 70.8748 131.617 71.1414C132.166 71.408 132.825 71.1728 133.091 70.624C133.358 70.0752 133.138 69.4166 132.59 69.15Z" fill="white"/>
<path d="M118.822 82.5407C118.524 82.6348 118.305 82.8386 118.179 83.1052C117.913 83.654 118.148 84.3125 118.697 84.5791C119.246 84.8456 119.904 84.6104 120.171 84.0616C120.437 83.5128 120.218 82.8543 119.669 82.5877C119.402 82.4623 119.104 82.4309 118.822 82.5407Z" fill="white"/>
<path d="M114.213 100.478C113.915 100.557 113.695 100.761 113.57 101.027C113.303 101.576 113.538 102.234 114.087 102.501C114.636 102.768 115.295 102.532 115.561 101.999C115.828 101.45 115.608 100.792 115.059 100.525C114.793 100.4 114.495 100.369 114.213 100.478Z" fill="white"/>
<path d="M120.861 116.958C120.595 116.833 120.297 116.801 120.014 116.911C119.732 117.005 119.497 117.209 119.372 117.476C119.105 118.024 119.34 118.683 119.889 118.95C120.438 119.216 121.096 118.981 121.363 118.432C121.63 117.883 121.41 117.225 120.861 116.958Z" fill="white"/>
<path d="M133.938 130.882C134.205 130.349 133.985 129.675 133.436 129.409C133.17 129.283 132.872 129.252 132.59 129.362C132.307 129.471 132.072 129.644 131.947 129.91C131.68 130.459 131.915 131.118 132.464 131.384C133.013 131.651 133.671 131.416 133.938 130.882Z" fill="white"/>
<path d="M150.527 134.504C150.26 134.379 149.963 134.347 149.68 134.441C149.398 134.535 149.163 134.739 149.037 135.006C148.771 135.555 149.006 136.213 149.555 136.48C150.104 136.746 150.762 136.511 151.029 135.978C151.295 135.429 151.076 134.771 150.527 134.504Z" fill="white"/>
<path d="M168.716 131.524C169.265 131.791 169.923 131.571 170.19 131.022C170.456 130.474 170.237 129.815 169.688 129.548C169.421 129.423 169.108 129.392 168.841 129.486C168.559 129.58 168.324 129.784 168.198 130.05C167.932 130.599 168.167 131.258 168.716 131.524Z" fill="white"/>
<path d="M181.637 115.657C181.37 115.532 181.073 115.5 180.79 115.594C180.508 115.688 180.273 115.892 180.147 116.159C179.881 116.708 180.116 117.366 180.665 117.633C181.214 117.899 181.872 117.664 182.139 117.131C182.405 116.582 182.186 115.924 181.637 115.657Z" fill="white"/>
<path d="M184.129 98.283C183.862 98.3771 183.612 98.581 183.486 98.8475C183.22 99.3963 183.455 100.055 184.004 100.321C184.552 100.588 185.211 100.368 185.478 99.8197C185.744 99.2709 185.525 98.6123 184.976 98.3458C184.709 98.2203 184.396 98.189 184.129 98.283Z" fill="white"/>
<path d="M180.226 81.3641C179.959 81.2387 179.661 81.2073 179.379 81.3171C179.081 81.4112 178.862 81.615 178.736 81.8816C178.47 82.4304 178.705 83.0889 179.254 83.3555C179.802 83.622 180.461 83.3868 180.728 82.838C180.994 82.2893 180.775 81.6307 180.226 81.3641Z" fill="white"/>
<path d="M168.246 68.8197C167.713 68.5375 167.055 68.757 166.772 69.3058C166.569 69.6978 166.631 70.1839 166.914 70.5289C167.212 70.8738 167.666 70.9993 168.105 70.8581C168.529 70.717 168.827 70.3407 168.858 69.886C168.889 69.4469 168.654 69.0236 168.246 68.8197Z" fill="white"/>
<path d="M149.053 66.2643C149.602 66.5308 150.261 66.2956 150.527 65.7468C150.794 65.198 150.574 64.5395 150.025 64.2729C149.759 64.1475 149.461 64.1161 149.179 64.2259C148.881 64.3199 148.661 64.5238 148.536 64.7903C148.269 65.3391 148.504 65.9977 149.053 66.2643Z" fill="white"/>
<path d="M130.316 87.9818H130.347C131.398 87.4016 132.432 86.8842 133.499 86.4451C134.549 86.0218 135.663 85.6141 136.807 85.2378H136.854C136.98 85.1907 137.074 85.0966 137.136 84.9555C137.199 84.8144 137.199 84.6733 137.136 84.5478L137.089 84.5949C137.027 84.4538 136.901 84.344 136.744 84.297L134.69 83.6698L133.42 83.2778C133.028 83.168 132.621 83.1994 132.26 83.3719L132.197 83.4032H132.135C131.774 83.56 131.476 83.8266 131.288 84.1558L130.676 85.3318L129.657 87.2448C129.532 87.4486 129.547 87.6995 129.704 87.872C129.861 88.0445 130.112 88.0915 130.316 87.9818Z" fill="white"/>
<path d="M161.88 84.7201C161.864 84.9553 162.005 85.1591 162.225 85.2375H162.272C163.401 85.5982 164.498 85.9902 165.549 86.4292C166.599 86.8839 167.65 87.4014 168.7 87.9659H168.732C168.857 88.0286 169.014 88.0286 169.139 87.9815C169.265 87.9345 169.375 87.8247 169.422 87.6993C169.484 87.5582 169.469 87.3857 169.39 87.2446L168.387 85.3316L167.728 84.1242C167.524 83.7636 167.227 83.497 166.85 83.3559H166.788L166.725 83.3246C166.364 83.1678 165.956 83.1207 165.564 83.2305L164.294 83.6225L162.24 84.2497H162.287C162.068 84.2967 161.895 84.4849 161.88 84.7201Z" fill="white"/>
<path d="M155.483 119.169C154.761 119.028 154.024 118.965 153.288 118.965C152.409 119.357 152.112 120.314 151.625 121.098C151.108 120.612 150.324 118.981 149.446 119.012C149.007 119.028 148.584 119.624 148.301 119.953C147.925 120.392 147.596 120.706 147.313 121.098C146.843 120.298 146.498 118.981 145.369 118.887C144.742 118.95 144.115 119.028 143.503 119.154C143.77 120.032 144.601 120.267 145.118 120.816C146.232 121.96 147.204 123.215 148.035 124.563C148.317 125.002 148.834 126.492 149.446 126.492C150.057 126.507 150.591 125.143 150.904 124.626C151.735 123.277 152.723 122.023 153.821 120.878C154.369 120.33 155.216 120.047 155.483 119.169ZM149.556 122.979C148.834 122.415 148.928 120.439 149.446 119.749C150.23 120.204 150.073 122.368 149.556 122.979Z" fill="white"/>
<path d="M165.612 119.435C166.004 119.545 166.412 119.514 166.772 119.341L166.835 119.31H166.898C167.274 119.153 167.572 118.887 167.776 118.542L168.403 117.35L169.375 115.453C169.454 115.312 169.454 115.139 169.375 114.998C169.328 114.873 169.218 114.763 169.093 114.716C168.952 114.669 168.811 114.669 168.685 114.731H168.654C167.603 115.312 166.521 115.829 165.502 116.268C164.452 116.707 163.37 117.115 162.225 117.475H162.178C162.053 117.522 161.958 117.617 161.896 117.758C161.833 117.899 161.833 118.04 161.896 118.165L161.943 118.118C162.006 118.259 162.131 118.369 162.288 118.416L164.342 119.043L165.612 119.435Z" fill="white"/>
<path d="M142.671 121.85L142.06 120.674C141.872 120.329 141.558 120.047 141.182 119.906H141.119L141.056 119.874C140.696 119.718 140.288 119.671 139.896 119.78L138.61 120.172L136.556 120.8L136.587 120.768C136.368 120.815 136.195 121.003 136.18 121.239C136.164 121.474 136.305 121.678 136.525 121.756H136.572C137.701 122.117 138.798 122.509 139.849 122.948C140.899 123.418 141.95 123.92 143.001 124.484H143.032C143.236 124.594 143.487 124.547 143.643 124.375C143.785 124.202 143.816 123.951 143.691 123.763L142.671 121.85Z" fill="white"/>
<path d="M136.776 118.479C137.011 118.432 137.168 118.275 137.184 118.04C137.2 117.805 137.058 117.601 136.839 117.522H136.792C135.663 117.146 134.565 116.785 133.515 116.315C132.464 115.845 131.414 115.343 130.363 114.778H130.316C130.112 114.669 129.861 114.716 129.704 114.888C129.563 115.061 129.532 115.311 129.657 115.5L130.661 117.413L131.288 118.604C131.492 118.965 131.79 119.231 132.166 119.373H132.229L132.292 119.404C132.652 119.561 133.06 119.592 133.452 119.498L134.722 119.106L136.776 118.479Z" fill="white"/>
<path d="M162.445 120.831L160.391 120.204L159.105 119.812C158.713 119.702 158.305 119.734 157.944 119.906L157.882 119.937H157.819C157.443 120.094 157.145 120.361 156.941 120.706L156.329 121.882L155.326 123.795C155.248 123.936 155.232 124.108 155.295 124.249C155.342 124.375 155.451 124.485 155.577 124.532C155.718 124.579 155.859 124.579 155.984 124.516H156.016C157.066 123.936 158.101 123.403 159.168 122.979C160.234 122.556 161.316 122.148 162.46 121.788H162.507C162.633 121.741 162.727 121.646 162.79 121.505C162.852 121.364 162.852 121.223 162.79 121.098C162.727 120.957 162.601 120.847 162.445 120.831Z" fill="white"/>
<path d="M147.972 89.0006L144.585 90.5843L144.538 90.6157C144.381 90.6941 144.287 90.8509 144.287 91.0233C144.287 91.1488 144.334 91.2742 144.428 91.3526C144.522 91.4781 144.648 91.5251 144.758 91.5251H154.244C154.464 91.5251 154.652 91.3683 154.699 91.1488C154.746 90.9293 154.636 90.7097 154.432 90.6157L151.045 89.0163C150.559 88.7497 150.042 88.5616 149.509 88.4205C148.976 88.5459 148.458 88.7497 147.972 89.0006Z" fill="white"/>
<path d="M154.275 110.184L154.26 110.168H144.773C144.554 110.168 144.366 110.325 144.319 110.545C144.272 110.764 144.381 110.984 144.585 111.078L147.972 112.677C148.458 112.944 148.976 113.132 149.509 113.257C150.042 113.132 150.559 112.944 151.045 112.677L154.432 111.078H154.479C154.667 110.984 154.777 110.764 154.73 110.545C154.683 110.325 154.495 110.184 154.275 110.184Z" fill="white"/>
<path d="M156.486 61.2474C156.267 61.2003 156.032 61.2317 155.843 61.3571C155.655 61.4826 155.514 61.6707 155.467 61.8903C155.42 62.0784 155.451 62.2979 155.546 62.4861L157.521 65.6691C157.725 65.9827 158.039 66.2179 158.415 66.2963C158.776 66.3747 159.168 66.312 159.497 66.1239L162.617 64.1795C162.899 63.9914 163.056 63.6621 162.994 63.3328C162.931 63.0035 162.696 62.7213 162.382 62.6429H162.335C162.241 62.6272 162.147 62.6272 162.037 62.6429C160.187 62.8781 158.305 62.4234 156.753 61.3728C156.674 61.3258 156.58 61.2787 156.486 61.2474Z" fill="white"/>
<path d="M153.476 71.533C153.178 71.7055 153.005 72.0504 153.068 72.3954C153.115 72.7403 153.382 73.0226 153.711 73.101H153.758C153.852 73.1167 153.946 73.1167 154.056 73.101C154.965 72.9755 155.906 73.0226 156.8 73.2264C157.694 73.4459 158.556 73.8066 159.324 74.324C159.403 74.3711 159.497 74.4181 159.591 74.4495C159.92 74.5279 160.265 74.4024 160.453 74.1359C160.657 73.8693 160.689 73.5087 160.516 73.2107L160.547 73.2264L158.572 70.0434C158.368 69.7298 158.054 69.4946 157.678 69.4162C157.317 69.3378 156.925 69.4005 156.596 69.5887L153.476 71.533Z" fill="white"/>
<path d="M151.484 69.4165C151.437 69.636 151.469 69.8712 151.594 70.0594C151.72 70.2475 151.908 70.3887 152.127 70.4357C152.331 70.4827 152.535 70.4514 152.723 70.3573H152.676L155.859 68.3816C156.518 67.9583 156.722 67.0802 156.314 66.4216L154.37 63.3013C154.181 63.0191 153.852 62.8623 153.523 62.925C153.194 62.9877 152.911 63.2229 152.833 63.5365V63.5835C152.817 63.6776 152.817 63.7874 152.833 63.8815C153.084 65.7317 152.645 67.5976 151.61 69.1499C151.563 69.2283 151.516 69.3224 151.484 69.4165Z" fill="white"/>
<path d="M160.234 67.3313C159.92 67.5351 159.685 67.8487 159.606 68.2251C159.528 68.6014 159.591 68.9777 159.779 69.307L161.739 72.4273C161.849 72.6312 162.052 72.7723 162.272 72.835C162.727 72.9447 163.181 72.6625 163.291 72.1921V72.1451C163.307 72.051 163.307 71.9412 163.291 71.8471C163.04 69.9969 163.479 68.131 164.514 66.5787C164.561 66.5003 164.608 66.4062 164.64 66.3121C164.718 65.9828 164.593 65.6379 164.326 65.4497C164.059 65.2459 163.699 65.2145 163.401 65.387L163.417 65.3556L160.234 67.3313Z" fill="white"/>
<path d="M158.367 68.9147C158.963 68.7422 159.277 68.1307 159.104 67.5349C158.932 66.9547 158.32 66.6254 157.724 66.7979C157.442 66.8763 157.207 67.0801 157.066 67.331C156.925 67.5819 156.909 67.8955 156.987 68.1778C157.16 68.7579 157.771 69.0872 158.367 68.9147Z" fill="white"/>
<path d="M145.902 129.784C146.106 129.659 146.247 129.47 146.31 129.235C146.357 129.016 146.325 128.78 146.2 128.592C146.074 128.404 145.886 128.263 145.667 128.216H145.62C145.526 128.2 145.416 128.2 145.322 128.216C144.412 128.341 143.471 128.294 142.578 128.075C141.668 127.855 140.822 127.479 140.053 126.962C139.975 126.914 139.881 126.867 139.787 126.836C139.567 126.789 139.332 126.82 139.144 126.946C138.956 127.071 138.815 127.259 138.767 127.479C138.72 127.683 138.752 127.902 138.83 128.075L140.806 131.274C141.01 131.587 141.323 131.822 141.7 131.901C142.06 131.979 142.452 131.916 142.782 131.728L145.902 129.784Z" fill="white"/>
<path d="M142.625 139.882C142.704 139.929 142.798 139.976 142.892 140.008C143.111 140.055 143.346 140.024 143.535 139.898C143.723 139.773 143.864 139.584 143.911 139.365C143.958 139.161 143.927 138.957 143.833 138.769L143.848 138.816L141.873 135.633C141.669 135.32 141.355 135.084 140.979 135.006C140.618 134.928 140.226 134.99 139.897 135.178L136.777 137.123C136.494 137.311 136.337 137.64 136.4 137.969C136.463 138.299 136.698 138.581 137.012 138.659H137.059C137.153 138.675 137.263 138.675 137.357 138.659C139.207 138.408 141.073 138.848 142.625 139.882Z" fill="white"/>
<path d="M139.159 133.987C139.473 133.783 139.708 133.47 139.786 133.093C139.865 132.717 139.802 132.341 139.614 132.011L137.67 128.891C137.497 128.593 137.152 128.421 136.807 128.483C136.462 128.53 136.18 128.797 136.102 129.126V129.173C136.086 129.267 136.086 129.361 136.102 129.471C136.337 131.321 135.898 133.203 134.879 134.755C134.832 134.834 134.784 134.928 134.753 135.022C134.643 135.477 134.926 135.931 135.396 136.041C135.6 136.088 135.804 136.057 135.992 135.947L135.976 135.963L139.159 133.987Z" fill="white"/>
<path d="M147.909 131.901C147.987 131.572 147.877 131.227 147.611 131.023C147.344 130.819 146.984 130.788 146.686 130.961L146.701 130.945L143.518 132.921C143.189 133.124 142.97 133.438 142.875 133.814C142.781 134.191 142.86 134.567 143.064 134.896L145.008 138.017C145.18 138.299 145.525 138.456 145.855 138.409C146.184 138.362 146.466 138.111 146.545 137.781V137.734C146.56 137.64 146.56 137.531 146.545 137.436C146.309 135.586 146.748 133.72 147.783 132.168C147.83 132.09 147.877 131.995 147.909 131.901Z" fill="white"/>
<path d="M141.01 132.387C140.43 132.575 140.1 133.187 140.288 133.767C140.414 134.19 140.79 134.504 141.229 134.551C141.668 134.598 142.092 134.363 142.311 133.971C142.515 133.579 142.468 133.093 142.186 132.748C141.903 132.403 141.433 132.262 141.01 132.387Z" fill="white"/>
<path d="M175.756 70.4351C175.709 70.341 175.662 70.2626 175.6 70.1999C175.364 69.9647 175.004 69.902 174.69 70.0274C174.377 70.1529 174.173 70.4508 174.173 70.7957L174.251 74.5433C174.267 74.9196 174.424 75.2802 174.69 75.5468C174.957 75.8133 175.333 75.9545 175.709 75.9388L179.378 75.8604C179.614 75.8604 179.833 75.7663 180.006 75.5938C180.162 75.437 180.241 75.2175 180.241 74.9823C180.241 74.7628 180.147 74.5433 179.974 74.3865L179.943 74.3551C179.865 74.2767 179.77 74.214 179.661 74.1826C177.952 73.4457 176.556 72.1129 175.756 70.4351Z" fill="white"/>
<path d="M171.398 82.9176C171.445 83.0117 171.492 83.0901 171.555 83.1528C171.712 83.3096 171.931 83.388 172.166 83.388C172.386 83.388 172.605 83.294 172.762 83.1215C172.903 82.9647 172.982 82.7765 172.997 82.5727L173.013 82.5884L172.935 78.8408C172.919 78.4645 172.762 78.1039 172.496 77.8373C172.229 77.5708 171.853 77.4297 171.476 77.4453L167.807 77.5237C167.572 77.5237 167.353 77.6178 167.18 77.7903C167.023 77.9471 166.945 78.1666 166.945 78.4018C166.945 78.6213 167.039 78.8408 167.211 78.9976L167.243 79.029C167.321 79.0917 167.4 79.1388 167.494 79.1858C169.203 79.9228 170.598 81.2399 171.398 82.9176Z" fill="white"/>
<path d="M167.117 74.6535C166.961 74.8103 166.867 75.0298 166.867 75.2494C166.867 75.4689 166.961 75.6884 167.117 75.8452C167.274 76.002 167.478 76.0961 167.698 76.1118L171.445 76.0334C171.821 76.0177 172.182 75.8609 172.449 75.5943C172.715 75.3278 172.856 74.9514 172.841 74.5751L172.762 70.906C172.762 70.561 172.558 70.2474 172.229 70.1063C171.9 69.9809 171.539 70.0593 171.288 70.3102L171.257 70.3415C171.194 70.4199 171.147 70.4983 171.1 70.5924C170.363 72.3015 169.03 73.697 167.353 74.4967C167.259 74.5438 167.18 74.5908 167.117 74.6535Z" fill="white"/>
<path d="M174.941 83.2463C175.255 83.3717 175.631 83.2933 175.866 83.0581L175.897 83.0268C175.96 82.9484 176.023 82.87 176.054 82.7759C176.791 81.0668 178.124 79.6712 179.802 78.8559C179.896 78.8088 179.974 78.7618 180.037 78.6991C180.194 78.5423 180.288 78.3228 180.288 78.1033C180.288 77.8837 180.194 77.6642 180.037 77.5074C179.912 77.3663 179.708 77.2722 179.488 77.2565L175.725 77.3349C175.349 77.3506 174.988 77.5074 174.721 77.774C174.455 78.0405 174.314 78.4168 174.329 78.7932L174.408 82.4623C174.408 82.8072 174.612 83.1208 174.941 83.2463Z" fill="white"/>
<path d="M174.157 77.6326C174.534 77.3974 174.738 76.9583 174.675 76.5193C174.612 76.0802 174.283 75.7196 173.844 75.6098C173.264 75.4687 172.684 75.8294 172.527 76.4252C172.417 76.8642 172.589 77.319 172.934 77.5698C173.279 77.8207 173.781 77.8521 174.157 77.6326Z" fill="white"/>
<path d="M132.151 122.274C132.072 122.211 131.994 122.164 131.9 122.117C130.191 121.38 128.795 120.047 127.996 118.37C127.948 118.276 127.901 118.197 127.839 118.134C127.604 117.899 127.243 117.837 126.929 117.962C126.6 118.103 126.396 118.385 126.38 118.715L126.459 122.462C126.459 122.838 126.616 123.199 126.898 123.466C127.164 123.732 127.541 123.873 127.917 123.858L131.586 123.779C131.931 123.779 132.245 123.575 132.386 123.246C132.511 122.917 132.433 122.556 132.182 122.305L132.151 122.274Z" fill="white"/>
<path d="M119.434 126.946C119.512 127.009 119.591 127.056 119.685 127.103C121.394 127.84 122.79 129.173 123.589 130.851C123.636 130.945 123.683 131.023 123.746 131.086C123.981 131.321 124.342 131.384 124.656 131.258C124.985 131.133 125.189 130.835 125.204 130.506L125.126 126.758C125.11 126.382 124.953 126.021 124.687 125.755C124.42 125.488 124.044 125.347 123.668 125.363L119.999 125.441C119.654 125.441 119.34 125.645 119.199 125.974C119.073 126.303 119.152 126.664 119.403 126.915L119.434 126.946Z" fill="white"/>
<path d="M119.905 124.03L123.653 123.951C124.437 123.936 125.064 123.277 125.048 122.493L124.97 118.824C124.97 118.589 124.876 118.369 124.703 118.197C124.546 118.04 124.327 117.961 124.092 117.961C123.872 117.961 123.653 118.056 123.496 118.228L123.464 118.259C123.402 118.338 123.355 118.416 123.308 118.51C122.571 120.219 121.238 121.615 119.56 122.415C119.466 122.462 119.388 122.509 119.325 122.571C119.168 122.728 119.09 122.948 119.09 123.183C119.09 123.402 119.184 123.622 119.356 123.779C119.497 123.936 119.701 124.014 119.905 124.03Z" fill="white"/>
<path d="M126.882 131.023C127.039 131.18 127.258 131.258 127.493 131.258C127.729 131.258 127.932 131.164 128.089 130.992L128.121 130.96C128.183 130.882 128.23 130.804 128.277 130.71C129.014 129 130.332 127.605 132.009 126.805C132.103 126.758 132.182 126.711 132.244 126.648C132.48 126.413 132.558 126.053 132.417 125.739C132.292 125.425 131.994 125.222 131.664 125.222L131.696 125.19L127.932 125.269C127.556 125.284 127.196 125.441 126.929 125.708C126.662 125.974 126.521 126.351 126.537 126.727L126.615 130.396C126.615 130.631 126.709 130.851 126.882 131.023Z" fill="white"/>
<path d="M126.052 123.528C125.77 123.465 125.472 123.512 125.221 123.653C124.97 123.826 124.782 124.061 124.719 124.343C124.578 124.939 124.939 125.535 125.534 125.676C126.13 125.817 126.726 125.457 126.867 124.861C127.008 124.265 126.648 123.669 126.052 123.528Z" fill="white"/>
<path d="M186.905 86.0531C186.842 85.8335 186.686 85.6454 186.482 85.5356C186.278 85.4259 186.043 85.4102 185.823 85.4886C185.619 85.567 185.463 85.6924 185.369 85.8806L183.659 89.2204C183.299 89.926 183.581 90.7727 184.271 91.1334L187.548 92.7955C187.752 92.9052 188.003 92.9366 188.222 92.8582C188.442 92.7954 188.614 92.6387 188.708 92.4348C188.802 92.231 188.834 91.9958 188.755 91.7919V91.7449C188.724 91.6508 188.677 91.5724 188.614 91.494C188.034 90.7727 187.595 89.9574 187.313 89.0636C187.031 88.1855 186.889 87.2604 186.937 86.3353C186.937 86.2412 186.937 86.1471 186.905 86.0531Z" fill="white"/>
<path d="M175.537 90.1141C176.117 90.8353 176.556 91.6507 176.838 92.5288C177.12 93.4069 177.246 94.332 177.214 95.2571C177.214 95.3512 177.214 95.4609 177.246 95.555C177.309 95.7745 177.465 95.947 177.669 96.0568C177.873 96.1665 178.108 96.1822 178.312 96.1038C178.5 96.0411 178.673 95.9 178.782 95.7118L180.492 92.372C180.664 92.0427 180.695 91.6507 180.57 91.2901C180.445 90.9294 180.194 90.6315 179.864 90.459L176.603 88.7969C176.289 88.6245 175.913 88.6715 175.646 88.891C175.38 89.1106 175.27 89.4869 175.396 89.8161V89.8632C175.427 89.9573 175.49 90.0357 175.537 90.1141Z" fill="white"/>
<path d="M177.638 85.8962C177.544 85.8962 177.434 85.8962 177.34 85.9276C177.121 85.9903 176.948 86.1471 176.839 86.3509C176.729 86.5548 176.713 86.79 176.792 87.0095C176.854 87.2133 176.995 87.3701 177.168 87.4799L177.152 87.5112L180.492 89.2047C180.821 89.3772 181.213 89.4085 181.574 89.2831C181.935 89.1733 182.233 88.9068 182.405 88.5775L184.067 85.3004C184.177 85.0965 184.208 84.8456 184.13 84.6261C184.067 84.4066 183.91 84.2341 183.706 84.1244C183.503 84.0146 183.267 83.9989 183.064 84.0773H183.017C182.922 84.1087 182.844 84.1714 182.766 84.2184C181.323 85.3788 179.489 85.9746 177.638 85.8962Z" fill="white"/>
<path d="M180.147 97.2799C180.382 97.5465 180.759 97.6562 181.088 97.5308H181.135C181.229 97.4994 181.307 97.4367 181.386 97.3897C182.828 96.2293 184.663 95.6335 186.513 95.7119C186.607 95.7119 186.701 95.7119 186.795 95.6805C187.015 95.6178 187.203 95.461 187.313 95.2572C187.423 95.0533 187.438 94.8181 187.36 94.5986C187.297 94.3948 187.156 94.238 186.984 94.1282L186.999 94.0968L183.644 92.4034C183.299 92.2309 182.907 92.1996 182.546 92.3093C182.186 92.4191 181.888 92.6856 181.715 93.0306L180.053 96.3077C179.881 96.6213 179.912 96.9977 180.147 97.2799Z" fill="white"/>
<path d="M182.139 91.9325C182.593 91.9168 182.985 91.6189 183.126 91.1798C183.268 90.7565 183.142 90.2861 182.813 89.9882C182.342 89.5962 181.668 89.6432 181.26 90.0666C180.947 90.3958 180.884 90.8819 181.072 91.2896C181.26 91.6973 181.684 91.9482 182.139 91.9325Z" fill="white"/>
<path d="M119.512 110.828L122.774 112.49C123.087 112.662 123.464 112.615 123.73 112.396C123.997 112.16 124.107 111.8 123.981 111.47V111.423C123.95 111.329 123.903 111.251 123.84 111.173C122.68 109.73 122.084 107.895 122.162 106.045C122.162 105.951 122.162 105.841 122.131 105.747C122.037 105.434 121.755 105.198 121.41 105.167C121.065 105.136 120.767 105.308 120.61 105.575L118.901 108.915C118.728 109.244 118.697 109.636 118.807 109.997C118.917 110.357 119.183 110.655 119.512 110.828Z" fill="white"/>
<path d="M112.473 115.249C112.535 115.469 112.692 115.657 112.896 115.767C113.1 115.876 113.351 115.892 113.57 115.814C113.758 115.735 113.931 115.594 114.025 115.422L115.734 112.082C116.095 111.376 115.812 110.529 115.107 110.169L111.83 108.507C111.516 108.334 111.14 108.381 110.873 108.601C110.607 108.82 110.497 109.197 110.622 109.526V109.573C110.654 109.667 110.716 109.745 110.764 109.824C111.924 111.266 112.52 113.101 112.441 114.951C112.441 115.045 112.457 115.155 112.473 115.249Z" fill="white"/>
<path d="M119.387 104.336C119.324 104.116 119.167 103.944 118.964 103.834C118.76 103.724 118.525 103.709 118.305 103.787H118.258C118.164 103.819 118.086 103.881 118.007 103.928C116.565 105.089 114.73 105.684 112.88 105.606C112.786 105.606 112.676 105.606 112.582 105.637C112.127 105.779 111.892 106.265 112.033 106.719C112.096 106.923 112.237 107.08 112.425 107.174L112.394 107.205L115.734 108.915C116.079 109.087 116.471 109.118 116.831 109.009C117.192 108.883 117.49 108.632 117.662 108.287L119.324 105.01C119.434 104.806 119.465 104.555 119.387 104.336Z" fill="white"/>
<path d="M121.771 115.406C121.865 115.406 121.959 115.406 122.053 115.374C122.382 115.28 122.602 114.998 122.649 114.669C122.696 114.339 122.523 114.01 122.225 113.838L122.241 113.791L118.886 112.097C118.556 111.925 118.164 111.893 117.804 112.019C117.443 112.128 117.145 112.395 116.973 112.724L115.311 116.001C115.138 116.315 115.169 116.691 115.405 116.974C115.64 117.24 116.016 117.35 116.345 117.224H116.392C116.487 117.193 116.565 117.146 116.643 117.083C118.086 115.923 119.92 115.327 121.771 115.406Z" fill="white"/>
<path d="M116.486 109.761C116.188 110.09 116.11 110.576 116.298 110.984C116.486 111.391 116.91 111.642 117.349 111.611C117.803 111.58 118.18 111.297 118.337 110.874C118.478 110.451 118.352 109.98 118.023 109.682C117.568 109.29 116.894 109.322 116.486 109.761Z" fill="white"/>
<path d="M189.273 106.296C189.352 105.966 189.211 105.621 188.944 105.433C188.662 105.245 188.301 105.229 188.019 105.402L184.883 107.456C184.224 107.895 184.052 108.773 184.475 109.432L186.529 112.505C186.717 112.787 187.062 112.928 187.392 112.866C187.721 112.803 187.988 112.552 188.066 112.223V112.176C188.082 112.082 188.082 111.972 188.066 111.878C187.768 110.043 188.16 108.146 189.148 106.562C189.195 106.484 189.242 106.39 189.273 106.296Z" fill="white"/>
<path d="M181.182 107.753C181.26 107.377 181.182 107.001 180.978 106.687L178.908 103.614C178.72 103.332 178.391 103.175 178.046 103.237C177.716 103.3 177.45 103.551 177.371 103.896V103.943C177.356 104.037 177.356 104.147 177.371 104.241C177.669 106.091 177.277 107.973 176.29 109.557C176.243 109.635 176.195 109.729 176.164 109.823C176.117 110.043 176.148 110.278 176.274 110.482C176.399 110.67 176.603 110.811 176.823 110.858C177.027 110.905 177.246 110.858 177.419 110.748L177.434 110.717L180.57 108.663C180.884 108.459 181.103 108.13 181.182 107.753Z" fill="white"/>
<path d="M187.171 104.273C187.375 104.147 187.516 103.943 187.563 103.724C187.61 103.504 187.579 103.269 187.453 103.065C187.328 102.877 187.124 102.736 186.904 102.689H186.857C186.763 102.673 186.669 102.673 186.559 102.689C184.725 102.987 182.828 102.595 181.26 101.607C181.181 101.56 181.087 101.513 180.993 101.482C180.773 101.434 180.538 101.466 180.334 101.591C180.146 101.717 180.005 101.921 179.958 102.14C179.911 102.36 179.942 102.579 180.068 102.767L182.122 105.888C182.326 106.201 182.655 106.421 183.031 106.499C183.408 106.578 183.784 106.499 184.098 106.295L187.171 104.273Z" fill="white"/>
<path d="M184.491 114.606C184.82 114.685 185.165 114.544 185.353 114.277C185.526 114.01 185.541 113.634 185.369 113.352L183.315 110.216C182.876 109.557 181.998 109.385 181.339 109.824L178.281 111.878C177.999 112.066 177.842 112.395 177.905 112.74C177.968 113.07 178.219 113.336 178.564 113.415H178.611C178.705 113.43 178.815 113.43 178.909 113.415C180.743 113.117 182.64 113.509 184.224 114.497C184.303 114.544 184.397 114.591 184.491 114.606Z" fill="white"/>
<path d="M182.374 107.016C181.794 107.205 181.48 107.832 181.684 108.412C181.872 108.992 182.499 109.306 183.079 109.102C183.66 108.898 183.973 108.286 183.769 107.706C183.565 107.126 182.938 106.828 182.374 107.016Z" fill="white"/>
<path d="M118.43 94.6141L120.484 97.6874C120.673 97.9696 121.017 98.1107 121.347 98.048C121.676 97.9853 121.943 97.7344 122.021 97.4051V97.3581C122.037 97.264 122.037 97.1699 122.021 97.0602C121.723 95.2256 122.115 93.3283 123.103 91.7446C123.15 91.6662 123.197 91.5722 123.228 91.4781C123.307 91.1488 123.166 90.8038 122.899 90.6157C122.617 90.4275 122.256 90.4118 121.958 90.5843L118.822 92.6384C118.164 93.0774 117.991 93.9555 118.43 94.6141Z" fill="white"/>
<path d="M110.104 94.9587C110.057 95.1782 110.089 95.4135 110.214 95.6173C110.34 95.8055 110.544 95.9466 110.763 95.9936C110.983 96.025 111.202 95.9936 111.375 95.8995L114.511 93.8455C115.169 93.4064 115.342 92.5283 114.903 91.8698L112.848 88.7965C112.66 88.5143 112.315 88.3731 111.986 88.4359C111.657 88.4986 111.39 88.7494 111.312 89.0787V89.1258C111.296 89.2199 111.296 89.3296 111.312 89.4237C111.594 91.2583 111.218 93.1242 110.23 94.6922C110.183 94.7706 110.136 94.8646 110.104 94.9587Z" fill="white"/>
<path d="M114.902 86.6953C114.683 86.6482 114.447 86.6796 114.244 86.805C114.04 86.9305 113.914 87.1343 113.867 87.3538C113.82 87.5577 113.867 87.7615 113.977 87.9497H114.008L116.062 91.0857C116.266 91.3993 116.596 91.6188 116.972 91.6972C117.348 91.7756 117.725 91.6972 118.038 91.4933L121.111 89.4393C121.394 89.2511 121.535 88.9061 121.472 88.5769C121.409 88.2476 121.158 87.981 120.829 87.9026H120.782C120.688 87.8869 120.578 87.8869 120.484 87.9026C118.65 88.2005 116.752 87.8085 115.169 86.8207C115.09 86.7737 114.996 86.7266 114.902 86.6953Z" fill="white"/>
<path d="M112.221 97.0441C111.939 97.2323 111.798 97.5773 111.861 97.9065C111.923 98.2358 112.174 98.5024 112.504 98.5808H112.551C112.645 98.5965 112.739 98.5965 112.849 98.5808C114.683 98.2829 116.58 98.6749 118.164 99.6627C118.242 99.7097 118.337 99.7568 118.431 99.7725C118.76 99.8509 119.105 99.7097 119.293 99.4432C119.481 99.1766 119.497 98.816 119.324 98.5337L117.27 95.3977C116.831 94.7392 115.953 94.5667 115.295 94.9901L112.221 97.0441Z" fill="white"/>
<path d="M117.019 94.2845C117.599 94.0964 117.913 93.4692 117.709 92.889C117.615 92.6068 117.411 92.3872 117.16 92.2461C116.894 92.1207 116.596 92.105 116.314 92.1991C115.733 92.3872 115.42 93.0144 115.624 93.5946C115.812 94.1748 116.439 94.4884 117.019 94.2845Z" fill="white"/>
<path d="M177.466 129.58C177.528 129.502 177.575 129.408 177.607 129.314C177.936 128.451 178.406 127.652 179.002 126.946C179.614 126.24 180.335 125.66 181.15 125.221C181.229 125.174 181.307 125.111 181.386 125.049C181.605 124.798 181.652 124.437 181.527 124.139C181.386 123.841 181.088 123.638 180.743 123.653V123.606L176.995 123.873C176.619 123.904 176.258 124.077 176.023 124.375C175.772 124.657 175.647 125.033 175.678 125.425L175.945 129.094C175.96 129.329 176.054 129.549 176.243 129.706C176.415 129.847 176.635 129.925 176.854 129.91C177.074 129.894 177.293 129.784 177.434 129.612L177.466 129.58Z" fill="white"/>
<path d="M168.904 123.026L172.651 122.76C173.028 122.729 173.388 122.556 173.639 122.274C173.89 121.992 174.016 121.615 173.969 121.223L173.702 117.554C173.686 117.209 173.467 116.896 173.137 116.786C172.808 116.676 172.448 116.77 172.212 117.037L172.181 117.068C172.118 117.146 172.071 117.241 172.04 117.335C171.397 119.091 170.143 120.549 168.496 121.427C168.418 121.474 168.339 121.537 168.261 121.6C167.947 121.96 167.994 122.493 168.355 122.791C168.512 122.948 168.716 123.026 168.904 123.026Z" fill="white"/>
<path d="M176.916 122.462L180.57 122.195C180.805 122.195 181.024 122.086 181.181 121.898C181.495 121.537 181.448 121.004 181.087 120.706L181.056 120.674C180.977 120.612 180.883 120.565 180.789 120.533C179.033 119.89 177.575 118.636 176.697 116.99C176.65 116.911 176.587 116.833 176.524 116.754C176.273 116.535 175.913 116.488 175.615 116.629C175.317 116.77 175.113 117.084 175.129 117.413L175.113 117.397L175.38 121.145C175.411 121.521 175.583 121.882 175.866 122.133C176.148 122.384 176.524 122.509 176.916 122.462Z" fill="white"/>
<path d="M172.95 129.627C172.997 129.706 173.06 129.784 173.123 129.862C173.374 130.082 173.734 130.145 174.032 130.004C174.346 129.862 174.534 129.564 174.55 129.235L174.283 125.488C174.252 125.111 174.079 124.751 173.797 124.5C173.515 124.249 173.139 124.124 172.747 124.155L169.077 124.421C168.732 124.437 168.419 124.657 168.309 124.986C168.199 125.315 168.293 125.676 168.56 125.911L168.591 125.942C168.67 126.005 168.764 126.052 168.858 126.084C170.614 126.726 172.072 127.996 172.95 129.627Z" fill="white"/>
<path d="M175.945 123.513C176.008 123.231 175.945 122.933 175.772 122.682C175.6 122.447 175.349 122.29 175.067 122.227C174.471 122.117 173.891 122.509 173.781 123.105C173.671 123.701 174.063 124.281 174.659 124.391C175.255 124.501 175.835 124.109 175.945 123.513Z" fill="white"/>
<path d="M131.1 79.7334C131.336 79.4825 131.398 79.1219 131.273 78.8083C131.148 78.4947 130.818 78.2751 130.473 78.2908L126.726 78.5574C126.349 78.5887 125.989 78.7612 125.738 79.0435C125.487 79.3257 125.362 79.702 125.393 80.094L125.66 83.7631C125.675 83.9983 125.769 84.2179 125.957 84.3747C126.318 84.6883 126.851 84.6412 127.149 84.2806L127.18 84.2492C127.243 84.1708 127.29 84.0924 127.322 83.9983C127.964 82.2422 129.235 80.7839 130.865 79.9059C130.944 79.8588 131.022 79.7961 131.1 79.7334Z" fill="white"/>
<path d="M118.227 76.0962C118.148 76.1433 118.054 76.206 117.992 76.2687C117.851 76.4412 117.772 76.6607 117.788 76.8802C117.804 77.0998 117.913 77.3193 118.086 77.4604C118.243 77.6172 118.446 77.6956 118.635 77.6956L122.382 77.429C122.758 77.3977 123.119 77.2252 123.37 76.943C123.621 76.6607 123.746 76.2844 123.699 75.8924L123.433 72.2233C123.417 71.9881 123.323 71.7686 123.135 71.6118C122.962 71.4706 122.743 71.3922 122.523 71.4079C122.304 71.4236 122.084 71.5334 121.943 71.7058L121.912 71.7372C121.849 71.8156 121.802 71.9097 121.771 72.0038C121.128 73.7599 119.858 75.2182 118.227 76.0962Z" fill="white"/>
<path d="M130.786 75.3285C130.708 75.2658 130.614 75.2344 130.52 75.203C128.764 74.5601 127.305 73.2901 126.427 71.6593C126.38 71.5809 126.318 71.5025 126.255 71.4241C126.082 71.283 125.863 71.2046 125.628 71.2203C125.408 71.236 125.189 71.3457 125.047 71.5182C124.906 71.675 124.844 71.8789 124.844 72.0827L125.11 75.8146C125.142 76.1909 125.314 76.5515 125.612 76.7867C125.894 77.0376 126.271 77.163 126.663 77.1317L130.316 76.8651C130.661 76.8494 130.959 76.6142 131.069 76.285C131.178 75.9557 131.084 75.595 130.818 75.3598L130.786 75.3285Z" fill="white"/>
<path d="M122.664 84.328C122.711 84.4064 122.773 84.4848 122.836 84.5632C123.087 84.7984 123.448 84.8611 123.761 84.72C124.09 84.5788 124.279 84.2652 124.279 83.9203L124.012 80.1728C123.981 79.7965 123.808 79.4358 123.51 79.2006C123.212 78.9654 122.852 78.8243 122.46 78.8557L118.791 79.1222C118.446 79.1379 118.132 79.3574 118.022 79.6867C117.913 80.016 118.007 80.3766 118.273 80.6118L118.305 80.6432C118.383 80.7059 118.477 80.7529 118.571 80.7843C120.327 81.4272 121.785 82.6972 122.664 84.328Z" fill="white"/>
<path d="M123.636 77.3821C123.385 77.7584 123.385 78.2445 123.636 78.6051C123.887 78.9815 124.326 79.1539 124.765 79.0755C125.204 78.9815 125.549 78.6365 125.628 78.2131C125.753 77.6016 125.361 77.0214 124.765 76.9117C124.326 76.8333 123.887 77.0058 123.636 77.3821Z" fill="white"/>
<path d="M158.634 139.726C158.728 139.695 158.806 139.648 158.885 139.585C160.343 138.425 162.178 137.829 164.028 137.907C164.122 137.907 164.216 137.907 164.31 137.876C164.639 137.782 164.859 137.5 164.906 137.17C164.953 136.825 164.781 136.496 164.483 136.324L161.143 134.614C160.814 134.442 160.422 134.411 160.061 134.536C159.7 134.646 159.402 134.912 159.23 135.242L157.568 138.519C157.395 138.832 157.442 139.209 157.662 139.475C157.881 139.742 158.258 139.852 158.587 139.726H158.634Z" fill="white"/>
<path d="M161.613 126.884C161.55 126.664 161.393 126.492 161.19 126.382C160.986 126.272 160.751 126.257 160.531 126.335H160.484C160.39 126.366 160.311 126.429 160.233 126.476C158.791 127.636 156.972 128.232 155.106 128.154C155.012 128.154 154.918 128.17 154.823 128.185C154.384 128.326 154.134 128.812 154.275 129.251C154.337 129.44 154.478 129.612 154.651 129.706L154.635 129.738L157.975 131.447C158.304 131.619 158.696 131.651 159.057 131.541C159.418 131.431 159.716 131.164 159.888 130.835L161.55 127.558C161.66 127.354 161.691 127.103 161.613 126.884Z" fill="white"/>
<path d="M161.786 133.359L165.063 135.021C165.377 135.193 165.753 135.146 166.02 134.927C166.286 134.707 166.396 134.331 166.271 134.002V133.955C166.239 133.861 166.177 133.782 166.13 133.704C165.549 132.983 165.11 132.167 164.828 131.289C164.546 130.411 164.405 129.486 164.452 128.561C164.452 128.467 164.452 128.357 164.42 128.263C164.358 128.043 164.201 127.871 163.997 127.761C163.793 127.651 163.558 127.636 163.354 127.714C163.15 127.777 162.994 127.918 162.884 128.09L162.852 128.106L161.159 131.446C160.987 131.791 160.955 132.183 161.081 132.528C161.206 132.888 161.457 133.186 161.786 133.359Z" fill="white"/>
<path d="M154.683 137.781C154.777 138.094 155.059 138.329 155.404 138.361C155.734 138.392 156.063 138.235 156.235 137.937L156.267 137.953L157.96 134.613C158.133 134.284 158.164 133.892 158.039 133.531C157.929 133.171 157.662 132.873 157.333 132.7L154.056 131.038C153.742 130.866 153.366 130.897 153.084 131.132C152.817 131.368 152.707 131.744 152.833 132.073V132.12C152.864 132.214 152.927 132.293 152.974 132.371C154.134 133.814 154.73 135.648 154.652 137.498C154.652 137.593 154.652 137.687 154.683 137.781Z" fill="white"/>
<path d="M159.073 132.01C158.665 132.198 158.414 132.622 158.446 133.061C158.477 133.515 158.759 133.892 159.183 134.049C159.606 134.19 160.076 134.064 160.374 133.735C160.766 133.296 160.735 132.606 160.296 132.198C159.967 131.9 159.481 131.822 159.073 132.01Z" fill="white"/>
<path d="M137.764 74.4345C137.827 74.654 137.983 74.8265 138.187 74.9206C138.391 75.0147 138.626 75.046 138.83 74.9676H138.877C138.971 74.9363 139.05 74.8892 139.128 74.8265C140.571 73.6662 142.405 73.0703 144.255 73.1487C144.35 73.1487 144.444 73.1487 144.538 73.1174C144.851 73.0076 145.086 72.7411 145.118 72.3961C145.149 72.0511 144.992 71.7375 144.694 71.5807L144.757 71.5651L141.417 69.8559C141.088 69.6835 140.696 69.6521 140.335 69.7775C139.975 69.8873 139.677 70.1539 139.504 70.4831L137.827 73.7603C137.717 73.9641 137.686 74.215 137.764 74.4345Z" fill="white"/>
<path d="M135.381 63.3794C135.287 63.3794 135.177 63.3951 135.083 63.4264C134.644 63.5675 134.393 64.0536 134.534 64.4927C134.613 64.6965 134.738 64.8533 134.911 64.9631L138.251 66.6722C138.58 66.8447 138.972 66.876 139.332 66.7506C139.693 66.6408 139.991 66.3743 140.163 66.045L141.826 62.7679C141.998 62.4543 141.951 62.0779 141.731 61.8114C141.496 61.5448 141.136 61.4351 140.806 61.5605H140.759C140.665 61.5919 140.587 61.6546 140.508 61.7016C139.066 62.8619 137.231 63.4578 135.381 63.3794Z" fill="white"/>
<path d="M144.679 63.521C144.617 63.3014 144.46 63.129 144.256 63.0192C144.052 62.9094 143.817 62.8938 143.597 62.9722C143.409 63.0349 143.237 63.176 143.143 63.3485H143.127L141.434 66.6883C141.261 67.0176 141.23 67.4096 141.355 67.7702C141.481 68.1309 141.731 68.4288 142.061 68.6013L145.338 70.2634C145.651 70.4358 146.028 70.3888 146.294 70.1693C146.561 69.9341 146.671 69.5734 146.545 69.2442V69.1971C146.498 69.103 146.451 69.0246 146.388 68.9462C145.228 67.5037 144.632 65.6691 144.711 63.8189C144.711 63.7248 144.711 63.615 144.679 63.521Z" fill="white"/>
<path d="M137.623 67.9426L134.346 66.2805C134.142 66.1708 133.891 66.1394 133.672 66.2178C133.233 66.3589 132.982 66.845 133.123 67.2997V67.3468C133.155 67.4408 133.217 67.5192 133.264 67.5976C134.425 69.0402 135.02 70.8748 134.942 72.725C134.942 72.8191 134.942 72.9132 134.973 73.0072C135.036 73.2268 135.193 73.3992 135.397 73.509C135.601 73.6188 135.836 73.6344 136.04 73.556C136.243 73.4933 136.4 73.3522 136.51 73.1797L136.541 73.1954L138.251 69.8556C138.423 69.5263 138.454 69.1343 138.329 68.7736C138.219 68.413 137.953 68.1151 137.623 67.9426Z" fill="white"/>
<path d="M140.649 68.9932C141.041 68.5384 141.01 67.8642 140.571 67.4565C140.241 67.1586 139.755 67.0802 139.348 67.2684C138.94 67.4565 138.689 67.8799 138.72 68.3189C138.752 68.7736 139.034 69.15 139.457 69.3068C139.881 69.4479 140.351 69.3224 140.649 68.9932Z" fill="white"/>
</svg>
