<svg width="160" height="100" viewBox="0 0 160 100" fill="none" xmlns="http://www.w3.org/2000/svg">
<path d="M79.4711 37.7968H76.3911C76.1033 37.7968 75.87 38.0301 75.87 38.3179V38.419C75.87 38.7068 76.1033 38.9401 76.3911 38.9401H79.4711V39.8501H74.7189C74.4311 39.8501 74.1978 40.0834 74.1978 40.3712V40.4723C74.1978 40.7601 74.4311 40.9934 74.7189 40.9934H79.4633V42.3312C76.2122 42.4168 73.1711 43.1945 70.8533 44.5557C68.2789 46.0568 66.8711 48.0868 66.8711 50.2645C66.8711 52.4501 68.2789 54.4723 70.8455 55.9734C73.3111 57.4201 76.5778 58.2134 80.0467 58.2134C83.5078 58.2134 86.7744 57.4201 89.2478 55.9734C91.8067 54.4723 93.2222 52.4423 93.2222 50.2645C93.2222 48.079 91.8144 46.0568 89.2478 44.5634C86.9144 43.1945 83.8733 42.409 80.6144 42.3312V41.0012H85.3589C85.6467 41.0012 85.88 40.7679 85.88 40.4801V40.379C85.88 40.0912 85.6467 39.8579 85.3589 39.8579H80.6144V38.9479H83.6944C83.9822 38.9479 84.2155 38.7145 84.2155 38.4268V38.3257C84.2155 38.0379 83.9822 37.8045 83.6944 37.8045H80.6144V36.9801C80.6144 36.6923 80.3811 36.459 80.0933 36.459H79.9922C79.7044 36.459 79.4711 36.6923 79.4711 36.9801V37.7968ZM92.0711 50.2645C92.0711 54.0057 86.6733 57.0545 80.0389 57.0545C73.4044 57.0545 68.0067 54.0057 68.0067 50.2645C68.0067 46.5234 73.4044 43.4745 80.0389 43.4745C86.6733 43.4745 92.0711 46.5234 92.0711 50.2645Z" fill="#F2F2F4"/>
<path d="M72.3623 46.8809C71.2501 46.8809 70.1846 47.1764 70.1846 49.6498V51.0731C70.1846 53.6164 71.1335 53.9509 72.3623 53.9509C73.5912 53.9509 74.5401 53.6164 74.5401 51.0731V49.6498C74.5401 47.1686 73.4668 46.8809 72.3623 46.8809ZM73.1635 51.0809C73.1635 52.7375 72.9068 52.9709 72.3701 52.9709C71.8335 52.9709 71.5768 52.7298 71.5768 51.0809V49.6575C71.5768 48.1953 71.8335 47.8764 72.3701 47.8764C72.9068 47.8764 73.1635 48.2031 73.1635 49.6575V51.0809Z" fill="#F2F2F4"/>
<path d="M80.6143 47.7128V53.1183C80.6143 53.5928 80.8476 53.795 81.3298 53.795H83.9742C84.472 53.795 84.6665 53.5461 84.6665 53.235C84.6665 52.9317 84.472 52.675 83.9742 52.675H81.9443V50.8472H83.7876C84.2854 50.8472 84.4798 50.5906 84.4798 50.2795C84.4798 49.9761 84.2854 49.7195 83.7876 49.7195H81.9443V48.1639H83.912C84.4098 48.1639 84.6042 47.9072 84.6042 47.5961C84.6042 47.2928 84.402 47.0361 83.912 47.0361H81.3298C80.8398 47.0361 80.6143 47.2461 80.6143 47.7128Z" fill="#F2F2F4"/>
<path d="M87.5909 53.9509C88.8198 53.9509 89.7686 53.6164 89.7686 51.0731V49.6498C89.7686 47.1686 88.6953 46.8809 87.5909 46.8809C86.4786 46.8809 85.4131 47.1764 85.4131 49.6498V51.0731C85.4131 53.6164 86.362 53.9509 87.5909 53.9509ZM86.7975 49.6575C86.7975 48.1953 87.0542 47.8764 87.5909 47.8764C88.1275 47.8764 88.3842 48.2031 88.3842 49.6575V51.0809C88.3842 52.7375 88.1275 52.9709 87.5909 52.9709C87.0542 52.9709 86.7975 52.7298 86.7975 51.0809V49.6575Z" fill="#F2F2F4"/>
<path d="M78.4049 53.414C78.5682 53.8574 78.8715 53.9585 79.1904 53.8496C79.5093 53.7485 79.696 53.4918 79.5249 53.0407L78.5915 50.474C78.6927 50.4118 78.8638 50.2951 78.9104 50.2796C78.996 50.2251 79.0815 50.1551 79.1671 50.0851C79.4782 49.8285 79.6182 49.4396 79.6182 48.794C79.6182 47.8373 79.2138 47.0596 78.016 47.0596H76.1882C75.706 47.0596 75.4727 47.2618 75.4727 47.7362V53.2662C75.496 53.6162 75.7838 53.8885 76.1338 53.8885C76.4838 53.8885 76.7715 53.6162 76.7949 53.2662V50.8473H77.3549H77.4638L78.4049 53.414ZM77.3238 49.914H76.8182V48.0007H77.3938C78.0238 48.0007 78.2415 48.2807 78.2415 48.9573C78.2415 49.6885 77.8604 49.9062 77.3238 49.914Z" fill="#F2F2F4"/>
<path d="M82.3177 74.0328C82.341 73.7994 82.2166 73.5661 82.0066 73.4572C81.7966 73.3483 81.5399 73.3639 81.3533 73.5039C81.1666 73.6439 81.0733 73.8928 81.1277 74.1183L81.2522 75.8605C81.2522 76.2183 81.5321 76.5061 81.8899 76.5139C82.2399 76.4594 82.481 76.1327 82.4421 75.775L82.3177 74.0328Z" fill="#F2F2F4"/>
<path d="M83.974 73.823C83.974 73.5897 83.8418 73.3719 83.624 73.2708C83.4062 73.1697 83.1574 73.2085 82.9785 73.3641C82.7996 73.5197 82.7296 73.7685 82.7918 73.9941L83.0485 75.7208C83.0718 76.0708 83.3751 76.343 83.7329 76.3274C84.0751 76.2419 84.2929 75.8997 84.2307 75.5497L83.974 73.823Z" fill="#F2F2F4"/>
<path d="M85.6385 73.4888C85.6229 73.2554 85.4674 73.0454 85.2496 72.9676C85.0318 72.8821 84.7752 72.9365 84.6118 73.1076C84.4485 73.2787 84.394 73.5276 84.4796 73.7454L84.8452 75.4488C84.8918 75.7988 85.2107 76.0476 85.5685 76.0088C85.9029 75.8999 86.0974 75.5421 86.004 75.1921L85.6385 73.4888Z" fill="#F2F2F4"/>
<path d="M87.2637 73.0372C87.2326 72.8039 87.0693 72.6016 86.8437 72.5316C86.6181 72.4616 86.3693 72.5316 86.2137 72.7105C86.0582 72.8894 86.0193 73.1461 86.1204 73.3639L86.6026 75.0439C86.6726 75.3939 87.0148 75.6194 87.3648 75.5494C87.6993 75.425 87.8704 75.0594 87.7459 74.7172L87.2637 73.0372Z" fill="#F2F2F4"/>
<path d="M88.851 72.4691C88.8043 72.2357 88.6254 72.0491 88.3921 71.9946C88.1587 71.9402 87.9176 72.0257 87.7776 72.2202C87.6376 72.4069 87.6143 72.6635 87.7309 72.8735L88.3298 74.5146C88.4232 74.8569 88.781 75.0591 89.1232 74.9657C89.4498 74.818 89.5898 74.4369 89.4498 74.1102L88.851 72.4691Z" fill="#F2F2F4"/>
<path d="M91.1146 73.403L90.4068 71.8086C90.3446 71.5752 90.158 71.4041 89.9168 71.3652C89.6835 71.3263 89.4424 71.4352 89.318 71.6374C89.1857 71.8397 89.1935 72.0963 89.318 72.2986L90.0257 73.893C90.1502 74.2274 90.508 74.3985 90.8502 74.2896C91.1613 74.1185 91.2702 73.7297 91.1068 73.4185L91.1146 73.403Z" fill="#F2F2F4"/>
<path d="M91.9002 71.0459C91.8224 70.8204 91.6202 70.6648 91.3868 70.6493C91.1535 70.6259 90.928 70.7504 90.8113 70.9526C90.6946 71.1626 90.7102 71.4115 90.8502 71.6059L91.6746 73.1459C91.8224 73.4726 92.1957 73.6204 92.5224 73.4804C92.8102 73.2859 92.9035 72.8893 92.7168 72.5859L91.9002 71.0459Z" fill="#F2F2F4"/>
<path d="M94.2645 71.6373L93.339 70.1518C93.2379 69.9418 93.0279 69.8018 92.7945 69.8018C92.5612 69.8018 92.3512 69.934 92.2501 70.144C92.149 70.354 92.1723 70.6029 92.3201 70.7818L93.2456 72.2596C93.409 72.5707 93.7979 72.6951 94.1167 72.5318C94.4045 72.3218 94.459 71.9173 94.2645 71.6373Z" fill="#F2F2F4"/>
<path d="M94.7149 69.1717C94.6061 68.9617 94.3805 68.8294 94.1472 68.845C93.9061 68.8605 93.7038 69.0083 93.6183 69.2339C93.5327 69.4594 93.5872 69.7083 93.7505 69.8794L94.7694 71.295C94.9561 71.5983 95.3527 71.6917 95.6561 71.505C95.9283 71.2717 95.9594 70.8672 95.7338 70.5872L94.7149 69.1717Z" fill="#F2F2F4"/>
<path d="M96.0219 68.1062C95.8974 67.904 95.6719 67.7874 95.4308 67.8185C95.1974 67.8496 94.9952 68.0129 94.9252 68.2385C94.8552 68.464 94.9252 68.7129 95.1041 68.8685L96.2241 70.2062C96.4341 70.494 96.8308 70.564 97.1185 70.3618C97.3752 70.1051 97.3752 69.7007 97.1341 69.444L96.0219 68.1062Z" fill="#F2F2F4"/>
<path d="M97.235 66.9551C97.095 66.7607 96.8617 66.6673 96.6284 66.714C96.395 66.7607 96.2161 66.9396 96.1617 67.1651C96.1072 67.3984 96.1928 67.6396 96.3795 67.7796L97.5928 69.024C97.8184 69.2962 98.2228 69.3351 98.495 69.1096C98.7361 68.8529 98.705 68.4407 98.4484 68.2073L97.235 66.9551Z" fill="#F2F2F4"/>
<path d="M99.678 66.8773L98.3791 65.7106C98.2313 65.524 97.9824 65.4462 97.7569 65.5084C97.5235 65.5706 97.3524 65.7651 97.3213 65.9984C97.2824 66.2317 97.3913 66.4651 97.5857 66.5973L98.8846 67.7639C99.1335 68.0206 99.538 68.0284 99.7946 67.7873C100.005 67.4995 99.9502 67.0951 99.678 66.8773Z" fill="#F2F2F4"/>
<path d="M100.805 65.47L99.4288 64.3967C99.2655 64.2256 99.0166 64.1633 98.791 64.2411C98.5655 64.3189 98.4099 64.5211 98.3866 64.7622C98.3633 64.9956 98.4877 65.2289 98.6977 65.3378L100.074 66.4111C100.339 66.6444 100.743 66.6289 100.984 66.3722C101.179 66.0689 101.093 65.6722 100.805 65.47Z" fill="#F2F2F4"/>
<path d="M101.832 63.9766L100.385 62.9966C100.214 62.8411 99.9577 62.7944 99.7399 62.8877C99.5221 62.9811 99.3821 63.1911 99.3743 63.4322C99.3666 63.6655 99.5066 63.8833 99.7166 63.9844L101.163 64.9566C101.443 65.1744 101.848 65.1277 102.073 64.8555C102.244 64.5522 102.143 64.1633 101.832 63.9766Z" fill="#F2F2F4"/>
<path d="M102.758 62.4211L101.249 61.55C101.062 61.4022 100.805 61.3711 100.595 61.48C100.385 61.5889 100.253 61.8067 100.269 62.0478C100.284 62.2889 100.432 62.4911 100.65 62.5767L102.159 63.4478C102.454 63.65 102.851 63.5722 103.053 63.2844C103.209 62.9578 103.077 62.5767 102.758 62.4211Z" fill="#F2F2F4"/>
<path d="M103.566 60.8101L101.995 60.0479C101.8 59.9157 101.544 59.9001 101.342 60.0246C101.139 60.149 101.023 60.3746 101.054 60.6157C101.085 60.849 101.248 61.0513 101.474 61.1213L103.045 61.8835C103.348 62.0624 103.745 61.9612 103.924 61.6579C104.056 61.3235 103.893 60.9501 103.566 60.8101Z" fill="#F2F2F4"/>
<path d="M104.267 59.1386L102.649 58.4853C102.447 58.3609 102.19 58.3686 101.996 58.5086C101.801 58.6486 101.708 58.882 101.747 59.1153C101.794 59.3486 101.973 59.5353 102.198 59.5897L103.816 60.2431C104.135 60.3986 104.524 60.2742 104.679 59.9553C104.788 59.6209 104.601 59.2553 104.267 59.1386Z" fill="#F2F2F4"/>
<path d="M104.842 57.4273L103.185 56.8829C102.975 56.7818 102.719 56.8051 102.54 56.9529C102.353 57.1007 102.275 57.3418 102.338 57.5751C102.4 57.8007 102.586 57.9796 102.82 58.0185L104.476 58.5551C104.803 58.6874 105.184 58.5318 105.324 58.2129C105.394 57.8707 105.184 57.5207 104.842 57.4273Z" fill="#F2F2F4"/>
<path d="M105.301 55.6847L103.606 55.2569C103.388 55.1635 103.131 55.2102 102.96 55.3658C102.789 55.5291 102.727 55.778 102.805 56.0035C102.882 56.2291 103.085 56.3847 103.326 56.408L105.021 56.828C105.356 56.9369 105.721 56.758 105.838 56.4235C105.885 56.0735 105.651 55.7469 105.301 55.6847Z" fill="#F2F2F4"/>
<path d="M105.635 53.9038L103.916 53.6005C103.691 53.5227 103.442 53.5849 103.278 53.756C103.115 53.9272 103.068 54.1838 103.162 54.4016C103.255 54.6194 103.465 54.7672 103.706 54.7672L105.425 55.0705C105.767 55.1561 106.117 54.9538 106.211 54.6116C106.25 54.2616 105.993 53.9505 105.635 53.9038Z" fill="#F2F2F4"/>
<path d="M105.853 52.1227L105.845 52.1072L104.111 51.9205C103.877 51.8583 103.636 51.9361 103.481 52.1227C103.333 52.3094 103.302 52.5661 103.411 52.7761C103.52 52.9861 103.745 53.1183 103.986 53.1027L105.721 53.2894C106.071 53.3594 106.413 53.1338 106.483 52.7838C106.491 52.4261 106.211 52.1305 105.853 52.1227Z" fill="#F2F2F4"/>
<path d="M105.931 50.303L104.189 50.2408C103.955 50.1941 103.714 50.2952 103.582 50.4897C103.442 50.6841 103.434 50.9408 103.559 51.143C103.683 51.3452 103.909 51.4619 104.15 51.4308L105.892 51.493C106.242 51.5319 106.561 51.283 106.607 50.9252C106.584 50.5752 106.289 50.2952 105.931 50.303Z" fill="#F2F2F4"/>
<path d="M105.884 48.4986L104.142 48.5609C103.909 48.5298 103.675 48.6464 103.551 48.8486C103.427 49.0509 103.442 49.3075 103.574 49.502C103.714 49.6964 103.948 49.7898 104.181 49.7509L105.923 49.6886C106.281 49.7042 106.576 49.4242 106.6 49.0742C106.561 48.7242 106.242 48.4675 105.884 48.4986Z" fill="#F2F2F4"/>
<path d="M105.713 46.7089L105.721 46.6934L103.986 46.88C103.753 46.8722 103.527 46.9967 103.418 47.2067C103.31 47.4167 103.341 47.6734 103.488 47.86C103.636 48.0467 103.877 48.1245 104.111 48.0623L105.845 47.8756C106.195 47.86 106.475 47.5723 106.475 47.2145C106.405 46.8645 106.063 46.6389 105.713 46.7089Z" fill="#F2F2F4"/>
<path d="M105.425 44.9127L103.706 45.216C103.465 45.216 103.255 45.3638 103.162 45.5816C103.068 45.7993 103.115 46.056 103.278 46.2271C103.442 46.3982 103.691 46.4604 103.916 46.3827L105.635 46.0793C105.985 46.0482 106.25 45.7371 106.218 45.3793C106.125 45.0449 105.775 44.8349 105.425 44.9127Z" fill="#F2F2F4"/>
<path d="M105.013 43.1551L103.317 43.5751C103.084 43.5984 102.874 43.754 102.804 43.9796C102.734 44.2051 102.788 44.454 102.967 44.6173C103.138 44.7807 103.395 44.8273 103.613 44.7262L105.308 44.3062C105.658 44.244 105.892 43.9173 105.837 43.5673C105.721 43.2329 105.355 43.054 105.013 43.1551Z" fill="#F2F2F4"/>
<path d="M104.476 41.428L102.82 41.9725C102.578 42.0036 102.384 42.1747 102.322 42.408C102.26 42.6414 102.337 42.8902 102.532 43.038C102.718 43.1858 102.983 43.2091 103.193 43.0925L104.85 42.5558C105.184 42.4702 105.402 42.1358 105.324 41.7936C105.184 41.4669 104.811 41.3113 104.476 41.4436V41.428Z" fill="#F2F2F4"/>
<path d="M102.198 40.4021C101.964 40.4566 101.786 40.6433 101.747 40.8766C101.7 41.1099 101.801 41.351 101.996 41.4833C102.19 41.6233 102.447 41.631 102.649 41.5066L104.267 40.8533C104.601 40.7444 104.788 40.3866 104.694 40.0521C104.523 39.7333 104.142 39.601 103.816 39.7488L102.198 40.4021Z" fill="#F2F2F4"/>
<path d="M101.474 38.8774C101.248 38.9474 101.085 39.1419 101.054 39.383C101.023 39.6241 101.139 39.8497 101.342 39.9741C101.544 40.0985 101.8 40.0908 101.995 39.9508L103.566 39.1885C103.893 39.0563 104.056 38.683 103.932 38.3485C103.745 38.0452 103.348 37.9441 103.045 38.1152L101.474 38.8774Z" fill="#F2F2F4"/>
<path d="M100.65 37.4076C100.432 37.4931 100.277 37.7031 100.269 37.9365C100.261 38.1698 100.386 38.3954 100.596 38.5042C100.806 38.6131 101.062 38.5898 101.249 38.442L102.758 37.5709C103.077 37.4154 103.217 37.0343 103.069 36.7154C102.859 36.4198 102.462 36.342 102.159 36.5365L100.65 37.4076Z" fill="#F2F2F4"/>
<path d="M99.3978 36.5601C99.4056 36.7935 99.5456 37.0035 99.7556 37.0968C99.9656 37.1901 100.214 37.1512 100.393 37.0035L101.84 36.0235C102.151 35.8523 102.26 35.4557 102.097 35.1446C101.871 34.8646 101.467 34.8179 101.187 35.0435L101.171 35.0279L99.7245 36.0079C99.5145 36.1168 99.39 36.3268 99.3978 36.5601Z" fill="#F2F2F4"/>
<path d="M98.394 35.238C98.4095 35.4713 98.5728 35.6813 98.7984 35.7591C99.024 35.8369 99.2728 35.7746 99.4362 35.6035L100.813 34.5302C101.108 34.328 101.186 33.9391 101 33.6358C100.758 33.3791 100.346 33.3558 100.082 33.5891L98.7051 34.6624C98.4951 34.7791 98.3784 35.0046 98.394 35.238Z" fill="#F2F2F4"/>
<path d="M97.3129 34.0002C97.3518 34.2336 97.5229 34.428 97.7485 34.4902C97.9818 34.5524 98.2229 34.4747 98.3707 34.288L99.6696 33.1213C99.9496 32.9036 100.004 32.4991 99.7862 32.2191C99.5296 31.9702 99.1251 31.9858 98.8762 32.2347L97.5773 33.4013C97.3751 33.5336 97.274 33.7669 97.3129 34.0002Z" fill="#F2F2F4"/>
<path d="M96.1541 32.8267C96.2085 33.0522 96.3952 33.2389 96.6285 33.2856C96.8619 33.3322 97.103 33.2311 97.2352 33.0367L98.4485 31.7845C98.713 31.5433 98.7363 31.1467 98.5107 30.8745C98.2307 30.6567 97.8263 30.6956 97.593 30.96L96.3796 32.2122C96.193 32.3522 96.0996 32.6011 96.1541 32.8267Z" fill="#F2F2F4"/>
<path d="M94.9173 31.7524C94.9873 31.9779 95.1817 32.149 95.4228 32.1801C95.6639 32.2112 95.8973 32.0946 96.0139 31.8846L97.1339 30.5468C97.3828 30.2979 97.3828 29.8857 97.1339 29.6368C96.8384 29.4346 96.4339 29.4968 96.2239 29.7846L95.1039 31.1224C94.9173 31.2779 94.8473 31.5268 94.9173 31.7524Z" fill="#F2F2F4"/>
<path d="M93.6267 30.7573C93.7123 30.9828 93.9223 31.1306 94.1556 31.1462C94.3967 31.1617 94.6145 31.0295 94.7234 30.8195L95.7423 29.4117C95.9679 29.1395 95.9367 28.735 95.6723 28.5017C95.369 28.315 94.9723 28.4084 94.7779 28.7039L93.759 30.1117C93.5879 30.2828 93.5412 30.5317 93.6267 30.7573Z" fill="#F2F2F4"/>
<path d="M92.2569 29.8473C92.358 30.0573 92.568 30.1895 92.8014 30.1895C93.0347 30.1895 93.2447 30.0495 93.3458 29.8395L94.2636 28.3539C94.4736 28.0662 94.4114 27.6695 94.1314 27.4517C93.8125 27.2884 93.4236 27.4128 93.2525 27.7317L92.3269 29.2095C92.1792 29.3884 92.1558 29.6373 92.2569 29.8473Z" fill="#F2F2F4"/>
<path d="M90.8025 29.0534C90.9192 29.2634 91.1447 29.38 91.3781 29.3567C91.6114 29.3334 91.8136 29.1778 91.8914 28.96L92.7081 27.42C92.8947 27.1167 92.8092 26.7278 92.5136 26.5334C92.1947 26.3934 91.8136 26.5411 91.6658 26.86L90.8414 28.4C90.7014 28.5867 90.6858 28.8434 90.8025 29.0534Z" fill="#F2F2F4"/>
<path d="M89.3101 28.3539C89.4423 28.5561 89.6757 28.6572 89.909 28.6184C90.1423 28.5795 90.3368 28.4084 90.399 28.1828L91.1068 26.5884C91.2701 26.2772 91.1612 25.8884 90.8501 25.7172C90.5234 25.6006 90.1579 25.7717 90.0257 26.1061L89.3101 27.7006C89.1779 27.9028 89.1779 28.1595 89.3101 28.3539Z" fill="#F2F2F4"/>
<path d="M87.7854 27.7627C87.9254 27.9494 88.1665 28.0427 88.3999 27.9883C88.6332 27.9338 88.8121 27.7472 88.8588 27.5138L89.4577 25.8727C89.5977 25.5461 89.4577 25.1727 89.1388 25.0172C88.7888 24.9316 88.4388 25.1261 88.3377 25.4683L87.7388 27.1094C87.6221 27.3194 87.6454 27.5761 87.7854 27.7627Z" fill="#F2F2F4"/>
<path d="M86.8525 27.4597C87.0781 27.3897 87.2492 27.1953 87.2725 26.9542L87.7547 25.2742C87.8714 24.9397 87.7081 24.5664 87.3736 24.442C87.0236 24.3797 86.6814 24.6053 86.6114 24.9475L86.1292 26.6275C86.0281 26.8453 86.0669 27.0942 86.2225 27.2809C86.3781 27.4597 86.6269 27.5297 86.8525 27.4597Z" fill="#F2F2F4"/>
<path d="M85.235 27.0312C85.4605 26.9457 85.6083 26.7435 85.6239 26.5101L85.9894 24.799C86.0905 24.4568 85.8961 24.1068 85.5539 23.9979C85.2194 23.9435 84.885 24.1846 84.8305 24.5423L84.465 26.2535C84.3794 26.4712 84.4338 26.7279 84.5972 26.8912C84.7605 27.0546 85.0172 27.1168 85.235 27.0312Z" fill="#F2F2F4"/>
<path d="M83.6324 26.7447C83.8502 26.6435 83.9824 26.4258 83.9746 26.1847L84.2313 24.458C84.3013 24.1158 84.0835 23.7735 83.7413 23.6958C83.3913 23.6724 83.0802 23.9369 83.0569 24.2869L82.8002 26.0135C82.7302 26.2391 82.8002 26.488 82.9791 26.6513C83.158 26.8069 83.4146 26.8458 83.6324 26.7447Z" fill="#F2F2F4"/>
<path d="M81.3533 26.4798C81.54 26.6198 81.7966 26.6353 82.0066 26.5264C82.2166 26.4175 82.3333 26.192 82.3178 25.9509L82.4422 24.2086C82.4889 23.8587 82.2555 23.532 81.9055 23.4775C81.5478 23.4853 81.26 23.7809 81.2522 24.1309L81.1278 25.8731C81.0811 26.1064 81.1667 26.3398 81.3533 26.4798Z" fill="#F2F2F4"/>
<path d="M79.7114 26.4562C79.9136 26.5806 80.1625 26.5806 80.3647 26.4562C80.5669 26.3317 80.668 26.0984 80.6369 25.8651V24.1151C80.6602 23.7651 80.3958 23.454 80.0458 23.4229C79.688 23.4462 79.4236 23.7573 79.4391 24.1151V25.8651C79.408 26.0984 79.5091 26.3317 79.7114 26.4562Z" fill="#F2F2F4"/>
<path d="M77.7594 25.9587C77.7361 26.192 77.8605 26.4254 78.0628 26.542C78.2728 26.6587 78.5294 26.6431 78.7161 26.4954C78.9027 26.3554 78.9961 26.1142 78.9416 25.8809L78.8172 24.1387C78.8172 23.7809 78.5372 23.4931 78.1794 23.4854C77.8372 23.5398 77.5961 23.8665 77.635 24.2165L77.7594 25.9587Z" fill="#F2F2F4"/>
<path d="M76.1032 26.176C76.1032 26.4093 76.2354 26.6271 76.4532 26.7282C76.671 26.8293 76.9199 26.7905 77.0988 26.6349C77.2776 26.4793 77.3476 26.2305 77.2776 26.0049L77.021 24.286C76.9976 23.936 76.6943 23.6638 76.3365 23.6793C76.0021 23.7571 75.7843 24.0993 75.8465 24.4416L76.1032 26.176Z" fill="#F2F2F4"/>
<path d="M74.4386 26.5103C74.4541 26.7436 74.6097 26.9536 74.8275 27.0314C75.0452 27.117 75.3019 27.0625 75.4652 26.8914C75.6286 26.7203 75.683 26.4714 75.5975 26.2536L75.2319 24.5425C75.1852 24.1925 74.8586 23.9436 74.5086 23.9825C74.1741 24.0836 73.9719 24.4492 74.073 24.7992L74.4386 26.5103Z" fill="#F2F2F4"/>
<path d="M72.8128 26.9537C72.8439 27.187 73.0073 27.3892 73.2328 27.4592C73.4584 27.5292 73.7073 27.4592 73.8628 27.2803C74.0184 27.1014 74.0573 26.8448 73.9562 26.627L73.4739 24.947C73.4039 24.597 73.0617 24.3714 72.7117 24.4414C72.385 24.5659 72.2139 24.9392 72.3306 25.2737L72.8128 26.9537Z" fill="#F2F2F4"/>
<path d="M71.2186 27.5145C71.2652 27.7479 71.4441 27.9345 71.6774 27.989C71.9108 28.0434 72.1519 27.9579 72.2919 27.7634C72.4319 27.5768 72.4552 27.3201 72.3386 27.1101L71.7397 25.469C71.6386 25.1268 71.2886 24.9245 70.9463 25.0179C70.6274 25.1657 70.4874 25.5468 70.6274 25.8734L71.2186 27.5145Z" fill="#F2F2F4"/>
<path d="M68.971 26.5883L69.6788 28.1828C69.741 28.4161 69.9277 28.5872 70.1688 28.6183C70.4021 28.6572 70.6355 28.5483 70.7677 28.3539C70.8999 28.1517 70.8999 27.895 70.7677 27.7005L70.0521 26.1061C69.9277 25.7717 69.5699 25.6005 69.2277 25.7094C68.9166 25.8805 68.8077 26.2694 68.971 26.5883Z" fill="#F2F2F4"/>
<path d="M68.1777 28.9609C68.2555 29.1864 68.4577 29.342 68.691 29.3575C68.9244 29.3731 69.1499 29.2564 69.2666 29.0542C69.3832 28.8442 69.3677 28.5953 69.2277 28.4009L68.411 26.8687C68.2632 26.542 67.8899 26.3942 67.5632 26.5342C67.2599 26.7209 67.1743 27.1175 67.361 27.4209L68.1777 28.9609Z" fill="#F2F2F4"/>
<path d="M66.7462 29.8395C66.8473 30.0495 67.0573 30.1817 67.2906 30.1817C67.524 30.1817 67.734 30.0495 67.8351 29.8473C67.9362 29.6373 67.9128 29.3962 67.7651 29.2095L66.8395 27.7317C66.6762 27.4206 66.2873 27.2962 65.9762 27.4517C65.6728 27.654 65.6106 28.0662 65.8206 28.354L66.7462 29.8395Z" fill="#F2F2F4"/>
<path d="M65.3617 30.8194C65.4706 31.0294 65.6961 31.1538 65.9294 31.1383C66.1628 31.1227 66.3728 30.9749 66.4583 30.7572C66.5439 30.5394 66.4894 30.2827 66.3261 30.1194L65.3072 28.7116C65.1206 28.4083 64.7239 28.3149 64.4205 28.4938C64.1561 28.7272 64.1172 29.1316 64.3428 29.4038L65.3617 30.8194Z" fill="#F2F2F4"/>
<path d="M62.9436 30.5474L64.0636 31.8852C64.188 32.0952 64.4136 32.2119 64.6547 32.1808C64.8958 32.1496 65.0902 31.9863 65.1602 31.753C65.2302 31.5196 65.1525 31.2708 64.9736 31.123L63.8536 29.7852C63.6513 29.4974 63.2469 29.4196 62.9591 29.6219C62.7102 29.8785 62.7102 30.283 62.9591 30.5319L62.9436 30.5474Z" fill="#F2F2F4"/>
<path d="M62.8417 33.0438C62.9817 33.2383 63.2151 33.3316 63.4484 33.2849C63.6817 33.2383 63.8606 33.0594 63.9151 32.8338C63.9695 32.6083 63.8839 32.3594 63.6973 32.2194L62.4839 30.9672C62.2584 30.6949 61.8539 30.656 61.5739 30.8738C61.3406 31.1383 61.3717 31.5505 61.6284 31.7916L62.8417 33.0438Z" fill="#F2F2F4"/>
<path d="M60.3995 33.1213L61.6984 34.288C61.8462 34.4747 62.0951 34.5524 62.3206 34.4902C62.554 34.428 62.7251 34.2335 62.7562 34.0002C62.7951 33.7669 62.6862 33.5335 62.4917 33.4013L61.1851 32.2346C60.9362 31.978 60.5317 31.9702 60.2751 32.2113C60.0651 32.4913 60.1195 32.8958 60.3995 33.1213Z" fill="#F2F2F4"/>
<path d="M59.2724 34.5289L60.6491 35.6022C60.8124 35.7733 61.0613 35.8355 61.2869 35.7578C61.5124 35.68 61.668 35.4778 61.6913 35.2366C61.7147 35.0033 61.5902 34.77 61.3802 34.6611L60.0113 33.5955C59.7469 33.3622 59.3424 33.3778 59.1013 33.6344C58.9069 33.93 58.9847 34.3266 59.2724 34.5289Z" fill="#F2F2F4"/>
<path d="M58.2451 36.0148L59.6917 36.9948C59.8629 37.1581 60.1195 37.2048 60.3373 37.1115C60.5551 37.0181 60.7029 36.8081 60.7029 36.567C60.7106 36.3259 60.5706 36.1081 60.3529 36.007L58.8984 35.027C58.6184 34.8092 58.2217 34.8559 57.9962 35.1281C57.8251 35.447 57.9417 35.8359 58.2451 36.0148Z" fill="#F2F2F4"/>
<path d="M57.3194 37.5709L58.8283 38.442C59.015 38.5898 59.2716 38.6209 59.4816 38.512C59.6916 38.4031 59.8239 38.1776 59.8083 37.9443C59.7928 37.7109 59.645 37.5009 59.4194 37.4154L57.9105 36.5442C57.615 36.3498 57.2183 36.4198 57.0161 36.7076C56.8683 37.0265 57.0083 37.4076 57.3194 37.5709Z" fill="#F2F2F4"/>
<path d="M56.5112 39.1803L58.0823 39.9425C58.2767 40.0748 58.5334 40.0825 58.7356 39.9659C58.9378 39.8414 59.0545 39.6159 59.0234 39.3748C58.9923 39.1414 58.8289 38.9392 58.6034 38.8692L57.0323 38.107C56.7289 37.9281 56.3323 38.0292 56.1534 38.3325C56.0212 38.6748 56.1845 39.0481 56.5112 39.1803Z" fill="#F2F2F4"/>
<path d="M55.8181 40.8533L57.4359 41.5066C57.6381 41.6233 57.8948 41.6155 58.0892 41.4833C58.2837 41.351 58.377 41.1099 58.3381 40.8766C58.2914 40.6433 58.1203 40.4566 57.8948 40.4021L56.2692 39.7488C55.9503 39.5933 55.5614 39.7255 55.4059 40.0444C55.2892 40.3866 55.4759 40.7521 55.8181 40.8533Z" fill="#F2F2F4"/>
<path d="M55.2349 42.5636L56.8915 43.1003C57.1015 43.2092 57.3582 43.1859 57.5449 43.0303C57.7315 42.8825 57.8093 42.6336 57.7471 42.4081C57.6849 42.1825 57.4904 42.0036 57.2571 41.9725L55.5926 41.4359C55.266 41.3036 54.8849 41.4592 54.7449 41.7781C54.6749 42.1281 54.8849 42.4703 55.2349 42.5636Z" fill="#F2F2F4"/>
<path d="M54.776 44.3138L56.4716 44.7338C56.6893 44.8272 56.946 44.7805 57.1171 44.6249C57.2882 44.4694 57.3504 44.2127 57.2727 43.9872C57.1949 43.7616 56.9927 43.6061 56.7516 43.5827L55.056 43.1627C54.7216 43.0538 54.356 43.2327 54.2393 43.5672C54.1927 43.9172 54.426 44.2516 54.776 44.3138Z" fill="#F2F2F4"/>
<path d="M54.4417 46.0871L56.1605 46.406C56.3783 46.4604 56.6117 46.3904 56.7594 46.2193C56.9072 46.0482 56.9461 45.8071 56.8683 45.5971C56.7905 45.3871 56.5883 45.2393 56.3628 45.2238L54.6439 44.9127C54.3017 44.8271 53.9517 45.0371 53.8661 45.3793C53.8272 45.7371 54.0917 46.056 54.4417 46.0871Z" fill="#F2F2F4"/>
<path d="M54.2325 47.8844L55.9669 48.0711C56.1925 48.1333 56.4414 48.0478 56.5892 47.8689C56.7369 47.69 56.7681 47.4333 56.6592 47.2156C56.5503 47.0056 56.3325 46.8733 56.0914 46.8889L54.3569 46.71C54.0069 46.64 53.6647 46.8656 53.5947 47.2156C53.5947 47.5656 53.8747 47.8611 54.2325 47.8844Z" fill="#F2F2F4"/>
<path d="M54.1464 49.6881L55.8886 49.7504C56.122 49.797 56.3631 49.6959 56.4953 49.5015C56.6353 49.307 56.6431 49.0504 56.5186 48.8481C56.3942 48.6459 56.1686 48.5292 55.9275 48.5604L54.1853 48.4981C53.8353 48.4593 53.5164 48.7081 53.4697 49.0659C53.4931 49.4159 53.7964 49.6959 54.1464 49.6881Z" fill="#F2F2F4"/>
<path d="M54.1931 51.4845L55.9353 51.4223C56.1687 51.4534 56.402 51.3368 56.5264 51.1345C56.6509 50.9323 56.6353 50.6756 56.5031 50.4812C56.3631 50.2868 56.1298 50.1934 55.8964 50.2323L54.1542 50.2945C53.8042 50.279 53.5009 50.5512 53.4775 50.909C53.5164 51.2668 53.8353 51.5234 54.1931 51.4845Z" fill="#F2F2F4"/>
<path d="M54.3638 53.2661L54.356 53.2972L56.0905 53.1106C56.3238 53.1183 56.5493 52.9939 56.6582 52.7839C56.7671 52.5739 56.736 52.3172 56.5882 52.1305C56.4405 51.9439 56.1993 51.8661 55.966 51.9283L54.2316 52.115C53.8816 52.1305 53.6016 52.4105 53.6016 52.7605C53.6716 53.1106 54.0138 53.3361 54.3638 53.2661Z" fill="#F2F2F4"/>
<path d="M54.6522 55.0787L56.3633 54.7754C56.5967 54.7676 56.8067 54.6276 56.9 54.4098C56.9933 54.1921 56.9467 53.9432 56.7911 53.7643C56.6278 53.5932 56.3867 53.5232 56.1611 53.6009L54.4422 53.9043C54.0922 53.9432 53.8356 54.2543 53.8589 54.6043C53.9522 54.9543 54.3022 55.1643 54.6522 55.0787Z" fill="#F2F2F4"/>
<path d="M55.0638 56.8284L56.7594 56.4084C57.0005 56.3851 57.2027 56.2295 57.2805 56.004C57.3583 55.7784 57.2961 55.5295 57.1249 55.3662C56.9538 55.2029 56.6972 55.1562 56.4794 55.2573L54.7838 55.6773C54.4338 55.7395 54.2005 56.0662 54.2549 56.4162C54.3561 56.7507 54.7216 56.9373 55.0638 56.8284Z" fill="#F2F2F4"/>
<path d="M57.2575 58.0267C57.4909 57.9878 57.6775 57.8167 57.7398 57.5912C57.802 57.3656 57.7242 57.1167 57.5375 56.9689C57.3509 56.8212 57.102 56.7901 56.8842 56.8989L55.2275 57.4434C54.8931 57.5289 54.6753 57.8634 54.7531 58.2056C54.8153 58.3689 54.9398 58.4934 55.0953 58.5634C55.2586 58.6256 55.4375 58.6256 55.6009 58.5634L57.2575 58.0267Z" fill="#F2F2F4"/>
<path d="M57.8875 59.5968C58.1208 59.5424 58.2997 59.3557 58.3464 59.1224C58.393 58.889 58.2997 58.6479 58.0975 58.5157C57.8953 58.3835 57.6464 58.3679 57.4441 58.4924L55.8264 59.1457C55.4919 59.2546 55.3053 59.6124 55.4064 59.9546C55.5619 60.2657 55.943 60.3979 56.2619 60.2501L57.8875 59.5968Z" fill="#F2F2F4"/>
<path d="M58.6033 61.1144C58.8366 61.0522 59.0077 60.8577 59.0466 60.6166C59.0777 60.3755 58.9688 60.1422 58.7588 60.0177C58.5488 59.8933 58.2922 59.901 58.0977 60.0488L56.5266 60.8111C56.3633 60.8733 56.231 60.9977 56.161 61.1533C56.091 61.3088 56.0833 61.4955 56.1533 61.6588C56.3322 61.9622 56.721 62.0633 57.0322 61.8766L58.6033 61.1144Z" fill="#F2F2F4"/>
<path d="M59.4275 62.5844C59.6452 62.4989 59.8008 62.2888 59.8086 62.0555C59.8164 61.8222 59.6919 61.5966 59.4819 61.4877C59.2719 61.3788 59.0152 61.4022 58.8286 61.55L57.3119 62.4133C56.993 62.5688 56.8608 62.95 57.0086 63.2689C57.2108 63.5644 57.6152 63.6344 57.903 63.44L57.9186 63.4555L59.4275 62.5844Z" fill="#F2F2F4"/>
<path d="M60.703 63.4162C60.6953 63.1751 60.5553 62.9651 60.3375 62.8718C60.1197 62.7785 59.863 62.8251 59.6919 62.9885L58.2453 63.9684C57.9342 64.1396 57.8253 64.5284 57.9886 64.8396C58.0975 64.9796 58.253 65.0651 58.4241 65.0884C58.5953 65.1118 58.7664 65.0651 58.9064 64.9562L60.353 63.9762C60.5708 63.8751 60.703 63.6573 60.703 63.4162Z" fill="#F2F2F4"/>
<path d="M61.6987 64.7544C61.6754 64.5211 61.5198 64.3111 61.2943 64.2333C61.0687 64.1555 60.8198 64.2177 60.6565 64.3889L59.2798 65.47C58.9843 65.6644 58.9065 66.0611 59.0932 66.3566C59.3343 66.6211 59.7387 66.6366 60.0109 66.4033L61.3876 65.33C61.5976 65.2133 61.7143 64.9877 61.6987 64.7544Z" fill="#F2F2F4"/>
<path d="M62.7795 65.9827C62.7484 65.7416 62.5695 65.5472 62.3284 65.4849C62.0951 65.4227 61.8384 65.5161 61.6984 65.7105L60.3995 66.8772C60.1195 67.095 60.0651 67.4994 60.2751 67.7794C60.5395 68.0205 60.944 68.0127 61.1929 67.7561L62.4917 66.5894C62.7017 66.465 62.8184 66.2238 62.7795 65.9827Z" fill="#F2F2F4"/>
<path d="M63.9228 67.1577C63.8684 66.9243 63.6817 66.7454 63.4484 66.6988C63.215 66.6521 62.9739 66.7532 62.8417 66.9477L61.6284 68.1999C61.3639 68.4332 61.3406 68.8377 61.5661 69.1099C61.8461 69.3354 62.2506 69.2965 62.4839 69.0243L63.6973 67.7721C63.8839 67.6321 63.9773 67.3832 63.9228 67.1577Z" fill="#F2F2F4"/>
<path d="M65.1514 68.2385C65.0814 68.0129 64.887 67.8418 64.6459 67.8185C64.4125 67.7874 64.1792 67.904 64.0547 68.1062L62.9425 69.444C62.6936 69.6929 62.6936 70.1051 62.9425 70.354C63.2303 70.5563 63.6347 70.494 63.8447 70.2063H63.8525L64.9725 68.8685C65.1514 68.7129 65.2214 68.464 65.1514 68.2385Z" fill="#F2F2F4"/>
<path d="M66.4586 69.2418C66.3731 69.024 66.1631 68.8685 65.9298 68.8607C65.6964 68.8451 65.4709 68.9696 65.362 69.1796L64.3431 70.5873C64.1175 70.8596 64.1486 71.264 64.4131 71.4973C64.7164 71.684 65.1131 71.5907 65.3075 71.2873L66.3264 69.8796C66.4898 69.7085 66.5442 69.4596 66.4586 69.2418Z" fill="#F2F2F4"/>
<path d="M67.8199 70.144C67.7188 69.934 67.5088 69.8018 67.2755 69.8018C67.0422 69.8018 66.8322 69.9418 66.731 70.1518L65.8055 71.6373C65.5955 71.9251 65.6577 72.3218 65.9377 72.5395C66.2566 72.7029 66.6455 72.5784 66.8088 72.2673H66.8244L67.7499 70.7818C67.8977 70.6029 67.921 70.354 67.8199 70.144Z" fill="#F2F2F4"/>
<path d="M69.2738 70.9449C69.1571 70.7349 68.9315 70.6183 68.6982 70.6416C68.4649 70.6649 68.2626 70.8205 68.1849 71.0383L67.3682 72.5861C67.1815 72.8894 67.2671 73.2783 67.5626 73.4727C67.8893 73.6127 68.2704 73.465 68.4104 73.1461V73.1383L69.2349 71.5983C69.3749 71.4116 69.3904 71.1549 69.2738 70.9449Z" fill="#F2F2F4"/>
<path d="M70.7599 71.6453C70.6354 71.4509 70.3943 71.342 70.161 71.3809C69.9276 71.4198 69.7332 71.5909 69.671 71.8164L68.9632 73.4109C68.7999 73.722 68.9088 74.1109 69.2199 74.282C69.5543 74.3986 69.9199 74.2275 70.0443 73.8931H70.0521L70.7599 72.2986C70.8843 72.0964 70.8843 71.8398 70.7599 71.6453Z" fill="#F2F2F4"/>
<path d="M72.2997 72.2283C72.1597 72.0416 71.9186 71.9483 71.6852 72.0027C71.4519 72.0572 71.273 72.2438 71.2263 72.4772L70.6274 74.1105C70.4874 74.4372 70.6274 74.8105 70.9463 74.966C71.2886 75.0594 71.6386 74.8572 71.7474 74.5227L72.3463 72.8816C72.463 72.6716 72.4397 72.4149 72.2997 72.2283Z" fill="#F2F2F4"/>
<path d="M73.233 72.5316C73.0075 72.6016 72.8363 72.7961 72.813 73.0372L72.3386 74.7172C72.2141 75.0517 72.3852 75.4172 72.7119 75.5494C73.0619 75.6194 73.4041 75.3861 73.4741 75.0439L73.9563 73.3639C74.0575 73.1461 74.0186 72.8972 73.863 72.7105C73.7075 72.5316 73.4586 72.4616 73.233 72.5316Z" fill="#F2F2F4"/>
<path d="M74.8349 72.952C74.6171 73.0376 74.4616 73.2398 74.446 73.4731L74.0804 75.1765C73.9793 75.5187 74.1738 75.8687 74.516 75.9776C74.866 76.0242 75.1927 75.7754 75.2393 75.4254V75.4409L75.6049 73.7298C75.6904 73.512 75.636 73.2554 75.4727 73.092C75.3093 72.9209 75.0527 72.8665 74.8349 72.952Z" fill="#F2F2F4"/>
<path d="M77.0984 73.3563C76.9195 73.2007 76.6628 73.1618 76.4528 73.263C76.2428 73.3641 76.1028 73.5818 76.1028 73.8152L75.8617 75.5419C75.7917 75.8841 76.0095 76.2263 76.3439 76.3041C76.7017 76.3352 77.0051 76.063 77.0284 75.713L77.2851 73.9863C77.3551 73.7607 77.2851 73.5118 77.0984 73.3563Z" fill="#F2F2F4"/>
<path d="M78.7159 73.5042C78.5293 73.3642 78.2726 73.3408 78.0626 73.4575C77.8526 73.5742 77.7359 73.7997 77.7515 74.0331L77.6348 75.7753C77.5882 76.1253 77.8215 76.452 78.1715 76.5064C78.5371 76.5064 78.8248 76.2186 78.8248 75.8609L78.9415 74.1186C78.9959 73.8853 78.9104 73.6442 78.7159 73.5042Z" fill="#F2F2F4"/>
<path d="M80.3732 73.5513C80.171 73.4191 79.9144 73.4191 79.7199 73.5513C79.5177 73.6835 79.4166 73.9169 79.4555 74.1502V75.8924C79.4321 76.2424 79.6888 76.5535 80.0466 76.5846C80.3888 76.5535 80.6532 76.2424 80.6377 75.8924V74.1502C80.6766 73.9169 80.5677 73.6758 80.3732 73.5513Z" fill="#F2F2F4"/>
<path d="M76.5152 29.0225C76.5541 29.5436 77.1686 29.4114 77.8064 29.3492C79.0664 29.2325 80.3264 29.217 81.5864 29.287C82.2086 29.3414 83.6086 29.8081 83.6319 29.007C83.6397 28.5247 82.7997 28.4159 82.3408 28.3692C81.6486 28.307 80.303 28.3147 79.7975 28.3303C78.7319 28.3536 76.4452 28.1592 76.5152 29.0225Z" fill="#F2F2F4"/>
<path d="M85.5923 28.9147C85.0012 28.8291 84.7601 29.1402 84.8301 29.5213C85.0012 30.4002 86.4401 29.5991 85.5923 28.9147Z" fill="#F2F2F4"/>
<path d="M74.9525 29.2403C74.8281 28.7114 73.7781 28.727 73.957 29.6603C74.3692 30.1736 75.0848 29.8236 74.9525 29.2403Z" fill="#F2F2F4"/>
<path d="M92.6702 32.18C91.7057 31.55 90.7024 30.9745 89.668 30.4611C89.2168 30.2278 88.3691 29.5978 87.8868 29.8156C87.6613 29.9011 87.5213 30.1345 87.5602 30.36C87.638 30.8578 88.548 30.9511 89.0302 31.1845C90.298 31.8145 91.5113 32.5533 92.6469 33.4089C92.7635 33.5022 93.0124 33.9067 93.3857 33.86C93.6191 33.7978 93.7902 33.6033 93.8291 33.37C93.8758 32.9422 93.238 32.5689 92.6702 32.18Z" fill="#F2F2F4"/>
<path d="M67.4153 32.0254C67.0264 32.2898 66.2175 32.7954 66.2798 33.2465C66.3964 33.9698 67.1198 33.5187 67.462 33.262C68.6053 32.3987 69.842 31.6676 71.1487 31.092C71.7475 30.8276 73.1787 30.3687 72.2842 29.622C72.2453 29.622 71.8253 29.6298 71.8564 29.6143C70.5109 30.2831 68.792 31.0765 67.4153 32.0254Z" fill="#F2F2F4"/>
<path d="M64.3432 34.0393C64.0087 34.3737 64.1409 34.9493 64.5143 35.0348C65.3232 35.1982 65.362 33.7126 64.3432 34.0393Z" fill="#F2F2F4"/>
<path d="M95.2979 34.5215C95.1501 34.4359 94.9634 34.4282 94.8079 34.5059C94.6834 34.5448 94.5745 34.6304 94.5123 34.747C94.4501 34.8637 94.4423 34.9959 94.489 35.1204C94.6134 35.657 95.5468 35.5948 95.5468 34.9493C95.539 34.7704 95.4456 34.6148 95.2979 34.5215Z" fill="#F2F2F4"/>
<path d="M98.2384 37.5322C97.9662 37.1433 97.4062 36.28 97.2039 36.2178C97.0328 36.1789 96.8617 36.1944 96.7062 36.2722C96.185 36.5522 96.5895 37.0889 96.8695 37.4466C97.7484 38.5355 98.4795 39.7333 99.0473 41.0089C99.304 41.5766 99.4284 42.3777 99.8951 42.4477C100.72 42.5722 100.502 41.7866 100.284 41.2811C99.7317 39.9666 99.0395 38.7144 98.2384 37.5322Z" fill="#F2F2F4"/>
<path d="M63.3627 36.0935C63.1994 36.0468 63.0283 36.0779 62.8961 36.179C61.9861 37.1124 60.9516 38.8546 60.2205 40.2935C59.9327 40.8457 59.1316 42.269 60.065 42.3235C60.695 42.3624 60.765 41.4368 61.0216 40.9157C61.6439 39.6246 62.4139 38.4113 63.3161 37.2835C63.4639 37.089 63.7672 36.7546 63.6972 36.4279C63.6427 36.2724 63.5261 36.1479 63.3627 36.0935Z" fill="#F2F2F4"/>
<path d="M99.9805 44.2518C100.082 44.8429 101.186 44.7807 101.038 44.0184C100.976 43.6995 100.657 43.544 100.299 43.6995C100.066 43.7695 99.926 44.0107 99.9805 44.2518Z" fill="#F2F2F4"/>
<path d="M59.5289 43.6921C59.4123 43.6065 59.2645 43.5754 59.1245 43.6065C58.3623 43.7698 58.7823 44.7265 59.2878 44.6565C59.56 44.5787 59.7389 44.3298 59.7311 44.0498C59.7156 43.9098 59.6456 43.7776 59.5289 43.6921Z" fill="#F2F2F4"/>
<path d="M102.026 52.3248C102.127 51.0882 102.143 49.8437 102.088 48.6071C102.057 48.1171 102.003 46.9037 101.746 46.6859C101.404 46.3904 101.046 46.7248 100.875 46.9815C101.108 48.6615 101.163 50.3648 101.038 52.0604C100.984 52.6204 100.626 53.6782 101.388 53.6782C101.801 53.6704 101.964 53.0093 102.026 52.3248Z" fill="#F2F2F4"/>
<path d="M58.4089 46.3287C58.09 46.5776 58.0433 47.8065 58.0045 48.4287C57.9733 48.8876 57.95 49.6809 57.9733 50.412C58.0045 51.3998 57.95 53.5465 58.86 53.2742C59.4045 53.1031 59.0389 52.0376 59.0078 51.602C58.93 50.1942 58.9533 48.7865 59.07 47.3865C59.1011 47.0987 59.3422 46.6165 59.0856 46.3365L59.0933 46.3287C58.9611 46.212 58.5256 46.1265 58.4089 46.3287Z" fill="#F2F2F4"/>
<path d="M101.234 55.724C101.366 55.444 101.319 55.0007 101.125 54.8529C100.557 54.7596 100.254 54.9618 100.308 55.5296C100.51 55.8329 100.922 55.9185 101.234 55.724Z" fill="#F2F2F4"/>
<path d="M58.7511 55.7469C59.3656 55.8247 59.6067 54.5958 58.7667 54.7591C58.0667 54.8991 58.3856 55.7002 58.7511 55.7469Z" fill="#F2F2F4"/>
<path d="M96.9633 63.8135C97.5544 64.0158 97.9589 63.098 98.2155 62.7169C98.9078 61.768 99.5222 60.7646 100.059 59.7146C100.347 59.1391 101.389 57.2258 99.9655 57.6846C99.5922 57.9724 99.4833 58.6413 99.2033 59.2091C98.7055 60.1891 98.13 61.138 97.4844 62.0324C97.2744 62.328 96.5433 63.0824 96.66 63.5024C96.7378 63.6269 96.8389 63.7358 96.9633 63.8135Z" fill="#F2F2F4"/>
<path d="M61.5664 62.366C61.7064 62.5838 62.1808 63.7582 62.8342 63.5638C63.4875 63.3693 62.9819 62.716 62.7875 62.4438C61.9631 61.3082 61.2553 60.0949 60.6797 58.8193C60.3842 58.1426 59.9019 56.7271 59.1553 57.5515C59.1708 58.2749 59.4975 58.8349 59.7542 59.3638C60.2753 60.4138 60.8819 61.4171 61.5664 62.366Z" fill="#F2F2F4"/>
<path d="M95.882 65.6714C96.4653 65.6092 96.442 64.4192 95.6487 64.6759C94.9953 64.8936 95.2909 65.7258 95.882 65.6714Z" fill="#F2F2F4"/>
<path d="M63.6817 65.423C64.1406 66.1697 65.175 65.1663 64.4439 64.6919C63.8528 64.5985 63.6272 64.8708 63.6817 65.423Z" fill="#F2F2F4"/>
<path d="M89.1851 69.7866C90.2973 69.2654 91.3628 68.6588 92.374 67.9665C92.7551 67.7099 93.7351 67.2121 93.6962 66.7454C93.6806 66.5899 93.2373 66.0999 92.9573 66.3021C91.9073 67.0488 90.274 68.2388 88.7106 68.8999C88.0184 69.1877 87.0928 69.4054 87.4506 70.121L87.4428 70.1288C88.0262 70.5799 88.6795 70.0432 89.1851 69.7866Z" fill="#F2F2F4"/>
<path d="M67.1739 68.1837C68.2083 68.8837 69.2972 69.5059 70.425 70.0348C70.8994 70.2604 71.9494 70.8515 72.1516 70.2448C72.3539 69.6382 71.4205 69.4048 70.9305 69.1793C70.2772 68.8837 69.7716 68.6737 69.3283 68.4171C68.0994 67.7404 67.3372 66.9626 66.4505 66.5193L66.4738 66.5037C66.3261 66.4726 66.1861 66.5115 66.0694 66.6048C65.9527 66.6982 65.8983 66.8382 65.9061 66.9859C65.875 67.4682 66.7616 67.9037 67.1739 68.1837Z" fill="#F2F2F4"/>
<path d="M85.2186 70.65C85.343 71.4589 86.7897 70.9222 86.0897 70.1055C85.5375 69.8488 85.1563 70.2844 85.2186 70.65Z" fill="#F2F2F4"/>
<path d="M73.4428 70.7121C73.5205 71.6066 75.115 70.9454 74.2594 70.1677C73.6994 70.0899 73.4194 70.3621 73.4428 70.7121Z" fill="#F2F2F4"/>
<path d="M83.5391 71.0543C83.5935 70.4788 83.2046 70.5643 82.8624 70.5488V70.541H82.7458C81.7191 70.5254 79.9691 70.7588 78.5924 70.6654C77.9002 70.6188 76.2902 70.0977 76.4769 71.0699C76.6091 71.6843 77.8069 71.5443 78.6391 71.5988C79.7124 71.6765 80.7858 71.6999 81.8591 71.6532C82.5124 71.6065 83.4847 71.5599 83.5391 71.0543Z" fill="#F2F2F4"/>
<path d="M71.646 34.499C71.5138 34.4368 71.366 34.4212 71.226 34.4757C71.086 34.5301 70.9693 34.6234 70.9071 34.7557C70.7749 35.0279 70.8916 35.3546 71.1638 35.4868C71.436 35.619 71.7627 35.5023 71.8949 35.2301C72.0271 34.9579 71.9182 34.6312 71.646 34.499Z" fill="#F2F2F4"/>
<path d="M64.8178 41.1407C64.67 41.1874 64.5611 41.2885 64.4989 41.4207C64.3667 41.6929 64.4834 42.0196 64.7556 42.1518C65.0278 42.284 65.3545 42.1674 65.4867 41.8951C65.6189 41.6229 65.51 41.2963 65.2378 41.164C65.1056 41.1018 64.9578 41.0863 64.8178 41.1407Z" fill="#F2F2F4"/>
<path d="M62.5307 50.0382C62.3829 50.0771 62.274 50.1782 62.2118 50.3104C62.0796 50.5826 62.1962 50.9093 62.4685 51.0415C62.7407 51.1737 63.0674 51.0571 63.1996 50.7926C63.3318 50.5204 63.2229 50.1937 62.9507 50.0615C62.8185 49.9993 62.6707 49.9837 62.5307 50.0382Z" fill="#F2F2F4"/>
<path d="M65.8286 58.2129C65.6964 58.1506 65.5486 58.1351 65.4086 58.1895C65.2686 58.2362 65.152 58.3373 65.0897 58.4695C64.9575 58.7418 65.0742 59.0684 65.3464 59.2006C65.6186 59.3329 65.9453 59.2162 66.0775 58.944C66.2097 58.6718 66.1008 58.3451 65.8286 58.2129Z" fill="#F2F2F4"/>
<path d="M72.3148 65.1198C72.447 64.8553 72.3381 64.5209 72.0659 64.3886C71.9337 64.3264 71.7859 64.3109 71.6459 64.3653C71.5059 64.4198 71.3893 64.5053 71.327 64.6375C71.1948 64.9098 71.3115 65.2364 71.5837 65.3686C71.8559 65.5009 72.1826 65.3842 72.3148 65.1198Z" fill="#F2F2F4"/>
<path d="M80.5435 66.9166C80.4112 66.8544 80.2635 66.8389 80.1235 66.8855C79.9835 66.9322 79.8668 67.0333 79.8046 67.1655C79.6724 67.4378 79.789 67.7644 80.0612 67.8966C80.3335 68.0289 80.6601 67.9122 80.7924 67.6478C80.9246 67.3755 80.8157 67.0489 80.5435 66.9166Z" fill="#F2F2F4"/>
<path d="M89.5661 65.4377C89.8384 65.5699 90.165 65.461 90.2972 65.1888C90.4295 64.9166 90.3206 64.5899 90.0484 64.4577C89.9161 64.3954 89.7606 64.3799 89.6284 64.4265C89.4883 64.4732 89.3717 64.5743 89.3095 64.7066C89.1772 64.9788 89.2939 65.3055 89.5661 65.4377Z" fill="#F2F2F4"/>
<path d="M95.9751 57.567C95.8429 57.5048 95.6951 57.4893 95.5551 57.5359C95.4151 57.5826 95.2984 57.6837 95.2362 57.8159C95.104 58.0881 95.2207 58.4148 95.4929 58.547C95.7651 58.6793 96.0918 58.5626 96.224 58.2981C96.3562 58.0259 96.2473 57.6993 95.9751 57.567Z" fill="#F2F2F4"/>
<path d="M97.2114 48.949C97.0791 48.9957 96.9547 49.0968 96.8925 49.229C96.7602 49.5012 96.8769 49.8279 97.1491 49.9601C97.4214 50.0924 97.748 49.9835 97.8802 49.7112C98.0125 49.439 97.9036 49.1123 97.6314 48.9801C97.4991 48.9179 97.3436 48.9023 97.2114 48.949Z" fill="#F2F2F4"/>
<path d="M95.2759 40.5566C95.1437 40.4944 94.9959 40.4788 94.8559 40.5333C94.7081 40.58 94.5992 40.6811 94.537 40.8133C94.4048 41.0855 94.5214 41.4122 94.7937 41.5444C95.0659 41.6766 95.3925 41.5599 95.5248 41.2877C95.657 41.0155 95.5481 40.6888 95.2759 40.5566Z" fill="#F2F2F4"/>
<path d="M89.3334 34.3346C89.069 34.1946 88.7423 34.3034 88.6023 34.5757C88.5012 34.7701 88.5323 35.0112 88.6723 35.1823C88.8201 35.3534 89.0457 35.4157 89.2634 35.3457C89.4734 35.2757 89.6212 35.089 89.6368 34.8634C89.6523 34.6457 89.5357 34.4357 89.3334 34.3346Z" fill="#F2F2F4"/>
<path d="M79.8132 33.0669C80.0854 33.1991 80.4121 33.0824 80.5443 32.8102C80.6765 32.538 80.5676 32.2113 80.2954 32.0791C80.1632 32.0169 80.0154 32.0013 79.8754 32.0557C79.7276 32.1024 79.6188 32.2035 79.5565 32.3357C79.4243 32.608 79.541 32.9346 79.8132 33.0669Z" fill="#F2F2F4"/>
<path d="M70.5185 43.8397H70.5341C71.0552 43.5519 71.5685 43.2953 72.0974 43.0775C72.6185 42.8675 73.1708 42.6653 73.7385 42.4786H73.7619C73.8241 42.4553 73.8708 42.4086 73.9019 42.3386C73.933 42.2686 73.933 42.1986 73.9019 42.1364L73.8785 42.1597C73.8474 42.0897 73.7852 42.0353 73.7074 42.0119L72.6885 41.7008L72.0585 41.5064C71.8641 41.4519 71.6619 41.4675 71.483 41.553L71.4519 41.5686H71.4208C71.2419 41.6464 71.0941 41.7786 71.0008 41.9419L70.6974 42.5253L70.1919 43.4741C70.1296 43.5753 70.1374 43.6997 70.2152 43.7853C70.293 43.8708 70.4174 43.8941 70.5185 43.8397Z" fill="#F2F2F4"/>
<path d="M86.1754 42.2217C86.1676 42.3384 86.2376 42.4395 86.3465 42.4784H86.3698C86.9298 42.6572 87.4743 42.8517 87.9954 43.0695C88.5165 43.295 89.0376 43.5517 89.5587 43.8317H89.5743C89.6365 43.8628 89.7143 43.8628 89.7765 43.8395C89.8387 43.8161 89.8932 43.7617 89.9165 43.6995C89.9476 43.6295 89.9398 43.5439 89.9009 43.4739L89.4032 42.525L89.0765 41.9261C88.9754 41.7472 88.8276 41.615 88.6409 41.545H88.6098L88.5787 41.5295C88.3998 41.4517 88.1976 41.4284 88.0032 41.4828L87.3732 41.6772L86.3543 41.9884H86.3776C86.2687 42.0117 86.1832 42.105 86.1754 42.2217Z" fill="#F2F2F4"/>
<path d="M83.0018 59.3099C82.644 59.2399 82.2785 59.2088 81.9129 59.2088C81.4774 59.4033 81.3296 59.8777 81.0885 60.2666C80.8318 60.0255 80.4429 59.2166 80.0074 59.2321C79.7896 59.2399 79.5796 59.5355 79.4396 59.6988C79.2529 59.9166 79.0896 60.0721 78.9496 60.2666C78.7162 59.8699 78.5451 59.2166 77.9851 59.1699C77.674 59.201 77.3629 59.2399 77.0596 59.3021C77.1918 59.7377 77.604 59.8544 77.8607 60.1266C78.4129 60.6944 78.8951 61.3166 79.3074 61.9855C79.4474 62.2033 79.704 62.9422 80.0074 62.9422C80.3107 62.9499 80.5751 62.2733 80.7307 62.0166C81.1429 61.3477 81.6329 60.7255 82.1774 60.1577C82.4496 59.8855 82.8696 59.7455 83.0018 59.3099ZM80.0618 61.1999C79.704 60.9199 79.7507 59.9399 80.0074 59.5977C80.3962 59.8233 80.3185 60.8966 80.0618 61.1999Z" fill="#F2F2F4"/>
<path d="M88.0268 59.4417C88.2213 59.4962 88.4235 59.4806 88.6024 59.395L88.6335 59.3795H88.6646C88.8513 59.3017 88.999 59.1695 89.1002 58.9984L89.4113 58.4073L89.8935 57.4662C89.9324 57.3962 89.9324 57.3106 89.8935 57.2406C89.8702 57.1784 89.8157 57.1239 89.7535 57.1006C89.6835 57.0773 89.6135 57.0773 89.5513 57.1084H89.5357C89.0146 57.3962 88.4779 57.6528 87.9724 57.8706C87.4513 58.0884 86.9146 58.2906 86.3468 58.4695H86.3235C86.2613 58.4928 86.2146 58.5395 86.1835 58.6095C86.1524 58.6795 86.1524 58.7495 86.1835 58.8117L86.2068 58.7884C86.2379 58.8584 86.3002 58.9128 86.3779 58.9362L87.3968 59.2473L88.0268 59.4417Z" fill="#F2F2F4"/>
<path d="M76.6473 60.6393L76.344 60.056C76.2507 59.8849 76.0951 59.7449 75.9085 59.6749H75.8773L75.8462 59.6593C75.6673 59.5816 75.4651 59.5582 75.2707 59.6127L74.6329 59.8071L73.614 60.1182L73.6296 60.1027C73.5207 60.126 73.4351 60.2193 73.4273 60.336C73.4196 60.4527 73.4896 60.5538 73.5985 60.5927H73.6218C74.1818 60.7716 74.7262 60.966 75.2473 61.1838C75.7685 61.4171 76.2896 61.666 76.8107 61.946H76.8262C76.9273 62.0005 77.0518 61.9771 77.1296 61.8916C77.1996 61.806 77.2151 61.6816 77.1529 61.5882L76.6473 60.6393Z" fill="#F2F2F4"/>
<path d="M73.7234 58.9674C73.8401 58.944 73.9179 58.8663 73.9256 58.7496C73.9334 58.6329 73.8634 58.5318 73.7545 58.4929H73.7312C73.1712 58.3063 72.6267 58.1274 72.1056 57.894C71.5845 57.6607 71.0634 57.4118 70.5423 57.1318H70.519C70.4179 57.0774 70.2934 57.1007 70.2156 57.1863C70.1456 57.2718 70.1301 57.3963 70.1923 57.4896L70.6901 58.4385L71.0012 59.0296C71.1023 59.2085 71.2501 59.3407 71.4367 59.4107H71.4679L71.499 59.4263C71.6779 59.504 71.8801 59.5196 72.0745 59.4729L72.7045 59.2785L73.7234 58.9674Z" fill="#F2F2F4"/>
<path d="M86.4555 60.134L85.4366 59.8229L84.7988 59.6284C84.6044 59.574 84.4022 59.5896 84.2233 59.6751L84.1922 59.6907H84.1611C83.9744 59.7684 83.8266 59.9007 83.7255 60.0718L83.4222 60.6551L82.9244 61.604C82.8855 61.674 82.8777 61.7595 82.9088 61.8295C82.9322 61.8917 82.9866 61.9462 83.0488 61.9695C83.1188 61.9929 83.1888 61.9929 83.2511 61.9617H83.2666C83.7877 61.674 84.3011 61.4095 84.83 61.1995C85.3588 60.9895 85.8955 60.7873 86.4633 60.6084H86.4866C86.5488 60.5851 86.5955 60.5384 86.6266 60.4684C86.6577 60.3984 86.6577 60.3284 86.6266 60.2662C86.5955 60.1962 86.5333 60.1418 86.4555 60.134Z" fill="#F2F2F4"/>
<path d="M79.277 44.3454L77.597 45.1309L77.5737 45.1465C77.4959 45.1854 77.4492 45.2632 77.4492 45.3487C77.4492 45.4109 77.4726 45.4732 77.5192 45.5121C77.5659 45.5743 77.6281 45.5976 77.6826 45.5976H82.3881C82.497 45.5976 82.5903 45.5198 82.6137 45.4109C82.637 45.3021 82.5826 45.1932 82.4814 45.1465L80.8014 44.3532C80.5603 44.2209 80.3037 44.1276 80.0392 44.0576C79.7748 44.1198 79.5181 44.2209 79.277 44.3454Z" fill="#F2F2F4"/>
<path d="M82.4032 54.8525L82.3954 54.8447H77.6899C77.581 54.8447 77.4877 54.9225 77.4643 55.0314C77.441 55.1403 77.4955 55.2492 77.5966 55.2958L79.2766 56.0892C79.5177 56.2214 79.7743 56.3147 80.0388 56.377C80.3032 56.3147 80.5599 56.2214 80.801 56.0892L82.481 55.2958H82.5043C82.5977 55.2492 82.6521 55.1403 82.6288 55.0314C82.6054 54.9225 82.5121 54.8525 82.4032 54.8525Z" fill="#F2F2F4"/>
<path d="M83.4997 30.5787C83.3908 30.5553 83.2741 30.5709 83.1808 30.6331C83.0875 30.6953 83.0175 30.7887 82.9941 30.8975C82.9708 30.9909 82.9863 31.0998 83.033 31.1931L84.013 32.772C84.1141 32.9275 84.2697 33.0442 84.4563 33.0831C84.6352 33.122 84.8297 33.0909 84.993 32.9975L86.5408 32.0331C86.6808 31.9398 86.7586 31.7764 86.7274 31.6131C86.6963 31.4498 86.5797 31.3098 86.4241 31.2709H86.4008C86.3541 31.2631 86.3074 31.2631 86.253 31.2709C85.3352 31.3875 84.4019 31.162 83.6319 30.6409C83.593 30.6175 83.5463 30.5942 83.4997 30.5787Z" fill="#F2F2F4"/>
<path d="M82.0064 35.6806C81.8587 35.7662 81.7731 35.9373 81.8042 36.1084C81.8275 36.2795 81.9598 36.4195 82.1231 36.4584H82.1464C82.1931 36.4662 82.2398 36.4662 82.2942 36.4584C82.7453 36.3962 83.212 36.4195 83.6553 36.5206C84.0987 36.6295 84.5264 36.8084 84.9075 37.0651C84.9464 37.0884 84.9931 37.1117 85.0398 37.1273C85.2031 37.1662 85.3742 37.104 85.4675 36.9717C85.5687 36.8395 85.5842 36.6606 85.4987 36.5129L85.5142 36.5206L84.5342 34.9417C84.4331 34.7862 84.2775 34.6695 84.0909 34.6306C83.912 34.5917 83.7175 34.6229 83.5542 34.7162L82.0064 35.6806Z" fill="#F2F2F4"/>
<path d="M81.0191 34.6311C80.9958 34.74 81.0113 34.8567 81.0735 34.95C81.1358 35.0433 81.2291 35.1133 81.338 35.1367C81.4391 35.16 81.5402 35.1444 81.6335 35.0978H81.6102L83.1891 34.1178C83.5158 33.9078 83.6169 33.4722 83.4147 33.1456L82.4502 31.5978C82.3569 31.4578 82.1935 31.38 82.0302 31.4111C81.8669 31.4422 81.7269 31.5589 81.688 31.7144V31.7378C81.6802 31.7844 81.6802 31.8389 81.688 31.8856C81.8124 32.8033 81.5946 33.7289 81.0813 34.4989C81.058 34.5378 81.0346 34.5844 81.0191 34.6311Z" fill="#F2F2F4"/>
<path d="M85.3587 33.5962C85.2032 33.6973 85.0865 33.8528 85.0476 34.0395C85.0087 34.2262 85.0398 34.4128 85.1332 34.5762L86.1054 36.1239C86.1599 36.225 86.261 36.295 86.3699 36.3262C86.5954 36.3806 86.821 36.2406 86.8754 36.0073V35.9839C86.8832 35.9373 86.8832 35.8828 86.8754 35.8362C86.751 34.9184 86.9687 33.9928 87.4821 33.2228C87.5054 33.1839 87.5287 33.1373 87.5443 33.0906C87.5832 32.9273 87.521 32.7562 87.3887 32.6628C87.2565 32.5617 87.0776 32.5462 86.9299 32.6317L86.9376 32.6162L85.3587 33.5962Z" fill="#F2F2F4"/>
<path d="M84.4333 34.3813C84.7289 34.2958 84.8844 33.9924 84.7989 33.6969C84.7133 33.4091 84.41 33.2458 84.1144 33.3313C83.9744 33.3702 83.8578 33.4713 83.7878 33.5958C83.7178 33.7202 83.71 33.8758 83.7489 34.0158C83.8344 34.3036 84.1378 34.4669 84.4333 34.3813Z" fill="#F2F2F4"/>
<path d="M78.25 64.5751C78.3512 64.5129 78.4212 64.4195 78.4523 64.3029C78.4756 64.194 78.46 64.0773 78.3978 63.984C78.3356 63.8906 78.2423 63.8206 78.1334 63.7973H78.11C78.0634 63.7895 78.0089 63.7895 77.9623 63.7973C77.5112 63.8595 77.0445 63.8362 76.6012 63.7273C76.15 63.6184 75.73 63.4317 75.3489 63.1751C75.31 63.1517 75.2634 63.1284 75.2167 63.1128C75.1078 63.0895 74.9912 63.1051 74.8978 63.1673C74.8045 63.2295 74.7345 63.3228 74.7112 63.4317C74.6878 63.5328 74.7034 63.6417 74.7423 63.7273L75.7223 65.314C75.8234 65.4695 75.9789 65.5862 76.1656 65.6251C76.3445 65.664 76.5389 65.6329 76.7023 65.5395L78.25 64.5751Z" fill="#F2F2F4"/>
<path d="M76.6239 69.5837C76.6628 69.607 76.7094 69.6304 76.7561 69.6459C76.865 69.6692 76.9817 69.6537 77.075 69.5915C77.1683 69.5293 77.2383 69.4359 77.2617 69.327C77.285 69.2259 77.2694 69.1248 77.2228 69.0315L77.2306 69.0548L76.2506 67.4759C76.1494 67.3204 75.9939 67.2037 75.8072 67.1648C75.6283 67.1259 75.4339 67.157 75.2706 67.2504L73.7228 68.2148C73.5828 68.3081 73.505 68.4715 73.5361 68.6348C73.5672 68.7981 73.6839 68.9381 73.8394 68.977H73.8628C73.9094 68.9848 73.9639 68.9848 74.0106 68.977C74.9283 68.8526 75.8539 69.0704 76.6239 69.5837Z" fill="#F2F2F4"/>
<path d="M74.9053 66.6602C75.0609 66.5591 75.1775 66.4035 75.2164 66.2169C75.2553 66.0302 75.2242 65.8435 75.1309 65.6802L74.1664 64.1324C74.0808 63.9846 73.9097 63.8991 73.7386 63.9302C73.5675 63.9535 73.4275 64.0857 73.3886 64.2491V64.2724C73.3808 64.3191 73.3808 64.3657 73.3886 64.4202C73.5053 65.338 73.2875 66.2713 72.782 67.0413C72.7586 67.0802 72.7353 67.1269 72.7197 67.1735C72.6653 67.3991 72.8053 67.6246 73.0386 67.6791C73.1397 67.7024 73.2408 67.6869 73.3342 67.6324L73.3264 67.6402L74.9053 66.6602Z" fill="#F2F2F4"/>
<path d="M79.2448 65.6247C79.2837 65.4614 79.2292 65.2903 79.097 65.1892C78.9648 65.0881 78.7859 65.0725 78.6381 65.1581L78.6459 65.1503L77.067 66.1303C76.9037 66.2314 76.7948 66.387 76.7481 66.5736C76.7014 66.7603 76.7403 66.947 76.8414 67.1103L77.8059 68.6581C77.8914 68.7981 78.0625 68.8759 78.2259 68.8525C78.3892 68.8292 78.5292 68.7047 78.5681 68.5414V68.5181C78.5759 68.4714 78.5759 68.417 78.5681 68.3703C78.4514 67.4525 78.6692 66.527 79.1825 65.757C79.2059 65.7181 79.2292 65.6714 79.2448 65.6247Z" fill="#F2F2F4"/>
<path d="M75.8226 65.8661C75.5348 65.9595 75.3715 66.2628 75.4648 66.5506C75.527 66.7606 75.7137 66.9161 75.9315 66.9394C76.1492 66.9628 76.3592 66.8461 76.4681 66.6517C76.5692 66.4572 76.5459 66.2161 76.4059 66.045C76.2659 65.8739 76.0326 65.8039 75.8226 65.8661Z" fill="#F2F2F4"/>
<path d="M93.058 35.136C93.0347 35.0893 93.0114 35.0504 92.9802 35.0193C92.8636 34.9026 92.6847 34.8715 92.5291 34.9337C92.3736 34.996 92.2725 35.1437 92.2725 35.3149L92.3113 37.1738C92.3191 37.3604 92.3969 37.5393 92.5291 37.6715C92.6613 37.8038 92.848 37.8738 93.0347 37.866L94.8547 37.8271C94.9713 37.8271 95.0802 37.7804 95.1658 37.6949C95.2436 37.6171 95.2825 37.5082 95.2825 37.3915C95.2825 37.2826 95.2358 37.1738 95.1502 37.096L95.1347 37.0804C95.0958 37.0415 95.0491 37.0104 94.9947 36.9949C94.1469 36.6293 93.4547 35.9682 93.058 35.136Z" fill="#F2F2F4"/>
<path d="M90.8964 41.3273C90.9197 41.374 90.9431 41.4129 90.9742 41.444C91.052 41.5218 91.1609 41.5607 91.2775 41.5607C91.3864 41.5607 91.4953 41.514 91.5731 41.4284C91.6431 41.3507 91.682 41.2573 91.6897 41.1562L91.6975 41.164L91.6586 39.3051C91.6509 39.1184 91.5731 38.9396 91.4409 38.8073C91.3086 38.6751 91.122 38.6051 90.9353 38.6129L89.1153 38.6518C88.9986 38.6518 88.8897 38.6984 88.8042 38.784C88.7264 38.8618 88.6875 38.9707 88.6875 39.0873C88.6875 39.1962 88.7342 39.3051 88.8197 39.3829L88.8353 39.3984C88.8742 39.4296 88.9131 39.4529 88.9597 39.4762C89.8075 39.8418 90.4997 40.4951 90.8964 41.3273Z" fill="#F2F2F4"/>
<path d="M88.7729 37.2281C88.6951 37.3059 88.6484 37.4148 88.6484 37.5237C88.6484 37.6325 88.6951 37.7414 88.7729 37.8192C88.8507 37.897 88.9518 37.9437 89.0607 37.9514L90.9195 37.9125C91.1062 37.9048 91.2851 37.827 91.4173 37.6948C91.5495 37.5625 91.6195 37.3759 91.6118 37.1892L91.5729 35.3692C91.5729 35.1981 91.4718 35.0425 91.3084 34.9725C91.1451 34.9103 90.9662 34.9492 90.8418 35.0737L90.8262 35.0892C90.7951 35.1281 90.7718 35.167 90.7484 35.2137C90.3829 36.0614 89.7218 36.7537 88.8895 37.1503C88.8429 37.1737 88.804 37.197 88.7729 37.2281Z" fill="#F2F2F4"/>
<path d="M92.6545 41.4906C92.8101 41.5529 92.9967 41.514 93.1134 41.3973L93.129 41.3817C93.1601 41.3429 93.1912 41.304 93.2067 41.2573C93.5723 40.4095 94.2334 39.7173 95.0656 39.3129C95.1123 39.2895 95.1512 39.2662 95.1823 39.2351C95.2601 39.1573 95.3067 39.0484 95.3067 38.9395C95.3067 38.8306 95.2601 38.7218 95.1823 38.644C95.1201 38.574 95.019 38.5273 94.9101 38.5195L93.0434 38.5584C92.8567 38.5662 92.6778 38.644 92.5456 38.7762C92.4134 38.9084 92.3434 39.0951 92.3512 39.2818L92.3901 41.1018C92.3901 41.2729 92.4912 41.4284 92.6545 41.4906Z" fill="#F2F2F4"/>
<path d="M92.2656 38.706C92.4523 38.5893 92.5534 38.3715 92.5223 38.1538C92.4912 37.936 92.3278 37.7571 92.1101 37.7027C91.8223 37.6327 91.5345 37.8115 91.4567 38.1071C91.4023 38.3249 91.4878 38.5504 91.659 38.6749C91.8301 38.7993 92.0789 38.8149 92.2656 38.706Z" fill="#F2F2F4"/>
<path d="M71.4286 60.85C71.3897 60.8189 71.3509 60.7955 71.3042 60.7722C70.4564 60.4067 69.7642 59.7455 69.3675 58.9133C69.3442 58.8666 69.3209 58.8278 69.2897 58.7966C69.1731 58.68 68.9942 58.6489 68.8386 58.7111C68.6753 58.7811 68.5742 58.9211 68.5664 59.0844L68.6053 60.9433C68.6053 61.13 68.6831 61.3089 68.8231 61.4411C68.9553 61.5733 69.142 61.6433 69.3286 61.6355L71.1486 61.5967C71.3197 61.5967 71.4753 61.4955 71.5453 61.3322C71.6075 61.1689 71.5686 60.99 71.4442 60.8655L71.4286 60.85Z" fill="#F2F2F4"/>
<path d="M65.1205 63.167C65.1594 63.1981 65.1982 63.2214 65.2449 63.2448C66.0927 63.6103 66.7849 64.2714 67.1816 65.1037C67.2049 65.1503 67.2282 65.1892 67.2594 65.2203C67.376 65.337 67.5549 65.3681 67.7105 65.3059C67.8738 65.2437 67.9749 65.0959 67.9827 64.9326L67.9438 63.0737C67.936 62.887 67.8582 62.7081 67.726 62.5759C67.5938 62.4437 67.4071 62.3737 67.2205 62.3814L65.4005 62.4203C65.2294 62.4203 65.0738 62.5214 65.0038 62.6848C64.9416 62.8481 64.9805 63.027 65.1049 63.1514L65.1205 63.167Z" fill="#F2F2F4"/>
<path d="M65.3546 61.7209L67.2135 61.6821C67.6024 61.6743 67.9135 61.3476 67.9058 60.9587L67.8669 59.1387C67.8669 59.022 67.8202 58.9132 67.7346 58.8276C67.6569 58.7498 67.548 58.7109 67.4313 58.7109C67.3224 58.7109 67.2135 58.7576 67.1358 58.8432L67.1202 58.8587C67.0891 58.8976 67.0658 58.9365 67.0424 58.9832C66.6769 59.8309 66.0158 60.5232 65.1835 60.9198C65.1369 60.9432 65.098 60.9665 65.0669 60.9976C64.9891 61.0754 64.9502 61.1843 64.9502 61.3009C64.9502 61.4098 64.9969 61.5187 65.0824 61.5965C65.1524 61.6743 65.2535 61.7132 65.3546 61.7209Z" fill="#F2F2F4"/>
<path d="M68.8153 65.1892C68.893 65.267 69.0019 65.3059 69.1186 65.3059C69.2353 65.3059 69.3364 65.2592 69.4141 65.1737L69.4297 65.1581C69.4608 65.1192 69.4841 65.0803 69.5075 65.0337C69.873 64.1859 70.5264 63.4937 71.3586 63.097C71.4052 63.0737 71.4441 63.0503 71.4752 63.0192C71.5919 62.9026 71.6308 62.7237 71.5608 62.5681C71.4986 62.4126 71.3508 62.3115 71.1875 62.3115L71.203 62.2959L69.3364 62.3348C69.1497 62.3426 68.9708 62.4203 68.8386 62.5526C68.7064 62.6848 68.6364 62.8715 68.6441 63.0581L68.683 64.8781C68.683 64.9948 68.7297 65.1037 68.8153 65.1892Z" fill="#F2F2F4"/>
<path d="M68.4038 61.4715C68.2638 61.4404 68.116 61.4637 67.9916 61.5338C67.8671 61.6193 67.7738 61.736 67.7427 61.876C67.6727 62.1715 67.8516 62.4671 68.1471 62.5371C68.4427 62.6071 68.7382 62.4282 68.8082 62.1326C68.8782 61.8371 68.6994 61.5415 68.4038 61.4715Z" fill="#F2F2F4"/>
<path d="M98.5885 42.8834C98.5573 42.7745 98.4796 42.6812 98.3785 42.6267C98.2773 42.5723 98.1607 42.5645 98.0518 42.6034C97.9507 42.6423 97.8729 42.7045 97.8262 42.7979L96.9785 44.4545C96.7996 44.8045 96.9396 45.2245 97.2818 45.4034L98.9073 46.2279C99.0085 46.2823 99.1329 46.2978 99.2418 46.259C99.3507 46.2278 99.4362 46.1501 99.4829 46.049C99.5296 45.9479 99.5451 45.8312 99.5062 45.7301V45.7067C99.4907 45.6601 99.4674 45.6212 99.4362 45.5823C99.1485 45.2245 98.9307 44.8201 98.7907 44.3767C98.6507 43.9412 98.5807 43.4823 98.604 43.0234C98.604 42.9767 98.604 42.9301 98.5885 42.8834Z" fill="#F2F2F4"/>
<path d="M92.9492 44.8976C93.237 45.2554 93.4548 45.6599 93.5948 46.0954C93.7348 46.531 93.797 46.9899 93.7814 47.4488C93.7814 47.4954 93.7814 47.5499 93.797 47.5965C93.8281 47.7054 93.9059 47.791 94.007 47.8454C94.1081 47.8999 94.2248 47.9076 94.3259 47.8688C94.4192 47.8376 94.5048 47.7676 94.5592 47.6743L95.407 46.0176C95.4925 45.8543 95.5081 45.6599 95.4459 45.481C95.3836 45.3021 95.2592 45.1543 95.0959 45.0688L93.4781 44.2443C93.3225 44.1588 93.1359 44.1821 93.0036 44.291C92.8714 44.3999 92.817 44.5865 92.8792 44.7499V44.7732C92.8948 44.8199 92.9259 44.8588 92.9492 44.8976Z" fill="#F2F2F4"/>
<path d="M93.9922 42.8054C93.9455 42.8054 93.891 42.8054 93.8444 42.821C93.7355 42.8521 93.6499 42.9299 93.5955 43.031C93.541 43.1321 93.5333 43.2488 93.5722 43.3577C93.6033 43.4588 93.6733 43.5365 93.7588 43.591L93.751 43.6065L95.4077 44.4465C95.571 44.5321 95.7655 44.5477 95.9444 44.4854C96.1233 44.431 96.271 44.2988 96.3566 44.1354L97.181 42.5099C97.2355 42.4088 97.251 42.2843 97.2121 42.1754C97.181 42.0665 97.1033 41.981 97.0021 41.9265C96.901 41.8721 96.7844 41.8643 96.6833 41.9032H96.6599C96.6133 41.9188 96.5744 41.9499 96.5355 41.9732C95.8199 42.5488 94.9099 42.8443 93.9922 42.8054Z" fill="#F2F2F4"/>
<path d="M95.2367 48.4514C95.3534 48.5836 95.54 48.6381 95.7034 48.5759H95.7267C95.7734 48.5603 95.8123 48.5292 95.8511 48.5059C96.5667 47.9303 97.4767 47.6348 98.3945 47.6736C98.4411 47.6736 98.4878 47.6736 98.5345 47.6581C98.6434 47.627 98.7367 47.5492 98.7911 47.4481C98.8456 47.347 98.8534 47.2303 98.8145 47.1214C98.7834 47.0203 98.7134 46.9425 98.6278 46.8881L98.6356 46.8725L96.9711 46.0325C96.8 45.947 96.6056 45.9314 96.4267 45.9859C96.2478 46.0403 96.1 46.1725 96.0145 46.3436L95.19 47.9692C95.1045 48.1248 95.12 48.3114 95.2367 48.4514Z" fill="#F2F2F4"/>
<path d="M96.224 45.7997C96.4495 45.7919 96.644 45.6442 96.714 45.4264C96.784 45.2164 96.7218 44.983 96.5584 44.8353C96.3251 44.6408 95.9906 44.6642 95.7884 44.8742C95.6329 45.0375 95.6017 45.2786 95.6951 45.4808C95.7884 45.683 95.9984 45.8075 96.224 45.7997Z" fill="#F2F2F4"/>
<path d="M65.1601 55.1719L66.7779 55.9964C66.9334 56.0819 67.1201 56.0586 67.2523 55.9497C67.3845 55.833 67.439 55.6541 67.3767 55.4908V55.4675C67.3612 55.4208 67.3379 55.3819 67.3067 55.343C66.7312 54.6275 66.4356 53.7175 66.4745 52.7997C66.4745 52.753 66.4745 52.6986 66.459 52.6519C66.4123 52.4963 66.2723 52.3797 66.1012 52.3641C65.9301 52.3486 65.7823 52.4341 65.7045 52.5663L64.8567 54.223C64.7712 54.3864 64.7556 54.5808 64.8101 54.7597C64.8645 54.9386 64.9967 55.0864 65.1601 55.1719Z" fill="#F2F2F4"/>
<path d="M61.6681 57.3651C61.6992 57.474 61.777 57.5673 61.8781 57.6218C61.9792 57.6762 62.1036 57.684 62.2125 57.6451C62.3058 57.6062 62.3914 57.5362 62.4381 57.4507L63.2858 55.794C63.4647 55.444 63.3247 55.024 62.9747 54.8451L61.3492 54.0207C61.1936 53.9351 61.007 53.9585 60.8747 54.0673C60.7425 54.1762 60.6881 54.3629 60.7503 54.5262V54.5496C60.7658 54.5962 60.797 54.6351 60.8203 54.674C61.3958 55.3896 61.6914 56.2996 61.6525 57.2173C61.6525 57.264 61.6603 57.3185 61.6681 57.3651Z" fill="#F2F2F4"/>
<path d="M65.0977 51.9518C65.0666 51.8429 64.9888 51.7574 64.8877 51.7029C64.7866 51.6485 64.6699 51.6407 64.561 51.6796H64.5377C64.491 51.6951 64.4521 51.7262 64.4133 51.7496C63.6977 52.3251 62.7877 52.6207 61.8699 52.5818C61.8233 52.5818 61.7688 52.5818 61.7221 52.5974C61.4966 52.6674 61.3799 52.9085 61.4499 53.134C61.481 53.2351 61.551 53.3129 61.6444 53.3596L61.6288 53.3752L63.2855 54.2229C63.4566 54.3085 63.651 54.3241 63.8299 54.2696C64.0088 54.2074 64.1566 54.0829 64.2421 53.9118L65.0666 52.2863C65.121 52.1851 65.1366 52.0607 65.0977 51.9518Z" fill="#F2F2F4"/>
<path d="M66.2802 57.4425C66.3269 57.4425 66.3736 57.4425 66.4202 57.4269C66.5836 57.3802 66.6924 57.2402 66.7158 57.0769C66.7391 56.9136 66.6536 56.7502 66.5058 56.6647L66.5136 56.6413L64.8491 55.8013C64.6858 55.7158 64.4913 55.7002 64.3124 55.7625C64.1336 55.8169 63.9858 55.9491 63.9002 56.1125L63.0758 57.738C62.9902 57.8936 63.0058 58.0802 63.1224 58.2202C63.2391 58.3524 63.4258 58.4069 63.5891 58.3447H63.6124C63.6591 58.3291 63.698 58.3058 63.7369 58.2747C64.4524 57.6991 65.3624 57.4036 66.2802 57.4425Z" fill="#F2F2F4"/>
<path d="M63.6585 54.6425C63.5107 54.8058 63.4718 55.0469 63.5651 55.2492C63.6585 55.4514 63.8685 55.5758 64.0862 55.5603C64.3118 55.5447 64.4985 55.4047 64.5762 55.1947C64.6462 54.9847 64.584 54.7514 64.4207 54.6036C64.1951 54.4091 63.8607 54.4247 63.6585 54.6425Z" fill="#F2F2F4"/>
<path d="M99.763 52.9238C99.8019 52.7605 99.7319 52.5894 99.5997 52.496C99.4597 52.4027 99.2808 52.3949 99.1408 52.4805L97.5853 53.4994C97.2586 53.7172 97.173 54.1527 97.383 54.4794L98.4019 56.0038C98.4953 56.1438 98.6664 56.2138 98.8297 56.1827C98.993 56.1516 99.1253 56.0272 99.1641 55.8638V55.8405C99.1719 55.7938 99.1719 55.7394 99.1641 55.6927C99.0164 54.7827 99.2108 53.8416 99.7008 53.056C99.7241 53.0172 99.7475 52.9705 99.763 52.9238Z" fill="#F2F2F4"/>
<path d="M95.7492 53.6472C95.7881 53.4605 95.7492 53.2739 95.6481 53.1183L94.6214 51.5939C94.5281 51.4539 94.3647 51.3761 94.1936 51.4072C94.0303 51.4383 93.8981 51.5628 93.8592 51.7339V51.7572C93.8514 51.8039 93.8514 51.8583 93.8592 51.905C94.007 52.8228 93.8125 53.7561 93.3225 54.5416C93.2992 54.5805 93.2759 54.6272 93.2603 54.6739C93.237 54.7828 93.2525 54.8994 93.3147 55.0005C93.377 55.0939 93.4781 55.1639 93.587 55.1872C93.6881 55.2105 93.797 55.1872 93.8825 55.1328L93.8903 55.1172L95.4458 54.0983C95.6014 53.9972 95.7103 53.8339 95.7492 53.6472Z" fill="#F2F2F4"/>
<path d="M98.7209 51.9201C98.822 51.8579 98.892 51.7568 98.9153 51.6479C98.9387 51.539 98.9231 51.4224 98.8609 51.3212C98.7987 51.2279 98.6975 51.1579 98.5887 51.1346H98.5653C98.5187 51.1268 98.472 51.1268 98.4175 51.1346C97.5075 51.2824 96.5664 51.0879 95.7887 50.5979C95.7498 50.5746 95.7031 50.5512 95.6564 50.5357C95.5476 50.5124 95.4309 50.5279 95.3298 50.5901C95.2364 50.6524 95.1664 50.7535 95.1431 50.8624C95.1198 50.9712 95.1353 51.0801 95.1976 51.1735L96.2164 52.7213C96.3176 52.8768 96.4809 52.9857 96.6676 53.0246C96.8542 53.0635 97.0409 53.0246 97.1964 52.9235L98.7209 51.9201Z" fill="#F2F2F4"/>
<path d="M97.3907 57.0463C97.554 57.0851 97.7251 57.0151 97.8185 56.8829C97.904 56.7507 97.9118 56.564 97.8262 56.424L96.8073 54.8685C96.5896 54.5418 96.154 54.4562 95.8273 54.674L94.3107 55.6929C94.1707 55.7863 94.0929 55.9496 94.124 56.1207C94.1551 56.284 94.2796 56.4163 94.4507 56.4551H94.474C94.5207 56.4629 94.5751 56.4629 94.6218 56.4551C95.5318 56.3074 96.4729 56.5018 97.2585 56.9918C97.2974 57.0151 97.344 57.0385 97.3907 57.0463Z" fill="#F2F2F4"/>
<path d="M96.3409 53.2818C96.0531 53.3751 95.8976 53.6862 95.9987 53.974C96.092 54.2618 96.4031 54.4174 96.6909 54.3163C96.9787 54.2151 97.1342 53.9118 97.0331 53.624C96.932 53.3362 96.6209 53.1884 96.3409 53.2818Z" fill="#F2F2F4"/>
<path d="M64.6232 47.1298L65.6421 48.6542C65.7355 48.7942 65.9066 48.8642 66.0699 48.8331C66.2332 48.802 66.3655 48.6776 66.4044 48.5142V48.4909C66.4121 48.4442 66.4121 48.3976 66.4044 48.3431C66.2566 47.4331 66.451 46.492 66.941 45.7064C66.9644 45.6675 66.9877 45.6209 67.0032 45.5742C67.0421 45.4109 66.9721 45.2398 66.8399 45.1464C66.6999 45.0531 66.521 45.0453 66.3732 45.1309L64.8177 46.1498C64.491 46.3675 64.4055 46.8031 64.6232 47.1298Z" fill="#F2F2F4"/>
<path d="M60.4927 47.3005C60.4694 47.4094 60.4849 47.526 60.5472 47.6271C60.6094 47.7205 60.7105 47.7905 60.8194 47.8138C60.9283 47.8294 61.0372 47.8138 61.1227 47.7671L62.6783 46.7482C63.0049 46.5305 63.0905 46.0949 62.8727 45.7682L61.8538 44.2438C61.7605 44.1038 61.5894 44.0338 61.4261 44.0649C61.2627 44.096 61.1305 44.2205 61.0916 44.3838V44.4071C61.0838 44.4538 61.0838 44.5082 61.0916 44.5549C61.2316 45.4649 61.0449 46.3905 60.5549 47.1682C60.5316 47.2071 60.5083 47.2538 60.4927 47.3005Z" fill="#F2F2F4"/>
<path d="M62.8729 43.2017C62.764 43.1784 62.6474 43.1939 62.5463 43.2561C62.4452 43.3184 62.3829 43.4195 62.3596 43.5284C62.3363 43.6295 62.3596 43.7306 62.414 43.8239H62.4296L63.4485 45.3795C63.5496 45.535 63.7129 45.6439 63.8996 45.6828C64.0863 45.7217 64.2729 45.6828 64.4285 45.5817L65.9529 44.5628C66.0929 44.4695 66.1629 44.2984 66.1318 44.135C66.1007 43.9717 65.9763 43.8395 65.8129 43.8006H65.7896C65.7429 43.7928 65.6885 43.7928 65.6418 43.8006C64.7318 43.9484 63.7907 43.7539 63.0052 43.2639C62.9663 43.2406 62.9196 43.2173 62.8729 43.2017Z" fill="#F2F2F4"/>
<path d="M61.5426 48.3345C61.4026 48.4279 61.3326 48.599 61.3637 48.7623C61.3949 48.9256 61.5193 49.0579 61.6826 49.0968H61.706C61.7526 49.1045 61.7993 49.1045 61.8537 49.0968C62.7637 48.949 63.7049 49.1434 64.4904 49.6334C64.5293 49.6568 64.576 49.6801 64.6226 49.6879C64.786 49.7268 64.9571 49.6568 65.0504 49.5245C65.1437 49.3923 65.1515 49.2134 65.066 49.0734L64.0471 47.5179C63.8293 47.1912 63.3937 47.1056 63.0671 47.3156L61.5426 48.3345Z" fill="#F2F2F4"/>
<path d="M63.9233 46.9658C64.2111 46.8725 64.3667 46.5614 64.2655 46.2736C64.2189 46.1336 64.1178 46.0247 63.9933 45.9547C63.8611 45.8925 63.7133 45.8847 63.5733 45.9314C63.2855 46.0247 63.13 46.3358 63.2311 46.6236C63.3244 46.9114 63.6355 47.0669 63.9233 46.9658Z" fill="#F2F2F4"/>
<path d="M93.9066 64.4741C93.9377 64.4352 93.961 64.3885 93.9766 64.3418C94.1399 63.9141 94.3733 63.5174 94.6688 63.1674C94.9721 62.8174 95.3299 62.5296 95.7344 62.3118C95.7733 62.2885 95.8121 62.2574 95.851 62.2263C95.9599 62.1019 95.9833 61.923 95.921 61.7752C95.851 61.6274 95.7033 61.5263 95.5322 61.5341V61.5107L93.6733 61.643C93.4866 61.6585 93.3077 61.7441 93.191 61.8919C93.0666 62.0319 93.0044 62.2185 93.0199 62.413L93.1521 64.233C93.1599 64.3496 93.2066 64.4585 93.2999 64.5363C93.3855 64.6063 93.4944 64.6452 93.6033 64.6374C93.7122 64.6296 93.821 64.5752 93.891 64.4896L93.9066 64.4741Z" fill="#F2F2F4"/>
<path d="M89.6596 61.2233L91.5185 61.0911C91.7052 61.0755 91.8841 60.99 92.0085 60.85C92.133 60.71 92.1952 60.5233 92.1719 60.3289L92.0397 58.5089C92.0319 58.3378 91.923 58.1822 91.7597 58.1278C91.5963 58.0733 91.4174 58.12 91.3008 58.2522L91.2852 58.2678C91.2541 58.3067 91.2308 58.3533 91.2152 58.4C90.8963 59.2711 90.2741 59.9944 89.4574 60.43C89.4185 60.4533 89.3796 60.4844 89.3408 60.5155C89.1852 60.6944 89.2085 60.9589 89.3874 61.1067C89.4652 61.1844 89.5663 61.2233 89.6596 61.2233Z" fill="#F2F2F4"/>
<path d="M93.6337 60.9429L95.4459 60.8107C95.5626 60.8107 95.6715 60.7562 95.7493 60.6629C95.9048 60.484 95.8815 60.2196 95.7026 60.0718L95.687 60.0562C95.6481 60.0251 95.6015 60.0018 95.5548 59.9862C94.6837 59.6673 93.9604 59.0451 93.5248 58.2284C93.5015 58.1896 93.4704 58.1507 93.4393 58.1118C93.3148 58.0029 93.1359 57.9796 92.9881 58.0496C92.8404 58.1196 92.7393 58.2751 92.747 58.4384L92.7393 58.4307L92.8715 60.2896C92.887 60.4762 92.9726 60.6551 93.1126 60.7796C93.2526 60.904 93.4393 60.9662 93.6337 60.9429Z" fill="#F2F2F4"/>
<path d="M91.6663 64.4971C91.6897 64.536 91.7208 64.5749 91.7519 64.6137C91.8763 64.7226 92.0552 64.7537 92.203 64.6837C92.3586 64.6137 92.4519 64.466 92.4597 64.3026L92.3274 62.4437C92.3119 62.2571 92.2263 62.0782 92.0863 61.9537C91.9463 61.8293 91.7597 61.7671 91.5652 61.7826L89.7452 61.9148C89.5741 61.9226 89.4185 62.0315 89.3641 62.1948C89.3097 62.3582 89.3563 62.5371 89.4885 62.6537L89.5041 62.6693C89.543 62.7004 89.5897 62.7237 89.6363 62.7393C90.5074 63.0582 91.2308 63.6882 91.6663 64.4971Z" fill="#F2F2F4"/>
<path d="M93.1518 61.4643C93.1829 61.3243 93.1518 61.1765 93.0663 61.0521C92.9807 60.9354 92.8563 60.8576 92.7163 60.8265C92.4207 60.7721 92.1329 60.9665 92.0785 61.2621C92.024 61.5576 92.2185 61.8454 92.514 61.8999C92.8096 61.9543 93.0974 61.7599 93.1518 61.4643Z" fill="#F2F2F4"/>
<path d="M70.9077 39.7482C71.0243 39.6237 71.0555 39.4448 70.9932 39.2893C70.931 39.1337 70.7677 39.0248 70.5966 39.0326L68.7377 39.1648C68.551 39.1804 68.3721 39.266 68.2477 39.406C68.1232 39.546 68.061 39.7326 68.0766 39.9271L68.2088 41.7471C68.2166 41.8637 68.2632 41.9726 68.3566 42.0504C68.5355 42.2059 68.7999 42.1826 68.9477 42.0037L68.9632 41.9882C68.9943 41.9493 69.0177 41.9104 69.0332 41.8637C69.3521 40.9926 69.9821 40.2693 70.791 39.8337C70.8299 39.8104 70.8688 39.7793 70.9077 39.7482Z" fill="#F2F2F4"/>
<path d="M64.5225 37.9437C64.4836 37.9671 64.4369 37.9982 64.4058 38.0293C64.3358 38.1148 64.2969 38.2237 64.3047 38.3326C64.3125 38.4415 64.3669 38.5504 64.4525 38.6204C64.5302 38.6982 64.6314 38.7371 64.7247 38.7371L66.5836 38.6048C66.7702 38.5893 66.9491 38.5037 67.0736 38.3637C67.198 38.2237 67.2602 38.0371 67.2369 37.8426L67.1047 36.0226C67.0969 35.9059 67.0502 35.7971 66.9569 35.7193C66.8714 35.6493 66.7625 35.6104 66.6536 35.6182C66.5447 35.6259 66.4358 35.6804 66.3658 35.7659L66.3502 35.7815C66.3191 35.8204 66.2958 35.8671 66.2802 35.9137C65.9614 36.7848 65.3314 37.5082 64.5225 37.9437Z" fill="#F2F2F4"/>
<path d="M70.7515 37.5632C70.7126 37.5321 70.6659 37.5165 70.6193 37.501C69.7482 37.1821 69.0248 36.5521 68.5893 35.7432C68.5659 35.7043 68.5348 35.6654 68.5037 35.6265C68.4182 35.5565 68.3093 35.5176 68.1926 35.5254C68.0837 35.5332 67.9748 35.5876 67.9048 35.6732C67.8348 35.751 67.8037 35.8521 67.8037 35.9532L67.9359 37.8043C67.9515 37.991 68.037 38.1698 68.1848 38.2865C68.3248 38.411 68.5115 38.4732 68.7059 38.4576L70.5182 38.3254C70.6893 38.3176 70.837 38.201 70.8915 38.0376C70.9459 37.8743 70.8993 37.6954 70.767 37.5787L70.7515 37.5632Z" fill="#F2F2F4"/>
<path d="M66.723 42.0271C66.7463 42.066 66.7774 42.1049 66.8085 42.1438C66.933 42.2605 67.1119 42.2916 67.2674 42.2216C67.4307 42.1516 67.5241 41.996 67.5241 41.8249L67.3919 39.966C67.3763 39.7794 67.2907 39.6005 67.143 39.4838C66.9952 39.3671 66.8163 39.2971 66.6219 39.3127L64.8019 39.4449C64.6307 39.4527 64.4752 39.5616 64.4207 39.7249C64.3663 39.8883 64.413 40.0671 64.5452 40.1838L64.5607 40.1994C64.5996 40.2305 64.6463 40.2538 64.693 40.2694C65.5641 40.5883 66.2874 41.2183 66.723 42.0271Z" fill="#F2F2F4"/>
<path d="M67.2056 38.5824C67.0812 38.7691 67.0812 39.0102 67.2056 39.1891C67.3301 39.3757 67.5479 39.4613 67.7656 39.4224C67.9834 39.3757 68.1545 39.2046 68.1934 38.9946C68.2556 38.6913 68.0612 38.4035 67.7656 38.349C67.5479 38.3102 67.3301 38.3957 67.2056 38.5824Z" fill="#F2F2F4"/>
<path d="M84.5652 69.5068C84.6119 69.4913 84.6507 69.4679 84.6896 69.4368C85.413 68.8613 86.323 68.5657 87.2408 68.6046C87.2874 68.6046 87.3341 68.6046 87.3808 68.589C87.5441 68.5424 87.653 68.4024 87.6763 68.239C87.6996 68.0679 87.6141 67.9046 87.4663 67.819L85.8096 66.9713C85.6463 66.8857 85.4519 66.8702 85.273 66.9324C85.0941 66.9868 84.9463 67.119 84.8608 67.2824L84.0363 68.9079C83.9507 69.0635 83.9741 69.2502 84.083 69.3824C84.1919 69.5146 84.3785 69.569 84.5419 69.5068H84.5652Z" fill="#F2F2F4"/>
<path d="M86.0433 63.1364C86.0122 63.0275 85.9344 62.9419 85.8333 62.8875C85.7322 62.833 85.6156 62.8253 85.5067 62.8641H85.4833C85.4367 62.8797 85.3978 62.9108 85.3589 62.9341C84.6433 63.5097 83.7411 63.8053 82.8155 63.7664C82.7689 63.7664 82.7222 63.7742 82.6755 63.7819C82.4578 63.8519 82.3333 64.093 82.4033 64.3108C82.4344 64.4042 82.5044 64.4897 82.59 64.5364L82.5822 64.5519L84.2389 65.3997C84.4022 65.4853 84.5967 65.5008 84.7756 65.4464C84.9544 65.3919 85.1022 65.2597 85.1878 65.0964L86.0122 63.4708C86.0667 63.3697 86.0822 63.2453 86.0433 63.1364Z" fill="#F2F2F4"/>
<path d="M86.1291 66.3477L87.7546 67.1722C87.9101 67.2577 88.0968 67.2344 88.229 67.1255C88.3612 67.0166 88.4157 66.83 88.3535 66.6666V66.6433C88.3379 66.5966 88.3068 66.5577 88.2835 66.5189C87.9957 66.1611 87.7779 65.7566 87.6379 65.3211C87.4979 64.8855 87.4279 64.4266 87.4513 63.9677C87.4513 63.9211 87.4513 63.8666 87.4357 63.82C87.4046 63.7111 87.3268 63.6255 87.2257 63.5711C87.1246 63.5166 87.0079 63.5089 86.9068 63.5477C86.8057 63.5789 86.7279 63.6489 86.6735 63.7344L86.6579 63.7422L85.8179 65.3989C85.7324 65.57 85.7168 65.7644 85.7791 65.9355C85.8413 66.1144 85.9657 66.2622 86.1291 66.3477Z" fill="#F2F2F4"/>
<path d="M82.6056 68.5413C82.6522 68.6969 82.7922 68.8135 82.9633 68.8291C83.1267 68.8446 83.29 68.7669 83.3756 68.6191L83.3911 68.6269L84.2311 66.9702C84.3167 66.8069 84.3322 66.6124 84.27 66.4335C84.2156 66.2546 84.0833 66.1069 83.92 66.0213L82.2945 65.1969C82.1389 65.1113 81.9522 65.1269 81.8122 65.2435C81.68 65.3602 81.6256 65.5469 81.6878 65.7102V65.7335C81.7033 65.7802 81.7345 65.8191 81.7578 65.858C82.3333 66.5735 82.6289 67.4835 82.59 68.4013C82.59 68.448 82.59 68.4946 82.6056 68.5413Z" fill="#F2F2F4"/>
<path d="M84.7831 65.6794C84.5809 65.7727 84.4565 65.9827 84.472 66.2005C84.4876 66.4261 84.6276 66.6127 84.8376 66.6905C85.0476 66.7605 85.2809 66.6983 85.4287 66.5349C85.6231 66.3172 85.6076 65.975 85.3898 65.7727C85.2265 65.625 84.9853 65.5861 84.7831 65.6794Z" fill="#F2F2F4"/>
<path d="M74.213 37.1193C74.2441 37.2282 74.3219 37.3138 74.423 37.3604C74.5241 37.4071 74.6408 37.4227 74.7419 37.3838H74.7652C74.8119 37.3682 74.8508 37.3449 74.8897 37.3138C75.6052 36.7382 76.5152 36.4427 77.433 36.4816C77.4797 36.4816 77.5263 36.4816 77.573 36.466C77.7286 36.4116 77.8452 36.2793 77.8608 36.1082C77.8763 35.9371 77.7986 35.7816 77.6508 35.7038L77.6819 35.696L76.0252 34.8482C75.8619 34.7627 75.6675 34.7471 75.4886 34.8093C75.3097 34.8638 75.1619 34.996 75.0763 35.1593L74.2441 36.7849C74.1897 36.886 74.1741 37.0104 74.213 37.1193Z" fill="#F2F2F4"/>
<path d="M73.0313 31.6359C72.9847 31.6359 72.9302 31.6437 72.8836 31.6592C72.6658 31.7292 72.5413 31.9704 72.6113 32.1881C72.6502 32.2892 72.7124 32.367 72.798 32.4215L74.4547 33.2692C74.618 33.3548 74.8124 33.3704 74.9913 33.3081C75.1702 33.2537 75.318 33.1215 75.4036 32.9581L76.228 31.3326C76.3136 31.177 76.2902 30.9904 76.1813 30.8581C76.0647 30.7259 75.8858 30.6715 75.7224 30.7337H75.6991C75.6524 30.7492 75.6136 30.7804 75.5747 30.8037C74.8591 31.3792 73.9491 31.6748 73.0313 31.6359Z" fill="#F2F2F4"/>
<path d="M77.6428 31.7067C77.6117 31.5978 77.5339 31.5122 77.4328 31.4578C77.3317 31.4034 77.215 31.3956 77.1061 31.4345C77.0128 31.4656 76.9272 31.5356 76.8806 31.6211H76.8728L76.0328 33.2778C75.9472 33.4411 75.9317 33.6356 75.9939 33.8145C76.0561 33.9933 76.1806 34.1411 76.3439 34.2267L77.9695 35.0511C78.125 35.1367 78.3117 35.1133 78.4439 35.0045C78.5761 34.8878 78.6306 34.7089 78.5684 34.5456V34.5222C78.545 34.4756 78.5217 34.4367 78.4906 34.3978C77.915 33.6822 77.6195 32.7722 77.6583 31.8545C77.6583 31.8078 77.6584 31.7534 77.6428 31.7067Z" fill="#F2F2F4"/>
<path d="M74.1434 33.8996L72.5178 33.0752C72.4167 33.0207 72.2922 33.0052 72.1834 33.0441C71.9656 33.1141 71.8411 33.3552 71.9111 33.5807V33.6041C71.9267 33.6507 71.9578 33.6896 71.9811 33.7285C72.5567 34.4441 72.8522 35.3541 72.8134 36.2718C72.8134 36.3185 72.8134 36.3652 72.8289 36.4118C72.86 36.5207 72.9378 36.6063 73.0389 36.6607C73.14 36.7152 73.2567 36.7229 73.3578 36.6841C73.4589 36.6529 73.5367 36.5829 73.5911 36.4974L73.6067 36.5052L74.4545 34.8485C74.54 34.6852 74.5556 34.4907 74.4934 34.3118C74.4389 34.133 74.3067 33.9852 74.1434 33.8996Z" fill="#F2F2F4"/>
<path d="M75.6445 34.4207C75.8389 34.1951 75.8234 33.8607 75.6056 33.6585C75.4423 33.5107 75.2012 33.4718 74.9989 33.5651C74.7967 33.6585 74.6723 33.8685 74.6878 34.0862C74.7034 34.3118 74.8434 34.4985 75.0534 34.5762C75.2634 34.6462 75.4967 34.584 75.6445 34.4207Z" fill="#F2F2F4"/>
</svg>
