<svg width="300" height="200" viewBox="0 0 300 200" fill="none" xmlns="http://www.w3.org/2000/svg">
<path d="M107.206 102.539L117.158 102.539C118.556 102.539 119.69 103.68 119.69 105.089C119.69 106.497 118.556 107.639 117.158 107.639L105.154 107.639C104.966 107.639 104.785 107.707 104.643 107.83L101.018 110.954C100.463 111.432 100.799 112.348 101.529 112.348L116.557 112.348C116.563 112.348 116.568 112.343 116.568 112.337C116.568 112.33 116.574 112.325 116.58 112.325C116.77 112.34 116.96 112.348 117.154 112.348C121.141 112.348 124.372 109.098 124.372 105.089C124.372 101.282 121.458 98.1595 117.75 97.8546C117.744 97.8541 117.739 97.8488 117.739 97.8424C117.739 97.8357 117.734 97.8301 117.727 97.8301L107.005 97.8301C105.606 97.8301 104.473 96.6883 104.473 95.2798C104.473 93.8712 105.606 92.7293 107.005 92.7293L118.993 92.7293C119.19 92.7293 119.381 92.6546 119.526 92.5199L122.891 89.3955C123.418 88.9067 123.074 88.0209 122.359 88.0209L107.206 88.0209C107.205 88.0209 107.204 88.0215 107.204 88.0223C107.204 88.023 107.204 88.0235 107.203 88.0235C107.139 88.0218 107.074 88.0209 107.009 88.0209C103.023 88.0209 99.791 91.2708 99.791 95.2798C99.791 99.2887 103.023 102.539 107.009 102.539C107.074 102.539 107.139 102.538 107.203 102.536C107.204 102.536 107.204 102.537 107.204 102.537C107.204 102.538 107.205 102.539 107.206 102.539Z" fill="white"/>
<path d="M165.173 88.0209C164.737 88.0209 164.385 88.3756 164.385 88.813L164.385 111.556C164.385 111.993 164.737 112.348 165.173 112.348L183.398 112.348C183.615 112.348 183.824 112.257 183.972 112.098L186.253 109.651C186.725 109.145 186.368 108.318 185.679 108.318L169.766 108.318C169.331 108.318 168.979 107.963 168.979 107.525L168.979 88.813C168.979 88.3756 168.625 88.0209 168.191 88.0209L165.173 88.0209Z" fill="white"/>
<path fill-rule="evenodd" clip-rule="evenodd" d="M135.984 88.0209C135.983 88.0209 135.981 88.0219 135.981 88.0231C135.981 88.0242 135.98 88.0252 135.979 88.0252C133.649 88.1261 131.779 90.0006 131.678 92.3349C131.678 92.336 131.677 92.337 131.677 92.337C131.676 92.337 131.676 92.3372 131.674 92.3377C131.674 92.3381 131.674 92.3386 131.674 92.3392L131.674 107.637C131.674 107.638 131.676 107.639 131.676 107.639C131.677 107.639 131.678 107.64 131.678 107.642C131.676 107.706 131.674 107.771 131.674 107.836C131.674 110.261 133.584 112.24 135.979 112.344C135.98 112.344 135.981 112.345 135.981 112.346L135.981 112.347L135.981 112.347C135.983 112.348 135.983 112.348 135.984 112.348L152.52 112.348C152.521 112.348 152.522 112.347 152.522 112.346L152.523 112.345L152.523 112.344L152.525 112.344C154.919 112.24 156.829 110.261 156.829 107.836C156.829 107.771 156.828 107.706 156.825 107.642C156.825 107.64 156.827 107.639 156.828 107.639C156.828 107.639 156.829 107.638 156.829 107.637L156.829 92.3392C156.829 92.338 156.828 92.337 156.827 92.337C156.825 92.337 156.825 92.336 156.825 92.335C156.724 90.0006 154.854 88.1261 152.525 88.0252C152.523 88.0252 152.522 88.0242 152.522 88.0231C152.522 88.0219 152.521 88.0209 152.52 88.0209L135.984 88.0209ZM139.065 92.337L139.064 92.3375L139.064 92.3383C139.064 92.3391 139.064 92.3397 139.063 92.3397C137.607 92.4032 136.438 93.5822 136.375 95.0507C136.375 95.0514 136.375 95.052 136.374 95.052C136.374 95.052 136.372 95.0526 136.372 95.0533L136.372 104.676C136.372 104.677 136.374 104.678 136.374 104.678C136.375 104.678 136.375 104.678 136.375 104.679C136.374 104.719 136.372 104.76 136.372 104.801C136.372 106.327 137.566 107.571 139.063 107.637C139.064 107.637 139.064 107.637 139.064 107.638L139.064 107.639L139.065 107.639L139.065 107.639L149.438 107.639L149.438 107.639L149.439 107.639L149.439 107.638C149.439 107.637 149.439 107.637 149.44 107.637C150.937 107.571 152.131 106.327 152.131 104.801C152.131 104.76 152.13 104.719 152.129 104.679L152.129 104.679L152.129 104.678L152.13 104.678C152.13 104.678 152.131 104.677 152.131 104.676L152.131 95.0533C152.131 95.0526 152.13 95.052 152.13 95.052C152.129 95.052 152.129 95.0514 152.129 95.0507C152.066 93.5822 150.896 92.4032 149.44 92.3397C149.439 92.3397 149.439 92.3391 149.439 92.3383L149.439 92.3377L149.438 92.3372L149.438 92.337L139.065 92.337Z" fill="white"/>
<path fill-rule="evenodd" clip-rule="evenodd" d="M212.757 111.556C212.757 111.993 213.107 112.348 213.538 112.348L216.629 112.348C217.06 112.348 217.41 111.993 217.41 111.556L217.41 92.7314C217.41 92.7303 217.409 92.7293 217.408 92.7293L217.408 92.7291L217.407 92.7288C217.407 92.7285 217.407 92.7279 217.407 92.7273C217.409 92.6629 217.41 92.5982 217.41 92.5332C217.41 90.1075 215.519 88.129 213.147 88.0252C213.146 88.0252 213.144 88.0242 213.144 88.0231C213.144 88.0219 213.143 88.0209 213.142 88.0209L197.266 88.0209C197.265 88.0209 197.264 88.0219 197.264 88.023C197.264 88.0242 197.262 88.025 197.261 88.025C197.198 88.0223 197.134 88.0209 197.07 88.0209C194.607 88.0209 192.61 90.0411 192.61 92.5332C192.61 92.5982 192.611 92.6629 192.614 92.7273C192.614 92.7283 192.614 92.7293 192.613 92.7293C192.611 92.7293 192.61 92.7303 192.61 92.7314L192.61 111.556C192.61 111.993 192.96 112.348 193.391 112.348L196.483 112.348C196.913 112.348 197.264 111.993 197.264 111.556L197.264 103.723C197.264 103.286 197.614 102.931 198.046 102.931L211.975 102.931C212.407 102.931 212.757 103.286 212.757 103.723L212.757 111.556ZM197.264 98.6076L197.264 94.6912C197.264 93.1744 198.479 91.9446 199.978 91.9446L210.042 91.9446C211.541 91.9446 212.757 93.1744 212.757 94.6912L212.757 98.6076C212.757 99.045 212.407 99.3997 211.975 99.3997L198.046 99.3997C197.614 99.3997 197.264 99.045 197.264 98.6076Z" fill="white"/>
<path fill-rule="evenodd" clip-rule="evenodd" d="M278.001 112.348C277.565 112.348 277.212 111.993 277.212 111.556L277.212 103.723C277.212 103.286 276.859 102.931 276.423 102.931L262.339 102.931C261.903 102.931 261.551 103.286 261.551 103.723L261.551 111.556C261.551 111.993 261.197 112.348 260.761 112.348L257.641 112.348C257.205 112.348 256.852 111.993 256.852 111.556L256.852 92.7314L256.852 92.7309L256.853 92.7302C256.853 92.7297 256.854 92.7293 256.854 92.7293C256.855 92.7293 256.856 92.7283 256.856 92.7273C256.854 92.6629 256.852 92.5982 256.852 92.5332C256.852 90.0411 258.867 88.0209 261.355 88.0209C261.419 88.0209 261.484 88.0223 261.548 88.025C261.55 88.025 261.551 88.0242 261.551 88.023C261.551 88.0219 261.552 88.0209 261.552 88.0209L277.602 88.0209C277.603 88.0209 277.604 88.0219 277.604 88.0231C277.604 88.0242 277.604 88.0252 277.605 88.0252C280 88.129 281.911 90.1075 281.911 92.5332C281.911 92.5982 281.908 92.6629 281.906 92.7273C281.906 92.7283 281.907 92.7293 281.908 92.7293C281.908 92.7293 281.91 92.7296 281.91 92.73C281.91 92.7304 281.911 92.7309 281.911 92.7314L281.911 111.556C281.911 111.993 281.557 112.348 281.121 112.348L278.001 112.348ZM261.551 94.6912L261.551 98.6076C261.551 99.045 261.903 99.3997 262.339 99.3997L276.423 99.3997C276.859 99.3997 277.212 99.045 277.212 98.6076L277.212 94.6912C277.212 93.1744 275.985 91.9446 274.472 91.9446L264.291 91.9446C262.777 91.9446 261.551 93.1744 261.551 94.6912Z" fill="white"/>
<path d="M229.042 88.0209C229.271 88.0209 229.489 88.1226 229.637 88.299L243.5 104.824C243.97 105.384 244.876 105.046 244.876 104.31L244.876 88.813C244.876 88.3756 245.225 88.0209 245.657 88.0209L248.748 88.0209C249.179 88.0209 249.529 88.3756 249.529 88.813L249.529 111.556C249.529 111.993 249.179 112.348 248.748 112.348L244.905 112.348C244.888 112.348 244.876 112.335 244.876 112.318C244.876 112.311 244.872 112.304 244.868 112.299L230.773 95.8892C230.297 95.3379 229.403 95.6783 229.403 96.4101L229.403 111.556C229.403 111.993 229.053 112.348 228.622 112.348L225.51 112.348C225.079 112.348 224.729 111.993 224.729 111.556L224.729 88.813C224.729 88.3756 225.079 88.0209 225.51 88.0209L229.042 88.0209Z" fill="white"/>
<path d="M27.9328 113.188C28.3182 112.803 28.8408 112.587 29.3856 112.587L79.6562 112.587C80.5719 112.587 81.0303 113.694 80.3825 114.341L70.4492 124.267C70.0638 124.652 69.5412 124.868 68.9963 124.868L18.7258 124.868C17.8101 124.868 17.3517 123.761 17.9994 123.114L27.9328 113.188Z" fill="white"/>
<path d="M27.9328 76.1053C28.3182 75.7202 28.8408 75.5038 29.3857 75.5038L79.6562 75.5039C80.5719 75.5039 81.0303 76.6112 80.3825 77.2586L70.4492 87.184C70.0638 87.569 69.5412 87.7853 68.9964 87.7853L18.7258 87.7853C17.8101 87.7853 17.3517 86.6779 17.9994 86.0307L27.9328 76.1053Z" fill="white"/>
<path d="M70.4492 94.5269C70.0638 94.1419 69.5412 93.9255 68.9963 93.9255L18.7258 93.9255C17.8101 93.9255 17.3517 95.0329 17.9994 95.6802L27.9328 105.606C28.3182 105.991 28.8408 106.207 29.3856 106.207L79.6562 106.207C80.5719 106.207 81.0303 105.1 80.3825 104.452L70.4492 94.5269Z" fill="white"/>
</svg>
