<svg width="160" height="100" viewBox="0 0 160 100" fill="none" xmlns="http://www.w3.org/2000/svg">
<path d="M63.4538 50.9092H67.3007C67.841 50.9092 68.2791 51.3505 68.2791 51.8949C68.2791 52.4394 67.841 52.8807 67.3007 52.8807H62.6606C62.5882 52.8807 62.5182 52.9068 62.4631 52.9543L61.0621 54.1619C60.8476 54.3467 60.9774 54.7006 61.2596 54.7006H67.0684C67.0707 54.7006 67.0726 54.6987 67.0726 54.6963C67.0726 54.6937 67.0749 54.6917 67.0772 54.6919C67.1505 54.6977 67.2242 54.7006 67.2988 54.7006C68.8399 54.7006 70.0889 53.4445 70.0889 51.8949C70.0889 50.4235 68.9626 49.2166 67.5293 49.0987C67.527 49.0986 67.5251 49.0965 67.5251 49.094C67.5251 49.0914 67.5233 49.0893 67.5205 49.0893H63.376C62.8357 49.0893 62.3976 48.648 62.3976 48.1035C62.3976 47.5591 62.8357 47.1177 63.376 47.1177H68.0099C68.0859 47.1177 68.1596 47.0888 68.2156 47.0368L69.5164 45.8291C69.7203 45.6402 69.5873 45.2979 69.3107 45.2979H63.4538C63.4535 45.2979 63.4533 45.2981 63.4533 45.2984C63.4533 45.2986 63.4531 45.2988 63.4528 45.2988C63.4279 45.2982 63.4029 45.2979 63.3778 45.2979C61.837 45.2979 60.5879 46.554 60.5879 48.1035C60.5879 49.6531 61.837 50.9092 63.3778 50.9092C63.4029 50.9092 63.4279 50.9089 63.4528 50.9082C63.4531 50.9082 63.4533 50.9084 63.4533 50.9087C63.4533 50.909 63.4535 50.9092 63.4538 50.9092Z" fill="#F6F0EA"/>
<path d="M85.8584 45.2979C85.6899 45.2979 85.5537 45.4349 85.5537 45.604V54.3945C85.5537 54.5636 85.6899 54.7006 85.8584 54.7006H92.9026C92.9865 54.7006 93.0673 54.6656 93.1246 54.6039L94.0065 53.6584C94.1889 53.4629 94.0508 53.1429 93.7844 53.1429H87.6337C87.4657 53.1429 87.3295 53.0058 87.3295 52.8367V45.604C87.3295 45.4349 87.1927 45.2979 87.0248 45.2979H85.8584Z" fill="#F6F0EA"/>
<path fill-rule="evenodd" clip-rule="evenodd" d="M74.5768 45.2979C74.5763 45.2979 74.5758 45.2982 74.5758 45.2987C74.5758 45.2991 74.5754 45.2995 74.5749 45.2995C73.6744 45.3385 72.9517 46.063 72.9125 46.9653C72.9125 46.9657 72.9121 46.9661 72.9121 46.9661C72.9116 46.9661 72.9116 46.9662 72.9111 46.9664C72.9111 46.9665 72.9111 46.9667 72.9111 46.9669V52.8799C72.9111 52.8804 72.9116 52.8807 72.9116 52.8807C72.9121 52.8807 72.9125 52.8811 72.9125 52.8816C72.9116 52.9064 72.9111 52.9315 72.9111 52.9566C72.9111 53.8941 73.6492 54.6589 74.5749 54.699C74.5754 54.699 74.5758 54.6994 74.5758 54.6998V54.7002V54.7004C74.5763 54.7006 74.5763 54.7006 74.5768 54.7006H80.9682C80.9687 54.7006 80.9691 54.7002 80.9691 54.6998L80.9696 54.6994V54.6991L80.9701 54.699C81.8957 54.6589 82.6338 53.8941 82.6338 52.9566C82.6338 52.9315 82.6334 52.9064 82.6324 52.8816C82.6324 52.8811 82.6329 52.8807 82.6334 52.8807C82.6334 52.8807 82.6338 52.8804 82.6338 52.8799V46.9669C82.6338 46.9665 82.6334 46.9661 82.6329 46.9661C82.6324 46.9661 82.6324 46.9657 82.6324 46.9653C82.5932 46.063 81.8705 45.3385 80.9701 45.2995C80.9696 45.2995 80.9691 45.2991 80.9691 45.2987C80.9691 45.2982 80.9687 45.2979 80.9682 45.2979H74.5768ZM75.7679 46.9661L75.7674 46.9663V46.9666C75.7674 46.9669 75.7674 46.9671 75.767 46.9671C75.2043 46.9917 74.7522 47.4474 74.7279 48.015C74.7279 48.0152 74.7279 48.0155 74.7275 48.0155C74.7275 48.0155 74.727 48.0157 74.727 48.016V51.7355C74.727 51.7358 74.7275 51.736 74.7275 51.736C74.7279 51.736 74.7279 51.7362 74.7279 51.7365C74.7275 51.7521 74.727 51.7679 74.727 51.7837C74.727 52.3734 75.1884 52.8545 75.767 52.8797C75.7674 52.8797 75.7674 52.8799 75.7674 52.8802V52.8805L75.7679 52.8806V52.8807H79.7771V52.8807L79.7775 52.8805V52.8802C79.7775 52.8799 79.7775 52.8797 79.778 52.8797C80.3565 52.8545 80.818 52.3734 80.818 51.7837C80.818 51.7679 80.8175 51.7521 80.817 51.7365V51.7364V51.7362L80.8175 51.736C80.8175 51.736 80.818 51.7358 80.818 51.7355V48.016C80.818 48.0157 80.8175 48.0155 80.8175 48.0155C80.817 48.0155 80.817 48.0152 80.817 48.015C80.7928 47.4474 80.3407 46.9917 79.778 46.9671C79.7775 46.9671 79.7775 46.9669 79.7775 46.9666V46.9664L79.7771 46.9662V46.9661H75.7679Z" fill="#F6F0EA"/>
<path fill-rule="evenodd" clip-rule="evenodd" d="M104.251 54.3945C104.251 54.5636 104.386 54.7006 104.553 54.7006H105.748C105.914 54.7006 106.05 54.5636 106.05 54.3945V47.1185C106.05 47.1181 106.049 47.1177 106.049 47.1177V47.1176L106.048 47.1175C106.048 47.1174 106.048 47.1172 106.048 47.1169C106.049 47.0921 106.05 47.0671 106.05 47.0419C106.05 46.1044 105.318 45.3396 104.402 45.2995C104.401 45.2995 104.401 45.2991 104.401 45.2987C104.401 45.2982 104.4 45.2979 104.4 45.2979H98.2634C98.263 45.2979 98.2625 45.2982 98.2625 45.2986C98.2625 45.2991 98.262 45.2994 98.2616 45.2994C98.2373 45.2984 98.2126 45.2979 98.1878 45.2979C97.2356 45.2979 96.4639 46.0787 96.4639 47.0419C96.4639 47.0671 96.4643 47.0921 96.4653 47.1169C96.4653 47.1173 96.4653 47.1177 96.4648 47.1177C96.4643 47.1177 96.4639 47.1181 96.4639 47.1185V54.3945C96.4639 54.5636 96.5992 54.7006 96.7657 54.7006H97.9606C98.1272 54.7006 98.2625 54.5636 98.2625 54.3945V51.367C98.2625 51.1979 98.3978 51.0608 98.5648 51.0608H103.949C104.116 51.0608 104.251 51.1979 104.251 51.367V54.3945ZM98.2625 49.3898V47.876C98.2625 47.2897 98.7323 46.8144 99.3118 46.8144H103.202C103.781 46.8144 104.251 47.2897 104.251 47.876V49.3898C104.251 49.5589 104.116 49.6959 103.949 49.6959H98.5648C98.3978 49.6959 98.2625 49.5589 98.2625 49.3898Z" fill="#F6F0EA"/>
<path fill-rule="evenodd" clip-rule="evenodd" d="M129.469 54.7006C129.3 54.7006 129.163 54.5636 129.163 54.3945V51.367C129.163 51.1979 129.027 51.0608 128.859 51.0608H123.415C123.247 51.0608 123.11 51.1979 123.11 51.367V54.3945C123.11 54.5636 122.974 54.7006 122.805 54.7006H121.599C121.431 54.7006 121.294 54.5636 121.294 54.3945V47.1185V47.1183L121.294 47.1181C121.294 47.1179 121.295 47.1177 121.295 47.1177C121.295 47.1177 121.296 47.1173 121.296 47.1169C121.295 47.0921 121.294 47.0671 121.294 47.0419C121.294 46.0787 122.073 45.2979 123.035 45.2979C123.059 45.2979 123.085 45.2984 123.109 45.2994C123.11 45.2994 123.11 45.2991 123.11 45.2986C123.11 45.2982 123.111 45.2979 123.111 45.2979H129.314C129.315 45.2979 129.315 45.2982 129.315 45.2987C129.315 45.2991 129.315 45.2995 129.316 45.2995C130.241 45.3396 130.98 46.1044 130.98 47.0419C130.98 47.0671 130.979 47.0921 130.978 47.1169C130.978 47.1173 130.978 47.1177 130.979 47.1177C130.979 47.1177 130.979 47.1178 130.979 47.118C130.979 47.1181 130.98 47.1183 130.98 47.1185V54.3945C130.98 54.5636 130.843 54.7006 130.675 54.7006H129.469ZM123.11 47.876V49.3898C123.11 49.5589 123.247 49.6959 123.415 49.6959H128.859C129.027 49.6959 129.163 49.5589 129.163 49.3898V47.876C129.163 47.2897 128.689 46.8144 128.104 46.8144H124.169C123.584 46.8144 123.11 47.2897 123.11 47.876Z" fill="#F6F0EA"/>
<path d="M110.545 45.2979C110.634 45.2979 110.718 45.3371 110.775 45.4053L116.133 51.7925C116.315 52.0091 116.665 51.8785 116.665 51.5939V45.604C116.665 45.4349 116.8 45.2979 116.967 45.2979H118.162C118.328 45.2979 118.464 45.4349 118.464 45.604V54.3945C118.464 54.5636 118.328 54.7006 118.162 54.7006H116.676C116.67 54.7006 116.665 54.6955 116.665 54.6892C116.665 54.6864 116.664 54.6838 116.662 54.6817L111.214 48.3391C111.03 48.126 110.684 48.2576 110.684 48.5404V54.3945C110.684 54.5636 110.549 54.7006 110.383 54.7006H109.18C109.013 54.7006 108.878 54.5636 108.878 54.3945V45.604C108.878 45.4349 109.013 45.2979 109.18 45.2979H110.545Z" fill="#F6F0EA"/>
<path d="M32.8131 55.0254C32.9621 54.8766 33.1641 54.793 33.3747 54.793H52.8051C53.1591 54.793 53.3363 55.221 53.0859 55.4712L49.2465 59.3076C49.0975 59.4565 48.8955 59.5401 48.6849 59.5401H29.2545C28.9005 59.5401 28.7233 59.112 28.9737 58.8618L32.8131 55.0254Z" fill="#F6F0EA"/>
<path d="M32.8131 40.6924C32.9621 40.5436 33.1641 40.46 33.3747 40.46H52.8051C53.1591 40.46 53.3363 40.888 53.0859 41.1382L49.2465 44.9745C49.0975 45.1234 48.8955 45.207 48.6849 45.207H29.2545C28.9005 45.207 28.7233 44.7789 28.9737 44.5288L32.8131 40.6924Z" fill="#F6F0EA"/>
<path d="M49.2465 47.8125C49.0975 47.6637 48.8955 47.5801 48.6849 47.5801H29.2545C28.9005 47.5801 28.7233 48.0081 28.9737 48.2583L32.8131 52.0946C32.9621 52.2435 33.1641 52.3271 33.3747 52.3271H52.8051C53.1591 52.3271 53.3363 51.8991 53.0859 51.6489L49.2465 47.8125Z" fill="#F6F0EA"/>
</svg>
