<svg width="300" height="200" viewBox="0 0 300 200" fill="none" xmlns="http://www.w3.org/2000/svg">
<mask id="mask0_147_2419" style="mask-type:alpha" maskUnits="userSpaceOnUse" x="38" y="65" width="70" height="70">
<path d="M38.0001 65.0001L107.6 65.0001L107.6 134.6L38 134.6L38.0001 65.0001Z" fill="white"/>
</mask>
<g mask="url(#mask0_147_2419)">
<path fill-rule="evenodd" clip-rule="evenodd" d="M93.3853 95.851C82.1678 89.1892 63.6647 88.5767 52.9563 91.8267C51.2363 92.3487 49.4178 91.3775 48.8971 89.6584C48.3756 87.9376 49.3455 86.1203 51.0667 85.5976C63.3593 81.8663 83.7938 82.5873 96.7077 90.2526C98.2548 91.171 98.7617 93.1686 97.845 94.7128C96.9275 96.2595 94.9282 96.7694 93.3853 95.851ZM93.0179 105.718C92.2313 106.995 90.5616 107.396 89.2858 106.611C79.9342 100.863 65.6731 99.1975 54.6089 102.556C53.1744 102.989 51.6589 102.181 51.2234 100.749C50.7908 99.3138 51.5999 97.8008 53.0323 97.3649C65.6719 93.5293 81.384 95.3868 92.1253 101.988C93.4007 102.773 93.8021 104.444 93.0179 105.718ZM88.7597 115.194C88.1343 116.219 86.7991 116.541 85.7773 115.916C77.6054 110.921 67.3195 109.793 55.2061 112.56C54.0388 112.828 52.8756 112.096 52.6093 110.929C52.3417 109.762 53.0705 108.599 54.2403 108.333C67.4966 105.302 78.8674 106.606 88.0404 112.211C89.0631 112.836 89.3851 114.172 88.7597 115.194ZM72.7999 65.0001C53.5808 65.0001 38 80.5801 38 99.7996C38 119.02 53.5808 134.6 72.7999 134.6C92.0198 134.6 107.6 119.02 107.6 99.7996C107.6 80.5802 92.0198 65.0001 72.7999 65.0001Z" fill="#0D0D0D"/>
</g>
<path fill-rule="evenodd" clip-rule="evenodd" d="M132.678 97.1264C126.67 95.6935 125.6 94.6879 125.6 92.5748C125.6 90.5784 127.48 89.2354 130.275 89.2354C132.984 89.2354 135.67 90.2556 138.487 92.3558C138.573 92.4194 138.679 92.4447 138.785 92.4281C138.89 92.4123 138.982 92.3549 139.044 92.2677L141.978 88.1321C142.099 87.9617 142.066 87.7269 141.903 87.5968C138.551 84.9069 134.776 83.5992 130.364 83.5992C123.876 83.5992 119.344 87.4921 119.344 93.0631C119.344 99.0367 123.254 101.152 130.009 102.785C135.758 104.109 136.729 105.218 136.729 107.202C136.729 109.4 134.767 110.767 131.609 110.767C128.102 110.767 125.241 109.585 122.041 106.813C121.961 106.745 121.853 106.714 121.752 106.719C121.646 106.728 121.549 106.777 121.482 106.858L118.192 110.773C118.055 110.936 118.072 111.178 118.231 111.319C121.955 114.643 126.534 116.399 131.476 116.399C138.467 116.399 142.984 112.579 142.984 106.667C142.984 101.67 139.999 98.9066 132.678 97.1264Z" fill="#0D0D0D"/>
<path fill-rule="evenodd" clip-rule="evenodd" d="M163.876 103.824C163.876 108.043 161.277 110.987 157.556 110.987C153.877 110.987 151.102 107.909 151.102 103.824C151.102 99.7386 153.877 96.6606 157.556 96.6606C161.217 96.6606 163.876 99.6722 163.876 103.824ZM158.801 91.2011C155.771 91.2011 153.286 92.3945 151.236 94.8401L151.236 92.0874C151.236 91.8705 151.06 91.6935 150.843 91.6935L145.463 91.6935C145.246 91.6935 145.07 91.8705 145.07 92.0874L145.07 122.673C145.07 122.891 145.246 123.068 145.463 123.068L150.843 123.068C151.06 123.068 151.236 122.891 151.236 122.673L151.236 113.019C153.286 115.319 155.772 116.443 158.801 116.443C164.432 116.443 170.131 112.109 170.131 103.824C170.131 95.5366 164.432 91.2011 158.801 91.2011Z" fill="#0D0D0D"/>
<path fill-rule="evenodd" clip-rule="evenodd" d="M184.741 111.031C180.884 111.031 177.976 107.932 177.976 103.823C177.976 99.6975 180.784 96.703 184.652 96.703C188.534 96.703 191.461 99.8022 191.461 103.913C191.461 108.039 188.635 111.031 184.741 111.031ZM184.741 91.2011C177.49 91.2011 171.809 96.7845 171.809 103.913C171.809 110.965 177.451 116.49 184.652 116.49C191.929 116.49 197.627 110.925 197.627 103.823C197.627 96.7454 191.968 91.2011 184.741 91.2011Z" fill="#0D0D0D"/>
<path fill-rule="evenodd" clip-rule="evenodd" d="M213.111 91.6945L207.191 91.6945L207.191 85.6415C207.191 85.4242 207.015 85.2471 206.798 85.2471L201.418 85.2471C201.201 85.2471 201.024 85.4242 201.024 85.6415L201.024 91.6945L198.437 91.6945C198.22 91.6945 198.045 91.8715 198.045 92.0888L198.045 96.7123C198.045 96.9297 198.22 97.1067 198.437 97.1067L201.024 97.1067L201.024 109.071C201.024 113.906 203.43 116.358 208.177 116.358C210.106 116.358 211.707 115.959 213.216 115.103C213.339 115.035 213.415 114.903 213.415 114.762L213.415 110.359C213.415 110.223 213.344 110.095 213.229 110.024C213.111 109.95 212.965 109.947 212.845 110.006C211.809 110.527 210.807 110.768 209.687 110.768C207.961 110.768 207.191 109.985 207.191 108.228L207.191 97.1067L213.111 97.1067C213.328 97.1067 213.504 96.9297 213.504 96.7123L213.504 92.0888C213.504 91.8715 213.328 91.6945 213.111 91.6945Z" fill="#0D0D0D"/>
<path fill-rule="evenodd" clip-rule="evenodd" d="M233.74 91.7153L233.74 90.9719C233.74 88.7848 234.578 87.8095 236.459 87.8095C237.58 87.8095 238.481 88.0327 239.491 88.3689C239.615 88.4083 239.745 88.3884 239.845 88.3144C239.949 88.24 240.008 88.1208 240.008 87.9944L240.008 83.4607C240.008 83.2874 239.896 83.1337 239.73 83.083C238.664 82.7659 237.3 82.4401 235.258 82.4401C230.289 82.4401 227.662 85.2389 227.662 90.5298L227.662 91.6684L225.077 91.6684C224.861 91.6684 224.683 91.8454 224.683 92.0623L224.683 96.7099C224.683 96.9272 224.861 97.1043 225.077 97.1043L227.662 97.1043L227.662 115.559C227.662 115.776 227.838 115.953 228.054 115.953L233.435 115.953C233.652 115.953 233.829 115.776 233.829 115.559L233.829 97.1043L238.852 97.1043L246.547 115.554C245.673 117.493 244.814 117.878 243.642 117.878C242.694 117.878 241.696 117.595 240.675 117.037C240.579 116.984 240.465 116.975 240.362 117.007C240.259 117.043 240.172 117.12 240.129 117.22L238.305 121.22C238.218 121.409 238.293 121.632 238.475 121.729C240.378 122.761 242.097 123.2 244.22 123.2C248.193 123.2 250.389 121.35 252.325 116.372L261.659 92.2522C261.705 92.1309 261.692 91.9942 261.617 91.8865C261.543 91.7797 261.424 91.7153 261.294 91.7153L255.693 91.7153C255.525 91.7153 255.375 91.8221 255.32 91.9796L249.582 108.368L243.298 91.9688C243.24 91.8163 243.094 91.7153 242.93 91.7153L233.74 91.7153Z" fill="#0D0D0D"/>
<path fill-rule="evenodd" clip-rule="evenodd" d="M221.781 91.6924L216.401 91.6924C216.183 91.6924 216.006 91.8695 216.006 92.0868L216.006 115.559C216.006 115.776 216.183 115.953 216.401 115.953L221.781 115.953C221.998 115.953 222.175 115.776 222.175 115.559L222.175 92.0868C222.175 91.8695 221.998 91.6924 221.781 91.6924Z" fill="#0D0D0D"/>
<path fill-rule="evenodd" clip-rule="evenodd" d="M219.117 81.0056C216.986 81.0056 215.257 82.731 215.257 84.8624C215.257 86.995 216.986 88.7225 219.117 88.7225C221.248 88.7225 222.975 86.995 222.975 84.8624C222.975 82.731 221.248 81.0056 219.117 81.0056Z" fill="#0D0D0D"/>
</svg>
