<svg width="160" height="100" viewBox="0 0 160 100" fill="none" xmlns="http://www.w3.org/2000/svg">
<mask id="mask0" mask-type="alpha" maskUnits="userSpaceOnUse" x="32" y="36" width="29" height="29">
<path d="M32 36H61V65H32V36Z" fill="white"/>
</mask>
<g mask="url(#mask0)">
<path fill-rule="evenodd" clip-rule="evenodd" d="M55.0772 48.8545C50.4032 46.0788 42.6936 45.8236 38.2318 47.1778C37.5151 47.3952 36.7574 46.9906 36.5405 46.2743C36.3232 45.5573 36.7273 44.8001 37.4445 44.5823C42.5664 43.0276 51.0808 43.328 56.4615 46.5219C57.1062 46.9045 57.3174 47.7369 56.9354 48.3803C56.5531 49.0247 55.7201 49.2372 55.0772 48.8545ZM54.9241 52.9658C54.5964 53.4978 53.9007 53.6648 53.3691 53.338C49.4726 50.9427 43.5305 50.2489 38.9204 51.6483C38.3227 51.8289 37.6912 51.4919 37.5098 50.8953C37.3295 50.2974 37.6666 49.6669 38.2635 49.4853C43.5299 47.8871 50.0767 48.6611 54.5522 51.4116C55.0836 51.7388 55.2509 52.4349 54.9241 52.9658ZM53.1499 56.9141C52.8893 57.3412 52.333 57.4752 51.9072 57.215C48.5022 55.1338 44.2165 54.6637 39.1692 55.8166C38.6828 55.9282 38.1982 55.6232 38.0872 55.1372C37.9757 54.6508 38.2794 54.166 38.7668 54.0552C44.2902 52.7924 49.0281 53.3356 52.8502 55.6714C53.2763 55.9316 53.4105 56.4881 53.1499 56.9141ZM46.5 36C38.492 36 32 42.4917 32 50.4998C32 58.5084 38.492 65.0001 46.5 65.0001C54.5082 65.0001 61.0001 58.5084 61.0001 50.4998C61.0001 42.4917 54.5082 36 46.5 36Z" fill="#F2F2F4"/>
</g>
<path fill-rule="evenodd" clip-rule="evenodd" d="M71.4496 49.3863C68.9462 48.7893 68.5002 48.3703 68.5002 47.4898C68.5002 46.658 69.2835 46.0984 70.4481 46.0984C71.577 46.0984 72.6962 46.5235 73.87 47.3986C73.9055 47.4251 73.95 47.4356 73.9938 47.4287C74.0376 47.4221 74.0762 47.3982 74.102 47.3619L75.3244 45.6387C75.3747 45.5677 75.361 45.4699 75.2933 45.4157C73.8965 44.2949 72.3236 43.75 70.4851 43.75C67.7819 43.75 65.8938 45.3721 65.8938 47.6933C65.8938 50.1823 67.5226 51.0636 70.3373 51.7439C72.7329 52.2956 73.1372 52.7579 73.1372 53.5845C73.1372 54.5004 72.3196 55.0697 71.0039 55.0697C69.5427 55.0697 68.3507 54.5773 67.0171 53.4226C66.9841 53.3942 66.9389 53.381 66.897 53.3833C66.8528 53.3871 66.8125 53.4075 66.7844 53.4413L65.4138 55.0723C65.3563 55.1402 65.3636 55.2413 65.4299 55.2999C66.9815 56.685 68.8894 57.4164 70.9485 57.4164C73.8615 57.4164 75.7436 55.8248 75.7436 53.3615C75.7436 51.2795 74.4997 50.1281 71.4496 49.3863Z" fill="#F2F2F4"/>
<path fill-rule="evenodd" clip-rule="evenodd" d="M84.4483 52.1764C84.4483 53.9343 83.3654 55.1611 81.8149 55.1611C80.282 55.1611 79.1257 53.8786 79.1257 52.1764C79.1257 50.4743 80.282 49.1918 81.8149 49.1918C83.3405 49.1918 84.4483 50.4466 84.4483 52.1764ZM82.3338 46.917C81.0712 46.917 80.0356 47.4143 79.1817 48.4333V47.2863C79.1817 47.1959 79.1082 47.1222 79.0177 47.1222H76.7761C76.6855 47.1222 76.6123 47.1959 76.6123 47.2863V60.0304C76.6123 60.1209 76.6855 60.1947 76.7761 60.1947H79.0177C79.1082 60.1947 79.1817 60.1209 79.1817 60.0304V56.0078C80.0358 56.9663 81.0716 57.4345 82.3338 57.4345C84.6798 57.4345 87.0547 55.6286 87.0547 52.1764C87.0547 48.7234 84.6798 46.917 82.3338 46.917Z" fill="#F2F2F4"/>
<path fill-rule="evenodd" clip-rule="evenodd" d="M93.1421 55.1795C91.5351 55.1795 90.3236 53.8881 90.3236 52.1762C90.3236 50.4572 91.4932 49.2095 93.1051 49.2095C94.7224 49.2095 95.9423 50.5008 95.9423 52.2138C95.9423 53.9326 94.7645 55.1795 93.1421 55.1795ZM93.1421 46.917C90.1208 46.917 87.7539 49.2434 87.7539 52.2138C87.7539 55.1521 90.1046 57.4541 93.1051 57.4541C96.1371 57.4541 98.5113 55.1353 98.5113 52.1762C98.5113 49.2271 96.1533 46.917 93.1421 46.917Z" fill="#F2F2F4"/>
<path fill-rule="evenodd" clip-rule="evenodd" d="M104.963 47.1229H102.496V44.6008C102.496 44.5103 102.423 44.4365 102.333 44.4365H100.091C100.001 44.4365 99.9268 44.5103 99.9268 44.6008V47.1229H98.8488C98.7586 47.1229 98.6855 47.1967 98.6855 47.2872V49.2137C98.6855 49.3042 98.7586 49.378 98.8488 49.378H99.9268V54.3631C99.9268 56.3777 100.929 57.3993 102.907 57.3993C103.711 57.3993 104.378 57.2332 105.007 56.8765C105.058 56.8481 105.09 56.7931 105.09 56.7346V54.8999C105.09 54.8433 105.06 54.7898 105.012 54.7601C104.963 54.7295 104.902 54.7279 104.852 54.7527C104.42 54.97 104.003 55.0702 103.536 55.0702C102.817 55.0702 102.496 54.7439 102.496 54.0118V49.378H104.963C105.054 49.378 105.127 49.3042 105.127 49.2137V47.2872C105.127 47.1967 105.054 47.1229 104.963 47.1229Z" fill="#F2F2F4"/>
<path fill-rule="evenodd" clip-rule="evenodd" d="M113.558 47.1313V46.8215C113.558 45.9102 113.907 45.5039 114.691 45.5039C115.158 45.5039 115.534 45.5968 115.954 45.7369C116.006 45.7534 116.06 45.745 116.102 45.7142C116.145 45.6832 116.17 45.6335 116.17 45.5809V43.6919C116.17 43.6197 116.123 43.5556 116.054 43.5345C115.61 43.4023 115.041 43.2666 114.19 43.2666C112.12 43.2666 111.026 44.4328 111.026 46.6373V47.1117H109.949C109.858 47.1117 109.784 47.1855 109.784 47.2758V49.2123C109.784 49.3029 109.858 49.3767 109.949 49.3767H111.026V57.066C111.026 57.1566 111.099 57.2303 111.189 57.2303H113.431C113.521 57.2303 113.595 57.1566 113.595 57.066V49.3767H115.688L118.894 57.0641C118.53 57.8718 118.172 58.0323 117.684 58.0323C117.289 58.0323 116.873 57.9146 116.448 57.6819C116.408 57.6599 116.36 57.6563 116.317 57.6696C116.274 57.6847 116.238 57.7165 116.22 57.7582L115.46 59.425C115.424 59.5038 115.455 59.5964 115.531 59.6371C116.324 60.0668 117.04 60.25 117.925 60.25C119.58 60.25 120.495 59.479 121.302 57.4047L125.191 47.355C125.21 47.3044 125.205 47.2475 125.174 47.2026C125.143 47.1581 125.093 47.1313 125.039 47.1313H122.705C122.635 47.1313 122.573 47.1758 122.55 47.2414L120.159 54.07L117.541 47.2369C117.516 47.1733 117.456 47.1313 117.387 47.1313H113.558Z" fill="#F2F2F4"/>
<path fill-rule="evenodd" clip-rule="evenodd" d="M108.575 47.1221H106.333C106.243 47.1221 106.169 47.1958 106.169 47.2864V57.0667C106.169 57.1571 106.243 57.2308 106.333 57.2308H108.575C108.665 57.2308 108.739 57.1571 108.739 57.0667V47.2864C108.739 47.1958 108.665 47.1221 108.575 47.1221Z" fill="#F2F2F4"/>
<path fill-rule="evenodd" clip-rule="evenodd" d="M107.465 42.6689C106.577 42.6689 105.856 43.3879 105.856 44.2759C105.856 45.1645 106.577 45.8843 107.465 45.8843C108.353 45.8843 109.073 45.1645 109.073 44.2759C109.073 43.3879 108.353 42.6689 107.465 42.6689Z" fill="#F2F2F4"/>
<mask id="mask1" mask-type="alpha" maskUnits="userSpaceOnUse" x="125" y="47" width="4" height="4">
<path d="M125.527 47.1035H128.691V50.2671H125.527V47.1035Z" fill="white"/>
</mask>
<g mask="url(#mask1)">
<path fill-rule="evenodd" clip-rule="evenodd" d="M127.197 48.0955H126.786V48.6193H127.197C127.402 48.6193 127.524 48.5188 127.524 48.3571C127.524 48.1867 127.402 48.0955 127.197 48.0955ZM127.463 48.8426L127.909 49.4673H127.533L127.131 48.8944H126.786V49.4673H126.471V47.8113H127.209C127.594 47.8113 127.847 48.0082 127.847 48.3396C127.847 48.6111 127.69 48.777 127.463 48.8426ZM127.113 47.2604C126.305 47.2604 125.694 47.9026 125.694 48.6894C125.694 49.4755 126.301 50.1092 127.105 50.1092C127.913 50.1092 128.525 49.4673 128.525 48.6802C128.525 47.8941 127.917 47.2604 127.113 47.2604ZM127.105 50.2671C126.218 50.2671 125.527 49.5546 125.527 48.6894C125.527 47.824 126.227 47.1035 127.113 47.1035C128 47.1035 128.691 47.8158 128.691 48.6802C128.691 49.5456 127.992 50.2671 127.105 50.2671Z" fill="#F2F2F4"/>
</g>
</svg>
