<svg width="300" height="200" viewBox="0 0 300 200" fill="none" xmlns="http://www.w3.org/2000/svg">
<path d="M40.4164 104.545L40.4164 80.6012L34.5967 80.6012L34.5967 104.878C34.5967 114.023 40.9707 120.064 49.2845 120.064C53.3305 120.064 56.9332 118.512 59.5382 115.796L59.5382 119.399L65.3024 119.399L65.3024 80.6012L59.4828 80.6012L59.4828 104.545C59.4828 110.697 55.3259 114.854 49.9496 114.854C44.5179 114.854 40.4164 110.808 40.4164 104.545Z" fill="#0D0D0D"/>
<path d="M71.0238 119.399L76.5664 119.399L76.5664 115.852C79.1159 118.457 82.7186 120.064 86.6538 120.064C94.9676 120.064 101.508 113.468 101.508 105.321C101.508 97.118 94.9676 90.5224 86.6538 90.5224C82.7186 90.5224 79.1714 92.1297 76.6218 94.7347L76.6218 80.6012L71.0238 80.6012L71.0238 119.399ZM76.5109 105.321C76.5109 99.8338 80.8895 95.5106 86.2658 95.5106C91.5866 95.5106 95.9652 99.8338 95.9652 105.321C95.9652 110.753 91.5866 115.131 86.2658 115.131C80.8341 115.131 76.5109 110.753 76.5109 105.321Z" fill="#0D0D0D"/>
<path d="M104.828 105.266C104.828 113.69 111.368 120.009 119.848 120.009C125.003 120.009 129.215 117.736 132.042 113.967L127.996 110.974C125.89 113.801 123.118 115.131 119.848 115.131C115.082 115.131 111.257 111.695 110.482 107.095L133.483 107.095L133.483 105.266C133.483 96.8409 127.497 90.5778 119.35 90.5778C111.091 90.5778 104.828 97.2843 104.828 105.266ZM119.239 95.4552C123.396 95.4552 126.887 98.3373 127.83 102.661L110.592 102.661C111.59 98.3373 115.082 95.4552 119.239 95.4552Z" fill="#0D0D0D"/>
<path d="M152.114 96.1203L152.114 90.9103L150.174 90.9103C147.071 90.9103 144.798 92.3514 143.412 94.6239L143.412 91.132L137.87 91.132L137.87 119.399L143.468 119.399L143.468 103.326C143.468 98.947 146.128 96.1203 149.786 96.1203L152.114 96.1203Z" fill="#0D0D0D"/>
<path d="M186.224 80.6012L180.404 80.6012L163.943 119.399L169.984 119.399L174.141 109.201L192.265 109.201L196.422 119.399L202.685 119.399L186.224 80.6012ZM176.247 104.102L183.231 87.1414L190.159 104.102L176.247 104.102Z" fill="#0D0D0D"/>
<path d="M196.83 85.7004L208.913 85.7004L208.913 119.399L214.732 119.399L214.732 85.7004L226.871 85.7004L226.871 80.6012L196.83 80.6012L196.83 85.7004Z" fill="#0D0D0D"/>
<path d="M226.73 100C226.73 111.251 235.21 120.064 246.572 120.064C251.56 120.064 256.216 118.013 259.375 114.023L259.375 119.399L264.973 119.399L264.973 98.6699L245.574 98.6699L245.574 103.714L259.375 103.714L259.375 104.323C258.766 109.81 254.221 114.799 247.016 114.799C239.034 114.799 232.605 108.591 232.605 100C232.605 91.2983 239.09 85.257 246.849 85.257C252.059 85.257 256.66 87.9174 259.375 91.908L264.031 88.7488C260.318 83.4834 254.276 79.9361 246.905 79.9361C235.487 79.9361 226.73 88.6933 226.73 100Z" fill="#0D0D0D"/>
</svg>
