<svg width="160" height="100" viewBox="0 0 160 100" fill="none" xmlns="http://www.w3.org/2000/svg">
<path d="M36.3204 51.8122V42.2652H34V51.9448C34 55.5912 36.5414 58 39.8564 58C41.4696 58 42.9061 57.3812 43.9448 56.2983V57.7348H46.2431V42.2652H43.9227V51.8122C43.9227 54.2652 42.2652 55.9227 40.1216 55.9227C37.9558 55.9227 36.3204 54.3094 36.3204 51.8122Z" fill="#F6F0EA"/>
<path d="M48.5243 57.7348H50.7343V56.3204C51.7509 57.3591 53.1873 58 54.7564 58C58.0713 58 60.6791 55.3702 60.6791 52.1215C60.6791 48.8508 58.0713 46.221 54.7564 46.221C53.1873 46.221 51.773 46.8619 50.7564 47.9006V42.2652H48.5243V57.7348ZM50.7122 52.1215C50.7122 49.9337 52.4581 48.2099 54.6017 48.2099C56.7232 48.2099 58.4691 49.9337 58.4691 52.1215C58.4691 54.2873 56.7232 56.0332 54.6017 56.0332C52.436 56.0332 50.7122 54.2873 50.7122 52.1215Z" fill="#F6F0EA"/>
<path d="M62.0029 52.0994C62.0029 55.4586 64.6107 57.9779 67.9919 57.9779C70.0471 57.9779 71.7267 57.0718 72.8538 55.5691L71.2405 54.3757C70.4007 55.5028 69.2958 56.0332 67.9919 56.0332C66.0913 56.0332 64.5665 54.663 64.2571 52.8287H73.4284V52.0994C73.4284 48.7403 71.0416 46.2431 67.793 46.2431C64.5002 46.2431 62.0029 48.9171 62.0029 52.0994ZM67.7488 48.1878C69.4063 48.1878 70.7985 49.337 71.1742 51.0608H64.3013C64.6991 49.337 66.0913 48.1878 67.7488 48.1878Z" fill="#F6F0EA"/>
<path d="M80.857 48.453V46.3757H80.0836C78.846 46.3757 77.9399 46.9503 77.3874 47.8564V46.4641H75.1775V57.7348H77.4095V51.326C77.4095 49.5801 78.4703 48.453 79.9289 48.453H80.857Z" fill="#F6F0EA"/>
<path d="M94.4574 42.2652H92.1369L85.5734 57.7348H87.9822L89.6397 53.6685H96.8662L98.5237 57.7348H101.021L94.4574 42.2652ZM90.4795 51.6354L93.264 44.8729L96.0264 51.6354H90.4795Z" fill="#F6F0EA"/>
<path d="M98.6863 44.2983H103.504V57.7348H105.824V44.2983H110.664V42.2652H98.6863V44.2983Z" fill="#F6F0EA"/>
<path d="M110.608 50C110.608 54.4862 113.989 58 118.52 58C120.509 58 122.365 57.1823 123.625 55.5912V57.7348H125.857V49.4696H118.122V51.4807H123.625V51.7238C123.382 53.9116 121.569 55.9006 118.696 55.9006C115.514 55.9006 112.951 53.4254 112.951 50C112.951 46.5304 115.536 44.1215 118.63 44.1215C120.708 44.1215 122.542 45.1823 123.625 46.7735L125.481 45.5138C124 43.4144 121.592 42 118.652 42C114.1 42 110.608 45.4917 110.608 50Z" fill="#F6F0EA"/>
</svg>
