<?xml version="1.0" encoding="UTF-8"?><svg id="Layer_2" xmlns="http://www.w3.org/2000/svg" viewBox="0 0 366.98 75.49"><defs><style>.cls-1{fill:#0d0d0d;stroke-width:0px;}</style></defs><g id="Layer_1-2"><path class="cls-1" d="M0,1.67h9.6v46.89L46.69,1.67h12.23l-28.6,34.36,29.31,37.8h-12.03l-23.45-30.62-14.55,16.98v13.64H0V1.67Z"/><path class="cls-1" d="M67.6,1.67h49.82v8.08h-40.22v22.94h37.49v8.08h-37.49v24.96h40.53v8.08h-50.13V1.67Z"/><path class="cls-1" d="M256.92,44.11L230.04,1.67h11.42l20.11,33.75h.2L281.99,1.67h11.42l-26.88,42.45v29.71h-9.6v-29.71Z"/><path class="cls-1" d="M310.28,70.44c-5.8-3.37-10.38-7.95-13.74-13.74-3.37-5.79-5.05-12.09-5.05-18.9s1.68-13.2,5.05-19c3.37-5.79,7.95-10.37,13.74-13.74,5.79-3.37,12.13-5.05,19-5.05s13.1,1.68,18.9,5.05c5.79,3.37,10.37,7.95,13.74,13.74,3.37,5.8,5.05,12.13,5.05,19s-1.68,13.1-5.05,18.9c-3.37,5.79-7.95,10.38-13.74,13.74-5.79,3.37-12.09,5.05-18.9,5.05s-13.21-1.68-19-5.05ZM301.39,53.86c2.9,4.92,6.8,8.83,11.72,11.72,4.92,2.9,10.31,4.35,16.17,4.35s11.15-1.45,16.07-4.35c4.92-2.9,8.83-6.8,11.72-11.72,2.9-4.92,4.35-10.27,4.35-16.07s-1.45-11.25-4.35-16.17c-2.9-4.92-6.81-8.83-11.72-11.72-4.92-2.9-10.27-4.35-16.07-4.35s-11.25,1.45-16.17,4.35c-4.92,2.9-8.83,6.81-11.72,11.72-2.9,4.92-4.35,10.31-4.35,16.17s1.45,11.15,4.35,16.07ZM312.81,15.97h19.81c4.31,0,7.68,1,10.11,2.98,2.42,1.99,3.64,5.04,3.64,9.15,0,2.09-.5,3.89-1.52,5.41s-2.17,2.68-3.49,3.49c-1.31.81-2.44,1.31-3.39,1.52v.2l3.54,2.33,5.15,18.49h-6.27l-3.64-15.46c-.2-.88-.71-1.6-1.52-2.17-.81-.57-1.72-.86-2.73-.86h-13.95v18.49h-5.76V15.97ZM332.62,36.18c2.63,0,4.58-.71,5.86-2.12,1.28-1.42,1.92-3.3,1.92-5.66s-.64-4.11-1.92-5.46c-1.28-1.35-3.23-2.02-5.86-2.02h-14.05v15.26h14.05Z"/><polygon class="cls-1" points="163.01 1.67 148.86 61.7 148.76 61.7 148.65 61.7 134.5 1.67 124.7 1.67 143.19 73.82 148.76 73.82 154.32 73.82 172.81 1.67 163.01 1.67"/><polygon class="cls-1" points="215.56 1.67 201.41 61.7 201.3 61.7 201.2 61.7 187.05 1.67 177.25 1.67 195.74 73.82 201.3 73.82 206.87 73.82 225.36 1.67 215.56 1.67"/></g></svg>