<?xml version="1.0" encoding="UTF-8"?><svg id="Layer_2" xmlns="http://www.w3.org/2000/svg" viewBox="0 0 467.78 172.96"><defs><style>.cls-1{fill:#ff5a00;}.cls-1,.cls-2{stroke-width:0px;}.cls-2{fill:#fff;}</style></defs><g id="Layer_1-2"><rect class="cls-1" x="147.41" y="-147.41" width="172.96" height="467.78" transform="translate(320.37 -147.41) rotate(90)"/><path class="cls-2" d="M50.4,50.4h9.6v46.89l37.09-46.89h12.23l-28.6,34.36,29.31,37.8h-12.03l-23.45-30.62-14.55,16.98v13.64h-9.6V50.4Z"/><path class="cls-2" d="M118,50.4h49.82v8.08h-40.22v22.94h37.49v8.08h-37.49v24.96h40.53v8.08h-50.13V50.4Z"/><path class="cls-2" d="M307.32,92.85l-26.88-42.45h11.42l20.11,33.75h.2l20.21-33.75h11.42l-26.88,42.45v29.71h-9.6v-29.71Z"/><path class="cls-2" d="M360.68,119.17c-5.8-3.37-10.38-7.95-13.74-13.74-3.37-5.79-5.05-12.09-5.05-18.9s1.68-13.2,5.05-19c3.37-5.79,7.95-10.37,13.74-13.74,5.79-3.37,12.13-5.05,19-5.05s13.1,1.68,18.9,5.05c5.79,3.37,10.37,7.95,13.74,13.74,3.37,5.8,5.05,12.13,5.05,19s-1.68,13.1-5.05,18.9c-3.37,5.79-7.95,10.38-13.74,13.74-5.79,3.37-12.09,5.05-18.9,5.05s-13.21-1.68-19-5.05ZM351.79,102.6c2.9,4.92,6.8,8.83,11.72,11.72,4.92,2.9,10.31,4.35,16.17,4.35s11.15-1.45,16.07-4.35c4.92-2.9,8.83-6.8,11.72-11.72,2.9-4.92,4.35-10.27,4.35-16.07s-1.45-11.25-4.35-16.17c-2.9-4.92-6.81-8.83-11.72-11.72-4.92-2.9-10.27-4.35-16.07-4.35s-11.25,1.45-16.17,4.35c-4.92,2.9-8.83,6.81-11.72,11.72-2.9,4.92-4.35,10.31-4.35,16.17s1.45,11.15,4.35,16.07ZM363.21,64.7h19.81c4.31,0,7.68,1,10.11,2.98,2.42,1.99,3.64,5.04,3.64,9.15,0,2.09-.5,3.89-1.52,5.41s-2.17,2.68-3.49,3.49c-1.31.81-2.44,1.31-3.39,1.52v.2l3.54,2.33,5.15,18.49h-6.27l-3.64-15.46c-.2-.88-.71-1.6-1.52-2.17-.81-.57-1.72-.86-2.73-.86h-13.95v18.49h-5.76v-43.56ZM383.02,84.91c2.63,0,4.58-.71,5.86-2.12,1.28-1.42,1.92-3.3,1.92-5.66s-.64-4.11-1.92-5.46c-1.28-1.35-3.23-2.02-5.86-2.02h-14.05v15.26h14.05Z"/><polygon class="cls-2" points="213.41 50.4 199.26 110.43 199.16 110.43 199.05 110.43 184.9 50.4 175.1 50.4 193.59 122.56 199.16 122.56 204.72 122.56 223.21 50.4 213.41 50.4"/><polygon class="cls-2" points="265.96 50.4 251.81 110.43 251.7 110.43 251.6 110.43 237.45 50.4 227.65 50.4 246.14 122.56 251.7 122.56 257.27 122.56 275.76 50.4 265.96 50.4"/></g></svg>