<?xml version="1.0" encoding="UTF-8"?><svg id="Layer_2" xmlns="http://www.w3.org/2000/svg" xmlns:xlink="http://www.w3.org/1999/xlink" viewBox="0 0 350 350"><defs><style>.cls-1{clip-path:url(#clippath);}.cls-2{fill:none;}.cls-2,.cls-3,.cls-4{stroke-width:0px;}.cls-3{fill:#fff;fill-rule:evenodd;}.cls-4{fill:#ff5a00;}</style><clipPath id="clippath"><path class="cls-2" d="M175,0h0c96.65,0,175,78.35,175,175h0c0,96.65-78.35,175-175,175h0C78.35,350,0,271.65,0,175h0C0,78.35,78.35,0,175,0Z"/></clipPath></defs><g id="Layer_1-2"><g class="cls-1"><path class="cls-4" d="M175,0h0c96.65,0,175,78.35,175,175h0c0,96.65-78.35,175-175,175h0C78.35,350,0,271.65,0,175h0C0,78.35,78.35,0,175,0Z"/><path class="cls-3" d="M143.9,82.69c1.09,6.94,2.74,17.39,1.07,22.57-1.45,4.49.43,13.54,2.16,21.87h0c1.22,5.88,2.37,11.39,2.22,14.69-.17,3.67-.84,7.05-1.48,10.28-1.32,6.64-2.52,12.68.96,19.5,5.18,10.13,4.85,28.54,4.02,38.23-.42,4.83.84,8.94,2.33,13.84,1.51,4.93,3.26,10.67,3.79,18.74,1.06,16.08,3.32,39.55,8.25,44.66,4.93,5.11,11.76-9.57,10.71-19.23-.96-8.83,2.35-17.09,5.37-24.62,2.22-5.54,4.28-10.69,4.37-15.37l.97-55.55c.02-1.36.04-2.62.06-3.8h0c.17-10.99.22-14.8,3.14-25.93.1-.37.19-.73.29-1.1,3.16-12.07,6.77-25.84,3.69-35.31-1.63-5.01-.57-12.44.4-19.31.93-6.52,1.78-12.53.2-15.49-3.24-6.08-11.78-14.93-20.27-7.72-5.95,5.06-2.84,18.33-.49,28.35,1,4.28,1.86,7.96,1.83,10.16-.04,2.14.08,5.25.21,8.75.32,8.54.72,19.42-.79,24.37-2.13,6.99-3.83,28.05-.64,36.81,2.55,7.01-1.85,16.48-4.37,20.34-2.28-3.27-6.41-11.96-4.66-20.5,2.19-10.67,3.37-20.69.55-31.45l-.24-.91c-2.79-10.62-6.29-23.93-3.84-33.97,2.52-10.33,4.48-26.7,2.54-30.75l-.08-.18c-1.94-4.06-4.88-10.22-13.86-6.09-7.28,3.35-8.69,5.22-9.16,7.54-.15.75.24,3.26.76,6.58ZM99.98,119.9c-.37,1.69-.07,2.9.31,4.41.55,2.21,1.26,5.06.26,11-1.69,9.98-4.16,27.54-2.45,34.77,1.71,7.23,4.78,23.01,4.14,31.03-.64,8.02-1.45,25.75,1.09,33.16,1.66,4.84,3.95,6.83,6.66,9.2,1.44,1.25,3,2.61,4.64,4.56,2.35,2.78,3.53,7.05,4.53,10.67,1.02,3.68,1.84,6.68,3.53,6.71,3.34.06,7.47-6.56,7.6-13.59.12-7.03,1.58-14.03,5.31-16.98,3.73-2.95,7.27-12.86,5.34-18.32-2.6-7.33-1.23-15.92.37-21.25,1.6-5.33,1.65-8.34-1.34-9.23-3-.89-13.64,5.12-14.51,7.45-.63,1.66.4,5.9,1.15,8.99.3,1.24.56,2.3.64,2.92.3,2.18-2.11,6.15-3.62,5.96-.98-.13-1.6-3.99-2.18-7.56-.31-1.92-.61-3.76-.95-4.88-.95-3.2-3.89-26.34,1.42-23.74,1.42.69,2.83,1.53,4.15,2.32,3.62,2.15,6.53,3.87,6.83,1.06.11-1.05.39-3.04.73-5.47.9-6.42,2.23-15.94,2.05-19.59-.25-5.03-4.41-6.27-12.34-2.22-7.93,4.04-.97-30.98.51-29.45.63.65.72,2.42.83,4.37.14,2.64.3,5.63,1.82,6.72,1.08.77,2.29.65,3.33.54,1.49-.15,2.62-.27,2.48,2.4-.25,4.51,3.04,7.59,6.36,9.15,3.32,1.56,4.75-3.77,5.12-6.1.28-1.72-1.98-13.4-3.44-20.95-.53-2.73-.95-4.92-1.11-5.9-.36-2.21.54-7.99,1.33-13.11h0c.53-3.43,1.02-6.56,1.05-8.11.07-3.85-5.43-14.82-10.89-8.39-1.97,2.31-3.2,4.97-4.26,7.24-1.89,4.05-3.23,6.93-7.15,4.61-6.13-3.62-12.88-.06-12.1,3.3.49,2.11-2.13,8.71-4.38,14.36-1.33,3.36-2.53,6.38-2.87,7.94ZM67,126.05c1.09,2.24.95,8.39.79,14.74-.13,5.43-.26,11,.37,14.4.48-.37,1.03-.67,1.61-.99h0c1.98-1.07,4.34-2.35,5.4-7.43,1.05-5.02.57-7.31-.29-11.49-.33-1.57-.71-3.42-1.08-5.78-1.03-6.47,2.36-20.21,10.61-23.08,8.25-2.87,11.02,1.2,12.44,6.07,1.42,4.88-.21,11.76-3.12,15.84-2.26,3.18-1.43,10.36-.78,15.9.18,1.57.35,3.01.43,4.18.27,4.13-2.09,7.26-4.05,9.85-.56.74-1.09,1.44-1.51,2.11-1.61,2.54.85,8.3,3.59,14.75.48,1.12.97,2.26,1.44,3.42,2.22,5.36.34,16.7-1.19,25.97-.69,4.15-1.3,7.88-1.45,10.47-.27,4.63.84,7.18,1.8,9.41.78,1.8,1.47,3.4,1.28,5.71-.42,5.18-4.54,11.13-6.86,9.92-1-.52-1.51-2.76-2.15-5.54-.84-3.67-1.9-8.28-4.58-11.15-2.36-2.52-6.68-8.35-8.92-16.22-.97-3.42-.26-5.22.58-7.32.52-1.3,1.08-2.72,1.31-4.7.59-5.18-1.8-11.91-3.64-12.11-1.84-.2-3.09,4.63-3.22,11.99h0c-.13,7.36-.35,19.91,1.16,29.47,1.51,9.57-3.43,14.17-6.97,16.28-2.02,1.2-3.02-3.49-4.08-8.48-.8-3.77-1.63-7.7-2.97-9.38-1.73-2.18-2.07-7.08-2.41-12.11-.27-3.99-.55-8.06-1.54-10.89-.39-1.11-.77-2.03-1.11-2.88-1.65-4.02-2.56-6.21.14-18.06,2.09-17.1-1.44-30.61-3.85-39.88-1.71-6.53-2.86-10.95-1.1-13.01,4.26-4.99,21.3-5.4,23.94,0ZM200.85,128.31c-1.45-12.41-.59-24.49.14-34.86h0c.32-4.59.62-8.85.69-12.65.12-7.03,5.14-6.94,7.42-3.55,1.1,1.63,2.78,1.02,4.78.3,2.16-.78,4.68-1.7,7.26-.09,4.96,3.1,4.36,18.82-.45,26.1-4.81,7.28-.4,22.75,4.08,34.55,2.8,7.38,2,11.29.95,16.39-.63,3.04-1.34,6.51-1.43,11.39-.18,10.44,3.72,16.91,5.69,18.84.15-8.37,1.38-23.7,4.57-31.72,3.38-8.48,3.72-21.69.54-31.12-3.18-9.43,2.19-29.42,7.53-28.99,5.34.43,11.59,6.56,11.45,14.93-.05,2.84-.5,5.23-.95,7.57-.87,4.56-1.7,8.95.53,16.19,3.34,10.81-1.14,26.76-5.32,36.39-3.33,7.68-2.42,15.43-1.34,24.55h0c.27,2.32.56,4.73.79,7.24,1.12,12.4-5.07,41.08-9.86,47.36-2.7,3.53-2.36,8.94-2.05,13.88.24,3.85.46,7.42-.78,9.59-1.69,2.96-5.3,1.83-6.55-3.22-.35-1.43-.57-3.33-.8-5.43-.59-5.33-1.32-11.91-4.87-15.09-2.81-2.53-2.92-5.2-3.03-7.85-.08-2.01-.16-4.01-1.41-5.95-4.21-6.52-10.03-18.69-11.56-27.65-1.67-9.75.3-20.26,1.85-28.57h0c.86-4.57,1.59-8.47,1.51-11.21-.1-3.74-1.97-9.69-4.04-16.25-2.19-6.95-4.6-14.6-5.35-21.06ZM259.51,157.7c1.97,8.94,4.02,18.2,20.14,24.17,17.22,6.37,4.14,30.43,1.85,27.69-2.29-2.74-2.17-9.15-2.06-15.55.11-6.41-12.73-15.4-19.18-8.77-6.45,6.63-2.26,15.14,3.63,21.32,3.67,3.84,3.71,8.41,3.75,13.02.02,2.8.05,5.62.88,8.31,2.21,7.12,7.56,17.26,10.04,16.7,2.07-.46,2.99-3.48,4.02-6.82,1.23-4.01,2.61-8.49,6.26-9.53,6.7-1.91,11.86-11.26,11.37-21.05-.28-5.46,2.77-10.97,5.35-15.65,2.05-3.71,3.82-6.91,3.41-9.16-.35-1.98-1.48-3.1-2.66-4.27-1.84-1.83-3.81-3.78-3.1-9.33.3-2.32.97-5.16,1.72-8.31,2.19-9.22,5.02-21.15.96-30.77-5.44-12.91-15.37-16.8-19.13-11.8-3.75,4.99-6.19,10.69,1.33,19.59,7.51,8.9.56,25.31-3.8,26.58-4.36,1.27-8.23-5.88-10.11-12.66-1.15-4.16,1.46-8.51,3.67-12.18,1.39-2.31,2.62-4.36,2.65-5.92.04-2.02-.69-3.55-1.45-5.17-.76-1.61-1.57-3.32-1.69-5.68-.25-4.73-7.81-10.59-11.78-12.35-3.69-1.63-5.39,4.51-5.89,8.01-.04.26-.07.51-.09.74-.85,7.11-2.49,28.24-.48,37.01.14.61.27,1.22.41,1.83Z"/></g></g></svg>