<svg width="224" height="224" viewBox="0 0 224 224" fill="none" xmlns="http://www.w3.org/2000/svg">
<rect width="224" height="224" rx="112" fill="#FFF84B"/>
<path fill-rule="evenodd" clip-rule="evenodd" d="M92.0991 52.925C92.7993 57.3656 93.8544 64.0575 92.7826 67.3724C91.8539 70.2449 93.059 76.0407 94.1674 81.3715C94.9495 85.1329 95.6835 88.6628 95.5858 90.7712C95.4769 93.1225 95.0481 95.2829 94.6373 97.3531L94.6373 97.3532C93.794 101.602 93.0262 105.471 95.2533 109.831C98.5657 116.315 98.3602 128.094 97.8238 134.297C97.5566 137.387 98.3599 140.017 99.3172 143.151C100.282 146.309 101.402 149.978 101.742 155.144C102.419 165.439 103.869 180.459 107.024 183.728C110.178 186.996 114.551 177.601 113.875 171.423C113.258 165.775 115.377 160.485 117.309 155.663C118.73 152.115 120.05 148.821 120.102 145.825L120.722 110.276C120.738 109.404 120.75 108.598 120.761 107.843C120.866 100.812 120.903 98.3717 122.767 91.2459L122.952 90.5401L122.952 90.54C124.977 82.8142 127.286 74.0029 125.315 67.9406C124.272 64.7339 124.948 59.9772 125.573 55.58C126.165 51.4099 126.712 47.5631 125.703 45.6686C123.63 41.7765 118.162 36.1113 112.73 40.7292C108.922 43.9661 110.912 52.4611 112.415 58.8753L112.415 58.8754C113.056 61.6122 113.609 63.9702 113.584 65.3792C113.56 66.7502 113.634 68.7396 113.718 70.9817C113.921 76.4446 114.18 83.4077 113.214 86.5804C111.852 91.0553 110.76 104.532 112.803 110.137C114.438 114.622 111.62 120.685 110.007 123.156C108.545 121.059 105.902 115.501 107.025 110.036C108.428 103.206 109.183 96.7924 107.376 89.9059L107.223 89.324C105.437 82.5277 103.199 74.0096 104.768 67.5817C106.382 60.969 107.635 50.4941 106.396 47.902L106.342 47.7891C105.102 45.1931 103.217 41.2458 97.4741 43.8902C92.8123 46.0366 91.9143 47.2333 91.6095 48.7149C91.5109 49.194 91.7645 50.8022 92.0991 52.9248L92.0991 52.925ZM63.9856 76.739C63.7496 77.821 63.9433 78.5966 64.1846 79.5626C64.5381 80.9783 64.9938 82.8028 64.3488 86.5994C63.2637 92.9868 61.6863 104.226 62.7831 108.851C63.8799 113.476 65.8446 123.578 65.4339 128.712C65.0232 133.846 64.5041 145.191 66.1342 149.932C67.1992 153.03 68.6616 154.306 70.3959 155.819C71.3159 156.622 72.3124 157.491 73.3668 158.734C74.8735 160.512 75.6281 163.248 76.2661 165.562C76.916 167.919 77.445 169.838 78.525 169.857C80.6653 169.894 83.3083 165.656 83.3867 161.159C83.4652 156.662 84.3997 152.179 86.7877 150.293C89.1756 148.407 91.4434 142.063 90.2035 138.571C88.5372 133.877 89.4178 128.382 90.4407 124.972C91.4636 121.562 91.4972 119.635 89.5804 119.066C87.6635 118.497 80.8525 122.341 80.2913 123.831C79.8911 124.893 80.5508 127.608 81.0311 129.584C81.2243 130.38 81.3884 131.055 81.4429 131.456C81.6326 132.851 80.0896 135.395 79.1283 135.271C78.5039 135.191 78.1019 132.719 77.7306 130.435C77.5303 129.204 77.3389 128.027 77.1263 127.31C76.5197 125.264 74.6372 110.45 78.0336 112.116C78.9407 112.561 79.8461 113.098 80.6911 113.599C83.0098 114.973 84.8726 116.076 85.061 114.274C85.1315 113.599 85.3092 112.329 85.5267 110.774L85.5267 110.774C86.1015 106.666 86.954 100.572 86.8394 98.2388C86.6814 95.0228 84.0191 94.2265 78.9428 96.8156C73.8665 99.4047 78.3253 76.9895 79.2716 77.9701C79.6744 78.3875 79.735 79.517 79.8023 80.7699C79.8931 82.4603 79.9959 84.3753 80.9675 85.0689C81.6598 85.5632 82.4339 85.4848 83.096 85.4178C84.0517 85.321 84.7742 85.2479 84.6812 86.9546C84.5238 89.8437 86.6304 91.8086 88.7538 92.8097C90.8773 93.8108 91.7932 90.3993 92.0333 88.9039C92.2097 87.8059 90.766 80.3275 89.833 75.4949L89.833 75.4948L89.833 75.4948L89.833 75.4946L89.8329 75.4942C89.4953 73.7456 89.2246 72.3435 89.1218 71.7156C88.8903 70.3014 89.4652 66.6001 89.9736 63.3275C90.3148 61.1313 90.6259 59.1282 90.6432 58.1392C90.6862 55.6765 87.1691 48.6529 83.6719 52.7691C82.4137 54.2499 81.6228 55.9468 80.9433 57.4048C79.734 59.9995 78.8774 61.8373 76.3675 60.3534C72.4473 58.0356 68.1257 60.3165 68.6234 62.4674C68.9356 63.8168 67.2598 68.0401 65.8237 71.659C64.9707 73.8086 64.2024 75.745 63.9856 76.739ZM42.8828 80.67C43.583 82.1055 43.4885 86.0413 43.391 90.1049C43.3076 93.5766 43.2221 97.1416 43.6279 99.32C43.9323 99.0818 44.2847 98.8912 44.6578 98.6893L44.6578 98.6893C45.9255 98.0035 47.4326 97.1882 48.1107 93.9358C48.7812 90.7201 48.4781 89.2545 47.9257 86.584C47.7173 85.5765 47.4734 84.3975 47.233 82.8883C46.5732 78.7469 48.7432 69.9543 54.0204 68.1185C59.2977 66.2827 61.0721 68.8843 61.981 72.0064C62.8899 75.1284 61.844 79.5343 59.9843 82.1469C58.5353 84.1826 59.0723 88.7787 59.486 92.3209C59.6033 93.3247 59.7107 94.2438 59.7602 94.9961C59.9343 97.6422 58.4214 99.6423 57.1698 101.297C56.8099 101.773 56.4717 102.22 56.2013 102.646C55.1701 104.27 56.743 107.96 58.5014 112.084C58.8075 112.803 59.1193 113.534 59.424 114.27C60.8427 117.697 59.6418 124.961 58.6617 130.89C58.2225 133.547 57.8277 135.935 57.7326 137.59C57.5624 140.551 58.2681 142.183 58.8861 143.611C59.3847 144.764 59.8262 145.784 59.7047 147.264C59.4328 150.58 56.7973 154.39 55.3122 153.614C54.6722 153.28 54.3439 151.849 53.936 150.07C53.3974 147.721 52.7199 144.768 51.0025 142.935C49.4932 141.325 46.7262 137.59 45.2962 132.553C44.6746 130.364 45.1329 129.21 45.6647 127.872C45.9958 127.039 46.3554 126.134 46.5008 124.862C46.8797 121.548 45.3492 117.237 44.174 117.11C42.9987 116.982 42.1954 120.074 42.1132 124.786C42.0311 129.497 41.891 137.528 42.8546 143.65C43.8183 149.772 40.6626 152.716 38.391 154.069C37.0971 154.839 36.4595 151.833 35.7825 148.641C35.271 146.229 34.737 143.711 33.8805 142.636C32.7712 141.244 32.557 138.103 32.3376 134.887C32.1633 132.333 31.9858 129.731 31.3541 127.918C31.1067 127.208 30.8637 126.618 30.6418 126.078C29.5836 123.506 29.0063 122.103 30.7314 114.519C32.071 103.577 29.8127 94.9263 28.2652 88.9982C27.1739 84.8179 26.436 81.9914 27.5623 80.6698C30.2859 77.4742 41.1975 77.2148 42.8828 80.67ZM128.545 82.119C127.62 74.1791 128.166 66.4451 128.634 59.8077L128.634 59.8074C128.841 56.867 129.033 54.1418 129.075 51.7093C129.154 47.2121 132.364 47.2681 133.825 49.4358C134.528 50.479 135.603 50.0899 136.883 49.6266C138.264 49.1272 139.882 48.5414 141.53 49.5704C144.707 51.5538 144.317 61.6153 141.239 66.2743C138.16 70.9334 140.985 80.8368 143.85 88.3845C145.644 93.1095 145.128 95.6114 144.455 98.871C144.052 100.818 143.595 103.036 143.54 106.159C143.424 112.841 145.92 116.983 147.183 118.219C147.277 112.865 148.064 103.053 150.107 97.9193C152.267 92.4906 152.49 84.0368 150.454 78.0031C148.418 71.9694 151.853 59.1763 155.274 59.4502C158.694 59.7242 162.693 63.65 162.6 69.0038C162.568 70.8213 162.278 72.3495 161.994 73.8496V73.8497C161.44 76.7684 160.906 79.5804 162.335 84.2087C164.471 91.1306 161.608 101.333 158.931 107.499C156.797 112.414 157.384 117.377 158.073 123.21L158.073 123.211C158.249 124.694 158.431 126.234 158.576 127.844C159.294 135.782 155.335 154.136 152.267 158.152C150.543 160.411 150.757 163.872 150.953 167.035C151.106 169.498 151.248 171.781 150.454 173.174C149.373 175.072 147.061 174.342 146.261 171.115C146.034 170.203 145.899 168.984 145.75 167.641C145.372 164.233 144.904 160.022 142.636 157.984C140.835 156.366 140.765 154.659 140.696 152.957C140.644 151.672 140.592 150.389 139.793 149.152C137.099 144.978 133.377 137.192 132.394 131.457C131.325 125.218 132.585 118.489 133.581 113.174C134.129 110.249 134.597 107.752 134.551 106.002C134.489 103.608 133.291 99.8025 131.968 95.5998C130.567 91.1505 129.027 86.2559 128.545 82.119ZM166.089 100.931C167.352 106.651 168.661 112.581 178.977 116.398C189.998 120.477 181.623 135.875 180.161 134.122C178.698 132.369 178.769 128.269 178.841 124.168C178.912 120.067 170.693 114.311 166.566 118.556C162.439 122.802 165.117 128.246 168.888 132.198C171.235 134.658 171.26 137.579 171.285 140.534C171.301 142.326 171.316 144.13 171.85 145.851C173.263 150.409 176.688 156.896 178.276 156.542C179.599 156.247 180.193 154.313 180.85 152.174C181.639 149.606 182.518 146.744 184.858 146.078C189.146 144.858 192.45 138.871 192.133 132.604C191.956 129.11 193.902 125.585 195.558 122.587C196.871 120.21 198.001 118.163 197.743 116.726C197.516 115.46 196.793 114.743 196.04 113.995C194.859 112.823 193.602 111.576 194.055 108.026C194.244 106.542 194.675 104.726 195.154 102.706C196.554 96.8058 198.365 89.1689 195.771 83.0124C192.289 74.7476 185.933 72.2618 183.53 75.4582C181.128 78.6547 179.571 82.2977 184.378 87.9949C189.185 93.692 184.736 104.193 181.948 105.008C179.161 105.823 176.681 101.246 175.477 96.9069C174.738 94.2445 176.411 91.4616 177.824 89.1103C178.714 87.6296 179.501 86.32 179.519 85.3193C179.541 84.0243 179.078 83.0447 178.59 82.0107C178.101 80.9767 177.587 79.8882 177.507 78.3756C177.346 75.3502 172.505 71.5956 169.965 70.4717C167.602 69.4263 166.515 73.3576 166.195 75.6007C166.171 75.769 166.151 75.9277 166.136 76.0741C165.589 80.6225 164.544 94.1451 165.827 99.7608C165.916 100.15 166.002 100.54 166.089 100.931Z" fill="#0D0D0D"/>
</svg>
