<svg width="188" height="160" viewBox="0 0 188 160" fill="none" xmlns="http://www.w3.org/2000/svg">
<path fill-rule="evenodd" clip-rule="evenodd" d="M71.6138 15.3095C72.3841 20.1917 73.5448 27.5489 72.3657 31.1933C71.344 34.3515 72.6697 40.7234 73.8891 46.5843L73.8891 46.5844C74.7495 50.7197 75.5569 54.6006 75.4495 56.9185C75.3296 59.5037 74.8579 61.8789 74.406 64.155C73.4783 68.8262 72.6337 73.0797 75.0837 77.8732C78.7275 85.0023 78.5015 97.9518 77.9114 104.772C77.6175 108.169 78.5012 111.06 79.5543 114.506C80.6152 117.978 81.848 122.012 82.2217 127.692C82.9662 139.01 84.5621 155.524 88.0321 159.117C91.5021 162.71 96.3122 152.381 95.5693 145.589C94.8901 139.379 97.2215 133.563 99.3463 128.263C100.91 124.362 102.362 120.74 102.419 117.446L103.102 78.3622C103.118 77.4044 103.132 76.5172 103.144 75.6881C103.26 67.9574 103.3 65.2747 105.351 57.4405L105.554 56.6645L105.554 56.6645C107.782 48.1705 110.322 38.4831 108.153 31.818C107.006 28.2925 107.75 23.0628 108.437 18.2285C109.089 13.6437 109.691 9.41453 108.581 7.33166C106.3 3.05255 100.286 -3.17589 94.3091 1.90117C90.12 5.45981 92.3096 14.7995 93.9629 21.8514C94.6684 24.8604 95.2762 27.4528 95.2491 29.002C95.2228 30.5087 95.3043 32.695 95.396 35.159L95.3961 35.1612L95.3961 35.1615C95.6199 41.1676 95.905 48.8229 94.8423 52.3111C93.3433 57.2309 92.1426 72.0476 94.3902 78.2102C96.1883 83.1402 93.0887 89.8062 91.3142 92.5229C89.7058 90.2183 86.7978 84.107 88.0332 78.0992C89.5774 70.5895 90.407 63.5385 88.4195 55.9672L88.2514 55.3275C86.2869 47.8556 83.8248 38.4904 85.5507 31.4235C87.3262 24.1533 88.7048 12.6369 87.3414 9.78703L87.2821 9.66294C85.9184 6.80881 83.8449 2.46904 77.5267 5.3764C72.3984 7.73627 71.4105 9.05194 71.0752 10.6808C70.9667 11.2076 71.2457 12.9758 71.6138 15.3095ZM40.6866 41.4909C40.427 42.6805 40.6401 43.5332 40.9055 44.5952C41.2945 46.1516 41.7958 48.1576 41.0862 52.3317C39.8924 59.3541 38.1572 71.7109 39.3638 76.7955C40.5704 81.8802 42.7317 92.9873 42.2799 98.6318C41.8281 104.276 41.2571 116.749 43.0502 121.961C44.2218 125.367 45.8306 126.77 47.7384 128.433C48.7505 129.316 49.8468 130.272 51.0067 131.639C52.6643 133.593 53.4943 136.601 54.1962 139.145C54.9111 141.737 55.493 143.846 56.6812 143.867C59.0356 143.908 61.9432 139.248 62.0295 134.304C62.1158 129.36 63.1439 124.432 65.7707 122.358C68.3976 120.284 70.8924 113.31 69.5285 109.47C67.6954 104.31 68.6642 98.268 69.7894 94.5194C70.9147 90.7707 70.9517 88.6517 68.8429 88.0261C66.7342 87.4005 59.2416 91.6268 58.6243 93.2647C58.184 94.4326 58.9097 97.4175 59.438 99.5905C59.6506 100.465 59.8312 101.207 59.891 101.648C60.0998 103.182 58.4023 105.979 57.3449 105.842C56.658 105.754 56.2157 103.036 55.8072 100.526C55.5869 99.1719 55.3763 97.8781 55.1425 97.0899C54.4752 94.8409 52.4043 78.554 56.1406 80.3856C57.1384 80.8748 58.1345 81.4647 59.064 82.0152C61.6148 83.5259 63.6641 84.7395 63.8713 82.758C63.9489 82.0159 64.1444 80.6193 64.3836 78.9102C65.0159 74.3931 65.9537 67.6936 65.8276 65.1283C65.6538 61.5925 62.7251 60.7171 57.1408 63.5636C51.5564 66.4101 56.4614 41.7663 57.5024 42.8444C57.9456 43.3033 58.0123 44.5451 58.0863 45.9225C58.1862 47.781 58.2993 49.8864 59.3681 50.649C60.1297 51.1924 60.9812 51.1063 61.7096 51.0326C62.761 50.9262 63.5558 50.8457 63.4535 52.7221C63.2803 55.8985 65.5977 58.0588 67.9337 59.1594C70.2697 60.26 71.2772 56.5093 71.5414 54.8653C71.7354 53.6582 70.1472 45.4363 69.1209 40.1232L69.1208 40.1228L69.1207 40.122C68.7494 38.1997 68.4516 36.6583 68.3385 35.968C68.0838 34.4133 68.7163 30.3439 69.2756 26.7459C69.6509 24.3314 69.9932 22.1291 70.0122 21.0418C70.0594 18.3342 66.1904 10.6123 62.3431 15.1378C60.9591 16.7658 60.089 18.6314 59.3415 20.2343C58.0112 23.087 57.0689 25.1076 54.3078 23.4761C49.9952 20.9279 45.241 23.4356 45.7886 25.8003C46.132 27.2838 44.2885 31.9271 42.7087 35.9058C41.7704 38.2691 40.9251 40.398 40.6866 41.4909ZM17.4724 45.8133C18.2427 47.3915 18.1387 51.7186 18.0314 56.1862C17.9397 60.0031 17.8456 63.9225 18.2921 66.3176C18.6269 66.0557 19.0144 65.8461 19.4248 65.6243L19.4249 65.6242L19.425 65.6242L19.4251 65.6241C20.8196 64.8702 22.4775 63.9738 23.2235 60.3981C23.9611 56.8626 23.6276 55.2513 23.02 52.3153L23.02 52.3152C22.7907 51.2075 22.5224 49.9113 22.2579 48.2521C21.5321 43.699 23.9192 34.0321 29.7246 32.0138C35.5301 29.9955 37.482 32.8558 38.4819 36.2882C39.4819 39.7207 38.3312 44.5646 36.2854 47.437C34.6914 49.6751 35.2821 54.7281 35.7373 58.6225V58.6225L35.7373 58.6226L35.7374 58.6234C35.8664 59.7266 35.9844 60.7369 36.0389 61.5637C36.2304 64.4729 34.5661 66.6719 33.1892 68.4911C32.7933 69.0142 32.4212 69.5058 32.1238 69.974C30.9894 71.7595 32.7197 75.8161 34.6541 80.351C34.9909 81.1406 35.3339 81.9447 35.669 82.7538C37.2297 86.5219 35.9087 94.5081 34.8304 101.027L34.8304 101.027C34.3473 103.947 33.913 106.573 33.8083 108.393C33.6212 111.648 34.3975 113.442 35.0773 115.012C35.6258 116.279 36.1114 117.401 35.9779 119.029C35.6787 122.674 32.7794 126.863 31.1457 126.01C30.4416 125.643 30.0805 124.069 29.6318 122.113C29.0392 119.531 28.294 116.284 26.4047 114.269C24.7443 112.499 21.7004 108.393 20.1273 102.855C19.4435 100.448 19.9476 99.1798 20.5327 97.7082C20.8969 96.7921 21.2925 95.7971 21.4524 94.3993C21.8693 90.756 20.1857 86.0163 18.8928 85.876C17.5999 85.7357 16.7162 89.1352 16.6258 94.315C16.5354 99.4948 16.3813 108.324 17.4414 115.055C18.5015 121.786 15.03 125.022 12.5311 126.509C11.1076 127.357 10.4062 124.052 9.66149 120.542C9.09881 117.891 8.51137 115.122 7.56909 113.94C6.34877 112.41 6.11311 108.957 5.87175 105.421C5.68007 102.613 5.48478 99.7518 4.78982 97.759C4.51769 96.9786 4.25036 96.3292 4.00628 95.7364C2.84214 92.9086 2.20707 91.366 4.10489 83.0272C5.57852 70.9976 3.09425 61.487 1.39181 54.9695C0.19131 50.3736 -0.620418 47.266 0.618608 45.8131C3.61471 42.2997 15.6184 42.0145 17.4724 45.8133ZM111.805 22.8764V22.8764L111.806 22.876C112.034 19.6433 112.245 16.6471 112.292 13.9727C112.378 9.02842 115.91 9.09002 117.517 11.4732C118.29 12.6202 119.473 12.1924 120.881 11.683C122.399 11.1339 124.18 10.49 125.993 11.6212C129.487 13.8019 129.059 24.8637 125.672 29.986C122.285 35.1082 125.393 45.9963 128.545 54.2944C130.518 59.4892 129.95 62.2399 129.21 65.8235C128.768 67.9643 128.264 70.4024 128.204 73.8364C128.076 81.1823 130.822 85.7364 132.212 87.0953C132.314 81.2091 133.18 70.4208 135.428 64.7773C137.804 58.8087 138.049 49.5144 135.81 42.8808C133.57 36.2473 137.349 22.1822 141.112 22.4834C144.875 22.7846 149.274 27.1007 149.171 32.9868C149.136 34.9851 148.817 36.6653 148.504 38.3145C147.895 41.5234 147.308 44.615 148.88 49.7035C151.23 57.3135 148.08 68.5309 145.135 75.3095C142.788 80.7134 143.433 86.1695 144.192 92.5821C144.385 94.2135 144.585 95.9068 144.745 97.6768C145.535 106.405 141.179 126.583 137.804 130.999C135.907 133.482 136.143 137.287 136.359 140.765C136.527 143.473 136.683 145.982 135.81 147.514C134.621 149.601 132.077 148.798 131.197 145.25C130.948 144.248 130.799 142.908 130.635 141.431C130.219 137.684 129.705 133.054 127.209 130.814C125.228 129.036 125.151 127.158 125.075 125.287C125.018 123.874 124.96 122.464 124.082 121.103C121.119 116.514 117.024 107.954 115.943 101.649C114.766 94.79 116.153 87.3917 117.248 81.549C117.851 78.3327 118.365 75.5878 118.315 73.6637C118.247 71.0313 116.929 66.8476 115.474 62.2272L115.474 62.2271C113.933 57.3354 112.238 51.9542 111.708 47.406C110.691 38.6766 111.291 30.1738 111.805 22.8764ZM153.009 68.0885C154.398 74.3773 155.839 80.8963 167.187 85.0932C179.311 89.5772 170.098 106.506 168.489 104.579C166.88 102.652 166.959 98.1439 167.038 93.6354C167.116 89.127 158.075 82.7979 153.534 87.4658C148.994 92.1337 151.94 98.1191 156.089 102.464C158.671 105.168 158.698 108.38 158.726 111.628C158.743 113.598 158.759 115.582 159.347 117.474C160.902 122.486 164.669 129.618 166.416 129.228C167.871 128.904 168.525 126.777 169.248 124.426C170.116 121.603 171.083 118.456 173.657 117.724C178.374 116.382 182.009 109.8 181.66 102.91C181.465 99.0684 183.606 95.1935 185.427 91.8978C186.872 89.2834 188.115 87.0334 187.831 85.4535C187.581 84.062 186.787 83.2735 185.958 82.4511C184.659 81.1628 183.276 79.7915 183.774 75.8884C183.982 74.2573 184.456 72.2601 184.984 70.039C186.523 63.5528 188.516 55.1565 185.662 48.3879C181.832 39.3014 174.839 36.5684 172.196 40.0827C169.554 43.5969 167.841 47.6021 173.129 53.8657C178.417 60.1293 173.522 71.6744 170.456 72.5703C167.39 73.4662 164.661 68.4341 163.337 63.6638C162.524 60.7367 164.364 57.6772 165.919 55.092C166.898 53.4642 167.764 52.0244 167.783 50.9241C167.808 49.5004 167.299 48.4234 166.761 47.2866C166.224 46.1498 165.658 44.9531 165.57 43.2901C165.393 39.9639 160.068 35.8359 157.273 34.6004C154.674 33.451 153.478 37.7731 153.126 40.2393C153.099 40.4243 153.078 40.5988 153.061 40.7598C152.46 45.7604 151.309 60.6275 152.722 66.8015C152.819 67.2289 152.914 67.6582 153.009 68.0885Z" fill="#B6E9FA"/>
</svg>
