<svg width="366" height="197" viewBox="0 0 366 197" fill="none" xmlns="http://www.w3.org/2000/svg">
<g clip-path="url(#clip0_186_1655)">
<g clip-path="url(#clip1_186_1655)">
<path d="M297.112 99.9534L270.33 0L-2.35064e-06 72.4346L26.7824 172.388L297.112 99.9534Z" fill="#0D0D0D"/>
<path d="M36.9304 93.7563L42.4782 92.2698L49.7391 119.367L63.9125 86.5265L70.9802 84.6327L59.7729 108.918L82.5643 126.224L75.6122 128.087L57.319 114.023L51.5399 126.088L53.652 133.971L48.1042 135.458L36.9304 93.7563Z" fill="white"/>
<path d="M75.9964 83.2887L104.787 75.5742L106.038 80.2436L82.7954 86.4716L86.3476 99.7286L108.013 93.9233L109.264 98.5928L87.5988 104.398L91.4638 118.822L114.886 112.546L116.137 117.216L87.1671 124.978L75.9964 83.2887Z" fill="white"/>
<path d="M191.978 78.5048L169.87 58.1353L176.47 56.3669L193.318 72.757L193.433 72.726L199.886 50.0925L206.486 48.3241L197.525 77.0182L202.126 94.1876L196.578 95.6741L191.978 78.5048Z" fill="white"/>
<path d="M226.89 85.4524C223.016 84.403 219.66 82.4654 216.822 79.6396C213.978 76.8154 212.031 73.4348 210.977 69.4993C209.922 65.5638 209.904 61.6109 210.953 57.7373C212.004 53.8694 213.942 50.5134 216.766 47.6693C219.59 44.8252 222.994 42.8726 226.964 41.8088C230.934 40.745 234.795 40.7512 238.668 41.8006C242.536 42.8516 245.892 44.7891 248.736 47.6133C251.582 50.4433 253.533 53.8413 254.597 57.8114C255.66 61.7816 255.654 65.6421 254.605 69.5157C253.554 73.3836 251.618 76.7453 248.792 79.5836C245.968 82.4277 242.587 84.3741 238.652 85.4287C234.716 86.4832 230.758 86.5033 226.89 85.4524ZM219.186 77.2532C221.624 79.6474 224.483 81.3031 227.774 82.2113C231.067 83.1254 234.406 83.1287 237.792 82.2213C241.179 81.3139 244.011 79.6568 246.406 77.2191C248.8 74.7813 250.456 71.922 251.364 68.6313C252.278 65.3389 252.287 62.0226 251.389 58.6708C250.491 55.319 248.809 52.394 246.372 49.9998C243.934 47.6056 241.069 45.9515 237.784 45.0416C234.491 44.1276 231.175 44.1181 227.823 45.0162C224.472 45.9143 221.547 47.5962 219.152 50.0339C216.758 52.4717 215.104 55.3367 214.194 58.6217C213.28 61.914 213.277 65.2534 214.184 68.6399C215.092 72.0264 216.749 74.859 219.186 77.2532ZM219.917 53.5824L231.365 50.5149C233.856 49.8475 235.959 49.9036 237.67 50.6715C239.376 51.4468 240.553 53.0205 241.19 55.3957C241.514 56.6035 241.503 57.7211 241.149 58.7575C240.795 59.7938 240.31 60.6423 239.673 61.3148C239.041 61.9857 238.466 62.4496 237.949 62.7181L237.98 62.8337L240.387 63.632L246.226 73.5199L242.602 74.4908L238.105 66.1201C237.853 65.6426 237.447 65.3054 236.891 65.1015C236.334 64.8975 235.763 64.8708 235.18 65.0272L227.118 67.1873L229.981 77.8727L226.652 78.7646L219.907 53.5913L219.917 53.5824ZM234.495 62.1943C236.015 61.787 237.032 61.0747 237.553 60.0617C238.073 59.0429 238.152 57.8573 237.786 56.4935C237.421 55.1296 236.78 54.2174 235.831 53.6355C234.883 53.0535 233.652 52.9683 232.132 53.3755L224.013 55.5511L226.375 64.3699L234.495 62.1943Z" fill="white"/>
<path d="M131.134 68.5147L132.252 105.397L132.194 105.413L132.131 105.43L114.658 72.9294L108.994 74.4469L130.854 113.285L134.072 112.422L137.286 111.562L136.797 66.9972L131.134 68.5147Z" fill="white"/>
<path d="M161.502 60.3775L162.621 97.2598L162.557 97.2769L162.499 97.2924L145.026 64.7922L139.363 66.3097L161.222 105.148L164.435 104.287L167.654 103.424L167.166 58.86L161.502 60.3775Z" fill="white"/>
</g>
<g clip-path="url(#clip2_186_1655)">
<path d="M346.344 196.236L365.089 94.4686L89.8534 43.771L71.1081 145.538L346.344 196.236Z" fill="#FF5A00"/>
<path d="M114.046 78.8881L119.694 79.9285L114.612 107.518L141.518 83.9483L148.714 85.2738L128.162 102.391L141.311 127.809L134.232 126.505L123.753 105.947L113.352 114.361L111.874 122.386L106.225 121.346L114.046 78.8881Z" fill="white"/>
<path d="M153.821 86.2145L183.134 91.6139L182.258 96.3681L158.594 92.0091L156.107 105.507L178.166 109.57L177.29 114.324L155.232 110.261L152.526 124.947L176.374 129.34L175.498 134.094L146.002 128.661L153.821 86.2145Z" fill="white"/>
<path d="M260.613 131.71L249.398 103.82L256.118 105.057L264.292 127.095L264.41 127.117L279.959 109.449L286.678 110.686L266.262 132.75L263.042 150.231L257.393 149.191L260.613 131.71Z" fill="white"/>
<path d="M289.157 152.979C286.11 150.368 283.911 147.177 282.562 143.406C281.207 139.634 280.901 135.745 281.639 131.738C282.377 127.731 284.058 124.153 286.669 121.106C289.28 118.064 292.471 115.866 296.243 114.511C300.015 113.155 303.927 112.854 307.97 113.598C312.012 114.343 315.495 116.007 318.543 118.618C321.584 121.229 323.783 124.42 325.138 128.192C326.492 131.97 326.795 135.876 326.05 139.918C325.306 143.961 323.642 147.444 321.031 150.492C318.42 153.533 315.228 155.737 311.457 157.087C307.685 158.442 303.796 158.748 299.789 158.01C295.782 157.272 292.199 155.59 289.157 152.979ZM285.722 142.266C286.895 145.475 288.766 148.199 291.348 150.432C293.929 152.672 296.943 154.109 300.391 154.744C303.839 155.379 307.108 155.1 310.318 153.927C313.527 152.753 316.25 150.882 318.484 148.301C320.723 145.72 322.156 142.73 322.785 139.317C323.413 135.904 323.151 132.54 321.978 129.331C320.805 126.122 318.928 123.398 316.352 121.165C313.772 118.926 310.781 117.493 307.368 116.864C303.956 116.235 300.592 116.498 297.383 117.671C294.173 118.844 291.449 120.721 289.216 123.297C286.977 125.877 285.54 128.891 284.904 132.339C284.269 135.787 284.549 139.057 285.722 142.266ZM296.549 121.204L308.205 123.351C310.741 123.818 312.616 124.772 313.831 126.2C315.039 127.633 315.426 129.56 314.981 131.978C314.754 133.208 314.265 134.213 313.5 134.997C312.735 135.781 311.933 136.339 311.068 136.672C310.21 137.007 309.491 137.178 308.909 137.199L308.887 137.317L310.718 139.071L311.744 150.509L308.055 149.829L307.589 140.338C307.566 139.799 307.344 139.32 306.929 138.897C306.515 138.474 306.011 138.204 305.416 138.095L297.208 136.583L295.204 147.462L291.815 146.838L296.536 121.208L296.549 121.204ZM306.015 135.242C307.562 135.527 308.787 135.321 309.693 134.63C310.6 133.933 311.18 132.897 311.436 131.508C311.691 130.119 311.505 129.02 310.898 128.087C310.291 127.154 309.216 126.549 307.669 126.264L299.402 124.741L297.748 133.72L306.015 135.242Z" fill="white"/>
<path d="M209.959 96.555L195.127 130.342L195.068 130.331L195.003 130.319L193.184 93.4651L187.418 92.403L190.476 136.865L193.754 137.469L197.025 138.071L215.725 97.6171L209.959 96.555Z" fill="white"/>
<path d="M240.878 102.25L226.047 136.038L225.982 136.026L225.923 136.015L224.104 99.1604L218.337 98.0983L221.396 142.56L224.667 143.163L227.945 143.766L246.645 103.312L240.878 102.25Z" fill="white"/>
</g>
</g>
<defs>
<clipPath id="clip0_186_1655">
<rect width="366" height="197" fill="white"/>
</clipPath>
<clipPath id="clip1_186_1655">
<rect width="279.866" height="103.479" fill="white" transform="translate(0 72.4346) rotate(-15)"/>
</clipPath>
<clipPath id="clip2_186_1655">
<rect width="279.866" height="103.479" fill="white" transform="translate(89.8534 43.771) rotate(10.4367)"/>
</clipPath>
</defs>
</svg>
