<?xml version="1.0" encoding="UTF-8"?>
<svg width="200px" height="100px" viewBox="0 0 200 100" version="1.1" xmlns="http://www.w3.org/2000/svg" xmlns:xlink="http://www.w3.org/1999/xlink">
    <!-- Generator: Sketch 59 (86127) - https://sketch.com -->
    <title>google</title>
    <desc>Created with Sketch.</desc>
    <g id="google" stroke="none" stroke-width="1" fill="none" fill-rule="evenodd">
        <g id="google-logo" transform="translate(37.000000, 31.000000)" fill="#FFFFFF" fill-rule="nonzero">
            <path d="M15.90435,14.0970375 L15.90435,18.3313125 L26.0253,18.3313125 C25.715475,20.7066375 24.9237,22.4451 23.718825,23.6671875 C22.23855,25.1474625 19.932075,26.7654375 15.90435,26.7654375 C9.673425,26.7654375 4.8022875,21.7393875 4.8022875,15.5084625 C4.8022875,9.2775375 9.673425,4.2514875 15.90435,4.2514875 C19.2607875,4.2514875 21.722175,5.57685 23.5294875,7.2808875 L26.50725,4.303125 C23.994225,1.85895 20.620575,0 15.90435,0 C7.36695,0 0.1893375,6.95385 0.1893375,15.49125 C0.1893375,24.02865 7.36695,30.9825 15.90435,30.9825 C20.5173,30.9825 23.994225,29.4678 26.7138,26.64495 C29.502225,23.856525 30.3800625,19.9148625 30.3800625,16.7477625 C30.3800625,15.76665 30.3112125,14.8543875 30.1563,14.0970375 L15.90435,14.0970375 Z" id="Path"></path>
            <path d="M43.03125,10.6545375 C37.5060375,10.6545375 32.9963625,14.8543875 32.9963625,20.655 C32.9963625,26.403975 37.5060375,30.6554625 43.03125,30.6554625 C48.5564625,30.6554625 53.0661375,26.4211875 53.0661375,20.655 C53.0661375,14.8543875 48.5564625,10.6545375 43.03125,10.6545375 Z M43.03125,26.7138 C40.00185,26.7138 37.38555,24.2179875 37.38555,20.655 C37.38555,17.0575875 40.00185,14.5962 43.03125,14.5962 C46.06065,14.5962 48.67695,17.0575875 48.67695,20.655 C48.67695,24.2179875 46.06065,26.7138 43.03125,26.7138 Z" id="Shape"></path>
            <path d="M92.224575,12.8921625 L92.0696625,12.8921625 C91.08855,11.7217125 89.195175,10.6545375 86.8026375,10.6545375 C81.8110125,10.6545375 77.45625,15.0093 77.45625,20.655 C77.45625,26.266275 81.8110125,30.6554625 86.8026375,30.6554625 C89.195175,30.6554625 91.08855,29.5882875 92.0696625,28.3834125 L92.224575,28.3834125 L92.224575,29.777625 C92.224575,33.5988 90.1762875,35.6470875 86.8887,35.6470875 C84.20355,35.6470875 82.5339375,33.7192875 81.8454375,32.0841 L78.0242625,33.66765 C79.1258625,36.318375 82.034775,39.5715375 86.8887,39.5715375 C92.0352375,39.5715375 96.39,36.5421375 96.39,29.157975 L96.39,11.1709125 L92.224575,11.1709125 L92.224575,12.8921625 Z M87.1813125,26.7138 C84.1519125,26.7138 81.8454375,24.131925 81.8454375,20.655 C81.8454375,17.1264375 84.1519125,14.5962 87.1813125,14.5962 C90.1762875,14.5962 92.5172811,17.178075 92.5172811,20.689425 C92.5344,24.1835625 90.1762875,26.7138 87.1813125,26.7138 Z" id="Shape"></path>
            <path d="M65.4075,10.6545375 C59.8822875,10.6545375 55.3726125,14.8543875 55.3726125,20.655 C55.3726125,26.403975 59.8822875,30.6554625 65.4075,30.6554625 C70.9327125,30.6554625 75.4423875,26.4211875 75.4423875,20.655 C75.4423875,14.8543875 70.9327125,10.6545375 65.4075,10.6545375 Z M65.4075,26.7138 C62.3781,26.7138 59.7618,24.2179875 59.7618,20.655 C59.7618,17.0575875 62.3781,14.5962 65.4075,14.5962 C68.4369,14.5962 71.0532,17.0575875 71.0532,20.655 C71.0532,24.2179875 68.4369,26.7138 65.4075,26.7138 Z" id="Shape"></path>
            <polygon id="Path" points="99.8325 0.4131 104.152837 0.4131 104.152837 30.6554625 99.8325 30.6554625"></polygon>
            <path d="M117.492525,26.7138 C115.2549,26.7138 113.67135,25.6982625 112.6386,23.6844 L126.012713,18.1591875 L125.565188,17.0231625 C124.738988,14.7855375 122.191538,10.6545375 117.010575,10.6545375 C111.864038,10.6545375 107.578125,14.699475 107.578125,20.655 C107.578125,26.266275 111.8124,30.6554625 117.492525,30.6554625 C122.07105,30.6554625 124.721775,27.849825 125.823375,26.23185 L122.4153,23.9598 C121.279275,25.6122 119.73015,26.7138 117.492525,26.7138 Z M117.1827,14.4068625 C118.955588,14.4068625 120.470287,15.319125 120.96945,16.6100625 L111.932888,20.345175 C111.932888,16.145325 114.91065,14.4068625 117.1827,14.4068625 L117.1827,14.4068625 Z" id="Shape"></path>
        </g>
    </g>
</svg>