<?xml version="1.0" encoding="UTF-8"?>
<svg width="200px" height="100px" viewBox="0 0 200 100" version="1.1" xmlns="http://www.w3.org/2000/svg" xmlns:xlink="http://www.w3.org/1999/xlink">
    <!-- Generator: Sketch 59 (86127) - https://sketch.com -->
    <title>nest</title>
    <desc>Created with Sketch.</desc>
    <g id="nest" stroke="none" stroke-width="1" fill="none" fill-rule="evenodd">
        <g id="nest-labs" transform="translate(62.000000, 30.000000)" fill="#FFFFFF" fill-rule="nonzero">
            <path d="M58.1136069,23.8781378 C59.6123117,24.525391 60.5073829,25.7429915 60.5073829,27.1303153 C60.5073829,28.9679182 59.1068909,30.0632556 56.760118,30.0632556 C54.2698666,30.0632556 53.1128033,27.8490791 52.8165189,27.172929 L52.4519246,26.3351029 L47.788373,26.3351029 L47.7806916,26.3308049 L43.4598787,26.3308049 C42.2794967,28.3179216 39.9020894,30.1489403 37.1378665,30.1489403 C32.1494995,30.1489403 29.6603456,26.2155832 29.3421143,22.3319726 L49.7290353,22.3319726 L49.7290353,21.4806125 C49.7290353,19.8706182 49.5631526,18.3549959 49.2532429,16.9480112 C49.8366669,18.7534251 51.167203,20.6254116 53.9560247,21.9504609 C54.9744563,22.4411589 56.5123914,23.1729994 58.1136069,23.8781378 M36.8469775,11.5378963 C41.0192825,11.5378963 43.063187,14.4424884 43.6552984,17.4015822 L29.7689831,17.4015822 C30.4932337,14.436453 33.0675237,11.5378963 36.8468861,11.5378963 M77.758354,11.623581 L77.758354,6.30948411 L73.4244644,6.30948411 L73.4244644,0.0288968648 L68.1032348,0.0288968648 L68.1032348,6.30948411 L57.3861557,6.30948411 C52.4366532,6.31222749 48.8443888,9.67139657 48.8443888,14.3000159 C48.8452357,14.8329666 48.893095,15.3648038 48.98741,15.8893435 C47.300967,9.99227979 42.8557879,6.30948411 36.8862078,6.30948411 C29.5839883,6.30948411 24.0013152,12.0477065 23.5336615,19.8215118 L23.5336615,18.1689037 C23.5336615,11.6290677 18.2609896,6.30948411 11.7812335,6.30948411 C5.30138589,6.30948411 0.028805419,11.6290677 0.028805419,18.1689037 L0.028805419,35.1715995 L5.41496154,35.1715995 L5.41496154,18.1689037 C5.41496154,14.6285806 8.26980718,11.7452953 11.7812335,11.7452953 C15.2909223,11.7452953 18.1475054,14.6280319 18.1475054,18.1689037 L18.1475054,35.1715995 L23.5336615,35.1715995 L23.5336615,21.9433281 C24.0046073,29.7449329 29.6586995,35.5032733 37.0553825,35.5032733 C41.5709748,35.5032733 45.553987,32.8563754 47.8102286,29.7908387 C49.4933795,33.4212359 52.782684,35.5032733 56.845254,35.5032733 C61.5541627,35.5032733 66.320225,32.4677308 66.320225,26.6635761 C66.320225,23.1898254 64.3212204,20.3513486 60.6907317,18.6681977 C60.2900832,18.483332 59.8909398,18.2952219 59.4933407,18.1038858 L59.444783,18.0792869 C59.0178495,17.8750908 58.5895691,17.6737227 58.1599699,17.4751961 C55.7870435,16.4005253 54.6578711,15.613543 54.6578711,14.0439677 C54.6578711,12.6631365 55.8820556,11.6234895 57.3931971,11.6234895 L68.1033262,11.6234895 L68.1033262,26.7639835 C68.1033262,31.5847304 71.9879427,35.5027247 76.7623266,35.5027247 L76.7623266,30.1324801 C74.9219804,30.1324801 73.4244644,28.6212472 73.4244644,26.7639835 L73.4244644,11.6236724 C75.5534135,11.6253184 77.1929448,11.6236724 77.758354,11.6236724" id="Shape"></path>
        </g>
    </g>
</svg>