<?xml version="1.0" encoding="UTF-8"?>
<svg width="200px" height="100px" viewBox="0 0 200 100" version="1.1" xmlns="http://www.w3.org/2000/svg" xmlns:xlink="http://www.w3.org/1999/xlink">
    <!-- Generator: Sketch 59 (86127) - https://sketch.com -->
    <title>netflix</title>
    <desc>Created with Sketch.</desc>
    <defs>
        <polygon id="path-1" points="0 3.6288e-05 129.457404 3.6288e-05 129.457404 34.7816851 0 34.7816851"></polygon>
    </defs>
    <g id="netflix" stroke="none" stroke-width="1" fill="none" fill-rule="evenodd">
        <g id="Group-3" transform="translate(36.000000, 34.000000)">
            <mask id="mask-2" fill="white">
                <use xlink:href="#path-1"></use>
            </mask>
            <g id="Clip-2"></g>
            <path d="M86.1341584,3.6288e-05 L80.6827936,3.6288e-05 L80.6827936,30.4883067 C85.6371943,30.6587696 90.57082,30.9087032 95.4842152,31.2362931 L95.4842152,25.8648526 C92.3763295,25.6575574 89.2593717,25.481742 86.1341584,25.3363179 L86.1341584,3.6288e-05 Z M129.457404,0.003120768 L123.469612,0.003120768 L119.522112,9.15232349 L115.975505,0.003120768 L110.077525,0.003120768 L116.415587,16.3514998 L109.496282,32.3897979 C111.410474,32.5764089 113.319677,32.7757208 115.226339,32.9861912 L119.250406,23.6609916 L123.235735,33.9406563 C125.31159,34.2075545 127.382456,34.4860649 129.448967,34.7809956 L129.457404,34.7774576 L122.355933,16.461906 L129.457404,0.003120768 Z M61.9699792,30.221862 L67.4215255,30.2206827 L67.4215255,17.8188958 L74.8113045,17.8188958 L74.8113045,12.4474553 L67.4215255,12.4474553 L67.4215255,5.42309645 L77.1885314,5.42309645 L77.1885314,0.003392928 L61.9699792,0.003392928 L61.9699792,30.221862 Z M41.612502,5.42273357 L47.3180642,5.42273357 L47.3180642,30.5411964 C49.1321013,30.4727028 50.9499487,30.416275 52.7696104,30.3685563 L52.7696104,5.42273357 L58.4749912,5.42273357 L58.4749912,0.003120768 L41.612502,0.003120768 L41.612502,5.42273357 Z M22.9749852,32.1023969 C27.9995124,31.6458032 33.0471732,31.2694966 38.1177861,30.9773782 L38.1177861,25.6053934 C34.8779935,25.7926395 31.647545,26.0142684 28.4264407,26.2675587 L28.4264407,18.1354179 C30.5399445,18.1142801 33.3228712,18.0497782 35.7883687,18.0804416 L35.7883687,12.7085475 C33.8187468,12.70383 30.6529816,12.7361264 28.4264407,12.7646124 L28.4264407,5.42309645 L38.1177861,5.42309645 L38.1177861,0.003392928 L22.9749852,0.003392928 L22.9749852,32.1023969 Z M12.2811837,19.6843712 L5.18107363,0.003120768 L-3.6288e-05,0.003120768 L-3.6288e-05,34.7817214 C1.81372867,34.5235323 3.63075955,34.2763203 5.45150995,34.0390875 L5.45150995,15.1266891 L11.7648055,33.262615 C13.7504848,33.0323676 15.7397023,32.814186 17.7328207,32.6092496 L17.7328207,0.003120768 L12.2811837,0.003120768 L12.2811837,19.6843712 Z M99.9785748,31.5596192 C101.798327,31.6989651 103.615358,31.8483809 105.430121,32.0098625 L105.430121,0.003120768 L99.9785748,0.003120768 L99.9785748,31.5596192 Z" id="Fill-1" fill="#FFFFFF" mask="url(#mask-2)"></path>
        </g>
    </g>
</svg>