<?xml version="1.0" encoding="UTF-8"?>
<svg width="200px" height="100px" viewBox="0 0 200 100" version="1.1" xmlns="http://www.w3.org/2000/svg" xmlns:xlink="http://www.w3.org/1999/xlink">
    <!-- Generator: Sketch 59 (86127) - https://sketch.com -->
    <title>spotify</title>
    <desc>Created with Sketch.</desc>
    <defs>
        <polygon id="path-1" points="0 0.15266201 49.7933232 0.15266201 49.7933232 49.945896 0 49.945896"></polygon>
        <polygon id="path-3" points="0.0461999538 0.18931873 5.47769723 0.18931873 5.47769723 5.62123222 0.0461999538 5.62123222"></polygon>
    </defs>
    <g id="spotify" stroke="none" stroke-width="1" fill="none" fill-rule="evenodd">
        <g id="Group-21" transform="translate(17.000000, 24.000000)">
            <g id="Group-3" transform="translate(0.000000, 0.144784)">
                <mask id="mask-2" fill="white">
                    <use xlink:href="#path-1"></use>
                </mask>
                <g id="Clip-2"></g>
                <path d="M39.6236847,22.2239913 C31.5984495,17.4580231 18.3610033,17.0198073 10.6999569,19.3449671 C9.46944458,19.7183722 8.16847291,19.0235891 7.79595977,17.7936714 C7.42285204,16.5625645 8.11674323,15.2624847 9.34814741,14.8884851 C18.14249,12.2190553 32.7617726,12.7348656 42.0005742,18.2188061 C43.1074109,18.8758325 43.4701133,20.3049392 42.8142761,21.4096948 C42.1578443,22.5162342 40.7275485,22.8810177 39.6236847,22.2239913 M39.3608742,29.2830113 C38.7980909,30.1966049 37.6035516,30.4831992 36.6908498,29.9221998 C30.0004781,25.8093931 19.7978397,24.618124 11.882307,27.0208784 C10.8560378,27.3309592 9.77179563,26.7524192 9.46022838,25.7279337 C9.1507422,24.7013672 9.72957946,23.6189088 10.7543622,23.3070443 C19.7969478,20.562993 31.0377473,21.8919105 38.7222802,26.6144734 C39.6346847,27.1763647 39.9218736,28.3714987 39.3608742,29.2830113 M36.3144718,36.0622747 C35.8670398,36.7957064 34.9118245,37.0258143 34.1807712,36.5789769 C28.3344257,33.005467 20.9757304,32.1983056 12.3095228,34.1780064 C11.4744156,34.3694656 10.6422812,33.8459256 10.4517139,33.0114129 C10.2602546,32.1763057 10.7817135,31.3438741 11.6186046,31.153604 C21.1023789,28.985417 29.2373167,29.9180376 35.7998507,33.9285742 C36.5314986,34.3754116 36.7619038,35.3309241 36.3144718,36.0622747 M24.8964832,0.15266201 C11.1467943,0.15266201 -5.94594e-05,11.2989211 -5.94594e-05,25.0489074 C-5.94594e-05,38.7997855 11.1467943,49.9460446 24.8964832,49.9460446 C38.6467668,49.9460446 49.7933232,38.7997855 49.7933232,25.0489074 C49.7933232,11.2989211 38.6467668,0.15266201 24.8964832,0.15266201" id="Fill-1" fill="#FFFFFF" mask="url(#mask-2)"></path>
            </g>
            <path d="M67.7351079,23.2812686 C63.4367879,22.2561886 62.6709508,21.5367298 62.6709508,20.0249746 C62.6709508,18.5967598 64.0159225,17.6358959 66.0155421,17.6358959 C67.9539185,17.6358959 69.8756463,18.36576 71.8910227,19.8682991 C71.9519686,19.9137855 72.0283739,19.9319206 72.1035901,19.9200287 C72.1788062,19.9087314 72.2451034,19.8677045 72.2894007,19.8052721 L74.3883175,16.8465723 C74.4745336,16.7246806 74.4510472,16.5567078 74.334804,16.4636538 C71.9365091,14.5392503 69.2358632,13.6036567 66.0791637,13.6036567 C61.4377629,13.6036567 58.1957391,16.388735 58.1957391,20.3742985 C58.1957391,24.6479429 60.992412,26.1611846 65.825272,27.3292646 C69.9386733,28.2764528 70.6328618,29.0702358 70.6328618,30.4895317 C70.6328618,32.0622328 69.2290254,33.0397453 66.9698655,33.0397453 C64.4609761,33.0397453 62.4143835,32.1942327 60.124602,30.211559 C60.0678183,30.1628023 59.9902238,30.1402077 59.9182779,30.1440726 C59.8424672,30.1506131 59.773197,30.1856941 59.7250349,30.2436671 L57.3716318,33.0442048 C57.2729292,33.1607452 57.2854157,33.3343667 57.3992804,33.4348531 C60.0633589,35.8132291 63.3392745,37.0690116 66.8747304,37.0690116 C71.8764552,37.0690116 75.1080735,34.3362576 75.1080735,30.1066131 C75.1080735,26.531914 72.9722919,24.554889 67.7351079,23.2812686" id="Fill-4" fill="#FFFFFF"></path>
            <path d="M90.0541451,28.0721206 C90.0541451,31.090577 88.1948496,33.1969263 85.532555,33.1969263 C82.9005847,33.1969263 80.9152353,30.9948474 80.9152353,28.0721206 C80.9152353,25.1496911 82.9005847,22.9476122 85.532555,22.9476122 C88.1520389,22.9476122 90.0541451,25.1021235 90.0541451,28.0721206 M86.4235541,19.0417242 C84.2556644,19.0417242 82.477531,19.8955612 81.0112622,21.645154 L81.0112622,19.6758587 C81.0112622,19.5206697 80.8852083,19.3940211 80.729722,19.3940211 L76.880915,19.3940211 C76.7254287,19.3940211 76.599672,19.5206697 76.599672,19.6758587 L76.599672,41.5575125 C76.599672,41.7129988 76.7254287,41.8396473 76.880915,41.8396473 L80.729722,41.8396473 C80.8852083,41.8396473 81.0112622,41.7129988 81.0112622,41.5575125 L81.0112622,34.6507086 C82.4778283,36.2965448 84.256259,37.1004359 86.4235541,37.1004359 C90.4516312,37.1004359 94.5293568,33.9996282 94.5293568,28.0721206 C94.5293568,22.1434238 90.4516312,19.0417242 86.4235541,19.0417242" id="Fill-6" fill="#FFFFFF"></path>
            <path d="M104.981695,33.2286776 C102.222482,33.2286776 100.142294,31.0114366 100.142294,28.0720611 C100.142294,25.1204965 102.150536,22.9781743 104.918073,22.9781743 C107.695125,22.9781743 109.789582,25.1954153 109.789582,28.1365746 C109.789582,31.0878419 107.767368,33.2286776 104.981695,33.2286776 M104.981695,19.041962 C99.7941597,19.041962 95.7301097,23.0364445 95.7301097,28.1365746 C95.7301097,33.1817047 99.7662137,37.1342683 104.918073,37.1342683 C110.124041,37.1342683 114.200578,33.1528668 114.200578,28.0720611 C114.200578,23.0084986 110.151987,19.041962 104.981695,19.041962" id="Fill-8" fill="#FFFFFF"></path>
            <path d="M125.27831,19.3939022 L121.043017,19.3939022 L121.043017,15.0634741 C121.043017,14.9079878 120.91726,14.7813393 120.762071,14.7813393 L116.913264,14.7813393 C116.757778,14.7813393 116.631129,14.9079878 116.631129,15.0634741 L116.631129,19.3939022 L114.780158,19.3939022 C114.625266,19.3939022 114.499807,19.5205507 114.499807,19.6760371 L114.499807,22.9837635 C114.499807,23.1392498 114.625266,23.2658984 114.780158,23.2658984 L116.631129,23.2658984 L116.631129,31.8253763 C116.631129,35.2844269 118.352479,37.0384792 121.748205,37.0384792 C123.128853,37.0384792 124.274041,36.7533714 125.353823,36.1409395 C125.441526,36.0921828 125.495931,35.9976424 125.495931,35.897156 L125.495931,32.746997 C125.495931,32.6497809 125.445391,32.5579161 125.362445,32.5070783 C125.27831,32.4544567 125.173959,32.4517811 125.08804,32.4942945 C124.346581,32.8674023 123.629798,33.0395372 122.82888,33.0395372 C121.593908,33.0395372 121.043017,32.4791324 121.043017,31.2221607 L121.043017,23.2658984 L125.27831,23.2658984 C125.433796,23.2658984 125.559256,23.1392498 125.559256,22.9837635 L125.559256,19.6760371 C125.559256,19.5205507 125.433796,19.3939022 125.27831,19.3939022" id="Fill-10" fill="#FFFFFF"></path>
            <path d="M140.035449,19.4106103 L140.035449,18.878746 C140.035449,17.3140719 140.635394,16.6163158 141.980961,16.6163158 C142.783068,16.6163158 143.427608,16.7759643 144.149742,17.0164776 C144.238634,17.0447208 144.331391,17.0304505 144.403634,16.9775317 C144.477661,16.9243155 144.519877,16.8389913 144.519877,16.748613 L144.519877,13.5051027 C144.519877,13.3811299 144.439904,13.27113 144.320985,13.2348597 C143.558419,13.0080221 142.58269,12.7749413 141.121475,12.7749413 C137.566398,12.7749413 135.687481,14.7772366 135.687481,18.562422 L135.687481,19.3770158 L133.838293,19.3770158 C133.683104,19.3770158 133.555861,19.5036643 133.555861,19.6588533 L133.555861,22.983823 C133.555861,23.1393093 133.683104,23.2659578 133.838293,23.2659578 L135.687481,23.2659578 L135.687481,36.4686203 C135.687481,36.6241066 135.81294,36.7507551 135.967832,36.7507551 L139.817233,36.7507551 C139.972422,36.7507551 140.099071,36.6241066 140.099071,36.4686203 L140.099071,23.2659578 L143.692797,23.2659578 L149.197845,36.46535 C148.572927,37.8522405 147.958117,38.1278348 147.119442,38.1278348 C146.441308,38.1278348 145.7272,37.9256729 144.997039,37.5261057 C144.928363,37.488349 144.847201,37.4821058 144.772877,37.5049976 C144.699444,37.5308625 144.637309,37.5855651 144.606391,37.6572137 L143.301554,40.5189946 C143.239419,40.6542648 143.292635,40.8133186 143.423148,40.8831834 C144.784769,41.6210746 146.014092,41.9356148 147.533577,41.9356148 C150.375439,41.9356148 151.946356,40.6117513 153.33176,37.0501332 L160.009348,19.794718 C160.042645,19.7079073 160.032835,19.6100966 159.979618,19.5330967 C159.9267,19.4566914 159.841078,19.4106103 159.748024,19.4106103 L155.741055,19.4106103 C155.621244,19.4106103 155.513623,19.4870156 155.47438,19.5996912 L151.3696,31.3244903 L146.873577,19.5919615 C146.832253,19.4828535 146.727605,19.4106103 146.61047,19.4106103 L140.035449,19.4106103 Z" id="Fill-12" fill="#FFFFFF"></path>
            <path d="M131.480341,19.3939022 L127.631535,19.3939022 C127.475751,19.3939022 127.349102,19.5205507 127.349102,19.6760371 L127.349102,36.4688581 C127.349102,36.6240472 127.475751,36.7506957 127.631535,36.7506957 L131.480341,36.7506957 C131.635531,36.7506957 131.762179,36.6240472 131.762179,36.4688581 L131.762179,19.6760371 C131.762179,19.5205507 131.635531,19.3939022 131.480341,19.3939022" id="Fill-14" fill="#FFFFFF"></path>
            <path d="M129.57547,11.7476612 C128.050634,11.7476612 126.813284,12.9820384 126.813284,14.5068747 C126.813284,16.0326029 128.050634,17.2684665 129.57547,17.2684665 C131.099712,17.2684665 132.335576,16.0326029 132.335576,14.5068747 C132.335576,12.9820384 131.099712,11.7476612 129.57547,11.7476612" id="Fill-16" fill="#FFFFFF"></path>
            <g id="Group-20" transform="translate(160.540380, 19.171792)">
                <mask id="mask-4" fill="white">
                    <use xlink:href="#path-3"></use>
                </mask>
                <g id="Clip-19"></g>
                <path d="M2.91244033,1.89253324 L2.20725185,1.89253324 L2.20725185,2.79185667 L2.91244033,2.79185667 C3.26473728,2.79185667 3.47492625,2.61942441 3.47492625,2.34174901 C3.47492625,2.04920876 3.26473728,1.89253324 2.91244033,1.89253324 M3.36968312,3.1753698 L4.13581749,4.24801737 L3.4897911,4.24801737 L2.80006206,3.2642616 L2.20725185,3.2642616 L2.20725185,4.24801737 L1.6664686,4.24801737 L1.6664686,1.40466887 L2.93444031,1.40466887 C3.59503424,1.40466887 4.02938516,1.74269555 4.02938516,2.31172201 C4.02938516,2.77788371 3.76033137,3.06269423 3.36968312,3.1753698 M2.76914318,0.458669812 C1.38195537,0.458669812 0.331605074,1.56134438 0.331605074,2.91226195 C0.331605074,4.26199033 1.37422565,5.35009735 2.75487292,5.35009735 C4.14206072,5.35009735 5.19300562,4.24801737 5.19300562,2.89650521 C5.19300562,1.54677683 4.14979044,0.458669812 2.76914318,0.458669812 M2.75487292,5.62123222 C1.23182039,5.62123222 0.0461999538,4.39785506 0.0461999538,2.91226195 C0.0461999538,1.42637155 1.24698254,0.18931873 2.76914318,0.18931873 C4.292493,0.18931873 5.47781614,1.41239859 5.47781614,2.89650521 C5.47781614,4.38239562 4.27792545,5.62123222 2.75487292,5.62123222" id="Fill-18" fill="#FFFFFF" mask="url(#mask-4)"></path>
            </g>
        </g>
    </g>
</svg>