<svg width="160" height="100" viewBox="0 0 160 100" fill="none" xmlns="http://www.w3.org/2000/svg">
<path fill-rule="evenodd" clip-rule="evenodd" d="M103.515 49.4915H97.1476V49.7121C97.1476 51.2041 97.5564 52.433 98.3746 53.3991C99.2585 54.4499 100.464 54.9747 101.989 54.9747C102.763 54.9747 103.393 54.7122 103.879 54.1869C104.365 53.662 104.796 53.3991 105.173 53.3991C105.46 53.3991 105.725 53.4937 105.969 53.6827C106.212 53.8718 106.333 54.1032 106.333 54.376C106.333 54.4813 106.3 54.5965 106.234 54.7226C105.703 55.731 104.907 56.5296 103.846 57.1176C102.785 57.7054 101.646 57.9999 100.43 57.9999C98.3746 57.9999 96.7164 57.3539 95.4562 56.0619C94.196 54.7699 93.566 53.147 93.566 51.1931C93.566 49.0927 94.2179 47.2964 95.5225 45.8044C96.9154 44.2289 98.7061 43.4409 100.895 43.4409C102.288 43.4409 103.515 43.8299 104.576 44.607C105.703 45.4475 106.267 46.5189 106.267 47.8213C106.267 48.6618 106.002 49.1763 105.471 49.3654C105.25 49.4497 104.598 49.4915 103.515 49.4915ZM100.53 45.647C99.9773 45.647 99.4357 45.8045 98.9051 46.1197C98.3746 46.4348 97.9651 46.8238 97.6781 47.2857H99.4357C101.027 47.2857 102.022 47.2335 102.42 47.1281V47.0021C102.464 46.099 101.834 45.647 100.53 45.647ZM91.1988 47.4116C90.8672 47.4116 90.4801 47.291 90.0381 47.0492C89.5956 46.808 89.253 46.6868 89.01 46.6868C88.3686 46.6868 88.0483 47.4959 88.0483 49.1133V56.9286C88.0483 57.3486 87.8272 57.5588 87.3851 57.5588H84.9312C84.4887 57.5588 84.268 57.3486 84.268 56.9286V47.3802C84.268 47.002 84.0524 46.6869 83.6214 46.4347C83.1902 46.1826 82.9748 45.8469 82.9748 45.4264C82.9748 45.0276 83.1624 44.7439 83.5385 44.5756C84.1794 44.2816 84.8204 43.9768 85.4618 43.6616C86.4122 43.2205 86.9873 43 87.1863 43H87.2527C87.6723 43.0842 87.9268 43.3048 88.0153 43.6616C88.0371 43.746 88.0484 44.1029 88.0484 44.7332C89.22 43.872 90.2481 43.4411 91.1326 43.4411C91.7294 43.4411 92.2378 43.6198 92.6579 43.9768C93.0777 44.3344 93.2881 44.7858 93.2881 45.332C93.2881 45.8991 93.0891 46.3877 92.6913 46.7973C92.2931 47.2068 91.7957 47.4116 91.1988 47.4116ZM74.4912 58C72.3242 58 70.5392 57.3274 69.1355 55.9832C67.7313 54.639 67.0297 52.9373 67.0297 50.8782C67.0297 48.7776 67.7645 47.0128 69.235 45.5839C70.705 44.1555 72.5454 43.441 74.7564 43.441C76.8788 43.441 78.6415 44.124 80.0458 45.4894C81.4495 46.8553 82.1515 48.557 82.1515 50.5945C82.1515 52.7374 81.4386 54.5075 80.0126 55.9044C78.5866 57.3013 76.7462 58 74.4912 58ZM77.2105 47.5692C76.569 46.288 75.6186 45.6469 74.3585 45.6469C73.231 45.6469 72.3905 46.225 71.8382 47.3801C71.418 48.2418 71.2082 49.2708 71.2082 50.4684C71.2082 51.7713 71.4735 52.916 72.004 53.9033C72.645 55.1638 73.5844 55.794 74.8228 55.794C75.9719 55.794 76.8125 55.248 77.343 54.1554C77.7627 53.3361 77.9731 52.3173 77.9731 51.0987C77.9731 49.7544 77.7187 48.5776 77.2105 47.5692ZM63.7775 57.0547C62.6718 57.6849 61.4562 57.9999 60.1298 57.9999C58.0074 57.9999 56.2882 57.354 54.9731 56.062C53.6576 54.7699 53 53.1155 53 51.0988C53 48.7879 53.8508 46.9183 55.5535 45.4894C57.167 44.124 59.2121 43.441 61.6884 43.441C62.9925 43.441 64.0646 43.641 64.9051 44.0398C65.502 44.3131 65.8005 44.9222 65.8005 45.8676C65.8005 46.3087 65.6896 46.7081 65.4688 47.065C65.1813 47.4643 64.8273 47.6639 64.4077 47.6639C64.0978 47.6639 63.5838 47.3487 62.8658 46.7184C62.1471 46.0882 61.4009 45.7731 60.6273 45.7731C59.3888 45.7731 58.4164 46.2355 57.709 47.1596C57.0457 47.9791 56.7141 48.9982 56.7141 50.2164C56.7141 51.5193 57.1561 52.638 58.0405 53.5726C58.9245 54.5076 60.041 54.9749 61.3898 54.9749C62.2075 54.9749 62.8708 54.8069 63.3795 54.4707C63.5785 54.3447 63.8769 54.0403 64.2749 53.5568C64.562 53.2417 64.8496 53.0841 65.1371 53.0841C65.4242 53.0841 65.6951 53.1894 65.9495 53.3993C66.2034 53.6096 66.3309 53.8513 66.3309 54.1241C66.3309 54.2294 66.3087 54.324 66.2645 54.4077C65.7117 55.542 64.8826 56.4243 63.7775 57.0547Z" fill="#F6F0EA"/>
</svg>
