<svg width="160" height="100" viewBox="0 0 160 100" fill="none" xmlns="http://www.w3.org/2000/svg">
<path d="M51.5314 46.55V49.1182H57.6699C57.482 50.5589 57.0017 51.6133 56.271 52.3545C55.3732 53.2523 53.9742 54.2336 51.5314 54.2336C47.7522 54.2336 44.7978 51.1852 44.7978 47.4061C44.7978 43.627 47.7522 40.5786 51.5314 40.5786C53.5671 40.5786 55.06 41.3824 56.1561 42.416L57.9622 40.6099C56.438 39.1275 54.3918 38 51.5314 38C46.3533 38 42 42.2176 42 47.3957C42 52.5737 46.3533 56.7913 51.5314 56.7913C54.3292 56.7913 56.438 55.8726 58.0875 54.1605C59.7787 52.4693 60.3111 50.0786 60.3111 48.1578C60.3111 47.5627 60.2693 47.0094 60.1754 46.55H51.5314Z" fill="#F6F0EA"/>
<path d="M67.9838 44.4619C64.6326 44.4619 61.8975 47.0092 61.8975 50.5273C61.8975 54.0142 64.6326 56.5928 67.9838 56.5928C71.3349 56.5928 74.0701 54.0246 74.0701 50.5273C74.0701 47.0092 71.3349 44.4619 67.9838 44.4619ZM67.9838 54.2021C66.1464 54.2021 64.5596 52.6883 64.5596 50.5273C64.5596 48.3455 66.1464 46.8526 67.9838 46.8526C69.8211 46.8526 71.408 48.3455 71.408 50.5273C71.408 52.6883 69.8211 54.2021 67.9838 54.2021Z" fill="#F6F0EA"/>
<path d="M97.8214 45.8191H97.7275C97.1324 45.1092 95.9841 44.4619 94.533 44.4619C91.5055 44.4619 88.8643 47.1031 88.8643 50.5273C88.8643 53.9306 91.5055 56.5928 94.533 56.5928C95.9841 56.5928 97.1324 55.9455 97.7275 55.2147H97.8214V56.0603C97.8214 58.3779 96.5791 59.6202 94.5852 59.6202C92.9566 59.6202 91.9439 58.451 91.5264 57.4592L89.2088 58.4197C89.8769 60.0274 91.6412 62.0005 94.5852 62.0005C97.7066 62.0005 100.348 60.1631 100.348 55.6845V44.7751H97.8214V45.8191ZM94.7626 54.2021C92.9253 54.2021 91.5264 52.6361 91.5264 50.5273C91.5264 48.3872 92.9253 46.8526 94.7626 46.8526C96.5791 46.8526 97.999 48.4185 97.999 50.5482C98.0094 52.6675 96.5791 54.2021 94.7626 54.2021Z" fill="#F6F0EA"/>
<path d="M81.556 44.4619C78.2049 44.4619 75.4697 47.0092 75.4697 50.5273C75.4697 54.0142 78.2049 56.5928 81.556 56.5928C84.9071 56.5928 87.6423 54.0246 87.6423 50.5273C87.6423 47.0092 84.9071 44.4619 81.556 44.4619ZM81.556 54.2021C79.7187 54.2021 78.1318 52.6883 78.1318 50.5273C78.1318 48.3455 79.7187 46.8526 81.556 46.8526C83.3934 46.8526 84.9802 48.3455 84.9802 50.5273C84.9802 52.6883 83.3934 54.2021 81.556 54.2021Z" fill="#F6F0EA"/>
<path d="M102.435 38.251H105.055V56.5934H102.435V38.251Z" fill="#F6F0EA"/>
<path d="M113.145 54.2021C111.788 54.2021 110.827 53.5861 110.201 52.3647L118.313 49.0136L118.041 48.3246C117.54 46.9674 115.995 44.4619 112.853 44.4619C109.731 44.4619 107.132 46.9152 107.132 50.5273C107.132 53.9306 109.7 56.5928 113.145 56.5928C115.922 56.5928 117.53 54.8911 118.198 53.9098L116.131 52.5317C115.442 53.5339 114.502 54.2021 113.145 54.2021ZM112.957 46.7378C114.032 46.7378 114.951 47.2911 115.254 48.074L109.773 50.3394C109.773 47.7922 111.579 46.7378 112.957 46.7378Z" fill="#F6F0EA"/>
</svg>
