<svg width="160" height="100" viewBox="0 0 160 100" fill="none" xmlns="http://www.w3.org/2000/svg">
<g clip-path="url(#clip0)">
<path d="M37.5909 44.9547C37.5455 45.2274 37.5455 45.5002 37.5 45.7729C37.3636 46.3638 36.6364 46.5911 36.2273 46.182C36.0455 46.0002 35.9091 45.7729 35.7727 45.5456C35.5909 45.2274 35.4546 44.9093 35.2727 44.5911C34.8636 43.9547 34.3182 43.6365 33.5909 43.5002C33 43.4093 32.4091 43.4547 31.8182 43.6365C31.4546 43.7729 31.1818 43.9547 31 44.3183C30.7273 44.7729 30.8182 45.4547 31.2273 45.8638C31.5 46.0911 31.8182 46.2729 32.1364 46.4093C32.8182 46.6365 33.5455 46.8183 34.2273 47.0456C35.1364 47.3183 36.0909 47.5911 36.9091 48.0911C37.5909 48.5456 38.0455 49.0911 38.2727 49.9093C38.4091 50.3638 38.4091 50.8638 38.3636 51.3638C38.2727 52.0911 38.0455 52.8183 37.5909 53.4093C37.0455 54.2274 36.2727 54.7729 35.3636 55.182C34.7727 55.4547 34.1818 55.6365 33.5455 55.7729C32.6364 55.9093 31.7273 56.0002 30.8182 55.8638C30.3182 55.7729 29.8636 55.7274 29.4091 55.5911C28.4546 55.3183 27.5455 54.9093 26.7727 54.2729C26.3636 53.9547 26.0909 53.5456 25.9546 53.0002C25.8182 52.4547 26.2273 51.5002 27.0455 51.5456C27.4546 51.5456 27.7727 51.682 28.0455 51.9547C28.3182 52.2729 28.5455 52.5911 28.8182 52.9093C29.2727 53.5002 29.8636 53.9093 30.5909 54.0911C31.3182 54.2729 32 54.2729 32.6818 54.0456C33.2273 53.8638 33.6818 53.5456 33.9091 53.0002C34.1364 52.5002 34.0455 52.0002 33.5909 51.6365C33.3182 51.4547 33 51.2729 32.6818 51.182C31.9091 50.9547 31.0909 50.7729 30.3182 50.5456C29.5 50.3183 28.6818 50.0911 27.9546 49.5911C27.0455 49.0002 26.5455 48.182 26.4546 47.0911C26.4546 46.182 26.5909 45.3638 27.0455 44.5456C27.4546 43.9093 28 43.3638 28.6364 42.9547C29.3182 42.5456 30.0909 42.2729 30.8636 42.1365C31.7727 42.0002 32.6364 41.9093 33.5455 42.0911C33.9091 42.1365 34.2727 42.182 34.6364 42.2729C34.9091 42.3183 35.1818 42.4093 35.4091 42.5002C35.9091 42.682 36.3636 42.8638 36.8182 43.0911C37.1818 43.2729 37.4091 43.5911 37.4546 44.0002C37.5455 44.2729 37.5455 44.5911 37.5909 44.9547Z" fill="#F6F0EA"/>
<path d="M116.59 47.5913C116.954 47.364 117.272 47.1367 117.636 46.9549C118.045 46.7731 118.499 46.6367 118.954 46.6367C119.499 46.6367 120.045 46.6367 120.545 46.7731C121.318 47.0004 122.045 47.4094 122.59 48.0458C123.181 48.7276 123.545 49.5004 123.636 50.4094C123.818 51.864 123.499 53.2276 122.499 54.364C121.999 54.9094 121.363 55.3185 120.636 55.5458C120.045 55.7731 119.409 55.8185 118.772 55.7731C118.409 55.7276 118.09 55.6367 117.772 55.4094C117.499 55.1822 117.363 54.7731 117.454 54.5004C117.499 54.2731 117.681 54.0913 117.909 54.0913C118.09 54.0913 118.272 54.0458 118.409 54.0004C118.863 53.8185 119.09 53.4549 119.272 53.0004C119.454 52.5913 119.499 52.1367 119.545 51.6822C119.59 51.0004 119.499 50.3185 119.272 49.6367C119.136 49.2276 118.954 48.9094 118.636 48.6367C118.318 48.3185 117.863 48.3185 117.499 48.5458C117.272 48.6822 117.181 48.864 117.09 49.0913C116.954 49.5004 116.954 49.9094 116.954 50.3185C116.954 52.364 116.954 54.4549 116.954 56.5004C116.954 56.6822 116.954 56.864 116.999 57.0458C117.045 57.2276 117.136 57.4094 117.318 57.5458C117.409 57.5913 117.499 57.6367 117.59 57.7276C117.818 57.864 117.909 58.1367 117.863 58.4094C117.818 58.6822 117.636 58.8185 117.363 58.864C117.136 58.9094 116.909 58.9549 116.681 58.9549C115.545 58.9549 114.409 58.9549 113.272 58.9549C112.999 58.9549 112.727 58.9094 112.499 58.8185C112.09 58.6822 111.954 58.1367 112.272 57.8185C112.363 57.7276 112.499 57.6367 112.59 57.5913C112.863 57.4549 112.999 57.2276 112.999 56.9094C112.999 54.4094 112.999 51.9094 112.999 49.4549C112.999 49.0458 112.818 48.7276 112.454 48.5913C112.409 48.5913 112.363 48.5458 112.318 48.5458C111.909 48.4549 111.909 47.9094 112.181 47.6822C112.363 47.5458 112.545 47.4549 112.727 47.364C113.454 47.0458 114.227 46.9094 114.999 46.7731C115.272 46.7276 115.545 46.7276 115.818 46.7731C116.09 46.7731 116.272 47.0004 116.409 47.2276C116.454 47.2731 116.499 47.4549 116.59 47.5913Z" fill="#F6F0EA"/>
<path d="M85.6812 55.9088C84.7721 55.9088 84.1358 55.8179 83.4539 55.6815C82.2721 55.4542 81.1812 55.0451 80.2267 54.3179C79.0903 53.4997 78.2721 52.3633 77.9085 50.9997C77.6358 50.136 77.5903 49.227 77.6812 48.3179C77.863 46.5906 78.6358 45.227 79.9085 44.0906C80.7721 43.3179 81.7721 42.7724 82.9085 42.4088C83.8176 42.136 84.7721 41.9542 85.7267 42.0451C87.1358 42.136 88.4539 42.4542 89.6812 43.227C90.0449 43.4542 90.4085 43.727 90.4994 44.1815C90.5448 44.3633 90.5449 44.5906 90.5449 44.8179C90.5449 45.1815 90.5903 45.5906 90.5449 45.9542C90.4994 46.5906 89.6812 46.9542 89.1812 46.5451C88.9994 46.4088 88.863 46.227 88.7267 46.0451C88.5449 45.727 88.363 45.3633 88.1812 45.0451C87.7721 44.3633 87.2267 43.9088 86.4539 43.727C86.1358 43.636 85.7721 43.636 85.4539 43.636C84.0449 43.727 83.1812 44.5451 82.6358 45.7724C82.3176 46.4542 82.1812 47.227 82.1358 47.9997C82.0449 49.0906 82.0903 50.136 82.4085 51.1815C82.6358 51.9542 82.9994 52.636 83.5903 53.1815C84.0903 53.5906 84.6358 53.8179 85.2721 53.9542C85.8176 54.0451 86.3176 54.0451 86.8176 53.9088C87.3176 53.8179 87.7721 53.5451 88.1812 53.227C88.5449 52.9088 88.863 52.5906 89.2267 52.3179C89.4085 52.1815 89.5903 51.9997 89.8176 51.9088C90.3176 51.6815 90.8176 51.9997 90.863 52.5451C90.9085 53.0906 90.6358 53.4997 90.3176 53.8633C89.8176 54.4542 89.1358 54.8179 88.4539 55.1815C87.9085 55.4542 87.363 55.636 86.8176 55.7724C86.363 55.8633 85.9085 55.8633 85.6812 55.9088Z" fill="#F6F0EA"/>
<path d="M72.3184 55.5452C72.1365 55.5452 72.0002 55.5452 71.8184 55.5906C70.6365 55.6816 69.5911 55.4543 68.7729 54.4543C68.3638 53.9543 68.0911 53.4088 67.9093 52.8179C67.5456 51.8179 67.3184 50.8179 67.182 49.7725C67.1365 49.4543 67.0911 49.1361 67.0456 48.8179C67.0002 48.4543 66.8638 48.0906 66.5911 47.7725C66.2729 47.3634 66.4093 46.9543 66.9093 46.8634C67.0456 46.8179 67.182 46.8179 67.3638 46.8179C68.5002 46.8179 69.6365 46.8179 70.7729 46.8179C70.9547 46.8179 71.0911 46.8634 71.2729 46.8634C71.8184 46.9543 71.9093 47.6361 71.6365 47.9088C71.2729 48.227 71.2274 48.6816 71.2274 49.1361C71.2729 49.8179 71.3638 50.4543 71.5002 51.1361C71.7274 51.9997 72.0002 52.8179 72.4547 53.5452C72.5456 53.727 72.682 53.9088 72.9093 53.9997C73.0911 53.9543 73.2275 53.8179 73.2729 53.6361C73.4547 53.227 73.6365 52.8634 73.7729 52.4088C74.1365 51.1816 74.2729 49.9088 74.2729 48.6361C74.2729 48.2725 74.1365 48.0452 73.8184 47.8634C73.4547 47.6816 73.4093 47.5452 73.4547 47.1816C73.4547 46.9543 73.5456 46.8634 73.7729 46.8179C73.9093 46.7725 74.0456 46.7725 74.182 46.7725C74.8638 46.7725 75.5911 46.7725 76.2729 46.7725C76.4547 46.7725 76.5911 46.8179 76.7729 46.8634C77.1365 46.9543 77.2729 47.3179 77.0911 47.6361C77.0002 47.7725 76.9093 47.8634 76.7729 47.9543C76.5456 48.1816 76.4093 48.4088 76.4093 48.727C76.4093 49.5452 76.182 50.3179 76.0002 51.1361C75.8184 51.8179 75.5911 52.4997 75.4093 53.1361C75.0911 54.0452 74.7275 54.9088 74.2274 55.727C73.6365 56.7725 72.9093 57.727 71.8184 58.3634C71.0456 58.8179 70.2274 59.0452 69.3638 58.9543C68.9093 58.9088 68.5002 58.7725 68.1365 58.4997C67.5456 58.0906 67.6365 57.0906 68.2729 56.7725C68.8184 56.4543 69.4093 56.5452 69.9547 56.8179C70.1365 56.9088 70.2729 56.9997 70.4093 57.0906C70.5456 57.1816 70.682 57.1816 70.8184 57.0906C71.4547 56.7725 71.9093 56.2725 72.2729 55.6361C72.3184 55.6361 72.3184 55.5906 72.3184 55.5452Z" fill="#F6F0EA"/>
<path d="M97.0452 55.773C95.6816 55.7275 94.4089 55.4093 93.2725 54.5911C92.4998 54.0457 91.9543 53.3639 91.6816 52.4548C91.4543 51.773 91.4089 51.0457 91.5907 50.3184C91.9089 48.9093 92.7725 48.0002 93.9998 47.3184C94.6816 46.9548 95.4089 46.7275 96.1816 46.6366C96.8634 46.5457 97.5907 46.5457 98.2725 46.6821C99.0907 46.8184 99.8634 47.0911 100.545 47.5457C101.5 48.1366 102.182 48.9548 102.5 50.0457C102.863 51.5002 102.545 52.8639 101.5 53.9548C100.863 54.6366 100.045 55.0911 99.1816 55.3639C98.4998 55.6821 97.7725 55.8184 97.0452 55.773ZM98.5907 51.2275C98.5452 50.6821 98.4998 50.1821 98.4089 49.6366C98.318 49.2275 98.1816 48.8184 97.9089 48.5002C97.4998 48.0002 96.6362 48.0457 96.2271 48.5457C96.1362 48.6821 96.0452 48.773 95.9998 48.9093C95.7725 49.3639 95.6816 49.8184 95.6816 50.3184C95.6362 51.1366 95.5907 52.0002 95.7725 52.8184C95.8634 53.1821 95.9543 53.5002 96.1816 53.8184C96.5907 54.4093 97.4543 54.4093 97.8634 53.9548C98.0907 53.7275 98.2271 53.4548 98.2725 53.1821C98.4998 52.5457 98.5452 51.9093 98.5907 51.2275Z" fill="#F6F0EA"/>
<path d="M51.5906 55.7732C50.227 55.7732 48.9088 55.4096 47.8179 54.5914C46.8179 53.8641 46.1815 52.9096 46.0452 51.6823C45.9088 50.2732 46.3633 49.1368 47.3633 48.1823C48.0452 47.5005 48.9088 47.1368 49.8179 46.8641C50.6815 46.5914 51.5452 46.5914 52.4088 46.6823C53.7724 46.8187 54.9997 47.3187 55.9997 48.3187C56.5906 48.9096 57.0452 49.6368 57.1361 50.5005C57.3179 51.6368 57.1361 52.7278 56.4088 53.6368C55.727 54.5459 54.8179 55.0914 53.7724 55.455C53.0906 55.6823 52.3633 55.8187 51.5906 55.7732ZM50.0906 51.1823C50.1361 51.6823 50.1815 52.1823 50.2724 52.6823C50.3179 53.0005 50.4542 53.3641 50.5906 53.6368C50.9997 54.455 52.0906 54.455 52.4997 53.7278C52.6815 53.455 52.8179 53.1368 52.8633 52.8187C52.9088 52.4096 52.9542 52.0005 52.9997 51.5914C53.0452 51.0005 52.9997 50.3641 52.9088 49.7732C52.8633 49.3187 52.727 48.8641 52.4088 48.5005C51.9997 47.955 51.1361 47.9096 50.727 48.4096C50.4997 48.6368 50.3633 48.9096 50.3179 49.2278C50.1815 49.9096 50.1361 50.5459 50.0906 51.1823Z" fill="#F6F0EA"/>
<path d="M128.818 46.6367C130.136 46.6367 131.181 46.8185 132.227 47.2276C132.545 47.364 132.727 47.5458 132.818 47.864C132.909 48.2731 132.954 48.7276 132.863 49.1367C132.727 49.7276 132.045 49.8185 131.681 49.4549C131.545 49.3185 131.409 49.0913 131.272 48.9549C131.091 48.7276 130.954 48.5004 130.772 48.3185C130.545 48.0913 130.227 48.0004 129.909 48.0004C129.591 48.0004 129.272 47.9549 128.954 48.1367C128.681 48.2731 128.5 48.5004 128.454 48.7731C128.454 49.0913 128.591 49.2731 128.863 49.4094C129.136 49.5458 129.454 49.6367 129.772 49.7276C130.545 49.9094 131.318 50.0458 132 50.4549C132.727 50.864 133.136 51.5004 133.136 52.3185C133.181 53.6822 132.454 54.5913 131.318 55.1367C130.5 55.5458 129.636 55.6822 128.772 55.7276C128.091 55.7731 127.363 55.7276 126.681 55.5913C125.863 55.4094 125.091 55.1822 124.454 54.5458C124.181 54.2276 124 53.9094 124.045 53.4549C124.045 53.1367 124.454 52.6367 124.863 52.6367C125.227 52.6367 125.5 52.7276 125.727 52.9549C125.909 53.1367 126.045 53.3185 126.227 53.5004C126.454 53.7731 126.772 54.0004 127.136 54.0913C127.681 54.2276 128.227 54.2276 128.681 53.864C129.136 53.5458 129.091 53.0004 128.591 52.7276C128.363 52.5913 128.091 52.5004 127.863 52.4549C127.454 52.364 127.045 52.2731 126.636 52.1822C126.091 52.0458 125.591 51.9094 125.091 51.5913C124.545 51.2276 124.318 50.6822 124.272 50.0913C124.181 48.864 124.727 47.9549 125.772 47.3185C126.863 46.8185 127.954 46.6367 128.818 46.6367Z" fill="#F6F0EA"/>
<path d="M43.7724 46.773C43.9543 46.773 44.0452 46.773 44.1815 46.8185C44.5452 46.8639 44.9543 46.8639 45.3179 46.9094C45.5906 46.9548 45.7724 47.1366 45.8634 47.4094C45.9543 47.8639 45.8179 48.2276 45.4997 48.3639C45.3179 48.4548 45.1361 48.4548 44.9543 48.5003C44.6815 48.5457 44.4543 48.5457 44.1815 48.5457C44.0906 48.5457 43.9997 48.5457 43.9088 48.5457C43.9088 48.6821 43.9088 48.773 43.9088 48.8639C43.9088 50.1366 43.9088 51.4548 43.9088 52.7276C43.9088 52.9548 43.9543 53.1366 43.9543 53.3639C43.9997 53.6821 44.2724 53.9094 44.6361 53.9094C44.9543 53.9094 45.2724 53.9548 45.5906 54.0003C46.1361 54.0912 46.2724 54.8639 45.9088 55.2276C45.727 55.4094 45.5452 55.5003 45.3179 55.5457C44.9997 55.5912 44.727 55.6366 44.4088 55.6366C43.6815 55.6366 42.9997 55.6366 42.2724 55.6366C41.8634 55.6366 41.4543 55.6366 41.0452 55.5457C40.5906 55.5003 40.227 55.2276 40.0906 54.773C39.9997 54.5003 39.9543 54.2276 39.9543 54.0003C39.9543 52.3185 39.9543 50.6366 39.9543 48.9548C39.9543 48.8185 39.9543 48.7276 39.9543 48.5912C39.6361 48.5457 39.3179 48.5003 38.9997 48.4548C38.6361 48.4094 38.5452 48.2276 38.4997 47.9094C38.4543 47.3639 38.6815 47.1366 39.3634 46.9548C39.6815 46.8639 39.9997 46.773 40.2724 46.6366C40.7724 46.3639 40.9997 45.9548 41.1361 45.4094C41.1815 45.0912 41.2724 44.8185 41.3634 44.5003C41.4543 44.1821 41.727 44.0457 42.0452 43.9548C42.4997 43.8639 42.9543 43.9094 43.3634 43.9548C43.5452 43.9548 43.6815 44.0457 43.727 44.2276C43.7724 44.3185 43.7724 44.4548 43.7724 44.5912C43.7724 45.2276 43.7724 45.8185 43.7724 46.4548C43.7724 46.5003 43.7724 46.6366 43.7724 46.773Z" fill="#F6F0EA"/>
<path d="M107.545 48.3181C107.727 48.0453 107.909 47.8181 108.091 47.5908C108.682 46.909 109.363 46.5453 110.272 46.6817C110.727 46.7271 111.091 47.0453 111.272 47.4544C111.545 47.9999 111.545 48.5908 111.182 49.1362C110.909 49.5453 110.545 49.7271 110.091 49.7726C109.772 49.8181 109.454 49.6817 109.136 49.6362C108.5 49.5908 108.136 49.909 108.091 50.5453C108.091 50.8635 108.091 51.1817 108.091 51.4999C108.091 52.1817 108.091 52.8635 108.091 53.5453C108.091 53.909 108.227 54.1817 108.545 54.3635C108.636 54.409 108.682 54.4544 108.727 54.4999C108.954 54.6817 109.045 54.9544 108.954 55.2271C108.909 55.4544 108.682 55.5908 108.409 55.6362C108.045 55.6817 107.682 55.6817 107.363 55.6817C106.5 55.6817 105.636 55.6817 104.727 55.6817C104.409 55.6817 104.045 55.6362 103.727 55.6362C103.409 55.5908 103.227 55.4544 103.182 55.1817C103.136 54.8635 103.227 54.6362 103.5 54.4544C103.636 54.3635 103.772 54.2726 103.909 54.1362C104.091 53.9544 104.136 53.6817 104.136 53.4544C104.136 52.3635 104.136 51.3181 104.136 50.2271C104.136 49.5908 103.909 49.0453 103.272 48.7271C103.227 48.7271 103.227 48.6817 103.182 48.6817C102.636 48.409 102.727 47.7271 103.227 47.5453C103.636 47.3635 104.091 47.2271 104.545 47.0908C104.954 46.9544 105.363 46.8635 105.818 46.7726C106.091 46.7271 106.409 46.6817 106.682 46.7271C107 46.7726 107.182 47.0453 107.272 47.3181C107.363 47.5453 107.409 47.8181 107.454 48.0453C107.5 48.0908 107.545 48.1817 107.545 48.3181Z" fill="#F6F0EA"/>
<path d="M62.1358 48.2731C62.1813 48.1822 62.2722 48.0913 62.3176 48.0004C62.7267 47.4094 63.1813 46.9094 63.9086 46.7276C64.7722 46.5004 65.6358 46.7276 65.9086 47.6822C66.0904 48.2731 66.0449 48.8185 65.5904 49.3185C65.1813 49.7731 64.6358 49.8185 64.0904 49.6822C63.9086 49.6367 63.7267 49.5913 63.4995 49.5913C63.1813 49.5458 62.8631 49.7731 62.7722 50.0913C62.7267 50.3185 62.6358 50.5458 62.6358 50.7731C62.6358 51.6367 62.6358 52.4549 62.6358 53.3185C62.6358 53.8185 62.7722 54.1822 63.2267 54.4094C63.454 54.5458 63.5904 54.7276 63.5904 55.0004C63.5904 55.3185 63.4086 55.5458 63.0904 55.5458C62.8176 55.5913 62.4995 55.5913 62.1813 55.5913C61.2267 55.5913 60.3176 55.5913 59.3631 55.5913C58.9995 55.5913 58.6358 55.5458 58.3176 55.5458C58.0904 55.5458 57.9086 55.4094 57.8176 55.2276C57.7267 55.0004 57.7267 54.7276 57.9086 54.5458C57.9995 54.4549 58.0904 54.364 58.2267 54.3185C58.4995 54.1822 58.6358 53.9549 58.6813 53.6822C58.7267 53.5004 58.7267 53.364 58.7267 53.1822C58.7267 52.2731 58.7267 51.364 58.7267 50.4549C58.7267 50.2276 58.6813 50.0004 58.6358 49.7276C58.5904 49.3185 58.3631 49.0004 57.9995 48.7731C57.9086 48.7276 57.8176 48.6822 57.7267 48.5913C57.3176 48.3185 57.3176 47.8185 57.7267 47.5458C58.0449 47.3185 58.3631 47.2276 58.7267 47.1367C59.1358 47.0004 59.4995 46.9094 59.9086 46.8185C60.2722 46.7276 60.6358 46.6367 61.0449 46.6367C61.4086 46.6367 61.6358 46.8185 61.7722 47.0913C61.954 47.4094 61.9995 47.7276 62.0449 48.0458C62.0449 48.0913 62.0449 48.1822 62.0904 48.2276C62.0904 48.2731 62.1358 48.2731 62.1358 48.2731Z" fill="#F6F0EA"/>
</g>
<defs>
<clipPath id="clip0">
<rect width="108.5" height="17" fill="white" transform="translate(26 42)"/>
</clipPath>
</defs>
</svg>
