<svg width="160" height="100" viewBox="0 0 160 100" fill="none" xmlns="http://www.w3.org/2000/svg">
<g clip-path="url(#clip0)">
<path d="M91.2919 35.745L80.4889 62.9242L69.8877 35.745H68.4268L79.851 65.248L81.069 65.2192L92.7645 35.7457H91.2918L91.2919 35.745Z" fill="#F6F0EA"/>
<path d="M96.7963 36.5448C96.2302 37.0331 95.4694 37.9125 94.9729 39.3743C94.7144 40.1303 91.7351 48.0905 87.0009 60.668L86.9145 60.8974L86.8266 61.1302C86.5164 61.9356 86.1654 62.8496 86.6449 63.7341C86.7731 63.9709 86.9473 64.1699 87.1611 64.3354V64.6597L73.9892 64.6647V64.3402C74.2025 64.1749 74.3768 63.976 74.504 63.7386C74.9835 62.8524 74.6325 61.9408 74.3225 61.1359L74.2332 60.9021L74.1507 60.684C69.4054 48.1047 66.4183 40.1421 66.1599 39.3866C65.6617 37.9244 64.9009 37.0459 64.3331 36.558V36.324L76.1238 36.3196V36.5336C75.6895 36.8611 75.4391 37.2381 75.2992 37.5435C75.0772 38.0267 74.8975 38.8278 75.3027 39.9025L79.337 50.5977L80.4907 53.878L81.8057 50.5972L85.8335 39.8984C86.2366 38.8238 86.0577 38.0221 85.8335 37.5403C85.6932 37.2342 85.4438 36.8573 85.0087 36.5303V36.3168L96.7978 36.3129V36.5463L96.7963 36.5448ZM98.0598 35.0092L83.6326 35.014V37.2114C84.4368 37.5626 84.9442 38.3747 84.5398 39.4488C82.9519 43.6732 80.5135 50.1469 80.5135 50.1469C80.5135 50.1469 78.0712 43.6751 76.479 39.4523C76.074 38.378 76.479 37.5441 77.3858 37.2138L77.384 35.0161L62.9561 35.0215V37.2473C62.9561 37.2473 64.1768 37.8406 64.8534 39.8275C65.2885 41.1044 72.4473 60.0756 72.941 61.3835C73.3465 62.4583 73.6354 63.3738 72.6119 63.8603V66.001L88.4227 65.9949V63.855C87.4791 63.3736 87.6879 62.4532 88.0923 61.3779C88.585 60.0691 95.7296 41.0928 96.1641 39.8164C96.8391 37.8294 98.0588 37.235 98.0588 37.235L98.057 35.0097L98.0598 35.0092Z" fill="#F6F0EA"/>
</g>
<defs>
<clipPath id="clip0">
<rect width="36.9458" height="33" fill="white" transform="translate(62 34)"/>
</clipPath>
</defs>
</svg>
