<svg width="1362" height="912" viewBox="0 0 1362 912" fill="none" xmlns="http://www.w3.org/2000/svg">
<rect width="1362" height="912" fill="#FAFAFA"/>
<rect x="48" y="48" width="1266" height="816" fill="#FAFAFA"/>
<rect x="48" y="48" width="1266" height="816" stroke="#EAEAEA"/>
<g clip-path="url(#clip0_187_80403)">
<rect x="96" y="96" width="1170" height="720" fill="#FAFAFA"/>
<rect x="96" y="96" width="585" height="720" fill="white"/>
<rect x="96" y="96" width="585" height="720" stroke="#EAEAEA"/>
<rect x="136" y="136" width="36" height="36" rx="18" fill="#F2F2F2"/>
<rect x="188" y="136" width="36" height="36" rx="18" fill="#EBEBEB"/>
<rect x="240" y="136" width="36" height="36" rx="18" fill="#E6E6E6"/>
<rect x="292" y="136" width="36" height="36" rx="18" fill="#EAEAEA"/>
<rect x="344" y="136" width="36" height="36" rx="18" fill="#C9C9C9"/>
<rect x="396" y="136" width="36" height="36" rx="18" fill="#A8A8A8"/>
<rect x="448" y="136" width="36" height="36" rx="18" fill="#8F8F8F"/>
<rect x="500" y="136" width="36" height="36" rx="18" fill="#7D7D7D"/>
<rect x="552" y="136" width="36" height="36" rx="18" fill="#666666"/>
<rect x="604" y="136" width="36" height="36" rx="18" fill="#171717"/>
<rect x="136" y="188" width="36" height="36" rx="18" fill="#F0F7FF"/>
<rect x="188" y="188" width="36" height="36" rx="18" fill="#EDF6FF"/>
<rect x="240" y="188" width="36" height="36" rx="18" fill="#E1F0FF"/>
<rect x="292" y="188" width="36" height="36" rx="18" fill="#CDE7FF"/>
<rect x="344" y="188" width="36" height="36" rx="18" fill="#99CEFF"/>
<rect x="396" y="188" width="36" height="36" rx="18" fill="#52AEFF"/>
<rect x="448" y="188" width="36" height="36" rx="18" fill="#0070F3"/>
<rect x="500" y="188" width="36" height="36" rx="18" fill="#0060D1"/>
<rect x="552" y="188" width="36" height="36" rx="18" fill="#0067D6"/>
<rect x="604" y="188" width="36" height="36" rx="18" fill="#00254D"/>
<rect x="136" y="240" width="36" height="36" rx="18" fill="#FFF0F0"/>
<rect x="188" y="240" width="36" height="36" rx="18" fill="#FFEBEB"/>
<rect x="240" y="240" width="36" height="36" rx="18" fill="#FFE5E5"/>
<rect x="292" y="240" width="36" height="36" rx="18" fill="#FDD8D8"/>
<rect x="344" y="240" width="36" height="36" rx="18" fill="#F8BABA"/>
<rect x="396" y="240" width="36" height="36" rx="18" fill="#F87274"/>
<rect x="448" y="240" width="36" height="36" rx="18" fill="#E5484D"/>
<rect x="500" y="240" width="36" height="36" rx="18" fill="#DA3036"/>
<rect x="552" y="240" width="36" height="36" rx="18" fill="#CA2A30"/>
<rect x="604" y="240" width="36" height="36" rx="18" fill="#381316"/>
<rect x="136" y="292" width="36" height="36" rx="18" fill="#FFF6E5"/>
<rect x="188" y="292" width="36" height="36" rx="18" fill="#FFF4D5"/>
<rect x="240" y="292" width="36" height="36" rx="18" fill="#FEF0CD"/>
<rect x="292" y="292" width="36" height="36" rx="18" fill="#FFDD8F"/>
<rect x="344" y="292" width="36" height="36" rx="18" fill="#FFC96B"/>
<rect x="396" y="292" width="36" height="36" rx="18" fill="#F5B047"/>
<rect x="448" y="292" width="36" height="36" rx="18" fill="#FFB224"/>
<rect x="500" y="292" width="36" height="36" rx="18" fill="#FF990A"/>
<rect x="552" y="292" width="36" height="36" rx="18" fill="#A35200"/>
<rect x="604" y="292" width="36" height="36" rx="18" fill="#4E2009"/>
<rect x="136" y="344" width="36" height="36" rx="18" fill="#EFFBEF"/>
<rect x="188" y="344" width="36" height="36" rx="18" fill="#EAFAEA"/>
<rect x="240" y="344" width="36" height="36" rx="18" fill="#DCF6DC"/>
<rect x="292" y="344" width="36" height="36" rx="18" fill="#C8F1C9"/>
<rect x="344" y="344" width="36" height="36" rx="18" fill="#99E59F"/>
<rect x="396" y="344" width="36" height="36" rx="18" fill="#6CDA76"/>
<rect x="448" y="344" width="36" height="36" rx="18" fill="#46A758"/>
<rect x="500" y="344" width="36" height="36" rx="18" fill="#388E4A"/>
<rect x="552" y="344" width="36" height="36" rx="18" fill="#297C3B"/>
<rect x="604" y="344" width="36" height="36" rx="18" fill="#1B311E"/>
<rect x="136" y="396" width="36" height="36" rx="18" fill="#EEFCF9"/>
<rect x="188" y="396" width="36" height="36" rx="18" fill="#E6FAF6"/>
<rect x="240" y="396" width="36" height="36" rx="18" fill="#D5F7F1"/>
<rect x="292" y="396" width="36" height="36" rx="18" fill="#BEF4EB"/>
<rect x="344" y="396" width="36" height="36" rx="18" fill="#86EAD9"/>
<rect x="396" y="396" width="36" height="36" rx="18" fill="#45DEC4"/>
<rect x="448" y="396" width="36" height="36" rx="18" fill="#12A594"/>
<rect x="500" y="396" width="36" height="36" rx="18" fill="#0D8C7D"/>
<rect x="552" y="396" width="36" height="36" rx="18" fill="#067A6F"/>
<rect x="604" y="396" width="36" height="36" rx="18" fill="#063A32"/>
<rect x="136" y="448" width="36" height="36" rx="18" fill="#F9F0FF"/>
<rect x="188" y="448" width="36" height="36" rx="18" fill="#F9F1FE"/>
<rect x="240" y="448" width="36" height="36" rx="18" fill="#F3E7FC"/>
<rect x="292" y="448" width="36" height="36" rx="18" fill="#EDDBF9"/>
<rect x="344" y="448" width="36" height="36" rx="18" fill="#D6B1F1"/>
<rect x="396" y="448" width="36" height="36" rx="18" fill="#BE89EC"/>
<rect x="448" y="448" width="36" height="36" rx="18" fill="#8E4EC6"/>
<rect x="500" y="448" width="36" height="36" rx="18" fill="#763DA9"/>
<rect x="552" y="448" width="36" height="36" rx="18" fill="#793AAF"/>
<rect x="604" y="448" width="36" height="36" rx="18" fill="#2B0E44"/>
<rect x="136" y="500" width="36" height="36" rx="18" fill="#FFEBF5"/>
<rect x="188" y="500" width="36" height="36" rx="18" fill="#FEE7F1"/>
<rect x="240" y="500" width="36" height="36" rx="18" fill="#FED7EA"/>
<rect x="292" y="500" width="36" height="36" rx="18" fill="#FCD5E7"/>
<rect x="344" y="500" width="36" height="36" rx="18" fill="#F8A5CB"/>
<rect x="396" y="500" width="36" height="36" rx="18" fill="#F476AB"/>
<rect x="448" y="500" width="36" height="36" rx="18" fill="#E93D82"/>
<rect x="500" y="500" width="36" height="36" rx="18" fill="#DE2670"/>
<rect x="552" y="500" width="36" height="36" rx="18" fill="#C01B5D"/>
<rect x="604" y="500" width="36" height="36" rx="18" fill="#3D0D1D"/>
<rect x="136.5" y="740.5" width="35" height="35" rx="17.5" fill="white"/>
<rect x="136.5" y="740.5" width="35" height="35" rx="17.5" stroke="#EAEAEA"/>
<rect x="188.5" y="740.5" width="35" height="35" rx="17.5" fill="#FAFAFA"/>
<rect x="188.5" y="740.5" width="35" height="35" rx="17.5" stroke="#EAEAEA"/>
<rect x="604" y="740" width="36" height="36" rx="18" fill="white"/>
<path fill-rule="evenodd" clip-rule="evenodd" d="M622 751L630 765H614L622 751Z" fill="black"/>
<rect width="585" height="720" transform="translate(681 96)" fill="#0A0A0A"/>
<rect x="721" y="136" width="36" height="36" rx="18" fill="#1A1A1A"/>
<rect x="773" y="136" width="36" height="36" rx="18" fill="#1F1F1F"/>
<rect x="825" y="136" width="36" height="36" rx="18" fill="#292929"/>
<rect x="877" y="136" width="36" height="36" rx="18" fill="#2E2E2E"/>
<rect x="929" y="136" width="36" height="36" rx="18" fill="#454545"/>
<rect x="981" y="136" width="36" height="36" rx="18" fill="#878787"/>
<rect x="1033" y="136" width="36" height="36" rx="18" fill="#8F8F8F"/>
<rect x="1085" y="136" width="36" height="36" rx="18" fill="#7D7D7D"/>
<rect x="1137" y="136" width="36" height="36" rx="18" fill="#A0A0A0"/>
<rect x="1189" y="136" width="36" height="36" rx="18" fill="#EDEDED"/>
<rect x="721" y="188" width="36" height="36" rx="18" fill="#0F1B2D"/>
<rect x="773" y="188" width="36" height="36" rx="18" fill="#10243E"/>
<rect x="825" y="188" width="36" height="36" rx="18" fill="#0F3058"/>
<rect x="877" y="188" width="36" height="36" rx="18" fill="#0D3868"/>
<rect x="929" y="188" width="36" height="36" rx="18" fill="#0A4481"/>
<rect x="981" y="188" width="36" height="36" rx="18" fill="#0091FF"/>
<rect x="1033" y="188" width="36" height="36" rx="18" fill="#0070F3"/>
<rect x="1085" y="188" width="36" height="36" rx="18" fill="#0060D1"/>
<rect x="1137" y="188" width="36" height="36" rx="18" fill="#52A9FF"/>
<rect x="1189" y="188" width="36" height="36" rx="18" fill="#EAF6FF"/>
<rect x="721" y="240" width="36" height="36" rx="18" fill="#2A1314"/>
<rect x="773" y="240" width="36" height="36" rx="18" fill="#3D1719"/>
<rect x="825" y="240" width="36" height="36" rx="18" fill="#551A1E"/>
<rect x="877" y="240" width="36" height="36" rx="18" fill="#671E22"/>
<rect x="929" y="240" width="36" height="36" rx="18" fill="#822025"/>
<rect x="981" y="240" width="36" height="36" rx="18" fill="#E5484D"/>
<rect x="1033" y="240" width="36" height="36" rx="18" fill="#E5484D"/>
<rect x="1085" y="240" width="36" height="36" rx="18" fill="#DA3036"/>
<rect x="1137" y="240" width="36" height="36" rx="18" fill="#FF6369"/>
<rect x="1189" y="240" width="36" height="36" rx="18" fill="#FEECEE"/>
<rect x="721" y="292" width="36" height="36" rx="18" fill="#341C00"/>
<rect x="773" y="292" width="36" height="36" rx="18" fill="#341C00"/>
<rect x="825" y="292" width="36" height="36" rx="18" fill="#4A2900"/>
<rect x="877" y="292" width="36" height="36" rx="18" fill="#573300"/>
<rect x="929" y="292" width="36" height="36" rx="18" fill="#693F05"/>
<rect x="981" y="292" width="36" height="36" rx="18" fill="#E79C13"/>
<rect x="1033" y="292" width="36" height="36" rx="18" fill="#FFB224"/>
<rect x="1085" y="292" width="36" height="36" rx="18" fill="#FF990A"/>
<rect x="1137" y="292" width="36" height="36" rx="18" fill="#F1A10D"/>
<rect x="1189" y="292" width="36" height="36" rx="18" fill="#FEF3DD"/>
<rect x="721" y="344" width="36" height="36" rx="18" fill="#0B2211"/>
<rect x="773" y="344" width="36" height="36" rx="18" fill="#0F2C17"/>
<rect x="825" y="344" width="36" height="36" rx="18" fill="#11351B"/>
<rect x="877" y="344" width="36" height="36" rx="18" fill="#0C461B"/>
<rect x="929" y="344" width="36" height="36" rx="18" fill="#126427"/>
<rect x="981" y="344" width="36" height="36" rx="18" fill="#1A9338"/>
<rect x="1033" y="344" width="36" height="36" rx="18" fill="#46A758"/>
<rect x="1085" y="344" width="36" height="36" rx="18" fill="#388E4A"/>
<rect x="1137" y="344" width="36" height="36" rx="18" fill="#63C174"/>
<rect x="1189" y="344" width="36" height="36" rx="18" fill="#E5FBEB"/>
<rect x="721" y="396" width="36" height="36" rx="18" fill="#04201B"/>
<rect x="773" y="396" width="36" height="36" rx="18" fill="#062923"/>
<rect x="825" y="396" width="36" height="36" rx="18" fill="#083A33"/>
<rect x="877" y="396" width="36" height="36" rx="18" fill="#053C34"/>
<rect x="929" y="396" width="36" height="36" rx="18" fill="#085E53"/>
<rect x="981" y="396" width="36" height="36" rx="18" fill="#0C9784"/>
<rect x="1033" y="396" width="36" height="36" rx="18" fill="#12A594"/>
<rect x="1085" y="396" width="36" height="36" rx="18" fill="#0D8C7D"/>
<rect x="1137" y="396" width="36" height="36" rx="18" fill="#0AC5B3"/>
<rect x="1189" y="396" width="36" height="36" rx="18" fill="#E1FAF4"/>
<rect x="721" y="448" width="36" height="36" rx="18" fill="#221527"/>
<rect x="773" y="448" width="36" height="36" rx="18" fill="#432155"/>
<rect x="825" y="448" width="36" height="36" rx="18" fill="#432155"/>
<rect x="877" y="448" width="36" height="36" rx="18" fill="#4E2667"/>
<rect x="929" y="448" width="36" height="36" rx="18" fill="#5F2D84"/>
<rect x="981" y="448" width="36" height="36" rx="18" fill="#8E4EC6"/>
<rect x="1033" y="448" width="36" height="36" rx="18" fill="#8E4EC6"/>
<rect x="1085" y="448" width="36" height="36" rx="18" fill="#763DA9"/>
<rect x="1137" y="448" width="36" height="36" rx="18" fill="#BF7AF0"/>
<rect x="1189" y="448" width="36" height="36" rx="18" fill="#F7ECFC"/>
<rect x="721" y="500" width="36" height="36" rx="18" fill="#27141C"/>
<rect x="773" y="500" width="36" height="36" rx="18" fill="#3C1827"/>
<rect x="825" y="500" width="36" height="36" rx="18" fill="#4F1C31"/>
<rect x="877" y="500" width="36" height="36" rx="18" fill="#541B33"/>
<rect x="929" y="500" width="36" height="36" rx="18" fill="#6C1E3F"/>
<rect x="981" y="500" width="36" height="36" rx="18" fill="#B21A57"/>
<rect x="1033" y="500" width="36" height="36" rx="18" fill="#E93D82"/>
<rect x="1085" y="500" width="36" height="36" rx="18" fill="#DE2670"/>
<rect x="1137" y="500" width="36" height="36" rx="18" fill="#F76190"/>
<rect x="1189" y="500" width="36" height="36" rx="18" fill="#FEECF4"/>
<rect x="721.5" y="740.5" width="35" height="35" rx="17.5" fill="#0A0A0A"/>
<rect x="721.5" y="740.5" width="35" height="35" rx="17.5" stroke="#2E2E2E"/>
<rect x="773.5" y="740.5" width="35" height="35" rx="17.5" fill="black"/>
<rect x="773.5" y="740.5" width="35" height="35" rx="17.5" stroke="#2E2E2E"/>
<rect x="1189" y="740" width="36" height="36" rx="18" fill="#0A0A0A"/>
<path fill-rule="evenodd" clip-rule="evenodd" d="M1207 751L1215 765H1199L1207 751Z" fill="white"/>
</g>
<rect x="96" y="96" width="1170" height="720" stroke="#EAEAEA"/>
<path fill-rule="evenodd" clip-rule="evenodd" d="M1314.5 853.5H1313.5V863.5H1303.5V864.5H1313.5V874.5H1314.5V864.5H1324.5V863.5H1314.5V853.5Z" fill="#A8A8A8"/>
<path fill-rule="evenodd" clip-rule="evenodd" d="M48.5 37.5H47.5V47.5H37.5V48.5H47.5V58.5H48.5V48.5H58.5V47.5H48.5V37.5Z" fill="#A8A8A8"/>
<defs>
<clipPath id="clip0_187_80403">
<rect x="96" y="96" width="1170" height="720" fill="white"/>
</clipPath>
</defs>
</svg>
