<svg width="375" height="812" viewBox="0 0 375 812" fill="none" xmlns="http://www.w3.org/2000/svg">
<g clip-path="url(#clip0_168_17102)">
<rect width="375" height="812" fill="white"/>
<g clip-path="url(#clip1_168_17102)">
<mask id="path-1-inside-1_168_17102" fill="white">
<path d="M0 0H375V104H0V0Z"/>
</mask>
<path d="M0 0H375V104H0V0Z" fill="white"/>
<g clip-path="url(#clip2_168_17102)">
<g clip-path="url(#clip3_168_17102)">
<g clip-path="url(#clip4_168_17102)">
<circle cx="26" cy="32" r="10" fill="black"/>
<path fill-rule="evenodd" clip-rule="evenodd" d="M26 27.625L30.375 35.2813H21.625L26 27.625Z" fill="white"/>
</g>
</g>
<rect x="16.5" y="22.5" width="19" height="19" rx="9.5" stroke="white" stroke-opacity="0.145"/>
<path d="M44.308 27.06H45.904L48.816 35.348L51.714 27.06H53.31L49.726 37H47.892L44.308 27.06ZM53.5441 33.29C53.5441 30.924 54.9301 29.412 57.0581 29.412C58.7941 29.412 60.3061 30.56 60.3901 33.206L60.4041 33.71H55.0701C55.1821 35.096 55.8821 35.908 57.0581 35.908C57.8001 35.908 58.4581 35.488 58.7661 34.774L60.2921 34.886C59.8581 36.286 58.5561 37.168 57.0581 37.168C54.9301 37.168 53.5441 35.656 53.5441 33.29ZM55.0981 32.59H58.8641C58.6681 31.162 57.8981 30.672 57.0581 30.672C55.9661 30.672 55.2801 31.386 55.0981 32.59ZM62.0731 29.58H63.4031L63.4451 30.98C63.6831 30.028 64.2431 29.58 65.2091 29.58H65.9231V30.784H65.1951C64.0471 30.784 63.5291 31.414 63.5291 32.66V37H62.0731V29.58ZM71.864 32.17C71.724 31.232 70.982 30.686 70.142 30.686C68.868 30.686 68.14 31.666 68.14 33.29C68.14 34.914 68.868 35.894 70.142 35.894C71.024 35.894 71.766 35.32 71.92 34.284L73.446 34.368C73.208 36.104 71.822 37.168 70.142 37.168C68.014 37.168 66.628 35.656 66.628 33.29C66.628 30.924 68.014 29.412 70.142 29.412C71.766 29.412 73.18 30.42 73.376 32.086L71.864 32.17ZM74.5714 33.29C74.5714 30.924 75.9574 29.412 78.0854 29.412C79.8214 29.412 81.3334 30.56 81.4174 33.206L81.4314 33.71H76.0974C76.2094 35.096 76.9094 35.908 78.0854 35.908C78.8274 35.908 79.4854 35.488 79.7934 34.774L81.3194 34.886C80.8854 36.286 79.5834 37.168 78.0854 37.168C75.9574 37.168 74.5714 35.656 74.5714 33.29ZM76.1254 32.59H79.8914C79.6954 31.162 78.9254 30.672 78.0854 30.672C76.9934 30.672 76.3074 31.386 76.1254 32.59ZM83.2525 27.06H84.7085V35.306C84.7085 35.642 84.8625 35.796 85.1845 35.796H85.8005V37H84.8765C83.8965 37 83.2525 36.37 83.2525 35.376V27.06Z" fill="#171717"/>
<path fill-rule="evenodd" clip-rule="evenodd" d="M103.707 26.3964C103.317 26.0059 102.683 26.0059 102.293 26.3964L99.4697 29.2196L98.9393 29.75L100 30.8106L100.53 30.2803L103 27.8106L105.47 30.2803L106 30.8106L107.061 29.75L106.53 29.2196L103.707 26.3964ZM100.53 33.7196L100 33.1893L98.9393 34.25L99.4697 34.7803L102.293 37.6035C102.683 37.994 103.317 37.994 103.707 37.6035L106.53 34.7803L107.061 34.25L106 33.1893L105.47 33.7196L103 36.1893L100.53 33.7196Z" fill="#666666"/>
</g>
<path d="M283 32C283 23.1634 290.163 16 299 16V16C307.837 16 315 23.1634 315 32V32C315 40.8366 307.837 48 299 48V48C290.163 48 283 40.8366 283 32V32Z" fill="white"/>
<path d="M282.5 32C282.5 41.1127 289.887 48.5 299 48.5C308.113 48.5 315.5 41.1127 315.5 32C315.5 22.8873 308.113 15.5 299 15.5C289.887 15.5 282.5 22.8873 282.5 32Z" stroke="black" stroke-opacity="0.08"/>
<path fill-rule="evenodd" clip-rule="evenodd" d="M298.992 24C295.951 24 293.485 26.4658 293.485 29.5075V32.2267C293.485 32.7732 293.213 33.2839 292.76 33.5891L292.331 33.8779L292 34.1009V34.5V35.25V36H292.75H305.25H306V35.25V34.5V34.0986L305.666 33.876L305.231 33.5856C304.774 33.2814 304.5 32.7691 304.5 32.2206V29.5075C304.5 26.4658 302.034 24 298.992 24ZM294.985 29.5075C294.985 27.2942 296.779 25.5 298.992 25.5C301.206 25.5 303 27.2942 303 29.5075V32.2206C303 33.0903 303.36 33.9123 303.98 34.5H294.012C294.628 33.9123 294.985 33.093 294.985 32.2267V29.5075ZM301.749 37.5H300.168L300.163 37.5133C300.096 37.716 299.945 37.9098 299.721 38.0501C299.523 38.1732 299.276 38.25 299 38.25C298.724 38.25 298.477 38.1732 298.279 38.0501C298.055 37.9098 297.904 37.716 297.837 37.5133L297.832 37.5H296.251L296.413 37.9867C296.601 38.5516 296.993 39.0152 297.485 39.3226C297.922 39.5949 298.445 39.75 299 39.75C299.555 39.75 300.078 39.5949 300.515 39.3226C301.007 39.0152 301.399 38.5516 301.587 37.9867L301.749 37.5Z" fill="#666666"/>
<path d="M327 32C327 23.1634 334.163 16 343 16V16C351.837 16 359 23.1634 359 32V32C359 40.8366 351.837 48 343 48V48C334.163 48 327 40.8366 327 32V32Z" fill="white"/>
<path d="M326.5 32C326.5 41.1127 333.887 48.5 343 48.5C352.113 48.5 359.5 41.1127 359.5 32C359.5 22.8873 352.113 15.5 343 15.5C333.887 15.5 326.5 22.8873 326.5 32Z" stroke="black" stroke-opacity="0.08"/>
<path fill-rule="evenodd" clip-rule="evenodd" d="M336.75 28H336V29.5H336.75H349.25H350V28H349.25H336.75ZM336.75 34.5H336V36H336.75H349.25H350V34.5H349.25H336.75Z" fill="#666666"/>
<path d="M23.39 85.224C20.632 85.224 18.896 83.222 18.896 80.044C18.896 76.838 20.632 74.836 23.39 74.836C26.148 74.836 27.884 76.838 27.884 80.044C27.884 83.222 26.148 85.224 23.39 85.224ZM20.128 80.044C20.128 82.62 21.304 84.076 23.39 84.076C25.476 84.076 26.652 82.62 26.652 80.044C26.652 77.454 25.476 75.984 23.39 75.984C21.304 75.984 20.128 77.454 20.128 80.044ZM35.5362 77.58L32.8202 85H31.3922L28.6762 77.58H29.9082L32.1062 83.796L34.3042 77.58H35.5362ZM36.1492 81.29C36.1492 78.938 37.4792 77.412 39.5372 77.412C41.1892 77.412 42.6312 78.518 42.7572 81.136L42.7712 81.654H37.3672C37.4792 83.18 38.2492 84.076 39.5372 84.076C40.3492 84.076 41.0772 83.6 41.4132 82.816L42.6452 82.9C42.2112 84.3 40.9652 85.168 39.5372 85.168C37.4792 85.168 36.1492 83.642 36.1492 81.29ZM37.3952 80.632H41.5112C41.3012 79.064 40.4612 78.504 39.5372 78.504C38.3472 78.504 37.5772 79.288 37.3952 80.632ZM44.5562 77.58H45.5642L45.6062 78.952C45.8582 78.014 46.4182 77.58 47.3842 77.58H48.0982V78.588H47.3842C46.2502 78.588 45.7042 79.288 45.7042 80.576V85H44.5562V77.58ZM55.9209 77.58L53.2049 85H51.7769L49.0609 77.58H50.2929L52.4909 83.796L54.6889 77.58H55.9209ZM57.4214 77.58H58.5694V85H57.4214V77.58ZM57.3934 76.418V75.088H58.5974V76.418H57.3934ZM60.4168 81.29C60.4168 78.938 61.7468 77.412 63.8048 77.412C65.4568 77.412 66.8988 78.518 67.0248 81.136L67.0388 81.654H61.6348C61.7468 83.18 62.5168 84.076 63.8048 84.076C64.6168 84.076 65.3448 83.6 65.6808 82.816L66.9128 82.9C66.4788 84.3 65.2328 85.168 63.8048 85.168C61.7468 85.168 60.4168 83.642 60.4168 81.29ZM61.6628 80.632H65.7788C65.5688 79.064 64.7288 78.504 63.8048 78.504C62.6148 78.504 61.8448 79.288 61.6628 80.632ZM73.6747 77.58L75.4527 83.726L77.2447 77.58H78.4767L76.1807 85H74.7387L73.0727 79.316L71.3927 85H69.9507L67.6547 77.58H68.8867L70.6787 83.726L72.4567 77.58H73.6747Z" fill="#666666"/>
<path d="M104.762 75.06H105.938V85H104.762V75.06ZM108.232 77.58H109.282L109.324 78.854C109.702 77.86 110.584 77.412 111.606 77.412C113.3 77.412 114.112 78.658 114.112 80.226V85H112.964V80.562C112.964 79.19 112.502 78.434 111.368 78.434C110.164 78.434 109.38 79.19 109.38 80.562V85H108.232V77.58ZM116.808 75.9H117.956V77.58H119.93V78.602H117.956V83.04C117.956 83.67 118.264 83.978 118.852 83.978H119.916V85H118.852C117.536 85 116.808 84.3 116.808 83.04V78.602H115.716V77.58H116.808V75.9ZM120.852 81.29C120.852 78.938 122.182 77.412 124.24 77.412C125.892 77.412 127.334 78.518 127.46 81.136L127.474 81.654H122.07C122.182 83.18 122.952 84.076 124.24 84.076C125.052 84.076 125.78 83.6 126.116 82.816L127.348 82.9C126.914 84.3 125.668 85.168 124.24 85.168C122.182 85.168 120.852 83.642 120.852 81.29ZM122.098 80.632H126.214C126.004 79.064 125.164 78.504 124.24 78.504C123.05 78.504 122.28 79.288 122.098 80.632ZM132.128 84.608C130.098 84.608 128.796 83.096 128.796 81.01C128.796 78.924 130.126 77.412 132.128 77.412C133.122 77.412 133.934 77.972 134.256 78.77V77.58H135.362V84.272C135.362 86.218 134.032 87.268 132.1 87.268C130.518 87.268 129.328 86.4 129.006 85.112L130.21 85.028C130.504 85.742 131.148 86.176 132.1 86.176C133.416 86.176 134.214 85.588 134.214 84.524V83.292C133.766 84.174 132.926 84.608 132.128 84.608ZM130 81.01C130 82.466 130.798 83.516 132.128 83.516C133.402 83.516 134.214 82.452 134.228 81.01C134.256 79.568 133.444 78.504 132.128 78.504C130.798 78.504 130 79.554 130 81.01ZM137.736 77.58H138.744L138.786 78.952C139.038 78.014 139.598 77.58 140.564 77.58H141.278V78.588H140.564C139.43 78.588 138.884 79.288 138.884 80.576V85H137.736V77.58ZM142.443 79.764C142.737 78.322 143.885 77.412 145.467 77.412C147.385 77.412 148.449 78.532 148.449 80.52V83.502C148.449 83.838 148.589 83.978 148.911 83.978H149.205V85H148.715C147.959 85 147.301 84.748 147.315 83.838C146.993 84.538 146.153 85.168 144.977 85.168C143.507 85.168 142.317 84.384 142.317 83.068C142.317 81.542 143.479 81.15 145.103 80.828L147.301 80.408C147.287 79.12 146.685 78.504 145.467 78.504C144.515 78.504 143.885 78.994 143.661 79.862L142.443 79.764ZM143.521 83.068C143.521 83.67 144.039 84.16 145.131 84.146C146.363 84.146 147.329 83.278 147.329 81.556V81.43L145.551 81.738C144.445 81.934 143.521 82.018 143.521 83.068ZM150.933 75.9H152.081V77.58H154.055V78.602H152.081V83.04C152.081 83.67 152.389 83.978 152.977 83.978H154.041V85H152.977C151.661 85 150.933 84.3 150.933 83.04V78.602H149.841V77.58H150.933V75.9ZM155.783 77.58H156.931V85H155.783V77.58ZM155.755 76.418V75.088H156.959V76.418H155.755ZM162.166 85.168C160.108 85.168 158.778 83.642 158.778 81.29C158.778 78.938 160.108 77.412 162.166 77.412C164.224 77.412 165.554 78.938 165.554 81.29C165.554 83.642 164.224 85.168 162.166 85.168ZM159.982 81.29C159.982 83.026 160.78 84.076 162.166 84.076C163.538 84.076 164.35 83.026 164.35 81.29C164.35 79.554 163.538 78.504 162.166 78.504C160.78 78.504 159.982 79.554 159.982 81.29ZM167.336 77.58H168.386L168.428 78.854C168.806 77.86 169.688 77.412 170.71 77.412C172.404 77.412 173.216 78.658 173.216 80.226V85H172.068V80.562C172.068 79.19 171.606 78.434 170.472 78.434C169.268 78.434 168.484 79.19 168.484 80.562V85H167.336V77.58ZM179.52 79.862C179.352 79.008 178.512 78.504 177.672 78.504C176.832 78.504 176.16 78.938 176.16 79.652C176.174 80.38 177.112 80.688 177.952 80.87C179.646 81.192 180.864 81.668 180.864 83.11C180.864 84.538 179.394 85.168 177.98 85.168C176.23 85.168 174.886 84.202 174.774 82.676L175.978 82.592C176.118 83.488 176.846 84.076 177.98 84.076C178.736 84.076 179.66 83.824 179.66 83.054C179.66 82.158 178.596 82.06 177.742 81.85C176.37 81.528 174.97 81.136 174.97 79.722C174.956 78.308 176.104 77.412 177.798 77.412C179.282 77.412 180.486 78.35 180.724 79.778L179.52 79.862Z" fill="#666666"/>
<path d="M206.746 85L210.344 75.06H211.912L215.51 85H214.222L213.228 82.158H209.028L208.034 85H206.746ZM209.434 81.01H212.822L211.128 76.096L209.434 81.01ZM221.521 80.058C221.353 79.078 220.555 78.504 219.645 78.504C218.259 78.504 217.461 79.554 217.461 81.29C217.461 83.026 218.259 84.076 219.645 84.076C220.597 84.076 221.409 83.446 221.577 82.382L222.795 82.452C222.557 84.132 221.227 85.168 219.645 85.168C217.587 85.168 216.257 83.642 216.257 81.29C216.257 78.938 217.587 77.412 219.645 77.412C221.171 77.412 222.529 78.392 222.725 79.974L221.521 80.058ZM224.818 75.9H225.966V77.58H227.94V78.602H225.966V83.04C225.966 83.67 226.274 83.978 226.862 83.978H227.926V85H226.862C225.546 85 224.818 84.3 224.818 83.04V78.602H223.726V77.58H224.818V75.9ZM229.668 77.58H230.816V85H229.668V77.58ZM229.64 76.418V75.088H230.844V76.418H229.64ZM239.173 77.58L236.457 85H235.029L232.313 77.58H233.545L235.743 83.796L237.941 77.58H239.173ZM240.673 77.58H241.821V85H240.673V77.58ZM240.645 76.418V75.088H241.849V76.418H240.645ZM244.396 75.9H245.544V77.58H247.518V78.602H245.544V83.04C245.544 83.67 245.852 83.978 246.44 83.978H247.504V85H246.44C245.124 85 244.396 84.3 244.396 83.04V78.602H243.304V77.58H244.396V75.9ZM248.364 77.58H249.596L251.85 83.768L254.02 77.58H255.238L252.228 85.938C251.948 86.736 251.416 87.1 250.576 87.1H249.694V86.078H250.464C250.842 86.078 251.066 85.938 251.206 85.546L251.472 84.86H251.08L248.364 77.58Z" fill="#666666"/>
<path d="M284.458 75.06C287.51 75.06 289.232 76.852 289.232 80.044C289.232 83.222 287.552 85 284.542 85H281.392V75.06H284.458ZM282.568 83.852H284.458C286.824 83.852 288 82.578 288 80.044C288 77.482 286.824 76.208 284.458 76.208H282.568V83.852ZM293.966 85.168C291.908 85.168 290.578 83.642 290.578 81.29C290.578 78.938 291.908 77.412 293.966 77.412C296.024 77.412 297.354 78.938 297.354 81.29C297.354 83.642 296.024 85.168 293.966 85.168ZM291.782 81.29C291.782 83.026 292.58 84.076 293.966 84.076C295.338 84.076 296.15 83.026 296.15 81.29C296.15 79.554 295.338 78.504 293.966 78.504C292.58 78.504 291.782 79.554 291.782 81.29ZM299.135 77.58H300.185L300.227 78.84C300.563 77.93 301.333 77.412 302.369 77.412C303.433 77.412 304.203 77.986 304.525 78.98C304.847 77.972 305.631 77.412 306.793 77.412C308.277 77.412 309.145 78.448 309.145 80.226V85H307.997V80.562C307.997 79.204 307.465 78.434 306.555 78.434C305.393 78.434 304.721 79.218 304.721 80.576V85H303.573V80.562C303.573 79.232 303.027 78.434 302.131 78.434C300.983 78.434 300.283 79.246 300.283 80.562V85H299.135V77.58ZM311.034 79.764C311.328 78.322 312.476 77.412 314.058 77.412C315.976 77.412 317.04 78.532 317.04 80.52V83.502C317.04 83.838 317.18 83.978 317.502 83.978H317.796V85H317.306C316.55 85 315.892 84.748 315.906 83.838C315.584 84.538 314.744 85.168 313.568 85.168C312.098 85.168 310.908 84.384 310.908 83.068C310.908 81.542 312.07 81.15 313.694 80.828L315.892 80.408C315.878 79.12 315.276 78.504 314.058 78.504C313.106 78.504 312.476 78.994 312.252 79.862L311.034 79.764ZM312.112 83.068C312.112 83.67 312.63 84.16 313.722 84.146C314.954 84.146 315.92 83.278 315.92 81.556V81.43L314.142 81.738C313.036 81.934 312.112 82.018 312.112 83.068ZM319.37 77.58H320.518V85H319.37V77.58ZM319.342 76.418V75.088H320.546V76.418H319.342ZM322.706 77.58H323.756L323.798 78.854C324.176 77.86 325.058 77.412 326.08 77.412C327.774 77.412 328.586 78.658 328.586 80.226V85H327.438V80.562C327.438 79.19 326.976 78.434 325.842 78.434C324.638 78.434 323.854 79.19 323.854 80.562V85H322.706V77.58ZM334.89 79.862C334.722 79.008 333.882 78.504 333.042 78.504C332.202 78.504 331.53 78.938 331.53 79.652C331.544 80.38 332.482 80.688 333.322 80.87C335.016 81.192 336.234 81.668 336.234 83.11C336.234 84.538 334.764 85.168 333.35 85.168C331.6 85.168 330.256 84.202 330.144 82.676L331.348 82.592C331.488 83.488 332.216 84.076 333.35 84.076C334.106 84.076 335.03 83.824 335.03 83.054C335.03 82.158 333.966 82.06 333.112 81.85C331.74 81.528 330.34 81.136 330.34 79.722C330.326 78.308 331.474 77.412 333.168 77.412C334.652 77.412 335.856 78.35 336.094 79.778L334.89 79.862Z" fill="#666666"/>
<path d="M369.868 81.528C369.868 83.796 368.44 85.224 366.13 85.224C363.82 85.224 362.392 83.796 362.392 81.528V75.046H363.568V81.528C363.568 83.152 364.492 84.076 366.13 84.076C367.768 84.076 368.692 83.152 368.692 81.528V75.046H369.868V81.528ZM376.357 79.862C376.189 79.008 375.349 78.504 374.509 78.504C373.669 78.504 372.997 78.938 372.997 79.652C373.011 80.38 373.949 80.688 374.789 80.87C376.483 81.192 377.701 81.668 377.701 83.11C377.701 84.538 376.231 85.168 374.817 85.168C373.067 85.168 371.723 84.202 371.611 82.676L372.815 82.592C372.955 83.488 373.683 84.076 374.817 84.076C375.573 84.076 376.497 83.824 376.497 83.054C376.497 82.158 375.433 82.06 374.579 81.85C373.207 81.528 371.807 81.136 371.807 79.722C371.793 78.308 372.941 77.412 374.635 77.412C376.119 77.412 377.323 78.35 377.561 79.778L376.357 79.862ZM379.216 79.764C379.51 78.322 380.658 77.412 382.24 77.412C384.158 77.412 385.222 78.532 385.222 80.52V83.502C385.222 83.838 385.362 83.978 385.684 83.978H385.978V85H385.488C384.732 85 384.074 84.748 384.088 83.838C383.766 84.538 382.926 85.168 381.75 85.168C380.28 85.168 379.09 84.384 379.09 83.068C379.09 81.542 380.252 81.15 381.876 80.828L384.074 80.408C384.06 79.12 383.458 78.504 382.24 78.504C381.288 78.504 380.658 78.994 380.434 79.862L379.216 79.764ZM380.294 83.068C380.294 83.67 380.812 84.16 381.904 84.146C383.136 84.146 384.102 83.278 384.102 81.556V81.43L382.324 81.738C381.218 81.934 380.294 82.018 380.294 83.068ZM390.324 84.608C388.294 84.608 386.992 83.096 386.992 81.01C386.992 78.924 388.322 77.412 390.324 77.412C391.318 77.412 392.13 77.972 392.452 78.77V77.58H393.558V84.272C393.558 86.218 392.228 87.268 390.296 87.268C388.714 87.268 387.524 86.4 387.202 85.112L388.406 85.028C388.7 85.742 389.344 86.176 390.296 86.176C391.612 86.176 392.41 85.588 392.41 84.524V83.292C391.962 84.174 391.122 84.608 390.324 84.608ZM388.196 81.01C388.196 82.466 388.994 83.516 390.324 83.516C391.598 83.516 392.41 82.452 392.424 81.01C392.452 79.568 391.64 78.504 390.324 78.504C388.994 78.504 388.196 79.554 388.196 81.01ZM395.4 81.29C395.4 78.938 396.73 77.412 398.788 77.412C400.44 77.412 401.882 78.518 402.008 81.136L402.022 81.654H396.618C396.73 83.18 397.5 84.076 398.788 84.076C399.6 84.076 400.328 83.6 400.664 82.816L401.896 82.9C401.462 84.3 400.216 85.168 398.788 85.168C396.73 85.168 395.4 83.642 395.4 81.29ZM396.646 80.632H400.762C400.552 79.064 399.712 78.504 398.788 78.504C397.598 78.504 396.828 79.288 396.646 80.632Z" fill="#666666"/>
</g>
<path d="M375 103H0V105H375V103Z" fill="black" fill-opacity="0.08" mask="url(#path-1-inside-1_168_17102)"/>
<mask id="path-26-inside-2_168_17102" fill="white">
<path d="M0 104H375V528H0V104Z"/>
</mask>
<path d="M0 104H375V528H0V104Z" fill="white"/>
<path d="M375 527H0V529H375V527Z" fill="#EAEAEA" mask="url(#path-26-inside-2_168_17102)"/>
<mask id="path-28-inside-3_168_17102" fill="white">
<path d="M24 144H351V264H24V144Z"/>
</mask>
<path d="M351 263H24V265H351V263Z" fill="#EAEAEA" mask="url(#path-28-inside-3_168_17102)"/>
<path fill-rule="evenodd" clip-rule="evenodd" d="M30.4697 159.78L31 160.311L32.0607 159.25L31.5303 158.72L27.5607 154.75H38.25H39V153.25H38.25H27.5607L31.5303 149.28L32.0607 148.75L31 147.689L30.4697 148.22L25.3964 153.293C25.0059 153.684 25.0059 154.317 25.3964 154.707L30.4697 159.78Z" fill="#0067D6"/>
<path d="M48.294 159L51.892 149.06H53.46L57.058 159H55.77L54.776 156.158H50.576L49.582 159H48.294ZM50.982 155.01H54.37L52.676 150.096L50.982 155.01ZM58.5696 149.06H59.7176V157.516C59.7176 157.838 59.8716 157.978 60.1936 157.978H60.8236V159H60.0256C59.1436 159 58.5696 158.426 58.5696 157.572V149.06ZM62.6028 149.06H63.7508V157.516C63.7508 157.838 63.9048 157.978 64.2268 157.978H64.8568V159H64.0588C63.1768 159 62.6028 158.426 62.6028 157.572V149.06ZM70.206 149.06H71.382V159H70.206V149.06ZM73.6763 151.58H74.7263L74.7683 152.854C75.1463 151.86 76.0283 151.412 77.0503 151.412C78.7443 151.412 79.5563 152.658 79.5563 154.226V159H78.4083V154.562C78.4083 153.19 77.9463 152.434 76.8123 152.434C75.6083 152.434 74.8243 153.19 74.8243 154.562V159H73.6763V151.58ZM87.5567 151.58L84.8407 159H83.4127L80.6967 151.58H81.9287L84.1267 157.796L86.3247 151.58H87.5567ZM91.5577 159.168C89.4997 159.168 88.1697 157.642 88.1697 155.29C88.1697 152.938 89.4997 151.412 91.5577 151.412C93.6157 151.412 94.9457 152.938 94.9457 155.29C94.9457 157.642 93.6157 159.168 91.5577 159.168ZM89.3737 155.29C89.3737 157.026 90.1717 158.076 91.5577 158.076C92.9297 158.076 93.7417 157.026 93.7417 155.29C93.7417 153.554 92.9297 152.504 91.5577 152.504C90.1717 152.504 89.3737 153.554 89.3737 155.29ZM96.7271 151.58H97.8751V159H96.7271V151.58ZM96.6991 150.418V149.088H97.9031V150.418H96.6991ZM104.986 154.058C104.818 153.078 104.02 152.504 103.11 152.504C101.724 152.504 100.926 153.554 100.926 155.29C100.926 157.026 101.724 158.076 103.11 158.076C104.062 158.076 104.874 157.446 105.042 156.382L106.26 156.452C106.022 158.132 104.692 159.168 103.11 159.168C101.052 159.168 99.7225 157.642 99.7225 155.29C99.7225 152.938 101.052 151.412 103.11 151.412C104.636 151.412 105.994 152.392 106.19 153.974L104.986 154.058ZM107.433 155.29C107.433 152.938 108.763 151.412 110.821 151.412C112.473 151.412 113.915 152.518 114.041 155.136L114.055 155.654H108.651C108.763 157.18 109.533 158.076 110.821 158.076C111.633 158.076 112.361 157.6 112.697 156.816L113.929 156.9C113.495 158.3 112.249 159.168 110.821 159.168C108.763 159.168 107.433 157.642 107.433 155.29ZM108.679 154.632H112.795C112.585 153.064 111.745 152.504 110.821 152.504C109.631 152.504 108.861 153.288 108.679 154.632ZM120.123 153.862C119.955 153.008 119.115 152.504 118.275 152.504C117.435 152.504 116.763 152.938 116.763 153.652C116.777 154.38 117.715 154.688 118.555 154.87C120.249 155.192 121.467 155.668 121.467 157.11C121.467 158.538 119.997 159.168 118.583 159.168C116.833 159.168 115.489 158.202 115.377 156.676L116.581 156.592C116.721 157.488 117.449 158.076 118.583 158.076C119.339 158.076 120.263 157.824 120.263 157.054C120.263 156.158 119.199 156.06 118.345 155.85C116.973 155.528 115.573 155.136 115.573 153.722C115.559 152.308 116.707 151.412 118.401 151.412C119.885 151.412 121.089 152.35 121.327 153.778L120.123 153.862Z" fill="#0067D6"/>
<path d="M24.736 199L32.928 176.28H37.728L45.92 199H41.76L39.872 193.496H30.784L28.896 199H24.736ZM32 190.008H38.656L35.328 180.28L32 190.008ZM61.7768 199H58.0968L58.0328 196.344C57.1047 198.52 55.2168 199.384 53.0407 199.384C49.3607 199.384 47.3127 196.728 47.3127 192.952V182.04H51.2807V191.672C51.2807 194.552 52.0487 196.12 54.2247 196.12C56.4327 196.12 57.8088 194.552 57.8088 191.672V182.04H61.7768V199ZM71.8047 198.168C67.1967 198.168 64.2527 194.808 64.2527 190.04C64.2527 185.112 67.2607 181.656 71.8047 181.656C73.9807 181.656 75.7727 182.808 76.6047 184.632V182.04H80.4767V197.112C80.4767 201.592 77.1487 204.184 72.3807 204.184C68.5407 204.184 65.6287 202.264 64.7327 199.32L68.7967 199.064C69.3727 200.344 70.6207 201.112 72.4127 201.112C74.9727 201.112 76.4767 199.96 76.4767 197.656V195.448C75.5167 197.24 73.6287 198.168 71.8047 198.168ZM68.3487 190.008C68.3487 193.016 69.9487 195.16 72.5087 195.16C75.0047 195.16 76.5727 193.016 76.6047 190.008C76.6367 187 75.0687 184.888 72.5087 184.888C69.9167 184.888 68.3487 187 68.3487 190.008ZM98.6855 199H95.0055L94.9415 196.344C94.0135 198.52 92.1255 199.384 89.9495 199.384C86.2695 199.384 84.2215 196.728 84.2215 192.952V182.04H88.1895V191.672C88.1895 194.552 88.9575 196.12 91.1335 196.12C93.3415 196.12 94.7175 194.552 94.7175 191.672V182.04H98.6855V199ZM112.073 187.448C111.753 185.72 110.153 184.696 108.553 184.696C106.921 184.696 105.641 185.528 105.673 186.904C105.705 188.344 107.497 188.92 109.161 189.24C113.673 190.008 116.297 191.192 116.297 194.488C116.297 197.848 113.001 199.384 109.129 199.384C104.553 199.384 101.449 197.208 101.161 193.624L105.225 193.4C105.545 195.192 106.889 196.312 109.065 196.312C110.473 196.312 112.201 195.8 112.201 194.36C112.169 192.696 110.249 192.44 108.489 192.056C104.489 191.256 101.577 190.2 101.577 187C101.577 183.672 104.329 181.624 108.777 181.624C112.681 181.624 115.529 183.8 116.073 187.256L112.073 187.448ZM119.731 178.2H123.699V182.04H128.179V185.144H123.699V193.848C123.699 195.192 124.339 195.864 125.619 195.864H128.179V199H125.011C121.555 199 119.731 197.24 119.731 193.848V185.144H117.075V182.04H119.731V178.2ZM136.049 183.32C136.529 178.968 139.761 175.768 144.561 175.768C149.073 175.768 152.369 178.616 152.369 182.488C152.369 185.912 149.649 188.024 146.417 189.944C145.009 190.744 140.817 193.4 140.689 195.448H152.497V199H135.793C135.793 192.216 140.049 189.4 144.305 186.872C146.609 185.432 148.209 184.056 148.209 182.456C148.209 180.632 146.705 179.32 144.561 179.32C142.257 179.32 140.689 180.824 140.209 183.576L136.049 183.32ZM163.451 199.512C157.563 199.512 154.043 194.84 154.043 187.672C154.043 180.44 157.563 175.768 163.451 175.768C169.339 175.768 172.859 180.44 172.859 187.672C172.859 194.84 169.339 199.512 163.451 199.512ZM158.203 187.672C158.203 193.016 160.091 195.96 163.451 195.96C166.843 195.96 168.699 193.016 168.699 187.672C168.699 182.296 166.843 179.32 163.451 179.32C160.091 179.32 158.203 182.296 158.203 187.672ZM174.739 183.32C175.219 178.968 178.451 175.768 183.251 175.768C187.763 175.768 191.059 178.616 191.059 182.488C191.059 185.912 188.339 188.024 185.107 189.944C183.699 190.744 179.507 193.4 179.379 195.448H191.187V199H174.483C174.483 192.216 178.739 189.4 182.995 186.872C185.299 185.432 186.899 184.056 186.899 182.456C186.899 180.632 185.395 179.32 183.251 179.32C180.947 179.32 179.379 180.824 178.899 183.576L174.739 183.32ZM207.805 176.28V191.128H210.301V194.68H207.805V199H203.773V194.68H192.157V191.128L203.101 176.28H207.805ZM196.733 191.128H203.773V181.688L196.733 191.128ZM212.449 194.744H216.929V199H212.449V194.744ZM212.449 188.28V184.024H216.929V188.28H212.449ZM36.096 239.512C29.536 239.512 25.408 234.936 25.408 227.672C25.408 220.344 29.536 215.768 36.096 215.768C42.688 215.768 46.784 220.344 46.784 227.672C46.784 234.936 42.688 239.512 36.096 239.512ZM29.568 227.672C29.568 232.984 31.904 235.96 36.096 235.96C40.32 235.96 42.624 232.984 42.624 227.672C42.624 222.328 40.32 219.32 36.096 219.32C31.904 219.32 29.568 222.328 29.568 227.672ZM48.7762 222.04H52.3602L52.4882 224.824C53.3842 222.584 55.3042 221.656 57.5763 221.656C61.3523 221.656 63.3682 224.312 63.3682 228.088V239H59.4002V229.336C59.4002 226.456 58.6322 224.888 56.4242 224.888C54.1202 224.888 52.7442 226.456 52.7442 229.336V239H48.7762V222.04ZM65.659 227.96H76.507V231.32H65.659V227.96ZM94.1975 216.28V239H90.4535L90.3575 236.6C89.3975 238.36 87.6375 239.384 85.1415 239.384C80.3415 239.384 77.9735 235.352 77.9735 230.52C77.9735 225.688 80.3415 221.656 85.1415 221.656C87.5095 221.656 89.2375 222.584 90.2295 224.312V216.28H94.1975ZM82.0375 230.52C82.0375 233.432 83.3175 236.12 86.2615 236.12C89.2375 236.12 90.4855 233.432 90.4855 230.52C90.4855 227.48 89.2375 224.792 86.2615 224.792C83.2855 224.792 82.0375 227.48 82.0375 230.52ZM96.5997 230.52C96.5997 225.144 99.8957 221.656 104.92 221.656C109.208 221.656 112.696 224.536 112.824 230.552V231.608H100.76C100.952 234.488 102.456 236.184 104.92 236.184C106.488 236.184 107.896 235.288 108.536 233.816L112.6 234.104C111.576 237.368 108.536 239.384 104.92 239.384C99.8957 239.384 96.5997 235.896 96.5997 230.52ZM100.792 228.888H108.728C108.376 225.912 106.744 224.824 104.92 224.824C102.616 224.824 101.144 226.36 100.792 228.888ZM115.094 222.04H118.678L118.774 224.76C119.606 222.776 121.334 221.656 123.574 221.656C125.974 221.656 127.702 222.936 128.438 225.144C129.27 222.84 131.03 221.656 133.494 221.656C136.918 221.656 139.03 223.928 139.03 228.088V239H135.062V229.336C135.062 226.424 134.134 224.888 132.31 224.888C130.102 224.888 128.886 226.456 128.886 229.336V239H125.238V229.336C125.238 226.456 124.278 224.888 122.486 224.888C120.278 224.888 119.062 226.52 119.062 229.336V239H115.094V222.04ZM141.608 227.192C142.28 223.704 145 221.656 149.096 221.656C153.96 221.656 156.52 224.184 156.52 228.92V234.84C156.52 235.8 156.904 236.056 157.576 236.056H158.216V239L157.224 239.032C155.848 239.032 153.288 239 153.032 236.408C152.232 238.072 150.344 239.384 147.432 239.384C144.04 239.384 141.32 237.56 141.32 234.552C141.32 231.224 143.784 230.168 147.752 229.4L152.52 228.44C152.488 225.848 151.4 224.6 149.096 224.6C147.272 224.6 146.088 225.56 145.672 227.416L141.608 227.192ZM145.416 234.424C145.416 235.608 146.408 236.536 148.456 236.536C150.824 236.536 152.584 234.84 152.584 231.384V231.224L149.32 231.8C147.112 232.216 145.416 232.44 145.416 234.424ZM160.127 222.04H163.711L163.839 224.824C164.735 222.584 166.655 221.656 168.927 221.656C172.703 221.656 174.719 224.312 174.719 228.088V239H170.751V229.336C170.751 226.456 169.983 224.888 167.775 224.888C165.471 224.888 164.095 226.456 164.095 229.336V239H160.127V222.04ZM192.829 216.28V239H189.085L188.989 236.6C188.029 238.36 186.269 239.384 183.773 239.384C178.973 239.384 176.605 235.352 176.605 230.52C176.605 225.688 178.973 221.656 183.773 221.656C186.141 221.656 187.869 222.584 188.861 224.312V216.28H192.829ZM180.669 230.52C180.669 233.432 181.949 236.12 184.893 236.12C187.869 236.12 189.117 233.432 189.117 230.52C189.117 227.48 187.869 224.792 184.893 224.792C181.917 224.792 180.669 227.48 180.669 230.52ZM221.99 231.512C221.062 236.28 217.766 239.512 212.39 239.512C205.734 239.512 201.702 234.328 201.702 227.672C201.702 220.984 205.734 215.768 212.39 215.768C217.478 215.768 220.806 218.808 221.862 223.352L217.67 223.576C217.03 221.016 215.206 219.32 212.358 219.32C207.846 219.32 205.862 223.064 205.862 227.672C205.862 232.248 207.878 235.96 212.358 235.96C215.334 235.96 217.19 234.04 217.766 231.288L221.99 231.512ZM224.382 216.28H228.35V224.28C229.342 222.424 231.23 221.656 233.278 221.656C237.022 221.656 238.974 224.44 238.974 228.088V239H235.006V229.464C235.006 226.616 234.238 225.048 232.03 225.048C229.726 225.048 228.35 226.616 228.35 229.464V239H224.382V216.28ZM241.553 227.192C242.225 223.704 244.945 221.656 249.041 221.656C253.905 221.656 256.465 224.184 256.465 228.92V234.84C256.465 235.8 256.849 236.056 257.521 236.056H258.161V239L257.169 239.032C255.793 239.032 253.233 239 252.977 236.408C252.177 238.072 250.289 239.384 247.377 239.384C243.985 239.384 241.265 237.56 241.265 234.552C241.265 231.224 243.729 230.168 247.697 229.4L252.465 228.44C252.433 225.848 251.345 224.6 249.041 224.6C247.217 224.6 246.033 225.56 245.617 227.416L241.553 227.192ZM245.361 234.424C245.361 235.608 246.353 236.536 248.401 236.536C250.769 236.536 252.529 234.84 252.529 231.384V231.224L249.265 231.8C247.057 232.216 245.361 232.44 245.361 234.424ZM260.073 222.04H263.785L263.881 225.304C264.457 223.096 265.737 222.04 267.913 222.04H269.513V225.144H267.913C265.193 225.144 264.041 226.52 264.041 229.272V239H260.073V222.04ZM277.226 238.168C272.618 238.168 269.674 234.808 269.674 230.04C269.674 225.112 272.682 221.656 277.226 221.656C279.402 221.656 281.194 222.808 282.026 224.632V222.04H285.898V237.112C285.898 241.592 282.57 244.184 277.802 244.184C273.962 244.184 271.05 242.264 270.154 239.32L274.218 239.064C274.794 240.344 276.042 241.112 277.834 241.112C280.394 241.112 281.898 239.96 281.898 237.656V235.448C280.938 237.24 279.05 238.168 277.226 238.168ZM273.77 230.008C273.77 233.016 275.37 235.16 277.93 235.16C280.426 235.16 281.994 233.016 282.026 230.008C282.058 227 280.49 224.888 277.93 224.888C275.338 224.888 273.77 227 273.77 230.008ZM288.395 230.52C288.395 225.144 291.691 221.656 296.715 221.656C301.003 221.656 304.491 224.536 304.619 230.552V231.608H292.555C292.747 234.488 294.251 236.184 296.715 236.184C298.283 236.184 299.691 235.288 300.331 233.816L304.395 234.104C303.371 237.368 300.331 239.384 296.715 239.384C291.691 239.384 288.395 235.896 288.395 230.52ZM292.587 228.888H300.523C300.171 225.912 298.539 224.824 296.715 224.824C294.411 224.824 292.939 226.36 292.587 228.888ZM316.995 227.448C316.675 225.72 315.075 224.696 313.475 224.696C311.843 224.696 310.563 225.528 310.595 226.904C310.627 228.344 312.419 228.92 314.083 229.24C318.595 230.008 321.219 231.192 321.219 234.488C321.219 237.848 317.923 239.384 314.051 239.384C309.475 239.384 306.371 237.208 306.083 233.624L310.147 233.4C310.467 235.192 311.811 236.312 313.987 236.312C315.395 236.312 317.123 235.8 317.123 234.36C317.091 232.696 315.171 232.44 313.411 232.056C309.411 231.256 306.499 230.2 306.499 227C306.499 223.672 309.251 221.624 313.699 221.624C317.603 221.624 320.451 223.8 320.995 227.256L316.995 227.448Z" fill="#171717"/>
<path d="M31.938 285.06V286.432H28.886V295H27.402V286.432H24.364V285.06H31.938ZM35.4448 295.168C33.3168 295.168 31.9308 293.656 31.9308 291.29C31.9308 288.924 33.3168 287.412 35.4448 287.412C37.5728 287.412 38.9588 288.924 38.9588 291.29C38.9588 293.656 37.5728 295.168 35.4448 295.168ZM33.4428 291.29C33.4428 292.914 34.1708 293.894 35.4448 293.894C36.7188 293.894 37.4468 292.914 37.4468 291.29C37.4468 289.666 36.7188 288.686 35.4448 288.686C34.1708 288.686 33.4428 289.666 33.4428 291.29ZM41.0658 285.9H42.5218V287.58H44.4958V288.784H42.5218V292.886C42.5218 293.488 42.8158 293.796 43.3898 293.796H44.4818V295H43.2638C41.8358 295 41.0658 294.258 41.0658 292.886V288.784H39.9458V287.58H41.0658V285.9ZM45.756 289.792C46.05 288.308 47.226 287.412 48.906 287.412C50.922 287.412 52.014 288.532 52.014 290.548V293.348C52.014 293.698 52.168 293.824 52.462 293.824H52.77V295H52.28C51.608 295.014 50.726 294.874 50.67 293.866C50.348 294.566 49.522 295.168 48.304 295.168C46.82 295.168 45.63 294.384 45.63 293.054C45.63 291.556 46.736 291.136 48.43 290.814L50.558 290.394C50.544 289.204 49.998 288.63 48.906 288.63C48.038 288.63 47.464 289.064 47.254 289.89L45.756 289.792ZM47.142 293.026C47.142 293.572 47.604 294.02 48.584 294.02C49.718 294.02 50.586 293.222 50.586 291.598V291.528L48.99 291.808C47.954 291.99 47.142 292.074 47.142 293.026ZM54.4205 285.06H55.8765V293.306C55.8765 293.642 56.0305 293.796 56.3525 293.796H56.9685V295H56.0445C55.0645 295 54.4205 294.37 54.4205 293.376V285.06ZM65.3101 285.06C68.4181 285.06 70.1681 286.852 70.1681 290.044C70.1681 293.222 68.4601 295 65.3941 295H62.1321V285.06H65.3101ZM63.6161 293.628H65.3101C67.5361 293.628 68.6281 292.452 68.6281 290.044C68.6281 287.608 67.5361 286.432 65.3101 286.432H63.6161V293.628ZM78.0645 295H76.6925L76.6785 293.782C76.2865 294.748 75.4465 295.168 74.4805 295.168C72.8425 295.168 72.0025 293.964 72.0025 292.354V287.58H73.4585V291.906C73.4585 293.222 73.8505 293.936 74.8585 293.936C75.9085 293.936 76.6085 293.222 76.6085 291.906V287.58H78.0645V295ZM79.8097 291.29C79.8097 288.924 81.1957 287.412 83.3237 287.412C85.0597 287.412 86.5717 288.56 86.6557 291.206L86.6697 291.71H81.3357C81.4477 293.096 82.1477 293.908 83.3237 293.908C84.0657 293.908 84.7237 293.488 85.0317 292.774L86.5577 292.886C86.1237 294.286 84.8217 295.168 83.3237 295.168C81.1957 295.168 79.8097 293.656 79.8097 291.29ZM81.3637 290.59H85.1297C84.9337 289.162 84.1637 288.672 83.3237 288.672C82.2317 288.672 81.5457 289.386 81.3637 290.59Z" fill="#666666"/>
<path d="M29.824 327.384C30.24 329.56 31.552 331.096 33.664 331.64V324.92C29.344 323.832 26.208 321.88 26.208 318.296C26.208 314.456 29.184 311.992 33.664 311.768V309.24H36.192V311.928C40.16 312.6 42.752 315.416 43.2 319.256L39.104 319.48C38.88 317.592 37.792 316.216 36.192 315.608V322.072C40.544 323.224 43.584 325.336 43.584 328.76C43.584 332.728 40.288 335.032 36.192 335.352V337.912H33.664V335.288C29.184 334.776 26.08 331.864 25.728 327.608L29.824 327.384ZM30.336 318.328C30.368 319.992 31.84 320.792 33.664 321.368V315.32C31.68 315.48 30.272 316.632 30.336 318.328ZM36.192 331.8C38.176 331.608 39.488 330.648 39.456 328.984C39.456 327.512 38.464 326.488 36.192 325.656V331.8ZM60.5438 312.28V327.128H63.0398V330.68H60.5438V335H56.5118V330.68H44.8957V327.128L55.8398 312.28H60.5438ZM49.4717 327.128H56.5118V317.688L49.4717 327.128ZM68.4202 335L66.3722 340.024H64.1962L65.5402 335H63.9402V330.744H68.4202V335ZM85.5285 312.28V315.832H75.3845L74.5525 322.04C75.6085 320.664 77.6885 319.864 79.7685 319.864C84.0565 319.864 87.0645 323.032 87.0645 327.448C87.0645 332.248 83.6405 335.512 78.6485 335.512C73.8165 335.512 70.2325 332.792 69.8805 328.92L74.0085 328.696C74.3605 330.744 76.3445 331.96 78.5845 331.96C81.1445 331.96 82.9365 330.104 82.9365 327.512C82.9365 324.824 81.1445 323.064 78.3605 323.064C76.5045 323.064 74.9045 323.96 74.3285 325.368H70.2005L71.9605 312.28H85.5285ZM89.8478 316.184C92.5358 316.184 93.7518 314.968 93.7838 312.28H96.9198V335H92.9198V319.288H88.0558V316.184H89.8478ZM109.041 335.512C103.153 335.512 99.633 330.84 99.633 323.672C99.633 316.44 103.153 311.768 109.041 311.768C114.929 311.768 118.449 316.44 118.449 323.672C118.449 330.84 114.929 335.512 109.041 335.512ZM103.793 323.672C103.793 329.016 105.681 331.96 109.041 331.96C112.433 331.96 114.289 329.016 114.289 323.672C114.289 318.296 112.433 315.32 109.041 315.32C105.681 315.32 103.793 318.296 103.793 323.672ZM119.32 330.744H123.8V335H119.32V330.744ZM126.477 316.184C129.165 316.184 130.381 314.968 130.413 312.28H133.549V335H129.549V319.288H124.685V316.184H126.477ZM145.67 335.512C139.782 335.512 136.262 330.84 136.262 323.672C136.262 316.44 139.782 311.768 145.67 311.768C151.558 311.768 155.078 316.44 155.078 323.672C155.078 330.84 151.558 335.512 145.67 335.512ZM140.422 323.672C140.422 329.016 142.31 331.96 145.67 331.96C149.062 331.96 150.918 329.016 150.918 323.672C150.918 318.296 149.062 315.32 145.67 315.32C142.31 315.32 140.422 318.296 140.422 323.672Z" fill="#171717"/>
<path d="M165 324C165 318.477 169.477 314 175 314H191C196.523 314 201 318.477 201 324C201 329.523 196.523 334 191 334H175C169.477 334 165 329.523 165 324Z" fill="#DCF6DC"/>
<path d="M175.334 320.19C177.116 320.19 178.172 321.092 178.172 322.61C178.172 324.139 177.116 325.063 175.334 325.063H173.607V328H172.441V320.19H175.334ZM173.607 323.985H175.312C176.401 323.985 176.962 323.523 176.962 322.61C176.962 321.719 176.401 321.268 175.312 321.268H173.607V323.985ZM179.061 323.908C179.292 322.742 180.216 322.038 181.536 322.038C183.12 322.038 183.978 322.918 183.978 324.502V326.702C183.978 326.977 184.099 327.076 184.33 327.076H184.572V328H184.187C183.659 328.011 182.966 327.901 182.922 327.109C182.669 327.659 182.02 328.132 181.063 328.132C179.897 328.132 178.962 327.516 178.962 326.471C178.962 325.294 179.831 324.964 181.162 324.711L182.834 324.381C182.823 323.446 182.394 322.995 181.536 322.995C180.854 322.995 180.403 323.336 180.238 323.985L179.061 323.908ZM180.15 326.449C180.15 326.878 180.513 327.23 181.283 327.23C182.174 327.23 182.856 326.603 182.856 325.327V325.272L181.602 325.492C180.788 325.635 180.15 325.701 180.15 326.449ZM185.738 322.17H186.882V328H185.738V322.17ZM185.727 321.301V320.19H186.915V321.301H185.727ZM193.633 320.19V328H192.566L192.533 327.186C192.214 327.78 191.598 328.132 190.718 328.132C189.046 328.132 188.254 326.713 188.254 325.085C188.254 323.457 189.046 322.038 190.718 322.038C191.554 322.038 192.148 322.346 192.489 322.929V320.19H193.633ZM189.442 325.085C189.442 326.13 189.893 327.131 191.004 327.131C192.126 327.131 192.577 326.13 192.577 325.085C192.577 324.007 192.126 323.006 191.004 323.006C189.882 323.006 189.442 323.996 189.442 325.085Z" fill="#297C3B"/>
<path d="M25.218 365.06H26.702V375H25.218V365.06ZM28.8524 367.58H30.1684L30.2104 368.84C30.6024 367.846 31.4564 367.412 32.4784 367.412C34.1444 367.412 34.9844 368.616 34.9844 370.226V375H33.5284V370.66C33.5284 369.358 33.1364 368.644 32.1004 368.644C30.9944 368.644 30.3084 369.358 30.3084 370.66V375H28.8524V367.58ZM43.1918 367.58L40.4758 375H38.7818L36.0658 367.58H37.5638L39.6358 373.502L41.6938 367.58H43.1918ZM47.271 375.168C45.143 375.168 43.757 373.656 43.757 371.29C43.757 368.924 45.143 367.412 47.271 367.412C49.399 367.412 50.785 368.924 50.785 371.29C50.785 373.656 49.399 375.168 47.271 375.168ZM45.269 371.29C45.269 372.914 45.997 373.894 47.271 373.894C48.545 373.894 49.273 372.914 49.273 371.29C49.273 369.666 48.545 368.686 47.271 368.686C45.997 368.686 45.269 369.666 45.269 371.29ZM52.4501 367.58H53.9061V375H52.4501V367.58ZM52.4361 366.474V365.06H53.9481V366.474H52.4361ZM60.8875 370.17C60.7475 369.232 60.0055 368.686 59.1655 368.686C57.8915 368.686 57.1635 369.666 57.1635 371.29C57.1635 372.914 57.8915 373.894 59.1655 373.894C60.0475 373.894 60.7895 373.32 60.9435 372.284L62.4695 372.368C62.2315 374.104 60.8455 375.168 59.1655 375.168C57.0375 375.168 55.6515 373.656 55.6515 371.29C55.6515 368.924 57.0375 367.412 59.1655 367.412C60.7895 367.412 62.2035 368.42 62.3995 370.086L60.8875 370.17ZM63.5948 371.29C63.5948 368.924 64.9808 367.412 67.1088 367.412C68.8448 367.412 70.3568 368.56 70.4408 371.206L70.4548 371.71H65.1208C65.2328 373.096 65.9328 373.908 67.1088 373.908C67.8508 373.908 68.5088 373.488 68.8168 372.774L70.3428 372.886C69.9088 374.286 68.6068 375.168 67.1088 375.168C64.9808 375.168 63.5948 373.656 63.5948 371.29ZM65.1488 370.59H68.9148C68.7188 369.162 67.9488 368.672 67.1088 368.672C66.0168 368.672 65.3308 369.386 65.1488 370.59ZM75.7219 365.06H77.6119L82.1899 373.082V365.06H83.6739V375H81.6999L77.2059 367.16V375H75.7219V365.06ZM92.1465 375H90.7745L90.7605 373.782C90.3685 374.748 89.5285 375.168 88.5625 375.168C86.9245 375.168 86.0845 373.964 86.0845 372.354V367.58H87.5405V371.906C87.5405 373.222 87.9325 373.936 88.9405 373.936C89.9905 373.936 90.6905 373.222 90.6905 371.906V367.58H92.1465V375ZM94.3817 367.58H95.6977L95.7397 368.798C96.1037 367.916 96.8597 367.412 97.8537 367.412C98.9177 367.412 99.6877 367.972 100.01 368.952C100.346 367.944 101.116 367.412 102.236 367.412C103.748 367.412 104.644 368.42 104.644 370.226V375H103.188V370.66C103.188 369.358 102.712 368.644 101.872 368.644C100.808 368.644 100.206 369.372 100.206 370.66V375H98.8197V370.66C98.8197 369.386 98.3437 368.644 97.5037 368.644C96.4537 368.644 95.8377 369.386 95.8377 370.66V375H94.3817V367.58ZM106.796 365.06H108.252V368.546C108.686 367.804 109.442 367.412 110.506 367.412C112.634 367.412 113.642 369.218 113.642 371.29C113.642 373.362 112.634 375.168 110.506 375.168C109.386 375.168 108.602 374.72 108.196 373.964L108.154 375H106.796V365.06ZM108.14 371.29C108.14 372.62 108.714 373.894 110.142 373.894C111.556 373.894 112.13 372.62 112.13 371.29C112.13 369.904 111.57 368.644 110.142 368.644C108.714 368.644 108.14 369.918 108.14 371.29ZM114.905 371.29C114.905 368.924 116.291 367.412 118.419 367.412C120.155 367.412 121.667 368.56 121.751 371.206L121.765 371.71H116.431C116.543 373.096 117.243 373.908 118.419 373.908C119.161 373.908 119.819 373.488 120.127 372.774L121.653 372.886C121.219 374.286 119.917 375.168 118.419 375.168C116.291 375.168 114.905 373.656 114.905 371.29ZM116.459 370.59H120.225C120.029 369.162 119.259 368.672 118.419 368.672C117.327 368.672 116.641 369.386 116.459 370.59ZM123.434 367.58H124.764L124.806 368.98C125.044 368.028 125.604 367.58 126.57 367.58H127.284V368.784H126.556C125.408 368.784 124.89 369.414 124.89 370.66V375H123.434V367.58Z" fill="#666666"/>
<path d="M28.896 409.688C29.472 411.288 30.912 412.248 32.8 412.248C35.744 412.248 37.536 409.784 38.08 405.304C36.832 406.872 35.008 407.768 32.928 407.768C28.352 407.768 25.248 404.504 25.248 399.832C25.248 394.936 28.64 391.768 33.44 391.768C35.712 391.768 37.824 392.632 39.456 394.52C40.928 396.216 41.696 398.936 41.696 402.296C41.696 409.208 39.456 415.512 32.8 415.512C29.248 415.512 26.336 413.432 25.344 409.912L28.896 409.688ZM28.896 399.832C28.896 402.584 30.656 404.504 33.184 404.504C35.904 404.504 37.856 402.584 37.888 399.832C37.952 397.016 36.096 395.032 33.376 395.032C30.752 395.032 28.896 397.016 28.896 399.832ZM43.7635 411.736H50.3875V399H44.6915V396.12H47.0915C49.8115 396.12 50.9955 394.968 51.0275 392.28H53.8755V411.736H59.8275V415H43.7635V411.736ZM60.519 415L67.399 392.28H71.463L78.343 415H74.759L73.127 409.368H65.735L64.103 415H60.519ZM66.567 406.424H72.263L69.415 396.568L66.567 406.424ZM92.0265 397.592C91.4505 395.992 90.0105 395.032 88.1225 395.032C85.1785 395.032 83.3865 397.496 82.8425 401.976C84.0905 400.408 85.9145 399.512 87.9945 399.512C92.5705 399.512 95.6745 402.776 95.6745 407.448C95.6745 412.344 92.2825 415.512 87.4825 415.512C85.2105 415.512 83.0985 414.648 81.4665 412.76C79.9945 411.064 79.2265 408.344 79.2265 404.984C79.2265 398.072 81.4665 391.768 88.1225 391.768C91.6745 391.768 94.5865 393.848 95.5785 397.368L92.0265 397.592ZM83.0345 407.448C82.9705 410.264 84.8265 412.248 87.5465 412.248C90.1705 412.248 92.0265 410.264 92.0265 407.448C92.0265 404.696 90.2665 402.776 87.7385 402.776C85.0185 402.776 83.0665 404.696 83.0345 407.448ZM100.526 409.688C101.102 411.288 102.542 412.248 104.43 412.248C107.374 412.248 109.166 409.784 109.71 405.304C108.462 406.872 106.638 407.768 104.558 407.768C99.982 407.768 96.878 404.504 96.878 399.832C96.878 394.936 100.27 391.768 105.07 391.768C107.342 391.768 109.454 392.632 111.086 394.52C112.558 396.216 113.326 398.936 113.326 402.296C113.326 409.208 111.086 415.512 104.43 415.512C100.878 415.512 97.966 413.432 96.974 409.912L100.526 409.688ZM100.526 399.832C100.526 402.584 102.286 404.504 104.814 404.504C107.534 404.504 109.486 402.584 109.518 399.832C109.582 397.016 107.726 395.032 105.006 395.032C102.382 395.032 100.526 397.016 100.526 399.832ZM115.361 392.28H131.649V395.448C127.265 400.696 124.289 407.384 124.289 415H120.609C120.641 407.704 123.585 400.984 127.905 395.544H115.361V392.28ZM147.253 392.28V407.416H149.685V410.68H147.253V415H143.765V410.68H132.277V407.256L143.285 392.28H147.253ZM136.405 407.416H143.765V397.432L136.405 407.416ZM167.625 407.512C166.761 412.472 163.753 415.512 159.401 415.512C153.705 415.512 150.441 410.936 150.441 403.672C150.441 396.344 153.705 391.768 159.401 391.768C163.529 391.768 166.473 394.616 167.497 399.352L163.817 399.576C163.081 396.6 161.513 395.032 159.337 395.032C155.945 395.032 154.089 398.104 154.089 403.672C154.089 409.208 155.945 412.248 159.337 412.248C161.705 412.248 163.305 410.52 163.945 407.288L167.625 407.512ZM171.452 403.768H182.3V406.904H171.452V403.768ZM194.767 415.512C189.711 415.512 186.607 410.84 186.607 403.672C186.607 396.44 189.711 391.768 194.767 391.768C199.823 391.768 202.959 396.44 202.959 403.672C202.959 410.84 199.823 415.512 194.767 415.512ZM190.255 403.672C190.255 409.016 191.951 412.248 194.767 412.248C197.583 412.248 199.311 409.016 199.311 403.672C199.311 398.264 197.583 395.032 194.767 395.032C191.951 395.032 190.255 398.264 190.255 403.672ZM212.675 415.512C207.619 415.512 204.515 410.84 204.515 403.672C204.515 396.44 207.619 391.768 212.675 391.768C217.731 391.768 220.867 396.44 220.867 403.672C220.867 410.84 217.731 415.512 212.675 415.512ZM208.163 403.672C208.163 409.016 209.859 412.248 212.675 412.248C215.491 412.248 217.219 409.016 217.219 403.672C217.219 398.264 215.491 395.032 212.675 395.032C209.859 395.032 208.163 398.264 208.163 403.672ZM230.582 415.512C225.526 415.512 222.422 410.84 222.422 403.672C222.422 396.44 225.526 391.768 230.582 391.768C235.638 391.768 238.774 396.44 238.774 403.672C238.774 410.84 235.638 415.512 230.582 415.512ZM226.07 403.672C226.07 409.016 227.766 412.248 230.582 412.248C233.398 412.248 235.126 409.016 235.126 403.672C235.126 398.264 233.398 395.032 230.582 395.032C227.766 395.032 226.07 398.264 226.07 403.672ZM240.746 411.736H247.37V399H241.674V396.12H244.074C246.794 396.12 247.978 394.968 248.01 392.28H250.858V411.736H256.81V415H240.746V411.736Z" fill="#171717"/>
<path d="M24 470C24 466.686 26.6863 464 30 464H345C348.314 464 351 466.686 351 470V498C351 501.314 348.314 504 345 504H30C26.6863 504 24 501.314 24 498V470Z" fill="white"/>
<path d="M30 463.5C26.4101 463.5 23.5 466.41 23.5 470V498C23.5 501.59 26.4102 504.5 30 504.5H345C348.59 504.5 351.5 501.59 351.5 498V470C351.5 466.41 348.59 463.5 345 463.5H30Z" stroke="black" stroke-opacity="0.08"/>
<path fill-rule="evenodd" clip-rule="evenodd" d="M125 477C121.134 477 118 480.134 118 484V487H118.75H119.5H120.25C121.355 487 122.25 486.105 122.25 485V484.25C122.25 483.145 121.355 482.25 120.25 482.25H119.784C120.515 480.07 122.574 478.5 125 478.5C127.426 478.5 129.485 480.07 130.216 482.25H129.75C128.645 482.25 127.75 483.145 127.75 484.25V485C127.75 486.105 128.645 487 129.75 487H130.5C130.5 488.381 129.381 489.5 128 489.5H127V489C127 488.448 126.552 488 126 488H124C123.448 488 123 488.448 123 489V490C123 490.552 123.448 491 124 491H126H127H128C130.209 491 132 489.209 132 487V484C132 480.134 128.866 477 125 477ZM129.75 483.75H130.494C130.498 483.833 130.5 483.916 130.5 484V485.5H129.75C129.474 485.5 129.25 485.276 129.25 485V484.25C129.25 483.974 129.474 483.75 129.75 483.75ZM119.506 483.75C119.502 483.833 119.5 483.916 119.5 484V485.5H120.25C120.526 485.5 120.75 485.276 120.75 485V484.25C120.75 483.974 120.526 483.75 120.25 483.75H119.506Z" fill="#171717"/>
<path d="M152.338 485.794C151.96 487.81 150.56 489.224 148.236 489.224C145.352 489.224 143.658 486.928 143.658 484.044C143.658 481.146 145.338 478.836 148.236 478.836C150.406 478.836 151.82 480.152 152.268 482.056L150.728 482.154C150.42 480.992 149.58 480.208 148.236 480.208C146.108 480.208 145.198 481.972 145.198 484.044C145.198 486.102 146.122 487.852 148.236 487.852C149.636 487.852 150.518 486.97 150.77 485.71L152.338 485.794ZM157.07 489.168C154.942 489.168 153.556 487.656 153.556 485.29C153.556 482.924 154.942 481.412 157.07 481.412C159.198 481.412 160.584 482.924 160.584 485.29C160.584 487.656 159.198 489.168 157.07 489.168ZM155.068 485.29C155.068 486.914 155.796 487.894 157.07 487.894C158.344 487.894 159.072 486.914 159.072 485.29C159.072 483.666 158.344 482.686 157.07 482.686C155.796 482.686 155.068 483.666 155.068 485.29ZM162.249 481.58H163.565L163.607 482.84C163.999 481.846 164.853 481.412 165.875 481.412C167.541 481.412 168.381 482.616 168.381 484.226V489H166.925V484.66C166.925 483.358 166.533 482.644 165.497 482.644C164.391 482.644 163.705 483.358 163.705 484.66V489H162.249V481.58ZM170.99 479.9H172.446V481.58H174.42V482.784H172.446V486.886C172.446 487.488 172.74 487.796 173.314 487.796H174.406V489H173.188C171.76 489 170.99 488.258 170.99 486.886V482.784H169.87V481.58H170.99V479.9ZM175.68 483.792C175.974 482.308 177.15 481.412 178.83 481.412C180.846 481.412 181.938 482.532 181.938 484.548V487.348C181.938 487.698 182.092 487.824 182.386 487.824H182.694V489H182.204C181.532 489.014 180.65 488.874 180.594 487.866C180.272 488.566 179.446 489.168 178.228 489.168C176.744 489.168 175.554 488.384 175.554 487.054C175.554 485.556 176.66 485.136 178.354 484.814L180.482 484.394C180.468 483.204 179.922 482.63 178.83 482.63C177.962 482.63 177.388 483.064 177.178 483.89L175.68 483.792ZM177.066 487.026C177.066 487.572 177.528 488.02 178.508 488.02C179.642 488.02 180.51 487.222 180.51 485.598V485.528L178.914 485.808C177.878 485.99 177.066 486.074 177.066 487.026ZM188.897 484.17C188.757 483.232 188.015 482.686 187.175 482.686C185.901 482.686 185.173 483.666 185.173 485.29C185.173 486.914 185.901 487.894 187.175 487.894C188.057 487.894 188.799 487.32 188.953 486.284L190.479 486.368C190.241 488.104 188.855 489.168 187.175 489.168C185.047 489.168 183.661 487.656 183.661 485.29C183.661 482.924 185.047 481.412 187.175 481.412C188.799 481.412 190.213 482.42 190.409 484.086L188.897 484.17ZM192.454 479.9H193.91V481.58H195.884V482.784H193.91V486.886C193.91 487.488 194.204 487.796 194.778 487.796H195.87V489H194.652C193.224 489 192.454 488.258 192.454 486.886V482.784H191.334V481.58H192.454V479.9ZM202.131 485.71C202.369 486.956 203.251 487.796 204.721 487.796C205.897 487.796 206.681 487.348 206.681 486.438C206.681 485.5 205.883 484.954 204.021 484.492C202.257 484.058 200.801 483.232 200.801 481.622C200.801 479.914 202.201 478.836 204.203 478.836C206.359 478.836 207.801 480.18 208.025 482.056L206.499 482.14C206.331 480.964 205.449 480.194 204.175 480.194C203.111 480.194 202.327 480.754 202.341 481.636C202.355 482.742 203.699 483.05 204.861 483.372C206.765 483.862 208.221 484.786 208.221 486.326C208.221 488.188 206.527 489.168 204.637 489.168C202.383 489.168 200.759 487.838 200.605 485.794L202.131 485.71ZM216.26 489H214.888L214.874 487.782C214.482 488.748 213.642 489.168 212.676 489.168C211.038 489.168 210.198 487.964 210.198 486.354V481.58H211.654V485.906C211.654 487.222 212.046 487.936 213.054 487.936C214.104 487.936 214.804 487.222 214.804 485.906V481.58H216.26V489ZM218.495 491.1V481.58H219.853L219.895 482.658C220.301 481.86 221.071 481.412 222.149 481.412C224.333 481.412 225.341 483.218 225.341 485.29C225.341 487.362 224.333 489.168 222.149 489.168C221.127 489.168 220.371 488.762 219.951 487.992V491.1H218.495ZM219.811 485.29C219.811 486.62 220.413 487.894 221.813 487.894C223.227 487.894 223.801 486.634 223.801 485.29C223.801 483.96 223.227 482.686 221.813 482.686C220.399 482.686 219.811 483.96 219.811 485.29ZM227.013 491.1V481.58H228.371L228.413 482.658C228.819 481.86 229.589 481.412 230.667 481.412C232.851 481.412 233.859 483.218 233.859 485.29C233.859 487.362 232.851 489.168 230.667 489.168C229.645 489.168 228.889 488.762 228.469 487.992V491.1H227.013ZM228.329 485.29C228.329 486.62 228.931 487.894 230.331 487.894C231.745 487.894 232.319 486.634 232.319 485.29C232.319 483.96 231.745 482.686 230.331 482.686C228.917 482.686 228.329 483.96 228.329 485.29ZM238.636 489.168C236.508 489.168 235.122 487.656 235.122 485.29C235.122 482.924 236.508 481.412 238.636 481.412C240.764 481.412 242.15 482.924 242.15 485.29C242.15 487.656 240.764 489.168 238.636 489.168ZM236.634 485.29C236.634 486.914 237.362 487.894 238.636 487.894C239.91 487.894 240.638 486.914 240.638 485.29C240.638 483.666 239.91 482.686 238.636 482.686C237.362 482.686 236.634 483.666 236.634 485.29ZM243.815 481.58H245.145L245.187 482.98C245.425 482.028 245.985 481.58 246.951 481.58H247.665V482.784H246.937C245.789 482.784 245.271 483.414 245.271 484.66V489H243.815V481.58ZM249.999 479.9H251.455V481.58H253.429V482.784H251.455V486.886C251.455 487.488 251.749 487.796 252.323 487.796H253.415V489H252.197C250.769 489 249.999 488.258 249.999 486.886V482.784H248.879V481.58H249.999V479.9Z" fill="#171717"/>
<path d="M25.64 573.8H29.02L33 584.94L36.96 573.8H40.36V588H37.84V578.18L34.26 587.98H31.74L28.16 578.18V588H25.64V573.8ZM42.5302 580.62C42.9502 578.44 44.6502 577.16 47.2102 577.16C50.2502 577.16 51.8502 578.74 51.8502 581.7V585.4C51.8502 586 52.0902 586.16 52.5102 586.16H52.9102V588L52.2902 588.02C51.4302 588.02 49.8302 588 49.6702 586.38C49.1702 587.42 47.9902 588.24 46.1702 588.24C44.0502 588.24 42.3502 587.1 42.3502 585.22C42.3502 583.14 43.8902 582.48 46.3702 582L49.3502 581.4C49.3302 579.78 48.6502 579 47.2102 579C46.0702 579 45.3302 579.6 45.0702 580.76L42.5302 580.62ZM44.9102 585.14C44.9102 585.88 45.5302 586.46 46.8102 586.46C48.2902 586.46 49.3902 585.4 49.3902 583.24V583.14L47.3502 583.5C45.9702 583.76 44.9102 583.9 44.9102 585.14ZM54.5047 577.4H56.7447L56.8247 579.14C57.3847 577.74 58.5847 577.16 60.0047 577.16C62.3647 577.16 63.6247 578.82 63.6247 581.18V588H61.1447V581.96C61.1447 580.16 60.6647 579.18 59.2847 579.18C57.8447 579.18 56.9847 580.16 56.9847 581.96V588H54.5047V577.4ZM65.6364 580.62C66.0564 578.44 67.7564 577.16 70.3164 577.16C73.3564 577.16 74.9564 578.74 74.9564 581.7V585.4C74.9564 586 75.1964 586.16 75.6164 586.16H76.0164V588L75.3964 588.02C74.5364 588.02 72.9364 588 72.7764 586.38C72.2764 587.42 71.0964 588.24 69.2764 588.24C67.1564 588.24 65.4564 587.1 65.4564 585.22C65.4564 583.14 66.9964 582.48 69.4764 582L72.4564 581.4C72.4364 579.78 71.7564 579 70.3164 579C69.1764 579 68.4364 579.6 68.1764 580.76L65.6364 580.62ZM68.0164 585.14C68.0164 585.88 68.6364 586.46 69.9164 586.46C71.3964 586.46 72.4964 585.4 72.4964 583.24V583.14L70.4564 583.5C69.0764 583.76 68.0164 583.9 68.0164 585.14ZM81.6123 587.48C78.7323 587.48 76.8923 585.38 76.8923 582.4C76.8923 579.32 78.7723 577.16 81.6123 577.16C82.9723 577.16 84.0923 577.88 84.6123 579.02V577.4H87.0323V586.82C87.0323 589.62 84.9523 591.24 81.9723 591.24C79.5723 591.24 77.7523 590.04 77.1923 588.2L79.7323 588.04C80.0923 588.84 80.8723 589.32 81.9923 589.32C83.5923 589.32 84.5323 588.6 84.5323 587.16V585.78C83.9323 586.9 82.7523 587.48 81.6123 587.48ZM79.4523 582.38C79.4523 584.26 80.4523 585.6 82.0523 585.6C83.6123 585.6 84.5923 584.26 84.6123 582.38C84.6323 580.5 83.6523 579.18 82.0523 579.18C80.4323 579.18 79.4523 580.5 79.4523 582.38ZM88.9928 582.7C88.9928 579.34 91.0528 577.16 94.1928 577.16C96.8728 577.16 99.0528 578.96 99.1328 582.72V583.38H91.5928C91.7128 585.18 92.6528 586.24 94.1928 586.24C95.1728 586.24 96.0528 585.68 96.4528 584.76L98.9928 584.94C98.3528 586.98 96.4528 588.24 94.1928 588.24C91.0528 588.24 88.9928 586.06 88.9928 582.7ZM91.6128 581.68H96.5728C96.3528 579.82 95.3328 579.14 94.1928 579.14C92.7528 579.14 91.8328 580.1 91.6128 581.68ZM110.608 573.8V588H108.268L108.208 586.5C107.608 587.6 106.508 588.24 104.948 588.24C101.948 588.24 100.468 585.72 100.468 582.7C100.468 579.68 101.948 577.16 104.948 577.16C106.428 577.16 107.508 577.74 108.128 578.82V573.8H110.608ZM103.008 582.7C103.008 584.52 103.808 586.2 105.648 586.2C107.508 586.2 108.288 584.52 108.288 582.7C108.288 580.8 107.508 579.12 105.648 579.12C103.788 579.12 103.008 580.8 103.008 582.7ZM117.713 573.8H120.233V588H117.713V573.8ZM122.681 577.4H124.921L125.001 579.14C125.561 577.74 126.761 577.16 128.181 577.16C130.541 577.16 131.801 578.82 131.801 581.18V588H129.321V581.96C129.321 580.16 128.841 579.18 127.461 579.18C126.021 579.18 125.161 580.16 125.161 581.96V588H122.681V577.4ZM135.1 577.08C135.1 575 136.14 573.8 138.44 573.8H140.4V575.74H138.72C138.04 575.74 137.58 576.26 137.58 577.08V577.66H140.24V579.6H137.58V588H135.1V579.6H133.6V577.66H135.1V577.08ZM142.233 577.4H144.553L144.613 579.44C144.973 578.06 145.773 577.4 147.133 577.4H148.133V579.34H147.133C145.433 579.34 144.713 580.2 144.713 581.92V588H142.233V577.4ZM149.263 580.62C149.683 578.44 151.383 577.16 153.943 577.16C156.983 577.16 158.583 578.74 158.583 581.7V585.4C158.583 586 158.823 586.16 159.243 586.16H159.643V588L159.023 588.02C158.163 588.02 156.563 588 156.403 586.38C155.903 587.42 154.723 588.24 152.903 588.24C150.783 588.24 149.083 587.1 149.083 585.22C149.083 583.14 150.623 582.48 153.103 582L156.083 581.4C156.063 579.78 155.383 579 153.943 579C152.803 579 152.063 579.6 151.803 580.76L149.263 580.62ZM151.643 585.14C151.643 585.88 152.263 586.46 153.543 586.46C155.023 586.46 156.123 585.4 156.123 583.24V583.14L154.083 583.5C152.703 583.76 151.643 583.9 151.643 585.14ZM167.339 580.78C167.139 579.7 166.139 579.06 165.139 579.06C164.119 579.06 163.319 579.58 163.339 580.44C163.359 581.34 164.479 581.7 165.519 581.9C168.339 582.38 169.979 583.12 169.979 585.18C169.979 587.28 167.919 588.24 165.499 588.24C162.639 588.24 160.699 586.88 160.519 584.64L163.059 584.5C163.259 585.62 164.099 586.32 165.459 586.32C166.339 586.32 167.419 586 167.419 585.1C167.399 584.06 166.199 583.9 165.099 583.66C162.599 583.16 160.779 582.5 160.779 580.5C160.779 578.42 162.499 577.14 165.279 577.14C167.719 577.14 169.499 578.5 169.839 580.66L167.339 580.78ZM172.525 575H175.005V577.4H177.805V579.34H175.005V584.78C175.005 585.62 175.405 586.04 176.205 586.04H177.805V588H175.825C173.665 588 172.525 586.9 172.525 584.78V579.34H170.865V577.4H172.525V575ZM179.578 577.4H181.898L181.958 579.44C182.318 578.06 183.118 577.4 184.478 577.4H185.478V579.34H184.478C182.778 579.34 182.058 580.2 182.058 581.92V588H179.578V577.4ZM196.62 588H194.32L194.28 586.34C193.7 587.7 192.52 588.24 191.16 588.24C188.86 588.24 187.58 586.58 187.58 584.22V577.4H190.06V583.42C190.06 585.22 190.54 586.2 191.9 586.2C193.28 586.2 194.14 585.22 194.14 583.42V577.4H196.62V588ZM206.067 581.26C205.887 579.94 204.907 579.2 203.767 579.2C202.087 579.2 201.127 580.5 201.127 582.7C201.127 584.9 202.087 586.2 203.767 586.2C204.967 586.2 205.927 585.44 206.147 584L208.707 584.12C208.407 586.66 206.347 588.24 203.767 588.24C200.627 588.24 198.567 586.06 198.567 582.7C198.567 579.34 200.627 577.16 203.767 577.16C206.267 577.16 208.347 578.66 208.627 581.12L206.067 581.26ZM211.062 575H213.542V577.4H216.342V579.34H213.542V584.78C213.542 585.62 213.942 586.04 214.742 586.04H216.342V588H214.362C212.202 588 211.062 586.9 211.062 584.78V579.34H209.402V577.4H211.062V575ZM227.295 588H224.995L224.955 586.34C224.375 587.7 223.195 588.24 221.835 588.24C219.535 588.24 218.255 586.58 218.255 584.22V577.4H220.735V583.42C220.735 585.22 221.215 586.2 222.575 586.2C223.955 586.2 224.815 585.22 224.815 583.42V577.4H227.295V588ZM229.902 577.4H232.222L232.282 579.44C232.642 578.06 233.442 577.4 234.802 577.4H235.802V579.34H234.802C233.102 579.34 232.382 580.2 232.382 581.92V588H229.902V577.4ZM236.323 582.7C236.323 579.34 238.383 577.16 241.523 577.16C244.203 577.16 246.383 578.96 246.463 582.72V583.38H238.923C239.043 585.18 239.983 586.24 241.523 586.24C242.503 586.24 243.383 585.68 243.783 584.76L246.323 584.94C245.683 586.98 243.783 588.24 241.523 588.24C238.383 588.24 236.323 586.06 236.323 582.7ZM238.943 581.68H243.903C243.683 579.82 242.663 579.14 241.523 579.14C240.083 579.14 239.163 580.1 238.943 581.68Z" fill="#171717"/>
<mask id="path-44-inside-4_168_17102" fill="white">
<path d="M24 618H351V658H24V618Z"/>
</mask>
<path d="M24 618H351V658H24V618Z" fill="white"/>
<path d="M351 657H24V659H351V657Z" fill="#EAEAEA" mask="url(#path-44-inside-4_168_17102)"/>
<path d="M40.9 633.06C43.168 633.06 44.512 634.208 44.512 636.14C44.512 638.086 43.168 639.262 40.9 639.262H38.702V643H37.218V633.06H40.9ZM38.702 637.89H40.872C42.258 637.89 42.972 637.302 42.972 636.14C42.972 635.006 42.258 634.432 40.872 634.432H38.702V637.89ZM46.1981 635.58H47.5281L47.5701 636.98C47.8081 636.028 48.3681 635.58 49.3341 635.58H50.0481V636.784H49.3201C48.1721 636.784 47.6541 637.414 47.6541 638.66V643H46.1981V635.58ZM54.267 643.168C52.139 643.168 50.753 641.656 50.753 639.29C50.753 636.924 52.139 635.412 54.267 635.412C56.395 635.412 57.781 636.924 57.781 639.29C57.781 641.656 56.395 643.168 54.267 643.168ZM52.265 639.29C52.265 640.914 52.993 641.894 54.267 641.894C55.541 641.894 56.269 640.914 56.269 639.29C56.269 637.666 55.541 636.686 54.267 636.686C52.993 636.686 52.265 637.666 52.265 639.29ZM65.8842 633.06V643H64.5262L64.4842 641.964C64.0782 642.72 63.2942 643.168 62.1742 643.168C60.0462 643.168 59.0382 641.362 59.0382 639.29C59.0382 637.218 60.0462 635.412 62.1742 635.412C63.2382 635.412 63.9942 635.804 64.4282 636.546V633.06H65.8842ZM60.5502 639.29C60.5502 640.62 61.1242 641.894 62.5382 641.894C63.9662 641.894 64.5402 640.62 64.5402 639.29C64.5402 637.918 63.9662 636.644 62.5382 636.644C61.1102 636.644 60.5502 637.904 60.5502 639.29ZM74 643H72.628L72.614 641.782C72.222 642.748 71.382 643.168 70.416 643.168C68.778 643.168 67.938 641.964 67.938 640.354V635.58H69.394V639.906C69.394 641.222 69.786 641.936 70.794 641.936C71.844 641.936 72.544 641.222 72.544 639.906V635.58H74V643ZM80.9812 638.17C80.8412 637.232 80.0992 636.686 79.2592 636.686C77.9852 636.686 77.2572 637.666 77.2572 639.29C77.2572 640.914 77.9852 641.894 79.2592 641.894C80.1412 641.894 80.8832 641.32 81.0372 640.284L82.5632 640.368C82.3252 642.104 80.9392 643.168 79.2592 643.168C77.1312 643.168 75.7452 641.656 75.7452 639.29C75.7452 636.924 77.1312 635.412 79.2592 635.412C80.8832 635.412 82.2972 636.42 82.4932 638.086L80.9812 638.17ZM84.5384 633.9H85.9944V635.58H87.9684V636.784H85.9944V640.886C85.9944 641.488 86.2884 641.796 86.8624 641.796H87.9544V643H86.7364C85.3084 643 84.5384 642.258 84.5384 640.886V636.784H83.4184V635.58H84.5384V633.9Z" fill="#666666"/>
<path d="M300.227 639.794C299.849 641.81 298.449 643.224 296.125 643.224C293.241 643.224 291.547 640.928 291.547 638.044C291.547 635.146 293.227 632.836 296.125 632.836C298.295 632.836 299.709 634.152 300.157 636.056L298.617 636.154C298.309 634.992 297.469 634.208 296.125 634.208C293.997 634.208 293.087 635.972 293.087 638.044C293.087 640.102 294.011 641.852 296.125 641.852C297.525 641.852 298.407 640.97 298.659 639.71L300.227 639.794ZM301.934 633.06H303.39V636.574C303.824 635.762 304.664 635.412 305.574 635.412C307.24 635.412 308.066 636.644 308.066 638.226V643H306.61V638.73C306.61 637.428 306.218 636.714 305.182 636.714C304.076 636.714 303.39 637.428 303.39 638.73V643H301.934V633.06ZM309.869 637.792C310.163 636.308 311.339 635.412 313.019 635.412C315.035 635.412 316.127 636.532 316.127 638.548V641.348C316.127 641.698 316.281 641.824 316.575 641.824H316.883V643H316.393C315.721 643.014 314.839 642.874 314.783 641.866C314.461 642.566 313.635 643.168 312.417 643.168C310.933 643.168 309.743 642.384 309.743 641.054C309.743 639.556 310.849 639.136 312.543 638.814L314.671 638.394C314.657 637.204 314.111 636.63 313.019 636.63C312.151 636.63 311.577 637.064 311.367 637.89L309.869 637.792ZM311.255 641.026C311.255 641.572 311.717 642.02 312.697 642.02C313.831 642.02 314.699 641.222 314.699 639.598V639.528L313.103 639.808C312.067 639.99 311.255 640.074 311.255 641.026ZM318.368 635.58H319.698L319.74 636.98C319.978 636.028 320.538 635.58 321.504 635.58H322.218V636.784H321.49C320.342 636.784 319.824 637.414 319.824 638.66V643H318.368V635.58ZM326.241 642.622C324.211 642.622 322.923 641.138 322.923 639.038C322.923 636.924 324.253 635.412 326.241 635.412C327.207 635.412 328.005 635.93 328.341 636.728V635.58H329.741V642.23C329.741 644.19 328.355 645.268 326.339 645.268C324.715 645.268 323.497 644.414 323.119 643.126L324.631 643.028C324.911 643.658 325.499 644.036 326.353 644.036C327.557 644.036 328.285 643.504 328.285 642.482V641.39C327.851 642.202 327.025 642.622 326.241 642.622ZM324.435 639.038C324.435 640.41 325.177 641.39 326.381 641.39C327.571 641.39 328.313 640.41 328.327 639.038C328.341 637.666 327.599 636.686 326.381 636.686C325.163 636.686 324.435 637.666 324.435 639.038ZM331.509 639.29C331.509 636.924 332.895 635.412 335.023 635.412C336.759 635.412 338.271 636.56 338.355 639.206L338.369 639.71H333.035C333.147 641.096 333.847 641.908 335.023 641.908C335.765 641.908 336.423 641.488 336.731 640.774L338.257 640.886C337.823 642.286 336.521 643.168 335.023 643.168C332.895 643.168 331.509 641.656 331.509 639.29ZM333.063 638.59H336.829C336.633 637.162 335.863 636.672 335.023 636.672C333.931 636.672 333.245 637.386 333.063 638.59Z" fill="#666666"/>
<rect x="24" y="670" width="327" height="40" rx="6" fill="#FAFAFA"/>
<path d="M41.152 685.06C43.238 685.06 44.596 686.194 44.596 688.07C44.596 689.26 43.812 690.128 42.902 690.394C43.896 690.534 44.33 691.038 44.428 692.102L44.694 695H43.196L42.958 692.284C42.888 691.402 42.328 691.108 40.97 691.108H38.702V695H37.218V685.06H41.152ZM38.702 689.736H41.068C42.342 689.736 43.056 689.148 43.056 688.098C43.056 687.034 42.342 686.432 41.068 686.432H38.702V689.736ZM45.9269 691.29C45.9269 688.924 47.3129 687.412 49.4409 687.412C51.1769 687.412 52.6889 688.56 52.7729 691.206L52.7869 691.71H47.4529C47.5649 693.096 48.2649 693.908 49.4409 693.908C50.1829 693.908 50.8409 693.488 51.1489 692.774L52.6749 692.886C52.2409 694.286 50.9389 695.168 49.4409 695.168C47.3129 695.168 45.9269 693.656 45.9269 691.29ZM47.4809 690.59H51.2469C51.0509 689.162 50.2809 688.672 49.4409 688.672C48.3489 688.672 47.6629 689.386 47.4809 690.59ZM60.894 697.1H59.438V693.992C59.018 694.762 58.262 695.168 57.24 695.168C55.056 695.168 54.048 693.362 54.048 691.29C54.048 689.218 55.056 687.412 57.24 687.412C58.318 687.412 59.088 687.86 59.494 688.658L59.536 687.58H60.894V697.1ZM55.588 691.29C55.588 692.634 56.162 693.894 57.576 693.894C58.976 693.894 59.578 692.62 59.578 691.29C59.578 689.96 58.99 688.686 57.576 688.686C56.162 688.686 55.588 689.96 55.588 691.29ZM69.0098 695H67.6378L67.6238 693.782C67.2318 694.748 66.3918 695.168 65.4258 695.168C63.7878 695.168 62.9478 693.964 62.9478 692.354V687.58H64.4038V691.906C64.4038 693.222 64.7958 693.936 65.8038 693.936C66.8538 693.936 67.5538 693.222 67.5538 691.906V687.58H69.0098V695ZM70.755 691.29C70.755 688.924 72.141 687.412 74.269 687.412C76.005 687.412 77.517 688.56 77.601 691.206L77.615 691.71H72.281C72.393 693.096 73.093 693.908 74.269 693.908C75.011 693.908 75.669 693.488 75.977 692.774L77.503 692.886C77.069 694.286 75.767 695.168 74.269 695.168C72.141 695.168 70.755 693.656 70.755 691.29ZM72.309 690.59H76.075C75.879 689.162 75.109 688.672 74.269 688.672C73.177 688.672 72.491 689.386 72.309 690.59ZM83.6081 689.904C83.4541 689.12 82.6981 688.644 81.9281 688.644C81.1721 688.644 80.5561 689.036 80.5701 689.694C80.5701 690.366 81.4521 690.646 82.2081 690.786C84.0281 691.122 85.2321 691.612 85.2321 693.068C85.2321 694.524 83.7481 695.168 82.2221 695.168C80.3461 695.168 78.9881 694.202 78.8761 692.662L80.3741 692.564C80.5141 693.404 81.1721 693.922 82.2081 693.922C82.8661 693.922 83.7201 693.698 83.7201 693.012C83.7061 692.2 82.7681 692.102 81.9561 691.92C80.4161 691.584 79.0581 691.178 79.0581 689.75C79.0581 688.308 80.2201 687.412 82.0541 687.412C83.6361 687.412 84.8681 688.35 85.1061 689.82L83.6081 689.904ZM87.3412 685.9H88.7972V687.58H90.7712V688.784H88.7972V692.886C88.7972 693.488 89.0912 693.796 89.6652 693.796H90.7572V695H89.5392C88.1112 695 87.3412 694.258 87.3412 692.886V688.784H86.2212V687.58H87.3412V685.9ZM104.031 691.794C103.653 693.81 102.253 695.224 99.9294 695.224C97.0454 695.224 95.3514 692.928 95.3514 690.044C95.3514 687.146 97.0314 684.836 99.9294 684.836C102.099 684.836 103.513 686.152 103.961 688.056L102.421 688.154C102.113 686.992 101.273 686.208 99.9294 686.208C97.8014 686.208 96.8914 687.972 96.8914 690.044C96.8914 692.102 97.8154 693.852 99.9294 693.852C101.329 693.852 102.211 692.97 102.463 691.71L104.031 691.794ZM109.396 685.06C111.664 685.06 113.008 686.208 113.008 688.14C113.008 690.086 111.664 691.262 109.396 691.262H107.198V695H105.714V685.06H109.396ZM107.198 689.89H109.368C110.754 689.89 111.468 689.302 111.468 688.14C111.468 687.006 110.754 686.432 109.368 686.432H107.198V689.89ZM122.405 691.5C122.405 693.782 120.921 695.224 118.555 695.224C116.189 695.224 114.705 693.782 114.705 691.5V685.046H116.189V691.5C116.189 693.012 117.043 693.852 118.555 693.852C120.067 693.852 120.921 693.012 120.921 691.5V685.046H122.405V691.5ZM131.232 685.06C134.34 685.06 136.09 686.852 136.09 690.044C136.09 693.222 134.382 695 131.316 695H128.054V685.06H131.232ZM129.538 693.628H131.232C133.458 693.628 134.55 692.452 134.55 690.044C134.55 687.608 133.458 686.432 131.232 686.432H129.538V693.628ZM143.986 695H142.614L142.6 693.782C142.208 694.748 141.368 695.168 140.402 695.168C138.764 695.168 137.924 693.964 137.924 692.354V687.58H139.38V691.906C139.38 693.222 139.772 693.936 140.78 693.936C141.83 693.936 142.53 693.222 142.53 691.906V687.58H143.986V695ZM146.222 687.58H147.552L147.594 688.98C147.832 688.028 148.392 687.58 149.358 687.58H150.072V688.784H149.344C148.196 688.784 147.678 689.414 147.678 690.66V695H146.222V687.58ZM151.203 689.792C151.497 688.308 152.673 687.412 154.353 687.412C156.369 687.412 157.461 688.532 157.461 690.548V693.348C157.461 693.698 157.615 693.824 157.909 693.824H158.217V695H157.727C157.055 695.014 156.173 694.874 156.117 693.866C155.795 694.566 154.969 695.168 153.751 695.168C152.267 695.168 151.077 694.384 151.077 693.054C151.077 691.556 152.183 691.136 153.877 690.814L156.005 690.394C155.991 689.204 155.445 688.63 154.353 688.63C153.485 688.63 152.911 689.064 152.701 689.89L151.203 689.792ZM152.589 693.026C152.589 693.572 153.051 694.02 154.031 694.02C155.165 694.02 156.033 693.222 156.033 691.598V691.528L154.437 691.808C153.401 691.99 152.589 692.074 152.589 693.026ZM159.898 685.9H161.354V687.58H163.328V688.784H161.354V692.886C161.354 693.488 161.648 693.796 162.222 693.796H163.314V695H162.096C160.668 695 159.898 694.258 159.898 692.886V688.784H158.778V687.58H159.898V685.9ZM164.952 687.58H166.408V695H164.952V687.58ZM164.938 686.474V685.06H166.45V686.474H164.938ZM171.667 695.168C169.539 695.168 168.153 693.656 168.153 691.29C168.153 688.924 169.539 687.412 171.667 687.412C173.795 687.412 175.181 688.924 175.181 691.29C175.181 693.656 173.795 695.168 171.667 695.168ZM169.665 691.29C169.665 692.914 170.393 693.894 171.667 693.894C172.941 693.894 173.669 692.914 173.669 691.29C173.669 689.666 172.941 688.686 171.667 688.686C170.393 688.686 169.665 689.666 169.665 691.29ZM176.847 687.58H178.163L178.205 688.84C178.597 687.846 179.451 687.412 180.473 687.412C182.139 687.412 182.979 688.616 182.979 690.226V695H181.523V690.66C181.523 689.358 181.131 688.644 180.095 688.644C178.989 688.644 178.303 689.358 178.303 690.66V695H176.847V687.58Z" fill="#171717"/>
<path d="M306.113 691.752C306.323 692.886 307.037 693.712 308.199 693.95V690.352H308.185C306.533 689.932 305.091 689.148 305.091 687.552C305.091 685.928 306.365 684.892 308.199 684.836V683.73H309.207V684.92C310.845 685.228 311.909 686.432 312.077 687.986L310.845 688.07C310.719 687.104 310.117 686.39 309.207 686.11V689.512C310.957 690.03 312.287 690.912 312.287 692.382C312.287 694.062 310.845 695.028 309.207 695.154V696.274H308.199V695.126C306.337 694.902 305.021 693.628 304.881 691.836L306.113 691.752ZM306.323 687.552C306.323 688.504 307.191 688.924 308.199 689.232V685.984C307.107 686.026 306.323 686.628 306.323 687.552ZM309.207 694.006C310.327 693.936 311.055 693.404 311.055 692.494C311.055 691.682 310.481 691.122 309.207 690.66V694.006ZM317.739 695.224C315.331 695.224 313.805 693.222 313.805 690.044C313.805 686.838 315.331 684.836 317.739 684.836C320.147 684.836 321.673 686.838 321.673 690.044C321.673 693.222 320.147 695.224 317.739 695.224ZM315.037 690.044C315.037 692.62 316.017 694.076 317.739 694.076C319.461 694.076 320.441 692.62 320.441 690.044C320.441 687.454 319.461 685.984 317.739 685.984C316.017 685.984 315.037 687.454 315.037 690.044ZM322.746 693.502H324.23V695H322.746V693.502ZM326.025 686.614C327.089 686.614 327.551 686.138 327.551 685.06H328.475V695H327.299V687.608H325.241V686.614H326.025ZM334.378 695.224C331.97 695.224 330.444 693.222 330.444 690.044C330.444 686.838 331.97 684.836 334.378 684.836C336.786 684.836 338.312 686.838 338.312 690.044C338.312 693.222 336.786 695.224 334.378 695.224ZM331.676 690.044C331.676 692.62 332.656 694.076 334.378 694.076C336.1 694.076 337.08 692.62 337.08 690.044C337.08 687.454 336.1 685.984 334.378 685.984C332.656 685.984 331.676 687.454 331.676 690.044Z" fill="#666666"/>
<rect x="24" y="710" width="327" height="40" rx="6" fill="white"/>
<path d="M37.218 725.06H43.644V726.432H38.702V729.47H43.392V730.814H38.702V735H37.218V725.06ZM45.0822 729.792C45.3762 728.308 46.5522 727.412 48.2322 727.412C50.2482 727.412 51.3402 728.532 51.3402 730.548V733.348C51.3402 733.698 51.4942 733.824 51.7882 733.824H52.0962V735H51.6062C50.9342 735.014 50.0522 734.874 49.9962 733.866C49.6742 734.566 48.8482 735.168 47.6302 735.168C46.1462 735.168 44.9562 734.384 44.9562 733.054C44.9562 731.556 46.0622 731.136 47.7562 730.814L49.8842 730.394C49.8702 729.204 49.3242 728.63 48.2322 728.63C47.3642 728.63 46.7902 729.064 46.5802 729.89L45.0822 729.792ZM46.4682 733.026C46.4682 733.572 46.9302 734.02 47.9102 734.02C49.0442 734.02 49.9122 733.222 49.9122 731.598V731.528L48.3162 731.808C47.2802 731.99 46.4682 732.074 46.4682 733.026ZM57.7956 729.904C57.6416 729.12 56.8856 728.644 56.1156 728.644C55.3596 728.644 54.7436 729.036 54.7576 729.694C54.7576 730.366 55.6396 730.646 56.3956 730.786C58.2156 731.122 59.4196 731.612 59.4196 733.068C59.4196 734.524 57.9356 735.168 56.4096 735.168C54.5336 735.168 53.1756 734.202 53.0636 732.662L54.5616 732.564C54.7016 733.404 55.3596 733.922 56.3956 733.922C57.0536 733.922 57.9076 733.698 57.9076 733.012C57.8936 732.2 56.9556 732.102 56.1436 731.92C54.6036 731.584 53.2456 731.178 53.2456 729.75C53.2456 728.308 54.4076 727.412 56.2416 727.412C57.8236 727.412 59.0556 728.35 59.2936 729.82L57.7956 729.904ZM61.5287 725.9H62.9847V727.58H64.9587V728.784H62.9847V732.886C62.9847 733.488 63.2787 733.796 63.8527 733.796H64.9447V735H63.7267C62.2987 735 61.5287 734.258 61.5287 732.886V728.784H60.4087V727.58H61.5287V725.9ZM73.2769 725.06C76.3849 725.06 78.1349 726.852 78.1349 730.044C78.1349 733.222 76.4269 735 73.3609 735H70.0989V725.06H73.2769ZM71.5829 733.628H73.2769C75.5029 733.628 76.5949 732.452 76.5949 730.044C76.5949 727.608 75.5029 726.432 73.2769 726.432H71.5829V733.628ZM79.5353 729.792C79.8293 728.308 81.0053 727.412 82.6853 727.412C84.7013 727.412 85.7933 728.532 85.7933 730.548V733.348C85.7933 733.698 85.9473 733.824 86.2413 733.824H86.5493V735H86.0593C85.3873 735.014 84.5053 734.874 84.4493 733.866C84.1273 734.566 83.3013 735.168 82.0833 735.168C80.5993 735.168 79.4093 734.384 79.4093 733.054C79.4093 731.556 80.5153 731.136 82.2093 730.814L84.3373 730.394C84.3233 729.204 83.7773 728.63 82.6853 728.63C81.8173 728.63 81.2433 729.064 81.0333 729.89L79.5353 729.792ZM80.9213 733.026C80.9213 733.572 81.3833 734.02 82.3633 734.02C83.4973 734.02 84.3653 733.222 84.3653 731.598V731.528L82.7693 731.808C81.7333 731.99 80.9213 732.074 80.9213 733.026ZM88.2298 725.9H89.6858V727.58H91.6598V728.784H89.6858V732.886C89.6858 733.488 89.9798 733.796 90.5538 733.796H91.6458V735H90.4278C88.9998 735 88.2298 734.258 88.2298 732.886V728.784H87.1098V727.58H88.2298V725.9ZM92.9201 729.792C93.2141 728.308 94.3901 727.412 96.0701 727.412C98.0861 727.412 99.1781 728.532 99.1781 730.548V733.348C99.1781 733.698 99.3321 733.824 99.6261 733.824H99.9341V735H99.4441C98.7721 735.014 97.8901 734.874 97.8341 733.866C97.5121 734.566 96.6861 735.168 95.4681 735.168C93.9841 735.168 92.7941 734.384 92.7941 733.054C92.7941 731.556 93.9001 731.136 95.5941 730.814L97.7221 730.394C97.7081 729.204 97.1621 728.63 96.0701 728.63C95.2021 728.63 94.6281 729.064 94.4181 729.89L92.9201 729.792ZM94.3061 733.026C94.3061 733.572 94.7681 734.02 95.7481 734.02C96.8821 734.02 97.7501 733.222 97.7501 731.598V731.528L96.1541 731.808C95.1181 731.99 94.3061 732.074 94.3061 733.026ZM111.751 725.06V726.432H108.699V735H107.215V726.432H104.177V725.06H111.751ZM113.108 727.58H114.438L114.48 728.98C114.718 728.028 115.278 727.58 116.244 727.58H116.958V728.784H116.23C115.082 728.784 114.564 729.414 114.564 730.66V735H113.108V727.58ZM118.09 729.792C118.384 728.308 119.56 727.412 121.24 727.412C123.256 727.412 124.348 728.532 124.348 730.548V733.348C124.348 733.698 124.502 733.824 124.796 733.824H125.104V735H124.614C123.942 735.014 123.06 734.874 123.004 733.866C122.682 734.566 121.856 735.168 120.638 735.168C119.154 735.168 117.964 734.384 117.964 733.054C117.964 731.556 119.07 731.136 120.764 730.814L122.892 730.394C122.878 729.204 122.332 728.63 121.24 728.63C120.372 728.63 119.798 729.064 119.588 729.89L118.09 729.792ZM119.476 733.026C119.476 733.572 119.938 734.02 120.918 734.02C122.052 734.02 122.92 733.222 122.92 731.598V731.528L121.324 731.808C120.288 731.99 119.476 732.074 119.476 733.026ZM126.589 727.58H127.905L127.947 728.84C128.339 727.846 129.193 727.412 130.215 727.412C131.881 727.412 132.721 728.616 132.721 730.226V735H131.265V730.66C131.265 729.358 130.873 728.644 129.837 728.644C128.731 728.644 128.045 729.358 128.045 730.66V735H126.589V727.58ZM138.938 729.904C138.784 729.12 138.028 728.644 137.258 728.644C136.502 728.644 135.886 729.036 135.9 729.694C135.9 730.366 136.782 730.646 137.538 730.786C139.358 731.122 140.562 731.612 140.562 733.068C140.562 734.524 139.078 735.168 137.552 735.168C135.676 735.168 134.318 734.202 134.206 732.662L135.704 732.564C135.844 733.404 136.502 733.922 137.538 733.922C138.196 733.922 139.05 733.698 139.05 733.012C139.036 732.2 138.098 732.102 137.286 731.92C135.746 731.584 134.388 731.178 134.388 729.75C134.388 728.308 135.55 727.412 137.384 727.412C138.966 727.412 140.198 728.35 140.436 729.82L138.938 729.904ZM142.78 727.23C142.78 725.886 143.452 725.06 144.95 725.06H146.196V726.264H145.048C144.572 726.264 144.236 726.628 144.236 727.23V727.664H146.098V728.868H144.236V735H142.78V728.868H141.758V727.664H142.78V727.23ZM146.962 731.29C146.962 728.924 148.348 727.412 150.476 727.412C152.212 727.412 153.724 728.56 153.808 731.206L153.822 731.71H148.488C148.6 733.096 149.3 733.908 150.476 733.908C151.218 733.908 151.876 733.488 152.184 732.774L153.71 732.886C153.276 734.286 151.974 735.168 150.476 735.168C148.348 735.168 146.962 733.656 146.962 731.29ZM148.516 730.59H152.282C152.086 729.162 151.316 728.672 150.476 728.672C149.384 728.672 148.698 729.386 148.516 730.59ZM155.491 727.58H156.821L156.863 728.98C157.101 728.028 157.661 727.58 158.627 727.58H159.341V728.784H158.613C157.465 728.784 156.947 729.414 156.947 730.66V735H155.491V727.58Z" fill="#171717"/>
<path d="M284.06 731.752C284.27 732.886 284.984 733.712 286.146 733.95V730.352H286.132C284.48 729.932 283.038 729.148 283.038 727.552C283.038 725.928 284.312 724.892 286.146 724.836V723.73H287.154V724.92C288.792 725.228 289.856 726.432 290.024 727.986L288.792 728.07C288.666 727.104 288.064 726.39 287.154 726.11V729.512C288.904 730.03 290.234 730.912 290.234 732.382C290.234 734.062 288.792 735.028 287.154 735.154V736.274H286.146V735.126C284.284 734.902 282.968 733.628 282.828 731.836L284.06 731.752ZM284.27 727.552C284.27 728.504 285.138 728.924 286.146 729.232V725.984C285.054 726.026 284.27 726.628 284.27 727.552ZM287.154 734.006C288.274 733.936 289.002 733.404 289.002 732.494C289.002 731.682 288.428 731.122 287.154 730.66V734.006ZM295.252 729.148C296.232 729.162 297.352 728.7 297.352 727.426C297.352 726.544 296.54 725.984 295.252 725.984C294.216 725.984 293.474 726.502 293.334 727.3L292.116 727.216C292.298 725.83 293.6 724.836 295.252 724.836C297.212 724.836 298.584 725.9 298.584 727.426C298.584 728.532 297.954 729.288 296.75 729.624C298.15 730.03 298.92 730.996 298.92 732.27C298.92 734.006 297.408 735.224 295.252 735.224C293.278 735.224 291.85 734.076 291.752 732.452L292.97 732.368C293.082 733.586 294.244 734.076 295.252 734.076C296.456 734.076 297.702 733.516 297.702 732.172C297.702 730.842 296.456 730.254 295.252 730.282L294.482 730.296V729.134L295.252 729.148ZM304.395 735.224C301.987 735.224 300.461 733.222 300.461 730.044C300.461 726.838 301.987 724.836 304.395 724.836C306.803 724.836 308.329 726.838 308.329 730.044C308.329 733.222 306.803 735.224 304.395 735.224ZM301.693 730.044C301.693 732.62 302.673 734.076 304.395 734.076C306.117 734.076 307.097 732.62 307.097 730.044C307.097 727.454 306.117 725.984 304.395 725.984C302.673 725.984 301.693 727.454 301.693 730.044ZM313.638 735.224C311.23 735.224 309.704 733.222 309.704 730.044C309.704 726.838 311.23 724.836 313.638 724.836C316.046 724.836 317.572 726.838 317.572 730.044C317.572 733.222 316.046 735.224 313.638 735.224ZM310.936 730.044C310.936 732.62 311.916 734.076 313.638 734.076C315.36 734.076 316.34 732.62 316.34 730.044C316.34 727.454 315.36 725.984 313.638 725.984C311.916 725.984 310.936 727.454 310.936 730.044ZM318.644 733.502H320.128V735H318.644V733.502ZM325.136 735.224C322.728 735.224 321.202 733.222 321.202 730.044C321.202 726.838 322.728 724.836 325.136 724.836C327.544 724.836 329.07 726.838 329.07 730.044C329.07 733.222 327.544 735.224 325.136 735.224ZM322.434 730.044C322.434 732.62 323.414 734.076 325.136 734.076C326.858 734.076 327.838 732.62 327.838 730.044C327.838 727.454 326.858 725.984 325.136 725.984C323.414 725.984 322.434 727.454 322.434 730.044ZM334.378 735.224C331.97 735.224 330.444 733.222 330.444 730.044C330.444 726.838 331.97 724.836 334.378 724.836C336.786 724.836 338.312 726.838 338.312 730.044C338.312 733.222 336.786 735.224 334.378 735.224ZM331.676 730.044C331.676 732.62 332.656 734.076 334.378 734.076C336.1 734.076 337.08 732.62 337.08 730.044C337.08 727.454 336.1 725.984 334.378 725.984C332.656 725.984 331.676 727.454 331.676 730.044Z" fill="#666666"/>
<rect x="24" y="750" width="327" height="40" rx="6" fill="#FAFAFA"/>
<path d="M37.218 765.06H43.644V766.432H38.702V769.47H43.392V770.814H38.702V775H37.218V765.06ZM45.0822 769.792C45.3762 768.308 46.5522 767.412 48.2322 767.412C50.2482 767.412 51.3402 768.532 51.3402 770.548V773.348C51.3402 773.698 51.4942 773.824 51.7882 773.824H52.0962V775H51.6062C50.9342 775.014 50.0522 774.874 49.9962 773.866C49.6742 774.566 48.8482 775.168 47.6302 775.168C46.1462 775.168 44.9562 774.384 44.9562 773.054C44.9562 771.556 46.0622 771.136 47.7562 770.814L49.8842 770.394C49.8702 769.204 49.3242 768.63 48.2322 768.63C47.3642 768.63 46.7902 769.064 46.5802 769.89L45.0822 769.792ZM46.4682 773.026C46.4682 773.572 46.9302 774.02 47.9102 774.02C49.0442 774.02 49.9122 773.222 49.9122 771.598V771.528L48.3162 771.808C47.2802 771.99 46.4682 772.074 46.4682 773.026ZM57.7956 769.904C57.6416 769.12 56.8856 768.644 56.1156 768.644C55.3596 768.644 54.7436 769.036 54.7576 769.694C54.7576 770.366 55.6396 770.646 56.3956 770.786C58.2156 771.122 59.4196 771.612 59.4196 773.068C59.4196 774.524 57.9356 775.168 56.4096 775.168C54.5336 775.168 53.1756 774.202 53.0636 772.662L54.5616 772.564C54.7016 773.404 55.3596 773.922 56.3956 773.922C57.0536 773.922 57.9076 773.698 57.9076 773.012C57.8936 772.2 56.9556 772.102 56.1436 771.92C54.6036 771.584 53.2456 771.178 53.2456 769.75C53.2456 768.308 54.4076 767.412 56.2416 767.412C57.8236 767.412 59.0556 768.35 59.2936 769.82L57.7956 769.904ZM61.5287 765.9H62.9847V767.58H64.9587V768.784H62.9847V772.886C62.9847 773.488 63.2787 773.796 63.8527 773.796H64.9447V775H63.7267C62.2987 775 61.5287 774.258 61.5287 772.886V768.784H60.4087V767.58H61.5287V765.9ZM74.1169 775.224C71.3029 775.224 69.5389 773.222 69.5389 770.044C69.5389 766.838 71.3029 764.836 74.1169 764.836C76.9449 764.836 78.7089 766.838 78.7089 770.044C78.7089 773.222 76.9449 775.224 74.1169 775.224ZM71.0789 770.044C71.0789 772.48 72.1569 773.852 74.1169 773.852C76.0909 773.852 77.1689 772.48 77.1689 770.044C77.1689 767.594 76.0909 766.208 74.1169 766.208C72.1569 766.208 71.0789 767.594 71.0789 770.044ZM80.2274 767.58H81.5574L81.5994 768.98C81.8374 768.028 82.3974 767.58 83.3634 767.58H84.0774V768.784H83.3494C82.2014 768.784 81.6834 769.414 81.6834 770.66V775H80.2274V767.58ZM85.4364 767.58H86.8924V775H85.4364V767.58ZM85.4224 766.474V765.06H86.9344V766.474H85.4224ZM91.9558 774.622C89.9258 774.622 88.6378 773.138 88.6378 771.038C88.6378 768.924 89.9678 767.412 91.9558 767.412C92.9218 767.412 93.7198 767.93 94.0558 768.728V767.58H95.4558V774.23C95.4558 776.19 94.0698 777.268 92.0538 777.268C90.4298 777.268 89.2118 776.414 88.8338 775.126L90.3458 775.028C90.6258 775.658 91.2138 776.036 92.0678 776.036C93.2718 776.036 93.9998 775.504 93.9998 774.482V773.39C93.5658 774.202 92.7398 774.622 91.9558 774.622ZM90.1498 771.038C90.1498 772.41 90.8918 773.39 92.0958 773.39C93.2858 773.39 94.0278 772.41 94.0418 771.038C94.0558 769.666 93.3138 768.686 92.0958 768.686C90.8778 768.686 90.1498 769.666 90.1498 771.038ZM97.7138 767.58H99.1698V775H97.7138V767.58ZM97.6998 766.474V765.06H99.2118V766.474H97.6998ZM101.227 767.58H102.543L102.585 768.84C102.977 767.846 103.831 767.412 104.853 767.412C106.519 767.412 107.359 768.616 107.359 770.226V775H105.903V770.66C105.903 769.358 105.511 768.644 104.475 768.644C103.369 768.644 102.683 769.358 102.683 770.66V775H101.227V767.58ZM119.762 765.06V766.432H116.71V775H115.226V766.432H112.188V765.06H119.762ZM121.12 767.58H122.45L122.492 768.98C122.73 768.028 123.29 767.58 124.256 767.58H124.97V768.784H124.242C123.094 768.784 122.576 769.414 122.576 770.66V775H121.12V767.58ZM126.102 769.792C126.396 768.308 127.572 767.412 129.252 767.412C131.268 767.412 132.36 768.532 132.36 770.548V773.348C132.36 773.698 132.514 773.824 132.808 773.824H133.116V775H132.626C131.954 775.014 131.072 774.874 131.016 773.866C130.694 774.566 129.868 775.168 128.65 775.168C127.166 775.168 125.976 774.384 125.976 773.054C125.976 771.556 127.082 771.136 128.776 770.814L130.904 770.394C130.89 769.204 130.344 768.63 129.252 768.63C128.384 768.63 127.81 769.064 127.6 769.89L126.102 769.792ZM127.488 773.026C127.488 773.572 127.95 774.02 128.93 774.02C130.064 774.02 130.932 773.222 130.932 771.598V771.528L129.336 771.808C128.3 771.99 127.488 772.074 127.488 773.026ZM134.6 767.58H135.916L135.958 768.84C136.35 767.846 137.204 767.412 138.226 767.412C139.892 767.412 140.732 768.616 140.732 770.226V775H139.276V770.66C139.276 769.358 138.884 768.644 137.848 768.644C136.742 768.644 136.056 769.358 136.056 770.66V775H134.6V767.58ZM146.95 769.904C146.796 769.12 146.04 768.644 145.27 768.644C144.514 768.644 143.898 769.036 143.912 769.694C143.912 770.366 144.794 770.646 145.55 770.786C147.37 771.122 148.574 771.612 148.574 773.068C148.574 774.524 147.09 775.168 145.564 775.168C143.688 775.168 142.33 774.202 142.218 772.662L143.716 772.564C143.856 773.404 144.514 773.922 145.55 773.922C146.208 773.922 147.062 773.698 147.062 773.012C147.048 772.2 146.11 772.102 145.298 771.92C143.758 771.584 142.4 771.178 142.4 769.75C142.4 768.308 143.562 767.412 145.396 767.412C146.978 767.412 148.21 768.35 148.448 769.82L146.95 769.904ZM150.792 767.23C150.792 765.886 151.464 765.06 152.962 765.06H154.208V766.264H153.06C152.584 766.264 152.248 766.628 152.248 767.23V767.664H154.11V768.868H152.248V775H150.792V768.868H149.77V767.664H150.792V767.23ZM154.974 771.29C154.974 768.924 156.36 767.412 158.488 767.412C160.224 767.412 161.736 768.56 161.82 771.206L161.834 771.71H156.5C156.612 773.096 157.312 773.908 158.488 773.908C159.23 773.908 159.888 773.488 160.196 772.774L161.722 772.886C161.288 774.286 159.986 775.168 158.488 775.168C156.36 775.168 154.974 773.656 154.974 771.29ZM156.528 770.59H160.294C160.098 769.162 159.328 768.672 158.488 768.672C157.396 768.672 156.71 769.386 156.528 770.59ZM163.503 767.58H164.833L164.875 768.98C165.113 768.028 165.673 767.58 166.639 767.58H167.353V768.784H166.625C165.477 768.784 164.959 769.414 164.959 770.66V775H163.503V767.58Z" fill="#171717"/>
<path d="M285.495 771.752C285.706 772.886 286.42 773.712 287.582 773.95V770.352H287.568C285.916 769.932 284.474 769.148 284.474 767.552C284.474 765.928 285.748 764.892 287.582 764.836V763.73H288.59V764.92C290.228 765.228 291.292 766.432 291.46 767.986L290.228 768.07C290.102 767.104 289.5 766.39 288.59 766.11V769.512C290.34 770.03 291.669 770.912 291.669 772.382C291.669 774.062 290.228 775.028 288.59 775.154V776.274H287.582V775.126C285.72 774.902 284.404 773.628 284.264 771.836L285.495 771.752ZM285.706 767.552C285.706 768.504 286.574 768.924 287.582 769.232V765.984C286.49 766.026 285.706 766.628 285.706 767.552ZM288.59 774.006C289.71 773.936 290.438 773.404 290.438 772.494C290.438 771.682 289.864 771.122 288.59 770.66V774.006ZM293.37 768.028C293.636 766.18 294.938 764.836 296.926 764.836C298.746 764.836 300.076 766.04 300.076 767.664C300.076 769.092 298.942 770.086 297.43 771.01C296.59 771.5 294.686 772.844 294.644 773.852H300.16V775H293.188C293.188 772.088 295.274 770.982 297.01 769.904C298.088 769.218 298.844 768.448 298.844 767.664C298.844 766.684 298.06 765.984 296.926 765.984C295.708 765.984 294.868 766.74 294.602 768.112L293.37 768.028ZM307.52 765.06V771.808H308.668V772.956H307.52V775H306.344V772.956H301.192V771.808L306.274 765.06H307.52ZM302.648 771.808H306.344V766.866L302.648 771.808ZM313.638 775.224C311.23 775.224 309.704 773.222 309.704 770.044C309.704 766.838 311.23 764.836 313.638 764.836C316.046 764.836 317.572 766.838 317.572 770.044C317.572 773.222 316.046 775.224 313.638 775.224ZM310.936 770.044C310.936 772.62 311.916 774.076 313.638 774.076C315.36 774.076 316.34 772.62 316.34 770.044C316.34 767.454 315.36 765.984 313.638 765.984C311.916 765.984 310.936 767.454 310.936 770.044ZM318.644 773.502H320.128V775H318.644V773.502ZM325.136 775.224C322.728 775.224 321.202 773.222 321.202 770.044C321.202 766.838 322.728 764.836 325.136 764.836C327.544 764.836 329.07 766.838 329.07 770.044C329.07 773.222 327.544 775.224 325.136 775.224ZM322.434 770.044C322.434 772.62 323.414 774.076 325.136 774.076C326.858 774.076 327.838 772.62 327.838 770.044C327.838 767.454 326.858 765.984 325.136 765.984C323.414 765.984 322.434 767.454 322.434 770.044ZM334.378 775.224C331.97 775.224 330.444 773.222 330.444 770.044C330.444 766.838 331.97 764.836 334.378 764.836C336.786 764.836 338.312 766.838 338.312 770.044C338.312 773.222 336.786 775.224 334.378 775.224ZM331.676 770.044C331.676 772.62 332.656 774.076 334.378 774.076C336.1 774.076 337.08 772.62 337.08 770.044C337.08 767.454 336.1 765.984 334.378 765.984C332.656 765.984 331.676 767.454 331.676 770.044Z" fill="#666666"/>
<mask id="path-57-inside-5_168_17102" fill="white">
<path d="M24 802H351V842H24V802Z"/>
</mask>
<path d="M24 802H351V842H24V802Z" fill="white"/>
<path d="M24 803H351V801H24V803Z" fill="#EAEAEA" mask="url(#path-57-inside-5_168_17102)"/>
</g>
<defs>
<clipPath id="clip0_168_17102">
<rect width="375" height="812" fill="white"/>
</clipPath>
<clipPath id="clip1_168_17102">
<path d="M0 0H375V104H0V0Z" fill="white"/>
</clipPath>
<clipPath id="clip2_168_17102">
<rect width="103" height="32" fill="white" transform="translate(16 16)"/>
</clipPath>
<clipPath id="clip3_168_17102">
<rect x="16" y="22" width="20" height="20" rx="10" fill="white"/>
</clipPath>
<clipPath id="clip4_168_17102">
<rect width="20" height="20" fill="white" transform="translate(16 22)"/>
</clipPath>
</defs>
</svg>
