<svg width="660" height="660" viewBox="0 0 660 660" fill="none" xmlns="http://www.w3.org/2000/svg">
<rect width="660" height="660" fill="#FAFAFA"/>
<g filter="url(#filter0_ddd_128_13336)">
<path d="M72 265.474C72 258.684 77.5042 253.18 84.294 253.18H575.706C582.496 253.18 588 258.684 588 265.474V444.238C588 451.028 582.496 456.532 575.706 456.532H84.294C77.5042 456.532 72 451.028 72 444.238V265.474Z" fill="white"/>
</g>
<path d="M72 210.147C72 206.752 74.7521 204 78.147 204H581.853C585.248 204 588 206.752 588 210.147V238.833C588 242.228 585.248 244.98 581.853 244.98H78.147C74.7521 244.98 72 242.228 72 238.833V210.147Z" fill="white"/>
<path d="M78.147 203.488C74.4692 203.488 71.4877 206.469 71.4877 210.147V238.833C71.4877 242.511 74.4692 245.492 78.147 245.492H581.853C585.531 245.492 588.512 242.511 588.512 238.833V210.147C588.512 206.469 585.531 203.488 581.853 203.488H78.147Z" stroke="black" stroke-opacity="0.34" stroke-width="1.0245"/>
<g clip-path="url(#clip0_128_13336)">
<path fill-rule="evenodd" clip-rule="evenodd" d="M85.8307 222.953C85.8307 220.124 88.1241 217.831 90.9532 217.831C93.7823 217.831 96.0757 220.124 96.0757 222.953C96.0757 225.782 93.7823 228.076 90.9532 228.076C88.1241 228.076 85.8307 225.782 85.8307 222.953ZM90.9532 216.294C87.2754 216.294 84.2939 219.275 84.2939 222.953C84.2939 226.631 87.2754 229.613 90.9532 229.613C92.5152 229.613 93.9517 229.075 95.0874 228.174L98.6059 231.693L99.1492 232.236L100.236 231.149L99.6925 230.606L96.1741 227.087C97.0746 225.952 97.6124 224.515 97.6124 222.953C97.6124 219.275 94.631 216.294 90.9532 216.294Z" fill="#8F8F8F"/>
</g>
<rect x="112.98" y="209.892" width="90.392" height="29.196" rx="4.098" fill="#F2F2F2"/>
<path d="M126.712 223.726C126.54 222.851 125.679 222.335 124.819 222.335C123.958 222.335 123.27 222.779 123.27 223.511C123.284 224.257 124.245 224.572 125.106 224.759C126.841 225.089 128.089 225.576 128.089 227.054C128.089 228.517 126.583 229.162 125.134 229.162C123.342 229.162 121.965 228.172 121.85 226.609L123.083 226.523C123.227 227.441 123.973 228.043 125.134 228.043C125.909 228.043 126.856 227.785 126.856 226.996C126.856 226.078 125.766 225.978 124.891 225.763C123.485 225.433 122.051 225.031 122.051 223.583C122.036 222.134 123.212 221.216 124.948 221.216C126.468 221.216 127.702 222.177 127.946 223.64L126.712 223.726ZM130.313 219.667H131.489V221.388H133.511V222.435H131.489V226.982C131.489 227.627 131.804 227.943 132.407 227.943H133.497V228.99H132.407C131.058 228.99 130.313 228.273 130.313 226.982V222.435H129.194V221.388H130.313V219.667ZM134.865 223.626C135.166 222.148 136.343 221.216 137.963 221.216C139.928 221.216 141.018 222.364 141.018 224.4V227.455C141.018 227.8 141.162 227.943 141.492 227.943H141.793V228.99H141.291C140.516 228.99 139.842 228.732 139.857 227.8C139.527 228.517 138.666 229.162 137.461 229.162C135.955 229.162 134.736 228.359 134.736 227.011C134.736 225.447 135.927 225.046 137.59 224.716L139.842 224.285C139.828 222.966 139.211 222.335 137.963 222.335C136.988 222.335 136.343 222.837 136.113 223.726L134.865 223.626ZM135.97 227.011C135.97 227.627 136.5 228.129 137.619 228.115C138.881 228.115 139.871 227.226 139.871 225.462V225.333L138.049 225.648C136.916 225.849 135.97 225.935 135.97 227.011ZM143.563 219.667H144.739V221.388H146.762V222.435H144.739V226.982C144.739 227.627 145.055 227.943 145.657 227.943H146.747V228.99H145.657C144.309 228.99 143.563 228.273 143.563 226.982V222.435H142.444V221.388H143.563V219.667ZM154.498 228.99H153.38V227.699C152.992 228.689 152.089 229.162 151.085 229.162C149.392 229.162 148.56 227.886 148.56 226.279V221.388H149.737V225.921C149.737 227.341 150.21 228.115 151.329 228.115C152.533 228.115 153.322 227.341 153.322 225.921V221.388H154.498V228.99ZM161.253 223.726C161.081 222.851 160.22 222.335 159.36 222.335C158.499 222.335 157.811 222.779 157.811 223.511C157.825 224.257 158.786 224.572 159.647 224.759C161.382 225.089 162.63 225.576 162.63 227.054C162.63 228.517 161.124 229.162 159.675 229.162C157.882 229.162 156.506 228.172 156.391 226.609L157.624 226.523C157.768 227.441 158.514 228.043 159.675 228.043C160.45 228.043 161.396 227.785 161.396 226.996C161.396 226.078 160.306 225.978 159.431 225.763C158.026 225.433 156.592 225.031 156.592 223.583C156.577 222.134 157.753 221.216 159.489 221.216C161.009 221.216 162.243 222.177 162.487 223.64L161.253 223.726ZM164.628 227.455H166.148V228.99H164.628V227.455ZM164.628 223.913V222.378H166.148V223.913H164.628ZM171.757 222.995C172.761 223.009 173.908 222.536 173.908 221.23C173.908 220.327 173.077 219.753 171.757 219.753C170.696 219.753 169.935 220.284 169.792 221.101L168.544 221.015C168.731 219.595 170.064 218.577 171.757 218.577C173.765 218.577 175.171 219.667 175.171 221.23C175.171 222.364 174.525 223.138 173.292 223.482C174.726 223.898 175.515 224.888 175.515 226.193C175.515 227.972 173.966 229.219 171.757 229.219C169.735 229.219 168.272 228.043 168.171 226.38L169.419 226.293C169.534 227.541 170.724 228.043 171.757 228.043C172.99 228.043 174.267 227.47 174.267 226.093C174.267 224.73 172.99 224.128 171.757 224.156L170.968 224.171V222.98L171.757 222.995ZM181.124 229.219C178.657 229.219 177.094 227.168 177.094 223.913C177.094 220.628 178.657 218.577 181.124 218.577C183.591 218.577 185.154 220.628 185.154 223.913C185.154 227.168 183.591 229.219 181.124 229.219ZM178.356 223.913C178.356 226.552 179.36 228.043 181.124 228.043C182.888 228.043 183.892 226.552 183.892 223.913C183.892 221.259 182.888 219.753 181.124 219.753C179.36 219.753 178.356 221.259 178.356 223.913ZM192.701 218.806V225.72H193.877V226.896H192.701V228.99H191.496V226.896H186.218V225.72L191.424 218.806H192.701ZM187.71 225.72H191.496V220.657L187.71 225.72Z" fill="#171717"/>
<rect x="207.47" y="209.892" width="175.392" height="29.196" rx="4.098" fill="#F2F2F2"/>
<path d="M216.34 225.189C216.34 222.779 217.703 221.216 219.811 221.216C221.504 221.216 222.981 222.349 223.11 225.031L223.124 225.562H217.588C217.703 227.125 218.492 228.043 219.811 228.043C220.643 228.043 221.389 227.556 221.733 226.752L222.995 226.839C222.551 228.273 221.274 229.162 219.811 229.162C217.703 229.162 216.34 227.599 216.34 225.189ZM217.617 224.515H221.834C221.618 222.909 220.758 222.335 219.811 222.335C218.592 222.335 217.803 223.138 217.617 224.515ZM224.953 221.388H226.029L226.072 222.693C226.459 221.675 227.363 221.216 228.41 221.216C230.145 221.216 230.977 222.493 230.977 224.099V228.99H229.801V224.443C229.801 223.038 229.328 222.263 228.166 222.263C226.932 222.263 226.129 223.038 226.129 224.443V228.99H224.953V221.388ZM239.174 221.388L236.391 228.99H234.928L232.145 221.388H233.408L235.659 227.756L237.911 221.388H239.174ZM240.711 221.388H241.887V228.99H240.711V221.388ZM240.682 220.198V218.835H241.916V220.198H240.682ZM244.128 221.388H245.161L245.204 222.794C245.462 221.833 246.036 221.388 247.026 221.388H247.757V222.421H247.026C245.864 222.421 245.305 223.138 245.305 224.458V228.99H244.128V221.388ZM251.999 229.162C249.89 229.162 248.528 227.599 248.528 225.189C248.528 222.779 249.89 221.216 251.999 221.216C254.107 221.216 255.47 222.779 255.47 225.189C255.47 227.599 254.107 229.162 251.999 229.162ZM249.761 225.189C249.761 226.968 250.579 228.043 251.999 228.043C253.404 228.043 254.236 226.968 254.236 225.189C254.236 223.411 253.404 222.335 251.999 222.335C250.579 222.335 249.761 223.411 249.761 225.189ZM257.295 221.388H258.371L258.414 222.693C258.801 221.675 259.705 221.216 260.752 221.216C262.487 221.216 263.319 222.493 263.319 224.099V228.99H262.143V224.443C262.143 223.038 261.67 222.263 260.508 222.263C259.274 222.263 258.471 223.038 258.471 224.443V228.99H257.295V221.388ZM265.391 221.388H266.467L266.51 222.679C266.854 221.747 267.643 221.216 268.704 221.216C269.794 221.216 270.583 221.804 270.913 222.822C271.243 221.79 272.046 221.216 273.236 221.216C274.757 221.216 275.646 222.277 275.646 224.099V228.99H274.47V224.443C274.47 223.052 273.925 222.263 272.993 222.263C271.802 222.263 271.114 223.066 271.114 224.458V228.99H269.938V224.443C269.938 223.081 269.378 222.263 268.46 222.263C267.284 222.263 266.567 223.095 266.567 224.443V228.99H265.391V221.388ZM277.242 225.189C277.242 222.779 278.604 221.216 280.713 221.216C282.405 221.216 283.883 222.349 284.012 225.031L284.026 225.562H278.49C278.604 227.125 279.393 228.043 280.713 228.043C281.545 228.043 282.291 227.556 282.635 226.752L283.897 226.839C283.452 228.273 282.176 229.162 280.713 229.162C278.604 229.162 277.242 227.599 277.242 225.189ZM278.518 224.515H282.735C282.52 222.909 281.66 222.335 280.713 222.335C279.494 222.335 278.705 223.138 278.518 224.515ZM285.855 221.388H286.931L286.974 222.693C287.361 221.675 288.264 221.216 289.312 221.216C291.047 221.216 291.879 222.493 291.879 224.099V228.99H290.703V224.443C290.703 223.038 290.229 222.263 289.068 222.263C287.834 222.263 287.031 223.038 287.031 224.443V228.99H285.855V221.388ZM294.641 219.667H295.817V221.388H297.839V222.435H295.817V226.982C295.817 227.627 296.133 227.943 296.735 227.943H297.825V228.99H296.735C295.387 228.99 294.641 228.273 294.641 226.982V222.435H293.522V221.388H294.641V219.667ZM299.71 227.455H301.23V228.99H299.71V227.455ZM299.71 223.913V222.378H301.23V223.913H299.71ZM303.77 231.141V221.388H304.831L304.874 222.55C305.29 221.689 306.122 221.216 307.226 221.216C309.492 221.216 310.511 223.081 310.511 225.189C310.511 227.298 309.492 229.162 307.226 229.162C306.165 229.162 305.362 228.717 304.946 227.9V231.141H303.77ZM304.817 225.189C304.817 226.638 305.476 228.029 307.025 228.029C308.603 228.029 309.249 226.666 309.249 225.189C309.249 223.712 308.603 222.335 307.025 222.335C305.476 222.335 304.817 223.74 304.817 225.189ZM312.328 221.388H313.36L313.404 222.794C313.662 221.833 314.235 221.388 315.225 221.388H315.957V222.421H315.225C314.063 222.421 313.504 223.138 313.504 224.458V228.99H312.328V221.388ZM320.198 229.162C318.09 229.162 316.727 227.599 316.727 225.189C316.727 222.779 318.09 221.216 320.198 221.216C322.307 221.216 323.669 222.779 323.669 225.189C323.669 227.599 322.307 229.162 320.198 229.162ZM317.961 225.189C317.961 226.968 318.778 228.043 320.198 228.043C321.604 228.043 322.436 226.968 322.436 225.189C322.436 223.411 321.604 222.335 320.198 222.335C318.778 222.335 317.961 223.411 317.961 225.189ZM331.76 218.806V228.99H330.699L330.656 227.871C330.226 228.674 329.408 229.162 328.232 229.162C326.038 229.162 325.019 227.298 325.019 225.189C325.019 223.081 326.038 221.216 328.232 221.216C329.351 221.216 330.154 221.646 330.584 222.421V218.806H331.76ZM326.253 225.189C326.253 226.666 326.884 228.043 328.476 228.043C330.039 228.043 330.685 226.638 330.685 225.189C330.685 223.683 330.039 222.292 328.476 222.292C326.884 222.292 326.253 223.669 326.253 225.189ZM339.879 228.99H338.76V227.699C338.373 228.689 337.469 229.162 336.465 229.162C334.773 229.162 333.941 227.886 333.941 226.279V221.388H335.117V225.921C335.117 227.341 335.59 228.115 336.709 228.115C337.914 228.115 338.703 227.341 338.703 225.921V221.388H339.879V228.99ZM347.164 223.927C346.992 222.923 346.175 222.335 345.242 222.335C343.822 222.335 343.005 223.411 343.005 225.189C343.005 226.968 343.822 228.043 345.242 228.043C346.218 228.043 347.05 227.398 347.222 226.308L348.47 226.38C348.226 228.101 346.863 229.162 345.242 229.162C343.134 229.162 341.771 227.599 341.771 225.189C341.771 222.779 343.134 221.216 345.242 221.216C346.806 221.216 348.197 222.22 348.398 223.841L347.164 223.927ZM350.542 219.667H351.718V221.388H353.741V222.435H351.718V226.982C351.718 227.627 352.034 227.943 352.636 227.943H353.726V228.99H352.636C351.288 228.99 350.542 228.273 350.542 226.982V222.435H349.423V221.388H350.542V219.667ZM355.511 221.388H356.687V228.99H355.511V221.388ZM355.482 220.198V218.835H356.716V220.198H355.482ZM362.051 229.162C359.942 229.162 358.58 227.599 358.58 225.189C358.58 222.779 359.942 221.216 362.051 221.216C364.159 221.216 365.522 222.779 365.522 225.189C365.522 227.599 364.159 229.162 362.051 229.162ZM359.813 225.189C359.813 226.968 360.631 228.043 362.051 228.043C363.456 228.043 364.288 226.968 364.288 225.189C364.288 223.411 363.456 222.335 362.051 222.335C360.631 222.335 359.813 223.411 359.813 225.189ZM367.347 221.388H368.422L368.465 222.693C368.853 221.675 369.756 221.216 370.803 221.216C372.539 221.216 373.371 222.493 373.371 224.099V228.99H372.195V224.443C372.195 223.038 371.721 222.263 370.559 222.263C369.326 222.263 368.523 223.038 368.523 224.443V228.99H367.347V221.388Z" fill="#171717"/>
<line x1="387.472" y1="217.319" x2="387.472" y2="231.662" stroke="#171717" stroke-width="1.0245"/>
<path fill-rule="evenodd" clip-rule="evenodd" d="M573.719 221.929L573.176 222.472L568.234 227.413C567.834 227.814 567.186 227.814 566.785 227.413L561.844 222.472L561.301 221.929L562.387 220.842L562.931 221.385L567.51 225.965L572.089 221.385L572.632 220.842L573.719 221.929Z" fill="#8F8F8F"/>
<rect x="69.9511" y="201.951" width="519.798" height="45.078" rx="8.196" stroke="black" stroke-opacity="0.16" stroke-width="2.049"/>
<g clip-path="url(#clip1_128_13336)">
<path d="M72 265.47C72 258.68 77.5042 253.176 84.294 253.176H575.706C582.496 253.176 588 258.68 588 265.47V444.234C588 451.024 582.496 456.528 575.706 456.528H84.294C77.5042 456.528 72 451.024 72 444.234V265.47Z" fill="white"/>
<rect x="80.1958" y="261.372" width="598.308" height="37.392" rx="4.098" fill="white"/>
<rect x="84.2939" y="265.47" width="53.392" height="29.196" rx="4.098" fill="#FAFAFA"/>
<path d="M93.7089 274.385H95.2006V282.833C95.2006 283.177 95.3583 283.335 95.6882 283.335H96.3193V284.568H95.3727C94.3687 284.568 93.7089 283.923 93.7089 282.904V274.385ZM97.3793 280.767C97.3793 278.343 98.7992 276.794 100.979 276.794C102.758 276.794 104.307 277.97 104.393 280.681L104.407 281.197H98.9426C99.0574 282.617 99.7745 283.449 100.979 283.449C101.74 283.449 102.414 283.019 102.729 282.288L104.293 282.402C103.848 283.837 102.514 284.74 100.979 284.74C98.7992 284.74 97.3793 283.191 97.3793 280.767ZM98.9713 280.05H102.83C102.629 278.587 101.84 278.085 100.979 278.085C99.8606 278.085 99.1578 278.817 98.9713 280.05ZM112.292 276.966L109.509 284.568H107.774L104.991 276.966H106.526L108.649 283.033L110.757 276.966H112.292ZM112.871 280.767C112.871 278.343 114.291 276.794 116.471 276.794C118.249 276.794 119.798 277.97 119.885 280.681L119.899 281.197H114.434C114.549 282.617 115.266 283.449 116.471 283.449C117.231 283.449 117.905 283.019 118.221 282.288L119.784 282.402C119.34 283.837 118.006 284.74 116.471 284.74C114.291 284.74 112.871 283.191 112.871 280.767ZM114.463 280.05H118.321C118.12 278.587 117.331 278.085 116.471 278.085C115.352 278.085 114.649 278.817 114.463 280.05ZM121.765 274.385H123.256V282.833C123.256 283.177 123.414 283.335 123.744 283.335H124.375V284.568H123.428C122.424 284.568 121.765 283.923 121.765 282.904V274.385ZM126.163 282.833H127.928V284.568H126.163V282.833ZM126.163 279.62V277.884H127.928V279.62H126.163Z" fill="#666666"/>
<rect x="80.1958" y="298.764" width="598.308" height="37.392" rx="4.098" fill="white"/>
<rect x="84.2939" y="302.862" width="52.392" height="29.196" rx="4.098" fill="#FAFAFA"/>
<path d="M94.4261 312.637H95.9177V314.358H97.9401V315.592H95.9177V319.794C95.9177 320.411 96.2189 320.727 96.807 320.727H97.9257V321.96H96.6779C95.2149 321.96 94.4261 321.2 94.4261 319.794V315.592H93.2786V314.358H94.4261V312.637ZM98.7722 314.358H100.293L102.458 320.382L104.552 314.358H106.058L103.018 322.849C102.702 323.724 102.128 324.111 101.196 324.111H100.163V322.892H100.995C101.383 322.892 101.612 322.749 101.741 322.39L101.999 321.745H101.526L98.7722 314.358ZM107.518 324.111V314.358H108.909L108.952 315.463C109.368 314.645 110.157 314.186 111.261 314.186C113.499 314.186 114.532 316.036 114.532 318.159C114.532 320.282 113.499 322.132 111.261 322.132C110.214 322.132 109.44 321.716 109.01 320.927V324.111H107.518ZM108.866 318.159C108.866 319.522 109.483 320.827 110.917 320.827C112.366 320.827 112.954 319.536 112.954 318.159C112.954 316.797 112.366 315.491 110.917 315.491C109.469 315.491 108.866 316.797 108.866 318.159ZM115.826 318.159C115.826 315.735 117.246 314.186 119.426 314.186C121.205 314.186 122.754 315.362 122.84 318.073L122.854 318.589H117.39C117.504 320.009 118.222 320.841 119.426 320.841C120.187 320.841 120.861 320.411 121.176 319.679L122.74 319.794C122.295 321.229 120.961 322.132 119.426 322.132C117.246 322.132 115.826 320.583 115.826 318.159ZM117.418 317.442H121.277C121.076 315.979 120.287 315.477 119.426 315.477C118.308 315.477 117.605 316.208 117.418 317.442ZM124.749 320.225H126.513V321.96H124.749V320.225ZM124.749 317.012V315.276H126.513V317.012H124.749Z" fill="#666666"/>
<rect x="80.1958" y="336.156" width="499.608" height="37.392" rx="4.098" fill="#F2F2F2"/>
<rect x="84.8062" y="340.766" width="77.3675" height="28.1715" rx="3.58575" fill="#E6E6E6"/>
<rect x="84.8062" y="340.766" width="77.3675" height="28.1715" rx="3.58575" stroke="#EAEAEA" stroke-width="1.0245"/>
<path d="M94.3974 351.392C94.3974 350.015 95.0858 349.168 96.6205 349.168H97.8971V350.402H96.7209C96.2333 350.402 95.889 350.775 95.889 351.392V351.836H97.7967V353.07H95.889V359.352H94.3974V353.07H93.3503V351.836H94.3974V351.392ZM105.9 359.352H104.495L104.48 358.104C104.079 359.094 103.218 359.524 102.229 359.524C100.55 359.524 99.6898 358.291 99.6898 356.641V351.75H101.181V356.182C101.181 357.53 101.583 358.262 102.616 358.262C103.692 358.262 104.409 357.53 104.409 356.182V351.75H105.9V359.352ZM108.19 351.75H109.539L109.582 353.041C109.983 352.023 110.858 351.578 111.905 351.578C113.612 351.578 114.473 352.812 114.473 354.461V359.352H112.981V354.906C112.981 353.572 112.579 352.84 111.518 352.84C110.385 352.84 109.682 353.572 109.682 354.906V359.352H108.19V351.75ZM121.359 354.404C121.215 353.443 120.455 352.883 119.594 352.883C118.289 352.883 117.543 353.887 117.543 355.551C117.543 357.215 118.289 358.219 119.594 358.219C120.498 358.219 121.258 357.631 121.416 356.569L122.979 356.656C122.736 358.434 121.316 359.524 119.594 359.524C117.414 359.524 115.994 357.975 115.994 355.551C115.994 353.127 117.414 351.578 119.594 351.578C121.258 351.578 122.707 352.611 122.908 354.318L121.359 354.404ZM125.003 350.029H126.495V351.75H128.517V352.984H126.495V357.186C126.495 357.803 126.796 358.119 127.384 358.119H128.503V359.352H127.255C125.792 359.352 125.003 358.592 125.003 357.186V352.984H123.856V351.75H125.003V350.029ZM130.181 351.75H131.673V359.352H130.181V351.75ZM130.167 350.617V349.168H131.716V350.617H130.167ZM137.061 359.524C134.881 359.524 133.461 357.975 133.461 355.551C133.461 353.127 134.881 351.578 137.061 351.578C139.241 351.578 140.661 353.127 140.661 355.551C140.661 357.975 139.241 359.524 137.061 359.524ZM135.01 355.551C135.01 357.215 135.756 358.219 137.061 358.219C138.366 358.219 139.112 357.215 139.112 355.551C139.112 353.887 138.366 352.883 137.061 352.883C135.756 352.883 135.01 353.887 135.01 355.551ZM142.367 351.75H143.715L143.758 353.041C144.16 352.023 145.035 351.578 146.082 351.578C147.789 351.578 148.649 352.812 148.649 354.461V359.352H147.158V354.906C147.158 353.572 146.756 352.84 145.695 352.84C144.561 352.84 143.859 353.572 143.859 354.906V359.352H142.367V351.75ZM150.97 357.617H152.734V359.352H150.97V357.617ZM150.97 354.404V352.668H152.734V354.404H150.97Z" fill="#171717"/>
<path d="M167.458 348.595H170.857V349.685H168.591V359.84H170.857V360.93H167.458V348.595ZM172.751 351.75H173.927V359.352H172.751V351.75ZM172.722 350.56V349.197H173.956V350.56H172.722ZM176.169 351.75H177.245L177.288 353.055C177.675 352.037 178.578 351.578 179.625 351.578C181.361 351.578 182.193 352.855 182.193 354.461V359.352H181.017V354.805C181.017 353.4 180.543 352.625 179.382 352.625C178.148 352.625 177.345 353.4 177.345 354.805V359.352H176.169V351.75ZM185.081 351.234C185.081 349.986 185.726 349.168 187.117 349.168H188.265V350.201H187.103C186.601 350.201 186.257 350.603 186.257 351.234V351.75H188.179V352.797H186.257V359.352H185.081V352.797H184.048V351.75H185.081V351.234ZM192.583 359.524C190.475 359.524 189.112 357.961 189.112 355.551C189.112 353.141 190.475 351.578 192.583 351.578C194.692 351.578 196.054 353.141 196.054 355.551C196.054 357.961 194.692 359.524 192.583 359.524ZM190.346 355.551C190.346 357.33 191.163 358.405 192.583 358.405C193.989 358.405 194.821 357.33 194.821 355.551C194.821 353.773 193.989 352.697 192.583 352.697C191.163 352.697 190.346 353.773 190.346 355.551ZM200.804 348.595V360.93H197.404V359.84H199.671V349.685H197.404V348.595H200.804ZM205.739 348.595H209.138V349.685H206.872V359.84H209.138V360.93H205.739V348.595ZM216.296 351.75L218.117 358.047L219.953 351.75H221.215L218.863 359.352H217.386L215.679 353.529L213.958 359.352H212.48L210.128 351.75H211.39L213.226 358.047L215.048 351.75H216.296ZM222.059 353.988C222.361 352.51 223.537 351.578 225.158 351.578C227.123 351.578 228.213 352.726 228.213 354.762V357.817C228.213 358.162 228.356 358.305 228.686 358.305H228.987V359.352H228.485C227.711 359.352 227.037 359.094 227.051 358.162C226.721 358.879 225.86 359.524 224.656 359.524C223.15 359.524 221.93 358.721 221.93 357.373C221.93 355.809 223.121 355.408 224.785 355.078L227.037 354.648C227.022 353.328 226.405 352.697 225.158 352.697C224.182 352.697 223.537 353.199 223.307 354.088L222.059 353.988ZM223.164 357.373C223.164 357.989 223.695 358.491 224.813 358.477C226.076 358.477 227.065 357.588 227.065 355.824V355.695L225.244 356.01C224.111 356.211 223.164 356.297 223.164 357.373ZM230.599 351.75H231.632L231.675 353.156C231.933 352.195 232.507 351.75 233.497 351.75H234.228V352.783H233.497C232.335 352.783 231.776 353.5 231.776 354.82V359.352H230.599V351.75ZM235.698 351.75H236.774L236.817 353.055C237.204 352.037 238.108 351.578 239.155 351.578C240.89 351.578 241.722 352.855 241.722 354.461V359.352H240.546V354.805C240.546 353.4 240.073 352.625 238.911 352.625C237.677 352.625 236.874 353.4 236.874 354.805V359.352H235.698V351.75ZM243.794 351.75H244.97V359.352H243.794V351.75ZM243.765 350.56V349.197H244.999V350.56H243.765ZM247.212 351.75H248.287L248.33 353.055C248.718 352.037 249.621 351.578 250.668 351.578C252.404 351.578 253.236 352.855 253.236 354.461V359.352H252.059V354.805C252.059 353.4 251.586 352.625 250.424 352.625C249.191 352.625 248.388 353.4 248.388 354.805V359.352H247.212V351.75ZM258.246 358.95C256.166 358.95 254.832 357.401 254.832 355.264C254.832 353.127 256.195 351.578 258.246 351.578C259.264 351.578 260.096 352.152 260.426 352.969V351.75H261.559V358.606C261.559 360.6 260.197 361.676 258.217 361.676C256.597 361.676 255.378 360.786 255.048 359.467L256.281 359.381C256.582 360.112 257.242 360.557 258.217 360.557C259.566 360.557 260.383 359.954 260.383 358.864V357.602C259.924 358.506 259.064 358.95 258.246 358.95ZM256.066 355.264C256.066 356.756 256.884 357.832 258.246 357.832C259.551 357.832 260.383 356.742 260.398 355.264C260.426 353.787 259.594 352.697 258.246 352.697C256.884 352.697 256.066 353.773 256.066 355.264ZM266.846 348.595V360.93H263.447V359.84H265.713V349.685H263.447V348.595H266.846ZM271.781 348.595H275.18V349.685H272.914V359.84H275.18V360.93H271.781V348.595ZM276.529 355.551C276.529 353.141 277.892 351.578 280 351.578C281.693 351.578 283.17 352.711 283.299 355.393L283.313 355.924H277.777C277.892 357.487 278.681 358.405 280 358.405C280.832 358.405 281.578 357.918 281.922 357.115L283.184 357.201C282.74 358.635 281.463 359.524 280 359.524C277.892 359.524 276.529 357.961 276.529 355.551ZM277.806 354.877H282.022C281.807 353.271 280.947 352.697 280 352.697C278.781 352.697 277.992 353.5 277.806 354.877ZM285.142 351.75H286.175L286.218 353.156C286.476 352.195 287.05 351.75 288.039 351.75H288.771V352.783H288.039C286.878 352.783 286.318 353.5 286.318 354.82V359.352H285.142V351.75ZM290.241 351.75H291.273L291.316 353.156C291.574 352.195 292.148 351.75 293.138 351.75H293.869V352.783H293.138C291.976 352.783 291.417 353.5 291.417 354.82V359.352H290.241V351.75ZM298.111 359.524C296.002 359.524 294.64 357.961 294.64 355.551C294.64 353.141 296.002 351.578 298.111 351.578C300.219 351.578 301.582 353.141 301.582 355.551C301.582 357.961 300.219 359.524 298.111 359.524ZM295.873 355.551C295.873 357.33 296.691 358.405 298.111 358.405C299.517 358.405 300.348 357.33 300.348 355.551C300.348 353.773 299.517 352.697 298.111 352.697C296.691 352.697 295.873 353.773 295.873 355.551ZM303.407 351.75H304.44L304.483 353.156C304.741 352.195 305.315 351.75 306.304 351.75H307.036V352.783H306.304C305.142 352.783 304.583 353.5 304.583 354.82V359.352H303.407V351.75ZM311.78 348.595V360.93H308.381V359.84H310.647V349.685H308.381V348.595H311.78Z" fill="#666666"/>
<rect x="80.1958" y="373.548" width="598.308" height="37.392" rx="4.098" fill="white"/>
<rect x="84.2939" y="377.646" width="104.392" height="29.196" rx="4.098" fill="#FAFAFA"/>
<path d="M93.6372 389.142H94.9998L95.0428 390.577C95.2866 389.601 95.8604 389.142 96.85 389.142H97.5815V390.376H96.8357C95.6595 390.376 95.1289 391.021 95.1289 392.298V396.744H93.6372V389.142ZM98.3037 392.943C98.3037 390.519 99.7237 388.97 101.904 388.97C103.682 388.97 105.231 390.146 105.317 392.857L105.332 393.373H99.8671C99.9818 394.793 100.699 395.625 101.904 395.625C102.664 395.625 103.338 395.195 103.654 394.463L105.217 394.578C104.772 396.013 103.438 396.916 101.904 396.916C99.7237 396.916 98.3037 395.367 98.3037 392.943ZM99.8958 392.226H103.754C103.553 390.763 102.764 390.261 101.904 390.261C100.785 390.261 100.082 390.992 99.8958 392.226ZM113.637 398.895H112.146V395.711C111.716 396.5 110.941 396.916 109.894 396.916C107.656 396.916 106.624 395.066 106.624 392.943C106.624 390.82 107.656 388.97 109.894 388.97C110.998 388.97 111.787 389.429 112.203 390.247L112.246 389.142H113.637V398.895ZM108.201 392.943C108.201 394.32 108.79 395.611 110.238 395.611C111.673 395.611 112.289 394.306 112.289 392.943C112.289 391.581 111.687 390.275 110.238 390.275C108.79 390.275 108.201 391.581 108.201 392.943ZM121.952 396.744H120.547L120.532 395.496C120.131 396.486 119.27 396.916 118.28 396.916C116.602 396.916 115.742 395.683 115.742 394.033V389.142H117.233V393.574C117.233 394.922 117.635 395.654 118.668 395.654C119.743 395.654 120.461 394.922 120.461 393.574V389.142H121.952V396.744ZM123.74 392.943C123.74 390.519 125.16 388.97 127.34 388.97C129.119 388.97 130.668 390.146 130.754 392.857L130.768 393.373H125.304C125.418 394.793 126.135 395.625 127.34 395.625C128.1 395.625 128.775 395.195 129.09 394.463L130.653 394.578C130.209 396.013 128.875 396.916 127.34 396.916C125.16 396.916 123.74 395.367 123.74 392.943ZM125.332 392.226H129.19C128.99 390.763 128.201 390.261 127.34 390.261C126.221 390.261 125.519 390.992 125.332 392.226ZM136.908 391.523C136.75 390.72 135.976 390.232 135.187 390.232C134.412 390.232 133.781 390.634 133.796 391.308C133.796 391.996 134.699 392.283 135.474 392.427C137.338 392.771 138.572 393.273 138.572 394.765C138.572 396.256 137.052 396.916 135.488 396.916C133.566 396.916 132.175 395.926 132.06 394.349L133.595 394.248C133.738 395.109 134.412 395.64 135.474 395.64C136.148 395.64 137.023 395.41 137.023 394.707C137.009 393.875 136.048 393.775 135.216 393.589C133.638 393.244 132.247 392.828 132.247 391.365C132.247 389.888 133.437 388.97 135.316 388.97C136.937 388.97 138.199 389.931 138.443 391.437L136.908 391.523ZM140.733 387.421H142.224V389.142H144.247V390.376H142.224V394.578C142.224 395.195 142.526 395.511 143.114 395.511H144.232V396.744H142.985C141.522 396.744 140.733 395.984 140.733 394.578V390.376H139.585V389.142H140.733V387.421ZM149.783 386.56C152.107 386.56 153.484 387.737 153.484 389.716C153.484 391.71 152.107 392.914 149.783 392.914H147.531V396.744H146.011V386.56H149.783ZM147.531 391.509H149.755C151.175 391.509 151.906 390.906 151.906 389.716C151.906 388.554 151.175 387.966 149.755 387.966H147.531V391.509ZM154.642 391.408C154.943 389.888 156.148 388.97 157.869 388.97C159.935 388.97 161.054 390.118 161.054 392.183V395.052C161.054 395.41 161.211 395.539 161.513 395.539H161.828V396.744H161.326C160.638 396.758 159.734 396.615 159.677 395.582C159.347 396.299 158.501 396.916 157.253 396.916C155.732 396.916 154.513 396.113 154.513 394.75C154.513 393.216 155.646 392.785 157.382 392.455L159.562 392.025C159.548 390.806 158.988 390.218 157.869 390.218C156.98 390.218 156.392 390.663 156.177 391.509L154.642 391.408ZM156.062 394.722C156.062 395.281 156.536 395.74 157.54 395.74C158.701 395.74 159.591 394.922 159.591 393.259V393.187L157.955 393.474C156.894 393.66 156.062 393.746 156.062 394.722ZM163.55 387.421H165.041V389.142H167.064V390.376H165.041V394.578C165.041 395.195 165.343 395.511 165.931 395.511H167.049V396.744H165.802C164.339 396.744 163.55 395.984 163.55 394.578V390.376H162.402V389.142H163.55V387.421ZM168.728 386.56H170.22V390.161C170.664 389.329 171.525 388.97 172.457 388.97C174.164 388.97 175.01 390.232 175.01 391.853V396.744H173.518V392.369C173.518 391.036 173.117 390.304 172.055 390.304C170.922 390.304 170.22 391.036 170.22 392.369V396.744H168.728V386.56ZM177.33 395.009H179.095V396.744H177.33V395.009ZM177.33 391.796V390.06H179.095V391.796H177.33Z" fill="#666666"/>
<rect x="80.1958" y="410.94" width="598.308" height="37.392" rx="4.098" fill="white"/>
<rect x="84.2939" y="415.038" width="51.392" height="29.196" rx="4.098" fill="#FAFAFA"/>
<path d="M93.6372 423.952H95.1289V427.553C95.5735 426.721 96.4341 426.362 97.3664 426.362C99.0732 426.362 99.9194 427.624 99.9194 429.245V434.136H98.4277V429.761C98.4277 428.428 98.0261 427.696 96.9648 427.696C95.8317 427.696 95.1289 428.428 95.1289 429.761V434.136H93.6372V423.952ZM105.041 434.308C102.861 434.308 101.441 432.759 101.441 430.335C101.441 427.911 102.861 426.362 105.041 426.362C107.221 426.362 108.641 427.911 108.641 430.335C108.641 432.759 107.221 434.308 105.041 434.308ZM102.99 430.335C102.99 431.999 103.736 433.003 105.041 433.003C106.347 433.003 107.092 431.999 107.092 430.335C107.092 428.671 106.347 427.667 105.041 427.667C103.736 427.667 102.99 428.671 102.99 430.335ZM114.777 428.915C114.62 428.112 113.845 427.624 113.056 427.624C112.282 427.624 111.651 428.026 111.665 428.7C111.665 429.388 112.568 429.675 113.343 429.819C115.208 430.163 116.441 430.665 116.441 432.157C116.441 433.648 114.921 434.308 113.357 434.308C111.435 434.308 110.044 433.318 109.929 431.741L111.464 431.64C111.608 432.501 112.282 433.032 113.343 433.032C114.017 433.032 114.892 432.802 114.892 432.099C114.878 431.267 113.917 431.167 113.085 430.981C111.507 430.636 110.116 430.22 110.116 428.757C110.116 427.28 111.306 426.362 113.185 426.362C114.806 426.362 116.068 427.323 116.312 428.829L114.777 428.915ZM118.602 424.813H120.094V426.534H122.116V427.768H120.094V431.97C120.094 432.587 120.395 432.903 120.983 432.903H122.102V434.136H120.854C119.391 434.136 118.602 433.376 118.602 431.97V427.768H117.454V426.534H118.602V424.813ZM123.88 432.401H125.644V434.136H123.88V432.401ZM123.88 429.188V427.452H125.644V429.188H123.88Z" fill="#666666"/>
</g>
<path d="M575.706 252.664H84.294C77.2213 252.664 71.4877 258.397 71.4877 265.47V444.234C71.4877 451.307 77.2213 457.04 84.294 457.04H575.706C582.779 457.04 588.512 451.307 588.512 444.234V265.47C588.512 258.397 582.779 252.664 575.706 252.664Z" stroke="black" stroke-opacity="0.08" stroke-width="1.0245"/>
<defs>
<filter id="filter0_ddd_128_13336" x="55.608" y="253.18" width="548.784" height="236.136" filterUnits="userSpaceOnUse" color-interpolation-filters="sRGB">
<feFlood flood-opacity="0" result="BackgroundImageFix"/>
<feColorMatrix in="SourceAlpha" type="matrix" values="0 0 0 0 0 0 0 0 0 0 0 0 0 0 0 0 0 0 127 0" result="hardAlpha"/>
<feMorphology radius="8.196" operator="erode" in="SourceAlpha" result="effect1_dropShadow_128_13336"/>
<feOffset dy="16.392"/>
<feGaussianBlur stdDeviation="12.294"/>
<feComposite in2="hardAlpha" operator="out"/>
<feColorMatrix type="matrix" values="0 0 0 0 0 0 0 0 0 0 0 0 0 0 0 0 0 0 0.06 0"/>
<feBlend mode="normal" in2="BackgroundImageFix" result="effect1_dropShadow_128_13336"/>
<feColorMatrix in="SourceAlpha" type="matrix" values="0 0 0 0 0 0 0 0 0 0 0 0 0 0 0 0 0 0 127 0" result="hardAlpha"/>
<feMorphology radius="4.098" operator="erode" in="SourceAlpha" result="effect2_dropShadow_128_13336"/>
<feOffset dy="4.098"/>
<feGaussianBlur stdDeviation="4.098"/>
<feColorMatrix type="matrix" values="0 0 0 0 0 0 0 0 0 0 0 0 0 0 0 0 0 0 0.04 0"/>
<feBlend mode="normal" in2="effect1_dropShadow_128_13336" result="effect2_dropShadow_128_13336"/>
<feColorMatrix in="SourceAlpha" type="matrix" values="0 0 0 0 0 0 0 0 0 0 0 0 0 0 0 0 0 0 127 0" result="hardAlpha"/>
<feOffset dy="1.0245"/>
<feGaussianBlur stdDeviation="0.51225"/>
<feColorMatrix type="matrix" values="0 0 0 0 0 0 0 0 0 0 0 0 0 0 0 0 0 0 0.02 0"/>
<feBlend mode="normal" in2="effect2_dropShadow_128_13336" result="effect3_dropShadow_128_13336"/>
<feBlend mode="normal" in="SourceGraphic" in2="effect3_dropShadow_128_13336" result="shape"/>
</filter>
<clipPath id="clip0_128_13336">
<rect width="16.392" height="16.392" fill="white" transform="translate(84.2939 216.294)"/>
</clipPath>
<clipPath id="clip1_128_13336">
<path d="M72 265.47C72 258.68 77.5042 253.176 84.294 253.176H575.706C582.496 253.176 588 258.68 588 265.47V444.234C588 451.024 582.496 456.528 575.706 456.528H84.294C77.5042 456.528 72 451.024 72 444.234V265.47Z" fill="white"/>
</clipPath>
</defs>
</svg>
