<svg width="660" height="660" viewBox="0 0 660 660" fill="none" xmlns="http://www.w3.org/2000/svg">
<rect width="660" height="660" fill="#FAFAFA"/>
<g filter="url(#filter0_ddd_179_34691)">
<rect x="150" y="124.8" width="360" height="410.4" rx="10.8" fill="white"/>
</g>
<g clip-path="url(#clip0_179_34691)">
<rect x="150" y="124.8" width="360" height="410.4" rx="10.8" fill="white"/>
<g clip-path="url(#clip1_179_34691)">
<mask id="path-4-inside-1_179_34691" fill="white">
<path d="M150 124.8H510V168H150V124.8Z"/>
</mask>
<path d="M150 124.8H510V168H150V124.8Z" fill="white"/>
<path d="M169.577 141.454H170.635V150.4H169.577V141.454ZM172.7 143.722H173.645L173.683 144.869C174.023 143.974 174.817 143.571 175.737 143.571C177.261 143.571 177.992 144.692 177.992 146.104V150.4H176.959V146.406C176.959 145.171 176.543 144.491 175.523 144.491C174.439 144.491 173.733 145.171 173.733 146.406V150.4H172.7V143.722ZM180.059 141.454H181.092V144.629C181.47 143.949 182.175 143.571 183.158 143.571C185.086 143.571 185.981 145.209 185.981 147.061C185.981 148.913 185.086 150.551 183.158 150.551C182.125 150.551 181.407 150.123 181.029 149.417L180.991 150.4H180.059V141.454ZM181.004 147.061C181.004 148.334 181.571 149.569 182.944 149.569C184.343 149.569 184.897 148.359 184.897 147.061C184.897 145.726 184.343 144.516 182.944 144.516C181.571 144.516 181.004 145.738 181.004 147.061ZM190.209 150.551C188.356 150.551 187.159 149.178 187.159 147.061C187.159 144.944 188.356 143.571 190.209 143.571C192.061 143.571 193.258 144.944 193.258 147.061C193.258 149.178 192.061 150.551 190.209 150.551ZM188.243 147.061C188.243 148.624 188.961 149.569 190.209 149.569C191.443 149.569 192.174 148.624 192.174 147.061C192.174 145.499 191.443 144.554 190.209 144.554C188.961 144.554 188.243 145.499 188.243 147.061ZM198.592 143.722H199.864L197.558 146.986L199.978 150.4H198.718L196.903 147.779L195.076 150.4H193.816L196.261 146.973L193.942 143.722H195.202L196.903 146.192L198.592 143.722Z" fill="#171717"/>
<g clip-path="url(#clip2_179_34691)">
<rect x="166.2" y="166.2" width="36.6" height="1.8" fill="#171717"/>
</g>
<path d="M223.122 150.4L226.36 141.454H227.772L231.01 150.4H229.851L228.956 147.842H225.176L224.281 150.4H223.122ZM225.541 146.809H228.591L227.066 142.387L225.541 146.809ZM232.345 143.722H233.252L233.29 144.957C233.517 144.113 234.021 143.722 234.89 143.722H235.533V144.629H234.89C233.87 144.629 233.378 145.259 233.378 146.419V150.4H232.345V143.722ZM240.947 145.952C240.796 145.07 240.078 144.554 239.259 144.554C238.012 144.554 237.293 145.499 237.293 147.061C237.293 148.624 238.012 149.569 239.259 149.569C240.116 149.569 240.847 149.002 240.998 148.044L242.094 148.107C241.88 149.619 240.683 150.551 239.259 150.551C237.407 150.551 236.21 149.178 236.21 147.061C236.21 144.944 237.407 143.571 239.259 143.571C240.632 143.571 241.855 144.453 242.031 145.877L240.947 145.952ZM243.567 141.454H244.6V144.655C244.991 143.911 245.772 143.571 246.603 143.571C248.128 143.571 248.859 144.692 248.859 146.104V150.4H247.826V146.482C247.826 145.234 247.41 144.554 246.389 144.554C245.306 144.554 244.6 145.234 244.6 146.482V150.4H243.567V141.454ZM250.679 143.722H251.712V150.4H250.679V143.722ZM250.654 142.676V141.479H251.737V142.676H250.654ZM259.234 143.722L256.789 150.4H255.504L253.06 143.722H254.169L256.147 149.317L258.125 143.722H259.234ZM259.786 147.061C259.786 144.944 260.983 143.571 262.835 143.571C264.322 143.571 265.619 144.566 265.733 146.923L265.745 147.389H260.882C260.983 148.762 261.676 149.569 262.835 149.569C263.566 149.569 264.221 149.14 264.523 148.435L265.632 148.51C265.241 149.77 264.12 150.551 262.835 150.551C260.983 150.551 259.786 149.178 259.786 147.061ZM260.907 146.469H264.611C264.422 145.058 263.666 144.554 262.835 144.554C261.764 144.554 261.071 145.259 260.907 146.469Z" fill="#666666"/>
<g clip-path="url(#clip3_179_34691)">
<path fill-rule="evenodd" clip-rule="evenodd" d="M488.131 140.763L488.17 140.55H488.63L488.669 140.763C488.797 141.44 489.285 141.943 489.87 142.145C490.041 142.204 490.207 142.273 490.368 142.352C490.925 142.623 491.626 142.613 492.195 142.223L492.374 142.101L492.699 142.426L492.577 142.605C492.187 143.174 492.177 143.875 492.448 144.432C492.527 144.593 492.596 144.759 492.655 144.93C492.857 145.515 493.36 146.003 494.037 146.13L494.25 146.17V146.63L494.037 146.669C493.36 146.797 492.857 147.285 492.655 147.87C492.596 148.041 492.527 148.207 492.448 148.368C492.177 148.924 492.187 149.626 492.577 150.195L492.699 150.374L492.374 150.699L492.195 150.577C491.626 150.187 490.925 150.177 490.368 150.448C490.207 150.527 490.041 150.596 489.87 150.655C489.285 150.857 488.797 151.36 488.669 152.037L488.63 152.25H488.17L488.131 152.037C488.003 151.36 487.515 150.857 486.93 150.655C486.759 150.596 486.593 150.527 486.432 150.448C485.875 150.177 485.174 150.187 484.605 150.577L484.426 150.699L484.101 150.374L484.223 150.195C484.613 149.626 484.623 148.924 484.352 148.368C484.273 148.207 484.204 148.041 484.145 147.87C483.943 147.285 483.44 146.797 482.763 146.669L482.55 146.63V146.17L482.763 146.13C483.44 146.003 483.943 145.515 484.145 144.93C484.204 144.759 484.273 144.593 484.352 144.432C484.623 143.875 484.613 143.174 484.223 142.604L484.101 142.426L484.426 142.101L484.605 142.223C485.174 142.613 485.875 142.623 486.432 142.352C486.593 142.273 486.759 142.204 486.93 142.145C487.515 141.943 488.003 141.44 488.131 140.763ZM487.05 139.2H489.75L489.996 140.514C490.028 140.68 490.15 140.814 490.31 140.869C490.533 140.946 490.75 141.036 490.96 141.138C491.112 141.213 491.293 141.205 491.433 141.109L492.537 140.354L494.446 142.263L493.691 143.367C493.595 143.507 493.587 143.688 493.662 143.84C493.764 144.05 493.854 144.267 493.931 144.49C493.986 144.65 494.12 144.772 494.286 144.804L495.6 145.05V147.75L494.286 147.996C494.12 148.028 493.986 148.15 493.931 148.31C493.854 148.533 493.764 148.75 493.662 148.96C493.587 149.112 493.595 149.293 493.691 149.433L494.446 150.537L492.537 152.446L491.433 151.691C491.293 151.595 491.112 151.587 490.96 151.662C490.75 151.764 490.533 151.854 490.31 151.931C490.15 151.986 490.028 152.12 489.996 152.286L489.75 153.6H487.05L486.804 152.286C486.772 152.12 486.65 151.986 486.49 151.931C486.267 151.854 486.05 151.764 485.84 151.662C485.688 151.587 485.507 151.595 485.367 151.691L484.263 152.446L482.354 150.537L483.109 149.433C483.205 149.293 483.213 149.112 483.138 148.96C483.036 148.75 482.946 148.533 482.869 148.31C482.814 148.15 482.68 148.027 482.514 147.996L481.2 147.75V145.05L482.514 144.804C482.68 144.772 482.814 144.65 482.869 144.49C482.946 144.267 483.036 144.05 483.138 143.84C483.213 143.688 483.205 143.507 483.109 143.367L482.354 142.263L484.263 140.354L485.367 141.109C485.507 141.205 485.688 141.213 485.84 141.138C486.05 141.036 486.267 140.946 486.49 140.869C486.65 140.814 486.772 140.68 486.804 140.514L487.05 139.2ZM489.75 146.4C489.75 147.146 489.146 147.75 488.4 147.75C487.654 147.75 487.05 147.146 487.05 146.4C487.05 145.654 487.654 145.05 488.4 145.05C489.146 145.05 489.75 145.654 489.75 146.4ZM491.1 146.4C491.1 147.891 489.891 149.1 488.4 149.1C486.909 149.1 485.7 147.891 485.7 146.4C485.7 144.909 486.909 143.7 488.4 143.7C489.891 143.7 491.1 144.909 491.1 146.4Z" fill="#666666"/>
</g>
</g>
<path d="M510 167.1H150V168.9H510V167.1Z" fill="black" fill-opacity="0.08" mask="url(#path-4-inside-1_179_34691)"/>
<mask id="path-13-inside-2_179_34691" fill="white">
<path d="M150 168H510V233.4H150V168Z"/>
</mask>
<path d="M150 168H510V233.4H150V168Z" fill="white"/>
<path d="M510 232.5H150V234.3H510V232.5Z" fill="black" fill-opacity="0.08" mask="url(#path-13-inside-2_179_34691)"/>
<rect x="168" y="186.3" width="28.8" height="28.8" rx="14.4" fill="#DCF6DC"/>
<g clip-path="url(#clip4_179_34691)">
<path fill-rule="evenodd" clip-rule="evenodd" d="M187.85 200.3C187.85 203.531 185.231 206.15 182 206.15C178.769 206.15 176.15 203.531 176.15 200.3C176.15 197.069 178.769 194.45 182 194.45C185.231 194.45 187.85 197.069 187.85 200.3ZM189.2 200.3C189.2 204.277 185.976 207.5 182 207.5C178.024 207.5 174.8 204.277 174.8 200.3C174.8 196.324 178.024 193.1 182 193.1C185.976 193.1 189.2 196.324 189.2 200.3ZM185.177 198.977L185.655 198.5L184.7 197.546L184.223 198.023L180.65 201.596L179.777 200.723L179.3 200.246L178.345 201.2L178.823 201.677L180.173 203.027C180.436 203.291 180.864 203.291 181.127 203.027L185.177 198.977Z" fill="#297C3B"/>
</g>
<path d="M215.56 186.454C217.55 186.454 218.722 187.462 218.722 189.15C218.722 190.877 217.55 191.91 215.56 191.91H213.418V195.4H212.359V186.454H215.56ZM213.418 190.877H215.56C216.933 190.877 217.613 190.297 217.613 189.15C217.613 188.042 216.933 187.487 215.56 187.487H213.418V190.877ZM219.793 190.688C220.058 189.39 221.091 188.571 222.515 188.571C224.241 188.571 225.198 189.579 225.198 191.368V194.052C225.198 194.354 225.324 194.48 225.614 194.48H225.879V195.4H225.438C224.757 195.4 224.165 195.173 224.178 194.354C223.888 194.984 223.132 195.551 222.074 195.551C220.751 195.551 219.68 194.846 219.68 193.661C219.68 192.288 220.725 191.935 222.187 191.645L224.165 191.267C224.153 190.108 223.611 189.554 222.515 189.554C221.658 189.554 221.091 189.995 220.889 190.776L219.793 190.688ZM220.763 193.661C220.763 194.203 221.229 194.644 222.212 194.631C223.321 194.631 224.19 193.85 224.19 192.3V192.187L222.59 192.464C221.595 192.641 220.763 192.716 220.763 193.661ZM231.063 190.776C230.912 190.007 230.156 189.554 229.4 189.554C228.644 189.554 228.039 189.944 228.039 190.587C228.052 191.242 228.896 191.519 229.652 191.683C231.176 191.973 232.273 192.401 232.273 193.699C232.273 194.984 230.95 195.551 229.677 195.551C228.102 195.551 226.892 194.682 226.792 193.308L227.875 193.233C228.001 194.039 228.656 194.568 229.677 194.568C230.357 194.568 231.189 194.342 231.189 193.649C231.189 192.842 230.231 192.754 229.463 192.565C228.228 192.275 226.968 191.922 226.968 190.65C226.955 189.377 227.989 188.571 229.513 188.571C230.849 188.571 231.932 189.415 232.147 190.7L231.063 190.776ZM237.732 190.776C237.581 190.007 236.825 189.554 236.069 189.554C235.313 189.554 234.708 189.944 234.708 190.587C234.721 191.242 235.565 191.519 236.321 191.683C237.846 191.973 238.942 192.401 238.942 193.699C238.942 194.984 237.619 195.551 236.346 195.551C234.771 195.551 233.562 194.682 233.461 193.308L234.544 193.233C234.67 194.039 235.326 194.568 236.346 194.568C237.027 194.568 237.858 194.342 237.858 193.649C237.858 192.842 236.901 192.754 236.132 192.565C234.897 192.275 233.637 191.922 233.637 190.65C233.625 189.377 234.658 188.571 236.182 188.571C237.518 188.571 238.602 189.415 238.816 190.7L237.732 190.776ZM244.913 188.722L246.513 194.253L248.126 188.722H249.235L247.168 195.4H245.871L244.371 190.284L242.859 195.4H241.561L239.495 188.722H240.604L242.217 194.253L243.817 188.722H244.913ZM252.838 195.551C250.986 195.551 249.789 194.178 249.789 192.061C249.789 189.944 250.986 188.571 252.838 188.571C254.69 188.571 255.887 189.944 255.887 192.061C255.887 194.178 254.69 195.551 252.838 195.551ZM250.873 192.061C250.873 193.623 251.591 194.568 252.838 194.568C254.073 194.568 254.804 193.623 254.804 192.061C254.804 190.499 254.073 189.554 252.838 189.554C251.591 189.554 250.873 190.499 250.873 192.061ZM257.491 188.722H258.398L258.436 189.957C258.663 189.113 259.167 188.722 260.036 188.722H260.679V189.629H260.036C259.015 189.629 258.524 190.259 258.524 191.418V195.4H257.491V188.722ZM267.277 186.454V195.4H266.345L266.307 194.417C265.929 195.123 265.211 195.551 264.178 195.551C262.25 195.551 261.355 193.913 261.355 192.061C261.355 190.209 262.25 188.571 264.178 188.571C265.161 188.571 265.866 188.949 266.244 189.629V186.454H267.277ZM262.439 192.061C262.439 193.359 262.993 194.568 264.392 194.568C265.765 194.568 266.332 193.334 266.332 192.061C266.332 190.738 265.765 189.516 264.392 189.516C262.993 189.516 262.439 190.725 262.439 192.061ZM277.806 195.4H276.823V194.266C276.483 195.135 275.689 195.551 274.807 195.551C273.32 195.551 272.589 194.43 272.589 193.019V188.722H273.622V192.704C273.622 193.951 274.038 194.631 275.021 194.631C276.079 194.631 276.772 193.951 276.772 192.704V188.722H277.806V195.4ZM279.947 197.29V188.722H280.879L280.917 189.743C281.282 188.987 282.013 188.571 282.983 188.571C284.974 188.571 285.869 190.209 285.869 192.061C285.869 193.913 284.974 195.551 282.983 195.551C282.051 195.551 281.345 195.161 280.98 194.442V197.29H279.947ZM280.867 192.061C280.867 193.334 281.446 194.556 282.807 194.556C284.193 194.556 284.76 193.359 284.76 192.061C284.76 190.763 284.193 189.554 282.807 189.554C281.446 189.554 280.867 190.788 280.867 192.061ZM292.97 186.454V195.4H292.037L291.999 194.417C291.621 195.123 290.903 195.551 289.87 195.551C287.942 195.551 287.048 193.913 287.048 192.061C287.048 190.209 287.942 188.571 289.87 188.571C290.853 188.571 291.558 188.949 291.936 189.629V186.454H292.97ZM288.131 192.061C288.131 193.359 288.686 194.568 290.084 194.568C291.458 194.568 292.025 193.334 292.025 192.061C292.025 190.738 291.458 189.516 290.084 189.516C288.686 189.516 288.131 190.725 288.131 192.061ZM294.741 190.688C295.005 189.39 296.039 188.571 297.462 188.571C299.189 188.571 300.146 189.579 300.146 191.368V194.052C300.146 194.354 300.272 194.48 300.562 194.48H300.827V195.4H300.386C299.705 195.4 299.113 195.173 299.126 194.354C298.836 194.984 298.08 195.551 297.021 195.551C295.698 195.551 294.627 194.846 294.627 193.661C294.627 192.288 295.673 191.935 297.135 191.645L299.113 191.267C299.1 190.108 298.559 189.554 297.462 189.554C296.606 189.554 296.039 189.995 295.837 190.776L294.741 190.688ZM295.711 193.661C295.711 194.203 296.177 194.644 297.16 194.631C298.269 194.631 299.138 193.85 299.138 192.3V192.187L297.538 192.464C296.543 192.641 295.711 192.716 295.711 193.661ZM302.382 187.21H303.415V188.722H305.191V189.642H303.415V193.636C303.415 194.203 303.692 194.48 304.221 194.48H305.179V195.4H304.221C303.037 195.4 302.382 194.77 302.382 193.636V189.642H301.399V188.722H302.382V187.21ZM306.022 192.061C306.022 189.944 307.219 188.571 309.071 188.571C310.558 188.571 311.855 189.566 311.969 191.922L311.981 192.389H307.118C307.219 193.762 307.912 194.568 309.071 194.568C309.802 194.568 310.457 194.14 310.759 193.434L311.868 193.51C311.477 194.77 310.356 195.551 309.071 195.551C307.219 195.551 306.022 194.178 306.022 192.061ZM307.143 191.469H310.847C310.658 190.058 309.902 189.554 309.071 189.554C308 189.554 307.307 190.259 307.143 191.469ZM319.093 186.454V195.4H318.16L318.122 194.417C317.744 195.123 317.026 195.551 315.993 195.551C314.065 195.551 313.171 193.913 313.171 192.061C313.171 190.209 314.065 188.571 315.993 188.571C316.976 188.571 317.681 188.949 318.059 189.629V186.454H319.093ZM314.254 192.061C314.254 193.359 314.809 194.568 316.207 194.568C317.581 194.568 318.148 193.334 318.148 192.061C318.148 190.738 317.581 189.516 316.207 189.516C314.809 189.516 314.254 190.725 314.254 192.061Z" fill="#171717"/>
<path d="M212.148 207.992C213.037 207.992 213.423 207.594 213.423 206.693H214.195V215H213.212V208.822H211.493V207.992H212.148ZM219.129 215.187C217.116 215.187 215.841 213.514 215.841 210.858C215.841 208.179 217.116 206.506 219.129 206.506C221.141 206.506 222.416 208.179 222.416 210.858C222.416 213.514 221.141 215.187 219.129 215.187ZM216.87 210.858C216.87 213.011 217.689 214.228 219.129 214.228C220.568 214.228 221.387 213.011 221.387 210.858C221.387 208.694 220.568 207.465 219.129 207.465C217.689 207.465 216.87 208.694 216.87 210.858ZM223.757 208.799H224.635L224.67 209.852C224.951 209.091 225.594 208.659 226.46 208.659C227.349 208.659 227.993 209.138 228.262 209.969C228.531 209.127 229.186 208.659 230.157 208.659C231.398 208.659 232.123 209.524 232.123 211.01V215H231.164V211.291C231.164 210.156 230.719 209.513 229.958 209.513C228.987 209.513 228.426 210.168 228.426 211.303V215H227.466V211.291C227.466 210.18 227.01 209.513 226.261 209.513C225.302 209.513 224.717 210.191 224.717 211.291V215H223.757V208.799ZM236.626 210.624C236.872 209.419 237.831 208.659 239.154 208.659C240.756 208.659 241.646 209.595 241.646 211.256V213.748C241.646 214.029 241.763 214.146 242.032 214.146H242.277V215H241.868C241.236 215 240.686 214.789 240.698 214.029C240.429 214.614 239.727 215.14 238.744 215.14C237.516 215.14 236.521 214.485 236.521 213.385C236.521 212.11 237.492 211.782 238.849 211.513L240.686 211.162C240.675 210.086 240.171 209.571 239.154 209.571C238.358 209.571 237.831 209.981 237.644 210.706L236.626 210.624ZM237.527 213.385C237.527 213.888 237.96 214.298 238.873 214.286C239.902 214.286 240.71 213.561 240.71 212.122V212.016L239.224 212.274C238.299 212.438 237.527 212.508 237.527 213.385ZM245.91 214.672C244.213 214.672 243.125 213.409 243.125 211.665C243.125 209.922 244.237 208.659 245.91 208.659C246.74 208.659 247.419 209.127 247.688 209.793V208.799H248.612V214.392C248.612 216.018 247.501 216.895 245.886 216.895C244.564 216.895 243.57 216.17 243.301 215.094L244.307 215.023C244.553 215.62 245.091 215.983 245.886 215.983C246.986 215.983 247.653 215.491 247.653 214.602V213.573C247.279 214.31 246.577 214.672 245.91 214.672ZM244.131 211.665C244.131 212.882 244.798 213.76 245.91 213.76C246.974 213.76 247.653 212.871 247.665 211.665C247.688 210.46 247.01 209.571 245.91 209.571C244.798 209.571 244.131 210.449 244.131 211.665ZM252.983 215.14C251.263 215.14 250.152 213.865 250.152 211.899C250.152 209.934 251.263 208.659 252.983 208.659C254.703 208.659 255.815 209.934 255.815 211.899C255.815 213.865 254.703 215.14 252.983 215.14ZM251.158 211.899C251.158 213.35 251.825 214.228 252.983 214.228C254.13 214.228 254.809 213.35 254.809 211.899C254.809 210.449 254.13 209.571 252.983 209.571C251.825 209.571 251.158 210.449 251.158 211.899Z" fill="#666666"/>
<ellipse cx="488.4" cy="200.7" rx="3.6" ry="3.6" fill="#0070F3"/>
<mask id="path-20-inside-3_179_34691" fill="white">
<path d="M150 233.4H510V298.8H150V233.4Z"/>
</mask>
<path d="M150 233.4H510V298.8H150V233.4Z" fill="white"/>
<path d="M510 297.9H150V299.7H510V297.9Z" fill="black" fill-opacity="0.08" mask="url(#path-20-inside-3_179_34691)"/>
<rect x="168" y="251.7" width="28.8" height="28.8" rx="14.4" fill="#FEF0CD"/>
<g clip-path="url(#clip5_179_34691)">
<path fill-rule="evenodd" clip-rule="evenodd" d="M182.503 260.3H181.497L176.501 270.65H187.499L182.503 260.3ZM183.718 259.713C183.493 259.246 183.021 258.95 182.503 258.95H181.497C180.979 258.95 180.507 259.246 180.282 259.713L174.973 270.709C174.685 271.306 175.12 272 175.784 272H188.216C188.88 272 189.315 271.306 189.027 270.709L183.718 259.713ZM182.675 262.775V263.45V265.7V266.375H181.325V265.7V263.45V262.775L182.675 262.775ZM182 269.3C182.497 269.3 182.9 268.897 182.9 268.4C182.9 267.903 182.497 267.5 182 267.5C181.503 267.5 181.1 267.903 181.1 268.4C181.1 268.897 181.503 269.3 182 269.3Z" fill="#A35200"/>
</g>
<path d="M218.899 257.675C218.899 259.716 217.613 261.001 215.534 261.001C213.455 261.001 212.17 259.716 212.17 257.675V251.841H213.229V257.675C213.229 259.137 214.06 259.968 215.534 259.968C217.009 259.968 217.84 259.137 217.84 257.675V251.841H218.899V257.675ZM224.738 256.176C224.587 255.407 223.831 254.953 223.075 254.953C222.319 254.953 221.714 255.344 221.714 255.987C221.727 256.642 222.571 256.919 223.327 257.083C224.852 257.373 225.948 257.801 225.948 259.099C225.948 260.384 224.625 260.951 223.352 260.951C221.777 260.951 220.568 260.082 220.467 258.708L221.551 258.633C221.677 259.439 222.332 259.968 223.352 259.968C224.033 259.968 224.864 259.741 224.864 259.048C224.864 258.242 223.907 258.154 223.138 257.965C221.903 257.675 220.643 257.322 220.643 256.05C220.631 254.777 221.664 253.971 223.189 253.971C224.524 253.971 225.608 254.815 225.822 256.1L224.738 256.176ZM227.311 256.087C227.576 254.79 228.609 253.971 230.033 253.971C231.759 253.971 232.716 254.979 232.716 256.768V259.452C232.716 259.754 232.842 259.88 233.132 259.88H233.397V260.8H232.956C232.275 260.8 231.683 260.573 231.696 259.754C231.406 260.384 230.65 260.951 229.592 260.951C228.269 260.951 227.198 260.245 227.198 259.061C227.198 257.688 228.243 257.335 229.705 257.045L231.683 256.667C231.671 255.508 231.129 254.953 230.033 254.953C229.176 254.953 228.609 255.394 228.407 256.176L227.311 256.087ZM228.281 259.061C228.281 259.603 228.747 260.044 229.73 260.031C230.839 260.031 231.708 259.25 231.708 257.7V257.587L230.108 257.864C229.113 258.04 228.281 258.116 228.281 259.061ZM237.309 260.447C235.482 260.447 234.31 259.086 234.31 257.209C234.31 255.331 235.507 253.971 237.309 253.971C238.203 253.971 238.934 254.475 239.224 255.193V254.122H240.219V260.145C240.219 261.896 239.022 262.841 237.283 262.841C235.86 262.841 234.789 262.06 234.499 260.901L235.582 260.825C235.847 261.468 236.427 261.858 237.283 261.858C238.468 261.858 239.186 261.329 239.186 260.371V259.263C238.783 260.056 238.027 260.447 237.309 260.447ZM235.393 257.209C235.393 258.519 236.112 259.464 237.309 259.464C238.455 259.464 239.186 258.507 239.199 257.209C239.224 255.911 238.493 254.953 237.309 254.953C236.112 254.953 235.393 255.898 235.393 257.209ZM241.877 257.461C241.877 255.344 243.074 253.971 244.926 253.971C246.413 253.971 247.711 254.966 247.824 257.322L247.837 257.788H242.973C243.074 259.162 243.767 259.968 244.926 259.968C245.657 259.968 246.312 259.54 246.615 258.834L247.724 258.91C247.333 260.17 246.212 260.951 244.926 260.951C243.074 260.951 241.877 259.578 241.877 257.461ZM242.999 256.869H246.703C246.514 255.457 245.758 254.953 244.926 254.953C243.855 254.953 243.162 255.659 242.999 256.869ZM252.655 254.122H253.688V260.8H252.655V254.122ZM252.63 253.076V251.879H253.713V253.076H252.63ZM259.622 256.176C259.471 255.407 258.715 254.953 257.959 254.953C257.203 254.953 256.598 255.344 256.598 255.987C256.611 256.642 257.455 256.919 258.211 257.083C259.736 257.373 260.832 257.801 260.832 259.099C260.832 260.384 259.509 260.951 258.236 260.951C256.661 260.951 255.452 260.082 255.351 258.708L256.434 258.633C256.56 259.439 257.216 259.968 258.236 259.968C258.917 259.968 259.748 259.741 259.748 259.048C259.748 258.242 258.791 258.154 258.022 257.965C256.787 257.675 255.527 257.322 255.527 256.05C255.515 254.777 256.548 253.971 258.072 253.971C259.408 253.971 260.492 254.815 260.706 256.1L259.622 256.176ZM265.283 256.087C265.548 254.79 266.581 253.971 268.005 253.971C269.731 253.971 270.689 254.979 270.689 256.768V259.452C270.689 259.754 270.815 259.88 271.105 259.88H271.369V260.8H270.928C270.248 260.8 269.656 260.573 269.668 259.754C269.378 260.384 268.622 260.951 267.564 260.951C266.241 260.951 265.17 260.245 265.17 259.061C265.17 257.688 266.216 257.335 267.677 257.045L269.656 256.667C269.643 255.508 269.101 254.953 268.005 254.953C267.148 254.953 266.581 255.394 266.38 256.176L265.283 256.087ZM266.254 259.061C266.254 259.603 266.72 260.044 267.703 260.031C268.811 260.031 269.681 259.25 269.681 257.7V257.587L268.081 257.864C267.085 258.04 266.254 258.116 266.254 259.061ZM272.924 252.61H273.957V254.122H275.734V255.042H273.957V259.036C273.957 259.603 274.235 259.88 274.764 259.88H275.721V260.8H274.764C273.579 260.8 272.924 260.17 272.924 259.036V255.042H271.941V254.122H272.924V252.61ZM279.683 251.854H286.021V252.849C284.219 255.142 282.959 257.864 282.959 260.8H281.85C281.85 257.889 283.022 255.168 284.824 252.887H279.683V251.854ZM292.695 251.854V252.887H288.714L288.336 255.659C288.764 255.142 289.571 254.84 290.352 254.84C292.078 254.84 293.3 256.138 293.3 257.927C293.3 259.729 291.977 261.001 290.188 261.001C288.411 261.001 287.076 259.968 286.95 258.507L288.059 258.431C288.197 259.401 289.104 259.968 290.188 259.968C291.385 259.968 292.191 259.124 292.191 257.927C292.191 256.654 291.372 255.848 290.075 255.848C289.243 255.848 288.537 256.226 288.248 256.881H287.101L287.794 251.854H292.695ZM301.447 251.652H302.619L296.092 260.951H294.92L301.447 251.652ZM294.504 253.996C294.504 252.799 295.298 251.841 296.306 251.841C297.314 251.841 298.108 252.799 298.108 253.996C298.108 255.205 297.314 256.163 296.306 256.163C295.298 256.163 294.504 255.205 294.504 253.996ZM295.437 253.996C295.437 254.752 295.777 255.218 296.306 255.218C296.835 255.218 297.188 254.752 297.188 253.996C297.188 253.252 296.835 252.786 296.306 252.786C295.777 252.786 295.437 253.252 295.437 253.996ZM299.368 258.645C299.368 257.436 300.162 256.478 301.17 256.478C302.178 256.478 302.972 257.436 302.972 258.645C302.972 259.842 302.178 260.8 301.17 260.8C300.162 260.8 299.368 259.842 299.368 258.645ZM300.3 258.645C300.3 259.389 300.641 259.855 301.17 259.855C301.699 259.855 302.052 259.389 302.052 258.645C302.052 257.889 301.699 257.423 301.17 257.423C300.641 257.423 300.3 257.889 300.3 258.645Z" fill="#171717"/>
<path d="M212.148 273.392C213.037 273.392 213.423 272.994 213.423 272.093H214.195V280.4H213.212V274.222H211.493V273.392H212.148ZM216.215 273.392C217.104 273.392 217.491 272.994 217.491 272.093H218.263V280.4H217.28V274.222H215.56V273.392H216.215ZM220.33 274.199H221.207L221.242 275.252C221.523 274.491 222.167 274.059 223.032 274.059C223.922 274.059 224.565 274.538 224.834 275.369C225.103 274.527 225.758 274.059 226.73 274.059C227.97 274.059 228.695 274.924 228.695 276.41V280.4H227.736V276.691C227.736 275.556 227.291 274.913 226.531 274.913C225.56 274.913 224.998 275.568 224.998 276.703V280.4H224.039V276.691C224.039 275.58 223.582 274.913 222.833 274.913C221.874 274.913 221.289 275.591 221.289 276.691V280.4H220.33V274.199ZM233.199 276.024C233.444 274.819 234.404 274.059 235.726 274.059C237.329 274.059 238.218 274.995 238.218 276.656V279.148C238.218 279.429 238.335 279.546 238.604 279.546H238.85V280.4H238.44C237.808 280.4 237.258 280.189 237.27 279.429C237.001 280.014 236.299 280.54 235.316 280.54C234.088 280.54 233.093 279.885 233.093 278.785C233.093 277.51 234.064 277.182 235.422 276.913L237.258 276.562C237.247 275.486 236.744 274.971 235.726 274.971C234.93 274.971 234.404 275.381 234.216 276.106L233.199 276.024ZM234.099 278.785C234.099 279.288 234.532 279.698 235.445 279.686C236.475 279.686 237.282 278.961 237.282 277.522V277.416L235.796 277.674C234.872 277.838 234.099 277.908 234.099 278.785ZM242.482 280.072C240.785 280.072 239.697 278.809 239.697 277.065C239.697 275.322 240.809 274.059 242.482 274.059C243.313 274.059 243.991 274.527 244.26 275.193V274.199H245.185V279.792C245.185 281.418 244.073 282.295 242.459 282.295C241.136 282.295 240.142 281.57 239.873 280.494L240.879 280.423C241.125 281.02 241.663 281.383 242.459 281.383C243.558 281.383 244.225 280.891 244.225 280.002V278.973C243.851 279.71 243.149 280.072 242.482 280.072ZM240.704 277.065C240.704 278.282 241.37 279.16 242.482 279.16C243.547 279.16 244.225 278.271 244.237 277.065C244.26 275.86 243.582 274.971 242.482 274.971C241.37 274.971 240.704 275.849 240.704 277.065ZM249.556 280.54C247.836 280.54 246.724 279.265 246.724 277.299C246.724 275.334 247.836 274.059 249.556 274.059C251.276 274.059 252.387 275.334 252.387 277.299C252.387 279.265 251.276 280.54 249.556 280.54ZM247.73 277.299C247.73 278.75 248.397 279.628 249.556 279.628C250.702 279.628 251.381 278.75 251.381 277.299C251.381 275.849 250.702 274.971 249.556 274.971C248.397 274.971 247.73 275.849 247.73 277.299Z" fill="#666666"/>
<ellipse cx="488.4" cy="266.1" rx="3.6" ry="3.6" fill="#0070F3"/>
<mask id="path-27-inside-4_179_34691" fill="white">
<path d="M150 298.8H510V363.6H150V298.8Z"/>
</mask>
<path d="M150 298.8H510V363.6H150V298.8Z" fill="#F2F2F2"/>
<path d="M510 362.7H150V364.5H510V362.7Z" fill="#EAEAEA" mask="url(#path-27-inside-4_179_34691)"/>
<mask id="mask0_179_34691" style="mask-type:alpha" maskUnits="userSpaceOnUse" x="168" y="316" width="29" height="30">
<circle cx="182.4" cy="331.2" r="14.4" fill="black"/>
</mask>
<g mask="url(#mask0_179_34691)">
<circle cx="182.4" cy="331.2" r="13.05" fill="black" stroke="black" stroke-width="2.7"/>
<path d="M191.921 342.003L179.063 325.44H176.64V336.955H178.578V327.901L190.4 343.175C190.933 342.818 191.441 342.426 191.921 342.003Z" fill="url(#paint0_linear_179_34691)"/>
<rect x="186.4" y="325.44" width="1.92" height="11.52" fill="url(#paint1_linear_179_34691)"/>
</g>
<path d="M213.652 323.173V327.2H212.032V320.327H213.58V321.495H213.661C213.819 321.11 214.071 320.804 214.417 320.578C214.766 320.351 215.197 320.237 215.71 320.237C216.184 320.237 216.598 320.339 216.95 320.542C217.305 320.745 217.579 321.038 217.773 321.423C217.97 321.808 218.067 322.275 218.064 322.824V327.2H216.444V323.074C216.444 322.615 216.325 322.255 216.086 321.996C215.85 321.736 215.524 321.607 215.106 321.607C214.823 321.607 214.571 321.669 214.35 321.795C214.132 321.917 213.961 322.094 213.835 322.327C213.713 322.56 213.652 322.842 213.652 323.173ZM222.753 327.334C222.064 327.334 221.469 327.191 220.968 326.904C220.469 326.615 220.086 326.206 219.818 325.678C219.549 325.147 219.415 324.523 219.415 323.804C219.415 323.097 219.549 322.476 219.818 321.942C220.089 321.405 220.468 320.988 220.954 320.689C221.44 320.388 222.012 320.237 222.668 320.237C223.092 320.237 223.491 320.306 223.867 320.443C224.246 320.578 224.58 320.786 224.869 321.07C225.162 321.353 225.391 321.714 225.558 322.153C225.725 322.588 225.809 323.107 225.809 323.71V324.206H220.176V323.115H224.256C224.253 322.804 224.186 322.528 224.055 322.287C223.924 322.042 223.74 321.85 223.505 321.71C223.272 321.569 223.001 321.499 222.69 321.499C222.359 321.499 222.068 321.58 221.818 321.741C221.567 321.899 221.372 322.108 221.232 322.367C221.094 322.624 221.024 322.906 221.021 323.213V324.166C221.021 324.566 221.094 324.909 221.241 325.195C221.387 325.479 221.591 325.696 221.854 325.848C222.116 325.998 222.423 326.072 222.775 326.072C223.011 326.072 223.224 326.039 223.415 325.974C223.606 325.905 223.772 325.805 223.912 325.674C224.052 325.543 224.158 325.38 224.229 325.186L225.742 325.356C225.646 325.756 225.464 326.105 225.196 326.403C224.93 326.699 224.59 326.928 224.176 327.092C223.761 327.253 223.287 327.334 222.753 327.334ZM228.356 320.327L229.743 322.864L231.153 320.327H232.866L230.795 323.763L232.902 327.2H231.197L229.743 324.725L228.302 327.2H226.584L228.678 323.763L226.638 320.327H228.356ZM237.551 320.327V321.58H233.6V320.327H237.551ZM234.576 318.68H236.195V325.133C236.195 325.35 236.228 325.517 236.294 325.634C236.362 325.747 236.452 325.825 236.562 325.866C236.673 325.908 236.795 325.929 236.929 325.929C237.03 325.929 237.123 325.922 237.206 325.907C237.293 325.892 237.359 325.878 237.403 325.866L237.676 327.133C237.59 327.162 237.466 327.195 237.305 327.231C237.147 327.267 236.953 327.288 236.723 327.294C236.318 327.306 235.952 327.244 235.627 327.11C235.302 326.973 235.044 326.761 234.853 326.475C234.665 326.188 234.573 325.831 234.576 325.401V318.68ZM238.906 320.327H240.525V327.593C240.525 328.089 240.431 328.497 240.243 328.819C240.056 329.142 239.784 329.382 239.429 329.54C239.074 329.698 238.643 329.777 238.136 329.777C238.076 329.777 238.021 329.775 237.97 329.773C237.92 329.773 237.865 329.771 237.805 329.768V328.448C237.85 328.451 237.89 328.453 237.926 328.453C237.962 328.456 237.999 328.457 238.038 328.457C238.348 328.457 238.57 328.381 238.704 328.229C238.839 328.08 238.906 327.86 238.906 327.571V320.327ZM239.711 319.352C239.452 319.352 239.229 319.267 239.044 319.097C238.862 318.923 238.771 318.716 238.771 318.475C238.771 318.23 238.862 318.023 239.044 317.853C239.229 317.68 239.452 317.593 239.711 317.593C239.968 317.593 240.187 317.68 240.369 317.853C240.554 318.023 240.646 318.23 240.646 318.475C240.646 318.716 240.554 318.923 240.369 319.097C240.187 319.267 239.968 319.352 239.711 319.352ZM247.623 322.144L246.146 322.305C246.105 322.156 246.032 322.015 245.927 321.884C245.826 321.753 245.689 321.647 245.515 321.566C245.342 321.486 245.131 321.446 244.88 321.446C244.543 321.446 244.26 321.519 244.03 321.665C243.803 321.811 243.691 322 243.694 322.233C243.691 322.433 243.764 322.596 243.914 322.721C244.066 322.846 244.316 322.949 244.665 323.03L245.838 323.28C246.488 323.42 246.971 323.643 247.287 323.947C247.607 324.251 247.768 324.649 247.771 325.141C247.768 325.574 247.641 325.956 247.39 326.287C247.143 326.615 246.798 326.872 246.357 327.057C245.915 327.241 245.408 327.334 244.835 327.334C243.994 327.334 243.317 327.158 242.804 326.806C242.291 326.451 241.985 325.957 241.887 325.325L243.466 325.173C243.538 325.483 243.69 325.717 243.923 325.875C244.155 326.033 244.458 326.112 244.831 326.112C245.216 326.112 245.524 326.033 245.757 325.875C245.993 325.717 246.111 325.522 246.111 325.289C246.111 325.092 246.035 324.93 245.882 324.801C245.733 324.673 245.501 324.575 245.184 324.506L244.012 324.26C243.353 324.123 242.865 323.892 242.549 323.566C242.233 323.238 242.076 322.824 242.079 322.323C242.076 321.899 242.191 321.532 242.424 321.222C242.659 320.909 242.986 320.667 243.404 320.497C243.824 320.324 244.309 320.237 244.858 320.237C245.663 320.237 246.297 320.409 246.759 320.752C247.225 321.095 247.513 321.559 247.623 322.144ZM250.104 327.298C249.833 327.298 249.6 327.203 249.406 327.012C249.212 326.821 249.117 326.588 249.12 326.314C249.117 326.045 249.212 325.816 249.406 325.625C249.6 325.434 249.833 325.338 250.104 325.338C250.367 325.338 250.595 325.434 250.789 325.625C250.985 325.816 251.085 326.045 251.088 326.314C251.085 326.496 251.038 326.661 250.945 326.81C250.856 326.96 250.736 327.079 250.587 327.168C250.441 327.255 250.28 327.298 250.104 327.298ZM255.759 327.334C255.087 327.334 254.506 327.186 254.014 326.891C253.521 326.596 253.14 326.183 252.868 325.652C252.6 325.121 252.465 324.5 252.465 323.79C252.465 323.08 252.6 322.458 252.868 321.924C253.14 321.39 253.521 320.976 254.014 320.68C254.506 320.385 255.087 320.237 255.759 320.237C256.43 320.237 257.011 320.385 257.504 320.68C257.996 320.976 258.376 321.39 258.645 321.924C258.916 322.458 259.052 323.08 259.052 323.79C259.052 324.5 258.916 325.121 258.645 325.652C258.376 326.183 257.996 326.596 257.504 326.891C257.011 327.186 256.43 327.334 255.759 327.334ZM255.768 326.036C256.131 326.036 256.436 325.936 256.68 325.737C256.925 325.534 257.107 325.262 257.226 324.922C257.348 324.582 257.41 324.203 257.41 323.786C257.41 323.365 257.348 322.985 257.226 322.645C257.107 322.302 256.925 322.029 256.68 321.826C256.436 321.623 256.131 321.522 255.768 321.522C255.395 321.522 255.084 321.623 254.837 321.826C254.592 322.029 254.409 322.302 254.286 322.645C254.167 322.985 254.108 323.365 254.108 323.786C254.108 324.203 254.167 324.582 254.286 324.922C254.409 325.262 254.592 325.534 254.837 325.737C255.084 325.936 255.395 326.036 255.768 326.036ZM260.427 327.2V320.327H261.997V321.472H262.069C262.194 321.076 262.409 320.77 262.713 320.555C263.02 320.337 263.371 320.229 263.764 320.229C263.854 320.229 263.954 320.233 264.064 320.242C264.178 320.248 264.272 320.258 264.346 320.273V321.763C264.278 321.739 264.169 321.719 264.02 321.701C263.873 321.68 263.732 321.669 263.594 321.669C263.299 321.669 263.034 321.733 262.798 321.862C262.565 321.987 262.382 322.161 262.248 322.385C262.113 322.609 262.046 322.867 262.046 323.159V327.2H260.427ZM268.128 329.92C267.546 329.92 267.047 329.841 266.629 329.683C266.212 329.528 265.876 329.319 265.622 329.057C265.369 328.794 265.193 328.503 265.094 328.184L266.553 327.831C266.619 327.965 266.714 328.098 266.84 328.229C266.965 328.363 267.133 328.473 267.345 328.56C267.56 328.649 267.83 328.694 268.155 328.694C268.614 328.694 268.995 328.582 269.296 328.359C269.597 328.138 269.748 327.774 269.748 327.267V325.965H269.667C269.584 326.132 269.462 326.303 269.3 326.479C269.142 326.655 268.932 326.803 268.67 326.922C268.41 327.042 268.083 327.101 267.69 327.101C267.162 327.101 266.683 326.977 266.253 326.73C265.827 326.479 265.487 326.106 265.233 325.611C264.983 325.113 264.857 324.49 264.857 323.741C264.857 322.986 264.983 322.349 265.233 321.83C265.487 321.308 265.828 320.913 266.258 320.645C266.687 320.373 267.166 320.237 267.694 320.237C268.097 320.237 268.428 320.306 268.687 320.443C268.95 320.578 269.159 320.74 269.314 320.931C269.469 321.119 269.587 321.296 269.667 321.463H269.757V320.327H271.354V327.312C271.354 327.899 271.214 328.385 270.934 328.77C270.653 329.155 270.27 329.443 269.784 329.634C269.297 329.825 268.746 329.92 268.128 329.92ZM268.142 325.831C268.485 325.831 268.777 325.747 269.019 325.58C269.26 325.413 269.444 325.173 269.569 324.86C269.694 324.546 269.757 324.171 269.757 323.732C269.757 323.299 269.694 322.921 269.569 322.596C269.447 322.27 269.265 322.018 269.023 321.839C268.784 321.657 268.491 321.566 268.142 321.566C267.781 321.566 267.479 321.66 267.238 321.848C266.996 322.036 266.814 322.294 266.692 322.622C266.57 322.948 266.508 323.317 266.508 323.732C266.508 324.153 266.57 324.521 266.692 324.837C266.817 325.15 267.001 325.395 267.242 325.571C267.487 325.744 267.787 325.831 268.142 325.831ZM281.846 318.254V327.2H280.914L280.876 326.217C280.498 326.923 279.78 327.351 278.747 327.351C276.819 327.351 275.924 325.713 275.924 323.861C275.924 322.009 276.819 320.371 278.747 320.371C279.729 320.371 280.435 320.749 280.813 321.429V318.254H281.846ZM277.008 323.861C277.008 325.159 277.562 326.368 278.961 326.368C280.334 326.368 280.901 325.133 280.901 323.861C280.901 322.538 280.334 321.316 278.961 321.316C277.562 321.316 277.008 322.525 277.008 323.861ZM286.553 327.351C284.701 327.351 283.504 325.978 283.504 323.861C283.504 321.744 284.701 320.371 286.553 320.371C288.405 320.371 289.602 321.744 289.602 323.861C289.602 325.978 288.405 327.351 286.553 327.351ZM284.587 323.861C284.587 325.423 285.306 326.368 286.553 326.368C287.788 326.368 288.519 325.423 288.519 323.861C288.519 322.298 287.788 321.353 286.553 321.353C285.306 321.353 284.587 322.298 284.587 323.861ZM291.206 320.522H292.151L292.188 321.656C292.491 320.837 293.184 320.371 294.116 320.371C295.074 320.371 295.767 320.887 296.057 321.782C296.346 320.875 297.052 320.371 298.098 320.371C299.433 320.371 300.215 321.303 300.215 322.903V327.2H299.181V323.206C299.181 321.983 298.703 321.29 297.884 321.29C296.838 321.29 296.233 321.996 296.233 323.218V327.2H295.2V323.206C295.2 322.009 294.708 321.29 293.902 321.29C292.869 321.29 292.239 322.021 292.239 323.206V327.2H291.206V320.522ZM301.914 322.487C302.179 321.19 303.212 320.371 304.636 320.371C306.362 320.371 307.32 321.379 307.32 323.168V325.852C307.32 326.154 307.446 326.28 307.736 326.28H308V327.2H307.559C306.879 327.2 306.287 326.973 306.299 326.154C306.009 326.784 305.253 327.351 304.195 327.351C302.872 327.351 301.801 326.645 301.801 325.461C301.801 324.088 302.847 323.735 304.308 323.445L306.287 323.067C306.274 321.908 305.732 321.353 304.636 321.353C303.779 321.353 303.212 321.794 303.011 322.576L301.914 322.487ZM302.885 325.461C302.885 326.003 303.351 326.444 304.334 326.431C305.442 326.431 306.312 325.65 306.312 324.1V323.987L304.712 324.264C303.716 324.44 302.885 324.516 302.885 325.461ZM309.416 320.522H310.45V327.2H309.416V320.522ZM309.391 319.476V318.279H310.475V319.476H309.391ZM312.419 320.522H313.364L313.402 321.668C313.742 320.774 314.536 320.371 315.455 320.371C316.98 320.371 317.711 321.492 317.711 322.903V327.2H316.678V323.206C316.678 321.971 316.262 321.29 315.241 321.29C314.158 321.29 313.452 321.971 313.452 323.206V327.2H312.419V320.522ZM322.562 322.487C322.826 321.19 323.859 320.371 325.283 320.371C327.009 320.371 327.967 321.379 327.967 323.168V325.852C327.967 326.154 328.093 326.28 328.383 326.28H328.647V327.2H328.206C327.526 327.2 326.934 326.973 326.946 326.154C326.657 326.784 325.901 327.351 324.842 327.351C323.519 327.351 322.448 326.645 322.448 325.461C322.448 324.088 323.494 323.735 324.956 323.445L326.934 323.067C326.921 321.908 326.379 321.353 325.283 321.353C324.426 321.353 323.859 321.794 323.658 322.576L322.562 322.487ZM323.532 325.461C323.532 326.003 323.998 326.444 324.981 326.431C326.09 326.431 326.959 325.65 326.959 324.1V323.987L325.359 324.264C324.363 324.44 323.532 324.516 323.532 325.461ZM335.482 318.254V327.2H334.55L334.512 326.217C334.134 326.923 333.416 327.351 332.383 327.351C330.455 327.351 329.56 325.713 329.56 323.861C329.56 322.009 330.455 320.371 332.383 320.371C333.366 320.371 334.071 320.749 334.449 321.429V318.254H335.482ZM330.644 323.861C330.644 325.159 331.198 326.368 332.597 326.368C333.97 326.368 334.537 325.133 334.537 323.861C334.537 322.538 333.97 321.316 332.597 321.316C331.198 321.316 330.644 322.525 330.644 323.861ZM343.062 318.254V327.2H342.13L342.092 326.217C341.714 326.923 340.996 327.351 339.962 327.351C338.035 327.351 337.14 325.713 337.14 323.861C337.14 322.009 338.035 320.371 339.962 320.371C340.945 320.371 341.651 320.749 342.029 321.429V318.254H343.062ZM338.224 323.861C338.224 325.159 338.778 326.368 340.177 326.368C341.55 326.368 342.117 325.133 342.117 323.861C342.117 322.538 341.55 321.316 340.177 321.316C338.778 321.316 338.224 322.525 338.224 323.861ZM344.72 323.861C344.72 321.744 345.917 320.371 347.769 320.371C349.256 320.371 350.554 321.366 350.667 323.722L350.68 324.188H345.816C345.917 325.562 346.61 326.368 347.769 326.368C348.5 326.368 349.155 325.94 349.457 325.234L350.566 325.31C350.176 326.57 349.054 327.351 347.769 327.351C345.917 327.351 344.72 325.978 344.72 323.861ZM345.841 323.269H349.546C349.357 321.857 348.601 321.353 347.769 321.353C346.698 321.353 346.005 322.059 345.841 323.269ZM357.791 318.254V327.2H356.858L356.821 326.217C356.443 326.923 355.724 327.351 354.691 327.351C352.763 327.351 351.869 325.713 351.869 323.861C351.869 322.009 352.763 320.371 354.691 320.371C355.674 320.371 356.38 320.749 356.758 321.429V318.254H357.791ZM352.952 323.861C352.952 325.159 353.507 326.368 354.905 326.368C356.279 326.368 356.846 325.133 356.846 323.861C356.846 322.538 356.279 321.316 354.905 321.316C353.507 321.316 352.952 322.525 352.952 323.861ZM363.745 319.01H364.778V320.522H366.555V321.442H364.778V325.436C364.778 326.003 365.055 326.28 365.585 326.28H366.542V327.2H365.585C364.4 327.2 363.745 326.57 363.745 325.436V321.442H362.762V320.522H363.745V319.01ZM370.434 327.351C368.582 327.351 367.385 325.978 367.385 323.861C367.385 321.744 368.582 320.371 370.434 320.371C372.286 320.371 373.483 321.744 373.483 323.861C373.483 325.978 372.286 327.351 370.434 327.351ZM368.469 323.861C368.469 325.423 369.187 326.368 370.434 326.368C371.669 326.368 372.4 325.423 372.4 323.861C372.4 322.298 371.669 321.353 370.434 321.353C369.187 321.353 368.469 322.298 368.469 323.861ZM379.679 323.173V327.2H378.059V320.327H379.608V321.495H379.688C379.846 321.11 380.098 320.804 380.444 320.578C380.793 320.351 381.224 320.237 381.737 320.237C382.212 320.237 382.625 320.339 382.977 320.542C383.332 320.745 383.606 321.038 383.8 321.423C383.997 321.808 384.094 322.275 384.091 322.824V327.2H382.471V323.074C382.471 322.615 382.352 322.255 382.113 321.996C381.878 321.736 381.551 321.607 381.133 321.607C380.85 321.607 380.598 321.669 380.377 321.795C380.159 321.917 379.988 322.094 379.863 322.327C379.74 322.56 379.679 322.842 379.679 323.173ZM388.78 327.334C388.091 327.334 387.496 327.191 386.995 326.904C386.497 326.615 386.113 326.206 385.845 325.678C385.576 325.147 385.442 324.523 385.442 323.804C385.442 323.097 385.576 322.476 385.845 321.942C386.116 321.405 386.495 320.988 386.981 320.689C387.468 320.388 388.039 320.237 388.695 320.237C389.119 320.237 389.518 320.306 389.894 320.443C390.273 320.578 390.607 320.786 390.897 321.07C391.189 321.353 391.419 321.714 391.586 322.153C391.753 322.588 391.836 323.107 391.836 323.71V324.206H386.203V323.115H390.284C390.281 322.804 390.213 322.528 390.082 322.287C389.951 322.042 389.767 321.85 389.532 321.71C389.299 321.569 389.028 321.499 388.717 321.499C388.386 321.499 388.096 321.58 387.845 321.741C387.594 321.899 387.399 322.108 387.259 322.367C387.122 322.624 387.051 322.906 387.048 323.213V324.166C387.048 324.566 387.122 324.909 387.268 325.195C387.414 325.479 387.618 325.696 387.881 325.848C388.143 325.998 388.45 326.072 388.802 326.072C389.038 326.072 389.251 326.039 389.442 325.974C389.633 325.905 389.799 325.805 389.939 325.674C390.079 325.543 390.185 325.38 390.257 325.186L391.769 325.356C391.674 325.756 391.492 326.105 391.223 326.403C390.958 326.699 390.618 326.928 390.203 327.092C389.788 327.253 389.314 327.334 388.78 327.334ZM394.383 320.327L395.77 322.864L397.18 320.327H398.893L396.822 323.763L398.929 327.2H397.224L395.77 324.725L394.33 327.2H392.611L394.705 323.763L392.665 320.327H394.383ZM403.578 320.327V321.58H399.627V320.327H403.578ZM400.603 318.68H402.222V325.133C402.222 325.35 402.255 325.517 402.321 325.634C402.389 325.747 402.479 325.825 402.589 325.866C402.7 325.908 402.822 325.929 402.956 325.929C403.058 325.929 403.15 325.922 403.234 325.907C403.32 325.892 403.386 325.878 403.431 325.866L403.703 327.133C403.617 327.162 403.493 327.195 403.332 327.231C403.174 327.267 402.98 327.288 402.75 327.294C402.345 327.306 401.979 327.244 401.654 327.11C401.329 326.973 401.071 326.761 400.88 326.475C400.692 326.188 400.6 325.831 400.603 325.401V318.68ZM408.877 322.716V324.05H404.752V322.716H408.877ZM416.013 322.144L414.536 322.305C414.494 322.156 414.421 322.015 414.317 321.884C414.215 321.753 414.078 321.647 413.905 321.566C413.732 321.486 413.52 321.446 413.27 321.446C412.933 321.446 412.649 321.519 412.42 321.665C412.193 321.811 412.081 322 412.084 322.233C412.081 322.433 412.154 322.596 412.303 322.721C412.455 322.846 412.706 322.949 413.055 323.03L414.227 323.28C414.878 323.42 415.361 323.643 415.677 323.947C415.996 324.251 416.157 324.649 416.16 325.141C416.157 325.574 416.031 325.956 415.78 326.287C415.532 326.615 415.188 326.872 414.746 327.057C414.305 327.241 413.798 327.334 413.225 327.334C412.384 327.334 411.707 327.158 411.194 326.806C410.681 326.451 410.375 325.957 410.276 325.325L411.856 325.173C411.927 325.483 412.08 325.717 412.312 325.875C412.545 326.033 412.848 326.112 413.221 326.112C413.605 326.112 413.914 326.033 414.147 325.875C414.382 325.717 414.5 325.522 414.5 325.289C414.5 325.092 414.424 324.93 414.272 324.801C414.123 324.673 413.89 324.575 413.574 324.506L412.402 324.26C411.743 324.123 411.255 323.892 410.939 323.566C410.622 323.238 410.466 322.824 410.469 322.323C410.466 321.899 410.581 321.532 410.813 321.222C411.049 320.909 411.376 320.667 411.793 320.497C412.214 320.324 412.699 320.237 413.247 320.237C414.053 320.237 414.687 320.409 415.149 320.752C415.614 321.095 415.902 321.559 416.013 322.144ZM417.496 327.2V320.327H419.116V327.2H417.496ZM418.31 319.352C418.054 319.352 417.833 319.267 417.648 319.097C417.463 318.923 417.371 318.716 417.371 318.475C417.371 318.23 417.463 318.023 417.648 317.853C417.833 317.68 418.054 317.593 418.31 317.593C418.57 317.593 418.79 317.68 418.972 317.853C419.157 318.023 419.25 318.23 419.25 318.475C419.25 318.716 419.157 318.923 418.972 319.097C418.79 319.267 418.57 319.352 418.31 319.352ZM424.213 320.327V321.58H420.262V320.327H424.213ZM421.238 318.68H422.857V325.133C422.857 325.35 422.89 325.517 422.956 325.634C423.024 325.747 423.114 325.825 423.224 325.866C423.335 325.908 423.457 325.929 423.591 325.929C423.693 325.929 423.785 325.922 423.869 325.907C423.955 325.892 424.021 325.878 424.065 325.866L424.338 327.133C424.252 327.162 424.128 327.195 423.967 327.231C423.809 327.267 423.615 327.288 423.385 327.294C422.98 327.306 422.614 327.244 422.289 327.11C421.964 326.973 421.706 326.761 421.515 326.475C421.327 326.188 421.235 325.831 421.238 325.401V318.68ZM428.537 327.334C427.847 327.334 427.252 327.191 426.751 326.904C426.253 326.615 425.87 326.206 425.601 325.678C425.333 325.147 425.199 324.523 425.199 323.804C425.199 323.097 425.333 322.476 425.601 321.942C425.873 321.405 426.252 320.988 426.738 320.689C427.224 320.388 427.795 320.237 428.452 320.237C428.875 320.237 429.275 320.306 429.651 320.443C430.03 320.578 430.364 320.786 430.653 321.07C430.945 321.353 431.175 321.714 431.342 322.153C431.509 322.588 431.593 323.107 431.593 323.71V324.206H425.959V323.115H430.04C430.037 322.804 429.97 322.528 429.839 322.287C429.707 322.042 429.524 321.85 429.288 321.71C429.056 321.569 428.784 321.499 428.474 321.499C428.143 321.499 427.852 321.58 427.601 321.741C427.351 321.899 427.155 322.108 427.015 322.367C426.878 322.624 426.808 322.906 426.805 323.213V324.166C426.805 324.566 426.878 324.909 427.024 325.195C427.17 325.479 427.375 325.696 427.637 325.848C427.9 325.998 428.207 326.072 428.559 326.072C428.795 326.072 429.008 326.039 429.199 325.974C429.39 325.905 429.555 325.805 429.695 325.674C429.836 325.543 429.942 325.38 430.013 325.186L431.525 325.356C431.43 325.756 431.248 326.105 430.98 326.403C430.714 326.699 430.374 326.928 429.959 327.092C429.545 327.253 429.071 327.334 428.537 327.334Z" fill="#171717"/>
<path d="M212.148 338.792C213.037 338.792 213.423 338.394 213.423 337.493H214.195V345.8H213.212V339.622H211.492V338.792H212.148ZM216.262 337.493H217.221V340.465C217.584 339.774 218.31 339.458 219.082 339.458C220.497 339.458 221.176 340.5 221.176 341.81V345.8H220.217V342.161C220.217 341.003 219.831 340.371 218.883 340.371C217.877 340.371 217.221 341.003 217.221 342.161V345.8H216.262V337.493ZM225.68 341.424C225.926 340.219 226.885 339.458 228.208 339.458C229.81 339.458 230.7 340.394 230.7 342.056V344.548C230.7 344.829 230.817 344.946 231.086 344.946H231.331V345.8H230.922C230.29 345.8 229.74 345.589 229.752 344.829C229.483 345.414 228.781 345.94 227.798 345.94C226.57 345.94 225.575 345.285 225.575 344.185C225.575 342.91 226.546 342.582 227.903 342.313L229.74 341.962C229.729 340.886 229.225 340.371 228.208 340.371C227.412 340.371 226.885 340.781 226.698 341.506L225.68 341.424ZM226.581 344.185C226.581 344.688 227.014 345.098 227.927 345.086C228.956 345.086 229.764 344.361 229.764 342.922V342.816L228.278 343.074C227.353 343.238 226.581 343.308 226.581 344.185ZM234.964 345.472C233.267 345.472 232.179 344.209 232.179 342.465C232.179 340.722 233.291 339.458 234.964 339.458C235.794 339.458 236.473 339.926 236.742 340.593V339.599H237.666V345.191C237.666 346.818 236.555 347.695 234.94 347.695C233.618 347.695 232.624 346.97 232.355 345.893L233.361 345.823C233.607 346.42 234.145 346.783 234.94 346.783C236.04 346.783 236.707 346.291 236.707 345.402V344.372C236.333 345.11 235.631 345.472 234.964 345.472ZM233.185 342.465C233.185 343.682 233.852 344.56 234.964 344.56C236.028 344.56 236.707 343.67 236.719 342.465C236.742 341.26 236.064 340.371 234.964 340.371C233.852 340.371 233.185 341.249 233.185 342.465ZM242.037 345.94C240.318 345.94 239.206 344.665 239.206 342.699C239.206 340.734 240.318 339.458 242.037 339.458C243.757 339.458 244.869 340.734 244.869 342.699C244.869 344.665 243.757 345.94 242.037 345.94ZM240.212 342.699C240.212 344.15 240.879 345.028 242.037 345.028C243.184 345.028 243.863 344.15 243.863 342.699C243.863 341.249 243.184 340.371 242.037 340.371C240.879 340.371 240.212 341.249 240.212 342.699Z" fill="#171717"/>
<path d="M474 331.2C474 323.247 480.447 316.8 488.4 316.8V316.8C496.353 316.8 502.8 323.247 502.8 331.2V331.2C502.8 339.153 496.353 345.6 488.4 345.6V345.6C480.447 345.6 474 339.153 474 331.2V331.2Z" fill="black" fill-opacity="0.081"/>
<g clip-path="url(#clip6_179_34691)">
<path fill-rule="evenodd" clip-rule="evenodd" d="M482.55 327.15H494.25V328.95H482.55V327.15ZM481.2 325.8H482.55H494.25H495.6V327.15V328.95V330.3L494.7 330.3V335.25C494.7 336.493 493.693 337.5 492.45 337.5H484.35C483.107 337.5 482.1 336.493 482.1 335.25V330.3L481.2 330.3V328.95V327.15V325.8ZM493.35 335.25V330.3H483.45V335.25C483.45 335.747 483.853 336.15 484.35 336.15H492.45C492.947 336.15 493.35 335.747 493.35 335.25ZM486.6 332.55H487.275H489.525H490.2V333.9H489.525H487.275H486.6V332.55Z" fill="#171717"/>
</g>
<g filter="url(#filter1_d_179_34691)">
<path fill-rule="evenodd" clip-rule="evenodd" d="M485.957 352.178C485.701 351.855 485.391 351.194 484.838 350.392C484.525 349.938 483.748 349.084 483.517 348.651C483.316 348.267 483.338 348.095 483.386 347.778C483.47 347.212 484.05 346.772 484.668 346.832C485.135 346.876 485.531 347.184 485.888 347.476C486.103 347.652 486.367 347.993 486.527 348.185C486.673 348.362 486.709 348.435 486.866 348.643C487.073 348.92 487.138 349.056 487.059 348.752C486.995 348.306 486.89 347.544 486.739 346.869C486.624 346.358 486.596 346.278 486.486 345.886C486.37 345.468 486.311 345.176 486.202 344.733C486.126 344.42 485.99 343.78 485.953 343.42C485.902 342.927 485.875 342.125 486.191 341.756C486.439 341.467 487.006 341.379 487.358 341.558C487.819 341.791 488.081 342.46 488.201 342.728C488.416 343.208 488.549 343.764 488.665 344.493C488.813 345.42 489.085 346.708 489.094 346.979C489.115 346.647 489.032 345.948 489.09 345.629C489.142 345.34 489.385 345.005 489.689 344.914C489.947 344.837 490.248 344.809 490.514 344.864C490.795 344.922 491.092 345.123 491.203 345.313C491.529 345.875 491.535 347.022 491.549 346.961C491.626 346.623 491.613 345.855 491.804 345.536C491.93 345.325 492.252 345.135 492.423 345.105C492.687 345.058 493.012 345.043 493.29 345.097C493.514 345.141 493.818 345.408 493.899 345.536C494.096 345.845 494.207 346.721 494.241 347.028C494.254 347.155 494.307 346.675 494.504 346.365C494.87 345.79 496.163 345.679 496.212 346.941C496.235 347.529 496.23 347.502 496.23 347.898C496.23 348.363 496.22 348.643 496.194 348.98C496.167 349.34 496.089 350.154 495.977 350.548C495.899 350.819 495.643 351.428 495.39 351.793C495.39 351.793 494.423 352.918 494.318 353.425C494.212 353.931 494.247 353.934 494.226 354.294C494.206 354.652 494.335 355.123 494.335 355.123C494.335 355.123 493.613 355.217 493.224 355.155C492.873 355.098 492.437 354.398 492.324 354.184C492.17 353.889 491.839 353.945 491.711 354.163C491.508 354.508 491.073 355.126 490.765 355.165C490.164 355.24 488.916 355.193 487.94 355.183C487.94 355.183 488.106 354.273 487.735 353.961C487.461 353.727 486.988 353.255 486.706 353.007L485.957 352.178Z" fill="white"/>
</g>
<path fill-rule="evenodd" clip-rule="evenodd" d="M485.957 352.178C485.701 351.855 485.391 351.194 484.838 350.392C484.525 349.938 483.748 349.084 483.517 348.651C483.316 348.267 483.338 348.095 483.386 347.778C483.47 347.212 484.05 346.772 484.668 346.832C485.135 346.876 485.531 347.184 485.888 347.476C486.103 347.652 486.367 347.993 486.527 348.185C486.673 348.362 486.709 348.435 486.866 348.643C487.073 348.92 487.138 349.056 487.059 348.752C486.995 348.306 486.89 347.544 486.739 346.869C486.624 346.358 486.596 346.278 486.486 345.886C486.37 345.468 486.311 345.176 486.202 344.733C486.126 344.42 485.99 343.78 485.953 343.42C485.902 342.927 485.875 342.125 486.191 341.756C486.439 341.467 487.006 341.379 487.358 341.558C487.819 341.791 488.081 342.46 488.201 342.728C488.416 343.208 488.549 343.764 488.665 344.493C488.813 345.42 489.085 346.708 489.094 346.979C489.115 346.647 489.032 345.948 489.09 345.629C489.142 345.34 489.385 345.005 489.689 344.914C489.947 344.837 490.248 344.809 490.514 344.864C490.795 344.922 491.092 345.123 491.203 345.313C491.529 345.875 491.535 347.022 491.549 346.961C491.626 346.623 491.613 345.855 491.804 345.536C491.93 345.325 492.252 345.135 492.423 345.105C492.687 345.058 493.012 345.043 493.29 345.097C493.514 345.141 493.818 345.408 493.899 345.536C494.096 345.845 494.207 346.721 494.241 347.028C494.254 347.155 494.307 346.675 494.504 346.365C494.87 345.79 496.163 345.679 496.212 346.941C496.235 347.529 496.23 347.502 496.23 347.898C496.23 348.363 496.22 348.643 496.194 348.98C496.167 349.34 496.089 350.154 495.977 350.548C495.899 350.819 495.643 351.428 495.39 351.793C495.39 351.793 494.423 352.918 494.318 353.425C494.212 353.931 494.247 353.934 494.226 354.294C494.206 354.652 494.335 355.123 494.335 355.123C494.335 355.123 493.613 355.217 493.224 355.155C492.873 355.098 492.437 354.398 492.324 354.184C492.17 353.889 491.839 353.945 491.711 354.163C491.508 354.508 491.073 355.126 490.765 355.165C490.164 355.24 488.916 355.193 487.94 355.183C487.94 355.183 488.106 354.273 487.735 353.961C487.461 353.727 486.988 353.255 486.706 353.007L485.957 352.178Z" fill="white"/>
<path fill-rule="evenodd" clip-rule="evenodd" d="M485.957 352.178C485.701 351.855 485.391 351.194 484.838 350.392C484.525 349.938 483.748 349.084 483.517 348.651C483.316 348.267 483.338 348.095 483.386 347.778C483.47 347.212 484.05 346.772 484.668 346.832C485.135 346.876 485.531 347.184 485.888 347.476C486.103 347.652 486.367 347.993 486.527 348.185C486.673 348.362 486.709 348.435 486.866 348.643C487.073 348.92 487.138 349.056 487.059 348.752C486.995 348.306 486.89 347.544 486.739 346.869C486.624 346.358 486.596 346.278 486.486 345.886C486.37 345.468 486.311 345.176 486.202 344.733C486.126 344.42 485.99 343.78 485.953 343.42C485.902 342.927 485.875 342.125 486.191 341.756C486.439 341.467 487.006 341.379 487.358 341.558C487.819 341.791 488.081 342.46 488.201 342.728C488.416 343.208 488.549 343.764 488.665 344.493C488.813 345.42 489.085 346.708 489.094 346.979C489.115 346.647 489.032 345.948 489.09 345.629C489.142 345.34 489.385 345.005 489.689 344.914C489.947 344.837 490.248 344.809 490.514 344.864C490.795 344.922 491.092 345.123 491.203 345.313C491.529 345.875 491.535 347.022 491.549 346.961C491.626 346.623 491.613 345.855 491.804 345.536C491.93 345.325 492.252 345.135 492.423 345.105C492.687 345.058 493.012 345.043 493.29 345.097C493.514 345.141 493.818 345.408 493.899 345.536C494.096 345.845 494.207 346.721 494.241 347.028C494.254 347.155 494.307 346.675 494.504 346.365C494.87 345.79 496.163 345.679 496.212 346.941C496.235 347.529 496.23 347.502 496.23 347.898C496.23 348.363 496.22 348.643 496.194 348.98C496.167 349.34 496.089 350.154 495.977 350.548C495.899 350.819 495.643 351.428 495.39 351.793C495.39 351.793 494.423 352.918 494.318 353.425C494.212 353.931 494.247 353.934 494.226 354.294C494.206 354.652 494.335 355.123 494.335 355.123C494.335 355.123 493.613 355.217 493.224 355.155C492.873 355.098 492.437 354.398 492.324 354.184C492.17 353.889 491.839 353.945 491.711 354.163C491.508 354.508 491.073 355.126 490.765 355.165C490.164 355.24 488.916 355.193 487.94 355.183C487.94 355.183 488.106 354.273 487.735 353.961C487.461 353.727 486.988 353.255 486.706 353.007L485.957 352.178Z" stroke="black" stroke-width="0.675" stroke-linecap="round" stroke-linejoin="round"/>
<path d="M493.368 352.497V349.384" stroke="black" stroke-width="0.675" stroke-linecap="round"/>
<path d="M491.554 352.508L491.54 349.382" stroke="black" stroke-width="0.675" stroke-linecap="round"/>
<path d="M489.758 349.41L489.777 352.494" stroke="black" stroke-width="0.675" stroke-linecap="round"/>
<mask id="path-43-inside-5_179_34691" fill="white">
<path d="M150 363.6H510V429H150V363.6Z"/>
</mask>
<path d="M150 363.6H510V429H150V363.6Z" fill="white"/>
<path d="M510 428.1H150V429.9H510V428.1Z" fill="black" fill-opacity="0.08" mask="url(#path-43-inside-5_179_34691)"/>
<rect x="168" y="381.9" width="28.8" height="28.8" rx="14.4" fill="#FFE5E5"/>
<g clip-path="url(#clip7_179_34691)">
<path fill-rule="evenodd" clip-rule="evenodd" d="M187.85 395.9C187.85 399.131 185.231 401.75 182 401.75C178.769 401.75 176.15 399.131 176.15 395.9C176.15 392.669 178.769 390.05 182 390.05C185.231 390.05 187.85 392.669 187.85 395.9ZM189.2 395.9C189.2 399.877 185.976 403.1 182 403.1C178.024 403.1 174.8 399.877 174.8 395.9C174.8 391.924 178.024 388.7 182 388.7C185.976 388.7 189.2 391.924 189.2 395.9ZM184.25 399.105L183.773 398.627L182 396.855L180.227 398.627L179.75 399.105L178.795 398.15L179.273 397.673L181.045 395.9L179.273 394.127L178.795 393.65L179.75 392.695L180.227 393.173L182 394.945L183.773 393.173L184.25 392.695L185.205 393.65L184.727 394.127L182.955 395.9L184.727 397.673L185.205 398.15L184.25 399.105Z" fill="#CA2A30"/>
</g>
<path d="M211.465 382.054H212.725L215.169 386.225L217.601 382.054H218.848L215.698 387.346V391H214.64V387.346L211.465 382.054ZM222.126 391.151C220.274 391.151 219.077 389.778 219.077 387.661C219.077 385.544 220.274 384.171 222.126 384.171C223.978 384.171 225.175 385.544 225.175 387.661C225.175 389.778 223.978 391.151 222.126 391.151ZM220.16 387.661C220.16 389.223 220.878 390.168 222.126 390.168C223.361 390.168 224.091 389.223 224.091 387.661C224.091 386.099 223.361 385.154 222.126 385.154C220.878 385.154 220.16 386.099 220.16 387.661ZM231.958 391H230.976V389.866C230.635 390.735 229.842 391.151 228.96 391.151C227.473 391.151 226.742 390.03 226.742 388.619V384.322H227.775V388.304C227.775 389.551 228.191 390.231 229.174 390.231C230.232 390.231 230.925 389.551 230.925 388.304V384.322H231.958V391ZM234.1 384.322H235.007L235.045 385.557C235.271 384.713 235.775 384.322 236.645 384.322H237.287V385.229H236.645C235.624 385.229 235.133 385.859 235.133 387.018V391H234.1V384.322ZM242.098 392.89V384.322H243.03L243.068 385.343C243.433 384.587 244.164 384.171 245.134 384.171C247.125 384.171 248.02 385.809 248.02 387.661C248.02 389.513 247.125 391.151 245.134 391.151C244.202 391.151 243.496 390.761 243.131 390.042V392.89H242.098ZM243.017 387.661C243.017 388.934 243.597 390.156 244.958 390.156C246.344 390.156 246.911 388.959 246.911 387.661C246.911 386.363 246.344 385.154 244.958 385.154C243.597 385.154 243.017 386.388 243.017 387.661ZM249.373 386.288C249.638 384.99 250.671 384.171 252.095 384.171C253.821 384.171 254.779 385.179 254.779 386.968V389.652C254.779 389.954 254.905 390.08 255.195 390.08H255.459V391H255.018C254.338 391 253.746 390.773 253.758 389.954C253.468 390.584 252.712 391.151 251.654 391.151C250.331 391.151 249.26 390.446 249.26 389.261C249.26 387.888 250.306 387.535 251.767 387.245L253.746 386.867C253.733 385.708 253.191 385.154 252.095 385.154C251.238 385.154 250.671 385.595 250.47 386.376L249.373 386.288ZM250.344 389.261C250.344 389.803 250.81 390.244 251.793 390.231C252.901 390.231 253.771 389.45 253.771 387.9V387.787L252.171 388.064C251.175 388.241 250.344 388.316 250.344 389.261ZM255.873 384.322H256.981L259.01 389.891L260.963 384.322H262.059L259.35 391.844C259.098 392.562 258.619 392.89 257.863 392.89H257.07V391.97H257.763C258.103 391.97 258.304 391.844 258.43 391.491L258.67 390.874H258.317L255.873 384.322ZM263.409 384.322H264.354L264.392 385.456C264.694 384.637 265.387 384.171 266.32 384.171C267.277 384.171 267.97 384.687 268.26 385.582C268.55 384.675 269.256 384.171 270.302 384.171C271.637 384.171 272.418 385.103 272.418 386.703V391H271.385V387.006C271.385 385.784 270.906 385.091 270.087 385.091C269.041 385.091 268.437 385.796 268.437 387.018V391H267.403V387.006C267.403 385.809 266.912 385.091 266.106 385.091C265.072 385.091 264.442 385.821 264.442 387.006V391H263.409V384.322ZM273.82 387.661C273.82 385.544 275.017 384.171 276.869 384.171C278.356 384.171 279.654 385.166 279.767 387.522L279.78 387.989H274.916C275.017 389.362 275.71 390.168 276.869 390.168C277.6 390.168 278.255 389.74 278.558 389.034L279.667 389.11C279.276 390.37 278.155 391.151 276.869 391.151C275.017 391.151 273.82 389.778 273.82 387.661ZM274.942 387.069H278.646C278.457 385.658 277.701 385.154 276.869 385.154C275.798 385.154 275.105 385.859 274.942 387.069ZM281.386 384.322H282.331L282.369 385.469C282.709 384.574 283.503 384.171 284.423 384.171C285.948 384.171 286.678 385.292 286.678 386.703V391H285.645V387.006C285.645 385.771 285.229 385.091 284.209 385.091C283.125 385.091 282.42 385.771 282.42 387.006V391H281.386V384.322ZM289.105 382.81H290.138V384.322H291.915V385.242H290.138V389.236C290.138 389.803 290.415 390.08 290.944 390.08H291.902V391H290.944C289.76 391 289.105 390.37 289.105 389.236V385.242H288.122V384.322H289.105V382.81ZM296.62 384.322H297.565L297.602 385.456C297.905 384.637 298.598 384.171 299.53 384.171C300.488 384.171 301.181 384.687 301.471 385.582C301.76 384.675 302.466 384.171 303.512 384.171C304.847 384.171 305.629 385.103 305.629 386.703V391H304.595V387.006C304.595 385.784 304.117 385.091 303.298 385.091C302.252 385.091 301.647 385.796 301.647 387.018V391H300.614V387.006C300.614 385.809 300.122 385.091 299.316 385.091C298.283 385.091 297.653 385.821 297.653 387.006V391H296.62V384.322ZM307.031 387.661C307.031 385.544 308.228 384.171 310.08 384.171C311.567 384.171 312.864 385.166 312.978 387.522L312.99 387.989H308.127C308.228 389.362 308.921 390.168 310.08 390.168C310.811 390.168 311.466 389.74 311.768 389.034L312.877 389.11C312.486 390.37 311.365 391.151 310.08 391.151C308.228 391.151 307.031 389.778 307.031 387.661ZM308.152 387.069H311.856C311.667 385.658 310.911 385.154 310.08 385.154C309.009 385.154 308.316 385.859 308.152 387.069ZM314.945 382.81H315.978V384.322H317.754V385.242H315.978V389.236C315.978 389.803 316.255 390.08 316.784 390.08H317.742V391H316.784C315.6 391 314.945 390.37 314.945 389.236V385.242H313.962V384.322H314.945V382.81ZM319.31 382.054H320.343V385.254C320.733 384.511 321.515 384.171 322.346 384.171C323.871 384.171 324.602 385.292 324.602 386.703V391H323.568V387.081C323.568 385.834 323.153 385.154 322.132 385.154C321.048 385.154 320.343 385.834 320.343 387.081V391H319.31V382.054ZM329.054 391.151C327.201 391.151 326.004 389.778 326.004 387.661C326.004 385.544 327.201 384.171 329.054 384.171C330.906 384.171 332.103 385.544 332.103 387.661C332.103 389.778 330.906 391.151 329.054 391.151ZM327.088 387.661C327.088 389.223 327.806 390.168 329.054 390.168C330.288 390.168 331.019 389.223 331.019 387.661C331.019 386.099 330.288 385.154 329.054 385.154C327.806 385.154 327.088 386.099 327.088 387.661ZM339.211 382.054V391H338.278L338.241 390.017C337.863 390.723 337.144 391.151 336.111 391.151C334.183 391.151 333.289 389.513 333.289 387.661C333.289 385.809 334.183 384.171 336.111 384.171C337.094 384.171 337.8 384.549 338.178 385.229V382.054H339.211ZM334.372 387.661C334.372 388.959 334.927 390.168 336.325 390.168C337.699 390.168 338.266 388.934 338.266 387.661C338.266 386.338 337.699 385.116 336.325 385.116C334.927 385.116 334.372 386.325 334.372 387.661ZM345.152 383.868C345.152 382.772 345.719 382.054 346.942 382.054H347.95V382.961H346.929C346.488 382.961 346.186 383.314 346.186 383.868V384.322H347.874V385.242H346.186V391H345.152V385.242H344.245V384.322H345.152V383.868ZM348.943 386.288C349.208 384.99 350.241 384.171 351.665 384.171C353.391 384.171 354.348 385.179 354.348 386.968V389.652C354.348 389.954 354.474 390.08 354.764 390.08H355.029V391H354.588C353.907 391 353.315 390.773 353.328 389.954C353.038 390.584 352.282 391.151 351.224 391.151C349.901 391.151 348.83 390.446 348.83 389.261C348.83 387.888 349.875 387.535 351.337 387.245L353.315 386.867C353.303 385.708 352.761 385.154 351.665 385.154C350.808 385.154 350.241 385.595 350.039 386.376L348.943 386.288ZM349.913 389.261C349.913 389.803 350.379 390.244 351.362 390.231C352.471 390.231 353.34 389.45 353.34 387.9V387.787L351.74 388.064C350.745 388.241 349.913 388.316 349.913 389.261ZM356.445 384.322H357.478V391H356.445V384.322ZM356.42 383.276V382.079H357.503V383.276H356.42ZM359.645 382.054H360.678V389.664C360.678 389.954 360.817 390.08 361.106 390.08H361.673V391H360.955C360.161 391 359.645 390.483 359.645 389.715V382.054ZM362.648 387.661C362.648 385.544 363.845 384.171 365.697 384.171C367.184 384.171 368.481 385.166 368.595 387.522L368.607 387.989H363.744C363.845 389.362 364.538 390.168 365.697 390.168C366.428 390.168 367.083 389.74 367.385 389.034L368.494 389.11C368.103 390.37 366.982 391.151 365.697 391.151C363.845 391.151 362.648 389.778 362.648 387.661ZM363.769 387.069H367.473C367.284 385.658 366.528 385.154 365.697 385.154C364.626 385.154 363.933 385.859 363.769 387.069ZM375.719 382.054V391H374.786L374.749 390.017C374.371 390.723 373.652 391.151 372.619 391.151C370.691 391.151 369.797 389.513 369.797 387.661C369.797 385.809 370.691 384.171 372.619 384.171C373.602 384.171 374.308 384.549 374.686 385.229V382.054H375.719ZM370.88 387.661C370.88 388.959 371.435 390.168 372.833 390.168C374.207 390.168 374.774 388.934 374.774 387.661C374.774 386.338 374.207 385.116 372.833 385.116C371.435 385.116 370.88 386.325 370.88 387.661Z" fill="#171717"/>
<path d="M212.148 403.592C213.037 403.592 213.423 403.194 213.423 402.293H214.195V410.6H213.212V404.422H211.493V403.592H212.148ZM221.316 402.293V410.6H220.451L220.416 409.687C220.065 410.343 219.398 410.74 218.438 410.74C216.648 410.74 215.817 409.219 215.817 407.5C215.817 405.78 216.648 404.259 218.438 404.259C219.351 404.259 220.006 404.61 220.357 405.241V402.293H221.316ZM216.824 407.5C216.824 408.705 217.338 409.828 218.637 409.828C219.912 409.828 220.439 408.681 220.439 407.5C220.439 406.271 219.912 405.136 218.637 405.136C217.338 405.136 216.824 406.259 216.824 407.5ZM225.886 406.224C226.132 405.019 227.091 404.259 228.413 404.259C230.016 404.259 230.905 405.195 230.905 406.856V409.348C230.905 409.629 231.022 409.746 231.291 409.746H231.537V410.6H231.128C230.496 410.6 229.946 410.389 229.958 409.629C229.689 410.214 228.987 410.74 228.004 410.74C226.775 410.74 225.781 410.085 225.781 408.985C225.781 407.71 226.752 407.383 228.109 407.113L229.946 406.762C229.934 405.686 229.431 405.171 228.413 405.171C227.618 405.171 227.091 405.581 226.904 406.306L225.886 406.224ZM226.787 408.985C226.787 409.489 227.22 409.898 228.132 409.886C229.162 409.886 229.969 409.161 229.969 407.722V407.617L228.483 407.874C227.559 408.038 226.787 408.108 226.787 408.985ZM235.169 410.272C233.473 410.272 232.385 409.009 232.385 407.266C232.385 405.522 233.496 404.259 235.169 404.259C236 404.259 236.679 404.727 236.948 405.394V404.399H237.872V409.992C237.872 411.618 236.761 412.495 235.146 412.495C233.824 412.495 232.829 411.77 232.56 410.694L233.567 410.623C233.812 411.22 234.35 411.583 235.146 411.583C236.246 411.583 236.913 411.091 236.913 410.202V409.173C236.538 409.91 235.836 410.272 235.169 410.272ZM233.391 407.266C233.391 408.482 234.058 409.36 235.169 409.36C236.234 409.36 236.913 408.471 236.924 407.266C236.948 406.06 236.269 405.171 235.169 405.171C234.058 405.171 233.391 406.049 233.391 407.266ZM242.243 410.74C240.523 410.74 239.412 409.465 239.412 407.5C239.412 405.534 240.523 404.259 242.243 404.259C243.963 404.259 245.075 405.534 245.075 407.5C245.075 409.465 243.963 410.74 242.243 410.74ZM240.418 407.5C240.418 408.95 241.085 409.828 242.243 409.828C243.39 409.828 244.068 408.95 244.068 407.5C244.068 406.049 243.39 405.171 242.243 405.171C241.085 405.171 240.418 406.049 240.418 407.5Z" fill="#666666"/>
<ellipse cx="488.4" cy="396.3" rx="3.6" ry="3.6" fill="#0070F3"/>
<rect width="360" height="65.4" transform="translate(150 429)" fill="white"/>
<g clip-path="url(#clip8_179_34691)">
<circle cx="182.4" cy="461.7" r="13.05" fill="black" stroke="black" stroke-width="2.7" stroke-linecap="round" stroke-linejoin="round"/>
<path fill-rule="evenodd" clip-rule="evenodd" d="M182.4 455.4L188.7 466.425H176.1L182.4 455.4Z" fill="white"/>
</g>
<path d="M218.171 450.527L215.724 457.4H213.934L211.486 450.527H213.214L214.793 455.633H214.865L216.449 450.527H218.171ZM222.101 457.534C221.412 457.534 220.817 457.391 220.316 457.105C219.817 456.815 219.434 456.407 219.166 455.879C218.897 455.348 218.763 454.723 218.763 454.004C218.763 453.297 218.897 452.676 219.166 452.142C219.437 451.606 219.816 451.188 220.302 450.89C220.788 450.588 221.36 450.438 222.016 450.438C222.439 450.438 222.839 450.506 223.215 450.644C223.594 450.778 223.928 450.987 224.217 451.27C224.51 451.553 224.739 451.914 224.906 452.353C225.073 452.788 225.157 453.307 225.157 453.91V454.407H219.524V453.315H223.604C223.601 453.005 223.534 452.729 223.403 452.487C223.272 452.242 223.088 452.05 222.853 451.91C222.62 451.77 222.348 451.699 222.038 451.699C221.707 451.699 221.416 451.78 221.166 451.941C220.915 452.099 220.72 452.308 220.58 452.568C220.442 452.824 220.372 453.106 220.369 453.413V454.366C220.369 454.766 220.442 455.109 220.588 455.395C220.735 455.679 220.939 455.896 221.201 456.049C221.464 456.198 221.771 456.272 222.123 456.272C222.359 456.272 222.572 456.24 222.763 456.174C222.954 456.105 223.12 456.005 223.26 455.874C223.4 455.743 223.506 455.58 223.577 455.386L225.09 455.556C224.994 455.956 224.812 456.305 224.544 456.603C224.278 456.899 223.938 457.128 223.524 457.293C223.109 457.454 222.635 457.534 222.101 457.534ZM226.527 457.4V450.527H228.098V451.673H228.169C228.295 451.276 228.509 450.97 228.814 450.755C229.121 450.538 229.471 450.429 229.865 450.429C229.955 450.429 230.055 450.433 230.165 450.442C230.278 450.448 230.372 450.459 230.447 450.473V451.963C230.378 451.94 230.269 451.919 230.12 451.901C229.974 451.88 229.832 451.87 229.695 451.87C229.4 451.87 229.134 451.934 228.899 452.062C228.666 452.187 228.483 452.362 228.348 452.585C228.214 452.809 228.147 453.067 228.147 453.359V457.4H226.527ZM234.238 457.534C233.552 457.534 232.963 457.383 232.47 457.082C231.981 456.781 231.604 456.365 231.338 455.834C231.076 455.3 230.945 454.685 230.945 453.99C230.945 453.292 231.079 452.676 231.347 452.142C231.616 451.606 231.995 451.188 232.484 450.89C232.976 450.588 233.558 450.438 234.229 450.438C234.787 450.438 235.28 450.541 235.71 450.746C236.142 450.949 236.487 451.237 236.743 451.61C237 451.98 237.146 452.412 237.182 452.908H235.634C235.571 452.576 235.422 452.301 235.186 452.08C234.954 451.856 234.642 451.744 234.251 451.744C233.92 451.744 233.629 451.834 233.379 452.013C233.128 452.189 232.933 452.442 232.793 452.773C232.655 453.104 232.587 453.501 232.587 453.964C232.587 454.432 232.655 454.835 232.793 455.172C232.93 455.506 233.122 455.764 233.37 455.946C233.62 456.125 233.914 456.214 234.251 456.214C234.49 456.214 234.703 456.169 234.891 456.08C235.082 455.987 235.242 455.855 235.37 455.682C235.498 455.509 235.586 455.298 235.634 455.051H237.182C237.143 455.537 237 455.968 236.752 456.344C236.505 456.717 236.168 457.009 235.741 457.221C235.315 457.43 234.813 457.534 234.238 457.534ZM241.555 457.534C240.865 457.534 240.27 457.391 239.769 457.105C239.271 456.815 238.888 456.407 238.619 455.879C238.351 455.348 238.217 454.723 238.217 454.004C238.217 453.297 238.351 452.676 238.619 452.142C238.891 451.606 239.27 451.188 239.756 450.89C240.242 450.588 240.813 450.438 241.47 450.438C241.893 450.438 242.293 450.506 242.669 450.644C243.048 450.778 243.382 450.987 243.671 451.27C243.963 451.553 244.193 451.914 244.36 452.353C244.527 452.788 244.611 453.307 244.611 453.91V454.407H238.977V453.315H243.058C243.055 453.005 242.988 452.729 242.857 452.487C242.725 452.242 242.542 452.05 242.306 451.91C242.074 451.77 241.802 451.699 241.492 451.699C241.161 451.699 240.87 451.78 240.619 451.941C240.369 452.099 240.173 452.308 240.033 452.568C239.896 452.824 239.826 453.106 239.823 453.413V454.366C239.823 454.766 239.896 455.109 240.042 455.395C240.188 455.679 240.393 455.896 240.655 456.049C240.918 456.198 241.225 456.272 241.577 456.272C241.813 456.272 242.026 456.24 242.217 456.174C242.408 456.105 242.573 456.005 242.713 455.874C242.854 455.743 242.96 455.58 243.031 455.386L244.543 455.556C244.448 455.956 244.266 456.305 243.998 456.603C243.732 456.899 243.392 457.128 242.977 457.293C242.563 457.454 242.089 457.534 241.555 457.534ZM247.601 448.236V457.4H245.981V448.236H247.601ZM250.264 457.498C249.993 457.498 249.76 457.403 249.566 457.212C249.372 457.021 249.277 456.788 249.28 456.514C249.277 456.245 249.372 456.016 249.566 455.825C249.76 455.634 249.993 455.539 250.264 455.539C250.527 455.539 250.755 455.634 250.949 455.825C251.146 456.016 251.245 456.245 251.248 456.514C251.245 456.696 251.198 456.861 251.105 457.011C251.016 457.16 250.896 457.279 250.747 457.369C250.601 457.455 250.44 457.498 250.264 457.498ZM255.919 457.534C255.233 457.534 254.643 457.383 254.151 457.082C253.662 456.781 253.285 456.365 253.019 455.834C252.757 455.3 252.625 454.685 252.625 453.99C252.625 453.292 252.76 452.676 253.028 452.142C253.297 451.606 253.675 451.188 254.165 450.89C254.657 450.588 255.238 450.438 255.91 450.438C256.467 450.438 256.961 450.541 257.391 450.746C257.823 450.949 258.168 451.237 258.424 451.61C258.681 451.98 258.827 452.412 258.863 452.908H257.315C257.252 452.576 257.103 452.301 256.867 452.08C256.635 451.856 256.323 451.744 255.932 451.744C255.601 451.744 255.31 451.834 255.06 452.013C254.809 452.189 254.614 452.442 254.473 452.773C254.336 453.104 254.268 453.501 254.268 453.964C254.268 454.432 254.336 454.835 254.473 455.172C254.611 455.506 254.803 455.764 255.051 455.946C255.301 456.125 255.595 456.214 255.932 456.214C256.171 456.214 256.384 456.169 256.572 456.08C256.763 455.987 256.922 455.855 257.051 455.682C257.179 455.509 257.267 455.298 257.315 455.051H258.863C258.824 455.537 258.681 455.968 258.433 456.344C258.186 456.717 257.849 457.009 257.422 457.221C256.995 457.43 256.494 457.534 255.919 457.534ZM263.191 457.534C262.52 457.534 261.938 457.386 261.446 457.091C260.953 456.796 260.572 456.383 260.3 455.852C260.032 455.321 259.897 454.7 259.897 453.99C259.897 453.28 260.032 452.658 260.3 452.125C260.572 451.591 260.953 451.176 261.446 450.881C261.938 450.585 262.52 450.438 263.191 450.438C263.862 450.438 264.444 450.585 264.936 450.881C265.428 451.176 265.808 451.591 266.077 452.125C266.348 452.658 266.484 453.28 266.484 453.99C266.484 454.7 266.348 455.321 266.077 455.852C265.808 456.383 265.428 456.796 264.936 457.091C264.444 457.386 263.862 457.534 263.191 457.534ZM263.2 456.237C263.564 456.237 263.868 456.137 264.112 455.937C264.357 455.734 264.539 455.462 264.658 455.122C264.781 454.782 264.842 454.404 264.842 453.986C264.842 453.565 264.781 453.185 264.658 452.845C264.539 452.502 264.357 452.229 264.112 452.026C263.868 451.823 263.564 451.722 263.2 451.722C262.827 451.722 262.517 451.823 262.269 452.026C262.024 452.229 261.841 452.502 261.719 452.845C261.599 453.185 261.54 453.565 261.54 453.986C261.54 454.404 261.599 454.782 261.719 455.122C261.841 455.462 262.024 455.734 262.269 455.937C262.517 456.137 262.827 456.237 263.2 456.237ZM267.859 457.4V450.527H269.407V451.695H269.487C269.631 451.301 269.868 450.994 270.199 450.773C270.53 450.55 270.925 450.438 271.384 450.438C271.85 450.438 272.242 450.551 272.561 450.778C272.883 451.001 273.11 451.307 273.241 451.695H273.313C273.465 451.313 273.722 451.009 274.083 450.782C274.446 450.553 274.878 450.438 275.376 450.438C276.008 450.438 276.524 450.638 276.924 451.037C277.324 451.437 277.523 452.02 277.523 452.787V457.4H275.899V453.037C275.899 452.611 275.786 452.299 275.559 452.102C275.332 451.902 275.055 451.802 274.727 451.802C274.336 451.802 274.03 451.925 273.81 452.169C273.592 452.411 273.483 452.726 273.483 453.113V457.4H271.895V452.97C271.895 452.615 271.787 452.332 271.572 452.12C271.361 451.908 271.083 451.802 270.74 451.802C270.507 451.802 270.296 451.862 270.105 451.981C269.914 452.098 269.762 452.263 269.648 452.478C269.535 452.69 269.478 452.937 269.478 453.221V457.4H267.859ZM287.999 448.454V457.4H287.066L287.028 456.417C286.65 457.123 285.932 457.551 284.899 457.551C282.971 457.551 282.077 455.913 282.077 454.061C282.077 452.209 282.971 450.571 284.899 450.571C285.882 450.571 286.587 450.949 286.965 451.629V448.454H287.999ZM283.16 454.061C283.16 455.359 283.715 456.568 285.113 456.568C286.487 456.568 287.054 455.334 287.054 454.061C287.054 452.738 286.487 451.516 285.113 451.516C283.715 451.516 283.16 452.725 283.16 454.061ZM292.705 457.551C290.853 457.551 289.656 456.178 289.656 454.061C289.656 451.944 290.853 450.571 292.705 450.571C294.558 450.571 295.755 451.944 295.755 454.061C295.755 456.178 294.558 457.551 292.705 457.551ZM290.74 454.061C290.74 455.623 291.458 456.568 292.705 456.568C293.94 456.568 294.671 455.623 294.671 454.061C294.671 452.499 293.94 451.554 292.705 451.554C291.458 451.554 290.74 452.499 290.74 454.061ZM297.358 450.722H298.303L298.341 451.856C298.643 451.037 299.336 450.571 300.269 450.571C301.226 450.571 301.919 451.087 302.209 451.982C302.499 451.075 303.204 450.571 304.25 450.571C305.586 450.571 306.367 451.503 306.367 453.103V457.4H305.334V453.406C305.334 452.184 304.855 451.491 304.036 451.491C302.99 451.491 302.385 452.196 302.385 453.418V457.4H301.352V453.406C301.352 452.209 300.861 451.491 300.054 451.491C299.021 451.491 298.391 452.221 298.391 453.406V457.4H297.358V450.722ZM308.067 452.688C308.331 451.39 309.365 450.571 310.788 450.571C312.515 450.571 313.472 451.579 313.472 453.368V456.052C313.472 456.354 313.598 456.48 313.888 456.48H314.153V457.4H313.712C313.031 457.4 312.439 457.173 312.452 456.354C312.162 456.984 311.406 457.551 310.347 457.551C309.024 457.551 307.953 456.846 307.953 455.661C307.953 454.288 308.999 453.935 310.461 453.645L312.439 453.267C312.426 452.108 311.885 451.554 310.788 451.554C309.932 451.554 309.365 451.995 309.163 452.776L308.067 452.688ZM309.037 455.661C309.037 456.203 309.503 456.644 310.486 456.631C311.595 456.631 312.464 455.85 312.464 454.3V454.187L310.864 454.464C309.869 454.641 309.037 454.716 309.037 455.661ZM315.569 450.722H316.602V457.4H315.569V450.722ZM315.544 449.676V448.479H316.627V449.676H315.544ZM318.571 450.722H319.516L319.554 451.869C319.894 450.974 320.688 450.571 321.608 450.571C323.132 450.571 323.863 451.692 323.863 453.103V457.4H322.83V453.406C322.83 452.171 322.414 451.491 321.394 451.491C320.31 451.491 319.604 452.171 319.604 453.406V457.4H318.571V450.722ZM329.079 450.722H329.987L330.024 451.957C330.251 451.113 330.755 450.722 331.625 450.722H332.267V451.629H331.625C330.604 451.629 330.113 452.259 330.113 453.418V457.4H329.079V450.722ZM332.944 454.061C332.944 451.944 334.141 450.571 335.993 450.571C337.48 450.571 338.778 451.566 338.891 453.922L338.904 454.389H334.04C334.141 455.762 334.834 456.568 335.993 456.568C336.724 456.568 337.379 456.14 337.682 455.434L338.791 455.51C338.4 456.77 337.279 457.551 335.993 457.551C334.141 457.551 332.944 456.178 332.944 454.061ZM334.066 453.469H337.77C337.581 452.058 336.825 451.554 335.993 451.554C334.922 451.554 334.229 452.259 334.066 453.469ZM340.51 450.722H341.455L341.493 451.869C341.833 450.974 342.627 450.571 343.547 450.571C345.072 450.571 345.802 451.692 345.802 453.103V457.4H344.769V453.406C344.769 452.171 344.353 451.491 343.333 451.491C342.249 451.491 341.544 452.171 341.544 453.406V457.4H340.51V450.722ZM347.205 454.061C347.205 451.944 348.402 450.571 350.255 450.571C351.741 450.571 353.039 451.566 353.153 453.922L353.165 454.389H348.302C348.402 455.762 349.095 456.568 350.255 456.568C350.985 456.568 351.641 456.14 351.943 455.434L353.052 455.51C352.661 456.77 351.54 457.551 350.255 457.551C348.402 457.551 347.205 456.178 347.205 454.061ZM348.327 453.469H352.031C351.842 452.058 351.086 451.554 350.255 451.554C349.184 451.554 348.491 452.259 348.327 453.469ZM359.137 450.722L360.738 456.253L362.35 450.722H363.459L361.393 457.4H360.095L358.596 452.284L357.084 457.4H355.786L353.719 450.722H354.828L356.441 456.253L358.041 450.722H359.137ZM364.014 454.061C364.014 451.944 365.211 450.571 367.063 450.571C368.55 450.571 369.847 451.566 369.961 453.922L369.973 454.389H365.11C365.211 455.762 365.904 456.568 367.063 456.568C367.794 456.568 368.449 456.14 368.751 455.434L369.86 455.51C369.469 456.77 368.348 457.551 367.063 457.551C365.211 457.551 364.014 456.178 364.014 454.061ZM365.135 453.469H368.839C368.65 452.058 367.894 451.554 367.063 451.554C365.992 451.554 365.299 452.259 365.135 453.469ZM377.085 448.454V457.4H376.152L376.114 456.417C375.736 457.123 375.018 457.551 373.985 457.551C372.057 457.551 371.163 455.913 371.163 454.061C371.163 452.209 372.057 450.571 373.985 450.571C374.968 450.571 375.673 450.949 376.051 451.629V448.454H377.085ZM372.246 454.061C372.246 455.359 372.801 456.568 374.199 456.568C375.573 456.568 376.14 455.334 376.14 454.061C376.14 452.738 375.573 451.516 374.199 451.516C372.801 451.516 372.246 452.725 372.246 454.061Z" fill="#171717"/>
<path d="M211.925 470.173C212.148 468.629 213.236 467.506 214.897 467.506C216.418 467.506 217.53 468.512 217.53 469.869C217.53 471.063 216.582 471.893 215.318 472.665C214.616 473.075 213.025 474.198 212.99 475.041H217.6V476H211.773C211.773 473.566 213.517 472.642 214.967 471.741C215.868 471.168 216.5 470.524 216.5 469.869C216.5 469.05 215.845 468.465 214.897 468.465C213.879 468.465 213.177 469.097 212.955 470.244L211.925 470.173ZM224.219 467.693V476H223.353L223.318 475.087C222.967 475.743 222.3 476.14 221.34 476.14C219.55 476.14 218.72 474.619 218.72 472.899C218.72 471.18 219.55 469.659 221.34 469.659C222.253 469.659 222.908 470.01 223.259 470.641V467.693H224.219ZM219.726 472.899C219.726 474.105 220.241 475.228 221.539 475.228C222.815 475.228 223.341 474.081 223.341 472.899C223.341 471.671 222.815 470.536 221.539 470.536C220.241 470.536 219.726 471.659 219.726 472.899ZM228.788 471.624C229.034 470.419 229.993 469.659 231.315 469.659C232.918 469.659 233.808 470.595 233.808 472.256V474.748C233.808 475.029 233.925 475.146 234.194 475.146H234.439V476H234.03C233.398 476 232.848 475.789 232.86 475.029C232.591 475.614 231.889 476.14 230.906 476.14C229.677 476.14 228.683 475.485 228.683 474.385C228.683 473.11 229.654 472.782 231.011 472.513L232.848 472.162C232.836 471.086 232.333 470.571 231.315 470.571C230.52 470.571 229.993 470.981 229.806 471.706L228.788 471.624ZM229.689 474.385C229.689 474.888 230.122 475.298 231.035 475.286C232.064 475.286 232.872 474.561 232.872 473.122V473.016L231.386 473.274C230.461 473.438 229.689 473.508 229.689 474.385ZM238.072 475.672C236.375 475.672 235.287 474.409 235.287 472.665C235.287 470.922 236.399 469.659 238.072 469.659C238.902 469.659 239.581 470.127 239.85 470.793V469.799H240.774V475.392C240.774 477.018 239.663 477.895 238.048 477.895C236.726 477.895 235.732 477.17 235.463 476.094L236.469 476.023C236.714 476.62 237.253 476.983 238.048 476.983C239.148 476.983 239.815 476.491 239.815 475.602V474.573C239.441 475.31 238.739 475.672 238.072 475.672ZM236.293 472.665C236.293 473.882 236.96 474.76 238.072 474.76C239.136 474.76 239.815 473.871 239.827 472.665C239.85 471.46 239.171 470.571 238.072 470.571C236.96 470.571 236.293 471.449 236.293 472.665ZM245.145 476.14C243.425 476.14 242.314 474.865 242.314 472.899C242.314 470.934 243.425 469.659 245.145 469.659C246.865 469.659 247.977 470.934 247.977 472.899C247.977 474.865 246.865 476.14 245.145 476.14ZM243.32 472.899C243.32 474.35 243.987 475.228 245.145 475.228C246.292 475.228 246.97 474.35 246.97 472.899C246.97 471.449 246.292 470.571 245.145 470.571C243.987 470.571 243.32 471.449 243.32 472.899Z" fill="#666666"/>
<mask id="path-54-outside-6_179_34691" maskUnits="userSpaceOnUse" x="150" y="491" width="360" height="45" fill="black">
<rect fill="white" x="150" y="491" width="360" height="45"/>
<path d="M150 492H510V535.2H150V492Z"/>
</mask>
<path d="M150 492H510V535.2H150V492Z" fill="white"/>
<path d="M150 492.9H510V491.1H150V492.9Z" fill="black" fill-opacity="0.08" mask="url(#path-54-outside-6_179_34691)"/>
<path d="M297.777 517.6L301.003 508.654H302.679L305.904 517.6H304.493L303.674 515.244H300.007L299.188 517.6H297.777ZM300.436 514.022H303.246L301.847 509.914L300.436 514.022ZM307.195 510.922H308.392L308.43 512.182C308.644 511.325 309.148 510.922 310.018 510.922H310.66V512.006H310.005C308.972 512.006 308.506 512.573 308.506 513.694V517.6H307.195V510.922ZM316.007 513.253C315.881 512.409 315.213 511.917 314.457 511.917C313.311 511.917 312.655 512.799 312.655 514.261C312.655 515.723 313.311 516.605 314.457 516.605C315.251 516.605 315.919 516.088 316.057 515.156L317.431 515.231C317.217 516.794 315.969 517.751 314.457 517.751C312.542 517.751 311.295 516.39 311.295 514.261C311.295 512.132 312.542 510.771 314.457 510.771C315.919 510.771 317.191 511.678 317.368 513.177L316.007 513.253ZM318.811 508.654H320.121V511.817C320.512 511.086 321.268 510.771 322.087 510.771C323.586 510.771 324.33 511.88 324.33 513.303V517.6H323.019V513.757C323.019 512.585 322.666 511.943 321.734 511.943C320.739 511.943 320.121 512.585 320.121 513.757V517.6H318.811V508.654ZM326.046 510.922H327.356V517.6H326.046V510.922ZM326.033 509.927V508.654H327.394V509.927H326.033ZM335.063 510.922L332.619 517.6H331.094L328.65 510.922H329.998L331.863 516.252L333.715 510.922H335.063ZM335.572 514.261C335.572 512.132 336.819 510.771 338.734 510.771C340.297 510.771 341.657 511.804 341.733 514.185L341.746 514.639H336.945C337.046 515.886 337.676 516.617 338.734 516.617C339.402 516.617 339.994 516.239 340.271 515.597L341.645 515.697C341.254 516.957 340.082 517.751 338.734 517.751C336.819 517.751 335.572 516.39 335.572 514.261ZM336.97 513.631H340.36C340.183 512.346 339.49 511.905 338.734 511.905C337.751 511.905 337.134 512.547 336.97 513.631ZM345.667 517.6L348.893 508.654H350.568L353.794 517.6H352.383L351.564 515.244H347.897L347.078 517.6H345.667ZM348.326 514.022H351.135L349.737 509.914L348.326 514.022ZM355.148 508.654H356.458V516.075C356.458 516.378 356.597 516.516 356.887 516.516H357.441V517.6H356.61C355.728 517.6 355.148 517.033 355.148 516.138V508.654ZM358.987 508.654H360.297V516.075C360.297 516.378 360.436 516.516 360.726 516.516H361.28V517.6H360.449C359.567 517.6 358.987 517.033 358.987 516.138V508.654Z" fill="#171717"/>
</g>
<rect x="149.55" y="124.35" width="360.9" height="411.3" rx="11.25" stroke="#EAEAEA" stroke-width="0.9"/>
<defs>
<filter id="filter0_ddd_179_34691" x="128.4" y="121.2" width="403.2" height="457.2" filterUnits="userSpaceOnUse" color-interpolation-filters="sRGB">
<feFlood flood-opacity="0" result="BackgroundImageFix"/>
<feColorMatrix in="SourceAlpha" type="matrix" values="0 0 0 0 0 0 0 0 0 0 0 0 0 0 0 0 0 0 127 0" result="hardAlpha"/>
<feMorphology radius="7.2" operator="erode" in="SourceAlpha" result="effect1_dropShadow_179_34691"/>
<feOffset dy="21.6"/>
<feGaussianBlur stdDeviation="14.4"/>
<feComposite in2="hardAlpha" operator="out"/>
<feColorMatrix type="matrix" values="0 0 0 0 0 0 0 0 0 0 0 0 0 0 0 0 0 0 0.06 0"/>
<feBlend mode="normal" in2="BackgroundImageFix" result="effect1_dropShadow_179_34691"/>
<feColorMatrix in="SourceAlpha" type="matrix" values="0 0 0 0 0 0 0 0 0 0 0 0 0 0 0 0 0 0 127 0" result="hardAlpha"/>
<feMorphology radius="3.6" operator="erode" in="SourceAlpha" result="effect2_dropShadow_179_34691"/>
<feOffset dy="7.2"/>
<feGaussianBlur stdDeviation="7.2"/>
<feColorMatrix type="matrix" values="0 0 0 0 0 0 0 0 0 0 0 0 0 0 0 0 0 0 0.04 0"/>
<feBlend mode="normal" in2="effect1_dropShadow_179_34691" result="effect2_dropShadow_179_34691"/>
<feColorMatrix in="SourceAlpha" type="matrix" values="0 0 0 0 0 0 0 0 0 0 0 0 0 0 0 0 0 0 127 0" result="hardAlpha"/>
<feOffset dy="0.9"/>
<feGaussianBlur stdDeviation="0.45"/>
<feColorMatrix type="matrix" values="0 0 0 0 0 0 0 0 0 0 0 0 0 0 0 0 0 0 0.02 0"/>
<feBlend mode="normal" in2="effect2_dropShadow_179_34691" result="effect3_dropShadow_179_34691"/>
<feBlend mode="normal" in="SourceGraphic" in2="effect3_dropShadow_179_34691" result="shape"/>
</filter>
<filter id="filter1_d_179_34691" x="481.013" y="340.025" width="17.5575" height="18.4212" filterUnits="userSpaceOnUse" color-interpolation-filters="sRGB">
<feFlood flood-opacity="0" result="BackgroundImageFix"/>
<feColorMatrix in="SourceAlpha" type="matrix" values="0 0 0 0 0 0 0 0 0 0 0 0 0 0 0 0 0 0 127 0" result="hardAlpha"/>
<feOffset dy="0.9"/>
<feGaussianBlur stdDeviation="1.17"/>
<feColorMatrix type="matrix" values="0 0 0 0 0 0 0 0 0 0 0 0 0 0 0 0 0 0 0.32 0"/>
<feBlend mode="normal" in2="BackgroundImageFix" result="effect1_dropShadow_179_34691"/>
<feBlend mode="normal" in="SourceGraphic" in2="effect1_dropShadow_179_34691" result="shape"/>
</filter>
<linearGradient id="paint0_linear_179_34691" x1="185.44" y1="335.44" x2="191.12" y2="342.48" gradientUnits="userSpaceOnUse">
<stop stop-color="white"/>
<stop offset="1" stop-color="white" stop-opacity="0"/>
</linearGradient>
<linearGradient id="paint1_linear_179_34691" x1="187.36" y1="325.44" x2="187.328" y2="333.9" gradientUnits="userSpaceOnUse">
<stop stop-color="white"/>
<stop offset="1" stop-color="white" stop-opacity="0"/>
</linearGradient>
<clipPath id="clip0_179_34691">
<rect x="150" y="124.8" width="360" height="410.4" rx="10.8" fill="white"/>
</clipPath>
<clipPath id="clip1_179_34691">
<path d="M150 124.8H510V168H150V124.8Z" fill="white"/>
</clipPath>
<clipPath id="clip2_179_34691">
<rect width="54.6" height="1.8" fill="white" transform="translate(157.2 166.2)"/>
</clipPath>
<clipPath id="clip3_179_34691">
<rect width="14.4" height="14.4" fill="white" transform="translate(481.2 139.2)"/>
</clipPath>
<clipPath id="clip4_179_34691">
<rect width="14.4" height="14.4" fill="white" transform="translate(174.8 193.1)"/>
</clipPath>
<clipPath id="clip5_179_34691">
<rect width="14.4" height="14.4" fill="white" transform="translate(174.8 258.5)"/>
</clipPath>
<clipPath id="clip6_179_34691">
<rect width="14.4" height="14.4" fill="white" transform="translate(481.2 324)"/>
</clipPath>
<clipPath id="clip7_179_34691">
<rect width="14.4" height="14.4" fill="white" transform="translate(174.8 388.7)"/>
</clipPath>
<clipPath id="clip8_179_34691">
<rect width="28.8" height="28.8" fill="white" transform="translate(168 447.3)"/>
</clipPath>
</defs>
</svg>
