<svg width="660" height="660" viewBox="0 0 660 660" fill="none" xmlns="http://www.w3.org/2000/svg">
<g clip-path="url(#clip0_179_35552)">
<rect width="660" height="660" fill="#FAFAFA"/>
<g filter="url(#filter0_d_179_35552)">
<rect x="56" y="56" width="548" height="735" rx="6" fill="white"/>
</g>
<g clip-path="url(#clip1_179_35552)">
<rect x="56" y="56" width="548" height="735" rx="6" fill="white"/>
<mask id="path-4-inside-1_179_35552" fill="white">
<path d="M56 56H604V130H56V56Z"/>
</mask>
<path d="M56 56H604V130H56V56Z" fill="white"/>
<path d="M604 129H56V131H604V129Z" fill="#EAEAEA" mask="url(#path-4-inside-1_179_35552)"/>
<path d="M80.46 85.8H83.12L85.74 96.52L88.38 85.8H90.76L93.42 96.52L96.02 85.8H98.7L94.92 100H92.1L89.58 90.4L87.08 100H84.26L80.46 85.8ZM98.6241 94.7C98.6241 91.34 100.684 89.16 103.824 89.16C106.504 89.16 108.684 90.96 108.764 94.72V95.38H101.224C101.344 97.18 102.284 98.24 103.824 98.24C104.804 98.24 105.684 97.68 106.084 96.76L108.624 96.94C107.984 98.98 106.084 100.24 103.824 100.24C100.684 100.24 98.6241 98.06 98.6241 94.7ZM101.244 93.68H106.204C105.984 91.82 104.964 91.14 103.824 91.14C102.384 91.14 101.464 92.1 101.244 93.68ZM110.427 85.8H112.907V90.82C113.527 89.74 114.607 89.16 116.087 89.16C119.087 89.16 120.567 91.68 120.567 94.7C120.567 97.72 119.087 100.24 116.087 100.24C114.527 100.24 113.427 99.6 112.827 98.5L112.767 100H110.427V85.8ZM112.747 94.7C112.747 96.52 113.527 98.2 115.387 98.2C117.227 98.2 118.027 96.52 118.027 94.7C118.027 92.8 117.247 91.12 115.387 91.12C113.527 91.12 112.747 92.8 112.747 94.7Z" fill="#171717"/>
<g clip-path="url(#clip2_179_35552)">
<path d="M540 93C540 86.3726 545.373 81 552 81H568C574.627 81 580 86.3726 580 93V93C580 99.6274 574.627 105 568 105H552C545.373 105 540 99.6274 540 93V93Z" fill="#0070F3"/>
<g filter="url(#filter1_dd_179_35552)">
<circle cx="568" cy="93" r="11" fill="white"/>
</g>
</g>
<path d="M552 81.5H568C574.351 81.5 579.5 86.6487 579.5 93C579.5 99.3513 574.351 104.5 568 104.5H552C545.649 104.5 540.5 99.3513 540.5 93C540.5 86.6487 545.649 81.5 552 81.5Z" stroke="black" stroke-opacity="0.08"/>
<rect width="548" height="518" transform="translate(56 130)" fill="white"/>
<path d="M85.056 160.64C88.672 160.64 90.688 162.688 90.688 166.336C90.688 169.968 88.704 172 85.152 172H81.312V160.64H85.056ZM83.328 170.224H85.056C87.456 170.224 88.624 168.944 88.624 166.336C88.624 163.68 87.456 162.416 85.056 162.416H83.328V170.224ZM91.7586 167.76C91.7586 165.072 93.4066 163.328 95.9186 163.328C98.0626 163.328 99.8066 164.768 99.8706 167.776V168.304H93.8386C93.9346 169.744 94.6866 170.592 95.9186 170.592C96.7026 170.592 97.4066 170.144 97.7266 169.408L99.7586 169.552C99.2466 171.184 97.7266 172.192 95.9186 172.192C93.4066 172.192 91.7586 170.448 91.7586 167.76ZM93.8546 166.944H97.8226C97.6466 165.456 96.8306 164.912 95.9186 164.912C94.7666 164.912 94.0306 165.68 93.8546 166.944ZM101.326 174.4V163.52H103.198L103.246 164.768C103.71 163.84 104.59 163.328 105.806 163.328C108.254 163.328 109.438 165.344 109.438 167.76C109.438 170.176 108.254 172.192 105.806 172.192C104.67 172.192 103.806 171.712 103.31 170.816V174.4H101.326ZM103.15 167.76C103.15 169.216 103.806 170.56 105.262 170.56C106.75 170.56 107.374 169.232 107.374 167.76C107.374 166.288 106.734 164.944 105.262 164.944C103.79 164.944 103.15 166.304 103.15 167.76ZM111.118 160.64H113.102V169.84C113.102 170.24 113.31 170.432 113.694 170.432H114.366V172H113.198C111.95 172 111.118 171.216 111.118 169.92V160.64ZM119.318 172.192C116.806 172.192 115.158 170.448 115.158 167.76C115.158 165.072 116.806 163.328 119.318 163.328C121.83 163.328 123.478 165.072 123.478 167.76C123.478 170.448 121.83 172.192 119.318 172.192ZM117.206 167.76C117.206 169.52 117.974 170.56 119.318 170.56C120.662 170.56 121.43 169.52 121.43 167.76C121.43 166 120.662 164.96 119.318 164.96C117.974 164.96 117.206 166 117.206 167.76ZM123.752 163.52H125.704L127.976 169.92L130.184 163.52H132.136L128.76 172.912C128.392 173.936 127.72 174.4 126.6 174.4H125.304V172.864H126.264C126.728 172.864 127 172.704 127.144 172.304L127.4 171.68H126.808L123.752 163.52ZM133.358 163.52H135.15L135.198 164.88C135.614 163.888 136.478 163.328 137.598 163.328C138.798 163.328 139.662 163.968 140.03 165.072C140.446 163.92 141.326 163.328 142.558 163.328C144.27 163.328 145.326 164.464 145.326 166.544V172H143.342V167.168C143.342 165.712 142.878 164.944 141.966 164.944C140.862 164.944 140.254 165.728 140.254 167.168V172H138.43V167.168C138.43 165.728 137.95 164.944 137.054 164.944C135.95 164.944 135.342 165.76 135.342 167.168V172H133.358V163.52ZM146.589 167.76C146.589 165.072 148.237 163.328 150.749 163.328C152.893 163.328 154.637 164.768 154.701 167.776V168.304H148.669C148.765 169.744 149.517 170.592 150.749 170.592C151.533 170.592 152.237 170.144 152.557 169.408L154.589 169.552C154.077 171.184 152.557 172.192 150.749 172.192C148.237 172.192 146.589 170.448 146.589 167.76ZM148.685 166.944H152.653C152.477 165.456 151.661 164.912 150.749 164.912C149.597 164.912 148.861 165.68 148.685 166.944ZM156.156 163.52H157.948L158.012 164.912C158.46 163.792 159.42 163.328 160.556 163.328C162.444 163.328 163.452 164.656 163.452 166.544V172H161.468V167.168C161.468 165.728 161.084 164.944 159.98 164.944C158.828 164.944 158.14 165.728 158.14 167.168V172H156.156V163.52ZM166.061 161.6H168.045V163.52H170.285V165.072H168.045V169.424C168.045 170.096 168.365 170.432 169.005 170.432H170.285V172H168.701C166.973 172 166.061 171.12 166.061 169.424V165.072H164.733V163.52H166.061V161.6ZM176.334 166.224C176.174 165.36 175.374 164.848 174.574 164.848C173.758 164.848 173.118 165.264 173.134 165.952C173.15 166.672 174.046 166.96 174.878 167.12C177.134 167.504 178.446 168.096 178.446 169.744C178.446 171.424 176.798 172.192 174.862 172.192C172.574 172.192 171.022 171.104 170.878 169.312L172.91 169.2C173.07 170.096 173.742 170.656 174.83 170.656C175.534 170.656 176.398 170.4 176.398 169.68C176.382 168.848 175.422 168.72 174.542 168.528C172.542 168.128 171.086 167.6 171.086 166C171.086 164.336 172.462 163.312 174.686 163.312C176.638 163.312 178.062 164.4 178.334 166.128L176.334 166.224Z" fill="#171717"/>
<mask id="path-11-inside-2_179_35552" fill="white">
<path d="M80 188H954V236H80V188Z"/>
</mask>
<path d="M80 188H954V236H80V188Z" fill="white"/>
<path d="M80 189H954V187H80V189Z" fill="#EAEAEA" mask="url(#path-11-inside-2_179_35552)"/>
<rect x="80" y="204" width="16" height="16" rx="4" fill="#171717"/>
<path d="M84.75 212.75L86.5 214.5L91.25 209.75" stroke="#F2F2F2" stroke-width="1.5" stroke-linecap="square" stroke-linejoin="round"/>
<path d="M112.354 207.06C115.406 207.06 117.128 208.852 117.128 212.044C117.128 215.222 115.448 217 112.438 217H109.288V207.06H112.354ZM110.464 215.852H112.354C114.72 215.852 115.896 214.578 115.896 212.044C115.896 209.482 114.72 208.208 112.354 208.208H110.464V215.852ZM118.474 213.29C118.474 210.938 119.804 209.412 121.862 209.412C123.514 209.412 124.956 210.518 125.082 213.136L125.096 213.654H119.692C119.804 215.18 120.574 216.076 121.862 216.076C122.674 216.076 123.402 215.6 123.738 214.816L124.97 214.9C124.536 216.3 123.29 217.168 121.862 217.168C119.804 217.168 118.474 215.642 118.474 213.29ZM119.72 212.632H123.836C123.626 211.064 122.786 210.504 121.862 210.504C120.672 210.504 119.902 211.288 119.72 212.632ZM126.881 219.1V209.58H127.917L127.959 210.714C128.365 209.874 129.177 209.412 130.255 209.412C132.467 209.412 133.461 211.232 133.461 213.29C133.461 215.348 132.467 217.168 130.255 217.168C129.219 217.168 128.435 216.734 128.029 215.936V219.1H126.881ZM127.903 213.29C127.903 214.704 128.547 216.062 130.059 216.062C131.599 216.062 132.229 214.732 132.229 213.29C132.229 211.848 131.599 210.504 130.059 210.504C128.547 210.504 127.903 211.876 127.903 213.29ZM135.331 207.06H136.479V215.516C136.479 215.838 136.633 215.978 136.955 215.978H137.585V217H136.787C135.905 217 135.331 216.426 135.331 215.572V207.06ZM142.056 217.168C139.998 217.168 138.668 215.642 138.668 213.29C138.668 210.938 139.998 209.412 142.056 209.412C144.114 209.412 145.444 210.938 145.444 213.29C145.444 215.642 144.114 217.168 142.056 217.168ZM139.872 213.29C139.872 215.026 140.67 216.076 142.056 216.076C143.428 216.076 144.24 215.026 144.24 213.29C144.24 211.554 143.428 210.504 142.056 210.504C140.67 210.504 139.872 211.554 139.872 213.29ZM146.056 209.58H147.288L149.542 215.768L151.712 209.58H152.93L149.92 217.938C149.64 218.736 149.108 219.1 148.268 219.1H147.386V218.078H148.156C148.534 218.078 148.758 217.938 148.898 217.546L149.164 216.86H148.772L146.056 209.58ZM154.43 209.58H155.48L155.522 210.84C155.858 209.93 156.628 209.412 157.664 209.412C158.728 209.412 159.498 209.986 159.82 210.98C160.142 209.972 160.926 209.412 162.088 209.412C163.572 209.412 164.44 210.448 164.44 212.226V217H163.292V212.562C163.292 211.204 162.76 210.434 161.85 210.434C160.688 210.434 160.016 211.218 160.016 212.576V217H158.868V212.562C158.868 211.232 158.322 210.434 157.426 210.434C156.278 210.434 155.578 211.246 155.578 212.562V217H154.43V209.58ZM165.998 213.29C165.998 210.938 167.328 209.412 169.386 209.412C171.038 209.412 172.48 210.518 172.606 213.136L172.62 213.654H167.216C167.328 215.18 168.098 216.076 169.386 216.076C170.198 216.076 170.926 215.6 171.262 214.816L172.494 214.9C172.06 216.3 170.814 217.168 169.386 217.168C167.328 217.168 165.998 215.642 165.998 213.29ZM167.244 212.632H171.36C171.15 211.064 170.31 210.504 169.386 210.504C168.196 210.504 167.426 211.288 167.244 212.632ZM174.405 209.58H175.455L175.497 210.854C175.875 209.86 176.757 209.412 177.779 209.412C179.473 209.412 180.285 210.658 180.285 212.226V217H179.137V212.562C179.137 211.19 178.675 210.434 177.541 210.434C176.337 210.434 175.553 211.19 175.553 212.562V217H174.405V209.58ZM182.981 207.9H184.129V209.58H186.103V210.602H184.129V215.04C184.129 215.67 184.437 215.978 185.025 215.978H186.089V217H185.025C183.709 217 182.981 216.3 182.981 215.04V210.602H181.889V209.58H182.981V207.9ZM191.429 207.06H197.659V208.208H192.605V211.568H197.407V212.702H192.605V217H191.429V207.06ZM199.169 211.764C199.463 210.322 200.611 209.412 202.193 209.412C204.111 209.412 205.175 210.532 205.175 212.52V215.502C205.175 215.838 205.315 215.978 205.637 215.978H205.931V217H205.441C204.685 217 204.027 216.748 204.041 215.838C203.719 216.538 202.879 217.168 201.703 217.168C200.233 217.168 199.043 216.384 199.043 215.068C199.043 213.542 200.205 213.15 201.829 212.828L204.027 212.408C204.013 211.12 203.411 210.504 202.193 210.504C201.241 210.504 200.611 210.994 200.387 211.862L199.169 211.764ZM200.247 215.068C200.247 215.67 200.765 216.16 201.857 216.146C203.089 216.146 204.055 215.278 204.055 213.556V213.43L202.277 213.738C201.171 213.934 200.247 214.018 200.247 215.068ZM207.504 209.58H208.652V217H207.504V209.58ZM207.476 208.418V207.088H208.68V208.418H207.476ZM211.06 207.06H212.208V215.516C212.208 215.838 212.362 215.978 212.684 215.978H213.314V217H212.516C211.634 217 211.06 216.426 211.06 215.572V207.06ZM220.752 217H219.66V215.74C219.282 216.706 218.4 217.168 217.42 217.168C215.768 217.168 214.956 215.922 214.956 214.354V209.58H216.104V214.004C216.104 215.39 216.566 216.146 217.658 216.146C218.834 216.146 219.604 215.39 219.604 214.004V209.58H220.752V217ZM223.131 209.58H224.139L224.181 210.952C224.433 210.014 224.993 209.58 225.959 209.58H226.673V210.588H225.959C224.825 210.588 224.279 211.288 224.279 212.576V217H223.131V209.58ZM227.426 213.29C227.426 210.938 228.756 209.412 230.814 209.412C232.466 209.412 233.908 210.518 234.034 213.136L234.048 213.654H228.644C228.756 215.18 229.526 216.076 230.814 216.076C231.626 216.076 232.354 215.6 232.69 214.816L233.922 214.9C233.488 216.3 232.242 217.168 230.814 217.168C228.756 217.168 227.426 215.642 227.426 213.29ZM228.672 212.632H232.788C232.578 211.064 231.738 210.504 230.814 210.504C229.624 210.504 228.854 211.288 228.672 212.632ZM240.115 211.862C239.947 211.008 239.107 210.504 238.267 210.504C237.427 210.504 236.755 210.938 236.755 211.652C236.769 212.38 237.707 212.688 238.547 212.87C240.241 213.192 241.459 213.668 241.459 215.11C241.459 216.538 239.989 217.168 238.575 217.168C236.825 217.168 235.481 216.202 235.369 214.676L236.573 214.592C236.713 215.488 237.441 216.076 238.575 216.076C239.331 216.076 240.255 215.824 240.255 215.054C240.255 214.158 239.191 214.06 238.337 213.85C236.965 213.528 235.565 213.136 235.565 211.722C235.551 210.308 236.699 209.412 238.393 209.412C239.877 209.412 241.081 210.35 241.319 211.778L240.115 211.862Z" fill="#171717"/>
<path d="M85.056 262.64C88.672 262.64 90.688 264.688 90.688 268.336C90.688 271.968 88.704 274 85.152 274H81.312V262.64H85.056ZM83.328 272.224H85.056C87.456 272.224 88.624 270.944 88.624 268.336C88.624 265.68 87.456 264.416 85.056 264.416H83.328V272.224ZM95.9026 274.192C93.3906 274.192 91.7426 272.448 91.7426 269.76C91.7426 267.072 93.3906 265.328 95.9026 265.328C98.4146 265.328 100.063 267.072 100.063 269.76C100.063 272.448 98.4146 274.192 95.9026 274.192ZM93.7906 269.76C93.7906 271.52 94.5586 272.56 95.9026 272.56C97.2466 272.56 98.0146 271.52 98.0146 269.76C98.0146 268 97.2466 266.96 95.9026 266.96C94.5586 266.96 93.7906 268 93.7906 269.76ZM101.513 265.52H103.305L103.353 266.88C103.769 265.888 104.633 265.328 105.753 265.328C106.953 265.328 107.817 265.968 108.185 267.072C108.601 265.92 109.481 265.328 110.713 265.328C112.425 265.328 113.481 266.464 113.481 268.544V274H111.497V269.168C111.497 267.712 111.033 266.944 110.121 266.944C109.017 266.944 108.409 267.728 108.409 269.168V274H106.585V269.168C106.585 267.728 106.105 266.944 105.209 266.944C104.105 266.944 103.497 267.76 103.497 269.168V274H101.513V265.52ZM115.09 268.096C115.426 266.352 116.786 265.328 118.834 265.328C121.266 265.328 122.546 266.592 122.546 268.96V271.92C122.546 272.4 122.738 272.528 123.074 272.528H123.394V274L122.898 274.016C122.21 274.016 120.93 274 120.802 272.704C120.402 273.536 119.458 274.192 118.002 274.192C116.306 274.192 114.946 273.28 114.946 271.776C114.946 270.112 116.178 269.584 118.162 269.2L120.546 268.72C120.53 267.424 119.986 266.8 118.834 266.8C117.922 266.8 117.33 267.28 117.122 268.208L115.09 268.096ZM116.994 271.712C116.994 272.304 117.49 272.768 118.514 272.768C119.698 272.768 120.578 271.92 120.578 270.192V270.112L118.946 270.4C117.842 270.608 116.994 270.72 116.994 271.712ZM124.67 265.52H126.654V274H124.67V265.52ZM124.638 264.32V262.64H126.702V264.32H124.638ZM128.538 265.52H130.33L130.394 266.912C130.842 265.792 131.802 265.328 132.938 265.328C134.826 265.328 135.834 266.656 135.834 268.544V274H133.85V269.168C133.85 267.728 133.466 266.944 132.362 266.944C131.21 266.944 130.522 267.728 130.522 269.168V274H128.538V265.52ZM142.536 268.224C142.376 267.36 141.576 266.848 140.776 266.848C139.96 266.848 139.32 267.264 139.336 267.952C139.352 268.672 140.248 268.96 141.08 269.12C143.336 269.504 144.648 270.096 144.648 271.744C144.648 273.424 143 274.192 141.064 274.192C138.776 274.192 137.224 273.104 137.08 271.312L139.112 271.2C139.272 272.096 139.944 272.656 141.032 272.656C141.736 272.656 142.6 272.4 142.6 271.68C142.584 270.848 141.624 270.72 140.744 270.528C138.744 270.128 137.288 269.6 137.288 268C137.288 266.336 138.664 265.312 140.888 265.312C142.84 265.312 144.264 266.4 144.536 268.128L142.536 268.224Z" fill="#171717"/>
<mask id="path-17-inside-3_179_35552" fill="white">
<path d="M80 290H580V338H80V290Z"/>
</mask>
<path d="M80 290H580V338H80V290Z" fill="white"/>
<path d="M80 291H580V289H80V291Z" fill="#EAEAEA" mask="url(#path-17-inside-3_179_35552)"/>
<rect x="80" y="306" width="16" height="16" rx="4" fill="#171717"/>
<path d="M84.75 314.75L86.5 316.5L91.25 311.75" stroke="#F2F2F2" stroke-width="1.5" stroke-linecap="square" stroke-linejoin="round"/>
<path d="M117.184 315.864C116.82 317.81 115.448 319.224 113.18 319.224C110.324 319.224 108.686 316.942 108.686 314.044C108.686 311.132 110.31 308.836 113.18 308.836C115.266 308.836 116.666 310.152 117.1 311.972L115.868 312.056C115.546 310.824 114.622 309.984 113.18 309.984C110.912 309.984 109.918 311.86 109.918 314.044C109.918 316.214 110.926 318.076 113.18 318.076C114.692 318.076 115.644 317.124 115.924 315.78L117.184 315.864ZM121.849 319.168C119.791 319.168 118.461 317.642 118.461 315.29C118.461 312.938 119.791 311.412 121.849 311.412C123.907 311.412 125.237 312.938 125.237 315.29C125.237 317.642 123.907 319.168 121.849 319.168ZM119.665 315.29C119.665 317.026 120.463 318.076 121.849 318.076C123.221 318.076 124.033 317.026 124.033 315.29C124.033 313.554 123.221 312.504 121.849 312.504C120.463 312.504 119.665 313.554 119.665 315.29ZM127.018 311.58H128.068L128.11 312.854C128.488 311.86 129.37 311.412 130.392 311.412C132.086 311.412 132.898 312.658 132.898 314.226V319H131.75V314.562C131.75 313.19 131.288 312.434 130.154 312.434C128.95 312.434 128.166 313.19 128.166 314.562V319H127.018V311.58ZM135.922 311.076C135.922 309.858 136.552 309.06 137.91 309.06H139.03V310.068H137.896C137.406 310.068 137.07 310.46 137.07 311.076V311.58H138.946V312.602H137.07V319H135.922V312.602H134.914V311.58H135.922V311.076ZM140.78 310.418V309.088H141.984V310.418H140.78ZM140.808 319V311.58H141.956V319H140.808ZM147.154 318.608C145.124 318.608 143.822 317.096 143.822 315.01C143.822 312.924 145.152 311.412 147.154 311.412C148.148 311.412 148.96 311.972 149.282 312.77V311.58H150.388V318.272C150.388 320.218 149.058 321.268 147.126 321.268C145.544 321.268 144.354 320.4 144.032 319.112L145.236 319.028C145.53 319.742 146.174 320.176 147.126 320.176C148.442 320.176 149.24 319.588 149.24 318.524V317.292C148.792 318.174 147.952 318.608 147.154 318.608ZM145.026 315.01C145.026 316.466 145.824 317.516 147.154 317.516C148.428 317.516 149.24 316.452 149.254 315.01C149.282 313.568 148.47 312.504 147.154 312.504C145.824 312.504 145.026 313.554 145.026 315.01ZM158.586 319H157.494V317.74C157.116 318.706 156.234 319.168 155.254 319.168C153.602 319.168 152.79 317.922 152.79 316.354V311.58H153.938V316.004C153.938 317.39 154.4 318.146 155.492 318.146C156.668 318.146 157.438 317.39 157.438 316.004V311.58H158.586V319ZM160.965 311.58H161.973L162.015 312.952C162.267 312.014 162.827 311.58 163.793 311.58H164.507V312.588H163.793C162.659 312.588 162.113 313.288 162.113 314.576V319H160.965V311.58ZM165.673 313.764C165.967 312.322 167.115 311.412 168.697 311.412C170.615 311.412 171.679 312.532 171.679 314.52V317.502C171.679 317.838 171.819 317.978 172.141 317.978H172.435V319H171.945C171.189 319 170.531 318.748 170.545 317.838C170.223 318.538 169.383 319.168 168.207 319.168C166.737 319.168 165.547 318.384 165.547 317.068C165.547 315.542 166.709 315.15 168.333 314.828L170.531 314.408C170.517 313.12 169.915 312.504 168.697 312.504C167.745 312.504 167.115 312.994 166.891 313.862L165.673 313.764ZM166.751 317.068C166.751 317.67 167.269 318.16 168.361 318.146C169.593 318.146 170.559 317.278 170.559 315.556V315.43L168.781 315.738C167.675 315.934 166.751 316.018 166.751 317.068ZM174.162 309.9H175.31V311.58H177.284V312.602H175.31V317.04C175.31 317.67 175.618 317.978 176.206 317.978H177.27V319H176.206C174.89 319 174.162 318.3 174.162 317.04V312.602H173.07V311.58H174.162V309.9ZM179.012 311.58H180.16V319H179.012V311.58ZM178.984 310.418V309.088H180.188V310.418H178.984ZM185.396 319.168C183.338 319.168 182.008 317.642 182.008 315.29C182.008 312.938 183.338 311.412 185.396 311.412C187.454 311.412 188.784 312.938 188.784 315.29C188.784 317.642 187.454 319.168 185.396 319.168ZM183.212 315.29C183.212 317.026 184.01 318.076 185.396 318.076C186.768 318.076 187.58 317.026 187.58 315.29C187.58 313.554 186.768 312.504 185.396 312.504C184.01 312.504 183.212 313.554 183.212 315.29ZM190.565 311.58H191.615L191.657 312.854C192.035 311.86 192.917 311.412 193.939 311.412C195.633 311.412 196.445 312.658 196.445 314.226V319H195.297V314.562C195.297 313.19 194.835 312.434 193.701 312.434C192.497 312.434 191.713 313.19 191.713 314.562V319H190.565V311.58Z" fill="#171717"/>
<mask id="path-22-inside-4_179_35552" fill="white">
<path d="M80 338H580V386H80V338Z"/>
</mask>
<path d="M80 338H580V386H80V338Z" fill="white"/>
<path d="M80 339H580V337H80V339Z" fill="#EAEAEA" mask="url(#path-22-inside-4_179_35552)"/>
<rect x="80" y="354" width="16" height="16" rx="4" fill="#171717"/>
<path d="M84.75 362.75L86.5 364.5L91.25 359.75" stroke="#F2F2F2" stroke-width="1.5" stroke-linecap="square" stroke-linejoin="round"/>
<path d="M113.04 357.06C115.126 357.06 116.428 358.208 116.428 360.056C116.428 361.246 115.63 362.114 114.72 362.366C115.714 362.534 116.148 363.038 116.246 364.074L116.512 367H115.322L115.084 364.186C115 363.29 114.384 362.982 112.928 362.982H110.464V367H109.288V357.06H113.04ZM110.464 361.834H113.04C114.426 361.834 115.196 361.19 115.196 360.028C115.196 358.866 114.426 358.208 113.04 358.208H110.464V361.834ZM117.832 363.29C117.832 360.938 119.162 359.412 121.22 359.412C122.872 359.412 124.314 360.518 124.44 363.136L124.454 363.654H119.05C119.162 365.18 119.932 366.076 121.22 366.076C122.032 366.076 122.76 365.6 123.096 364.816L124.328 364.9C123.894 366.3 122.648 367.168 121.22 367.168C119.162 367.168 117.832 365.642 117.832 363.29ZM119.078 362.632H123.194C122.984 361.064 122.144 360.504 121.22 360.504C120.03 360.504 119.26 361.288 119.078 362.632ZM126.239 359.58H127.289L127.331 360.854C127.709 359.86 128.591 359.412 129.613 359.412C131.307 359.412 132.119 360.658 132.119 362.226V367H130.971V362.562C130.971 361.19 130.509 360.434 129.375 360.434C128.171 360.434 127.387 361.19 127.387 362.562V367H126.239V359.58ZM133.678 363.29C133.678 360.938 135.008 359.412 137.066 359.412C138.718 359.412 140.16 360.518 140.286 363.136L140.3 363.654H134.896C135.008 365.18 135.778 366.076 137.066 366.076C137.878 366.076 138.606 365.6 138.942 364.816L140.174 364.9C139.74 366.3 138.494 367.168 137.066 367.168C135.008 367.168 133.678 365.642 133.678 363.29ZM134.924 362.632H139.04C138.83 361.064 137.99 360.504 137.066 360.504C135.876 360.504 135.106 361.288 134.924 362.632ZM146.935 359.58L148.713 365.726L150.505 359.58H151.737L149.441 367H147.999L146.333 361.316L144.653 367H143.211L140.915 359.58H142.147L143.939 365.726L145.717 359.58H146.935ZM152.561 361.764C152.855 360.322 154.003 359.412 155.585 359.412C157.503 359.412 158.567 360.532 158.567 362.52V365.502C158.567 365.838 158.707 365.978 159.029 365.978H159.323V367H158.833C158.077 367 157.419 366.748 157.433 365.838C157.111 366.538 156.271 367.168 155.095 367.168C153.625 367.168 152.435 366.384 152.435 365.068C152.435 363.542 153.597 363.15 155.221 362.828L157.419 362.408C157.405 361.12 156.803 360.504 155.585 360.504C154.633 360.504 154.003 360.994 153.779 361.862L152.561 361.764ZM153.639 365.068C153.639 365.67 154.157 366.16 155.249 366.146C156.481 366.146 157.447 365.278 157.447 363.556V363.43L155.669 363.738C154.563 363.934 153.639 364.018 153.639 365.068ZM161.034 357.06H162.182V365.516C162.182 365.838 162.336 365.978 162.658 365.978H163.288V367H162.49C161.608 367 161.034 366.426 161.034 365.572V357.06ZM169.117 361.862C168.949 361.008 168.109 360.504 167.269 360.504C166.429 360.504 165.757 360.938 165.757 361.652C165.771 362.38 166.709 362.688 167.549 362.87C169.243 363.192 170.461 363.668 170.461 365.11C170.461 366.538 168.991 367.168 167.577 367.168C165.827 367.168 164.483 366.202 164.371 364.676L165.575 364.592C165.715 365.488 166.443 366.076 167.577 366.076C168.333 366.076 169.257 365.824 169.257 365.054C169.257 364.158 168.193 364.06 167.339 363.85C165.967 363.528 164.567 363.136 164.567 361.722C164.553 360.308 165.701 359.412 167.395 359.412C168.879 359.412 170.083 360.35 170.321 361.778L169.117 361.862Z" fill="#171717"/>
<mask id="path-27-inside-5_179_35552" fill="white">
<path d="M80 386H580V434H80V386Z"/>
</mask>
<path d="M80 386H580V434H80V386Z" fill="white"/>
<path d="M80 387H580V385H80V387Z" fill="#EAEAEA" mask="url(#path-27-inside-5_179_35552)"/>
<rect x="80" y="402" width="16" height="16" rx="4" fill="#171717"/>
<path d="M84.75 410.75L86.5 412.5L91.25 407.75" stroke="#F2F2F2" stroke-width="1.5" stroke-linecap="square" stroke-linejoin="round"/>
<path d="M115.728 405.06V406.208H112.634V415H111.458V406.208H108.35V405.06H115.728ZM117.161 407.58H118.169L118.211 408.952C118.463 408.014 119.023 407.58 119.989 407.58H120.703V408.588H119.989C118.855 408.588 118.309 409.288 118.309 410.576V415H117.161V407.58ZM121.868 409.764C122.162 408.322 123.31 407.412 124.892 407.412C126.81 407.412 127.874 408.532 127.874 410.52V413.502C127.874 413.838 128.014 413.978 128.336 413.978H128.63V415H128.14C127.384 415 126.726 414.748 126.74 413.838C126.418 414.538 125.578 415.168 124.402 415.168C122.932 415.168 121.742 414.384 121.742 413.068C121.742 411.542 122.904 411.15 124.528 410.828L126.726 410.408C126.712 409.12 126.11 408.504 124.892 408.504C123.94 408.504 123.31 408.994 123.086 409.862L121.868 409.764ZM122.946 413.068C122.946 413.67 123.464 414.16 124.556 414.146C125.788 414.146 126.754 413.278 126.754 411.556V411.43L124.976 411.738C123.87 411.934 122.946 412.018 122.946 413.068ZM130.204 407.58H131.254L131.296 408.854C131.674 407.86 132.556 407.412 133.578 407.412C135.272 407.412 136.084 408.658 136.084 410.226V415H134.936V410.562C134.936 409.19 134.474 408.434 133.34 408.434C132.136 408.434 131.352 409.19 131.352 410.562V415H130.204V407.58ZM142.388 409.862C142.22 409.008 141.38 408.504 140.54 408.504C139.7 408.504 139.028 408.938 139.028 409.652C139.042 410.38 139.98 410.688 140.82 410.87C142.514 411.192 143.732 411.668 143.732 413.11C143.732 414.538 142.262 415.168 140.848 415.168C139.098 415.168 137.754 414.202 137.642 412.676L138.846 412.592C138.986 413.488 139.714 414.076 140.848 414.076C141.604 414.076 142.528 413.824 142.528 413.054C142.528 412.158 141.464 412.06 140.61 411.85C139.238 411.528 137.838 411.136 137.838 409.722C137.824 408.308 138.972 407.412 140.666 407.412C142.15 407.412 143.354 408.35 143.592 409.778L142.388 409.862ZM146.039 407.076C146.039 405.858 146.669 405.06 148.027 405.06H149.147V406.068H148.013C147.523 406.068 147.187 406.46 147.187 407.076V407.58H149.063V408.602H147.187V415H146.039V408.602H145.031V407.58H146.039V407.076ZM149.974 411.29C149.974 408.938 151.304 407.412 153.362 407.412C155.014 407.412 156.456 408.518 156.582 411.136L156.596 411.654H151.192C151.304 413.18 152.074 414.076 153.362 414.076C154.174 414.076 154.902 413.6 155.238 412.816L156.47 412.9C156.036 414.3 154.79 415.168 153.362 415.168C151.304 415.168 149.974 413.642 149.974 411.29ZM151.22 410.632H155.336C155.126 409.064 154.286 408.504 153.362 408.504C152.172 408.504 151.402 409.288 151.22 410.632ZM158.381 407.58H159.389L159.431 408.952C159.683 408.014 160.243 407.58 161.209 407.58H161.923V408.588H161.209C160.075 408.588 159.529 409.288 159.529 410.576V415H158.381V407.58ZM167.422 409.862C167.254 409.008 166.414 408.504 165.574 408.504C164.734 408.504 164.062 408.938 164.062 409.652C164.076 410.38 165.014 410.688 165.854 410.87C167.548 411.192 168.766 411.668 168.766 413.11C168.766 414.538 167.296 415.168 165.882 415.168C164.132 415.168 162.788 414.202 162.676 412.676L163.88 412.592C164.02 413.488 164.748 414.076 165.882 414.076C166.638 414.076 167.562 413.824 167.562 413.054C167.562 412.158 166.498 412.06 165.644 411.85C164.272 411.528 162.872 411.136 162.872 409.722C162.858 408.308 164.006 407.412 165.7 407.412C167.184 407.412 168.388 408.35 168.626 409.778L167.422 409.862Z" fill="#171717"/>
<path d="M81.312 460.64H83.328V472H81.312V460.64ZM85.2862 463.52H87.0782L87.1423 464.912C87.5903 463.792 88.5503 463.328 89.6863 463.328C91.5743 463.328 92.5823 464.656 92.5823 466.544V472H90.5982V467.168C90.5982 465.728 90.2143 464.944 89.1102 464.944C87.9583 464.944 87.2703 465.728 87.2703 467.168V472H85.2862V463.52ZM95.1911 461.6H97.1751V463.52H99.4151V465.072H97.1751V469.424C97.1751 470.096 97.4951 470.432 98.1351 470.432H99.4151V472H97.8311C96.1031 472 95.1911 471.12 95.1911 469.424V465.072H93.8631V463.52H95.1911V461.6ZM100.025 467.76C100.025 465.072 101.673 463.328 104.185 463.328C106.329 463.328 108.073 464.768 108.137 467.776V468.304H102.105C102.201 469.744 102.953 470.592 104.185 470.592C104.969 470.592 105.673 470.144 105.993 469.408L108.025 469.552C107.513 471.184 105.993 472.192 104.185 472.192C101.673 472.192 100.025 470.448 100.025 467.76ZM102.121 466.944H106.089C105.913 465.456 105.097 464.912 104.185 464.912C103.033 464.912 102.297 465.68 102.121 466.944ZM112.965 471.584C110.661 471.584 109.189 469.904 109.189 467.52C109.189 465.056 110.693 463.328 112.965 463.328C114.053 463.328 114.949 463.904 115.365 464.816V463.52H117.301V471.056C117.301 473.296 115.637 474.592 113.253 474.592C111.333 474.592 109.877 473.632 109.429 472.16L111.461 472.032C111.749 472.672 112.373 473.056 113.269 473.056C114.549 473.056 115.301 472.48 115.301 471.328V470.224C114.821 471.12 113.877 471.584 112.965 471.584ZM111.237 467.504C111.237 469.008 112.037 470.08 113.317 470.08C114.565 470.08 115.349 469.008 115.365 467.504C115.381 466 114.597 464.944 113.317 464.944C112.021 464.944 111.237 466 111.237 467.504ZM119.381 463.52H121.237L121.285 465.152C121.573 464.048 122.213 463.52 123.301 463.52H124.101V465.072H123.301C121.941 465.072 121.365 465.76 121.365 467.136V472H119.381V463.52ZM125.005 466.096C125.341 464.352 126.701 463.328 128.749 463.328C131.181 463.328 132.461 464.592 132.461 466.96V469.92C132.461 470.4 132.653 470.528 132.989 470.528H133.309V472L132.813 472.016C132.125 472.016 130.845 472 130.717 470.704C130.317 471.536 129.373 472.192 127.917 472.192C126.221 472.192 124.861 471.28 124.861 469.776C124.861 468.112 126.093 467.584 128.077 467.2L130.461 466.72C130.445 465.424 129.901 464.8 128.749 464.8C127.837 464.8 127.245 465.28 127.037 466.208L125.005 466.096ZM126.909 469.712C126.909 470.304 127.405 470.768 128.429 470.768C129.613 470.768 130.493 469.92 130.493 468.192V468.112L128.861 468.4C127.757 468.608 126.909 468.72 126.909 469.712ZM134.888 461.6H136.872V463.52H139.112V465.072H136.872V469.424C136.872 470.096 137.192 470.432 137.832 470.432H139.112V472H137.528C135.8 472 134.888 471.12 134.888 469.424V465.072H133.56V463.52H134.888V461.6ZM140.531 463.52H142.515V472H140.531V463.52ZM140.499 462.32V460.64H142.563V462.32H140.499ZM148.202 472.192C145.69 472.192 144.042 470.448 144.042 467.76C144.042 465.072 145.69 463.328 148.202 463.328C150.714 463.328 152.362 465.072 152.362 467.76C152.362 470.448 150.714 472.192 148.202 472.192ZM146.09 467.76C146.09 469.52 146.858 470.56 148.202 470.56C149.546 470.56 150.314 469.52 150.314 467.76C150.314 466 149.546 464.96 148.202 464.96C146.858 464.96 146.09 466 146.09 467.76ZM153.813 463.52H155.605L155.669 464.912C156.117 463.792 157.077 463.328 158.213 463.328C160.101 463.328 161.109 464.656 161.109 466.544V472H159.125V467.168C159.125 465.728 158.741 464.944 157.637 464.944C156.485 464.944 155.797 465.728 155.797 467.168V472H153.813V463.52ZM167.811 466.224C167.651 465.36 166.851 464.848 166.051 464.848C165.235 464.848 164.595 465.264 164.611 465.952C164.627 466.672 165.523 466.96 166.355 467.12C168.611 467.504 169.923 468.096 169.923 469.744C169.923 471.424 168.275 472.192 166.339 472.192C164.051 472.192 162.499 471.104 162.355 469.312L164.387 469.2C164.547 470.096 165.219 470.656 166.307 470.656C167.011 470.656 167.875 470.4 167.875 469.68C167.859 468.848 166.899 468.72 166.019 468.528C164.019 468.128 162.563 467.6 162.563 466C162.563 464.336 163.939 463.312 166.163 463.312C168.115 463.312 169.539 464.4 169.811 466.128L167.811 466.224Z" fill="#171717"/>
<mask id="path-33-inside-6_179_35552" fill="white">
<path d="M80 488H580V536H80V488Z"/>
</mask>
<path d="M80 488H580V536H80V488Z" fill="white"/>
<path d="M80 489H580V487H80V489Z" fill="#EAEAEA" mask="url(#path-33-inside-6_179_35552)"/>
<rect x="80" y="504" width="16" height="16" rx="4" fill="#171717"/>
<path d="M84.75 512.75L86.5 514.5L91.25 509.75" stroke="#F2F2F2" stroke-width="1.5" stroke-linecap="square" stroke-linejoin="round"/>
<path d="M109.288 507.06H110.464V517H109.288V507.06ZM112.758 509.58H113.808L113.85 510.854C114.228 509.86 115.11 509.412 116.132 509.412C117.826 509.412 118.638 510.658 118.638 512.226V517H117.49V512.562C117.49 511.19 117.028 510.434 115.894 510.434C114.69 510.434 113.906 511.19 113.906 512.562V517H112.758V509.58ZM121.334 507.9H122.482V509.58H124.456V510.602H122.482V515.04C122.482 515.67 122.79 515.978 123.378 515.978H124.442V517H123.378C122.062 517 121.334 516.3 121.334 515.04V510.602H120.242V509.58H121.334V507.9ZM125.379 513.29C125.379 510.938 126.709 509.412 128.767 509.412C130.419 509.412 131.861 510.518 131.987 513.136L132.001 513.654H126.597C126.709 515.18 127.479 516.076 128.767 516.076C129.579 516.076 130.307 515.6 130.643 514.816L131.875 514.9C131.441 516.3 130.195 517.168 128.767 517.168C126.709 517.168 125.379 515.642 125.379 513.29ZM126.625 512.632H130.741C130.531 511.064 129.691 510.504 128.767 510.504C127.577 510.504 126.807 511.288 126.625 512.632ZM136.654 516.608C134.624 516.608 133.322 515.096 133.322 513.01C133.322 510.924 134.652 509.412 136.654 509.412C137.648 509.412 138.46 509.972 138.782 510.77V509.58H139.888V516.272C139.888 518.218 138.558 519.268 136.626 519.268C135.044 519.268 133.854 518.4 133.532 517.112L134.736 517.028C135.03 517.742 135.674 518.176 136.626 518.176C137.942 518.176 138.74 517.588 138.74 516.524V515.292C138.292 516.174 137.452 516.608 136.654 516.608ZM134.526 513.01C134.526 514.466 135.324 515.516 136.654 515.516C137.928 515.516 138.74 514.452 138.754 513.01C138.782 511.568 137.97 510.504 136.654 510.504C135.324 510.504 134.526 511.554 134.526 513.01ZM142.262 509.58H143.27L143.312 510.952C143.564 510.014 144.124 509.58 145.09 509.58H145.804V510.588H145.09C143.956 510.588 143.41 511.288 143.41 512.576V517H142.262V509.58ZM146.97 511.764C147.264 510.322 148.412 509.412 149.994 509.412C151.912 509.412 152.976 510.532 152.976 512.52V515.502C152.976 515.838 153.116 515.978 153.438 515.978H153.732V517H153.242C152.486 517 151.828 516.748 151.842 515.838C151.52 516.538 150.68 517.168 149.504 517.168C148.034 517.168 146.844 516.384 146.844 515.068C146.844 513.542 148.006 513.15 149.63 512.828L151.828 512.408C151.814 511.12 151.212 510.504 149.994 510.504C149.042 510.504 148.412 510.994 148.188 511.862L146.97 511.764ZM148.048 515.068C148.048 515.67 148.566 516.16 149.658 516.146C150.89 516.146 151.856 515.278 151.856 513.556V513.43L150.078 513.738C148.972 513.934 148.048 514.018 148.048 515.068ZM155.459 507.9H156.607V509.58H158.581V510.602H156.607V515.04C156.607 515.67 156.915 515.978 157.503 515.978H158.567V517H157.503C156.187 517 155.459 516.3 155.459 515.04V510.602H154.367V509.58H155.459V507.9ZM160.309 509.58H161.457V517H160.309V509.58ZM160.281 508.418V507.088H161.485V508.418H160.281ZM166.692 517.168C164.634 517.168 163.304 515.642 163.304 513.29C163.304 510.938 164.634 509.412 166.692 509.412C168.75 509.412 170.08 510.938 170.08 513.29C170.08 515.642 168.75 517.168 166.692 517.168ZM164.508 513.29C164.508 515.026 165.306 516.076 166.692 516.076C168.064 516.076 168.876 515.026 168.876 513.29C168.876 511.554 168.064 510.504 166.692 510.504C165.306 510.504 164.508 511.554 164.508 513.29ZM171.862 509.58H172.912L172.954 510.854C173.332 509.86 174.214 509.412 175.236 509.412C176.93 509.412 177.742 510.658 177.742 512.226V517H176.594V512.562C176.594 511.19 176.132 510.434 174.998 510.434C173.794 510.434 173.01 511.19 173.01 512.562V517H171.862V509.58ZM189.362 517H188.27V515.74C187.892 516.706 187.01 517.168 186.03 517.168C184.378 517.168 183.566 515.922 183.566 514.354V509.58H184.714V514.004C184.714 515.39 185.176 516.146 186.268 516.146C187.444 516.146 188.214 515.39 188.214 514.004V509.58H189.362V517ZM191.741 519.1V509.58H192.777L192.819 510.714C193.225 509.874 194.037 509.412 195.115 509.412C197.327 509.412 198.321 511.232 198.321 513.29C198.321 515.348 197.327 517.168 195.115 517.168C194.079 517.168 193.295 516.734 192.889 515.936V519.1H191.741ZM192.763 513.29C192.763 514.704 193.407 516.062 194.919 516.062C196.459 516.062 197.089 514.732 197.089 513.29C197.089 511.848 196.459 510.504 194.919 510.504C193.407 510.504 192.763 511.876 192.763 513.29ZM206.211 507.06V517H205.175L205.133 515.908C204.713 516.692 203.915 517.168 202.767 517.168C200.625 517.168 199.631 515.348 199.631 513.29C199.631 511.232 200.625 509.412 202.767 509.412C203.859 509.412 204.643 509.832 205.063 510.588V507.06H206.211ZM200.835 513.29C200.835 514.732 201.451 516.076 203.005 516.076C204.531 516.076 205.161 514.704 205.161 513.29C205.161 511.82 204.531 510.462 203.005 510.462C201.451 510.462 200.835 511.806 200.835 513.29ZM208.179 511.764C208.473 510.322 209.621 509.412 211.203 509.412C213.121 509.412 214.185 510.532 214.185 512.52V515.502C214.185 515.838 214.325 515.978 214.647 515.978H214.941V517H214.451C213.695 517 213.037 516.748 213.051 515.838C212.729 516.538 211.889 517.168 210.713 517.168C209.243 517.168 208.053 516.384 208.053 515.068C208.053 513.542 209.215 513.15 210.839 512.828L213.037 512.408C213.023 511.12 212.421 510.504 211.203 510.504C210.251 510.504 209.621 510.994 209.397 511.862L208.179 511.764ZM209.257 515.068C209.257 515.67 209.775 516.16 210.867 516.146C212.099 516.146 213.065 515.278 213.065 513.556V513.43L211.287 513.738C210.181 513.934 209.257 514.018 209.257 515.068ZM216.668 507.9H217.816V509.58H219.79V510.602H217.816V515.04C217.816 515.67 218.124 515.978 218.712 515.978H219.776V517H218.712C217.396 517 216.668 516.3 216.668 515.04V510.602H215.576V509.58H216.668V507.9ZM220.713 513.29C220.713 510.938 222.043 509.412 224.101 509.412C225.753 509.412 227.195 510.518 227.321 513.136L227.335 513.654H221.931C222.043 515.18 222.813 516.076 224.101 516.076C224.913 516.076 225.641 515.6 225.977 514.816L227.209 514.9C226.775 516.3 225.529 517.168 224.101 517.168C222.043 517.168 220.713 515.642 220.713 513.29ZM221.959 512.632H226.075C225.865 511.064 225.025 510.504 224.101 510.504C222.911 510.504 222.141 511.288 221.959 512.632ZM233.402 511.862C233.234 511.008 232.394 510.504 231.554 510.504C230.714 510.504 230.042 510.938 230.042 511.652C230.056 512.38 230.994 512.688 231.834 512.87C233.528 513.192 234.746 513.668 234.746 515.11C234.746 516.538 233.276 517.168 231.862 517.168C230.112 517.168 228.768 516.202 228.656 514.676L229.86 514.592C230 515.488 230.728 516.076 231.862 516.076C232.618 516.076 233.542 515.824 233.542 515.054C233.542 514.158 232.478 514.06 231.624 513.85C230.252 513.528 228.852 513.136 228.852 511.722C228.838 510.308 229.986 509.412 231.68 509.412C233.164 509.412 234.368 510.35 234.606 511.778L233.402 511.862Z" fill="#171717"/>
<path d="M89.328 562.64V564.416H85.888V574H83.872V564.416H80.416V562.64H89.328ZM88.9618 569.76C88.9618 567.072 90.6098 565.328 93.1218 565.328C95.2658 565.328 97.0098 566.768 97.0738 569.776V570.304H91.0418C91.1378 571.744 91.8898 572.592 93.1218 572.592C93.9058 572.592 94.6098 572.144 94.9298 571.408L96.9618 571.552C96.4498 573.184 94.9298 574.192 93.1218 574.192C90.6098 574.192 88.9618 572.448 88.9618 569.76ZM91.0578 568.944H95.0258C94.8498 567.456 94.0338 566.912 93.1218 566.912C91.9698 566.912 91.2338 567.68 91.0578 568.944ZM98.3635 568.096C98.6995 566.352 100.06 565.328 102.108 565.328C104.54 565.328 105.82 566.592 105.82 568.96V571.92C105.82 572.4 106.012 572.528 106.348 572.528H106.668V574L106.172 574.016C105.484 574.016 104.204 574 104.076 572.704C103.676 573.536 102.732 574.192 101.276 574.192C99.5795 574.192 98.2195 573.28 98.2195 571.776C98.2195 570.112 99.4515 569.584 101.436 569.2L103.82 568.72C103.804 567.424 103.26 566.8 102.108 566.8C101.196 566.8 100.604 567.28 100.396 568.208L98.3635 568.096ZM100.268 571.712C100.268 572.304 100.764 572.768 101.788 572.768C102.972 572.768 103.852 571.92 103.852 570.192V570.112L102.22 570.4C101.116 570.608 100.268 570.72 100.268 571.712ZM107.943 565.52H109.735L109.783 566.88C110.199 565.888 111.063 565.328 112.183 565.328C113.383 565.328 114.247 565.968 114.615 567.072C115.031 565.92 115.911 565.328 117.143 565.328C118.855 565.328 119.911 566.464 119.911 568.544V574H117.927V569.168C117.927 567.712 117.463 566.944 116.551 566.944C115.447 566.944 114.839 567.728 114.839 569.168V574H113.015V569.168C113.015 567.728 112.535 566.944 111.639 566.944C110.535 566.944 109.927 567.76 109.927 569.168V574H107.943V565.52Z" fill="#171717"/>
<mask id="path-39-inside-7_179_35552" fill="white">
<path d="M80 590H580V638H80V590Z"/>
</mask>
<path d="M80 590H580V638H80V590Z" fill="white"/>
<path d="M80 591H580V589H80V591Z" fill="#EAEAEA" mask="url(#path-39-inside-7_179_35552)"/>
<rect x="80" y="606" width="16" height="16" rx="4" fill="#171717"/>
<path d="M84.75 614.75L86.5 616.5L91.25 611.75" stroke="#F2F2F2" stroke-width="1.5" stroke-linecap="square" stroke-linejoin="round"/>
<path d="M115.728 609.06V610.208H112.634V619H111.458V610.208H108.35V609.06H115.728ZM115.767 615.29C115.767 612.938 117.097 611.412 119.155 611.412C120.807 611.412 122.249 612.518 122.375 615.136L122.389 615.654H116.985C117.097 617.18 117.867 618.076 119.155 618.076C119.967 618.076 120.695 617.6 121.031 616.816L122.263 616.9C121.829 618.3 120.583 619.168 119.155 619.168C117.097 619.168 115.767 617.642 115.767 615.29ZM117.013 614.632H121.129C120.919 613.064 120.079 612.504 119.155 612.504C117.965 612.504 117.195 613.288 117.013 614.632ZM123.905 613.764C124.199 612.322 125.347 611.412 126.929 611.412C128.847 611.412 129.911 612.532 129.911 614.52V617.502C129.911 617.838 130.051 617.978 130.373 617.978H130.667V619H130.177C129.421 619 128.763 618.748 128.777 617.838C128.455 618.538 127.615 619.168 126.439 619.168C124.969 619.168 123.779 618.384 123.779 617.068C123.779 615.542 124.941 615.15 126.565 614.828L128.763 614.408C128.749 613.12 128.147 612.504 126.929 612.504C125.977 612.504 125.347 612.994 125.123 613.862L123.905 613.764ZM124.983 617.068C124.983 617.67 125.501 618.16 126.593 618.146C127.825 618.146 128.791 617.278 128.791 615.556V615.43L127.013 615.738C125.907 615.934 124.983 616.018 124.983 617.068ZM132.241 611.58H133.291L133.333 612.84C133.669 611.93 134.439 611.412 135.475 611.412C136.539 611.412 137.309 611.986 137.631 612.98C137.953 611.972 138.737 611.412 139.899 611.412C141.383 611.412 142.251 612.448 142.251 614.226V619H141.103V614.562C141.103 613.204 140.571 612.434 139.661 612.434C138.499 612.434 137.827 613.218 137.827 614.576V619H136.679V614.562C136.679 613.232 136.133 612.434 135.237 612.434C134.089 612.434 133.389 613.246 133.389 614.562V619H132.241V611.58ZM149.347 619.042C149.347 620.302 148.731 621.1 147.485 621.1H146.785V620.078H147.359C147.891 620.078 148.199 619.686 148.199 619.042V611.58H149.347V619.042ZM148.171 610.418V609.088H149.375V610.418H148.171ZM154.511 619.168C152.453 619.168 151.123 617.642 151.123 615.29C151.123 612.938 152.453 611.412 154.511 611.412C156.569 611.412 157.899 612.938 157.899 615.29C157.899 617.642 156.569 619.168 154.511 619.168ZM152.327 615.29C152.327 617.026 153.125 618.076 154.511 618.076C155.883 618.076 156.695 617.026 156.695 615.29C156.695 613.554 155.883 612.504 154.511 612.504C153.125 612.504 152.327 613.554 152.327 615.29ZM159.68 611.58H160.828V619H159.68V611.58ZM159.652 610.418V609.088H160.856V610.418H159.652ZM163.016 611.58H164.066L164.108 612.854C164.486 611.86 165.368 611.412 166.39 611.412C168.084 611.412 168.896 612.658 168.896 614.226V619H167.748V614.562C167.748 613.19 167.286 612.434 166.152 612.434C164.948 612.434 164.164 613.19 164.164 614.562V619H163.016V611.58ZM174.692 611.58H175.7L175.742 612.952C175.994 612.014 176.554 611.58 177.52 611.58H178.234V612.588H177.52C176.386 612.588 175.84 613.288 175.84 614.576V619H174.692V611.58ZM178.986 615.29C178.986 612.938 180.316 611.412 182.374 611.412C184.026 611.412 185.468 612.518 185.594 615.136L185.608 615.654H180.204C180.316 617.18 181.086 618.076 182.374 618.076C183.186 618.076 183.914 617.6 184.25 616.816L185.482 616.9C185.048 618.3 183.802 619.168 182.374 619.168C180.316 619.168 178.986 617.642 178.986 615.29ZM180.232 614.632H184.348C184.138 613.064 183.298 612.504 182.374 612.504C181.184 612.504 180.414 613.288 180.232 614.632ZM193.509 621.1H192.361V617.936C191.955 618.734 191.171 619.168 190.135 619.168C187.923 619.168 186.929 617.348 186.929 615.29C186.929 613.232 187.923 611.412 190.135 611.412C191.213 611.412 192.025 611.874 192.431 612.714L192.473 611.58H193.509V621.1ZM188.161 615.29C188.161 616.732 188.791 618.062 190.331 618.062C191.843 618.062 192.487 616.704 192.487 615.29C192.487 613.876 191.843 612.504 190.331 612.504C188.791 612.504 188.161 613.848 188.161 615.29ZM201.434 619H200.342V617.74C199.964 618.706 199.082 619.168 198.102 619.168C196.45 619.168 195.638 617.922 195.638 616.354V611.58H196.786V616.004C196.786 617.39 197.248 618.146 198.34 618.146C199.516 618.146 200.286 617.39 200.286 616.004V611.58H201.434V619ZM203.281 615.29C203.281 612.938 204.611 611.412 206.669 611.412C208.321 611.412 209.763 612.518 209.889 615.136L209.903 615.654H204.499C204.611 617.18 205.381 618.076 206.669 618.076C207.481 618.076 208.209 617.6 208.545 616.816L209.777 616.9C209.343 618.3 208.097 619.168 206.669 619.168C204.611 619.168 203.281 617.642 203.281 615.29ZM204.527 614.632H208.643C208.433 613.064 207.593 612.504 206.669 612.504C205.479 612.504 204.709 613.288 204.527 614.632ZM215.97 613.862C215.802 613.008 214.962 612.504 214.122 612.504C213.282 612.504 212.61 612.938 212.61 613.652C212.624 614.38 213.562 614.688 214.402 614.87C216.096 615.192 217.314 615.668 217.314 617.11C217.314 618.538 215.844 619.168 214.43 619.168C212.68 619.168 211.336 618.202 211.224 616.676L212.428 616.592C212.568 617.488 213.296 618.076 214.43 618.076C215.186 618.076 216.11 617.824 216.11 617.054C216.11 616.158 215.046 616.06 214.192 615.85C212.82 615.528 211.42 615.136 211.42 613.722C211.406 612.308 212.554 611.412 214.248 611.412C215.732 611.412 216.936 612.35 217.174 613.778L215.97 613.862ZM219.485 609.9H220.633V611.58H222.607V612.602H220.633V617.04C220.633 617.67 220.941 617.978 221.529 617.978H222.593V619H221.529C220.213 619 219.485 618.3 219.485 617.04V612.602H218.393V611.58H219.485V609.9ZM228.275 613.862C228.107 613.008 227.267 612.504 226.427 612.504C225.587 612.504 224.915 612.938 224.915 613.652C224.929 614.38 225.867 614.688 226.707 614.87C228.401 615.192 229.619 615.668 229.619 617.11C229.619 618.538 228.149 619.168 226.735 619.168C224.985 619.168 223.641 618.202 223.529 616.676L224.733 616.592C224.873 617.488 225.601 618.076 226.735 618.076C227.491 618.076 228.415 617.824 228.415 617.054C228.415 616.158 227.351 616.06 226.497 615.85C225.125 615.528 223.725 615.136 223.725 613.722C223.711 612.308 224.859 611.412 226.553 611.412C228.037 611.412 229.241 612.35 229.479 613.778L228.275 613.862Z" fill="#171717"/>
</g>
<rect x="55.5" y="55.5" width="549" height="736" rx="6.5" stroke="#EAEAEA"/>
<rect width="660" height="171" transform="translate(0 489)" fill="url(#paint0_linear_179_35552)" fill-opacity="0.01"/>
</g>
<defs>
<filter id="filter0_d_179_35552" x="44" y="52" width="572" height="759" filterUnits="userSpaceOnUse" color-interpolation-filters="sRGB">
<feFlood flood-opacity="0" result="BackgroundImageFix"/>
<feColorMatrix in="SourceAlpha" type="matrix" values="0 0 0 0 0 0 0 0 0 0 0 0 0 0 0 0 0 0 127 0" result="hardAlpha"/>
<feMorphology radius="4" operator="erode" in="SourceAlpha" result="effect1_dropShadow_179_35552"/>
<feOffset dy="8"/>
<feGaussianBlur stdDeviation="8"/>
<feComposite in2="hardAlpha" operator="out"/>
<feColorMatrix type="matrix" values="0 0 0 0 0 0 0 0 0 0 0 0 0 0 0 0 0 0 0.04 0"/>
<feBlend mode="normal" in2="BackgroundImageFix" result="effect1_dropShadow_179_35552"/>
<feBlend mode="normal" in="SourceGraphic" in2="effect1_dropShadow_179_35552" result="shape"/>
</filter>
<filter id="filter1_dd_179_35552" x="553" y="78" width="30" height="30" filterUnits="userSpaceOnUse" color-interpolation-filters="sRGB">
<feFlood flood-opacity="0" result="BackgroundImageFix"/>
<feColorMatrix in="SourceAlpha" type="matrix" values="0 0 0 0 0 0 0 0 0 0 0 0 0 0 0 0 0 0 127 0" result="hardAlpha"/>
<feOffset dy="1"/>
<feGaussianBlur stdDeviation="0.5"/>
<feComposite in2="hardAlpha" operator="out"/>
<feColorMatrix type="matrix" values="0 0 0 0 0 0 0 0 0 0 0 0 0 0 0 0 0 0 0.16 0"/>
<feBlend mode="normal" in2="BackgroundImageFix" result="effect1_dropShadow_179_35552"/>
<feColorMatrix in="SourceAlpha" type="matrix" values="0 0 0 0 0 0 0 0 0 0 0 0 0 0 0 0 0 0 127 0" result="hardAlpha"/>
<feOffset/>
<feGaussianBlur stdDeviation="2"/>
<feComposite in2="hardAlpha" operator="out"/>
<feColorMatrix type="matrix" values="0 0 0 0 0 0 0 0 0 0 0 0 0 0 0 0 0 0 0.12 0"/>
<feBlend mode="normal" in2="effect1_dropShadow_179_35552" result="effect2_dropShadow_179_35552"/>
<feBlend mode="normal" in="SourceGraphic" in2="effect2_dropShadow_179_35552" result="shape"/>
</filter>
<linearGradient id="paint0_linear_179_35552" x1="330" y1="0" x2="330" y2="171" gradientUnits="userSpaceOnUse">
<stop stop-opacity="0"/>
<stop offset="1"/>
</linearGradient>
<clipPath id="clip0_179_35552">
<rect width="660" height="660" fill="white"/>
</clipPath>
<clipPath id="clip1_179_35552">
<rect x="56" y="56" width="548" height="735" rx="6" fill="white"/>
</clipPath>
<clipPath id="clip2_179_35552">
<path d="M540 93C540 86.3726 545.373 81 552 81H568C574.627 81 580 86.3726 580 93V93C580 99.6274 574.627 105 568 105H552C545.373 105 540 99.6274 540 93V93Z" fill="white"/>
</clipPath>
</defs>
</svg>
