<svg width="480" height="480" viewBox="0 0 480 480" fill="none" xmlns="http://www.w3.org/2000/svg">
<path d="M72 206.75H97.5V300.42H112.12V178.53H103.11C100.22 191.11 92.74 196.89 72 196.89V206.75Z" fill="#F2F2F4"/>
<path d="M220.45 267.44C220.45 252.31 210.25 240.75 195.8 238.54C207.7 236.84 217.56 226.47 217.56 211.51C217.56 193.49 204.64 177 178.63 177C152.45 177 138.34 194.34 136.98 215.42H150.75C151.6 200.97 161.29 188.9 178.63 188.9C195.29 188.9 203.45 199.27 203.45 211.68C203.45 227.32 192.4 232.93 179.65 232.93H166.9V244.83H180.16C196.14 244.83 206.68 252.82 206.68 266.93C206.68 281.55 195.8 290.56 178.12 290.56C159.59 290.56 148.88 280.02 147.86 264.89H133.58C135.28 287.84 152.11 302.46 178.12 302.46C205.32 302.46 220.45 286.31 220.45 267.44Z" fill="#F2F2F4"/>
<path d="M264.007 206.75H289.507V300.42H304.127V178.53H295.117C292.227 191.11 284.747 196.89 264.007 196.89V206.75Z" fill="#F2F2F4"/>
<path d="M392.397 191.45C369.447 220.69 353.977 257.41 353.467 300.42H368.767C369.277 259.11 379.477 224.43 408.377 189.41V179.04H323.037V191.45H392.397Z" fill="#F2F2F4"/>
</svg>
