<svg width="480" height="480" viewBox="0 0 480 480" fill="none" xmlns="http://www.w3.org/2000/svg">
<rect x="145" y="145" width="190" height="190" rx="56" fill="#0D0D0D"/>
<g clip-path="url(#clip0)">
<path d="M299.197 257.107C299.197 257.107 294.809 268.412 291.016 268.412C285.661 268.412 285.586 254.875 287.446 238.215H299.421L300.09 227.579H288.785C289.677 221.554 290.644 215.381 291.611 209.505L279.859 208.241C278.818 214.265 277.702 220.885 276.81 227.728H259.852C260.968 220.067 262.232 212.257 263.496 205.117L251.745 203.778C250.48 210.844 249.067 219.249 247.952 227.802H237.836L237.167 238.364H246.762C245.795 242.826 240.439 268.486 233.15 268.486C225.341 268.486 231.142 232.413 231.142 232.413L219.465 231.075C219.465 231.075 215.895 248.925 198.342 248.925C197.226 248.925 196.111 248.851 194.995 248.702C194.177 226.24 195.516 204.894 201.391 204.894C205.928 204.894 203.623 227.281 203.623 227.281H214.705C214.705 227.281 218.573 198.2 201.689 198.2C186.739 198.2 183.095 222.075 182.946 244.314C179.45 242.231 177.368 240.223 177.368 240.223L173.5 244.983C173.5 244.983 176.996 248.925 183.02 252.421C183.467 268.486 185.326 281.8 185.326 281.8L197.97 280.684C196.929 273.767 196.111 265.586 195.59 257.181C197.598 257.553 199.755 257.776 201.986 257.776C208.309 257.776 213.441 255.917 217.383 253.611C217.234 266.776 219.614 280.759 230.175 280.759C237.836 280.759 243.191 271.982 246.538 263.652C247.803 273.767 251.447 280.61 259.034 280.61C266.397 280.61 271.901 271.536 275.322 263.131C276.512 273.544 280.157 280.684 287.966 280.684C297.933 280.684 304.85 259.784 304.85 259.784L299.197 257.107ZM262.009 268.486C256.654 268.486 256.654 254.95 258.513 238.289H275.62C274.653 242.975 269.298 268.486 262.009 268.486Z" fill="#F2F2F4"/>
<path d="M227.424 226.91C237.018 226.91 237.316 214.786 227.721 214.786C218.201 214.786 217.085 226.91 227.424 226.91Z" fill="#F2F2F4"/>
</g>
<defs>
<clipPath id="clip0">
<rect width="131.35" height="83.6" fill="white" transform="translate(173.5 198.2)"/>
</clipPath>
</defs>
</svg>
