<svg width="667" height="333" viewBox="0 0 667 333" fill="none" xmlns="http://www.w3.org/2000/svg">
<g clip-path="url(#clip0_38_34)">
<rect width="667" height="333" fill="#F9F9F9"/>
<g clip-path="url(#clip1_38_34)">
<path d="M247.351 158.775C247.089 154.534 243.424 151.55 239.183 152.178L218.084 155.319C218.974 149.613 219.759 144.22 220.283 139.717C220.859 135.005 217.037 131.236 212.377 131.969L210.492 132.23C209.654 132.335 208.921 133.068 208.817 133.958L205.361 157.204L192.953 159.037C193.843 153.33 194.628 147.937 195.152 143.435C195.728 138.723 191.906 134.953 187.246 135.686L185.361 135.948C184.523 136.052 183.79 136.785 183.686 137.675L180.387 160.974L170.544 162.44C169.969 162.545 169.497 163.068 169.55 163.696L169.602 164.482C169.864 168.827 173.581 171.812 177.874 171.183L178.921 171.026L175.937 191.183C175.885 191.393 175.885 191.602 175.832 191.812C173.581 196.681 170.649 199.822 167.874 201.864C163.424 205.162 161.382 201.812 161.801 198.408C163.267 185.948 164.209 184.953 166.827 170.031C167.665 165.319 163.581 161.55 158.921 162.283L157.037 162.545C156.199 162.649 155.466 163.382 155.361 164.272L150.126 195.005C148.607 204.743 150.597 211.183 158.869 209.874C159.078 209.874 167.822 209.508 175.623 199.455C176.356 204.272 179.078 206.89 184.628 206C184.838 206 193.162 205.686 200.754 196.314C201.592 200.712 204.314 203.068 209.654 202.23C209.811 202.23 214 201.654 219.497 197.78C220.073 197.361 220.178 196.628 219.811 196.052L219.759 196C218.974 194.848 218.084 194.953 216.827 195.581C214.838 196.576 211.434 199.037 212.534 190.817C213.372 184.429 214.942 175.005 216.461 165.372L246.356 160.921C246.932 160.817 247.403 160.293 247.351 159.665V158.775ZM200.911 187.414C200.806 188.199 200.701 188.984 200.597 189.77C198.503 193.644 195.937 196.262 193.529 198.042C189.078 201.34 187.037 197.99 187.455 194.586C188.188 188.199 189.759 178.775 191.33 169.141L203.843 167.257L200.911 187.414Z" fill="#0D0D0D"/>
<path d="M163.477 139.298C157.875 139.613 154.524 147.152 156.199 151.759C156.828 153.487 158.294 154.953 160.126 155.267C161.854 155.581 163.739 154.901 165.205 153.696C168.241 151.236 170.126 146.838 168.974 143.225C168.136 140.764 166.409 139.141 163.477 139.298Z" fill="#0D0D0D"/>
<path d="M150.178 174.168L150.126 173.225C149.864 168.984 146.199 166 141.958 166.628L127.299 168.88L131.696 137.832C131.853 136.471 131.592 135.162 131.068 134.063C147.403 130.869 172.953 126.785 179.34 126.314C180.388 126.262 181.225 125.319 181.173 124.325C181.173 124.063 181.121 123.749 181.121 123.382C180.44 117.047 174.628 115.529 169.079 116.105C122.953 120.817 86.932 133.958 95.2043 149.717C96.0943 151.393 97.5603 152.911 99.0786 154.063C100.335 155.005 102.901 156.838 103.581 156.262C104.576 155.424 104.105 154.01 103.319 153.068C102.586 152.178 101.016 151.34 100.649 150.136C100.021 148.094 100.649 146.314 102.063 144.691C105.78 140.555 113.372 138.513 118.189 136.995C118.607 136.89 119.079 136.733 119.655 136.576L114.785 170.764L109.34 171.55C108.764 171.654 108.293 172.178 108.346 172.806L108.398 173.592C108.607 176.785 110.649 179.246 113.477 180.084L109.655 207.047C109.026 212.492 113.372 216.733 118.712 215.948L119.655 215.791C120.283 215.686 120.859 215.162 120.911 214.482L125.937 178.932L149.236 175.476C149.759 175.319 150.23 174.796 150.178 174.168Z" fill="#0D0D0D"/>
</g>
<path d="M16.648 315H22.144V314.112H18.22C20.452 312.348 22.108 310.86 22.108 309.228C22.108 307.632 20.752 306.876 19.42 306.876C18.292 306.876 17.248 307.332 16.636 308.136L17.248 308.772C17.716 308.172 18.46 307.764 19.42 307.764C20.248 307.764 21.088 308.208 21.088 309.228C21.088 310.608 19.528 311.94 16.648 314.208V315ZM23.6667 311.004C23.6667 312.948 24.5307 315.144 26.7267 315.144C28.9107 315.144 29.7867 312.948 29.7867 311.004C29.7867 309.048 28.9107 306.876 26.7267 306.876C24.5307 306.876 23.6667 309.048 23.6667 311.004ZM28.7667 311.004C28.7667 312.6 28.2507 314.256 26.7267 314.256C25.2027 314.256 24.6867 312.6 24.6867 311.004C24.6867 309.408 25.2027 307.764 26.7267 307.764C28.2507 307.764 28.7667 309.408 28.7667 311.004ZM32.5383 315H33.5343V306.996H32.6583L30.6543 309.06L31.2543 309.672L32.5383 308.316V315ZM35.0928 312.972C35.0928 314.34 36.3768 315.144 37.9608 315.144C39.5328 315.144 40.8288 314.328 40.8288 312.972C40.8288 311.904 39.9168 311.172 38.9208 310.872C39.8448 310.608 40.7088 310.008 40.7088 308.952C40.7088 307.512 39.2808 306.876 37.9608 306.876C36.6288 306.876 35.2248 307.512 35.2248 308.952C35.2248 310.008 36.0768 310.608 37.0008 310.872C36.0048 311.172 35.0928 311.904 35.0928 312.972ZM39.7008 309.084C39.7008 310.056 38.4528 310.38 37.9608 310.464C37.4808 310.38 36.2208 310.056 36.2208 309.084C36.2208 308.256 36.9888 307.764 37.9608 307.764C38.9208 307.764 39.7008 308.256 39.7008 309.084ZM39.8208 312.864C39.8208 313.728 38.9448 314.256 37.9608 314.256C36.9648 314.256 36.0888 313.728 36.0888 312.864C36.0888 311.82 37.4688 311.376 37.9608 311.316C38.4528 311.376 39.8208 311.82 39.8208 312.864Z" fill="#0D0D0D"/>
<g clip-path="url(#clip2_38_34)">
<path d="M571.32 184.416C571.32 184.416 566.596 196.587 562.512 196.587C556.747 196.587 556.667 182.014 558.669 164.078H571.561L572.281 152.628H560.11C561.071 146.142 562.112 139.496 563.153 133.171L550.502 131.81C549.381 138.295 548.18 145.422 547.219 152.788H528.963C530.164 144.541 531.525 136.133 532.886 128.447L520.235 127.005C518.874 134.612 517.352 143.66 516.151 152.868H505.262L504.541 164.238H514.87C513.829 169.043 508.064 196.667 500.217 196.667C491.81 196.667 498.055 157.833 498.055 157.833L485.484 156.391C485.484 156.391 481.641 175.609 462.744 175.609C461.543 175.609 460.342 175.528 459.141 175.368C458.26 151.187 459.701 128.206 466.027 128.206C470.911 128.206 468.429 152.308 468.429 152.308H480.359C480.359 152.308 484.523 121 466.347 121C450.253 121 446.329 146.703 446.169 170.644C442.406 168.402 440.164 166.24 440.164 166.24L436 171.365C436 171.365 439.763 175.609 446.249 179.372C446.73 196.667 448.731 211 448.731 211L462.343 209.799C461.222 202.352 460.342 193.544 459.781 184.496C461.943 184.897 464.265 185.137 466.667 185.137C473.473 185.137 478.998 183.135 483.242 180.653C483.082 194.826 485.644 209.879 497.014 209.879C505.262 209.879 511.027 200.431 514.63 191.463C515.991 202.352 519.915 209.719 528.082 209.719C536.009 209.719 541.934 199.95 545.617 190.902C546.899 202.112 550.822 209.799 559.23 209.799C569.959 209.799 577.406 187.299 577.406 187.299L571.32 184.416ZM531.285 196.667C525.52 196.667 525.52 182.094 527.521 164.158H545.938C544.897 169.203 539.132 196.667 531.285 196.667Z" fill="#0D0D0D"/>
<path d="M494.052 151.907C504.381 151.907 504.701 138.856 494.372 138.856C484.123 138.856 482.922 151.907 494.052 151.907Z" fill="#0D0D0D"/>
</g>
<path d="M350.648 315H356.144V314.112H352.22C354.452 312.348 356.108 310.86 356.108 309.228C356.108 307.632 354.752 306.876 353.42 306.876C352.292 306.876 351.248 307.332 350.636 308.136L351.248 308.772C351.716 308.172 352.46 307.764 353.42 307.764C354.248 307.764 355.088 308.208 355.088 309.228C355.088 310.608 353.528 311.94 350.648 314.208V315ZM357.667 311.004C357.667 312.948 358.531 315.144 360.727 315.144C362.911 315.144 363.787 312.948 363.787 311.004C363.787 309.048 362.911 306.876 360.727 306.876C358.531 306.876 357.667 309.048 357.667 311.004ZM362.767 311.004C362.767 312.6 362.251 314.256 360.727 314.256C359.203 314.256 358.687 312.6 358.687 311.004C358.687 309.408 359.203 307.764 360.727 307.764C362.251 307.764 362.767 309.408 362.767 311.004ZM365.05 315H370.546V314.112H366.622C368.854 312.348 370.51 310.86 370.51 309.228C370.51 307.632 369.154 306.876 367.822 306.876C366.694 306.876 365.65 307.332 365.038 308.136L365.65 308.772C366.118 308.172 366.862 307.764 367.822 307.764C368.65 307.764 369.49 308.208 369.49 309.228C369.49 310.608 367.93 311.94 365.05 314.208V315ZM372.069 311.004C372.069 312.948 372.933 315.144 375.129 315.144C377.313 315.144 378.189 312.948 378.189 311.004C378.189 309.048 377.313 306.876 375.129 306.876C372.933 306.876 372.069 309.048 372.069 311.004ZM377.169 311.004C377.169 312.6 376.653 314.256 375.129 314.256C373.605 314.256 373.089 312.6 373.089 311.004C373.089 309.408 373.605 307.764 375.129 307.764C376.653 307.764 377.169 309.408 377.169 311.004Z" fill="#0D0D0D"/>
<rect x="333" width="1" height="375" fill="white"/>
</g>
<defs>
<clipPath id="clip0_38_34">
<rect width="667" height="333" fill="white"/>
</clipPath>
<clipPath id="clip1_38_34">
<rect width="153.403" height="100" fill="white" transform="translate(94 116)"/>
</clipPath>
<clipPath id="clip2_38_34">
<rect width="141.406" height="90" fill="white" transform="translate(436 121)"/>
</clipPath>
</defs>
</svg>
