<svg width="667" height="333" viewBox="0 0 667 333" fill="none" xmlns="http://www.w3.org/2000/svg">
<g clip-path="url(#clip0_38_34)">
<rect width="667" height="333" fill="#F9F9F9"/>
<g clip-path="url(#clip1_38_34)">
<path d="M247.351 158.775C247.089 154.534 243.424 151.55 239.183 152.178L218.084 155.319C218.974 149.613 219.759 144.22 220.283 139.717C220.859 135.005 217.037 131.236 212.377 131.969L210.492 132.23C209.654 132.335 208.921 133.068 208.817 133.958L205.361 157.204L192.953 159.037C193.843 153.33 194.628 147.937 195.152 143.435C195.728 138.723 191.906 134.953 187.246 135.686L185.361 135.948C184.523 136.052 183.79 136.785 183.686 137.675L180.387 160.974L170.544 162.44C169.969 162.545 169.497 163.068 169.55 163.696L169.602 164.482C169.864 168.827 173.581 171.812 177.874 171.183L178.921 171.026L175.937 191.183C175.885 191.393 175.885 191.602 175.832 191.812C173.581 196.681 170.649 199.822 167.874 201.864C163.424 205.162 161.382 201.812 161.801 198.408C163.267 185.948 164.209 184.953 166.827 170.031C167.665 165.319 163.581 161.55 158.921 162.283L157.037 162.545C156.199 162.649 155.466 163.382 155.361 164.272L150.126 195.005C148.607 204.743 150.597 211.183 158.869 209.874C159.078 209.874 167.822 209.508 175.623 199.455C176.356 204.272 179.078 206.89 184.628 206C184.838 206 193.162 205.686 200.754 196.314C201.592 200.712 204.314 203.068 209.654 202.23C209.811 202.23 214 201.654 219.497 197.78C220.073 197.361 220.178 196.628 219.811 196.052L219.759 196C218.974 194.848 218.084 194.953 216.827 195.581C214.838 196.576 211.434 199.037 212.534 190.817C213.372 184.429 214.942 175.005 216.461 165.372L246.356 160.921C246.932 160.817 247.403 160.293 247.351 159.665V158.775ZM200.911 187.414C200.806 188.199 200.701 188.984 200.597 189.77C198.503 193.644 195.937 196.262 193.529 198.042C189.078 201.34 187.037 197.99 187.455 194.586C188.188 188.199 189.759 178.775 191.33 169.141L203.843 167.257L200.911 187.414Z" fill="#0D0D0D"/>
<path d="M163.477 139.298C157.875 139.613 154.524 147.152 156.199 151.759C156.828 153.487 158.294 154.953 160.126 155.267C161.854 155.581 163.739 154.901 165.205 153.696C168.241 151.236 170.126 146.838 168.974 143.225C168.136 140.764 166.409 139.141 163.477 139.298Z" fill="#0D0D0D"/>
<path d="M150.178 174.168L150.126 173.225C149.864 168.984 146.199 166 141.958 166.628L127.299 168.88L131.696 137.832C131.853 136.471 131.592 135.162 131.068 134.063C147.403 130.869 172.953 126.785 179.34 126.314C180.388 126.262 181.225 125.319 181.173 124.325C181.173 124.063 181.121 123.749 181.121 123.382C180.44 117.047 174.628 115.529 169.079 116.105C122.953 120.817 86.932 133.958 95.2043 149.717C96.0943 151.393 97.5603 152.911 99.0786 154.063C100.335 155.005 102.901 156.838 103.581 156.262C104.576 155.424 104.105 154.01 103.319 153.068C102.586 152.178 101.016 151.34 100.649 150.136C100.021 148.094 100.649 146.314 102.063 144.691C105.78 140.555 113.372 138.513 118.189 136.995C118.607 136.89 119.079 136.733 119.655 136.576L114.785 170.764L109.34 171.55C108.764 171.654 108.293 172.178 108.346 172.806L108.398 173.592C108.607 176.785 110.649 179.246 113.477 180.084L109.655 207.047C109.026 212.492 113.372 216.733 118.712 215.948L119.655 215.791C120.283 215.686 120.859 215.162 120.911 214.482L125.937 178.932L149.236 175.476C149.759 175.319 150.23 174.796 150.178 174.168Z" fill="#0D0D0D"/>
</g>
<path d="M16.864 314H24.192V312.816H18.96C21.936 310.464 24.144 308.48 24.144 306.304C24.144 304.176 22.336 303.168 20.56 303.168C19.056 303.168 17.664 303.776 16.848 304.848L17.664 305.696C18.288 304.896 19.28 304.352 20.56 304.352C21.664 304.352 22.784 304.944 22.784 306.304C22.784 308.144 20.704 309.92 16.864 312.944V314ZM26.2223 308.672C26.2223 311.264 27.3743 314.192 30.3023 314.192C33.2143 314.192 34.3823 311.264 34.3823 308.672C34.3823 306.064 33.2143 303.168 30.3023 303.168C27.3743 303.168 26.2223 306.064 26.2223 308.672ZM33.0223 308.672C33.0223 310.8 32.3343 313.008 30.3023 313.008C28.2703 313.008 27.5823 310.8 27.5823 308.672C27.5823 306.544 28.2703 304.352 30.3023 304.352C32.3343 304.352 33.0223 306.544 33.0223 308.672ZM38.0511 314H39.3791V303.328H38.2111L35.5391 306.08L36.3391 306.896L38.0511 305.088V314ZM41.457 311.296C41.457 313.12 43.169 314.192 45.281 314.192C47.377 314.192 49.105 313.104 49.105 311.296C49.105 309.872 47.889 308.896 46.561 308.496C47.793 308.144 48.945 307.344 48.945 305.936C48.945 304.016 47.041 303.168 45.281 303.168C43.505 303.168 41.633 304.016 41.633 305.936C41.633 307.344 42.769 308.144 44.001 308.496C42.673 308.896 41.457 309.872 41.457 311.296ZM47.601 306.112C47.601 307.408 45.937 307.84 45.281 307.952C44.641 307.84 42.961 307.408 42.961 306.112C42.961 305.008 43.985 304.352 45.281 304.352C46.561 304.352 47.601 305.008 47.601 306.112ZM47.761 311.152C47.761 312.304 46.593 313.008 45.281 313.008C43.953 313.008 42.785 312.304 42.785 311.152C42.785 309.76 44.625 309.168 45.281 309.088C45.937 309.168 47.761 309.76 47.761 311.152Z" fill="#0D0D0D"/>
<g clip-path="url(#clip2_38_34)">
<path d="M571.32 184.416C571.32 184.416 566.596 196.587 562.512 196.587C556.747 196.587 556.667 182.014 558.669 164.078H571.561L572.281 152.628H560.11C561.071 146.142 562.112 139.496 563.153 133.171L550.502 131.81C549.381 138.295 548.18 145.422 547.219 152.788H528.963C530.164 144.541 531.525 136.133 532.886 128.447L520.235 127.005C518.874 134.612 517.352 143.66 516.151 152.868H505.262L504.541 164.238H514.87C513.829 169.043 508.064 196.667 500.217 196.667C491.81 196.667 498.055 157.833 498.055 157.833L485.484 156.391C485.484 156.391 481.641 175.609 462.744 175.609C461.543 175.609 460.342 175.528 459.141 175.368C458.26 151.187 459.701 128.206 466.027 128.206C470.911 128.206 468.429 152.308 468.429 152.308H480.359C480.359 152.308 484.523 121 466.347 121C450.253 121 446.329 146.703 446.169 170.644C442.406 168.402 440.164 166.24 440.164 166.24L436 171.365C436 171.365 439.763 175.609 446.249 179.372C446.73 196.667 448.731 211 448.731 211L462.343 209.799C461.222 202.352 460.342 193.544 459.781 184.496C461.943 184.897 464.265 185.137 466.667 185.137C473.473 185.137 478.998 183.135 483.242 180.653C483.082 194.826 485.644 209.879 497.014 209.879C505.262 209.879 511.027 200.431 514.63 191.463C515.991 202.352 519.915 209.719 528.082 209.719C536.009 209.719 541.934 199.95 545.617 190.902C546.899 202.112 550.822 209.799 559.23 209.799C569.959 209.799 577.406 187.299 577.406 187.299L571.32 184.416ZM531.285 196.667C525.52 196.667 525.52 182.094 527.521 164.158H545.938C544.897 169.203 539.132 196.667 531.285 196.667Z" fill="#0D0D0D"/>
<path d="M494.052 151.907C504.381 151.907 504.701 138.856 494.372 138.856C484.123 138.856 482.922 151.907 494.052 151.907Z" fill="#0D0D0D"/>
</g>
<path d="M350.864 314H358.192V312.816H352.96C355.936 310.464 358.144 308.48 358.144 306.304C358.144 304.176 356.336 303.168 354.56 303.168C353.056 303.168 351.664 303.776 350.848 304.848L351.664 305.696C352.288 304.896 353.28 304.352 354.56 304.352C355.664 304.352 356.784 304.944 356.784 306.304C356.784 308.144 354.704 309.92 350.864 312.944V314ZM360.222 308.672C360.222 311.264 361.374 314.192 364.302 314.192C367.214 314.192 368.382 311.264 368.382 308.672C368.382 306.064 367.214 303.168 364.302 303.168C361.374 303.168 360.222 306.064 360.222 308.672ZM367.022 308.672C367.022 310.8 366.334 313.008 364.302 313.008C362.27 313.008 361.582 310.8 361.582 308.672C361.582 306.544 362.27 304.352 364.302 304.352C366.334 304.352 367.022 306.544 367.022 308.672ZM370.067 314H377.395V312.816H372.163C375.139 310.464 377.347 308.48 377.347 306.304C377.347 304.176 375.539 303.168 373.763 303.168C372.259 303.168 370.867 303.776 370.051 304.848L370.867 305.696C371.491 304.896 372.483 304.352 373.763 304.352C374.867 304.352 375.987 304.944 375.987 306.304C375.987 308.144 373.907 309.92 370.067 312.944V314ZM379.425 308.672C379.425 311.264 380.577 314.192 383.505 314.192C386.417 314.192 387.585 311.264 387.585 308.672C387.585 306.064 386.417 303.168 383.505 303.168C380.577 303.168 379.425 306.064 379.425 308.672ZM386.225 308.672C386.225 310.8 385.537 313.008 383.505 313.008C381.473 313.008 380.785 310.8 380.785 308.672C380.785 306.544 381.473 304.352 383.505 304.352C385.537 304.352 386.225 306.544 386.225 308.672Z" fill="#0D0D0D"/>
<rect x="333" width="1" height="375" fill="white"/>
</g>
<defs>
<clipPath id="clip0_38_34">
<rect width="667" height="333" fill="white"/>
</clipPath>
<clipPath id="clip1_38_34">
<rect width="153.403" height="100" fill="white" transform="translate(94 116)"/>
</clipPath>
<clipPath id="clip2_38_34">
<rect width="141.406" height="90" fill="white" transform="translate(436 121)"/>
</clipPath>
</defs>
</svg>
