<?xml version="1.0" encoding="UTF-8" standalone="no"?>
<svg width="60px" height="60px" viewBox="0 0 60 60" version="1.1" xmlns="http://www.w3.org/2000/svg" xmlns:xlink="http://www.w3.org/1999/xlink" xmlns:sketch="http://www.bohemiancoding.com/sketch/ns">
    <!-- Generator: Sketch 3.3.2 (12043) - http://www.bohemiancoding.com/sketch -->
    <title>Artboard 20 Copy</title>
    <desc>Created with Sketch.</desc>
    <defs></defs>
    <g id="Welcome" stroke="none" stroke-width="1" fill="none" fill-rule="evenodd" sketch:type="MSPage">
        <g id="Artboard-20-Copy" sketch:type="MSArtboardGroup" fill="#FFFFFF">
            <path d="M30,60 C46.5685425,60 60,46.5685425 60,30 C60,13.4314575 46.5685425,0 30,0 C13.4314575,0 0,13.4314575 0,30 C0,46.5685425 13.4314575,60 30,60 Z M30,56 C44.3594035,56 56,44.3594035 56,30 C56,15.6405965 44.3594035,4 30,4 C15.6405965,4 4,15.6405965 4,30 C4,44.3594035 15.6405965,56 30,56 Z" id="Oval-1" sketch:type="MSShapeGroup"></path>
            <path d="M33.9527072,31.4096796 C37.1530608,30.3047956 39.2866298,27.8664309 39.2866298,23.7135912 C39.2866298,19.9417459 37.2292597,16.208 30.3713591,16.208 L20.9226961,16.208 L20.9226961,43.792 L24.3897459,43.792 L24.3897459,32.3240663 L30.5999558,32.3240663 L36.9244641,43.792 L40.7344088,43.792 L33.9527072,31.4096796 Z M24.3897459,29.3904088 L24.3897459,19.1797569 L29.1902762,19.1797569 C33.1526188,19.1797569 35.6671823,20.1703425 35.6671823,23.9040884 C35.6671823,28.1712265 33.1526188,29.3904088 29.5331713,29.3904088 L24.3897459,29.3904088 Z" id="R" sketch:type="MSShapeGroup"></path>
        </g>
    </g>
</svg>